<svg width="851" height="863" viewBox="0 0 851 863" fill="none" xmlns="http://www.w3.org/2000/svg">
<path d="M426.445 844.844C652.338 844.844 835.46 748.74 835.46 630.19C835.46 511.64 652.338 415.536 426.445 415.536C200.553 415.536 17.4307 511.64 17.4307 630.19C17.4307 748.74 200.553 844.844 426.445 844.844Z" fill="#F5F5F5"/>
<path d="M180.543 77.9012L164.922 87.0473C165.001 86.3396 165.053 85.6372 165.053 84.9502V80.3608C165.053 72.1951 159.399 68.8846 152.425 72.9666C149.601 74.6201 147.002 77.2402 144.898 80.3056C143.756 70.0376 135.811 66.211 126.163 71.8602C115.729 77.9685 107.271 92.826 107.271 105.044V111.91C107.271 115.074 107.847 117.741 108.87 119.864L95.8961 127.46C92.0274 129.724 88.8906 135.234 88.8906 139.763C88.8906 144.294 92.0274 146.128 95.8961 143.864L180.542 94.3034C184.41 92.0389 187.547 86.5295 187.547 82.0005C187.547 77.4732 184.412 75.6367 180.543 77.9012Z" fill="#EBEBEB"/>
<path d="M255.709 112.219L243.921 119.121C243.978 118.588 244.019 118.058 244.019 117.539V114.075C244.019 107.911 239.752 105.414 234.49 108.495C232.359 109.742 230.396 111.72 228.81 114.033C227.947 106.283 221.953 103.396 214.67 107.661C206.797 112.271 200.412 123.483 200.412 132.705V137.887C200.412 140.275 200.848 142.286 201.619 143.89L191.827 149.623C188.909 151.334 186.541 155.49 186.541 158.909C186.541 162.328 188.909 163.714 191.827 162.004L255.71 124.602C258.629 122.893 260.997 118.735 260.997 115.316C260.995 111.895 258.629 110.51 255.709 112.219Z" fill="#EBEBEB"/>
<path d="M618.264 662.007C585.505 681.187 585.506 712.284 618.266 731.467C651.026 750.646 704.14 750.646 736.898 731.467C769.658 712.286 769.659 681.188 736.897 662.007C704.137 642.826 651.022 642.826 618.264 662.007Z" fill="#E0E0E0"/>
<path d="M135.292 744.579L60.8383 700.987C56.6411 698.529 56.6411 694.544 60.8383 692.086L477.428 448.472C481.625 446.014 488.432 446.014 492.629 448.472L567.085 492.062C571.282 494.52 571.282 498.505 567.085 500.961L150.493 744.579C146.296 747.037 139.489 747.037 135.292 744.579Z" fill="#E0E0E0"/>
<path d="M535.097 589.239L525.833 583.815C504.813 571.506 471.631 570.904 451.862 582.479L417.293 602.719C416.071 603.434 415.654 605.017 416.359 606.256C417.063 607.497 418.627 607.92 419.846 607.204L454.415 586.963C472.77 576.217 503.666 576.814 523.28 588.299L532.544 593.723C541.565 599.007 546.533 605.871 546.533 613.058C546.533 620.243 541.565 627.109 532.544 632.389L405.75 706.628C386.136 718.113 354.219 718.109 334.603 706.628L297.685 685.012C276.662 672.703 242.455 672.703 221.432 685.012L212.168 690.436C201.054 696.943 194.934 705.599 194.934 714.811C194.934 723.303 200.244 731.089 209.886 736.733L242.95 756.092L229.363 764.216C223.156 767.929 223.183 773.956 229.425 777.61L254.259 792.15C255.273 792.743 255.269 793.71 254.253 794.298L252.18 795.498C251.164 796.087 251.163 797.053 252.175 797.647L255.404 799.537C256.417 800.131 258.076 800.132 259.09 799.54L270.359 792.971C271.374 792.379 273.033 792.381 274.046 792.975L294.558 804.984C295.573 805.578 297.231 805.578 298.243 804.984L301.472 803.094C302.485 802.5 302.485 801.53 301.472 800.937L280.959 788.927C279.945 788.333 279.945 787.363 280.959 786.77L288.824 782.165C289.839 781.571 291.497 781.571 292.509 782.165L313.022 794.174C314.034 794.768 315.694 794.768 316.707 794.174L319.935 792.284C320.948 791.69 320.948 790.72 319.935 790.127L299.421 778.116C298.407 777.522 298.407 776.552 299.421 775.958L309.563 770.021C310.578 769.427 310.578 768.457 309.563 767.863L306.335 765.973C305.32 765.379 303.662 765.379 302.65 765.973L299.421 767.863C298.408 768.457 296.749 768.457 295.736 767.863L264.195 749.395C261.402 747.759 256.842 747.781 254.064 749.441L247.784 753.197C247.582 752.916 247.321 752.671 247.005 752.486L212.437 732.245C204.441 727.563 200.038 721.37 200.038 714.806C200.038 707.627 205.389 700.378 214.719 694.915L223.983 689.489C243.595 678.007 275.513 678.007 295.13 689.489L332.048 711.105C353.072 723.413 387.278 723.413 408.301 711.105L535.095 636.867C545.762 630.624 551.637 622.164 551.637 613.051C551.639 603.943 545.765 595.484 535.097 589.239Z" fill="#E0E0E0"/>
<path d="M708.758 694.479C708.105 661.186 720.977 631.091 732.006 616.289C743.033 601.489 761.541 587.02 774.41 591.091C786.395 594.883 785.532 610.718 771.405 621.583C757.279 632.45 735.973 646.197 730.124 664.469L715.857 698.105L708.758 694.479Z" fill="#7DF3B3"/>
<path opacity="0.15" d="M708.758 694.479C708.105 661.186 720.977 631.091 732.006 616.289C743.033 601.489 761.541 587.02 774.41 591.091C786.395 594.883 785.532 610.718 771.405 621.583C757.279 632.45 735.973 646.197 730.124 664.469L715.857 698.105L708.758 694.479Z" fill="black"/>
<path d="M712.677 691.291C713.026 691.253 713.322 690.984 713.383 690.616C716.44 672.174 722.533 650.882 732.883 634.139C744.019 616.123 760.203 605.048 769.534 601.242C769.946 601.074 770.145 600.598 769.98 600.18C769.816 599.764 769.355 599.552 768.933 599.728C759.339 603.641 742.768 615.117 731.365 633.608C720.967 650.467 714.869 671.808 711.797 690.345C711.722 690.788 712.018 691.208 712.455 691.284C712.532 691.296 712.605 691.298 712.677 691.291Z" fill="white"/>
<path d="M720.634 701.705C722.233 695.386 729.509 684.828 741.497 675.943C754.759 666.113 771.745 661.293 775.491 653.824C779.991 644.851 772.417 636.701 758.581 638.829C744.746 640.957 718.824 661.187 713.49 697.494L720.634 701.705Z" fill="#7DF3B3"/>
<path d="M717.771 695.198C718.075 695.166 718.346 694.957 718.448 694.641C729.091 661.697 753.329 649.57 764.659 647.759C765.098 647.69 765.398 647.271 765.328 646.827C765.26 646.38 764.865 646.076 764.409 646.149C751.881 648.149 727.782 660.509 716.92 694.135C716.782 694.561 717.013 695.024 717.434 695.164C717.546 695.2 717.66 695.21 717.771 695.198Z" fill="white"/>
<path d="M418.569 596.908C418.569 596.908 434.046 587.846 453.139 576.669C472.23 565.491 504.206 566.09 524.556 578.005L533.82 583.429C554.171 595.346 554.171 614.663 533.82 626.579L407.025 700.816C386.674 712.733 353.677 712.731 333.326 700.816L296.408 679.2C276.058 667.284 243.061 667.284 222.71 679.2L213.444 684.625C193.094 696.541 192.072 715.261 211.164 726.439L245.731 746.678" stroke="#37474F" stroke-width="3" stroke-miterlimit="10" stroke-linecap="round" stroke-linejoin="round"/>
<path d="M224.263 754.883V757.862C224.263 762.628 227.563 768.424 231.632 770.807L258.834 786.733L286.484 770.54L286.491 746.257L259.642 733.681C255.375 731.682 248.617 731.995 244.547 734.377L231.632 741.938C227.561 744.322 224.263 750.116 224.263 754.883Z" fill="#37474F"/>
<path d="M259.642 733.681C255.375 731.682 248.616 731.995 244.547 734.377L231.632 741.938C227.562 744.322 227.721 747.874 231.988 749.873L258.83 762.445L286.491 746.257L259.642 733.681Z" fill="#455A64"/>
<path opacity="0.1" d="M256.221 756.601C254.185 757.792 252.536 760.69 252.536 763.073V783.045L258.835 786.731L286.486 770.538L286.493 746.255L279.491 742.976L256.221 756.601Z" fill="black"/>
<path d="M288.842 742.076C288.18 741.69 287.268 741.745 286.255 742.337L259.057 758.261C257.021 759.452 255.372 762.35 255.372 764.734V788.487C255.372 789.679 255.787 790.513 256.456 790.898C257.077 791.255 259.3 792.555 259.915 792.923C260.578 793.32 261.496 793.268 262.517 792.671L289.715 776.747C291.751 775.556 293.4 772.658 293.4 770.274V746.521C293.4 745.335 292.991 744.493 292.329 744.104C291.705 743.74 289.465 742.441 288.842 742.076Z" fill="#37474F"/>
<path d="M262.515 760.288L289.713 744.363C291.748 743.173 293.398 744.137 293.398 746.521V770.274C293.398 772.658 291.748 775.556 289.713 776.747L262.515 792.671C260.479 793.862 258.83 792.897 258.83 790.513V766.76C258.83 764.376 260.479 761.478 262.515 760.288Z" fill="#455A64"/>
<path d="M290.687 778.231L268.192 765.06L265.746 766.494L265.744 782.686L288.239 795.857C289.666 796.692 290.961 796.761 291.899 796.207C292.314 795.962 293.934 795.013 294.348 794.771C295.276 794.231 295.844 793.069 295.846 791.402L295.847 787.292C295.846 783.954 293.536 779.898 290.687 778.231ZM286.553 782.563C288.462 783.68 290.01 786.4 290.01 788.635C290.01 788.994 289.957 789.305 289.882 789.593C289.598 789.515 289.305 789.407 288.999 789.226C287.089 788.107 285.542 785.389 285.542 783.153C285.542 782.794 285.593 782.467 285.668 782.178C285.95 782.256 286.245 782.382 286.553 782.563Z" fill="#7DF3B3"/>
<path opacity="0.85" d="M290.686 778.229L268.186 765.06L265.752 766.492L288.235 779.662C291.095 781.336 293.392 785.392 293.392 788.723V792.831C293.392 794.557 292.78 795.765 291.776 796.283C291.81 796.266 291.861 796.231 291.895 796.214C292.32 795.955 293.937 795.006 294.346 794.764C295.282 794.229 295.843 793.073 295.843 791.399V787.291C295.843 783.959 293.529 779.903 290.686 778.229Z" fill="white"/>
<path d="M295.844 787.291V791.398C295.844 793.073 295.282 794.229 294.346 794.764C293.937 795.006 292.321 795.955 291.895 796.214C291.861 796.231 291.827 796.249 291.793 796.266C292.78 795.748 293.393 794.557 293.393 792.831V788.723C293.393 787.049 292.814 785.219 291.878 783.562L294.329 782.13C295.265 783.77 295.844 785.616 295.844 787.291Z" fill="#7DF3B3"/>
<path opacity="0.6" d="M295.844 787.291V791.398C295.844 793.073 295.282 794.229 294.346 794.764C293.937 795.006 292.321 795.955 291.895 796.214C291.861 796.231 291.827 796.249 291.793 796.266C292.78 795.748 293.393 794.557 293.393 792.831V788.723C293.393 787.049 292.814 785.219 291.878 783.562L294.329 782.13C295.265 783.77 295.844 785.616 295.844 787.291Z" fill="white"/>
<path opacity="0.05" d="M295.844 787.291V791.398C295.844 793.073 295.282 794.229 294.346 794.764C293.937 795.006 292.321 795.955 291.895 796.214C291.861 796.231 291.827 796.249 291.793 796.266C292.78 795.748 293.393 794.557 293.393 792.831V788.723C293.393 787.049 292.814 785.219 291.878 783.562L294.329 782.13C295.265 783.77 295.844 785.616 295.844 787.291Z" fill="black"/>
<path opacity="0.6" d="M285.547 783.148C285.547 782.786 285.599 782.454 285.667 782.178C284.19 781.761 283.096 782.705 283.096 784.581C283.096 786.825 284.645 789.534 286.551 790.656C288.151 791.606 289.512 791.105 289.887 789.586C289.597 789.517 289.308 789.414 289.002 789.224C287.095 788.102 285.547 785.392 285.547 783.148Z" fill="white"/>
<path opacity="0.1" d="M285.547 783.148C285.547 782.786 285.599 782.454 285.667 782.178C284.19 781.761 283.096 782.705 283.096 784.581C283.096 786.825 284.645 789.534 286.551 790.656C288.151 791.606 289.512 791.105 289.887 789.586C289.597 789.517 289.308 789.414 289.002 789.224C287.095 788.102 285.547 785.392 285.547 783.148Z" fill="black"/>
<path opacity="0.7" d="M288.241 779.664L265.746 766.492L265.744 782.684L288.239 795.855C291.089 797.522 293.398 796.171 293.398 792.835L293.4 788.725C293.4 785.389 291.09 781.333 288.241 779.664ZM286.553 790.658C284.643 789.54 283.096 786.821 283.096 784.586C283.096 782.351 284.643 781.445 286.553 782.561C288.462 783.678 290.01 786.398 290.01 788.634C290.01 790.87 288.461 791.777 286.553 790.658Z" fill="white"/>
<path d="M308.985 767.519L286.489 754.348L284.044 755.782L284.042 771.974L306.537 785.145C307.964 785.981 309.259 786.05 310.197 785.496C310.612 785.25 312.232 784.301 312.646 784.06C313.573 783.519 314.142 782.358 314.144 780.69V776.581C314.144 773.244 311.834 769.187 308.985 767.519ZM304.851 771.852C306.76 772.97 308.307 775.688 308.307 777.924C308.307 778.283 308.255 778.593 308.18 778.882C307.896 778.804 307.603 778.695 307.296 778.514C305.387 777.395 303.84 774.677 303.84 772.442C303.84 772.083 303.891 771.755 303.966 771.467C304.25 771.544 304.544 771.67 304.851 771.852Z" fill="#7DF3B3"/>
<path opacity="0.85" d="M308.984 767.518L286.484 754.348L284.05 755.781L306.533 768.95C309.393 770.624 311.69 774.68 311.69 778.012V782.12C311.69 783.846 311.078 785.054 310.073 785.572C310.107 785.554 310.158 785.52 310.193 785.502C310.618 785.244 312.235 784.294 312.643 784.053C313.58 783.518 314.141 782.361 314.141 780.687V776.579C314.141 773.248 311.826 769.192 308.984 767.518Z" fill="white"/>
<path d="M314.142 776.579V780.687C314.142 782.361 313.58 783.517 312.644 784.053C312.235 784.294 310.618 785.243 310.193 785.502C310.159 785.52 310.125 785.537 310.091 785.554C311.078 785.036 311.691 783.845 311.691 782.119V778.012C311.691 776.337 311.112 774.508 310.176 772.851L312.627 771.418C313.563 773.058 314.142 774.905 314.142 776.579Z" fill="#7DF3B3"/>
<path opacity="0.6" d="M314.142 776.579V780.687C314.142 782.361 313.58 783.517 312.644 784.053C312.235 784.294 310.618 785.243 310.193 785.502C310.159 785.52 310.125 785.537 310.091 785.554C311.078 785.036 311.691 783.845 311.691 782.119V778.012C311.691 776.337 311.112 774.508 310.176 772.851L312.627 771.418C313.563 773.058 314.142 774.905 314.142 776.579Z" fill="white"/>
<path opacity="0.05" d="M314.142 776.579V780.687C314.142 782.361 313.58 783.517 312.644 784.053C312.235 784.294 310.618 785.243 310.193 785.502C310.159 785.52 310.125 785.537 310.091 785.554C311.078 785.036 311.691 783.845 311.691 782.119V778.012C311.691 776.337 311.112 774.508 310.176 772.851L312.627 771.418C313.563 773.058 314.142 774.905 314.142 776.579Z" fill="black"/>
<path opacity="0.6" d="M303.844 772.437C303.844 772.074 303.897 771.743 303.965 771.467C302.488 771.049 301.394 771.993 301.394 773.869C301.394 776.113 302.942 778.823 304.849 779.945C306.448 780.894 307.81 780.394 308.185 778.875C307.895 778.806 307.606 778.702 307.299 778.512C305.393 777.39 303.844 774.68 303.844 772.437Z" fill="white"/>
<path opacity="0.1" d="M303.844 772.437C303.844 772.074 303.897 771.743 303.965 771.467C302.488 771.049 301.394 771.993 301.394 773.869C301.394 776.113 302.942 778.823 304.849 779.945C306.448 780.894 307.81 780.394 308.185 778.875C307.895 778.806 307.606 778.702 307.299 778.512C305.393 777.39 303.844 774.68 303.844 772.437Z" fill="black"/>
<path opacity="0.7" d="M306.539 768.952L284.044 755.781L284.042 771.972L306.537 785.143C309.386 786.813 311.696 785.459 311.696 782.123V778.013C311.698 774.677 309.388 770.621 306.539 768.952ZM304.851 779.946C302.941 778.828 301.394 776.11 301.394 773.874C301.394 771.639 302.941 770.733 304.851 771.85C306.76 772.968 308.307 775.687 308.307 777.922C308.307 780.159 306.76 781.065 304.851 779.946Z" fill="white"/>
<path d="M386.438 676.83L450.443 639.3C457.04 635.437 460.339 630.375 460.34 625.313C460.34 620.248 460.368 616.284 460.368 616.284L393.959 578.31C390.441 576.249 387.588 571.239 387.588 567.119V487.093L275.794 552.605L275.789 632.631C275.789 636.751 278.642 641.761 282.16 643.822L338.651 676.832C351.848 684.556 373.242 684.554 386.438 676.83Z" fill="#7DF3B3"/>
<g opacity="0.6">
<path d="M386.438 676.83L450.443 639.3C457.04 635.437 460.339 630.375 460.34 625.313C460.34 620.248 460.368 616.284 460.368 616.284L393.959 578.31C390.441 576.249 387.588 571.239 387.588 567.119V487.093L275.794 552.605L275.789 632.631C275.789 636.751 278.642 641.761 282.16 643.822L338.651 676.832C351.848 684.556 373.242 684.554 386.438 676.83Z" fill="black"/>
</g>
<path opacity="0.3" d="M302.632 646.799V655.788L282.143 643.813C278.649 641.761 275.779 636.763 275.779 632.622V552.605L297.078 540.145C297.519 545.628 297.997 551.298 298.438 556.82L283.503 565.586V628.107C283.503 632.248 286.335 637.246 289.867 639.298L302.632 646.799Z" fill="black"/>
<path d="M283.502 628.124C283.502 632.244 286.354 637.255 289.872 639.316L338.643 667.805C351.839 675.53 373.235 675.534 386.432 667.81L450.47 630.283C463.667 622.561 463.669 610.037 450.473 602.31L401.672 573.8C398.154 571.739 395.299 566.73 395.299 562.609L395.298 500.079L283.5 565.589V628.124H283.502Z" fill="#7DF3B3"/>
<path opacity="0.3" d="M283.502 628.124C283.502 632.244 286.354 637.255 289.872 639.316L338.643 667.805C351.839 675.53 373.235 675.534 386.432 667.81L450.47 630.283C463.667 622.561 463.669 610.037 450.473 602.31L401.672 573.8C398.154 571.739 395.299 566.73 395.299 562.609L395.298 500.079L283.5 565.589V628.124H283.502Z" fill="black"/>
<path opacity="0.5" d="M414.648 581.408V581.4L401.67 573.802C398.15 571.741 395.298 566.73 395.298 562.61V500.081L283.5 565.591V628.124C283.5 632.244 286.353 637.255 289.872 639.316L302.625 646.782L414.648 581.408Z" fill="black"/>
<path d="M460.355 616.289C460.355 616.289 460.355 620.243 460.355 625.316C460.355 630.389 457.044 635.425 450.459 639.305L386.444 676.815C380.117 680.545 371.914 682.41 363.637 682.559V673.568C371.914 673.456 380.117 671.516 386.444 667.824L450.459 630.278C457.044 626.436 460.355 621.364 460.355 616.289Z" fill="#7DF3B3"/>
<path opacity="0.5" d="M460.355 616.289C460.355 616.289 460.355 620.243 460.355 625.316C460.355 630.389 457.044 635.425 450.459 639.305L386.444 676.815C380.117 680.545 371.914 682.41 363.637 682.559V673.568C371.914 673.456 380.117 671.516 386.444 667.824L450.459 630.278C457.044 626.436 460.355 621.364 460.355 616.289Z" fill="black"/>
<path d="M103.997 705.846C108.123 708.261 115.035 708.131 119.433 705.556C174.396 673.376 496.828 484.6 551.78 452.426C556.178 449.851 559.742 443.589 559.742 445.342V46.1134C559.742 34.059 556.398 27.9248 552.272 25.5102C548.146 23.0955 541.236 23.2232 536.836 25.8001L104.496 278.93C100.098 281.505 96.5324 287.769 96.5324 292.919L96.5273 692.147C96.5273 697.297 99.8718 703.431 103.997 705.846Z" fill="#7DF3B3"/>
<path d="M119.436 705.547L551.783 452.418C556.181 449.842 559.747 443.579 559.747 445.332V46.1033C559.747 34.0489 556.181 31.9622 551.783 34.5356L119.441 287.667C115.043 290.243 111.478 296.506 111.478 301.657L111.473 700.884C111.471 706.036 115.037 708.123 119.436 705.547Z" fill="#7DF3B3"/>
<path opacity="0.5" d="M119.436 705.547L551.783 452.418C556.181 449.842 559.747 443.579 559.747 445.332V46.1033C559.747 34.0489 556.181 31.9622 551.783 34.5356L119.441 287.667C115.043 290.243 111.478 296.506 111.478 301.657L111.473 700.884C111.471 706.036 115.037 708.123 119.436 705.547Z" fill="black"/>
<path d="M118.264 714.768C113.851 716.744 107.744 716.67 103.991 714.469C99.8703 712.044 96.5225 705.925 96.5225 700.74V675.349L111.458 684.115V709.507C111.459 714.207 114.402 716.333 118.264 714.768Z" fill="#7DF3B3"/>
<path opacity="0.5" d="M118.264 714.768C113.851 716.744 107.744 716.67 103.991 714.469C99.8703 712.044 96.5225 705.925 96.5225 700.74V675.349L111.458 684.115V709.507C111.459 714.207 114.402 716.333 118.264 714.768Z" fill="black"/>
<path d="M111.459 684.116L111.473 709.495C111.473 714.645 115.038 716.734 119.436 714.158L551.783 461.028C556.181 458.453 559.747 452.19 559.747 447.039V421.591L111.459 684.116Z" fill="#7DF3B3"/>
<path opacity="0.3" d="M111.473 684.048V709.495C111.473 714.645 115.038 716.734 119.436 714.158L551.783 461.028C556.181 458.453 559.747 452.19 559.747 447.039V421.591L111.473 684.048Z" fill="black"/>
<path d="M126.409 652.228L126.413 306.686C126.413 303.595 128.552 299.837 131.19 298.292L540.016 58.9291C542.655 57.3843 544.795 58.6374 544.795 61.7269L544.808 407.276C544.808 410.367 542.669 414.124 540.031 415.669L131.188 655.026C128.55 656.572 126.409 655.319 126.409 652.228Z" fill="#7DF3B3"/>
<path d="M126.409 652.228L126.413 306.686C126.413 303.595 128.552 299.837 131.19 298.292L540.016 58.9291C542.655 57.3843 544.795 58.6374 544.795 61.7269L544.808 407.276C544.808 410.367 542.669 414.124 540.031 415.669L131.188 655.026C128.55 656.572 126.409 655.319 126.409 652.228Z" fill="#263238"/>
<path opacity="0.7" d="M113.813 293.667C112.379 296.204 111.497 299.076 111.459 301.65V684.116L96.5244 675.349L96.5329 292.92C96.5329 290.346 97.4435 287.474 98.8783 284.937L113.813 293.667Z" fill="black"/>
<path opacity="0.3" d="M559.664 37.8719C559.099 33.7088 555.785 32.1985 551.772 34.5304L119.44 287.676C117.255 288.955 115.277 291.133 113.808 293.674L98.873 284.926C100.323 282.424 102.301 280.209 104.505 278.929L536.838 25.802C541.245 23.2233 548.138 23.0904 552.282 25.5155C556.049 27.7109 559.155 33.0408 559.664 37.8719Z" fill="black"/>
<path d="M167.479 673.276C167.424 673.295 166.471 674.022 164.362 674.234C162.73 674.398 161.028 674.148 159.801 673.423C157.731 672.215 156.082 669.168 156.082 666.605L156.063 353.157L163.52 357.524V670.953C163.52 672.774 164.422 673.827 165.722 673.827C165.906 673.825 166.616 673.768 167.479 673.276Z" fill="#F0F0F0"/>
<path d="M165.715 672.897C164.56 672.897 164.436 671.537 164.436 670.953V331.899L174.898 325.777C176.174 325.025 177.211 321.68 179.27 314.227C180.356 310.299 181.995 304.363 182.846 303.695L277.329 248.373C278.138 248.801 279.913 251.968 280.987 253.889C283.296 258.011 284.68 260.345 286.244 260.345C286.513 260.345 286.767 260.276 286.998 260.139L577.467 90.0437V428.024C577.467 430.259 575.865 433.083 573.966 434.189L167.021 672.472C166.548 672.75 166.098 672.897 165.715 672.897Z" fill="#FAFAFA"/>
<path d="M576.551 91.6523V114.593V428.022C576.551 429.933 575.13 432.437 573.506 433.383L166.56 671.669C166.104 671.939 165.818 671.966 165.716 671.966C165.357 671.966 165.353 670.993 165.353 670.951V332.436L175.359 326.58C176.942 325.65 177.931 322.522 180.154 314.477C181.144 310.892 182.63 305.514 183.432 304.427L277.207 249.519C278.016 250.467 279.346 252.842 280.192 254.349C282.742 258.9 284.17 261.273 286.246 261.273C286.672 261.273 287.092 261.159 287.458 260.944L576.551 91.6523ZM578.383 88.4351L286.539 259.335C286.446 259.39 286.347 259.416 286.245 259.416C284.027 259.416 279.527 247.415 277.294 247.415C277.19 247.415 277.09 247.441 276.996 247.496L182.37 302.903C180.171 304.185 176.617 323.692 174.437 324.973L163.519 331.364V670.953C163.519 672.772 164.414 673.827 165.714 673.827C166.245 673.827 166.844 673.651 167.477 673.278L574.422 434.995C576.621 433.713 578.383 430.589 578.383 428.024V114.593V88.4351Z" fill="#E0E0E0"/>
<path d="M159.794 343.741C157.74 342.538 156.073 339.483 156.073 336.918L156.068 305.519C156.068 302.954 157.849 299.835 160.039 298.553L566.979 60.2665C569.169 58.9841 572.611 58.9202 574.667 60.1233C576.721 61.3263 578.387 64.3813 578.379 66.9444L578.382 98.3473C578.391 100.914 576.614 104.029 574.422 105.312L167.479 343.595C165.288 344.877 161.848 344.944 159.794 343.741Z" fill="#7DF3B3"/>
<path opacity="0.4" d="M578.343 66.2886C578.069 64.2071 576.401 63.4459 574.424 64.6161L167.477 302.903C166.396 303.553 165.408 304.649 164.674 305.913L157.236 301.548C157.97 300.284 158.94 299.204 160.04 298.553L566.984 60.2701C569.165 58.9877 572.609 58.9134 574.66 60.1216C576.548 61.2366 578.105 63.874 578.343 66.2886Z" fill="white"/>
<path opacity="0.1" d="M164.674 305.911C163.959 307.155 163.52 308.586 163.52 309.869V357.522L156.063 353.155L156.067 305.517C156.067 305.35 156.074 305.2 156.087 305.032C156.118 304.656 156.167 304.37 156.24 304.035C156.441 303.199 156.782 302.311 157.236 301.546L164.674 305.911Z" fill="black"/>
<path d="M578.381 66.9394L578.384 88.435L286.54 259.335C284.36 260.617 282.583 259.577 282.583 257.013V248.875C282.583 246.312 280.806 245.271 278.607 246.552L182.373 302.901C180.174 304.183 178.397 307.304 178.397 309.867V318.005C178.397 320.568 176.62 323.691 174.44 324.971L163.521 331.363V309.869C163.521 307.306 165.298 304.183 167.479 302.903L574.423 64.6179C576.602 63.3355 578.381 64.3763 578.381 66.9394Z" fill="#7DF3B3"/>
<path d="M559.783 80.4195C562.54 78.8057 564.774 80.114 564.774 83.3416C564.774 86.5692 562.539 90.4942 559.783 92.108C557.026 93.7218 554.793 92.4135 554.793 89.1859C554.793 85.9582 557.028 82.0333 559.783 80.4195Z" fill="white"/>
<path d="M541.815 90.9256C544.573 89.3118 546.806 90.6201 546.806 93.8477C546.806 97.0753 544.571 101 541.815 102.614C539.058 104.228 536.825 102.92 536.825 99.692C536.823 96.4643 539.058 92.5394 541.815 90.9256Z" fill="white"/>
<path d="M523.846 101.432C526.603 99.8179 528.836 101.126 528.836 104.354C528.836 107.581 526.601 111.506 523.846 113.12C521.088 114.734 518.854 113.426 518.854 110.198C518.854 106.97 521.088 103.046 523.846 101.432Z" fill="white"/>
<path d="M578.382 88.4351V114.594L163.52 357.522V331.363L171.674 326.573C173.854 325.291 174.586 323.342 175.631 319.607L178.395 309.867C179.266 306.486 180.172 304.182 182.371 302.901L276.997 247.495C279.196 246.212 280.91 246.072 282.583 248.874L285.975 255.117C287.219 257.297 287.842 258.579 290.022 257.298L578.382 88.4351Z" fill="#E6E6E6"/>
<path d="M163.52 331.364V357.522L156.063 353.157V327.017L163.52 331.364Z" fill="#E0E0E0"/>
<path opacity="0.5" d="M181.714 333.251L175.488 336.896L177.862 332.265C178.07 331.86 178.092 331.352 177.908 331.135C177.726 330.914 177.41 331.071 177.202 331.475L173.824 338.065C173.82 338.073 173.818 338.082 173.815 338.091C173.778 338.167 173.75 338.249 173.725 338.334C173.716 338.362 173.704 338.387 173.698 338.413C173.67 338.526 173.653 338.641 173.653 338.753C173.653 338.866 173.67 338.962 173.698 339.042C173.704 339.061 173.716 339.073 173.725 339.09C173.75 339.145 173.778 339.195 173.815 339.228C173.818 339.231 173.82 339.238 173.824 339.242L177.202 341.876C177.297 341.95 177.415 341.945 177.532 341.876C177.672 341.795 177.81 341.624 177.908 341.387C178.092 340.956 178.07 340.474 177.862 340.312L175.488 338.462L181.714 334.816C181.991 334.654 182.214 334.174 182.214 333.741C182.216 333.306 181.991 333.089 181.714 333.251Z" fill="#455A64"/>
<path opacity="0.5" d="M186.915 330.204L193.141 326.559L190.767 324.709C190.559 324.547 190.537 324.065 190.719 323.632C190.902 323.199 191.218 322.983 191.426 323.143L194.804 325.777C194.808 325.781 194.809 325.788 194.814 325.791C194.852 325.824 194.879 325.874 194.905 325.929C194.913 325.946 194.925 325.957 194.932 325.977C194.959 326.059 194.976 326.153 194.976 326.266C194.976 326.378 194.959 326.494 194.932 326.606C194.925 326.633 194.913 326.659 194.905 326.685C194.879 326.77 194.852 326.853 194.814 326.928C194.811 326.937 194.809 326.946 194.804 326.953L191.426 333.543C191.33 333.727 191.213 333.86 191.096 333.929C190.956 334.01 190.818 334.002 190.719 333.883C190.536 333.665 190.558 333.158 190.767 332.752L193.141 328.121L186.915 331.766C186.638 331.929 186.415 331.71 186.415 331.278C186.415 330.848 186.64 330.367 186.915 330.204Z" fill="#455A64"/>
<path opacity="0.5" d="M207.343 312.021C207.304 311.639 206.977 311.69 206.812 312.102L205.959 314.216C204.506 314.056 202.743 315.497 201.553 318.052C200.011 321.362 200.011 325.28 201.553 326.785C202.324 327.538 203.337 327.546 204.349 326.953C205.362 326.359 206.375 325.164 207.146 323.509C207.342 323.09 207.342 322.594 207.146 322.403C206.95 322.211 206.633 322.398 206.438 322.817C205.287 325.285 203.413 326.386 202.261 325.263C201.109 324.139 201.109 321.214 202.261 318.74C203.08 316.981 204.259 315.941 205.287 315.877L204.644 317.472C204.477 317.886 204.63 318.271 204.892 318.098L207.432 316.417C207.61 316.3 207.741 315.972 207.716 315.711L207.343 312.021Z" fill="#455A64"/>
<path opacity="0.5" d="M274.267 259.437L276.536 254.564C276.805 253.988 276.805 253.309 276.536 253.047C276.267 252.785 275.833 253.04 275.564 253.617L273.296 258.489L271.025 256.275C270.756 256.012 270.322 256.268 270.053 256.844C269.784 257.421 269.784 258.099 270.053 258.361L272.324 260.576L270.053 265.448C269.784 266.025 269.784 266.703 270.053 266.965C270.188 267.097 270.363 267.098 270.538 266.995C270.714 266.891 270.891 266.684 271.023 266.396L273.294 261.523L275.563 263.74C275.697 263.871 275.872 263.872 276.048 263.769C276.223 263.665 276.4 263.458 276.533 263.17C276.802 262.594 276.802 261.915 276.533 261.653L274.267 259.437Z" fill="#455A64"/>
<path d="M215.604 318.012V309.872C215.604 307.307 217.38 304.188 219.572 302.906L552.097 108.284C554.287 107.002 556.062 108.041 556.062 110.605V118.744C556.062 121.308 554.285 124.427 552.095 125.71L219.572 320.333C217.381 321.616 215.604 320.577 215.604 318.012Z" fill="#FAFAFA"/>
<path d="M549.784 112.585L550.825 114.829C550.89 114.971 551.018 115.021 551.166 114.964L553.496 114.057C553.865 113.914 554.013 114.442 553.746 114.952L552.061 118.16C551.954 118.362 551.906 118.593 551.932 118.776L552.33 121.681C552.393 122.142 552.007 122.75 551.675 122.706L549.592 122.446C549.46 122.43 549.304 122.522 549.171 122.691L547.088 125.392C546.758 125.822 546.37 125.668 546.433 125.133L546.831 121.764C546.856 121.552 546.807 121.377 546.702 121.3L545.017 120.066C544.749 119.869 544.896 119.168 545.267 118.878L547.595 117.057C547.741 116.943 547.869 116.743 547.935 116.524L548.977 113.06C549.141 112.509 549.619 112.23 549.784 112.585Z" stroke="#E0E0E0" stroke-width="0.8073" stroke-miterlimit="10"/>
<g opacity="0.5">
<path d="M560.739 107.291C560.264 107.291 559.801 107.041 559.547 106.594C559.168 105.928 559.394 105.075 560.05 104.69L571.211 98.154C571.872 97.7691 572.709 97.9987 573.089 98.6632C573.468 99.3294 573.242 100.182 572.586 100.567L561.425 107.103C561.209 107.231 560.972 107.291 560.739 107.291Z" fill="#455A64"/>
<path d="M560.739 113.83C560.264 113.83 559.801 113.579 559.547 113.132C559.168 112.466 559.394 111.613 560.05 111.229L571.211 104.692C571.872 104.304 572.709 104.537 573.089 105.201C573.468 105.868 573.242 106.72 572.586 107.105L561.425 113.642C561.209 113.769 560.972 113.83 560.739 113.83Z" fill="#455A64"/>
<path d="M560.739 120.368C560.264 120.368 559.801 120.117 559.547 119.67C559.168 119.004 559.394 118.152 560.05 117.767L571.211 111.23C571.872 110.842 572.709 111.075 573.089 111.739C573.468 112.406 573.242 113.258 572.586 113.643L561.425 120.18C561.209 120.307 560.972 120.368 560.739 120.368Z" fill="#455A64"/>
</g>
<g opacity="0.5">
<path d="M175.76 364.847C175.285 364.847 174.823 364.597 174.569 364.15C174.189 363.484 174.416 362.631 175.071 362.246L186.233 355.71C186.893 355.325 187.73 355.554 188.11 356.219C188.49 356.885 188.263 357.738 187.606 358.123L176.445 364.659C176.23 364.787 175.993 364.847 175.76 364.847Z" fill="#455A64"/>
<path d="M175.76 371.385C175.285 371.385 174.823 371.135 174.569 370.688C174.189 370.022 174.416 369.169 175.071 368.784L186.233 362.248C186.893 361.86 187.73 362.093 188.11 362.757C188.49 363.423 188.263 364.276 187.606 364.661L176.445 371.197C176.23 371.325 175.993 371.385 175.76 371.385Z" fill="#455A64"/>
<path d="M175.76 377.923C175.285 377.923 174.823 377.673 174.569 377.226C174.189 376.56 174.416 375.707 175.071 375.322L186.233 368.786C186.893 368.398 187.73 368.631 188.11 369.295C188.49 369.961 188.263 370.814 187.606 371.199L176.445 377.735C176.23 377.863 175.993 377.923 175.76 377.923Z" fill="#455A64"/>
</g>
<path d="M274.782 307.207L274.784 317.235C274.784 319.286 276.217 320.123 277.967 319.099L410.597 241.333L410.595 223.85L277.963 301.617C276.215 302.642 274.782 305.159 274.782 307.207Z" fill="#E6E6E6"/>
<path d="M427.322 214.059C429.08 213.03 430.505 213.864 430.505 215.923V225.952C430.505 228.012 429.08 230.514 427.322 231.543L410.598 241.335L410.597 223.852L427.322 214.059Z" fill="#7DF3B3"/>
<path d="M426.085 227.808L424.22 227.218C424.412 226.415 424.52 225.59 424.52 224.781C424.52 222.846 423.9 221.373 422.819 220.74C422.016 220.271 421.049 220.317 420.099 220.875C418.009 222.098 416.372 225.554 416.372 228.742C416.372 230.677 416.992 232.149 418.072 232.782C418.438 232.996 418.838 233.103 419.255 233.103C419.752 233.103 420.275 232.951 420.79 232.649C422.047 231.914 423.132 230.366 423.803 228.559L425.672 229.149C425.742 229.171 425.81 229.18 425.878 229.18C426.174 229.18 426.446 228.989 426.538 228.686C426.654 228.317 426.451 227.924 426.085 227.808ZM420.099 231.434C419.582 231.738 419.133 231.785 418.765 231.567C418.142 231.203 417.756 230.121 417.756 228.743C417.756 226.101 419.145 223.056 420.79 222.091C421.095 221.915 421.374 221.824 421.628 221.824C421.807 221.824 421.973 221.869 422.125 221.959C422.746 222.323 423.132 223.405 423.132 224.784C423.136 227.423 421.745 230.469 420.099 231.434Z" fill="#FAFAFA"/>
<path d="M219.662 335.757L200.506 346.988C198.754 348.013 197.335 350.507 197.335 352.558V362.548C197.335 364.598 198.754 365.43 200.506 364.405L219.66 353.174C221.411 352.149 222.831 349.655 222.831 347.604L222.833 337.612C222.833 335.562 221.413 334.73 219.662 335.757Z" fill="#7DF3B3"/>
<path d="M552.662 140.771C548.541 143.186 545.198 149.054 545.198 153.882C545.198 158.709 548.541 160.665 552.662 158.252C556.782 155.839 560.128 149.969 560.125 145.141C560.121 140.315 556.779 138.358 552.662 140.771Z" fill="#7DF3B3"/>
<path d="M551.789 148.469C551.551 148.469 551.328 148.41 551.127 148.293C550.663 148.022 550.409 147.483 550.409 146.779C550.409 145.49 551.272 143.973 552.375 143.327C552.974 142.975 553.56 142.93 554.028 143.203C554.491 143.476 554.748 144.012 554.748 144.717C554.748 146.006 553.885 147.523 552.783 148.169C552.438 148.369 552.101 148.469 551.789 148.469Z" fill="white"/>
<path d="M555.609 148.973C554.876 148.543 553.945 148.616 552.981 149.178L551.897 149.81C550.015 150.915 548.539 153.507 548.539 155.711V156.49C549.603 157.088 551.053 156.987 552.66 156.048C554.263 155.112 555.718 153.51 556.78 151.671V151.482C556.782 150.321 556.358 149.409 555.609 148.973Z" fill="white"/>
<path d="M526.267 164.182V161.51C526.267 158.462 524.439 157.061 522.184 158.381C519.929 159.702 518.101 163.243 518.101 166.291V168.68C518.101 170.182 517.587 171.889 516.727 173.344C516.726 173.347 516.724 173.351 516.722 173.354C516.516 173.729 516.389 174.169 516.389 174.576C516.389 175.344 516.85 175.696 517.417 175.365L526.953 169.781C527.521 169.448 527.981 168.556 527.981 167.788C527.981 167.403 527.865 167.123 527.68 166.98C527.675 166.977 527.67 166.973 527.664 166.972C526.82 166.585 526.267 165.622 526.267 164.182Z" fill="#7DF3B3"/>
<path d="M524.143 172.25C524.143 173.713 523.265 175.414 522.182 176.047C521.1 176.68 520.222 176.007 520.222 174.544L524.143 172.25Z" fill="#7DF3B3"/>
<path d="M491.061 176.889C491.646 176.546 492.198 176.349 492.715 176.3C493.236 176.25 493.685 176.338 494.066 176.563C494.448 176.789 494.747 177.143 494.965 177.628C495.186 178.113 495.295 178.72 495.295 179.456C495.295 180.042 495.234 180.595 495.108 181.109C494.982 181.623 494.822 182.117 494.632 182.588C494.437 183.061 494.226 183.508 493.995 183.928C493.767 184.349 493.542 184.76 493.328 185.165C493.113 185.569 492.919 185.971 492.749 186.375C492.575 186.777 492.456 187.178 492.395 187.573C492.364 187.771 492.313 187.956 492.245 188.127C492.177 188.298 492.085 188.415 491.973 188.483L490.06 189.603C489.941 189.67 489.842 189.665 489.76 189.582C489.675 189.499 489.634 189.37 489.634 189.189C489.634 188.65 489.706 188.127 489.845 187.62C489.988 187.112 490.162 186.624 490.37 186.149C490.581 185.676 490.809 185.219 491.054 184.782C491.299 184.342 491.527 183.928 491.735 183.536C491.946 183.144 492.119 182.768 492.262 182.407C492.402 182.046 492.473 181.703 492.473 181.377C492.473 180.904 492.358 180.598 492.126 180.464C491.898 180.329 491.544 180.403 491.061 180.685C490.591 180.961 490.254 181.268 490.05 181.61C489.845 181.948 489.696 182.278 489.604 182.593C489.508 182.911 489.427 183.199 489.359 183.46C489.291 183.721 489.158 183.909 488.96 184.024L487.044 185.146C486.952 185.201 486.87 185.2 486.802 185.141C486.734 185.082 486.7 184.974 486.7 184.808C486.71 184.23 486.816 183.57 487.013 182.823C487.214 182.077 487.497 181.332 487.868 180.584C488.242 179.837 488.695 179.133 489.226 178.479C489.76 177.823 490.37 177.293 491.061 176.889ZM492.427 192.822C492.427 193.001 492.387 193.182 492.301 193.36C492.22 193.54 492.118 193.664 492.005 193.731L490.028 194.89C489.912 194.957 489.813 194.95 489.731 194.867C489.646 194.786 489.606 194.657 489.606 194.477V192.002C489.606 191.822 489.646 191.643 489.731 191.462C489.813 191.282 489.912 191.16 490.028 191.092L492.005 189.934C492.118 189.867 492.22 189.874 492.301 189.955C492.387 190.036 492.427 190.167 492.427 190.347V192.822Z" fill="#7DF3B3"/>
<path d="M274.97 487.814C273.404 487.814 271.956 487.207 270.781 486.054C269.253 484.564 268.472 482.448 268.472 479.778V467.005L234.806 486.718C233.732 487.346 232.617 487.667 231.494 487.667C229.932 487.667 228.485 487.06 227.312 485.914C225.777 484.421 224.994 482.303 224.994 479.629V458.591C224.994 454.634 225.646 450.914 226.933 447.534L264.96 350.407C265.888 348.094 266.76 346.424 267.636 345.266C268.622 343.976 269.912 342.861 271.486 341.938L290.686 330.695C291.765 330.066 292.877 329.749 293.998 329.749C295.557 329.749 297.002 330.351 298.173 331.492C299.722 333.013 300.5 335.124 300.5 337.783V406.53L305.051 403.865C306.122 403.237 307.236 402.917 308.363 402.917C309.917 402.917 311.359 403.516 312.531 404.65C314.09 406.19 314.865 408.299 314.865 410.952V431.99C314.865 434.082 314.387 436.17 313.442 438.199C312.392 440.456 311 442.103 309.308 443.095L300.498 448.252V466.004C300.498 468.093 300.02 470.181 299.077 472.213C298.018 474.481 296.626 476.129 294.931 477.115L278.285 486.863C277.21 487.495 276.095 487.814 274.97 487.814ZM263.272 428.324L269.105 424.908V413.434L263.272 428.324Z" fill="#E0E0E0"/>
<path d="M345.996 444.664C345.652 444.664 345.315 444.656 344.978 444.638C339.316 444.355 334.531 442.219 330.76 438.287C327.247 434.629 324.621 429.538 322.959 423.153C321.404 417.207 320.478 410.489 320.212 403.195C320.042 397.862 319.957 391.989 319.957 385.718C319.957 379.447 320.044 373.344 320.211 367.574C320.474 360.04 321.382 352.377 322.903 344.772C324.437 337.081 326.806 329.661 329.943 322.722C333.093 315.753 337.12 309.249 341.913 303.391C346.796 297.43 352.7 292.398 359.46 288.441C366.163 284.516 371.962 282.607 377.182 282.607C377.525 282.607 377.862 282.615 378.199 282.633C383.869 282.926 388.65 285.061 392.415 288.983C395.931 292.654 398.554 297.744 400.217 304.114C401.772 310.079 402.696 316.795 402.962 324.074C403.132 329.792 403.217 335.797 403.217 341.952C403.217 348.114 403.13 354.084 402.964 359.697C402.7 367.217 401.796 374.88 400.273 382.494C398.734 390.197 396.365 397.617 393.233 404.545C390.081 411.522 386.054 418.027 381.261 423.876C376.382 429.838 370.477 434.868 363.714 438.827C357.013 442.755 351.214 444.664 345.996 444.664ZM367.329 326.283C366.958 326.283 365.865 326.419 363.714 327.678C361.654 328.884 359.923 330.379 358.575 332.115C357.147 333.953 355.987 336.021 355.127 338.262C354.222 340.621 353.531 343.226 353.071 345.992C352.596 348.863 352.317 351.907 352.239 355.037C351.818 366.164 351.818 377.271 352.237 388.107C352.315 391.162 352.569 393.839 352.993 396.126C353.417 398.416 354.043 399.619 354.496 400.225C354.913 400.788 355.27 400.931 355.713 400.981C355.726 400.983 355.738 400.983 355.75 400.983C356.276 400.983 357.369 400.822 359.459 399.598C361.518 398.394 363.246 396.899 364.599 395.157C366.04 393.302 367.227 391.21 368.125 388.935C369.06 386.581 369.742 384.011 370.158 381.298C370.593 378.443 370.854 375.39 370.935 372.233C371.269 360.914 371.269 349.784 370.935 339.135C370.78 336.237 370.483 333.544 370.054 331.221C369.71 329.378 369.182 327.904 368.532 326.97C368.178 326.463 367.877 326.338 367.451 326.287L367.329 326.283Z" fill="#E0E0E0"/>
<path d="M461.637 378.524C460.071 378.524 458.623 377.915 457.448 376.763C455.92 375.274 455.139 373.158 455.139 370.488V357.715L421.473 377.428C420.399 378.056 419.284 378.377 418.161 378.377C416.599 378.377 415.152 377.77 413.979 376.624C412.444 375.131 411.661 373.013 411.661 370.339V349.299C411.661 345.342 412.313 341.622 413.6 338.242L451.628 241.115C452.555 238.802 453.427 237.132 454.303 235.974C455.288 234.684 456.579 233.569 458.153 232.646L477.353 221.403C478.432 220.774 479.544 220.457 480.665 220.457C482.224 220.457 483.669 221.059 484.84 222.2C486.389 223.721 487.167 225.832 487.167 228.491V297.238L491.718 294.573C492.789 293.945 493.903 293.625 495.03 293.625C496.584 293.625 498.026 294.224 499.198 295.358C500.757 296.898 501.532 299.007 501.532 301.66V322.698C501.532 324.79 501.054 326.878 500.109 328.907C499.059 331.164 497.667 332.811 495.975 333.803L487.165 338.96V356.712C487.165 358.801 486.687 360.889 485.744 362.921C484.685 365.189 483.293 366.837 481.598 367.823L464.952 377.571C463.877 378.205 462.76 378.524 461.637 378.524ZM449.939 319.034L455.772 315.618V304.144L449.939 319.034Z" fill="#E0E0E0"/>
<path d="M324.201 416.485C324.063 416.353 323.92 416.244 323.772 416.159C323.19 415.828 310.85 408.599 310.85 408.599V346.494C310.85 345.041 310.512 343.983 309.834 343.319C309.703 343.191 309.565 343.086 309.424 343.003C308.837 342.659 295.752 335.001 295.619 334.92C295.027 334.563 294.349 334.606 293.59 335.048L274.395 346.287C273.294 346.935 272.424 347.677 271.788 348.509C271.154 349.344 270.455 350.713 269.692 352.615L231.68 449.702C230.579 452.599 230.027 455.764 230.027 459.206V480.244C230.027 481.701 230.363 482.759 231.043 483.42C231.181 483.554 231.326 483.665 231.474 483.749C232.056 484.081 245.139 491.749 245.281 491.834C245.868 492.179 246.535 492.131 247.286 491.691L273.507 476.338V480.392C273.507 481.849 273.844 482.907 274.523 483.568C274.655 483.698 274.792 483.805 274.935 483.887C275.52 484.231 288.615 491.896 288.757 491.979C289.344 492.326 290.014 492.279 290.768 491.837L307.421 482.086C308.352 481.544 309.158 480.541 309.838 479.086C310.513 477.629 310.854 476.177 310.854 474.717V454.473L321.787 448.071C322.718 447.526 323.525 446.526 324.204 445.068C324.88 443.615 325.22 442.158 325.22 440.703V419.665C325.217 418.208 324.878 417.153 324.201 416.485Z" fill="#7DF3B3"/>
<path opacity="0.15" d="M285.523 356.586L285.455 356.828C284.859 357.674 284.212 358.968 283.514 360.712L245.509 457.799C245.015 459.076 244.641 460.405 244.385 461.786L230.463 453.639C230.735 452.276 231.093 450.964 231.569 449.704L269.575 352.617C270.341 350.718 271.039 349.337 271.685 348.509C271.685 348.509 271.685 348.491 271.702 348.491L285.523 356.586Z" fill="black"/>
<path opacity="0.3" d="M245.117 491.732C243.551 490.817 232.029 484.069 231.467 483.758C231.331 483.672 231.178 483.551 231.042 483.413C230.361 482.757 230.021 481.704 230.021 480.237V459.214C230.021 457.281 230.225 455.452 230.565 453.691L244.385 461.786C244.028 463.529 243.858 465.376 243.858 467.309V488.349C243.858 489.799 244.198 490.852 244.862 491.508C244.947 491.594 245.032 491.663 245.117 491.732Z" fill="black"/>
<path opacity="0.3" d="M287.974 399.598V436.121L276.332 429.303L287.974 399.598Z" fill="black"/>
<path opacity="0.4" d="M287.973 436.12L269.404 446.977L276.331 429.303L287.973 436.12Z" fill="black"/>
<path opacity="0.3" d="M288.348 491.663C288.433 491.732 288.501 491.801 288.587 491.87C287.038 490.973 275.481 484.207 274.937 483.896C274.783 483.81 274.647 483.706 274.528 483.568C273.847 482.912 273.507 481.842 273.507 480.392V476.336L287.327 468.241V488.487C287.327 489.937 287.667 491.007 288.348 491.663Z" fill="black"/>
<path opacity="0.15" d="M323.614 416.081C323.069 415.84 322.456 415.909 321.793 416.306L310.849 422.709V408.608C310.849 408.608 322.099 415.184 323.614 416.081Z" fill="black"/>
<path opacity="0.4" d="M309.334 342.951C308.772 342.658 308.125 342.727 307.411 343.141L288.229 354.377C287.123 355.033 286.272 355.758 285.625 356.586L271.805 348.491C272.434 347.663 273.302 346.938 274.392 346.282L293.59 335.046C294.356 334.597 295.02 334.563 295.616 334.925C295.752 334.994 308.04 342.192 309.334 342.951Z" fill="white"/>
<path d="M290.765 491.841C289.83 492.386 289.025 492.329 288.348 491.665C287.671 491.004 287.332 489.946 287.332 488.489V468.243L247.284 491.692C246.351 492.238 245.548 492.181 244.869 491.516C244.19 490.855 243.853 489.797 243.853 488.341V467.301C243.853 463.859 244.402 460.693 245.505 457.797L283.518 360.71C284.28 358.808 284.98 357.439 285.613 356.604C286.249 355.772 287.119 355.029 288.22 354.382L307.415 343.142C308.346 342.601 309.153 342.657 309.832 343.319C310.508 343.983 310.848 345.041 310.848 346.494V422.715L321.782 416.313C322.713 415.767 323.52 415.828 324.199 416.485C324.875 417.153 325.215 418.208 325.215 419.665V440.703C325.215 442.16 324.876 443.616 324.199 445.068C323.52 446.528 322.713 447.526 321.782 448.071L310.848 454.473V474.717C310.848 476.177 310.51 477.631 309.832 479.086C309.153 480.542 308.346 481.544 307.415 482.085L290.765 491.841ZM287.967 436.113V399.595L269.406 446.982L287.967 436.113Z" fill="#7DF3B3"/>
<path d="M413.317 332.947C413.062 325.952 412.192 319.614 410.71 313.93C409.227 308.25 406.979 303.843 403.973 300.706C402.915 299.603 401.757 298.679 400.503 297.937C398.195 296.568 387.915 290.574 386.654 289.828C384.351 288.468 381.723 287.714 378.768 287.56C374.192 287.331 368.723 289.074 362.366 292.795C356.011 296.517 350.544 301.175 345.966 306.766C341.391 312.358 337.597 318.483 334.588 325.139C331.579 331.796 329.33 338.836 327.851 346.251C326.365 353.671 325.497 361.028 325.242 368.322C325.072 374.112 324.99 380.117 324.99 386.338C324.99 392.558 325.074 398.328 325.242 403.655C325.497 410.65 326.365 416.991 327.851 422.672C329.33 428.355 331.579 432.765 334.588 435.896C335.64 436.992 336.787 437.912 338.031 438.653C340.344 440.032 350.762 446.123 352.098 446.887C354.353 448.178 356.918 448.896 359.793 449.041C364.369 449.271 369.836 447.528 376.193 443.806C382.548 440.085 388.017 435.427 392.595 429.836C397.17 424.251 400.964 418.122 403.973 411.463C406.979 404.811 409.227 397.769 410.71 390.351C412.192 382.934 413.062 375.574 413.317 368.28C413.484 362.759 413.569 356.885 413.569 350.666C413.571 344.446 413.484 338.543 413.317 332.947ZM363.081 403.489C362.817 401.518 362.652 399.357 362.591 396.987C362.165 385.991 362.165 374.872 362.591 363.641C362.674 360.287 362.972 357.066 363.479 353.989C363.99 350.911 364.752 348.053 365.768 345.402C366.786 342.76 368.143 340.341 369.838 338.158C371.341 336.221 373.196 334.577 375.363 333.187C375.642 335.148 375.846 337.288 375.969 339.616C376.306 350.404 376.306 361.518 375.969 372.963C375.882 376.32 375.606 379.527 375.143 382.577C374.677 385.628 373.913 388.49 372.854 391.16C371.795 393.834 370.415 396.26 368.721 398.442C367.193 400.413 365.302 402.086 363.081 403.489Z" fill="#7DF3B3"/>
<path opacity="0.15" d="M351.731 446.666C349.433 445.337 340.191 439.935 338.029 438.658C336.787 437.916 335.647 436.984 334.591 435.896C331.579 432.755 329.332 428.354 327.852 422.675C326.371 416.997 325.503 410.645 325.247 403.655C325.077 398.321 324.992 392.556 324.992 386.343C324.992 380.112 325.077 374.105 325.247 368.323C325.503 361.022 326.371 353.67 327.852 346.248C328.89 341.018 330.319 335.995 332.141 331.145L345.944 339.257C344.14 344.09 342.727 349.13 341.689 354.343C340.191 361.765 339.323 369.117 339.068 376.418C338.898 382.2 338.812 388.207 338.812 394.438C338.812 400.651 338.898 406.416 339.068 411.749C339.323 418.74 340.191 425.091 341.689 430.77C343.153 436.449 345.416 440.867 348.412 443.991C349.416 445.044 350.539 445.942 351.731 446.666Z" fill="black"/>
<path opacity="0.4" d="M399.982 297.643C397.804 296.47 395.336 295.814 392.596 295.658C388.017 295.434 382.554 297.177 376.188 300.888C369.84 304.616 364.377 309.277 359.798 314.869C355.22 320.461 351.424 326.571 348.412 333.234C347.952 334.235 347.527 335.253 347.101 336.289C346.71 337.272 346.335 338.256 345.961 339.257H345.944L332.141 331.145C332.464 330.265 332.804 329.385 333.162 328.522C333.621 327.382 334.081 326.26 334.592 325.139C337.604 318.476 341.399 312.366 345.961 306.757C350.539 301.182 356.02 296.521 362.368 292.793C368.717 289.065 374.197 287.339 378.775 287.564C381.72 287.719 384.358 288.461 386.656 289.825C387.847 290.532 396.936 295.831 399.982 297.643Z" fill="white"/>
<path opacity="0.3" d="M389.804 381.061C389.719 384.41 389.429 387.62 388.97 390.675C388.51 393.73 387.744 396.578 386.689 399.253C386.23 400.41 385.702 401.531 385.106 402.602L371.286 394.507C371.865 393.437 372.392 392.315 372.852 391.158C373.907 388.483 374.673 385.635 375.15 382.58C375.609 379.525 375.882 376.315 375.967 372.966C376.307 361.523 376.307 350.407 375.967 339.62C375.847 337.29 375.643 335.15 375.371 333.182C375.371 333.182 375.728 332.923 376.188 332.647C378.724 331.111 380.851 330.524 382.553 330.714C384.238 330.921 385.6 331.749 386.621 333.199C387.642 334.649 388.374 336.634 388.851 339.137C389.31 341.639 389.634 344.504 389.804 347.715C390.127 358.502 390.127 369.618 389.804 381.061Z" fill="black"/>
<path opacity="0.4" d="M385.107 402.602C384.358 404 383.507 405.311 382.554 406.537C380.852 408.729 378.741 410.558 376.188 412.043C373.652 413.544 371.542 414.183 369.84 413.976C368.138 413.786 366.759 412.975 365.704 411.542C364.649 410.11 363.883 408.142 363.423 405.639C363.287 404.949 363.185 404.224 363.083 403.482C365.296 402.084 367.202 400.41 368.717 398.442C369.67 397.216 370.538 395.905 371.287 394.507L385.107 402.602Z" fill="black"/>
<path d="M376.195 300.892C382.551 297.171 388.019 295.427 392.597 295.657C397.172 295.893 400.966 297.575 403.975 300.707C406.981 303.845 409.229 308.252 410.712 313.932C412.194 319.616 413.064 325.953 413.319 332.949C413.486 338.545 413.571 344.448 413.571 350.668C413.571 356.889 413.484 362.76 413.319 368.282C413.064 375.578 412.194 382.936 410.712 390.352C409.229 397.772 406.981 404.814 403.975 411.465C400.966 418.122 397.172 424.251 392.597 429.838C388.021 435.427 382.552 440.087 376.195 443.808C369.84 447.529 364.373 449.273 359.795 449.043C355.22 448.814 351.426 447.129 348.417 443.993C345.408 440.862 343.159 436.452 341.68 430.768C340.195 425.088 339.327 418.747 339.071 411.751C338.901 406.425 338.819 400.653 338.819 394.434C338.819 388.215 338.903 382.211 339.071 376.418C339.327 369.122 340.195 361.768 341.68 354.348C343.159 346.931 345.408 339.893 348.417 333.235C351.426 326.582 355.218 320.456 359.795 314.862C364.373 309.272 369.838 304.613 376.195 300.892ZM389.798 381.059C390.135 369.614 390.135 358.501 389.798 347.713C389.627 344.508 389.309 341.648 388.845 339.14C388.378 336.636 387.634 334.656 386.618 333.197C385.601 331.744 384.242 330.916 382.549 330.715C380.854 330.517 378.736 331.164 376.194 332.65C373.652 334.14 371.533 335.975 369.838 338.158C368.143 340.343 366.787 342.76 365.769 345.402C364.753 348.051 363.99 350.91 363.48 353.989C362.971 357.066 362.673 360.285 362.591 363.641C362.166 374.873 362.166 385.991 362.591 396.987C362.675 400.247 362.952 403.126 363.417 405.634C363.88 408.139 364.644 410.112 365.706 411.537C366.766 412.97 368.143 413.786 369.838 413.981C371.533 414.18 373.652 413.536 376.194 412.046C378.736 410.56 380.854 408.722 382.549 406.539C384.242 404.357 385.623 401.93 386.681 399.257C387.74 396.587 388.502 393.725 388.97 390.673C389.435 387.623 389.711 384.417 389.798 381.059Z" fill="#7DF3B3"/>
<path d="M510.868 307.195C510.73 307.062 510.587 306.953 510.439 306.869C509.857 306.537 497.517 299.309 497.517 299.309V237.204C497.517 235.751 497.179 234.693 496.501 234.028C496.368 233.9 496.232 233.795 496.091 233.712C495.504 233.369 482.419 225.71 482.286 225.629C481.694 225.272 481.016 225.315 480.257 225.757L461.062 236.997C459.961 237.644 459.091 238.386 458.455 239.218C457.821 240.054 457.122 241.422 456.359 243.324L418.347 340.412C417.246 343.308 416.694 346.474 416.694 349.915V370.953C416.694 372.41 417.03 373.468 417.71 374.129C417.848 374.264 417.993 374.374 418.141 374.459C418.723 374.79 431.806 382.459 431.948 382.544C432.535 382.889 433.202 382.84 433.953 382.4L460.174 367.047V371.102C460.174 372.559 460.511 373.617 461.19 374.278C461.322 374.407 461.459 374.514 461.602 374.597C462.187 374.94 475.284 382.606 475.424 382.688C476.011 383.035 476.681 382.989 477.435 382.547L494.088 372.795C495.019 372.253 495.825 371.25 496.504 369.795C497.18 368.339 497.521 366.885 497.521 365.427V345.183L508.454 338.781C509.385 338.235 510.192 337.236 510.871 335.778C511.547 334.324 511.887 332.867 511.887 331.412V310.374C511.884 308.918 511.545 307.861 510.868 307.195Z" fill="#7DF3B3"/>
<path opacity="0.15" d="M472.19 247.294L472.121 247.536C471.526 248.382 470.879 249.676 470.181 251.42L432.176 348.507C431.682 349.784 431.308 351.113 431.052 352.494L417.13 344.347C417.402 342.984 417.76 341.672 418.236 340.412L456.242 243.325C457.008 241.426 457.706 240.045 458.352 239.217C458.352 239.217 458.352 239.199 458.369 239.199L472.19 247.294Z" fill="black"/>
<path opacity="0.3" d="M431.784 382.44C430.218 381.525 418.696 374.777 418.134 374.466C417.998 374.38 417.845 374.259 417.709 374.121C417.028 373.465 416.688 372.412 416.688 370.945V349.922C416.688 347.989 416.892 346.16 417.232 344.399L431.052 352.494C430.695 354.237 430.525 356.084 430.525 358.017V379.057C430.525 380.507 430.865 381.56 431.529 382.216C431.614 382.302 431.699 382.371 431.784 382.44Z" fill="black"/>
<path opacity="0.3" d="M474.641 290.306V326.829L462.999 320.011L474.641 290.306Z" fill="black"/>
<path opacity="0.4" d="M474.641 326.828L456.072 337.685L462.999 320.011L474.641 326.828Z" fill="black"/>
<path opacity="0.3" d="M475.015 382.371C475.1 382.44 475.168 382.509 475.254 382.578C473.705 381.681 462.148 374.915 461.604 374.604C461.45 374.518 461.314 374.414 461.195 374.276C460.514 373.62 460.174 372.55 460.174 371.1V367.044L473.994 358.949V379.195C473.994 380.645 474.334 381.715 475.015 382.371Z" fill="black"/>
<path opacity="0.15" d="M510.281 306.79C509.736 306.548 509.123 306.617 508.459 307.014L497.516 313.417V299.316C497.516 299.316 508.766 305.892 510.281 306.79Z" fill="black"/>
<path opacity="0.4" d="M496.001 233.659C495.439 233.366 494.792 233.435 494.077 233.849L474.896 245.085C473.79 245.741 472.939 246.466 472.292 247.294L458.472 239.199C459.101 238.371 459.969 237.646 461.059 236.99L480.257 225.754C481.023 225.305 481.687 225.271 482.283 225.633C482.419 225.702 494.707 232.9 496.001 233.659Z" fill="white"/>
<path d="M477.432 382.549C476.497 383.094 475.692 383.037 475.015 382.373C474.338 381.712 473.999 380.654 473.999 379.197V358.951L433.951 382.4C433.018 382.946 432.215 382.889 431.536 382.224C430.857 381.563 430.52 380.505 430.52 379.048V358.01C430.52 354.569 431.069 351.403 432.172 348.507L470.185 251.419C470.947 249.517 471.647 248.149 472.281 247.313C472.918 246.481 473.788 245.739 474.889 245.092L494.084 233.852C495.015 233.31 495.82 233.367 496.501 234.028C497.177 234.693 497.517 235.751 497.517 237.204V313.424L508.451 307.023C509.382 306.477 510.187 306.538 510.868 307.195C511.543 307.863 511.884 308.918 511.884 310.374V331.413C511.884 332.869 511.545 334.326 510.868 335.778C510.187 337.238 509.382 338.236 508.451 338.781L497.517 345.183V365.427C497.517 366.887 497.178 368.34 496.501 369.795C495.822 371.252 495.015 372.253 494.084 372.795L477.432 382.549ZM474.634 326.821V290.303L456.073 337.69L474.634 326.821Z" fill="#7DF3B3"/>
<path d="M342.478 504.739C342.691 504.615 342.873 504.629 343.026 504.777C343.179 504.927 343.256 505.169 343.256 505.499V510.262C343.256 510.592 343.179 510.923 343.026 511.253C342.871 511.581 342.691 511.807 342.478 511.93L328.832 519.923C328.62 520.045 328.437 520.033 328.285 519.883C328.13 519.735 328.054 519.495 328.054 519.165V490.123C328.054 489.794 328.13 489.464 328.285 489.133C328.438 488.805 328.62 488.579 328.832 488.454L342.25 480.596C342.461 480.473 342.642 480.487 342.796 480.636C342.951 480.786 343.028 481.027 343.028 481.354V486.121C343.028 486.451 342.951 486.78 342.796 487.108C342.642 487.438 342.461 487.664 342.25 487.79L333.381 492.982V497.839L341.617 493.016C341.828 492.894 342.008 492.906 342.163 493.056C342.318 493.206 342.395 493.448 342.395 493.774V498.541C342.395 498.871 342.318 499.201 342.163 499.528C342.008 499.858 341.828 500.084 341.617 500.21L333.381 505.031V510.067L342.478 504.739Z" fill="#455A64"/>
<path d="M355.866 472.622C357.132 471.88 358.266 471.426 359.265 471.26C360.262 471.096 361.111 471.231 361.813 471.659C362.514 472.087 363.052 472.846 363.424 473.927C363.799 475.012 363.986 476.424 363.986 478.164C363.986 480.41 363.687 482.45 363.094 484.283C362.499 486.114 361.654 487.742 360.56 489.16L364.131 497.77C364.189 497.915 364.218 498.063 364.218 498.211C364.218 498.481 364.156 498.752 364.032 499.021C363.906 499.287 363.758 499.473 363.584 499.573L359.67 501.865C359.284 502.09 359.011 502.116 358.85 501.94C358.684 501.767 358.555 501.572 358.46 501.36L355.263 493.61L352.613 495.16V504.781C352.613 505.11 352.535 505.442 352.384 505.77C352.229 506.098 352.047 506.325 351.836 506.448L348.064 508.656C347.851 508.78 347.671 508.766 347.518 508.618C347.363 508.467 347.286 508.226 347.286 507.896V478.854C347.286 478.528 347.363 478.197 347.518 477.867C347.671 477.537 347.851 477.311 348.064 477.185L355.866 472.622ZM352.613 488.147L355.866 486.243C356.673 485.772 357.34 485.141 357.869 484.353C358.397 483.565 358.661 482.539 358.661 481.283C358.661 480.023 358.397 479.307 357.869 479.139C357.34 478.967 356.673 479.118 355.866 479.591L352.613 481.497V488.147Z" fill="#455A64"/>
<path d="M376.6 460.483C377.866 459.741 378.998 459.289 379.997 459.123C380.996 458.959 381.846 459.092 382.545 459.52C383.246 459.948 383.784 460.707 384.157 461.79C384.531 462.875 384.719 464.287 384.719 466.025C384.719 468.272 384.421 470.313 383.827 472.144C383.231 473.975 382.387 475.603 381.294 477.022L384.865 485.631C384.921 485.778 384.952 485.924 384.952 486.074C384.952 486.344 384.889 486.613 384.765 486.882C384.64 487.148 384.49 487.334 384.317 487.434L380.402 489.727C380.018 489.953 379.744 489.977 379.582 489.803C379.419 489.628 379.289 489.435 379.192 489.221L375.996 481.471L373.348 483.021V492.642C373.348 492.971 373.269 493.303 373.116 493.633C372.961 493.96 372.779 494.188 372.57 494.311L368.796 496.52C368.585 496.643 368.405 496.631 368.25 496.482C368.095 496.334 368.019 496.092 368.019 495.762V466.721C368.019 466.393 368.095 466.061 368.25 465.732C368.405 465.402 368.585 465.176 368.796 465.053L376.6 460.483ZM373.348 476.01L376.6 474.106C377.407 473.633 378.074 473.003 378.602 472.215C379.129 471.426 379.395 470.401 379.395 469.144C379.395 467.884 379.129 467.169 378.602 467C378.076 466.828 377.407 466.98 376.6 467.453L373.348 469.356V476.01Z" fill="#455A64"/>
<path d="M388.086 465.492C388.144 463.781 388.379 462.062 388.793 460.336C389.205 458.61 389.792 456.981 390.548 455.443C391.307 453.903 392.227 452.495 393.313 451.218C394.397 449.937 395.65 448.881 397.07 448.049C398.472 447.229 399.721 446.82 400.814 446.825C401.908 446.828 402.833 447.155 403.592 447.805C404.351 448.456 404.935 449.4 405.348 450.641C405.76 451.884 405.997 453.329 406.053 454.972C406.092 456.239 406.111 457.576 406.111 458.985C406.111 460.393 406.092 461.724 406.053 462.975C405.997 464.687 405.76 466.403 405.348 468.131C404.935 469.855 404.351 471.493 403.592 473.048C402.834 474.602 401.908 476.012 400.814 477.282C399.72 478.551 398.472 479.598 397.07 480.416C395.65 481.248 394.397 481.668 393.313 481.673C392.227 481.676 391.307 481.348 390.548 480.684C389.792 480.018 389.205 479.063 388.793 477.824C388.379 476.579 388.144 475.138 388.086 473.493C388.047 472.289 388.03 470.98 388.03 469.572C388.03 468.164 388.049 466.803 388.086 465.492ZM400.729 465.866C400.748 465.317 400.765 464.706 400.787 464.035C400.805 463.365 400.816 462.685 400.816 461.995C400.816 461.306 400.805 460.645 400.787 460.012C400.765 459.38 400.748 458.816 400.729 458.315C400.691 457.588 400.589 456.958 400.426 456.425C400.261 455.89 400.031 455.479 399.735 455.187C399.437 454.898 399.068 454.747 398.627 454.735C398.186 454.725 397.667 454.894 397.071 455.241C396.477 455.59 395.96 456.028 395.517 456.556C395.075 457.086 394.706 457.668 394.409 458.306C394.112 458.947 393.88 459.628 393.72 460.353C393.555 461.078 393.455 461.826 393.417 462.599C393.378 463.132 393.354 463.721 393.344 464.372C393.334 465.022 393.33 465.69 393.33 466.381C393.33 467.068 393.334 467.742 393.344 468.393C393.354 469.051 393.378 469.634 393.417 470.15C393.494 471.607 393.824 472.655 394.409 473.302C394.997 473.947 395.882 473.921 397.071 473.224C398.263 472.529 399.146 471.517 399.723 470.19C400.297 468.863 400.632 467.425 400.729 465.866Z" fill="#455A64"/>
<path d="M418.724 435.82C419.991 435.078 421.124 434.624 422.123 434.458C423.121 434.294 423.97 434.427 424.671 434.855C425.371 435.283 425.908 436.043 426.281 437.123C426.657 438.209 426.843 439.621 426.843 441.361C426.843 443.606 426.545 445.646 425.951 447.479C425.357 449.309 424.511 450.938 423.418 452.357L426.989 460.966C427.045 461.111 427.076 461.26 427.076 461.408C427.076 461.677 427.015 461.948 426.889 462.218C426.765 462.483 426.616 462.67 426.443 462.77L422.527 465.062C422.142 465.286 421.868 465.312 421.708 465.136C421.543 464.964 421.413 464.769 421.318 464.556L418.12 456.807L415.472 458.357V467.977C415.472 468.307 415.394 468.638 415.24 468.966C415.087 469.294 414.905 469.522 414.694 469.645L410.921 471.852C410.71 471.976 410.529 471.964 410.374 471.816C410.219 471.666 410.145 471.424 410.145 471.094V442.053C410.145 441.727 410.219 441.395 410.374 441.065C410.529 440.736 410.71 440.51 410.921 440.384L418.724 435.82ZM415.472 451.345L418.724 449.442C419.531 448.971 420.198 448.339 420.728 447.552C421.255 446.763 421.519 445.738 421.519 444.481C421.519 443.221 421.255 442.505 420.728 442.338C420.198 442.165 419.531 442.317 418.724 442.79L415.472 444.695V451.345Z" fill="#455A64"/>
<path d="M290.555 554.451C292.334 553.411 293.717 553.255 294.705 553.985C295.688 554.717 296.182 556.345 296.182 558.873C296.182 561.399 295.688 563.618 294.705 565.527C293.719 567.436 292.334 568.912 290.555 569.953L287.023 572.02V579.703C287.023 579.957 286.966 580.209 286.846 580.461C286.731 580.714 286.591 580.887 286.428 580.982L284.641 582.028C284.477 582.124 284.338 582.114 284.22 581.997C284.103 581.885 284.045 581.698 284.045 581.446V559.191C284.045 558.939 284.101 558.687 284.22 558.433C284.338 558.18 284.477 558.007 284.641 557.912L290.555 554.451ZM287.022 567.712L290.443 565.71C291.282 565.22 291.952 564.571 292.451 563.762C292.951 562.952 293.2 561.904 293.2 560.617C293.2 559.333 292.951 558.587 292.451 558.387C291.952 558.187 291.282 558.332 290.443 558.823L287.022 560.826V567.712Z" fill="#E0E0E0"/>
<path d="M305.47 545.718C305.705 545.582 305.88 545.575 305.999 545.701C306.116 545.825 306.22 546.06 306.309 546.398L311.714 565.004C311.73 565.065 311.736 565.142 311.736 565.234C311.736 565.486 311.679 565.74 311.561 565.99C311.444 566.245 311.304 566.418 311.142 566.513L309.553 567.443C309.257 567.616 309.051 567.638 308.935 567.511C308.818 567.386 308.738 567.245 308.692 567.086L307.742 563.815L300.769 567.897L299.819 572.278C299.775 572.488 299.695 572.725 299.576 572.987C299.458 573.253 299.251 573.47 298.958 573.643L297.368 574.573C297.206 574.668 297.067 574.66 296.949 574.541C296.832 574.428 296.772 574.244 296.772 573.992C296.772 573.9 296.779 573.816 296.796 573.738L302.202 548.801C302.29 548.359 302.392 548.005 302.512 547.743C302.629 547.479 302.804 547.277 303.041 547.139L305.47 545.718ZM306.683 560.132L304.256 551.735L301.827 562.975L306.683 560.132Z" fill="#E0E0E0"/>
<path d="M313.435 549.976C313.464 548.581 313.625 547.23 313.922 545.918C314.216 544.61 314.642 543.384 315.202 542.24C315.76 541.101 316.447 540.065 317.264 539.139C318.08 538.212 319.033 537.43 320.122 536.793C321.402 536.044 322.457 535.687 323.288 535.714C324.118 535.747 324.78 535.978 325.272 536.413C325.766 536.846 326.111 537.392 326.311 538.043C326.508 538.697 326.624 539.28 326.653 539.789C326.668 540.058 326.612 540.316 326.486 540.559C326.362 540.804 326.217 540.975 326.055 541.07L324.268 542.114C324.105 542.211 323.977 542.223 323.882 542.15C323.785 542.081 323.715 541.988 323.671 541.878C323.642 541.803 323.563 541.648 323.439 541.412C323.313 541.173 323.116 540.968 322.844 540.795C322.573 540.619 322.216 540.533 321.775 540.526C321.332 540.521 320.781 540.711 320.119 541.099C319.016 541.743 318.134 542.725 317.47 544.044C316.808 545.362 316.456 546.812 316.412 548.402C316.381 549.294 316.367 550.238 316.367 551.236C316.367 552.234 316.383 553.164 316.412 554.017C316.456 555.898 316.808 557.075 317.47 557.548C318.134 558.021 319.016 557.938 320.119 557.291C320.662 556.973 321.164 556.587 321.62 556.136C322.076 555.686 322.469 555.158 322.799 554.55C323.129 553.941 323.388 553.247 323.57 552.462C323.754 551.676 323.848 550.789 323.848 549.802V549.526L321.155 551.101C320.992 551.196 320.852 551.188 320.735 551.072C320.617 550.958 320.559 550.773 320.559 550.522V548.074C320.559 547.822 320.616 547.57 320.735 547.316C320.852 547.064 320.992 546.89 321.155 546.795L326.231 543.825C326.394 543.728 326.533 543.737 326.651 543.852C326.767 543.968 326.828 544.153 326.828 544.405V548.193C326.828 549.572 326.688 550.922 326.409 552.246C326.13 553.57 325.71 554.814 325.151 555.979C324.593 557.146 323.894 558.209 323.056 559.17C322.217 560.135 321.24 560.94 320.12 561.594C319.002 562.25 318.03 562.588 317.208 562.612C316.384 562.636 315.699 562.393 315.156 561.884C314.613 561.375 314.196 560.625 313.91 559.633C313.624 558.641 313.464 557.463 313.435 556.105C313.421 555.677 313.409 555.202 313.401 554.676C313.394 554.153 313.391 553.616 313.391 553.064C313.391 552.512 313.394 551.97 313.401 551.44C313.409 550.912 313.421 550.421 313.435 549.976Z" fill="#E0E0E0"/>
<path d="M340.442 545.048C340.604 544.953 340.743 544.965 340.861 545.081C340.978 545.195 341.038 545.38 341.038 545.632V548.076C341.038 548.329 340.978 548.583 340.861 548.835C340.743 549.089 340.604 549.263 340.442 549.358L330.758 555.028C330.594 555.123 330.455 555.114 330.337 554.997C330.22 554.885 330.16 554.698 330.16 554.446V532.193C330.16 531.939 330.218 531.689 330.337 531.434C330.455 531.182 330.594 531.009 330.758 530.912L340.267 525.344C340.43 525.249 340.57 525.258 340.687 525.374C340.803 525.489 340.862 525.674 340.862 525.926V528.372C340.862 528.624 340.804 528.877 340.687 529.128C340.57 529.381 340.43 529.554 340.267 529.651L333.139 533.822V539.301L339.78 535.41C339.942 535.315 340.081 535.327 340.199 535.443C340.316 535.557 340.376 535.742 340.376 535.994V538.438C340.376 538.693 340.316 538.945 340.199 539.197C340.081 539.449 339.942 539.623 339.78 539.718L333.139 543.605V549.325L340.442 545.048Z" fill="#E0E0E0"/>
<path d="M359.925 537.949C359.673 538.096 359.482 538.105 359.351 537.975C359.22 537.846 359.123 537.74 359.064 537.661L352.885 526.946V541.141C352.885 541.393 352.828 541.648 352.708 541.897C352.593 542.152 352.453 542.325 352.29 542.42L350.503 543.464C350.339 543.56 350.2 543.552 350.082 543.434C349.965 543.322 349.905 543.138 349.905 542.886V520.629C349.905 520.377 349.963 520.127 350.082 519.871C350.2 519.617 350.339 519.447 350.503 519.352L352.046 518.447C352.295 518.301 352.487 518.292 352.62 518.421C352.753 518.549 352.848 518.656 352.906 518.735L359.086 529.449V515.256C359.086 515.002 359.144 514.752 359.263 514.496C359.38 514.244 359.52 514.072 359.682 513.977L361.469 512.927C361.63 512.833 361.77 512.843 361.887 512.959C362.005 513.074 362.066 513.259 362.066 513.511V535.764C362.066 536.018 362.006 536.272 361.887 536.524C361.77 536.777 361.63 536.952 361.469 537.047L359.925 537.949Z" fill="#E0E0E0"/>
<path d="M365.53 519.543C365.572 518.232 365.732 516.928 366.003 515.632C366.275 514.336 366.677 513.114 367.206 511.964C367.737 510.815 368.397 509.764 369.192 508.804C369.987 507.844 370.928 507.045 372.018 506.408C373.09 505.78 374.024 505.475 374.817 505.492C375.612 505.509 376.273 505.789 376.804 506.327C377.333 506.868 377.738 507.617 378.017 508.58C378.296 509.543 378.46 510.663 378.502 511.947C378.518 512.375 378.528 512.85 378.536 513.375C378.543 513.899 378.548 514.441 378.548 515.004C378.548 515.567 378.543 516.112 378.536 516.645C378.528 517.179 378.518 517.667 378.502 518.112C378.46 519.424 378.301 520.729 378.029 522.025C377.755 523.323 377.355 524.545 376.826 525.693C376.295 526.841 375.631 527.89 374.829 528.843C374.026 529.794 373.088 530.585 372.018 531.213C370.927 531.85 369.987 532.16 369.192 532.143C368.397 532.126 367.737 531.853 367.206 531.323C366.677 530.797 366.275 530.044 366.003 529.064C365.732 528.089 365.572 526.969 365.53 525.709C365.514 525.282 365.504 524.806 365.496 524.281C365.489 523.756 365.485 523.216 365.485 522.654C365.485 522.091 365.489 521.54 365.496 521.009C365.506 520.477 365.516 519.989 365.53 519.543ZM375.525 513.865C375.468 512.246 375.124 511.167 374.499 510.623C373.875 510.08 373.046 510.112 372.018 510.715C370.985 511.319 370.159 512.258 369.534 513.532C368.91 514.804 368.568 516.285 368.506 517.973C368.477 518.863 368.464 519.84 368.464 520.909C368.464 521.977 368.479 522.938 368.506 523.794C368.566 525.413 368.908 526.487 369.534 527.017C370.159 527.548 370.985 527.512 372.018 526.908C373.046 526.304 373.875 525.37 374.499 524.11C375.122 522.85 375.466 521.373 375.525 519.685C375.554 518.794 375.568 517.816 375.568 516.749C375.57 515.682 375.554 514.721 375.525 513.865Z" fill="#E0E0E0"/>
<path d="M391.942 495.089C392.103 494.994 392.243 495.004 392.36 495.12C392.478 495.234 392.539 495.419 392.539 495.671V498.117C392.539 498.37 392.479 498.622 392.36 498.876C392.243 499.128 392.103 499.302 391.942 499.397L387.971 501.722V520.601C387.971 520.853 387.911 521.109 387.794 521.359C387.676 521.613 387.537 521.787 387.375 521.882L385.588 522.926C385.426 523.021 385.287 523.012 385.169 522.895C385.052 522.783 384.992 522.598 384.992 522.346V503.467L381.021 505.792C380.86 505.887 380.72 505.875 380.603 505.759C380.485 505.645 380.426 505.462 380.426 505.21V502.765C380.426 502.513 380.485 502.261 380.603 502.005C380.72 501.751 380.86 501.581 381.021 501.486L391.942 495.089Z" fill="#E0E0E0"/>
<path d="M410.343 484.315C410.505 484.22 410.645 484.229 410.762 484.345C410.88 484.46 410.941 484.643 410.941 484.895V487.343C410.941 487.597 410.881 487.847 410.762 488.101C410.645 488.353 410.505 488.527 410.343 488.622L403.304 492.745V499.427L409.901 495.566C410.064 495.469 410.204 495.479 410.321 495.595C410.439 495.712 410.498 495.895 410.498 496.147V498.593C410.498 498.847 410.44 499.097 410.321 499.351C410.204 499.603 410.064 499.779 409.901 499.874L403.304 503.736V511.624C403.304 511.876 403.246 512.13 403.127 512.382C403.011 512.636 402.872 512.808 402.708 512.903L400.921 513.949C400.758 514.046 400.618 514.035 400.501 513.918C400.383 513.806 400.327 513.619 400.327 513.367V491.112C400.327 490.86 400.383 490.608 400.501 490.355C400.618 490.103 400.758 489.928 400.921 489.833L410.343 484.315Z" fill="#E0E0E0"/>
<path d="M413.346 491.547C413.388 490.236 413.547 488.933 413.819 487.635C414.091 486.34 414.493 485.116 415.022 483.967C415.552 482.821 416.214 481.766 417.007 480.808C417.802 479.849 418.743 479.049 419.832 478.411C420.904 477.784 421.839 477.477 422.632 477.498C423.428 477.515 424.09 477.791 424.62 478.33C425.149 478.87 425.554 479.621 425.833 480.584C426.112 481.547 426.276 482.669 426.318 483.95C426.332 484.378 426.344 484.852 426.349 485.379C426.358 485.902 426.361 486.445 426.361 487.008C426.361 487.571 426.358 488.12 426.349 488.649C426.342 489.185 426.33 489.673 426.318 490.118C426.276 491.43 426.116 492.735 425.845 494.029C425.571 495.327 425.171 496.549 424.642 497.697C424.111 498.845 423.447 499.894 422.644 500.845C421.842 501.798 420.903 502.589 419.832 503.215C418.743 503.854 417.802 504.165 417.007 504.147C416.214 504.128 415.552 503.856 415.022 503.329C414.491 502.799 414.091 502.048 413.819 501.07C413.547 500.093 413.388 498.973 413.346 497.713C413.329 497.285 413.319 496.81 413.312 496.284C413.305 495.761 413.3 495.219 413.3 494.656C413.3 494.093 413.305 493.544 413.312 493.015C413.319 492.481 413.329 491.995 413.346 491.547ZM423.342 485.869C423.282 484.246 422.94 483.168 422.314 482.629C421.689 482.087 420.86 482.117 419.832 482.721C418.802 483.325 417.973 484.262 417.349 485.536C416.724 486.808 416.382 488.289 416.323 489.979C416.292 490.869 416.28 491.846 416.28 492.914C416.28 493.979 416.294 494.944 416.323 495.8C416.38 497.419 416.723 498.493 417.349 499.021C417.973 499.553 418.802 499.515 419.832 498.911C420.86 498.308 421.689 497.376 422.314 496.113C422.938 494.853 423.28 493.379 423.342 491.689C423.371 490.798 423.384 489.82 423.384 488.753C423.384 487.686 423.371 486.725 423.342 485.869Z" fill="#E0E0E0"/>
<path d="M441.721 465.942C441.883 465.847 442.023 465.858 442.14 465.973C442.257 466.089 442.317 466.274 442.317 466.526V480.651C442.317 482.073 442.184 483.439 441.919 484.74C441.655 486.045 441.257 487.265 440.727 488.401C440.2 489.537 439.536 490.562 438.741 491.475C437.946 492.388 437.029 493.151 435.984 493.76C434.925 494.38 434.001 494.699 433.215 494.711C432.428 494.725 431.768 494.471 431.24 493.955C430.711 493.439 430.316 492.681 430.059 491.684C429.802 490.688 429.673 489.476 429.673 488.054V473.928C429.673 473.675 429.732 473.423 429.852 473.169C429.967 472.917 430.107 472.744 430.27 472.648L432.057 471.603C432.219 471.508 432.359 471.517 432.476 471.633C432.593 471.748 432.653 471.933 432.653 472.185V486.136C432.653 487.079 432.735 487.835 432.898 488.404C433.058 488.977 433.288 489.388 433.581 489.642C433.875 489.896 434.229 489.997 434.639 489.953C435.051 489.908 435.501 489.742 435.986 489.457C436.471 489.174 436.925 488.81 437.344 488.37C437.762 487.93 438.118 487.41 438.413 486.815C438.709 486.216 438.94 485.534 439.107 484.769C439.279 484.005 439.361 483.15 439.361 482.21V468.258C439.361 468.005 439.418 467.754 439.538 467.499C439.655 467.245 439.795 467.074 439.956 466.979L441.721 465.942Z" fill="#E0E0E0"/>
<path d="M456.217 481.571C455.967 481.718 455.775 481.726 455.644 481.597C455.511 481.468 455.414 481.362 455.356 481.283L449.178 470.568V484.762C449.178 485.014 449.118 485.27 449.001 485.518C448.885 485.772 448.745 485.947 448.582 486.041L446.797 487.086C446.633 487.182 446.494 487.174 446.376 487.055C446.259 486.942 446.199 486.758 446.199 486.506V464.249C446.199 463.997 446.257 463.747 446.376 463.491C446.494 463.238 446.633 463.067 446.797 462.972L448.34 462.067C448.589 461.921 448.781 461.912 448.914 462.041C449.045 462.169 449.14 462.276 449.2 462.356L455.38 473.069V458.876C455.38 458.622 455.436 458.372 455.555 458.118C455.673 457.866 455.812 457.694 455.974 457.599L457.763 456.551C457.924 456.456 458.064 456.466 458.181 456.582C458.299 456.698 458.357 456.882 458.357 457.134V479.386C458.357 479.64 458.299 479.893 458.181 480.145C458.064 480.399 457.924 480.573 457.763 480.668L456.217 481.571Z" fill="#E0E0E0"/>
<path d="M468.397 450.324C469.487 449.687 470.431 449.357 471.233 449.336C472.034 449.316 472.702 449.561 473.241 450.073C473.776 450.586 474.191 451.342 474.477 452.347C474.764 453.351 474.938 454.558 474.996 455.971C475.056 457.637 475.056 459.335 474.996 461.07C474.938 462.551 474.764 463.961 474.477 465.3C474.191 466.64 473.782 467.877 473.251 469.013C472.724 470.152 472.065 471.174 471.277 472.08C470.489 472.989 469.567 473.756 468.508 474.375L462.948 477.629C462.786 477.726 462.646 477.717 462.529 477.598C462.41 477.487 462.354 477.301 462.354 477.049V454.792C462.354 454.539 462.41 454.29 462.529 454.033C462.646 453.781 462.786 453.608 462.948 453.513L468.397 450.324ZM472.016 457.714C471.985 456.998 471.895 456.37 471.74 455.826C471.585 455.284 471.357 454.868 471.058 454.573C470.755 454.28 470.377 454.133 469.921 454.136C469.464 454.138 468.92 454.325 468.287 454.696L465.332 456.427V471.928L468.399 470.131C469.001 469.779 469.524 469.342 469.965 468.819C470.407 468.297 470.775 467.72 471.069 467.087C471.362 466.457 471.587 465.773 471.742 465.041C471.897 464.309 471.989 463.566 472.017 462.813C472.075 461.08 472.075 459.378 472.016 457.714Z" fill="#E0E0E0"/>
<path d="M717.113 84.0785L631.638 134.127C630.423 134.838 629.438 136.57 629.438 137.994V248.808C629.438 250.232 630.428 251.953 631.65 252.652L639.535 257.134C640.758 257.833 642.735 257.825 643.95 257.112L729.425 207.063C730.64 206.352 731.626 204.621 731.626 203.197V92.3823C731.626 90.9583 730.635 89.2375 729.413 88.5385L721.528 84.0561C720.304 83.3553 718.328 83.3657 717.113 84.0785Z" fill="#7DF3B3"/>
<path d="M641.749 255.824V145.01C641.749 143.586 642.734 141.856 643.95 141.144L729.424 91.0948C730.639 90.3837 731.625 90.9602 731.625 92.3841V203.199C731.625 204.622 730.639 206.354 729.424 207.065L643.95 257.114C642.734 257.825 641.749 257.246 641.749 255.824Z" fill="#7DF3B3"/>
<path opacity="0.2" d="M643.95 257.112C642.779 257.801 640.638 257.825 639.532 257.138L631.652 252.647C630.431 251.956 629.436 250.234 629.436 248.812V137.992C629.436 137.25 629.71 136.435 630.137 135.714L642.398 142.813C641.991 143.503 641.748 144.297 641.748 145.008V255.817C641.749 257.122 642.653 257.875 643.95 257.112Z" fill="black"/>
<path opacity="0.4" d="M731.597 91.9786C731.423 90.855 730.519 90.4528 729.422 91.0915L643.956 141.144C643.346 141.504 642.797 142.112 642.4 142.814L630.127 135.715C630.524 135.046 631.053 134.468 631.642 134.128L717.118 84.0753C718.328 83.3642 720.301 83.3538 721.529 84.0546L729.41 88.5353C730.518 89.1739 731.444 90.6479 731.597 91.9786Z" fill="white"/>
<path d="M629.436 171.39L611.725 189.66C610.78 190.635 611.107 192.087 612.058 192.713C612.422 192.955 624.318 199.864 624.318 199.864L641.748 178.582L629.436 171.39Z" fill="#7DF3B3"/>
<path opacity="0.1" d="M629.436 171.39L611.725 189.66C610.78 190.635 611.107 192.087 612.058 192.713C612.422 192.955 624.318 199.864 624.318 199.864L641.748 178.582L629.436 171.39Z" fill="black"/>
<path d="M641.75 178.582L624.039 196.852C622.732 198.2 623.86 200.461 625.707 200.192L641.75 197.844C643.471 197.843 643.471 178.582 641.75 178.582Z" fill="#7DF3B3"/>
<path d="M659.595 160.266L672.297 172.659" stroke="#455A64" stroke-width="2" stroke-miterlimit="10" stroke-linecap="round"/>
<path d="M659.595 180.096L672.297 152.829" stroke="#455A64" stroke-width="2" stroke-miterlimit="10" stroke-linecap="round"/>
<path d="M701.078 135.978L713.778 148.372" stroke="#455A64" stroke-width="2" stroke-miterlimit="10" stroke-linecap="round"/>
<path d="M701.078 155.808L713.778 128.542" stroke="#455A64" stroke-width="2" stroke-miterlimit="10" stroke-linecap="round"/>
<path d="M659.033 210.988L714.341 178.607" stroke="#455A64" stroke-width="2" stroke-miterlimit="10" stroke-linecap="round"/>
<path d="M693.601 190.749V206.407C693.601 211.173 696.697 213.225 700.514 210.99C704.333 208.755 707.428 203.078 707.428 198.312V182.656" stroke="#455A64" stroke-width="2" stroke-miterlimit="10" stroke-linecap="round"/>
<path d="M700.515 186.701V201.818" stroke="#455A64" stroke-width="2" stroke-miterlimit="10" stroke-linecap="round"/>
<path d="M648.952 655.197C649.035 652.557 648.268 637.935 647.463 624.47C646.615 610.303 646.627 597.327 646.627 597.327L670.251 615.224C665.114 647.048 664.609 654.069 664.535 659.273L663.948 659.757C663.989 659.877 664.096 660.319 664.091 661.087C664.091 667.266 657.229 670.625 651.879 674.764C649.765 676.399 643.621 681.226 637.407 684.425C633.516 686.425 625.604 686.637 624.613 684.098C632.14 679.326 641.129 673.256 646.3 667.463C648.773 664.698 648.782 660.613 648.952 655.197Z" fill="#FFA8A7"/>
<path d="M615.413 691.95C615.08 691.966 614.843 695.362 616.732 696.864C618.914 698.597 625.103 701.462 633.184 700.005C641.263 698.548 645.556 696.003 648.681 693.086C651.806 690.169 656.183 686.056 659.822 685.056C663.202 684.129 666.839 682.381 667.883 681.257C668.926 680.134 668.552 675.38 668.552 675.38L615.413 691.95Z" fill="#263238"/>
<path d="M664.598 657.062C664.598 657.062 665.478 657.176 665.74 658.269C666.052 659.568 666.499 663.371 667.138 665.499C668.024 668.456 668.809 674.566 668.475 677.027C668.142 679.488 662.651 681.449 659.157 682.995C655.588 684.573 651.518 687.669 647.971 690.932C644.3 694.309 636.418 698.019 631.118 698.233C624.846 698.486 617.693 696.767 615.938 693.895C613.766 690.343 615.237 688.154 624.329 683.341C626.05 682.429 632.058 678.423 634.102 676.979C639.632 673.067 645.042 667.732 647.364 661.168C647.636 660.4 647.919 659.553 648.608 659.135C649.137 658.816 649.794 658.826 650.407 658.883C651.966 659.028 653.501 659.422 654.945 660.036C656.219 660.58 658.023 661.196 658.071 662.818C658.088 663.383 657.954 663.94 657.797 664.482C657.7 664.819 657.634 665.262 657.928 665.444C658.207 665.616 658.555 665.388 658.786 665.155C659.719 664.225 660.379 663.057 661.15 661.985C661.564 661.412 662.016 660.858 662.551 660.393C663.036 659.972 663.669 659.744 664.095 659.272C664.636 658.676 664.607 657.823 664.598 657.062Z" fill="#7DF3B3"/>
<path opacity="0.3" d="M664.598 657.062C664.598 657.062 665.478 657.176 665.74 658.269C666.052 659.568 666.499 663.371 667.138 665.499C668.024 668.456 668.809 674.566 668.475 677.027C668.142 679.488 662.651 681.449 659.157 682.995C655.588 684.573 651.518 687.669 647.971 690.932C644.3 694.309 636.418 698.019 631.118 698.233C624.846 698.486 617.693 696.767 615.938 693.895C613.766 690.343 615.237 688.154 624.329 683.341C626.05 682.429 632.058 678.423 634.102 676.979C639.632 673.067 645.042 667.732 647.364 661.168C647.636 660.4 647.919 659.553 648.608 659.135C649.137 658.816 649.794 658.826 650.407 658.883C651.966 659.028 653.501 659.422 654.945 660.036C656.219 660.58 658.023 661.196 658.071 662.818C658.088 663.383 657.954 663.94 657.797 664.482C657.7 664.819 657.634 665.262 657.928 665.444C658.207 665.616 658.555 665.388 658.786 665.155C659.719 664.225 660.379 663.057 661.15 661.985C661.564 661.412 662.016 660.858 662.551 660.393C663.036 659.972 663.669 659.744 664.095 659.272C664.636 658.676 664.607 657.823 664.598 657.062Z" fill="black"/>
<path opacity="0.2" d="M636.684 683.927C631.013 686.549 633.53 687.524 635.159 687.681C636.788 687.839 646.249 681.609 651.961 676.564C657.92 671.302 661.569 665.687 663.783 663.752C664.609 663.031 665.492 662.152 666.277 661.332C666.064 660.05 665.887 658.88 665.741 658.269C665.479 657.176 664.599 657.062 664.599 657.062C664.607 657.823 664.636 658.676 664.097 659.273C663.671 659.746 663.038 659.974 662.553 660.395C662.02 660.859 661.566 661.412 661.152 661.987C660.381 663.058 659.721 664.225 658.788 665.157C654.045 671.896 642.355 681.306 636.684 683.927Z" fill="black"/>
<path d="M635.528 686.799C635.656 686.793 635.781 686.744 635.884 686.651C636.118 686.437 636.139 686.069 635.926 685.831C634.2 683.882 629.37 681.426 625.141 682.103C624.827 682.151 624.613 682.45 624.662 682.766C624.71 683.082 624.97 683.292 625.316 683.251C629.266 682.628 633.708 685.065 635.075 686.608C635.194 686.744 635.363 686.808 635.528 686.799Z" fill="#EBEBEB"/>
<path d="M640.424 683.411C640.552 683.406 640.678 683.356 640.78 683.263C641.015 683.049 641.034 682.681 640.823 682.443C639.099 680.496 634.272 678.044 630.037 678.717C629.724 678.765 629.509 679.064 629.559 679.38C629.606 679.695 629.892 679.913 630.212 679.865C634.166 679.247 638.603 681.677 639.972 683.22C640.091 683.355 640.258 683.42 640.424 683.411Z" fill="#EBEBEB"/>
<path d="M645.33 680.191C645.457 680.186 645.583 680.136 645.685 680.042C645.92 679.828 645.939 679.461 645.728 679.222C644.002 677.274 639.172 674.814 634.942 675.496C634.629 675.544 634.415 675.843 634.464 676.159C634.512 676.475 634.793 676.692 635.118 676.644C639.07 676.021 643.509 678.456 644.877 679.999C644.994 680.134 645.163 680.198 645.33 680.191Z" fill="#EBEBEB"/>
<path d="M649.843 676.563C649.971 676.556 650.097 676.507 650.199 676.414C650.434 676.2 650.453 675.833 650.242 675.594C648.517 673.646 643.67 671.191 639.456 671.868C639.143 671.916 638.928 672.215 638.978 672.531C639.025 672.847 639.308 673.062 639.631 673.016C643.58 672.396 648.022 674.828 649.391 676.371C649.51 676.506 649.677 676.57 649.843 676.563Z" fill="#EBEBEB"/>
<path d="M654.263 672.938C654.388 672.933 654.512 672.884 654.612 672.795C654.852 672.584 654.874 672.217 654.667 671.977C652.291 669.212 647.132 667.563 642.904 668.238C642.591 668.286 642.377 668.585 642.426 668.901C642.474 669.217 642.758 669.426 643.08 669.386C646.887 668.78 651.695 670.289 653.804 672.74C653.925 672.879 654.095 672.947 654.263 672.938Z" fill="#EBEBEB"/>
<path d="M696.609 620.568L722.444 619.995C722.126 637.488 719.457 656.912 719.069 673.325C718.996 676.414 719.234 697.33 718.109 703.69C716.419 713.245 705.235 711.999 704.621 706.286C704.006 700.573 705.228 676.15 705.184 673.632C705.244 663.107 700.313 645.358 697.692 626.476C697.566 625.547 696.732 621.472 696.609 620.568Z" fill="#FFA8A7"/>
<path d="M700.427 710.278C700.214 715.891 700.716 719.676 702.357 723.14C703.998 726.604 707.584 727.995 711.407 727.402C715.229 726.808 720.252 724.716 721.782 720.006C723.31 715.296 723.409 711.975 723.057 706.716L700.427 710.278Z" fill="#263238"/>
<path d="M719.13 671.317C720.655 671.592 720.395 679.129 720.565 686.72C720.747 694.856 722.798 698.415 723.018 705.093C723.269 712.724 722.558 716.052 719.52 720.351C716.482 724.652 706.84 728.215 702.922 721.245C699.727 715.563 700.138 709.65 701.193 702.159C702.284 694.416 703.113 688.976 703.361 683.044C703.599 677.374 703.737 671.868 705.133 671.371C705.157 672.209 705.157 673.271 705.187 674.094C705.211 674.726 705.073 677.797 705.933 677.91C706.081 677.198 706.13 676.524 706.152 675.787C706.171 675.145 706.29 674.455 706.746 674.01C707.206 673.561 707.892 673.468 708.527 673.404C710.069 673.249 711.616 673.126 713.168 673.136C713.939 673.141 714.712 673.179 715.479 673.264C716.102 673.333 716.831 673.457 717.401 673.737C717.75 673.908 718.061 674.203 718.16 674.584C718.233 674.866 718.186 675.163 718.158 675.453C718.109 675.974 718.124 676.5 718.203 677.018C718.238 677.246 718.363 677.532 718.589 677.5C718.771 677.474 718.863 677.255 718.883 677.068C718.977 676.16 718.926 675.487 718.984 674.426C719.011 673.935 718.996 673.261 719.037 672.769C719.074 672.285 719.115 671.802 719.13 671.317Z" fill="#7DF3B3"/>
<path opacity="0.3" d="M719.13 671.317C720.655 671.592 720.395 679.129 720.565 686.72C720.747 694.856 722.798 698.415 723.018 705.093C723.269 712.724 722.558 716.052 719.52 720.351C716.482 724.652 706.84 728.215 702.922 721.245C699.727 715.563 700.138 709.65 701.193 702.159C702.284 694.416 703.113 688.976 703.361 683.044C703.599 677.374 703.737 671.868 705.133 671.371C705.157 672.209 705.157 673.271 705.187 674.094C705.211 674.726 705.073 677.797 705.933 677.91C706.081 677.198 706.13 676.524 706.152 675.787C706.171 675.145 706.29 674.455 706.746 674.01C707.206 673.561 707.892 673.468 708.527 673.404C710.069 673.249 711.616 673.126 713.168 673.136C713.939 673.141 714.712 673.179 715.479 673.264C716.102 673.333 716.831 673.457 717.401 673.737C717.75 673.908 718.061 674.203 718.16 674.584C718.233 674.866 718.186 675.163 718.158 675.453C718.109 675.974 718.124 676.5 718.203 677.018C718.238 677.246 718.363 677.532 718.589 677.5C718.771 677.474 718.863 677.255 718.883 677.068C718.977 676.16 718.926 675.487 718.984 674.426C719.011 673.935 718.996 673.261 719.037 672.769C719.074 672.285 719.115 671.802 719.13 671.317Z" fill="black"/>
<path opacity="0.2" d="M717.642 708.267C717.414 710.994 720.153 710.335 720.636 706.5C721.118 702.665 719.913 693.336 720.563 686.72C720.393 679.129 720.655 671.59 719.128 671.317C719.125 671.41 719.115 671.502 719.109 671.595L718.948 675.427C718.939 675.984 718.938 676.481 718.878 677.068C718.386 682.628 718.134 693.438 718.122 698.564C718.112 703.688 717.872 705.54 717.642 708.267Z" fill="black"/>
<path opacity="0.2" d="M706.883 708.307C706.633 705.582 706.381 703.733 706.33 698.607C706.278 693.52 705.952 682.838 705.426 677.248C705.138 676.281 705.205 674.552 705.186 674.094C705.157 673.324 705.155 672.356 705.135 671.547C705.13 671.49 705.125 671.433 705.123 671.376C704.115 671.752 703.766 674.76 703.56 678.547C703.545 680.744 703.629 683.473 703.802 686.784C704.502 693.394 703.353 702.785 703.863 706.615C704.372 710.447 707.131 711.032 706.883 708.307Z" fill="black"/>
<path d="M705.876 708.507C705.947 708.507 706.019 708.492 706.089 708.466C706.146 708.442 712.003 706.096 718.05 708.383C718.348 708.493 718.677 708.34 718.787 708.041C718.898 707.741 718.746 707.408 718.45 707.296C711.981 704.848 705.915 707.285 705.658 707.39C705.365 707.51 705.224 707.848 705.343 708.146C705.433 708.371 705.649 708.509 705.876 708.507Z" fill="#EBEBEB"/>
<path d="M705.156 702.47C705.221 702.47 705.285 702.458 705.35 702.435C705.415 702.413 711.974 700.045 718.743 702.349C719.043 702.446 719.366 702.287 719.468 701.981C719.568 701.677 719.407 701.348 719.107 701.246C711.947 698.814 705.241 701.241 704.959 701.343C704.661 701.453 704.509 701.786 704.616 702.088C704.7 702.325 704.921 702.471 705.156 702.47Z" fill="#EBEBEB"/>
<path d="M718.905 696.696C719.123 696.696 719.33 696.568 719.425 696.354C719.553 696.061 719.427 695.716 719.14 695.585C712.473 692.542 705.324 695.426 705.021 695.552C704.727 695.671 704.587 696.009 704.707 696.308C704.827 696.605 705.166 696.741 705.452 696.627C705.52 696.599 712.464 693.805 718.666 696.646C718.745 696.681 718.825 696.696 718.905 696.696Z" fill="#EBEBEB"/>
<path d="M719.015 691.363C719.229 691.363 719.433 691.239 719.53 691.03C719.666 690.738 719.544 690.393 719.258 690.257C711.939 686.76 705.148 690.011 704.862 690.151C704.578 690.291 704.457 690.638 704.595 690.926C704.733 691.214 705.082 691.339 705.359 691.197C705.422 691.164 711.956 688.054 718.766 691.306C718.848 691.346 718.933 691.363 719.015 691.363Z" fill="#EBEBEB"/>
<path d="M719.115 685.368C719.326 685.367 719.527 685.248 719.628 685.042C719.767 684.754 719.65 684.407 719.366 684.266C712.518 680.871 705.162 684.167 704.854 684.312C704.567 684.443 704.439 684.789 704.57 685.08C704.699 685.372 705.038 685.507 705.327 685.368C705.399 685.336 712.505 682.155 718.862 685.308C718.943 685.349 719.029 685.368 719.115 685.368Z" fill="#EBEBEB"/>
<path d="M711.604 450.431C720.81 475.988 720.979 491.901 719.518 518.72C718.179 543.321 715.978 564.982 715.978 564.982C716.359 569.345 722.372 577.839 723.218 597.122C724.008 615.15 721.535 637.771 721.535 637.771C721.535 637.771 709.609 642.232 699.53 637.866C699.53 637.866 689.037 591.743 686.145 569.183C683.621 549.494 679.928 526.237 679.928 526.237L673.346 569.178C673.346 569.178 675.035 580.72 674.374 588.814C673.518 599.296 668.472 627.496 668.472 627.496C668.472 627.496 655.964 632.058 647.462 624.47C647.462 624.47 644.874 582.216 643.633 566.226C641.97 544.817 642.312 486.092 647.263 456.006L711.604 450.431Z" fill="#455A64"/>
<path d="M679.928 526.235L675.417 490.667C675.417 490.667 658.709 488.468 651.116 481.285C651.116 481.285 656.84 491.825 670.841 493.821L677.004 527.043L673.344 569.176L679.928 526.235Z" fill="#263238"/>
<path d="M684.376 395.465C684.49 395.411 684.604 395.356 684.718 395.302C706.241 385.019 714.889 360.791 713.834 337.821C713.5 330.552 712.288 323.249 709.434 316.571C706.58 309.893 701.995 303.854 695.876 300.05C691.187 297.136 685.769 295.669 680.309 295.305C675.326 294.973 668.87 295.051 664.173 297.005C662.13 297.854 661.756 297.666 659.557 297.166C657.884 296.784 656.15 296.67 654.442 296.851C649.708 297.355 645.675 300.16 642.726 303.843C638.753 308.8 638.277 316.203 639.654 322.21C640.289 324.982 644.113 329.055 643.95 331.689C643.713 335.528 640.963 338.522 637.933 341.893C635.021 345.133 631.539 347.706 630.08 352.589C628.827 356.785 628.598 365.676 637.853 369.084C624.382 387.161 637.674 396.954 645.022 399.557C649.651 401.195 655.474 402.068 660.336 401.437C668.509 400.379 676.844 399.02 684.376 395.465Z" fill="#37474F"/>
<path d="M637.831 426.146C645.749 417.878 660.076 399.162 660.076 399.162L668.176 370.707C668.373 370.788 664.045 370.8 662.741 370.721C653.991 371.313 651.408 372.069 645.963 378.113C641.64 382.911 625.144 405.762 619.408 413.444L604.189 393.785C600.544 388.188 601.134 381.933 599.241 377.366C597.349 372.799 594.289 370.783 591.841 366.654C589.392 362.524 588.808 359.837 586.796 361.941C584.785 364.045 587.106 369.742 587.407 371.038C587.709 372.335 590.774 376.192 585.653 374.188C580.531 372.184 572.61 362.676 570.564 360.736C568.519 358.796 567.45 361.802 567.909 364.176C568.371 366.549 566.17 371.92 566.966 375.854C567.812 380.027 568.42 381.935 572.387 385.987C576.082 389.764 585.13 394.391 588.667 399.341C592.204 404.291 599.755 419.694 604.37 428.973C610.235 440.769 615.232 444.657 621.827 440.686C628.422 436.714 634.897 429.211 637.831 426.146Z" fill="#FFA8A7"/>
<path d="M619.41 413.446C623.112 417.045 624.674 421.517 624.937 423.805C624.937 423.805 626.645 418.113 620.722 411.689L619.41 413.446Z" fill="#F28F8F"/>
<path d="M648.119 420.885C637.356 411.91 640.899 400.206 644.831 392.323C652.692 376.563 660.869 370.367 664.28 370.425L685.699 370.629C695.933 372.044 703.854 371.337 706.327 371.931C712.621 373.442 712.759 378.698 713.006 385.5C713.277 392.953 714.06 392.158 712.138 404.483C712.138 404.483 709.229 414.036 708.077 418.296C706.923 422.556 704.801 429.192 706.527 436.084C707.194 438.749 708.976 441.345 711.668 448.7C714.186 455.579 715.154 458.224 717.132 467.378C717.132 467.378 702.459 481.169 671.939 476.745C649.467 473.488 645.055 465.982 645.055 465.982L649.256 439.426C648.699 430.126 648.548 426.757 648.119 420.885Z" fill="#7DF3B3"/>
<path opacity="0.1" d="M662.109 418.533C662.109 418.533 670.909 425.711 681.151 422.231C691.394 418.752 693.035 409.752 693.035 409.752C693.035 409.752 693.911 421.574 681.002 425.369C668.543 429.034 662.109 418.533 662.109 418.533Z" fill="black"/>
<path d="M738.927 348.762C734.357 342.992 721.891 328.587 719.612 325.705C718.045 323.722 715.904 322.168 714.219 321.595C712.324 320.95 710.473 319.609 709.227 318.369C708.337 317.482 706.417 313.742 705.639 312.753C703.026 309.425 700.88 307.464 697.446 305.022C693.837 302.456 690.408 301.265 686.711 298.829C684.532 297.393 681.867 295.959 684.253 293.551C684.999 292.799 685.943 292.238 686.978 292.041C692.031 291.08 697.488 292.693 703.821 294.374C706.779 295.16 709.523 295.995 711.844 296.917C713.317 297.502 714.833 298.092 716.076 299.097C717.727 300.433 718.753 302.38 719.857 304.206C722.824 309.108 729.601 312.39 733.81 316.139C738.75 320.539 743.622 324.222 749.251 329.069C754.318 333.432 760.58 339.123 764.578 344.508C768.044 349.178 767.003 351.966 765.614 354.041C758.578 364.548 742.923 376.468 737.356 381.132C731.407 386.115 727.242 389.213 721.932 394.03C719.263 396.45 713.757 402.439 711.385 405.408C710.689 406.278 709.46 406.615 708.49 406.079C702.349 402.683 698.252 385.319 703.004 374.642C704.221 371.908 705.482 371.799 705.482 371.799C715.182 364.887 738.927 348.762 738.927 348.762Z" fill="#FFA8A7"/>
<path d="M738.927 348.762C738.927 348.762 742.976 354.458 750 356.785C750 356.785 744.124 358.195 736.244 350.765L738.927 348.762Z" fill="#F28F8F"/>
<path d="M651.413 337.524C651.501 354.657 656.909 358.987 659.635 360.252C662.362 361.518 667.675 360.87 672.836 360.097L672.659 370.375C672.659 370.375 666.613 376.582 666.976 381.298C667.35 386.025 676.216 386.705 682.964 382.214C687.89 378.938 691.432 375.158 692.981 373.361C693.544 372.707 693.857 371.88 693.873 371.012L694.291 346.828C694.291 346.828 697.057 349.907 702.107 346.529C707.145 343.163 707.688 336.724 704.704 333.021C702.578 330.393 697.064 330.111 694.344 334.091C692.805 337.02 692.936 339.073 690.904 338.727C688.944 338.394 688.715 336.081 688.576 334.44C688.435 332.795 688.496 332.251 688.378 330.096C683.381 329.007 678.214 321.959 677.632 316.809C674.07 318.385 670.324 319.546 666.765 319.298C661.172 318.906 658.287 317.77 655.538 313.676C654.919 314.469 654.284 315.811 653.983 316.716C653.077 319.438 652.608 321.153 652.25 323.44C651.518 328.087 651.384 332.826 651.413 337.524Z" fill="#FFA8A7"/>
<path d="M672.839 360.095C678.282 359.469 689.512 356.414 691.329 351.964C691.329 351.964 690.701 354.769 687.313 357.612C683.926 360.453 672.779 363.525 672.779 363.525L672.839 360.095Z" fill="#F28F8F"/>
<path d="M667.359 350.865C667.337 352.106 668.312 353.131 669.536 353.152C670.759 353.172 671.77 352.185 671.791 350.942C671.813 349.701 670.838 348.676 669.612 348.655C668.39 348.635 667.381 349.624 667.359 350.865Z" fill="#B16668"/>
<path d="M670.199 333.998C670.107 335.355 671.079 336.523 672.366 336.608C673.654 336.692 674.771 335.662 674.861 334.305C674.951 332.949 673.981 331.78 672.695 331.696C671.406 331.611 670.29 332.641 670.199 333.998Z" fill="#263238"/>
<path d="M654.416 332.976C654.332 334.209 655.216 335.272 656.387 335.348C657.673 335.432 658.563 334.611 658.655 333.256C658.739 332.024 657.855 330.96 656.686 330.884C655.513 330.807 654.497 331.744 654.416 332.976Z" fill="#263238"/>
<path d="M665.327 330.758L663.635 345.069L656.405 342.026L665.327 330.758Z" fill="#F28F8F"/>
<path d="M678.651 327.812L674.444 323.758C673.35 324.999 673.406 326.911 674.567 328.03C675.729 329.15 677.557 329.053 678.651 327.812Z" fill="#263238"/>
<path d="M657.623 322.449L652.96 326.027C653.893 327.381 655.695 327.678 656.982 326.689C658.269 325.703 658.556 323.804 657.623 322.449Z" fill="#263238"/>
</svg>
