<svg width="645" height="476" viewBox="0 0 645 476" fill="none" xmlns="http://www.w3.org/2000/svg">
<path d="M580.372 443.105H537.647V443.429H580.372V443.105Z" fill="#EBEBEB"/>
<path d="M427.275 446.609H416.064V446.933H427.275V446.609Z" fill="#EBEBEB"/>
<path d="M536.36 431.129H511.604V431.452H536.36V431.129Z" fill="#EBEBEB"/>
<path d="M123.385 433.303H67.6699V433.626H123.385V433.303Z" fill="#EBEBEB"/>
<path d="M143.048 433.303H134.882V433.626H143.048V433.303Z" fill="#EBEBEB"/>
<path d="M290.443 438.738H169.596V439.062H290.443V438.738Z" fill="#EBEBEB"/>
<path d="M307.534 364.812H58.4352C56.4817 364.812 54.6081 364.036 53.2268 362.655C51.8454 361.273 51.0693 359.4 51.0693 357.446V7.3014C51.0863 5.35904 51.8699 3.50203 53.2494 2.13457C54.629 0.767115 56.4928 -7.44665e-05 58.4352 5.42129e-09H307.534C308.501 5.4213e-09 309.459 0.190523 310.353 0.560694C311.247 0.930866 312.059 1.47344 312.743 2.15742C313.427 2.84141 313.969 3.65342 314.339 4.5471C314.71 5.44077 314.9 6.3986 314.9 7.3659V357.446C314.9 358.414 314.71 359.371 314.339 360.265C313.969 361.159 313.427 361.971 312.743 362.655C312.059 363.339 311.247 363.881 310.353 364.251C309.459 364.622 308.501 364.812 307.534 364.812ZM58.4352 0.258001C56.5683 0.261411 54.7787 1.00458 53.4586 2.32473C52.1384 3.64489 51.3952 5.43442 51.3918 7.3014V357.446C51.3952 359.313 52.1384 361.103 53.4586 362.423C54.7787 363.743 56.5683 364.486 58.4352 364.49H307.534C309.401 364.486 311.191 363.743 312.511 362.423C313.831 361.103 314.574 359.313 314.578 357.446V7.3014C314.574 5.43442 313.831 3.64489 312.511 2.32473C311.191 1.00458 309.401 0.261411 307.534 0.258001H58.4352Z" fill="#EBEBEB"/>
<path d="M586.559 364.812H337.46C335.506 364.812 333.633 364.036 332.251 362.655C330.87 361.273 330.094 359.4 330.094 357.446V7.3014C330.111 5.35904 330.894 3.50203 332.274 2.13457C333.653 0.767115 335.517 -7.44665e-05 337.46 5.42129e-09H586.559C588.512 5.42131e-09 590.386 0.776048 591.767 2.15742C593.148 3.5388 593.925 5.41234 593.925 7.3659V357.446C593.925 359.4 593.148 361.273 591.767 362.655C590.386 364.036 588.512 364.812 586.559 364.812ZM337.46 0.258001C335.593 0.261411 333.803 1.00458 332.483 2.32473C331.163 3.64489 330.42 5.43442 330.416 7.3014V357.446C330.42 359.313 331.163 361.103 332.483 362.423C333.803 363.743 335.593 364.486 337.46 364.49H586.559C588.426 364.486 590.215 363.743 591.535 362.423C592.855 361.103 593.599 359.313 593.602 357.446V7.3014C593.599 5.43442 592.855 3.64489 591.535 2.32473C590.215 1.00458 588.426 0.261411 586.559 0.258001H337.46Z" fill="#EBEBEB"/>
<path d="M645 422.344H0V422.667H645V422.344Z" fill="#EBEBEB"/>
<path d="M523.54 184.421L513.307 73.0469L364.359 86.7333L374.592 198.107L523.54 184.421Z" fill="#E6E6E6"/>
<path opacity="0.9" d="M505.48 82.4516L373.784 94.5527L382.433 188.675L514.129 176.573L505.48 82.4516Z" fill="#FAFAFA"/>
<path d="M444.919 99.8682L445.693 108.395L394.545 113.104L397.125 141.226L399.898 170.805L424.847 168.509L464.914 164.833L466.759 164.652L494.494 162.072L494.068 157.363L486.741 158.034C486.799 156.359 487.412 154.75 488.484 153.461C489.556 152.172 491.025 151.276 492.662 150.913L493.462 150.733L491.785 132.557L486.844 133.008L483.478 96.3594L444.919 99.8682ZM401.524 168.78L399.137 142.903L404.865 142.374C405.511 144.42 406.836 146.185 408.621 147.376C410.406 148.568 412.544 149.115 414.682 148.927L415.611 148.849L414.927 141.445L420.397 140.955L422.783 166.832L401.524 168.78ZM424.628 166.664L422.048 138.929L412.876 139.768L413.547 147.108C411.87 147.047 410.261 146.432 408.972 145.358C407.683 144.284 406.788 142.812 406.426 141.174L406.245 140.387L398.931 141.058L396.557 114.793L445.861 110.266L448.441 138.388L452.647 138.001L459.277 137.394L462.309 137.11L464.682 162.988L424.628 166.664ZM452.492 136.13L451.976 130.544C453.485 130.6 454.943 131.107 456.161 131.999C457.38 132.891 458.303 134.128 458.813 135.55L452.492 136.13ZM490.044 134.543L491.398 149.288C489.353 149.935 487.59 151.26 486.4 153.046C485.211 154.831 484.667 156.968 484.858 159.105L484.935 160.034L492.327 159.35L492.417 160.434L466.54 162.807L464.166 136.93L486.948 134.827L490.044 134.543ZM481.736 98.346L484.935 133.176L463.999 135.111L462.141 135.279L460.722 135.408C460.098 133.335 458.778 131.541 456.985 130.328C455.192 129.115 453.035 128.558 450.879 128.751L449.95 128.829L450.634 136.336H450.131L447.551 108.214L446.932 101.532L481.736 98.346Z" fill="#E0E0E0"/>
<path d="M236.231 193.057L258.491 81.1484L108.842 51.3813L86.5819 163.289L236.231 193.057Z" fill="#E6E6E6"/>
<path opacity="0.9" d="M115.794 61.7788L96.9814 156.354L229.297 182.673L248.11 88.0981L115.794 61.7788Z" fill="#FAFAFA"/>
<path d="M183.824 87.5965L182.121 96.1621L130.715 85.9453L125.129 114.196L119.221 143.866L144.298 148.859L184.559 156.857L186.417 157.231L214.268 162.765L215.222 157.966L207.857 156.508C208.403 154.889 209.469 153.495 210.89 152.545C212.312 151.595 214.007 151.143 215.713 151.258H216.551L220.176 133.005L215.222 132.011L222.537 95.1817L183.824 87.5965ZM121.414 142.434L126.574 116.428L132.327 117.563C132.365 119.759 133.153 121.876 134.562 123.561C135.97 125.246 137.913 126.398 140.067 126.825L140.996 127.006L142.479 119.576L147.975 120.672L142.815 146.679L121.414 142.434ZM144.634 147.053L150.168 119.189L140.957 117.396L139.5 124.761C137.88 124.215 136.486 123.149 135.536 121.728C134.587 120.306 134.134 118.611 134.249 116.905V116.067L126.896 114.609L132.159 88.2028L181.695 98.0584L176.071 126.322L180.302 127.161L186.959 128.451L190.003 129.044L184.843 155.051L144.634 147.053ZM180.754 125.265L181.863 119.64C183.323 120.136 184.601 121.057 185.534 122.284C186.468 123.511 187.013 124.989 187.1 126.529L180.754 125.265ZM217.944 134.591L215.003 149.4C212.81 149.441 210.696 150.231 209.013 151.639C207.331 153.047 206.181 154.988 205.754 157.14L205.56 158.069L212.991 159.553L212.771 160.636L186.765 155.476L191.925 129.47L214.823 134.024L217.944 134.591ZM220.279 96.7555L213.326 131.727L192.286 127.535L190.429 127.174L188.997 126.89C188.988 124.675 188.211 122.532 186.8 120.824C185.389 119.117 183.43 117.951 181.257 117.525L180.328 117.331L178.832 124.865L178.316 124.761L183.94 96.5104L185.23 89.8024L220.279 96.7555Z" fill="#E0E0E0"/>
<path d="M385.863 67.0761H373.247C369.726 67.0761 366.35 65.6776 363.861 63.1882C361.371 60.6988 359.973 57.3225 359.973 53.802V41.2761C359.973 37.7555 361.371 34.3792 363.861 31.8898C366.35 29.4005 369.726 28.002 373.247 28.002H385.863C389.382 28.0054 392.757 29.405 395.245 31.8936C397.734 34.3823 399.134 37.7566 399.137 41.2761V53.8923C399.11 57.396 397.7 60.7473 395.214 63.2164C392.728 65.6856 389.367 67.0728 385.863 67.0761ZM373.247 31.7817C372.005 31.7833 370.775 32.0307 369.629 32.5095C368.483 32.9884 367.443 33.6892 366.569 34.5717C365.695 35.4542 365.004 36.5009 364.536 37.6515C364.068 38.8022 363.832 40.034 363.843 41.2761V53.8923C363.846 56.3853 364.838 58.7753 366.601 60.5382C368.364 62.3011 370.754 63.293 373.247 63.2964H385.863C388.356 63.293 390.746 62.3011 392.509 60.5382C394.272 58.7753 395.264 56.3853 395.267 53.8923V41.2761C395.264 38.783 394.272 36.393 392.509 34.6301C390.746 32.8673 388.356 31.8754 385.863 31.872L373.247 31.7817Z" fill="#F0F0F0"/>
<path d="M374.306 55.7238L355.91 37.3284L361.393 31.8588L374.306 44.7846L397.719 21.3711L403.189 26.8407L374.306 55.7238Z" fill="#E0E0E0"/>
<path d="M115.015 236.066H105.301C103.95 236.067 102.612 235.799 101.364 235.279C100.116 234.76 98.9835 233.999 98.0314 233.039C97.0792 232.08 96.3264 230.942 95.8162 229.69C95.3061 228.438 95.0487 227.098 95.0589 225.746V216.071C95.0623 213.357 96.1429 210.755 98.0634 208.837C99.9839 206.919 102.587 205.842 105.301 205.842H115.015C117.727 205.845 120.327 206.924 122.245 208.842C124.163 210.759 125.241 213.359 125.245 216.071V225.746C125.255 227.097 124.998 228.436 124.489 229.687C123.979 230.938 123.228 232.075 122.277 233.035C121.326 233.994 120.195 234.755 118.949 235.276C117.703 235.796 116.366 236.065 115.015 236.066ZM105.301 208.86C103.384 208.86 101.545 209.618 100.184 210.969C98.8236 212.32 98.0524 214.154 98.0388 216.071V225.746C98.0422 227.67 98.8089 229.514 100.171 230.874C101.532 232.233 103.378 232.996 105.301 232.996H115.015C116.938 232.996 118.782 232.232 120.142 230.873C121.501 229.513 122.265 227.669 122.265 225.746V216.071C122.265 215.119 122.077 214.177 121.713 213.297C121.349 212.418 120.815 211.618 120.142 210.945C119.468 210.272 118.669 209.738 117.79 209.374C116.91 209.009 115.967 208.822 115.015 208.822L105.301 208.86Z" fill="#F0F0F0"/>
<path d="M106.115 227.244L91.9375 213.08L96.1558 208.862L106.115 218.821L124.149 200.773L128.367 204.992L106.115 227.244Z" fill="#E0E0E0"/>
<path d="M555.988 315.182H546.261C543.549 315.179 540.949 314.1 539.031 312.182C537.114 310.264 536.035 307.664 536.031 304.952V295.226C536.035 292.514 537.114 289.914 539.031 287.996C540.949 286.078 543.549 285 546.261 284.996H555.988C558.7 285 561.3 286.078 563.217 287.996C565.135 289.914 566.214 292.514 566.217 295.226V304.952C566.214 307.664 565.135 310.264 563.217 312.182C561.3 314.1 558.7 315.179 555.988 315.182ZM546.261 287.976C544.338 287.976 542.494 288.74 541.135 290.099C539.775 291.459 539.011 293.303 539.011 295.226V304.952C539.011 305.904 539.199 306.847 539.563 307.727C539.927 308.606 540.461 309.406 541.135 310.079C541.808 310.752 542.607 311.286 543.487 311.65C544.366 312.015 545.309 312.202 546.261 312.202H555.988C556.94 312.202 557.882 312.015 558.762 311.65C559.642 311.286 560.441 310.752 561.114 310.079C561.787 309.406 562.321 308.606 562.685 307.727C563.05 306.847 563.237 305.904 563.237 304.952V295.226C563.237 293.303 562.474 291.459 561.114 290.099C559.754 288.74 557.91 287.976 555.988 287.976H546.261Z" fill="#F0F0F0"/>
<path d="M547.088 306.399L532.911 292.234L537.129 288.016L547.088 297.975L565.122 279.928L569.341 284.146L547.088 306.399Z" fill="#E0E0E0"/>
<path d="M322.498 475.643C460.634 475.643 572.616 469.105 572.616 461.04C572.616 452.975 460.634 446.438 322.498 446.438C184.362 446.438 72.3799 452.975 72.3799 461.04C72.3799 469.105 184.362 475.643 322.498 475.643Z" fill="#F5F5F5"/>
<path d="M448.2 187.058C450.039 182.157 452.269 177.412 454.869 172.868C456.094 170.624 457.449 168.456 458.739 166.302C460.029 164.148 461.448 162.058 462.996 159.852C463.972 158.519 465.428 157.619 467.057 157.343C468.686 157.067 470.358 157.437 471.718 158.374C473.078 159.311 474.02 160.742 474.342 162.362C474.665 163.982 474.343 165.664 473.445 167.05V167.128C472.155 169.011 470.865 170.998 469.575 173.062C468.285 175.126 467.111 177.112 465.911 179.151C463.552 183.105 461.449 187.207 459.616 191.431C459.1 192.721 458.649 193.934 458.326 195.108H446.084C446.53 192.363 447.238 189.668 448.2 187.058Z" fill="#B55B52"/>
<path d="M473.213 146.329C460.88 149.063 450.444 175.65 450.444 175.65L464.634 183.713C468.835 179.208 472.315 174.082 474.954 168.517C478.05 161.912 484.204 143.891 473.213 146.329Z" fill="#09A350"/>
<path opacity="0.2" d="M477.739 161.253C476.971 163.728 476.04 166.15 474.953 168.503C472.314 174.068 468.833 179.194 464.633 183.699L461.55 181.893C466.439 173.018 466.387 161.679 466.387 161.679L477.017 159.834L477.739 161.253Z" fill="black"/>
<path d="M462.408 241.516L463.17 241.649C463.733 241.747 464.234 242.065 464.563 242.533C464.891 243 465.02 243.579 464.922 244.142L460.422 269.9C460.323 270.463 460.006 270.964 459.538 271.292C459.071 271.62 458.492 271.75 457.929 271.651L457.814 271.631C456.878 271.468 456.044 270.938 455.497 270.16C454.95 269.382 454.735 268.418 454.899 267.482L459.015 243.922C459.149 243.154 459.581 242.471 460.216 242.02C460.852 241.57 461.639 241.388 462.408 241.516Z" fill="#263238"/>
<path opacity="0.1" d="M462.408 241.516L463.17 241.649C463.733 241.747 464.234 242.065 464.563 242.533C464.891 243 465.02 243.579 464.922 244.142L460.422 269.9C460.323 270.463 460.006 270.964 459.538 271.292C459.071 271.62 458.492 271.75 457.929 271.651L457.814 271.631C456.878 271.468 456.044 270.938 455.497 270.16C454.95 269.382 454.735 268.418 454.899 267.482L459.015 243.922C459.149 243.154 459.581 242.471 460.216 242.02C460.852 241.57 461.639 241.388 462.408 241.516Z" fill="white"/>
<path d="M463.499 451.936L453.876 451.82L453.076 429.451L465.783 429.658L463.499 451.936Z" fill="#B55B52"/>
<path opacity="0.2" d="M453.076 429.457L453.541 442.525L464.454 442.667L465.796 429.651L453.076 429.457Z" fill="black"/>
<path d="M453.669 448.541L464.17 448.709C464.354 448.708 464.532 448.777 464.668 448.901C464.804 449.025 464.889 449.196 464.905 449.38L465.808 457.958C465.824 458.175 465.795 458.394 465.722 458.599C465.65 458.805 465.535 458.993 465.386 459.151C465.237 459.31 465.056 459.436 464.856 459.522C464.655 459.607 464.439 459.65 464.221 459.648C460.442 459.532 454.998 459.222 450.238 459.145C444.678 459.055 445.22 459.287 438.692 459.145C434.745 459.08 434.126 455.068 435.815 454.733C443.555 453.211 444.304 453.133 451.295 449.225C452.014 448.796 452.832 448.56 453.669 448.541Z" fill="#263238"/>
<path d="M451.93 449.399C451.969 449.384 452.004 449.36 452.031 449.328C452.058 449.297 452.077 449.259 452.085 449.218C452.09 449.171 452.082 449.122 452.062 449.079C452.041 449.036 452.009 448.999 451.969 448.973C451.53 448.741 447.699 446.728 446.525 447.361C446.414 447.416 446.319 447.5 446.251 447.604C446.183 447.709 446.144 447.829 446.138 447.954C446.11 448.159 446.131 448.369 446.201 448.564C446.27 448.759 446.386 448.935 446.538 449.076C447.583 450.018 450.408 449.683 451.904 449.399H451.93ZM446.77 447.722C447.493 447.477 449.582 448.315 451.092 449.012C448.963 449.334 447.377 449.218 446.796 448.689C446.694 448.596 446.617 448.479 446.572 448.348C446.527 448.217 446.515 448.077 446.538 447.941C446.539 447.893 446.553 447.847 446.578 447.806C446.603 447.765 446.638 447.732 446.68 447.709L446.77 447.722Z" fill="#09A350"/>
<path d="M451.927 449.397C451.961 449.377 451.988 449.349 452.006 449.315C452.025 449.281 452.033 449.242 452.03 449.203C452.03 449.087 451.811 446.494 450.611 445.462C450.436 445.309 450.231 445.193 450.009 445.122C449.787 445.051 449.553 445.026 449.321 445.049C448.689 445.049 448.509 445.423 448.457 445.681C448.263 446.765 450.534 448.881 451.682 449.423C451.722 449.439 451.765 449.445 451.808 449.441C451.851 449.436 451.892 449.421 451.927 449.397ZM449.205 445.527C449.282 445.517 449.36 445.517 449.437 445.527C449.604 445.508 449.773 445.524 449.934 445.575C450.094 445.626 450.241 445.711 450.366 445.823C451.065 446.675 451.488 447.719 451.579 448.816C450.405 448.081 448.87 446.43 448.999 445.772C448.999 445.682 449.012 445.578 449.205 445.514V445.527Z" fill="#09A350"/>
<path d="M474.455 345.892C488.761 296.769 502.1 262.636 498.965 238.268L465.012 238.667C465.012 238.667 447.03 318.312 448.371 347.131C449.765 377.097 451.532 434.038 451.532 434.038L467.012 434.257C467.012 434.257 478.48 379.368 474.455 345.892Z" fill="#263238"/>
<path opacity="0.2" d="M480.203 326.098C487.788 301.046 494.586 283.631 498.508 269.041C476.01 276.975 476.462 304.452 480.203 326.098Z" fill="black"/>
<path d="M449.335 430.588L450.277 437.231L467.305 437.528L468.324 431.259L449.335 430.588Z" fill="#263238"/>
<path opacity="0.3" d="M449.335 430.588L450.277 437.231L467.305 437.528L468.324 431.259L449.335 430.588Z" fill="black"/>
<path d="M529.143 451.936L519.493 451.82L514.488 429.451L526.872 429.645L529.143 451.936Z" fill="#B55B52"/>
<path opacity="0.2" d="M514.488 429.457L517.391 442.37L528.188 442.512L526.885 429.651L514.488 429.457Z" fill="black"/>
<path d="M518.776 449.844L529.264 449.637C529.45 449.629 529.632 449.691 529.776 449.81C529.919 449.929 530.012 450.098 530.038 450.282L531.25 458.822C531.276 459.038 531.256 459.256 531.192 459.463C531.128 459.67 531.022 459.862 530.88 460.026C530.738 460.19 530.563 460.322 530.367 460.415C530.171 460.507 529.958 460.558 529.741 460.564C525.961 460.564 524.762 460.319 520.002 460.409C514.442 460.525 517.009 460.654 510.494 460.796C506.547 460.873 505.773 456.926 507.45 456.487C512.752 455.197 514.068 453.004 516.402 450.644C517.061 450.082 517.911 449.795 518.776 449.844Z" fill="#263238"/>
<path d="M520.699 450.497C520.74 450.497 520.781 450.486 520.817 450.466C520.853 450.446 520.884 450.417 520.905 450.381C520.931 450.341 520.944 450.294 520.944 450.246C520.944 450.198 520.931 450.151 520.905 450.11C520.57 449.762 517.539 446.653 516.223 446.885C516.1 446.909 515.986 446.963 515.889 447.042C515.792 447.121 515.716 447.222 515.668 447.337C515.573 447.52 515.523 447.724 515.523 447.93C515.523 448.137 515.573 448.34 515.668 448.524C516.352 449.749 519.086 450.291 520.66 450.497H520.699ZM516.352 447.324C517.126 447.324 518.854 448.756 520.054 449.904C517.926 449.556 516.468 448.949 516.068 448.266C516.005 448.144 515.972 448.009 515.972 447.872C515.972 447.735 516.005 447.6 516.068 447.479C516.079 447.431 516.104 447.387 516.142 447.355C516.179 447.322 516.225 447.302 516.274 447.298L516.352 447.324Z" fill="#09A350"/>
<path d="M520.699 450.5H520.763C520.802 450.493 520.837 450.475 520.865 450.447C520.892 450.419 520.911 450.384 520.918 450.346C520.918 450.23 521.55 447.766 520.712 446.347C520.599 446.149 520.445 445.977 520.26 445.844C520.075 445.711 519.864 445.618 519.641 445.573C519.035 445.431 518.751 445.663 518.635 445.895C518.119 446.876 519.615 449.585 520.544 450.449C520.564 450.468 520.589 450.483 520.616 450.492C520.642 450.501 520.671 450.504 520.699 450.5ZM519.306 445.973C519.383 445.961 519.461 445.961 519.538 445.973C519.866 446.055 520.149 446.264 520.325 446.553C520.736 447.573 520.817 448.697 520.557 449.765C519.667 448.707 518.725 446.656 519.035 446.076C519.065 446.035 519.107 446.003 519.155 445.985C519.203 445.967 519.255 445.962 519.306 445.973Z" fill="#09A350"/>
<path d="M518.168 347.435C523.444 298.299 527.804 262.089 520.18 237.785L484.809 238.727C484.809 238.727 485.673 319.919 492.316 348.738C499.218 378.705 513.511 434.097 513.511 434.097L528.991 434.317C528.991 434.317 528.359 380.898 518.168 347.435Z" fill="#263238"/>
<path d="M511.24 430.588L512.259 437.231L529.661 437.528L530.642 431.259L511.24 430.588Z" fill="#263238"/>
<path opacity="0.3" d="M511.24 430.588L512.259 437.231L529.661 437.528L530.642 431.259L511.24 430.588Z" fill="black"/>
<path d="M478.161 144.841C488.976 143.686 499.9 144.077 510.605 146.002C513.503 146.464 516.178 147.84 518.241 149.928C520.303 152.016 521.646 154.708 522.073 157.612C524.072 171.376 527.233 198.479 521.544 240.765C516.449 242.377 501.446 242.261 489.513 241.41C488.223 241.307 485.05 238.288 485.05 238.288C485.05 238.288 482.186 240.752 480.535 240.559C472.64 239.604 466.345 238.249 464.887 236.689C461.662 228.949 459.637 209.521 468.215 192.093C468.306 181.657 466.242 169.905 466.061 158.695C466.005 155.298 467.212 152 469.447 149.441C471.682 146.882 474.787 145.242 478.161 144.841Z" fill="#09A350"/>
<path d="M496.418 127.041C497.372 134.201 498.83 142.521 503.887 146.572C502.83 149.35 500.978 151.755 498.562 153.487C496.146 155.219 493.274 156.201 490.303 156.311C482.641 156.711 483.853 150.596 485.143 147.359C488.394 143.708 486.833 139.619 486.007 136.742L496.418 127.041Z" fill="#B55B52"/>
<path opacity="0.2" d="M494.301 130.538C494.301 130.087 494.172 129.635 494.108 129.184L485.955 136.743C486.682 138.699 487.05 140.771 487.039 142.858C491.076 140.162 494.792 134.885 494.301 130.538Z" fill="black"/>
<path d="M499.104 116.636C497.892 126.104 497.673 131.716 492.551 136.231C484.811 143.042 473.382 137.804 471.731 128.155C470.247 119.461 472.466 105.438 482.051 102.355C484.165 101.678 486.416 101.547 488.595 101.974C490.773 102.402 492.809 103.373 494.511 104.798C496.213 106.224 497.527 108.056 498.33 110.126C499.133 112.196 499.399 114.435 499.104 116.636Z" fill="#B55B52"/>
<path d="M483.945 122.002C483.945 122.776 483.442 123.369 482.926 123.292C482.41 123.214 482.049 122.608 482.101 121.834C482.152 121.06 482.604 120.454 483.12 120.544C483.636 120.634 483.984 121.266 483.945 122.002Z" fill="#263238"/>
<path d="M474.258 121.581C474.258 122.355 473.755 122.948 473.252 122.871C472.749 122.794 472.375 122.174 472.427 121.4C472.478 120.626 472.93 120.033 473.433 120.11C473.936 120.188 474.31 120.807 474.258 121.581Z" fill="#263238"/>
<path d="M486.599 122.229H479.44C479.161 122.228 478.892 122.33 478.684 122.516C478.477 122.702 478.346 122.958 478.317 123.235C477.97 123.081 477.594 123.002 477.214 123.002C476.835 123.002 476.459 123.081 476.111 123.235C476.077 122.962 475.944 122.71 475.738 122.527C475.531 122.344 475.265 122.243 474.989 122.242H469.558C469.254 122.242 468.962 122.363 468.746 122.578C468.531 122.794 468.41 123.086 468.41 123.39V126.705C468.41 127.01 468.531 127.302 468.746 127.517C468.962 127.733 469.254 127.854 469.558 127.854H475.028C475.332 127.854 475.624 127.733 475.84 127.517C476.055 127.302 476.176 127.01 476.176 126.705V123.996C476.499 123.794 476.872 123.686 477.253 123.686C477.634 123.686 478.008 123.794 478.33 123.996V126.731C478.33 127.036 478.451 127.328 478.667 127.543C478.882 127.758 479.174 127.879 479.478 127.879H486.638C486.942 127.879 487.234 127.758 487.45 127.543C487.665 127.328 487.786 127.036 487.786 126.731V123.416C487.791 123.259 487.764 123.102 487.707 122.956C487.649 122.809 487.562 122.676 487.45 122.565C487.339 122.453 487.206 122.366 487.06 122.309C486.913 122.251 486.756 122.224 486.599 122.229ZM475.466 126.693C475.463 126.818 475.412 126.938 475.323 127.026C475.234 127.115 475.115 127.167 474.989 127.17H469.558C469.432 127.17 469.31 127.12 469.221 127.03C469.131 126.941 469.081 126.819 469.081 126.693V123.377C469.081 123.251 469.131 123.129 469.221 123.04C469.31 122.95 469.432 122.9 469.558 122.9H475.028C475.153 122.903 475.273 122.955 475.362 123.043C475.451 123.132 475.502 123.252 475.505 123.377L475.466 126.693ZM487.076 126.693C487.078 126.756 487.067 126.819 487.044 126.877C487.02 126.936 486.985 126.989 486.941 127.034C486.896 127.079 486.843 127.114 486.784 127.137C486.725 127.161 486.662 127.172 486.599 127.17H479.44C479.377 127.172 479.314 127.161 479.255 127.137C479.196 127.114 479.143 127.079 479.098 127.034C479.054 126.989 479.018 126.936 478.995 126.877C478.972 126.819 478.961 126.756 478.962 126.693V123.377C478.961 123.314 478.972 123.251 478.995 123.193C479.018 123.134 479.054 123.081 479.098 123.036C479.143 122.991 479.196 122.956 479.255 122.933C479.314 122.909 479.377 122.898 479.44 122.9H486.599C486.725 122.903 486.844 122.955 486.933 123.043C487.022 123.132 487.073 123.252 487.076 123.377V126.693Z" fill="#263238"/>
<path d="M477.211 123.658C476.189 125.547 474.908 127.284 473.405 128.818C473.81 129.192 474.29 129.475 474.812 129.649C475.335 129.822 475.889 129.882 476.437 129.824L477.211 123.658Z" fill="#A02724"/>
<path d="M485.816 117.755C485.89 117.734 485.957 117.694 486.01 117.639C486.053 117.597 486.087 117.547 486.11 117.492C486.133 117.436 486.145 117.377 486.145 117.317C486.145 117.257 486.133 117.197 486.11 117.142C486.087 117.086 486.053 117.036 486.01 116.994C485.525 116.465 484.921 116.057 484.249 115.806C483.576 115.555 482.853 115.467 482.14 115.549C482.081 115.56 482.025 115.583 481.976 115.615C481.926 115.648 481.883 115.69 481.849 115.739C481.816 115.788 481.792 115.843 481.78 115.902C481.768 115.96 481.767 116.02 481.779 116.078C481.806 116.196 481.878 116.299 481.978 116.366C482.079 116.433 482.201 116.459 482.32 116.44C482.891 116.38 483.469 116.457 484.004 116.663C484.54 116.869 485.02 117.199 485.403 117.626C485.458 117.678 485.523 117.716 485.595 117.739C485.666 117.761 485.742 117.767 485.816 117.755Z" fill="#263238"/>
<path d="M471.315 117.641C471.389 117.654 471.466 117.65 471.538 117.627C471.61 117.605 471.675 117.565 471.728 117.512C472.113 117.088 472.594 116.763 473.13 116.563C473.667 116.364 474.243 116.295 474.811 116.364C474.87 116.374 474.93 116.372 474.987 116.359C475.045 116.346 475.1 116.322 475.149 116.288C475.197 116.254 475.238 116.211 475.27 116.16C475.302 116.11 475.324 116.055 475.334 115.996C475.344 115.938 475.342 115.878 475.329 115.82C475.316 115.762 475.292 115.707 475.258 115.659C475.224 115.61 475.181 115.569 475.13 115.537C475.08 115.505 475.024 115.484 474.966 115.474C474.256 115.375 473.533 115.451 472.859 115.693C472.185 115.936 471.58 116.339 471.096 116.867C471.012 116.953 470.966 117.069 470.966 117.189C470.966 117.31 471.012 117.425 471.096 117.512C471.153 117.578 471.23 117.624 471.315 117.641Z" fill="#263238"/>
<path d="M501.203 143.031C501.435 145.224 498.803 153.003 489.593 156.331C493.14 156.331 494.688 160.859 494.688 160.859C494.688 160.859 506.879 154.409 505.421 146.527C505.23 145.547 504.706 144.663 503.937 144.025C503.168 143.388 502.202 143.037 501.203 143.031Z" fill="#09A350"/>
<path d="M486.767 143.625C486.986 145.779 484.496 150.294 489.618 156.331C486.057 156.331 483.942 159.892 483.942 159.892C482.573 157.753 481.763 155.304 481.587 152.771C481.411 150.237 481.875 147.7 482.935 145.392C484.002 144.426 485.339 143.81 486.767 143.625Z" fill="#09A350"/>
<g opacity="0.5">
<path d="M501.204 143.014C501.436 145.207 498.804 152.985 489.594 156.314C493.141 156.314 494.689 160.841 494.689 160.841C494.689 160.841 506.88 154.391 505.422 146.51C505.231 145.529 504.707 144.645 503.938 144.008C503.169 143.37 502.203 143.019 501.204 143.014Z" fill="white"/>
<path d="M486.767 143.602C486.986 145.756 484.496 150.271 489.618 156.308C486.057 156.308 483.942 159.868 483.942 159.868C482.573 157.729 481.763 155.281 481.587 152.747C481.411 150.214 481.875 147.677 482.935 145.369C484.002 144.403 485.339 143.786 486.767 143.602Z" fill="white"/>
</g>
<path d="M462.647 244.268L523.342 245.906V238.27L463.576 236.67L462.647 244.268Z" fill="#263238"/>
<path opacity="0.3" d="M462.647 244.268L523.342 245.906V238.27L463.576 236.67L462.647 244.268Z" fill="white"/>
<path d="M504.989 243.052L506.963 274.27L523.049 273.251C524.06 273.178 525.002 272.712 525.672 271.952C526.343 271.192 526.689 270.2 526.635 269.188L525.1 244.936C525.047 244.103 524.665 243.325 524.039 242.773C523.412 242.222 522.592 241.942 521.759 241.995L504.989 243.052Z" fill="#263238"/>
<path opacity="0.3" d="M504.989 243.052L506.963 274.27L523.049 273.251C524.06 273.178 525.002 272.712 525.672 271.952C526.343 271.192 526.689 270.2 526.635 269.188L525.1 244.936C525.047 244.103 524.665 243.325 524.039 242.773C523.412 242.222 522.592 241.942 521.759 241.995L504.989 243.052Z" fill="white"/>
<path opacity="0.2" d="M508.904 274.107L506.998 274.227L505.029 243.007L507.604 242.844C508.385 242.795 509.155 243.058 509.743 243.576C510.331 244.094 510.688 244.825 510.738 245.607L512.298 270.338C512.323 270.809 512.254 271.279 512.097 271.723C511.94 272.167 511.697 272.576 511.382 272.926C511.066 273.276 510.685 273.56 510.26 273.763C509.835 273.965 509.374 274.082 508.904 274.107Z" fill="black"/>
<path opacity="0.2" d="M510.739 246.832V245.852C510.713 245.438 510.605 245.034 510.422 244.662C510.239 244.29 509.984 243.958 509.673 243.684C509.361 243.411 508.999 243.202 508.606 243.069C508.213 242.936 507.798 242.883 507.385 242.911L521.807 241.995C522.64 241.942 523.46 242.222 524.087 242.773C524.713 243.325 525.095 244.103 525.148 244.936L525.213 245.916L525.354 248.303C525.377 248.664 525.328 249.026 525.211 249.368C525.093 249.71 524.91 250.025 524.67 250.296C524.43 250.567 524.139 250.788 523.814 250.946C523.489 251.104 523.136 251.197 522.774 251.218L513.848 251.773C513.486 251.797 513.124 251.75 512.781 251.633C512.438 251.516 512.122 251.332 511.851 251.092C511.579 250.852 511.359 250.561 511.201 250.235C511.043 249.909 510.952 249.554 510.932 249.193L510.739 246.832Z" fill="white"/>
<path d="M516.96 248.678C516.973 248.892 517.05 249.098 517.18 249.268C517.31 249.439 517.488 249.567 517.692 249.636C517.895 249.706 518.114 249.713 518.321 249.658C518.529 249.602 518.715 249.487 518.856 249.325C518.998 249.164 519.088 248.964 519.116 248.751C519.144 248.538 519.108 248.322 519.012 248.13C518.917 247.937 518.767 247.778 518.58 247.671C518.394 247.564 518.18 247.515 517.966 247.53C517.824 247.538 517.686 247.574 517.558 247.637C517.43 247.699 517.316 247.786 517.223 247.893C517.129 248 517.057 248.124 517.012 248.259C516.967 248.394 516.949 248.536 516.96 248.678Z" fill="#263238"/>
<path d="M483.596 240.892C483.625 241.16 483.752 241.409 483.954 241.589C484.155 241.77 484.416 241.87 484.686 241.87C484.956 241.87 485.217 241.77 485.418 241.589C485.619 241.409 485.747 241.16 485.776 240.892C485.747 240.623 485.619 240.375 485.418 240.194C485.217 240.014 484.956 239.914 484.686 239.914C484.416 239.914 484.155 240.014 483.954 240.194C483.752 240.375 483.625 240.623 483.596 240.892Z" fill="#263238"/>
<path opacity="0.1" d="M520.937 251.378L515.504 251.721L516.89 273.684L522.323 273.342L520.937 251.378Z" fill="black"/>
<path d="M494.344 125.307C494.344 125.307 491.441 125.578 492.228 121.514C493.015 117.451 489.016 113.413 490.151 109.53C491.286 105.647 478.941 108.666 478.051 105.66C477.161 102.654 476.967 111.143 473.149 109.982C469.821 108.975 474.155 104.989 474.155 104.989C474.155 104.989 469.06 107.892 469.06 104.989C469.06 102.087 475.071 102.216 477.2 101.713C483.263 100.255 496.485 93.1213 500.226 111.284C500.226 111.284 505.889 115.245 497.646 126.764L494.344 125.307Z" fill="#263238"/>
<path opacity="0.2" d="M522.543 160.968C524.047 172.296 524.784 183.713 524.749 195.14C516.583 188.084 509.437 168.863 509.437 168.863V161.252L515.525 156.35L522.543 160.968Z" fill="black"/>
<path d="M466.478 183.126L450.211 173.812L448.934 178.186L463.575 186.493L466.478 183.126Z" fill="#09A350"/>
<path opacity="0.5" d="M466.478 183.126L450.211 173.812L448.934 178.186L463.575 186.493L466.478 183.126Z" fill="white"/>
<path d="M475.82 100.832C475.82 100.832 488.553 88.9128 500.137 98.7555C509.786 106.973 501.556 119.77 501.556 119.77L496.912 114.352L487.882 106.612L479.613 101.826L475.82 100.832Z" fill="#09A350"/>
<path d="M469.035 99.9943C474.634 95.6986 491.533 103.722 501.724 119.886V120.015C498.847 116.867 483.006 100.162 473.46 102.226C473.434 102.226 465.591 102.639 469.035 99.9943Z" fill="#09A350"/>
<g opacity="0.3">
<path d="M469.034 100.016C474.633 95.72 491.532 103.744 501.723 119.908V120.037C498.846 116.889 483.005 100.183 473.459 102.247C473.433 102.247 465.59 102.66 469.034 100.016Z" fill="black"/>
</g>
<path d="M479.97 97.3593C484.266 94.9083 492.625 91.8123 500.404 98.43C508.737 105.512 504.119 115.935 502.506 118.954L501.719 118.606C501.719 118.477 506.26 106.441 499.901 101.062C494.741 96.6627 488.432 99.0234 485.156 100.816L484.937 100.933L484.717 100.804C483.647 100.12 481.957 99.1137 479.983 98.1204L479.273 97.7463L479.97 97.3593Z" fill="#09A350"/>
<path opacity="0.3" d="M479.97 97.3593C484.266 94.9083 492.625 91.8123 500.404 98.43C508.737 105.512 504.119 115.935 502.506 118.954L501.719 118.606C501.719 118.477 506.26 106.441 499.901 101.062C494.741 96.6627 488.432 99.0234 485.156 100.816L484.937 100.933L484.717 100.804C483.647 100.12 481.957 99.1137 479.983 98.1204L479.273 97.7463L479.97 97.3593Z" fill="white"/>
<path d="M478.763 133.717C478.309 133.714 477.856 133.676 477.408 133.601C477.345 133.588 477.29 133.551 477.254 133.498C477.217 133.445 477.203 133.38 477.215 133.317C477.219 133.286 477.23 133.257 477.247 133.23C477.263 133.204 477.284 133.181 477.309 133.163C477.335 133.145 477.363 133.132 477.394 133.125C477.424 133.118 477.455 133.118 477.486 133.123C478.478 133.322 479.503 133.284 480.478 133.012C481.452 132.741 482.35 132.245 483.097 131.562C483.14 131.516 483.199 131.489 483.262 131.487C483.325 131.484 483.386 131.507 483.433 131.55C483.479 131.592 483.506 131.652 483.509 131.715C483.511 131.777 483.488 131.839 483.446 131.885C482.185 133.085 480.503 133.743 478.763 133.717Z" fill="#263238"/>
<path opacity="0.5" d="M511.614 176.639H494.341L494.908 178.638C495.066 179.205 495.403 179.705 495.867 180.065C496.332 180.425 496.901 180.626 497.488 180.638H507.744C508.238 180.638 508.722 180.505 509.147 180.253C509.571 180.001 509.92 179.639 510.156 179.206L511.614 176.639Z" fill="white"/>
<path d="M501.903 178.545C501.903 178.829 502.016 179.101 502.217 179.302C502.418 179.502 502.69 179.615 502.974 179.615C503.259 179.615 503.533 179.503 503.736 179.302C503.939 179.102 504.054 178.83 504.058 178.545C504.054 178.258 503.939 177.985 503.737 177.782C503.534 177.58 503.26 177.464 502.974 177.461C502.689 177.464 502.417 177.58 502.216 177.783C502.016 177.986 501.903 178.259 501.903 178.545Z" fill="#09A350"/>
<path opacity="0.5" d="M482.104 176.531H468.198L468.65 178.531C468.724 179.056 468.976 179.541 469.363 179.904C469.75 180.268 470.249 180.489 470.778 180.53H479.034C479.463 180.507 479.876 180.359 480.222 180.105C480.568 179.851 480.832 179.501 480.982 179.098L482.104 176.531Z" fill="white"/>
<path d="M472.914 178.545C472.914 178.829 473.027 179.101 473.228 179.302C473.428 179.502 473.701 179.615 473.985 179.615C474.27 179.615 474.544 179.503 474.746 179.302C474.949 179.102 475.065 178.83 475.068 178.545C475.065 178.258 474.95 177.985 474.747 177.782C474.545 177.58 474.271 177.464 473.985 177.461C473.7 177.464 473.427 177.58 473.227 177.783C473.026 177.986 472.914 178.259 472.914 178.545Z" fill="#09A350"/>
<path d="M487.289 123.072L495.287 122.53L495.223 121.666L486.541 122.272L487.289 123.072Z" fill="#263238"/>
<path d="M501.695 126.504C501.062 127.506 500.234 128.371 499.262 129.049C498.289 129.727 497.191 130.204 496.032 130.451C492.923 131.109 491.543 128.271 492.562 125.446C493.478 122.866 496.2 119.486 499.244 120.106C499.907 120.252 500.524 120.56 501.039 121.003C501.554 121.446 501.95 122.01 502.193 122.644C502.436 123.279 502.518 123.963 502.431 124.637C502.344 125.311 502.091 125.952 501.695 126.504Z" fill="#B55B52"/>
<path d="M484.475 189.51L483.83 191.523C483.81 191.582 483.808 191.645 483.824 191.705C483.841 191.765 483.875 191.819 483.922 191.859C483.97 191.9 484.028 191.925 484.09 191.932C484.152 191.938 484.214 191.926 484.269 191.897L486.165 190.942L497.44 177.681C497.554 177.546 497.61 177.371 497.595 177.194C497.581 177.018 497.497 176.854 497.363 176.739L496.705 176.172C496.637 176.113 496.559 176.069 496.474 176.041C496.389 176.013 496.3 176.003 496.211 176.01C496.122 176.017 496.036 176.042 495.956 176.083C495.877 176.124 495.807 176.181 495.75 176.249L484.475 189.51Z" fill="#263238"/>
<path opacity="0.5" d="M484.475 189.51L483.83 191.523C483.81 191.582 483.808 191.645 483.824 191.705C483.841 191.765 483.875 191.819 483.922 191.859C483.97 191.9 484.028 191.925 484.09 191.932C484.152 191.938 484.214 191.926 484.269 191.897L486.165 190.942L497.44 177.681C497.554 177.546 497.61 177.371 497.595 177.194C497.581 177.018 497.497 176.854 497.363 176.739L496.705 176.172C496.637 176.113 496.559 176.069 496.474 176.041C496.389 176.013 496.3 176.003 496.211 176.01C496.122 176.017 496.036 176.042 495.956 176.083C495.877 176.124 495.807 176.181 495.75 176.249L484.475 189.51Z" fill="white"/>
<path opacity="0.5" d="M496.432 176.04L484.68 189.855L483.893 191.803C483.858 191.766 483.833 191.72 483.822 191.67C483.81 191.62 483.813 191.568 483.828 191.52L484.473 189.507L495.748 176.246C495.831 176.151 495.939 176.081 496.06 176.044C496.181 176.008 496.31 176.006 496.432 176.04Z" fill="white"/>
<path d="M502.24 190.024L494.5 186.154L492.72 196.371C492.72 196.371 500.163 198.951 502.188 195.249L502.24 190.024Z" fill="#B55B52"/>
<path d="M485.946 189.039V192.729C485.94 193.439 486.187 194.128 486.643 194.672C487.1 195.216 487.736 195.579 488.436 195.696L492.706 196.418L494.486 186.201L489.042 186.06C488.643 186.049 488.245 186.119 487.872 186.263C487.5 186.408 487.16 186.625 486.871 186.902C486.583 187.18 486.353 187.511 486.195 187.878C486.036 188.245 485.951 188.64 485.946 189.039Z" fill="#B55B52"/>
<path d="M498.603 195.512C504.121 199.038 510.019 201.929 516.186 204.129C517.841 204.708 519.53 205.186 521.243 205.561C523.256 206.014 525.321 206.196 527.383 206.103C528.897 206.013 530.378 205.627 531.743 204.968C532.703 204.494 533.575 203.862 534.323 203.097C534.517 202.891 534.736 202.633 534.891 202.452L535.265 201.949C535.51 201.614 535.704 201.266 535.91 200.917C537.141 198.592 537.75 195.988 537.677 193.358C537.649 191.365 537.412 189.38 536.968 187.437C536.588 185.692 536.114 183.97 535.549 182.277C534.466 179.066 533.195 175.922 531.743 172.86C530.324 169.893 528.828 166.99 527.202 164.178C525.577 161.366 523.965 158.644 522.042 155.832C521.061 154.409 519.563 153.426 517.868 153.092C516.172 152.758 514.413 153.099 512.965 154.042C511.517 154.985 510.495 156.457 510.116 158.143C509.737 159.829 510.031 161.596 510.936 163.069L511 163.185C512.509 165.597 514.135 168.242 515.605 170.822C517.076 173.402 518.534 175.982 519.849 178.665C521.171 181.218 522.355 183.841 523.397 186.521C524.349 188.798 524.991 191.193 525.306 193.642C525.33 193.972 525.33 194.304 525.306 194.635C524.516 194.692 523.723 194.692 522.933 194.635C521.643 194.506 520.249 194.338 518.843 194.067C513.193 192.997 507.233 191.281 501.377 189.565H501.261C500.493 189.336 499.669 189.393 498.941 189.726C498.212 190.059 497.63 190.645 497.302 191.376C496.974 192.106 496.922 192.931 497.157 193.697C497.391 194.463 497.896 195.117 498.577 195.538L498.603 195.512Z" fill="#B55B52"/>
<path d="M515.55 147.514C529.031 151.758 536.642 180.009 536.642 180.009L522.013 185.763C517.116 181.927 513.096 177.089 510.223 171.573C508.739 168.696 504.805 144.121 515.55 147.514Z" fill="#09A350"/>
<path d="M536.602 176.639L518.723 183.708L521.354 187.449L537.75 180.96L536.602 176.639Z" fill="#09A350"/>
<path opacity="0.5" d="M536.602 176.639L518.723 183.708L521.354 187.449L537.75 180.96L536.602 176.639Z" fill="white"/>
<path d="M452.65 180.137H479.044L497.581 212.438L496.871 213.161H470.478L451.928 180.846L452.65 180.137Z" fill="#263238"/>
<path opacity="0.2" d="M452.65 180.137H479.044L497.581 212.438L496.871 213.161H470.478L451.928 180.846L452.65 180.137Z" fill="white"/>
<path d="M470.478 213.168H496.871L478.321 180.854H451.928L470.478 213.168Z" fill="#263238"/>
<path opacity="0.4" d="M470.478 213.168H496.871L478.321 180.854H451.928L470.478 213.168Z" fill="white"/>
<path d="M459.404 179.662H469.453L471.582 183.377L471.285 183.674H461.236L459.107 179.959L459.404 179.662Z" fill="#09A350"/>
<path opacity="0.5" d="M459.404 179.662H469.453L471.582 183.377L471.285 183.674H461.236L459.107 179.959L459.404 179.662Z" fill="white"/>
<path d="M461.236 183.672L459.107 179.957H469.157L471.285 183.672H461.236Z" fill="#09A350"/>
<path opacity="0.2" d="M461.236 183.672L459.107 179.957H469.157L471.285 183.672H461.236Z" fill="white"/>
<path d="M446.03 200.786C445.784 199.018 445.784 197.225 446.03 195.458C446.094 194.994 446.185 194.568 446.262 194.168H458.633C458.284 195.189 457.999 196.232 457.782 197.29C457.634 197.955 457.561 198.634 457.563 199.315C457.567 199.397 457.567 199.479 457.563 199.56C457.656 199.618 457.756 199.665 457.859 199.702C458.783 200.098 459.736 200.422 460.71 200.67C462.8 201.25 465.186 201.74 467.444 202.308H467.689C468.371 202.477 468.979 202.865 469.42 203.412C469.862 203.959 470.112 204.635 470.134 205.337C470.156 206.039 469.948 206.73 469.542 207.303C469.135 207.876 468.553 208.301 467.883 208.513C465.291 209.344 462.603 209.838 459.885 209.983C458.4 210.08 456.91 210.036 455.434 209.854C454.56 209.723 453.698 209.524 452.854 209.261C451.699 208.909 450.615 208.354 449.655 207.623C449.331 207.368 449.025 207.093 448.739 206.797C448.433 206.472 448.149 206.127 447.888 205.765C447.527 205.216 447.212 204.638 446.946 204.036C446.494 203 446.185 201.906 446.03 200.786Z" fill="#B55B52"/>
<path d="M467.419 208.546L476.59 207.256L471.301 198.768C471.301 198.768 463.561 199.903 464.077 204.689L467.419 208.546Z" fill="#B55B52"/>
<path d="M480.231 202.113L478.58 198.243C478.442 197.92 478.239 197.629 477.984 197.388C477.729 197.147 477.427 196.96 477.097 196.839C476.768 196.718 476.417 196.666 476.066 196.686C475.716 196.705 475.373 196.796 475.059 196.953L471.305 198.746L476.594 207.234L479.367 205.235C479.846 204.891 480.193 204.394 480.35 203.826C480.508 203.258 480.466 202.654 480.231 202.113Z" fill="#B55B52"/>
<path d="M134.923 236.457H145.178V240.508H143.501V258.684H136.6V240.508H134.923V236.457Z" fill="#09A350"/>
<g opacity="0.2">
<path d="M134.917 236.445H145.172V240.496H143.495V258.672H136.594V240.496H134.917V236.445Z" fill="black"/>
</g>
<path d="M195.55 223.508L231.967 279.533V329.804H145.743V279.533L195.55 223.508Z" fill="#09A350"/>
<path opacity="0.5" d="M195.55 223.508L231.967 279.533V329.804H145.743V279.533L195.55 223.508Z" fill="white"/>
<path d="M155.564 225.782L161.111 217.281H195.554L236.138 279.524H201.682H155.564V225.782Z" fill="#09A350"/>
<path opacity="0.2" d="M155.564 225.782L161.111 217.281H195.554L236.138 279.524H201.682H155.564V225.782Z" fill="black"/>
<path d="M201.676 279.524L161.106 217.281L120.522 279.524H201.676Z" fill="#09A350"/>
<path d="M161.108 223.508L197.512 279.533V329.804H124.691V279.533L161.108 223.508Z" fill="#09A350"/>
<path opacity="0.8" d="M161.108 223.508L197.512 279.533V329.804H124.691V279.533L161.108 223.508Z" fill="white"/>
<path d="M177.44 255.75H170.074V275.268H177.44V255.75Z" fill="#09A350"/>
<path d="M151.653 255.75H144.287V275.268H151.653V255.75Z" fill="#09A350"/>
<path d="M170.063 254.824H151.654V276.187H170.063V254.824Z" fill="#09A350"/>
<path opacity="0.4" d="M170.063 254.824H151.654V276.187H170.063V254.824Z" fill="white"/>
<path d="M167.762 257.135H153.946V273.892H167.762V257.135Z" fill="#263238"/>
<path d="M149.73 329.791H171.995V293.852H149.73V329.791Z" fill="#09A350"/>
<path opacity="0.3" d="M149.73 329.791H171.995V293.852H149.73V329.791Z" fill="white"/>
<path d="M151.109 286.338H170.613L175.361 295.136H146.361L151.109 286.338Z" fill="#09A350"/>
<path d="M168.112 299.971H161.288V329.808H168.112V299.971Z" fill="#263238"/>
<path d="M160.436 299.971H153.612V329.808H160.436V299.971Z" fill="#263238"/>
<path d="M218.074 366.102H114.345V454.015H218.074V366.102Z" fill="#09A350"/>
<path opacity="0.6" d="M218.074 366.102H114.345V454.015H218.074V366.102Z" fill="white"/>
<path d="M242.299 366.102H191.073V454.015H242.299V366.102Z" fill="#09A350"/>
<path opacity="0.8" d="M242.299 366.102H191.073V454.015H242.299V366.102Z" fill="white"/>
<path d="M181.42 374.938H161.013V398.609H181.42V374.938Z" fill="#09A350"/>
<path opacity="0.3" d="M181.42 374.938H161.013V398.609H181.42V374.938Z" fill="white"/>
<path d="M178.872 377.5H163.572V396.063H178.872V377.5Z" fill="#263238"/>
<path d="M206.257 375.967H198.091V397.6H206.257V375.967Z" fill="#09A350"/>
<path d="M234.827 375.967H226.661V397.6H234.827V375.967Z" fill="#09A350"/>
<path d="M226.666 374.938H206.258V398.609H226.666V374.938Z" fill="#09A350"/>
<path opacity="0.3" d="M226.666 374.938H206.258V398.609H226.666V374.938Z" fill="white"/>
<path d="M224.11 377.5H208.811V396.063H224.11V377.5Z" fill="#263238"/>
<path d="M162.549 414.904H138.323V454.004H162.549V414.904Z" fill="#09A350"/>
<path opacity="0.3" d="M162.549 414.904H138.323V454.004H162.549V414.904Z" fill="white"/>
<path d="M161.058 406.715H139.825L134.665 416.287H166.218L161.058 406.715Z" fill="#09A350"/>
<path d="M149.976 421.547H142.559V454.003H149.976V421.547Z" fill="#263238"/>
<path d="M158.317 421.547H150.899V454.003H158.317V421.547Z" fill="#263238"/>
<path d="M229.633 366.855L209.367 329.238H123.066L102.8 366.855H229.633Z" fill="#09A350"/>
<path opacity="0.3" d="M229.633 366.855L209.367 329.238H123.066L102.8 366.855H229.633Z" fill="black"/>
<path d="M253.861 366.855L233.595 329.238H199.797L179.531 366.855H253.861Z" fill="#09A350"/>
<path opacity="0.1" d="M253.861 366.855L233.595 329.238H199.797L179.531 366.855H253.861Z" fill="black"/>
<path d="M142.402 360.418V329.238H182.289L165.493 360.418H142.402Z" fill="#09A350"/>
<path opacity="0.8" d="M142.402 360.418V329.238H182.289L165.493 360.418H142.402Z" fill="white"/>
<path d="M141.226 360.424H165.452V336.198H141.226V360.424Z" fill="#09A350"/>
<path opacity="0.6" d="M141.226 360.424H165.452V336.198H141.226V360.424Z" fill="white"/>
<path d="M158.449 357.492H148.232C147.787 357.492 147.361 357.315 147.046 357.001C146.732 356.686 146.555 356.26 146.555 355.815V354.59H160.126V355.815C160.126 356.26 159.949 356.686 159.635 357.001C159.32 357.315 158.894 357.492 158.449 357.492Z" fill="#09A350"/>
<path d="M149.057 344.66C149.025 344.077 149.112 343.493 149.314 342.945C149.515 342.397 149.825 341.896 150.227 341.471C150.628 341.047 151.112 340.71 151.648 340.479C152.185 340.248 152.763 340.129 153.346 340.129C153.93 340.129 154.508 340.248 155.045 340.479C155.581 340.71 156.065 341.047 156.466 341.471C156.868 341.896 157.178 342.397 157.379 342.945C157.58 343.493 157.668 344.077 157.636 344.66V353.909H149.057V344.66Z" fill="#263238"/>
<path d="M157.625 337.572L162.127 329.238H182.29L177.801 337.572H157.625Z" fill="#09A350"/>
<path opacity="0.2" d="M157.625 337.572L162.127 329.238H182.29L177.801 337.572H157.625Z" fill="black"/>
<path d="M164.618 329.238L169.12 337.572H137.566L142.069 329.238H164.618Z" fill="#09A350"/>
<path d="M144.877 374.938H124.469V398.609H144.877V374.938Z" fill="#09A350"/>
<path opacity="0.3" d="M144.877 374.938H124.469V398.609H144.877V374.938Z" fill="white"/>
<path d="M142.311 377.5H127.012V396.063H142.311V377.5Z" fill="#263238"/>
<path d="M246.388 453.149H436.186C437.003 453.161 437.812 453 438.562 452.675C439.311 452.351 439.983 451.871 440.533 451.267C441.083 450.663 441.499 449.95 441.752 449.173C442.006 448.397 442.092 447.576 442.004 446.764L418.178 174.574C418.004 172.846 417.203 171.242 415.927 170.065C414.65 168.888 412.986 168.22 411.25 168.188H221.414C220.597 168.176 219.787 168.338 219.038 168.662C218.288 168.987 217.616 169.467 217.066 170.07C216.516 170.674 216.101 171.388 215.847 172.164C215.594 172.94 215.508 173.762 215.596 174.574L239.422 446.764C239.596 448.498 240.403 450.107 241.687 451.285C242.972 452.463 244.645 453.126 246.388 453.149Z" fill="#263238"/>
<path d="M249.083 453.149H438.92C439.737 453.164 440.548 453.003 441.298 452.68C442.049 452.356 442.721 451.876 443.272 451.272C443.822 450.668 444.238 449.953 444.491 449.176C444.743 448.398 444.827 447.576 444.738 446.764L420.924 174.574C420.748 172.845 419.944 171.241 418.666 170.064C417.387 168.888 415.721 168.22 413.984 168.188H224.16C223.343 168.174 222.532 168.334 221.782 168.658C221.031 168.982 220.359 169.462 219.808 170.066C219.258 170.67 218.842 171.385 218.59 172.162C218.337 172.939 218.253 173.761 218.343 174.574L242.156 446.764C242.329 448.492 243.13 450.096 244.407 451.272C245.683 452.449 247.347 453.117 249.083 453.149Z" fill="#263238"/>
<path opacity="0.5" d="M249.083 453.149H438.92C439.737 453.164 440.548 453.003 441.298 452.68C442.049 452.356 442.721 451.876 443.272 451.272C443.822 450.668 444.238 449.953 444.491 449.176C444.743 448.398 444.827 447.576 444.738 446.764L420.924 174.574C420.748 172.845 419.944 171.241 418.666 170.064C417.387 168.888 415.721 168.22 413.984 168.188H224.16C223.343 168.174 222.532 168.334 221.782 168.658C221.031 168.982 220.359 169.462 219.808 170.066C219.258 170.67 218.842 171.385 218.59 172.162C218.337 172.939 218.253 173.761 218.343 174.574L242.156 446.764C242.329 448.492 243.13 450.096 244.407 451.272C245.683 452.449 247.347 453.117 249.083 453.149Z" fill="white"/>
<path opacity="0.2" d="M403.264 183.912L426.032 443.267H254.927L232.158 183.912H403.264Z" fill="black"/>
<path d="M404.308 183.922L410.874 267.553C412.594 289.233 415.174 310.819 418.614 332.311L435.384 437.394H264.24L247.47 332.053C244.03 310.596 241.471 289.035 239.794 267.372L233.241 183.922H404.308Z" fill="white"/>
<path d="M290.75 217.16H354.902C355.392 217.172 355.879 217.075 356.328 216.878C356.777 216.681 357.177 216.387 357.499 216.017C357.822 215.648 358.059 215.212 358.194 214.741C358.329 214.269 358.359 213.774 358.281 213.29L357.778 209.123C357.635 208.07 357.121 207.102 356.329 206.393C355.538 205.684 354.519 205.28 353.457 205.253H289.292C288.802 205.241 288.316 205.337 287.867 205.534C287.419 205.732 287.02 206.026 286.698 206.396C286.377 206.765 286.14 207.201 286.007 207.673C285.873 208.144 285.846 208.64 285.925 209.123L286.429 213.29C286.572 214.343 287.086 215.31 287.878 216.019C288.669 216.729 289.688 217.133 290.75 217.16Z" fill="#09A350"/>
<path d="M263.664 303.394H401.397C401.887 303.406 402.374 303.31 402.822 303.113C403.271 302.915 403.67 302.621 403.991 302.251C404.313 301.882 404.549 301.446 404.683 300.974C404.816 300.503 404.844 300.007 404.764 299.524L404.261 295.357C404.117 294.304 403.604 293.337 402.812 292.628C402.02 291.919 401.002 291.514 399.94 291.487H262.206C261.716 291.475 261.229 291.572 260.78 291.769C260.331 291.966 259.931 292.26 259.609 292.63C259.286 292.999 259.049 293.435 258.914 293.906C258.778 294.378 258.749 294.873 258.826 295.357L259.342 299.524C259.486 300.577 260 301.545 260.791 302.254C261.583 302.963 262.601 303.367 263.664 303.394Z" fill="#09A350"/>
<path opacity="0.5" d="M263.664 303.394H401.397C401.887 303.406 402.374 303.31 402.822 303.113C403.271 302.915 403.67 302.621 403.991 302.251C404.313 301.882 404.549 301.446 404.683 300.974C404.816 300.503 404.844 300.007 404.764 299.524L404.261 295.357C404.117 294.304 403.604 293.337 402.812 292.628C402.02 291.919 401.002 291.514 399.94 291.487H262.206C261.716 291.475 261.229 291.572 260.78 291.769C260.331 291.966 259.931 292.26 259.609 292.63C259.286 292.999 259.049 293.435 258.914 293.906C258.778 294.378 258.749 294.873 258.826 295.357L259.342 299.524C259.486 300.577 260 301.545 260.791 302.254C261.583 302.963 262.601 303.367 263.664 303.394Z" fill="white"/>
<path d="M348.545 234.914H284.393C283.103 234.914 282.897 232.863 284.213 232.863H348.364C349.654 232.863 349.874 234.914 348.545 234.914Z" fill="#263238"/>
<path d="M257.055 240.617H349.315C350.605 240.617 350.825 242.681 349.496 242.681H257.222C255.932 242.681 255.726 240.617 257.055 240.617Z" fill="#263238"/>
<path d="M362.695 243.021H394.004C394.494 243.033 394.981 242.937 395.43 242.74C395.878 242.542 396.278 242.248 396.601 241.879C396.924 241.51 397.161 241.074 397.296 240.602C397.431 240.131 397.461 239.636 397.383 239.151L396.867 234.985C396.726 233.931 396.213 232.961 395.421 232.252C394.629 231.542 393.609 231.139 392.546 231.115H361.199C360.708 231.1 360.22 231.195 359.77 231.392C359.32 231.588 358.919 231.882 358.596 232.252C358.273 232.622 358.036 233.059 357.901 233.531C357.767 234.004 357.739 234.5 357.819 234.985L358.335 239.151C358.48 240.211 358.999 241.184 359.799 241.894C360.599 242.603 361.626 243.003 362.695 243.021Z" fill="#263238"/>
<path opacity="0.7" d="M362.695 243.021H394.004C394.494 243.033 394.981 242.937 395.43 242.74C395.878 242.542 396.278 242.248 396.601 241.879C396.924 241.51 397.161 241.074 397.296 240.602C397.431 240.131 397.461 239.636 397.383 239.151L396.867 234.985C396.726 233.931 396.213 232.961 395.421 232.252C394.629 231.542 393.609 231.139 392.546 231.115H361.199C360.708 231.1 360.22 231.195 359.77 231.392C359.32 231.588 358.919 231.882 358.596 232.252C358.273 232.622 358.036 233.059 357.901 233.531C357.767 234.004 357.739 234.5 357.819 234.985L358.335 239.151C358.48 240.211 358.999 241.184 359.799 241.894C360.599 242.603 361.626 243.003 362.695 243.021Z" fill="white"/>
<path d="M380.34 266.894H396.917C397.407 266.906 397.894 266.81 398.343 266.612C398.792 266.415 399.192 266.121 399.514 265.752C399.837 265.382 400.074 264.947 400.209 264.475C400.344 264.004 400.374 263.508 400.296 263.024L400.026 260.844C399.885 259.792 399.374 258.825 398.584 258.115C397.795 257.406 396.778 257.001 395.717 256.974H379.128C378.637 256.96 378.149 257.054 377.699 257.251C377.249 257.448 376.848 257.742 376.525 258.112C376.201 258.482 375.964 258.918 375.83 259.391C375.696 259.863 375.668 260.359 375.748 260.844L376.019 263.024C376.162 264.077 376.676 265.045 377.468 265.754C378.259 266.463 379.278 266.867 380.34 266.894Z" fill="#263238"/>
<path d="M329.645 266.894H368.126C368.616 266.906 369.103 266.81 369.552 266.612C370.001 266.415 370.401 266.121 370.723 265.752C371.046 265.382 371.283 264.947 371.418 264.475C371.554 264.004 371.583 263.508 371.506 263.024L371.235 260.844C371.094 259.792 370.583 258.825 369.793 258.115C369.004 257.406 367.987 257.002 366.926 256.974H328.432C327.942 256.96 327.454 257.054 327.005 257.251C326.555 257.448 326.155 257.742 325.833 258.112C325.511 258.482 325.275 258.919 325.142 259.392C325.009 259.864 324.983 260.36 325.066 260.844L325.324 263.024C325.47 264.076 325.984 265.042 326.775 265.751C327.566 266.46 328.583 266.865 329.645 266.894Z" fill="#263238"/>
<path d="M288.536 266.894H317.445C317.935 266.904 318.421 266.806 318.868 266.608C319.316 266.41 319.715 266.116 320.037 265.747C320.359 265.378 320.597 264.943 320.733 264.473C320.869 264.002 320.9 263.508 320.825 263.024L320.554 260.844C320.413 259.79 319.9 258.821 319.108 258.111C318.315 257.402 317.296 256.998 316.233 256.974H287.337C286.846 256.96 286.358 257.054 285.908 257.251C285.458 257.448 285.057 257.742 284.734 258.112C284.41 258.482 284.173 258.918 284.039 259.391C283.905 259.863 283.877 260.359 283.957 260.844L284.215 263.024C284.363 264.075 284.878 265.04 285.669 265.748C286.46 266.456 287.475 266.862 288.536 266.894Z" fill="#263238"/>
<path d="M261.107 266.894H276.329C276.819 266.906 277.306 266.81 277.755 266.612C278.204 266.415 278.603 266.121 278.926 265.752C279.249 265.382 279.486 264.947 279.621 264.475C279.756 264.004 279.786 263.508 279.708 263.024L279.437 260.844C279.296 259.79 278.783 258.821 277.991 258.111C277.199 257.402 276.179 256.998 275.116 256.974H259.907C259.416 256.96 258.928 257.054 258.478 257.251C258.028 257.448 257.627 257.742 257.304 258.112C256.981 258.482 256.744 258.918 256.609 259.391C256.475 259.863 256.447 260.359 256.527 260.844L256.798 263.024C256.941 264.075 257.453 265.041 258.242 265.75C259.031 266.459 260.046 266.864 261.107 266.894Z" fill="#263238"/>
<path d="M369.786 281.331H398.682C399.173 281.345 399.661 281.251 400.111 281.054C400.561 280.857 400.962 280.564 401.285 280.194C401.608 279.824 401.845 279.387 401.98 278.915C402.114 278.442 402.142 277.946 402.062 277.461L401.791 275.281C401.648 274.23 401.136 273.264 400.347 272.555C399.558 271.847 398.543 271.441 397.482 271.411H368.573C368.083 271.399 367.596 271.495 367.147 271.693C366.698 271.89 366.299 272.184 365.976 272.554C365.653 272.923 365.416 273.359 365.281 273.83C365.146 274.302 365.116 274.797 365.194 275.281L365.465 277.461C365.606 278.515 366.119 279.485 366.911 280.194C367.703 280.904 368.723 281.307 369.786 281.331Z" fill="#263238"/>
<path d="M323.211 281.331H357.576C358.067 281.345 358.555 281.251 359.005 281.054C359.455 280.857 359.856 280.564 360.179 280.194C360.503 279.824 360.74 279.387 360.874 278.915C361.008 278.442 361.036 277.946 360.956 277.461L360.698 275.281C360.55 274.23 360.035 273.265 359.244 272.557C358.453 271.849 357.438 271.443 356.377 271.411H321.998C321.508 271.399 321.021 271.495 320.572 271.693C320.123 271.89 319.723 272.184 319.401 272.554C319.078 272.923 318.841 273.359 318.706 273.83C318.57 274.302 318.541 274.797 318.618 275.281L318.889 277.461C319.03 278.515 319.543 279.485 320.336 280.194C321.128 280.904 322.148 281.307 323.211 281.331Z" fill="#263238"/>
<path d="M294.413 281.331H310.99C311.48 281.345 311.968 281.251 312.418 281.054C312.869 280.857 313.269 280.564 313.593 280.194C313.916 279.824 314.153 279.387 314.287 278.915C314.421 278.442 314.449 277.946 314.369 277.461L314.098 275.281C313.955 274.228 313.441 273.26 312.649 272.551C311.858 271.842 310.839 271.438 309.777 271.411H293.2C292.71 271.399 292.223 271.495 291.774 271.693C291.325 271.89 290.926 272.184 290.603 272.554C290.28 272.923 290.043 273.359 289.908 273.83C289.773 274.302 289.743 274.797 289.821 275.281L290.092 277.461C290.233 278.515 290.746 279.485 291.538 280.194C292.33 280.904 293.35 281.307 294.413 281.331Z" fill="#263238"/>
<path d="M262.875 281.331H282.225C282.716 281.345 283.204 281.251 283.654 281.054C284.104 280.857 284.505 280.564 284.828 280.194C285.151 279.824 285.388 279.387 285.522 278.915C285.657 278.442 285.685 277.946 285.605 277.461L285.334 275.281C285.19 274.228 284.677 273.26 283.885 272.551C283.093 271.842 282.075 271.438 281.012 271.411H261.662C261.172 271.399 260.685 271.495 260.236 271.693C259.787 271.89 259.387 272.184 259.065 272.554C258.742 272.923 258.505 273.359 258.37 273.83C258.235 274.302 258.205 274.797 258.283 275.281L258.553 277.461C258.695 278.515 259.207 279.485 260 280.194C260.792 280.904 261.812 281.307 262.875 281.331Z" fill="#263238"/>
<g opacity="0.7">
<path d="M380.341 266.89H396.918C397.408 266.902 397.895 266.806 398.344 266.609C398.793 266.411 399.193 266.117 399.515 265.748C399.838 265.378 400.075 264.943 400.21 264.471C400.345 264 400.375 263.504 400.297 263.02L400.027 260.84C399.886 259.788 399.375 258.821 398.585 258.111C397.795 257.402 396.779 256.998 395.718 256.97H379.129C378.638 256.956 378.15 257.051 377.7 257.247C377.25 257.444 376.849 257.738 376.525 258.108C376.202 258.478 375.965 258.914 375.831 259.387C375.697 259.859 375.669 260.356 375.749 260.84L376.02 263.02C376.163 264.073 376.677 265.041 377.469 265.75C378.26 266.459 379.279 266.863 380.341 266.89Z" fill="white"/>
<path d="M329.65 266.89H368.131C368.621 266.902 369.108 266.806 369.557 266.609C370.006 266.411 370.406 266.117 370.728 265.748C371.051 265.379 371.288 264.943 371.423 264.471C371.558 264 371.588 263.505 371.51 263.02L371.24 260.84C371.099 259.788 370.588 258.821 369.798 258.112C369.008 257.402 367.992 256.998 366.931 256.97H328.437C327.947 256.956 327.459 257.05 327.01 257.247C326.56 257.444 326.16 257.738 325.838 258.108C325.515 258.478 325.28 258.915 325.147 259.388C325.014 259.86 324.988 260.356 325.07 260.84L325.328 263.02C325.475 264.072 325.989 265.038 326.78 265.747C327.571 266.456 328.588 266.861 329.65 266.89Z" fill="white"/>
<path d="M288.535 266.89H317.444C317.934 266.9 318.42 266.802 318.867 266.604C319.315 266.406 319.714 266.112 320.036 265.743C320.358 265.374 320.596 264.939 320.732 264.469C320.868 263.999 320.899 263.504 320.824 263.02L320.553 260.84C320.412 259.786 319.899 258.817 319.107 258.107C318.314 257.398 317.295 256.995 316.232 256.97H287.336C286.845 256.956 286.357 257.051 285.907 257.247C285.457 257.444 285.056 257.738 284.733 258.108C284.409 258.478 284.172 258.914 284.038 259.387C283.904 259.859 283.876 260.356 283.956 260.84L284.214 263.02C284.362 264.071 284.877 265.036 285.668 265.744C286.459 266.452 287.474 266.858 288.535 266.89Z" fill="white"/>
<path d="M261.108 266.89H276.33C276.82 266.902 277.307 266.806 277.756 266.609C278.204 266.411 278.604 266.117 278.927 265.748C279.25 265.378 279.487 264.943 279.622 264.471C279.757 264 279.787 263.504 279.709 263.02L279.438 260.84C279.297 259.786 278.784 258.817 277.992 258.107C277.2 257.398 276.18 256.995 275.117 256.97H259.908C259.417 256.956 258.929 257.051 258.479 257.247C258.029 257.444 257.628 257.738 257.305 258.108C256.982 258.478 256.745 258.914 256.61 259.387C256.476 259.859 256.448 260.356 256.528 260.84L256.799 263.02C256.942 264.071 257.454 265.037 258.243 265.746C259.032 266.455 260.047 266.86 261.108 266.89Z" fill="white"/>
<path d="M369.794 281.32H398.69C399.181 281.334 399.669 281.239 400.119 281.042C400.569 280.846 400.97 280.552 401.293 280.182C401.616 279.812 401.853 279.375 401.987 278.903C402.122 278.43 402.15 277.934 402.07 277.45L401.799 275.269C401.656 274.218 401.144 273.253 400.355 272.544C399.566 271.835 398.55 271.429 397.49 271.399H368.581C368.091 271.388 367.604 271.484 367.155 271.681C366.706 271.879 366.306 272.172 365.984 272.542C365.661 272.911 365.424 273.347 365.289 273.818C365.153 274.29 365.124 274.785 365.201 275.269L365.472 277.45C365.613 278.504 366.126 279.473 366.919 280.182C367.711 280.892 368.731 281.295 369.794 281.32Z" fill="white"/>
<path d="M323.214 281.32H357.579C358.07 281.334 358.558 281.239 359.008 281.042C359.458 280.846 359.859 280.552 360.182 280.182C360.505 279.812 360.743 279.375 360.877 278.903C361.011 278.43 361.039 277.934 360.959 277.45L360.701 275.269C360.553 274.218 360.038 273.254 359.247 272.546C358.456 271.838 357.441 271.432 356.38 271.399H322.001C321.511 271.388 321.024 271.484 320.575 271.681C320.126 271.879 319.726 272.172 319.404 272.542C319.081 272.911 318.844 273.347 318.709 273.818C318.573 274.29 318.544 274.785 318.621 275.269L318.892 277.45C319.033 278.504 319.546 279.473 320.339 280.182C321.131 280.892 322.151 281.295 323.214 281.32Z" fill="white"/>
<path d="M294.417 281.32H310.993C311.484 281.334 311.972 281.239 312.422 281.042C312.872 280.846 313.273 280.552 313.596 280.182C313.919 279.812 314.157 279.375 314.291 278.903C314.425 278.43 314.453 277.934 314.373 277.45L314.102 275.269C313.959 274.216 313.445 273.249 312.653 272.54C311.862 271.831 310.843 271.426 309.781 271.399H293.204C292.714 271.388 292.227 271.484 291.778 271.681C291.329 271.879 290.929 272.172 290.607 272.542C290.284 272.911 290.047 273.347 289.912 273.818C289.777 274.29 289.747 274.785 289.825 275.269L290.095 277.45C290.237 278.504 290.749 279.473 291.542 280.182C292.334 280.892 293.354 281.295 294.417 281.32Z" fill="white"/>
<path d="M262.877 281.32H282.227C282.718 281.334 283.206 281.239 283.656 281.042C284.106 280.846 284.507 280.552 284.83 280.182C285.153 279.812 285.39 279.375 285.524 278.903C285.659 278.43 285.687 277.934 285.607 277.45L285.336 275.269C285.192 274.216 284.679 273.249 283.887 272.54C283.095 271.831 282.077 271.426 281.014 271.399H261.664C261.174 271.388 260.687 271.484 260.238 271.681C259.789 271.879 259.389 272.172 259.067 272.542C258.744 272.911 258.507 273.347 258.372 273.818C258.236 274.29 258.207 274.785 258.284 275.269L258.555 277.45C258.696 278.504 259.209 279.473 260.002 280.182C260.794 280.892 261.814 281.295 262.877 281.32Z" fill="white"/>
</g>
<path d="M317.793 426.899H273.223C271.933 426.899 271.727 424.848 273.043 424.848H317.612C318.902 424.848 319.121 426.899 317.793 426.899Z" fill="#263238"/>
<path d="M420.32 426.899H375.751C374.461 426.899 374.254 424.848 375.57 424.848H420.139C421.429 424.848 421.649 426.899 420.32 426.899Z" fill="#263238"/>
<path d="M412.592 363.77H355.703C354.413 363.77 354.194 361.719 355.522 361.719H412.411C413.701 361.719 413.908 363.77 412.592 363.77Z" fill="#263238"/>
<path d="M356.485 369.564H413.374C414.664 369.564 414.871 371.616 413.555 371.616H356.666C355.376 371.616 355.157 369.564 356.485 369.564Z" fill="#263238"/>
<path d="M357.46 377.467H414.349C415.639 377.467 415.845 379.518 414.53 379.518H357.641C356.35 379.518 356.131 377.467 357.46 377.467Z" fill="#263238"/>
<path d="M358.422 385.357H415.375C416.665 385.357 416.872 387.409 415.543 387.409H358.615C357.325 387.409 357.106 385.357 358.435 385.357H358.422Z" fill="#263238"/>
<path d="M359.394 393.246H416.283C417.573 393.246 417.779 395.31 416.45 395.31H359.574C358.284 395.31 358.065 393.246 359.394 393.246Z" fill="#263238"/>
<path d="M327.525 363.77H282.956C281.666 363.77 281.459 361.719 282.775 361.719H327.345C328.635 361.719 328.854 363.77 327.525 363.77Z" fill="#263238"/>
<path d="M283.796 369.564H328.365C329.655 369.564 329.874 371.616 328.546 371.616H283.925C282.635 371.616 282.415 369.564 283.744 369.564H283.796Z" fill="#263238"/>
<path d="M284.714 377.467H329.283C330.573 377.467 330.78 379.518 329.464 379.518H284.894C283.604 379.518 283.385 377.467 284.714 377.467Z" fill="#263238"/>
<path d="M285.681 385.357H330.237C331.527 385.357 331.734 387.409 330.418 387.409H285.861C284.571 387.409 284.352 385.357 285.681 385.357Z" fill="#263238"/>
<path d="M286.647 393.246H331.217C332.507 393.246 332.713 395.31 331.397 395.31H286.828C285.538 395.31 285.319 393.246 286.647 393.246Z" fill="#263238"/>
<path d="M261.701 323.055L262.875 332.64L264.049 342.224L265.223 351.796H411.677L410.387 341.192L409.213 331.608L408.039 322.036L406.865 312.451H260.398L261.701 323.055ZM287.837 317.753L288.353 322.036H262.553L261.508 313.47H287.308L287.837 317.753ZM290.03 327.338L289.514 323.055H334.419L334.948 327.338L335.464 331.608H290.559L290.03 327.338ZM335.399 323.055H380.304L380.833 327.338L381.349 331.608H336.496L335.967 327.338L335.399 323.055ZM382.523 341.192H337.669L337.141 336.91L336.625 332.64H381.529L382.058 336.91L382.523 341.192ZM336.586 341.192H291.733L291.204 336.91L290.675 332.64H335.593L336.109 336.91L336.586 341.192ZM333.722 317.753L334.238 322.036H289.385L288.856 317.753L288.34 313.47H333.245L333.722 317.753ZM379.659 317.753L380.175 322.036H335.322L334.793 317.753L334.277 313.47H379.182L379.659 317.753ZM406.955 322.036H381.155L380.626 317.753L380.11 313.47H405.91L406.955 322.036ZM408.129 331.608H382.329L381.8 327.338L381.284 323.055H407.084L408.129 331.608ZM409.303 341.192H383.503L382.974 336.91L382.458 332.64H408.258L409.303 341.192ZM384.2 346.494L383.684 342.224H409.484L410.529 350.777H384.729L384.2 346.494ZM338.263 346.494L337.734 342.224H382.652L383.168 346.494L383.697 350.777H338.843L338.263 346.494ZM292.326 346.494L291.797 342.224H336.715L337.231 346.494L337.76 350.777H292.906L292.326 346.494ZM265.03 342.224H290.83L291.346 346.494L291.874 350.777H266.074L265.03 342.224ZM263.856 332.64H289.656L290.172 336.91L290.701 341.192H264.901L263.856 332.64ZM262.682 323.055H288.482L288.998 327.338L289.527 331.608H263.727L262.682 323.055Z" fill="#09A350"/>
<path opacity="0.5" d="M261.701 323.055L262.875 332.64L264.049 342.224L265.223 351.796H411.677L410.387 341.192L409.213 331.608L408.039 322.036L406.865 312.451H260.398L261.701 323.055ZM287.837 317.753L288.353 322.036H262.553L261.508 313.47H287.308L287.837 317.753ZM290.03 327.338L289.514 323.055H334.419L334.948 327.338L335.464 331.608H290.559L290.03 327.338ZM335.399 323.055H380.304L380.833 327.338L381.349 331.608H336.496L335.967 327.338L335.399 323.055ZM382.523 341.192H337.669L337.141 336.91L336.625 332.64H381.529L382.058 336.91L382.523 341.192ZM336.586 341.192H291.733L291.204 336.91L290.675 332.64H335.593L336.109 336.91L336.586 341.192ZM333.722 317.753L334.238 322.036H289.385L288.856 317.753L288.34 313.47H333.245L333.722 317.753ZM379.659 317.753L380.175 322.036H335.322L334.793 317.753L334.277 313.47H379.182L379.659 317.753ZM406.955 322.036H381.155L380.626 317.753L380.11 313.47H405.91L406.955 322.036ZM408.129 331.608H382.329L381.8 327.338L381.284 323.055H407.084L408.129 331.608ZM409.303 341.192H383.503L382.974 336.91L382.458 332.64H408.258L409.303 341.192ZM384.2 346.494L383.684 342.224H409.484L410.529 350.777H384.729L384.2 346.494ZM338.263 346.494L337.734 342.224H382.652L383.168 346.494L383.697 350.777H338.843L338.263 346.494ZM292.326 346.494L291.797 342.224H336.715L337.231 346.494L337.76 350.777H292.906L292.326 346.494ZM265.03 342.224H290.83L291.346 346.494L291.874 350.777H266.074L265.03 342.224ZM263.856 332.64H289.656L290.172 336.91L290.701 341.192H264.901L263.856 332.64ZM262.682 323.055H288.482L288.998 327.338L289.527 331.608H263.727L262.682 323.055Z" fill="white"/>
<path d="M270.41 370.229H274.654C274.836 370.23 275.016 370.193 275.183 370.119C275.349 370.046 275.498 369.938 275.62 369.802C275.742 369.667 275.834 369.508 275.89 369.334C275.945 369.161 275.964 368.978 275.944 368.797L275.428 364.553C275.373 364.164 275.183 363.807 274.89 363.545C274.597 363.283 274.221 363.133 273.828 363.121H269.571C269.389 363.12 269.209 363.157 269.042 363.231C268.876 363.305 268.727 363.412 268.605 363.548C268.483 363.683 268.391 363.842 268.336 364.016C268.28 364.189 268.261 364.372 268.281 364.553L268.797 368.797C268.855 369.187 269.048 369.545 269.343 369.807C269.638 370.069 270.016 370.218 270.41 370.229Z" fill="#09A350"/>
<path d="M271.349 377.971H275.606C275.788 377.972 275.968 377.935 276.135 377.861C276.301 377.788 276.45 377.68 276.572 377.545C276.694 377.409 276.786 377.25 276.842 377.077C276.898 376.903 276.916 376.72 276.896 376.539L276.38 372.295C276.323 371.905 276.129 371.548 275.834 371.286C275.54 371.024 275.162 370.874 274.768 370.863H270.523C270.341 370.862 270.161 370.9 269.995 370.973C269.828 371.047 269.679 371.155 269.557 371.29C269.435 371.425 269.343 371.585 269.288 371.758C269.232 371.931 269.213 372.114 269.233 372.295L269.749 376.539C269.804 376.928 269.995 377.286 270.287 377.548C270.58 377.81 270.956 377.96 271.349 377.971Z" fill="#09A350"/>
<path d="M272.308 385.704H276.552C276.733 385.705 276.912 385.668 277.077 385.595C277.243 385.523 277.391 385.416 277.513 385.282C277.635 385.148 277.727 384.99 277.783 384.819C277.84 384.647 277.86 384.465 277.842 384.285L277.313 380.028C277.258 379.641 277.067 379.285 276.774 379.025C276.481 378.765 276.105 378.618 275.713 378.609H271.469C271.288 378.608 271.109 378.646 270.944 378.718C270.778 378.791 270.63 378.898 270.508 379.032C270.387 379.165 270.295 379.323 270.238 379.495C270.181 379.667 270.161 379.848 270.179 380.028L270.708 384.285C270.763 384.673 270.954 385.029 271.247 385.289C271.54 385.549 271.916 385.696 272.308 385.704Z" fill="#09A350"/>
<path d="M273.258 393.45H277.503C277.685 393.451 277.865 393.413 278.031 393.34C278.198 393.266 278.347 393.158 278.469 393.023C278.591 392.888 278.682 392.728 278.738 392.555C278.794 392.382 278.813 392.199 278.793 392.018L278.277 387.774C278.221 387.382 278.029 387.024 277.734 386.761C277.438 386.499 277.059 386.35 276.664 386.342H272.42C272.238 386.341 272.058 386.378 271.891 386.452C271.725 386.525 271.576 386.633 271.454 386.768C271.332 386.904 271.24 387.063 271.184 387.236C271.128 387.41 271.11 387.593 271.13 387.774L271.646 392.018C271.703 392.408 271.897 392.765 272.191 393.027C272.486 393.289 272.864 393.439 273.258 393.45Z" fill="#09A350"/>
<path opacity="0.5" d="M271.349 377.971H275.606C275.788 377.972 275.968 377.935 276.135 377.861C276.301 377.788 276.45 377.68 276.572 377.545C276.694 377.409 276.786 377.25 276.842 377.077C276.898 376.903 276.916 376.72 276.896 376.539L276.38 372.295C276.323 371.905 276.129 371.548 275.834 371.286C275.54 371.024 275.162 370.874 274.768 370.863H270.523C270.341 370.862 270.161 370.9 269.995 370.973C269.828 371.047 269.679 371.155 269.557 371.29C269.435 371.425 269.343 371.585 269.288 371.758C269.232 371.931 269.213 372.114 269.233 372.295L269.749 376.539C269.804 376.928 269.995 377.286 270.287 377.548C270.58 377.81 270.956 377.96 271.349 377.971Z" fill="white"/>
<path opacity="0.5" d="M273.258 393.45H277.503C277.685 393.451 277.865 393.413 278.031 393.34C278.198 393.266 278.347 393.158 278.469 393.023C278.591 392.888 278.682 392.728 278.738 392.555C278.794 392.382 278.813 392.199 278.793 392.018L278.277 387.774C278.221 387.382 278.029 387.024 277.734 386.761C277.438 386.499 277.059 386.35 276.664 386.342H272.42C272.238 386.341 272.058 386.378 271.891 386.452C271.725 386.525 271.576 386.633 271.454 386.768C271.332 386.904 271.24 387.063 271.184 387.236C271.128 387.41 271.11 387.593 271.13 387.774L271.646 392.018C271.703 392.408 271.897 392.765 272.191 393.027C272.486 393.289 272.864 393.439 273.258 393.45Z" fill="white"/>
<path d="M291.9 163.516H308.67L306.09 157.208C305.252 155.221 307.019 153.338 309.65 153.338H325.982C328.562 153.338 330.716 155.26 330.226 157.208L328.678 163.516H345.448C347.943 163.557 350.337 164.512 352.175 166.2C354.013 167.888 355.167 170.192 355.42 172.675L356.71 187.394C356.783 188.067 356.712 188.748 356.502 189.392C356.292 190.035 355.947 190.627 355.491 191.127C355.035 191.627 354.477 192.025 353.856 192.293C353.234 192.561 352.562 192.694 351.885 192.683H290.571C289.133 192.656 287.755 192.102 286.698 191.128C285.64 190.153 284.976 188.825 284.831 187.394L283.541 172.675C283.412 171.509 283.534 170.328 283.897 169.213C284.261 168.097 284.858 167.072 285.649 166.205C286.44 165.338 287.407 164.65 288.485 164.187C289.563 163.723 290.727 163.494 291.9 163.516Z" fill="#09A350"/>
<path opacity="0.2" d="M328.673 163.516H308.639L307.078 159.801H329.589L328.673 163.516Z" fill="black"/>
<path d="M342.173 183.859C342.252 184.63 342.61 185.346 343.181 185.871C343.751 186.396 344.494 186.695 345.269 186.71C345.632 186.712 345.991 186.637 346.324 186.491C346.656 186.345 346.953 186.13 347.197 185.861C347.44 185.592 347.624 185.274 347.737 184.929C347.849 184.584 347.888 184.22 347.849 183.859C347.771 183.087 347.412 182.371 346.842 181.846C346.272 181.321 345.529 181.023 344.753 181.008C344.391 181.006 344.031 181.08 343.699 181.227C343.367 181.373 343.07 181.588 342.826 181.857C342.583 182.126 342.399 182.443 342.286 182.788C342.174 183.133 342.135 183.498 342.173 183.859Z" fill="#263238"/>
<path d="M293.005 183.859C293.087 184.631 293.448 185.347 294.021 185.872C294.593 186.397 295.338 186.695 296.114 186.71C296.477 186.712 296.836 186.637 297.169 186.491C297.501 186.345 297.798 186.13 298.042 185.861C298.285 185.592 298.469 185.275 298.582 184.93C298.694 184.585 298.732 184.22 298.694 183.859C298.618 183.086 298.261 182.369 297.69 181.843C297.119 181.317 296.374 181.02 295.598 181.008C295.234 181.004 294.874 181.077 294.54 181.223C294.207 181.368 293.907 181.583 293.663 181.852C293.418 182.121 293.233 182.439 293.119 182.785C293.006 183.131 292.967 183.497 293.005 183.859Z" fill="#263238"/>
<path d="M401.498 416.477L325.646 431.312C324.803 431.506 323.929 431.52 323.081 431.352C322.233 431.184 321.43 430.838 320.726 430.337C320.021 429.836 319.431 429.191 318.993 428.445C318.556 427.699 318.282 426.869 318.19 426.01L316.9 414.477C316.751 412.652 317.279 410.836 318.383 409.376C319.486 407.915 321.089 406.912 322.885 406.556L398.737 391.721C399.58 391.527 400.455 391.513 401.304 391.681C402.153 391.849 402.957 392.194 403.662 392.695C404.368 393.196 404.959 393.841 405.398 394.587C405.836 395.333 406.112 396.163 406.206 397.023L407.496 408.556C407.645 410.383 407.115 412.2 406.009 413.661C404.902 415.122 403.296 416.124 401.498 416.477ZM323.105 408.479C321.832 408.731 320.697 409.442 319.914 410.476C319.132 411.511 318.757 412.797 318.86 414.09L320.15 425.623C320.217 426.232 320.411 426.82 320.722 427.349C321.032 427.878 321.451 428.334 321.951 428.689C322.451 429.044 323.02 429.288 323.621 429.407C324.223 429.526 324.842 429.515 325.439 429.377L401.279 414.554C402.553 414.302 403.691 413.589 404.474 412.552C405.256 411.515 405.63 410.225 405.523 408.93L404.233 397.397C404.166 396.79 403.972 396.203 403.662 395.676C403.353 395.149 402.935 394.694 402.436 394.34C401.937 393.987 401.37 393.743 400.77 393.625C400.17 393.507 399.552 393.518 398.957 393.656L323.105 408.479Z" fill="#09A350"/>
<path d="M333.852 419.408L329.982 420.156L329.44 422.039L327.492 422.426L330.266 413.603L332.149 413.229L336.742 420.607L334.729 421.007L333.852 419.408ZM333.091 418.118L331.44 415.267L330.472 418.634L333.091 418.118Z" fill="#09A350"/>
<path d="M342.235 411.63C342.767 411.735 343.25 412.013 343.607 412.422C343.964 412.83 344.176 413.346 344.209 413.888C344.278 414.448 344.184 415.017 343.938 415.526C343.696 416.055 343.306 416.504 342.815 416.816C342.245 417.177 341.61 417.422 340.945 417.538L339.294 417.861L339.539 420.105L337.63 420.467L336.727 412.365L340.3 411.669C340.935 411.521 341.594 411.507 342.235 411.63ZM341.938 415.384C342.075 415.234 342.175 415.055 342.233 414.861C342.292 414.667 342.305 414.462 342.274 414.262C342.267 414.068 342.212 413.878 342.113 413.711C342.014 413.544 341.874 413.405 341.706 413.307C341.302 413.121 340.847 413.08 340.416 413.191L338.855 413.501L339.178 416.313L340.726 416.003C341.188 415.932 341.615 415.709 341.938 415.371V415.384Z" fill="#09A350"/>
<path d="M350.736 409.976C351.258 410.091 351.731 410.366 352.09 410.763C352.453 411.171 352.671 411.688 352.71 412.233C352.78 412.794 352.686 413.363 352.439 413.872C352.197 414.401 351.807 414.849 351.316 415.162C350.752 415.525 350.12 415.771 349.459 415.884L347.795 416.207L348.04 418.451L346.131 418.825L345.228 410.711L348.801 410.014C349.436 409.866 350.095 409.853 350.736 409.976ZM350.439 413.73C350.575 413.58 350.676 413.401 350.734 413.207C350.792 413.012 350.806 412.808 350.775 412.607C350.768 412.413 350.713 412.224 350.614 412.057C350.515 411.89 350.375 411.751 350.207 411.653C349.802 411.473 349.348 411.432 348.917 411.537L347.356 411.846L347.679 414.658L349.227 414.349C349.689 414.284 350.115 414.066 350.439 413.73Z" fill="#09A350"/>
<path d="M359.904 416.094L358.059 414.146H357.956L356.304 414.469L356.549 416.726L354.64 417.1L353.737 408.999L357.311 408.303C357.951 408.154 358.618 408.154 359.259 408.303C359.779 408.415 360.252 408.685 360.613 409.077C360.965 409.491 361.177 410.005 361.219 410.547C361.29 411.112 361.196 411.686 360.948 412.198C360.697 412.725 360.304 413.172 359.813 413.488L361.942 415.733L359.904 416.094ZM358.717 409.98C358.311 409.799 357.856 409.763 357.427 409.876L355.866 410.173L356.188 412.998L357.736 412.701C358.225 412.643 358.68 412.42 359.026 412.069C359.167 411.922 359.27 411.744 359.329 411.549C359.387 411.353 359.398 411.147 359.362 410.947C359.349 410.742 359.281 410.543 359.165 410.373C359.049 410.203 358.89 410.067 358.704 409.98H358.717Z" fill="#09A350"/>
<path d="M364.926 414.705C364.223 414.488 363.601 414.064 363.141 413.489C362.681 412.914 362.404 412.214 362.346 411.48C362.253 410.71 362.373 409.929 362.695 409.222C363.015 408.504 363.512 407.878 364.139 407.404C364.804 406.901 365.577 406.561 366.397 406.41C367.179 406.244 367.99 406.275 368.758 406.5C369.453 406.716 370.071 407.129 370.538 407.687C371.013 408.267 371.301 408.978 371.363 409.725C371.457 410.496 371.337 411.277 371.015 411.983C370.69 412.698 370.194 413.323 369.57 413.802C368.909 414.302 368.14 414.641 367.326 414.795C366.531 414.966 365.706 414.935 364.926 414.705ZM368.409 412.602C368.768 412.311 369.048 411.934 369.222 411.506C369.404 411.061 369.471 410.577 369.415 410.1C369.372 409.633 369.203 409.187 368.925 408.81C368.666 408.469 368.311 408.213 367.906 408.074C367.466 407.926 366.993 407.899 366.539 407.997C366.066 408.085 365.623 408.289 365.249 408.59C364.882 408.877 364.598 409.255 364.423 409.687C364.246 410.133 364.183 410.616 364.243 411.093C364.282 411.558 364.447 412.004 364.72 412.383C364.984 412.725 365.343 412.981 365.752 413.118C366.168 413.256 366.613 413.283 367.042 413.196C367.542 413.121 368.013 412.916 368.409 412.602Z" fill="#09A350"/>
<path d="M379.981 403.896L377.323 412.694L375.44 413.068L370.977 405.651L373.041 405.251L376.188 410.553L378.084 404.271L379.981 403.896Z" fill="#09A350"/>
<path d="M387.781 409.111L387.949 410.621L381.563 411.911L380.66 403.797L386.891 402.584L387.059 404.093L382.724 404.932L382.918 406.699L386.788 405.951L386.955 407.409L383.085 408.157L383.292 410.027L387.781 409.111Z" fill="#09A350"/>
<path d="M388.573 402.222L392.314 401.486C393.111 401.294 393.943 401.294 394.739 401.486C395.428 401.666 396.045 402.053 396.507 402.596C396.967 403.172 397.246 403.873 397.307 404.608C397.408 405.373 397.292 406.151 396.971 406.853C396.655 407.549 396.156 408.147 395.526 408.581C394.84 409.075 394.05 409.406 393.217 409.549L389.476 410.284L388.573 402.222ZM392.946 408.065C393.686 407.955 394.36 407.579 394.843 407.008C395.061 406.729 395.222 406.41 395.315 406.069C395.408 405.728 395.432 405.371 395.384 405.021C395.365 404.686 395.271 404.361 395.107 404.068C394.944 403.775 394.717 403.523 394.443 403.331C394.137 403.15 393.798 403.032 393.446 402.983C393.094 402.935 392.735 402.956 392.392 403.047L390.65 403.383L391.205 408.414L392.946 408.065Z" fill="#09A350"/>
</svg>
