<svg width="500" height="500" viewBox="0 0 500 500" fill="none" xmlns="http://www.w3.org/2000/svg">
<path d="M291.71 474.089C248.672 474.943 196.764 462.415 168.807 426.925C126.559 373.304 74.6611 385.457 36.0611 274.732C30.0411 257.469 26.2111 240.826 24.3111 224.896C23.2881 216.333 22.8341 207.969 22.9051 199.833C23.4721 125.991 67.0491 70.326 125.31 44.06C201.932 9.50103 260.715 49.229 296.524 75.997C332.333 102.766 433.652 111.99 472.454 220.542C478.363 237.095 482.585 254.273 484.559 271.757C489.081 311.662 482.019 356.848 458.912 390.632C457.175 393.169 455.355 395.654 453.462 398.093C416.408 445.734 350.385 472.928 291.71 474.089Z" fill="#92E3A9"/>
<path opacity="0.8" d="M291.71 474.089C248.672 474.943 196.764 462.415 168.807 426.925C126.559 373.304 74.6611 385.457 36.0611 274.732C30.0411 257.469 26.2111 240.826 24.3111 224.896C23.2881 216.333 22.8341 207.969 22.9051 199.833C23.4721 125.991 67.0491 70.326 125.31 44.06C201.932 9.50103 260.715 49.229 296.524 75.997C332.333 102.766 433.652 111.99 472.454 220.542C478.363 237.095 482.585 254.273 484.559 271.757C489.081 311.662 482.019 356.848 458.912 390.632C457.175 393.169 455.355 395.654 453.462 398.093C416.408 445.734 350.385 472.928 291.71 474.089Z" fill="white"/>
<path d="M386.434 56.0391C381.175 59.5921 377.717 65.6091 377.717 72.4331C377.717 83.3521 386.569 92.2031 397.487 92.2031C400.887 92.2031 404.087 91.3451 406.881 89.8331" stroke="#263238" stroke-miterlimit="10" stroke-linecap="round" stroke-linejoin="round"/>
<path d="M411.009 86.8571C414.855 83.2501 417.258 78.1221 417.258 72.4331C417.258 61.5141 408.406 52.6631 397.488 52.6631C394.479 52.6631 391.627 53.3351 389.074 54.5381" stroke="#263238" stroke-miterlimit="10" stroke-linecap="round" stroke-linejoin="round"/>
<path d="M397.488 98.2871V111.974" stroke="#263238" stroke-miterlimit="10" stroke-linecap="round" stroke-linejoin="round"/>
<path d="M397.488 34.9761V48.6631" stroke="#263238" stroke-miterlimit="10" stroke-linecap="round" stroke-linejoin="round"/>
<path d="M373.745 97.217L370.265 100.698" stroke="#263238" stroke-miterlimit="10" stroke-linecap="round" stroke-linejoin="round"/>
<path d="M379.943 91.02L375.787 95.175" stroke="#263238" stroke-miterlimit="10" stroke-linecap="round" stroke-linejoin="round"/>
<path d="M424.711 46.252L415.033 55.93" stroke="#263238" stroke-miterlimit="10" stroke-linecap="round" stroke-linejoin="round"/>
<path d="M422.3 73.4751H435.987" stroke="#263238" stroke-miterlimit="10" stroke-linecap="round" stroke-linejoin="round"/>
<path d="M358.989 73.4751H372.676" stroke="#263238" stroke-miterlimit="10" stroke-linecap="round" stroke-linejoin="round"/>
<path d="M422.139 98.126L424.711 100.698" stroke="#263238" stroke-miterlimit="10" stroke-linecap="round" stroke-linejoin="round"/>
<path d="M415.033 91.02L420.948 96.935" stroke="#263238" stroke-miterlimit="10" stroke-linecap="round" stroke-linejoin="round"/>
<path d="M374.661 50.6479L379.943 55.93" stroke="#263238" stroke-miterlimit="10" stroke-linecap="round" stroke-linejoin="round"/>
<path d="M370.265 46.252L372.789 48.776" stroke="#263238" stroke-miterlimit="10" stroke-linecap="round" stroke-linejoin="round"/>
<g opacity="0.3">
<path d="M319.013 84.851C318.991 84.66 318.978 84.457 318.975 84.241C318.918 79.593 317.194 76.376 312.984 73.932C305.095 69.351 300.515 73.932 298.224 78.004C295.934 82.076 292.371 75.459 286.773 76.223C281.175 76.986 281.429 83.094 279.902 86.402C278.375 89.71 275.067 85.384 270.741 86.147C266.415 86.911 266.16 89.455 265.397 90.473C264.634 91.491 257.763 88.946 253.946 90.982C250.129 93.018 248.093 96.835 248.093 96.835H331.561C331.561 96.835 332.579 90.729 329.272 88.438C326.305 86.382 319.583 89.669 319.013 84.851Z" stroke="black" stroke-miterlimit="10" stroke-linecap="round" stroke-linejoin="round"/>
<path d="M280.27 92.4661C279.973 92.5491 279.709 92.6721 279.497 92.8571C278.421 93.7991 278.421 94.4711 278.421 94.4711" stroke="black" stroke-miterlimit="10" stroke-linecap="round" stroke-linejoin="round"/>
<path d="M298.705 84.563C297.964 86.186 297.308 87.97 295.776 88.686C293.588 89.708 291.543 87.399 289.525 86.877C288.232 86.543 287.216 86.837 286.324 87.856C285.415 88.894 285.401 91.25 284.205 91.914C283.624 92.237 282.764 92.25 281.907 92.28" stroke="black" stroke-miterlimit="10" stroke-linecap="round" stroke-linejoin="round"/>
<path d="M323.549 92.0799C323.489 91.9309 323.425 91.7859 323.355 91.6469C321.752 88.4389 317.958 91.0169 315.625 90.1179C313.552 89.3189 314.232 86.0439 313.953 84.3309C313.414 81.0199 309.252 78.4909 305.999 78.9999C303.599 79.3749 301.391 80.7109 299.85 82.5749" stroke="black" stroke-miterlimit="10" stroke-linecap="round" stroke-linejoin="round"/>
<path d="M324.207 95.019C324.153 94.51 324.067 93.918 323.93 93.324" stroke="black" stroke-miterlimit="10" stroke-linecap="round" stroke-linejoin="round"/>
</g>
<g opacity="0.3">
<path d="M165.519 123.564C165.483 123.259 165.462 122.933 165.458 122.586C165.366 115.136 162.602 109.98 155.854 106.062C143.21 98.72 135.867 106.062 132.196 112.588C128.525 119.114 122.814 108.509 113.841 109.733C104.867 110.957 105.275 120.746 102.828 126.049C100.38 131.352 95.0778 124.417 88.1438 125.641C81.2098 126.865 80.8018 130.944 79.5778 132.575C78.3538 134.207 67.3408 130.128 61.2228 133.391C55.1048 136.654 51.8408 142.772 51.8408 142.772H185.629C185.629 142.772 187.26 132.986 181.96 129.313C177.208 126.019 166.433 131.286 165.519 123.564Z" stroke="black" stroke-miterlimit="10" stroke-linecap="round" stroke-linejoin="round"/>
<path d="M103.42 135.77C102.944 135.903 102.521 136.1 102.181 136.397C100.456 137.906 100.456 138.985 100.456 138.985" stroke="black" stroke-miterlimit="10" stroke-linecap="round" stroke-linejoin="round"/>
<path d="M132.969 123.103C131.781 125.705 130.73 128.564 128.274 129.711C124.768 131.349 121.489 127.647 118.255 126.812C116.183 126.277 114.554 126.747 113.124 128.382C111.668 130.047 111.645 133.822 109.728 134.887C108.796 135.405 107.417 135.425 106.045 135.474" stroke="black" stroke-miterlimit="10" stroke-linecap="round" stroke-linejoin="round"/>
<path d="M172.79 135.151C172.695 134.912 172.591 134.68 172.48 134.457C169.91 129.316 163.828 133.447 160.09 132.007C156.767 130.727 157.858 125.476 157.411 122.732C156.547 117.424 149.876 113.372 144.662 114.187C140.815 114.788 137.275 116.929 134.806 119.918" stroke="black" stroke-miterlimit="10" stroke-linecap="round" stroke-linejoin="round"/>
<path d="M173.845 139.862C173.759 139.046 173.621 138.097 173.401 137.146" stroke="black" stroke-miterlimit="10" stroke-linecap="round" stroke-linejoin="round"/>
</g>
<path d="M43.9292 290.65C75.8242 259.935 149.909 189.425 157.854 189.425C168.012 189.425 235.423 238.368 235.423 238.368C235.423 238.368 337.002 147.87 349.007 148.794C361.012 149.717 476.443 276.23 476.443 276.23" stroke="#B2B2B2" stroke-miterlimit="10" stroke-linecap="round" stroke-linejoin="round"/>
<path d="M289.947 192.671L329.181 176.977L336.374 197.902L344.221 192.671L350.106 199.863L358.606 187.439L390.647 225.365L391.301 195.94L400.455 201.825L401.109 195.94" stroke="#B2B2B2" stroke-miterlimit="10" stroke-linecap="round" stroke-linejoin="round"/>
<path d="M120.589 219.48L135.628 214.903L136.282 221.442L150.668 216.865L148.052 233.866L173.554 217.518L193.171 232.558L194.479 224.057L200.364 228.635L206.903 218.172" stroke="#B2B2B2" stroke-miterlimit="10" stroke-linecap="round" stroke-linejoin="round"/>
<path d="M222.928 265.219C222.91 264.81 222.63 264.507 222.326 264.572L205.159 268.248C204.554 268.378 204.31 267.247 204.874 266.928L222.165 257.166C222.371 257.05 222.498 256.775 222.481 256.478C221.764 244.005 220.652 230.326 219.201 216.37C219.16 215.977 218.879 215.708 218.587 215.783L203.396 219.675C202.843 219.817 202.54 218.847 203.005 218.424L217.662 205.109C217.828 204.958 217.914 204.693 217.883 204.429C217.096 197.691 216.235 190.952 215.306 184.312L214.11 177.674C214.036 177.261 213.702 177.034 213.407 177.196L204.564 182.071C204.039 182.36 203.597 181.478 203.999 180.943L212.801 169.216C212.926 169.05 212.979 168.808 212.942 168.578C211.18 157.657 209.236 147.267 207.139 137.916C207.041 137.48 206.659 137.291 206.369 137.529L194.975 146.871C194.493 147.266 193.951 146.494 194.28 145.88L204.304 127.182C204.403 126.998 204.427 126.757 204.371 126.543C202.577 119.783 200.692 113.84 198.732 108.986C198.604 108.668 198.313 108.541 198.065 108.686L190.16 113.32C189.753 113.559 189.324 113.05 189.455 112.483L191.937 102.512C191.978 102.333 192.156 101.601 192.353 100.963L193 98.3941C191.165 96.1381 189.286 94.9031 187.37 94.9031C185.322 94.9031 183.314 96.2981 181.359 98.8621L184.306 112.485C184.437 113.051 184.008 113.56 183.601 113.322L176.489 109.153C176.24 109.007 175.948 109.136 175.82 109.457C173.81 114.52 171.879 120.722 170.045 127.775C169.99 127.988 170.015 128.225 170.113 128.408L179.481 145.881C179.81 146.495 179.269 147.268 178.786 146.872L168.219 138.208C167.928 137.969 167.545 138.159 167.448 138.596C165.34 148.078 163.388 158.604 161.623 169.654C161.586 169.884 161.639 170.124 161.764 170.291L169.76 180.945C170.161 181.48 169.719 182.362 169.194 182.073L161.038 177.576C160.735 177.409 160.392 177.651 160.328 178.08C159.012 186.974 157.818 196.111 156.761 205.236C156.73 205.5 156.816 205.764 156.982 205.915L170.754 218.426C171.22 218.849 170.917 219.818 170.363 219.677L156.125 216.029C155.832 215.954 155.552 216.223 155.511 216.616C154.052 230.688 152.937 244.472 152.226 257.016C152.209 257.313 152.337 257.587 152.542 257.703L168.885 266.929C169.45 267.248 169.206 268.378 168.6 268.249L152.403 264.781C152.099 264.716 151.819 265.02 151.801 265.429C151.484 272.643 151.318 279.325 151.318 285.259C151.318 289.024 151.387 292.636 151.516 296.107C151.527 296.397 151.673 296.645 151.881 296.731L168.96 303.87C169.508 304.099 169.412 305.169 168.839 305.22L152.685 306.655C152.389 306.681 152.168 307.038 152.202 307.431C153.203 319.114 155.023 328.855 157.496 336.835C157.6 337.17 157.88 337.337 158.138 337.226L168.055 332.941C168.565 332.72 168.961 333.55 168.594 334.072L160.93 344.965C160.77 345.192 160.743 345.538 160.864 345.804C167.451 360.304 176.887 366.576 187.368 366.576C197.642 366.576 206.91 360.546 213.477 346.65C213.603 346.383 213.578 346.031 213.416 345.801L205.163 334.073C204.796 333.551 205.192 332.721 205.702 332.942L216.482 337.6C216.739 337.711 217.019 337.546 217.123 337.213C219.65 329.183 221.508 319.348 222.527 307.52C222.561 307.127 222.34 306.77 222.044 306.744L204.919 305.223C204.346 305.172 204.25 304.102 204.798 303.873L222.658 296.408C222.828 296.337 222.958 296.155 223.004 295.926L223.258 294.658C223.268 294.608 223.274 294.558 223.275 294.506C223.368 291.528 223.419 288.451 223.419 285.261C223.42 279.266 223.251 272.513 222.928 265.219Z" fill="#92E3A9"/>
<path opacity="0.4" d="M222.928 265.219C222.91 264.81 222.63 264.507 222.326 264.572L205.159 268.248C204.554 268.378 204.31 267.247 204.874 266.928L222.165 257.166C222.371 257.05 222.498 256.775 222.481 256.478C221.764 244.005 220.652 230.326 219.201 216.37C219.16 215.977 218.879 215.708 218.587 215.783L203.396 219.675C202.843 219.817 202.54 218.847 203.005 218.424L217.662 205.109C217.828 204.958 217.914 204.693 217.883 204.429C217.096 197.691 216.235 190.952 215.306 184.312L214.11 177.674C214.036 177.261 213.702 177.034 213.407 177.196L204.564 182.071C204.039 182.36 203.597 181.478 203.999 180.943L212.801 169.216C212.926 169.05 212.979 168.808 212.942 168.578C211.18 157.657 209.236 147.267 207.139 137.916C207.041 137.48 206.659 137.291 206.369 137.529L194.975 146.871C194.493 147.266 193.951 146.494 194.28 145.88L204.304 127.182C204.403 126.998 204.427 126.757 204.371 126.543C202.577 119.783 200.692 113.84 198.732 108.986C198.604 108.668 198.313 108.541 198.065 108.686L190.16 113.32C189.753 113.559 189.324 113.05 189.455 112.483L191.937 102.512C191.978 102.333 192.156 101.601 192.353 100.963L193 98.3941C191.165 96.1381 189.286 94.9031 187.37 94.9031C185.322 94.9031 183.314 96.2981 181.359 98.8621L184.306 112.485C184.437 113.051 184.008 113.56 183.601 113.322L176.489 109.153C176.24 109.007 175.948 109.136 175.82 109.457C173.81 114.52 171.879 120.722 170.045 127.775C169.99 127.988 170.015 128.225 170.113 128.408L179.481 145.881C179.81 146.495 179.269 147.268 178.786 146.872L168.219 138.208C167.928 137.969 167.545 138.159 167.448 138.596C165.34 148.078 163.388 158.604 161.623 169.654C161.586 169.884 161.639 170.124 161.764 170.291L169.76 180.945C170.161 181.48 169.719 182.362 169.194 182.073L161.038 177.576C160.735 177.409 160.392 177.651 160.328 178.08C159.012 186.974 157.818 196.111 156.761 205.236C156.73 205.5 156.816 205.764 156.982 205.915L170.754 218.426C171.22 218.849 170.917 219.818 170.363 219.677L156.125 216.029C155.832 215.954 155.552 216.223 155.511 216.616C154.052 230.688 152.937 244.472 152.226 257.016C152.209 257.313 152.337 257.587 152.542 257.703L168.885 266.929C169.45 267.248 169.206 268.378 168.6 268.249L152.403 264.781C152.099 264.716 151.819 265.02 151.801 265.429C151.484 272.643 151.318 279.325 151.318 285.259C151.318 289.024 151.387 292.636 151.516 296.107C151.527 296.397 151.673 296.645 151.881 296.731L168.96 303.87C169.508 304.099 169.412 305.169 168.839 305.22L152.685 306.655C152.389 306.681 152.168 307.038 152.202 307.431C153.203 319.114 155.023 328.855 157.496 336.835C157.6 337.17 157.88 337.337 158.138 337.226L168.055 332.941C168.565 332.72 168.961 333.55 168.594 334.072L160.93 344.965C160.77 345.192 160.743 345.538 160.864 345.804C167.451 360.304 176.887 366.576 187.368 366.576C197.642 366.576 206.91 360.546 213.477 346.65C213.603 346.383 213.578 346.031 213.416 345.801L205.163 334.073C204.796 333.551 205.192 332.721 205.702 332.942L216.482 337.6C216.739 337.711 217.019 337.546 217.123 337.213C219.65 329.183 221.508 319.348 222.527 307.52C222.561 307.127 222.34 306.77 222.044 306.744L204.919 305.223C204.346 305.172 204.25 304.102 204.798 303.873L222.658 296.408C222.828 296.337 222.958 296.155 223.004 295.926L223.258 294.658C223.268 294.608 223.274 294.558 223.275 294.506C223.368 291.528 223.419 288.451 223.419 285.261C223.42 279.266 223.251 272.513 222.928 265.219Z" fill="white"/>
<path d="M188.797 314.453L187.696 251.778L206.963 235.814L187.554 243.699L187.194 223.209L187.032 223.545L187.148 220.544L186.63 191.089L202.582 176.363L186.937 185.75L186.591 188.867L185.95 152.371L185.6 159.565L183.912 214.11L183.183 212.66L170.667 204.524L183.813 217.303L181.673 286.458L161.906 280.246L181.449 293.682L179.979 341.183L172.544 339.696L179.746 348.699L178.944 374.594L177.96 428.793H190.806L188.897 320.133L204.46 316.542L188.797 314.453Z" fill="#263238"/>
<path opacity="0.5" d="M188.797 314.453L187.696 251.778L206.963 235.814L187.554 243.699L187.194 223.209L187.032 223.545L187.148 220.544L186.63 191.089L202.582 176.363L186.937 185.75L186.591 188.867L185.95 152.371L185.6 159.565L183.912 214.11L183.183 212.66L170.667 204.524L183.813 217.303L181.673 286.458L161.906 280.246L181.449 293.682L179.979 341.183L172.544 339.696L179.746 348.699L178.944 374.594L177.96 428.793H190.806L188.897 320.133L204.46 316.542L188.797 314.453Z" fill="white"/>
<path d="M115.01 292.444C114.995 292.103 114.761 291.85 114.508 291.904L100.198 294.968C99.6929 295.076 99.4899 294.134 99.9609 293.868L114.374 285.731C114.545 285.634 114.652 285.405 114.637 285.158C114.039 274.761 113.112 263.359 111.903 251.725C111.869 251.398 111.635 251.173 111.391 251.236L98.7279 254.481C98.2669 254.599 98.0139 253.791 98.4019 253.439L110.62 242.34C110.758 242.214 110.83 241.994 110.805 241.773C110.149 236.157 109.431 230.539 108.657 225.004L107.66 219.471C107.598 219.126 107.32 218.937 107.074 219.073L99.7029 223.137C99.2659 223.378 98.8969 222.643 99.2319 222.196L106.569 212.421C106.673 212.282 106.717 212.081 106.686 211.889C105.218 202.786 103.596 194.125 101.848 186.33C101.766 185.967 101.448 185.809 101.206 186.008L91.7079 193.795C91.3059 194.125 90.8549 193.481 91.1289 192.969L99.4849 177.383C99.5669 177.229 99.5879 177.029 99.5409 176.85C98.0459 171.215 96.4739 166.261 94.8409 162.215C94.7339 161.95 94.4919 161.844 94.2849 161.965L87.6949 165.828C87.3559 166.027 86.9979 165.603 87.1069 165.131L89.1759 156.819C89.2109 156.669 89.3589 156.06 89.5229 155.527L90.0619 153.384C88.5329 151.503 86.9659 150.474 85.3689 150.474C83.6619 150.474 81.9879 151.637 80.3589 153.774L82.8159 165.13C82.9249 165.602 82.5669 166.026 82.2279 165.827L76.2999 162.352C76.0919 162.23 75.8489 162.338 75.7419 162.605C74.0659 166.825 72.4569 171.995 70.9279 177.874C70.8819 178.051 70.9029 178.249 70.9849 178.402L78.7939 192.967C79.0679 193.479 78.6169 194.123 78.2149 193.793L69.4059 186.571C69.1629 186.372 68.8439 186.53 68.7629 186.894C67.0059 194.798 65.3789 203.572 63.9079 212.783C63.8769 212.975 63.9219 213.175 64.0259 213.314L70.6909 222.194C71.0259 222.64 70.6569 223.376 70.2189 223.135L63.4199 219.387C63.1669 219.248 62.8809 219.449 62.8279 219.807C61.7309 227.22 60.7359 234.837 59.8549 242.443C59.8289 242.663 59.9009 242.884 60.0399 243.009L71.5199 253.438C71.9079 253.791 71.6559 254.599 71.1939 254.48L59.3249 251.439C59.0809 251.376 58.8469 251.601 58.8129 251.929C57.5969 263.659 56.6679 275.148 56.0739 285.605C56.0599 285.852 56.1659 286.081 56.3379 286.178L69.9609 293.869C70.4319 294.135 70.2279 295.077 69.7239 294.969L56.2229 292.078C55.9699 292.024 55.7359 292.277 55.7209 292.618C55.4569 298.632 55.3179 304.201 55.3179 309.147C55.3179 312.285 55.3749 315.296 55.4829 318.189C55.4919 318.431 55.6139 318.637 55.7869 318.71L70.0239 324.661C70.4809 324.852 70.4009 325.744 69.9229 325.786L56.4579 326.982C56.2109 327.004 56.0269 327.301 56.0549 327.629C56.8889 337.367 58.4059 345.487 60.4679 352.139C60.5539 352.418 60.7879 352.557 61.0039 352.465L69.2709 348.893C69.6969 348.709 70.0259 349.401 69.7199 349.836L63.3309 358.916C63.1979 359.105 63.1749 359.394 63.2759 359.616C68.7669 371.703 76.6319 376.93 85.3689 376.93C93.9329 376.93 101.659 371.904 107.132 360.32C107.237 360.097 107.216 359.804 107.081 359.612L100.202 349.836C99.8959 349.401 100.226 348.709 100.651 348.893L109.637 352.776C109.852 352.869 110.085 352.731 110.172 352.453C112.278 345.76 113.827 337.561 114.676 327.702C114.704 327.374 114.52 327.077 114.273 327.055L99.9979 325.787C99.5199 325.745 99.4399 324.853 99.8969 324.662L114.784 318.439C114.925 318.38 115.034 318.228 115.073 318.038L115.285 316.981C115.293 316.939 115.298 316.897 115.299 316.854C115.377 314.371 115.419 311.807 115.419 309.148C115.42 304.153 115.279 298.523 115.01 292.444Z" fill="#92E3A9"/>
<path opacity="0.4" d="M115.01 292.444C114.995 292.103 114.761 291.85 114.508 291.904L100.198 294.968C99.6929 295.076 99.4899 294.134 99.9609 293.868L114.374 285.731C114.545 285.634 114.652 285.405 114.637 285.158C114.039 274.761 113.112 263.359 111.903 251.725C111.869 251.398 111.635 251.173 111.391 251.236L98.7279 254.481C98.2669 254.599 98.0139 253.791 98.4019 253.439L110.62 242.34C110.758 242.214 110.83 241.994 110.805 241.773C110.149 236.157 109.431 230.539 108.657 225.004L107.66 219.471C107.598 219.126 107.32 218.937 107.074 219.073L99.7029 223.137C99.2659 223.378 98.8969 222.643 99.2319 222.196L106.569 212.421C106.673 212.282 106.717 212.081 106.686 211.889C105.218 202.786 103.596 194.125 101.848 186.33C101.766 185.967 101.448 185.809 101.206 186.008L91.7079 193.795C91.3059 194.125 90.8549 193.481 91.1289 192.969L99.4849 177.383C99.5669 177.229 99.5879 177.029 99.5409 176.85C98.0459 171.215 96.4739 166.261 94.8409 162.215C94.7339 161.95 94.4919 161.844 94.2849 161.965L87.6949 165.828C87.3559 166.027 86.9979 165.603 87.1069 165.131L89.1759 156.819C89.2109 156.669 89.3589 156.06 89.5229 155.527L90.0619 153.384C88.5329 151.503 86.9659 150.474 85.3689 150.474C83.6619 150.474 81.9879 151.637 80.3589 153.774L82.8159 165.13C82.9249 165.602 82.5669 166.026 82.2279 165.827L76.2999 162.352C76.0919 162.23 75.8489 162.338 75.7419 162.605C74.0659 166.825 72.4569 171.995 70.9279 177.874C70.8819 178.051 70.9029 178.249 70.9849 178.402L78.7939 192.967C79.0679 193.479 78.6169 194.123 78.2149 193.793L69.4059 186.571C69.1629 186.372 68.8439 186.53 68.7629 186.894C67.0059 194.798 65.3789 203.572 63.9079 212.783C63.8769 212.975 63.9219 213.175 64.0259 213.314L70.6909 222.194C71.0259 222.64 70.6569 223.376 70.2189 223.135L63.4199 219.387C63.1669 219.248 62.8809 219.449 62.8279 219.807C61.7309 227.22 60.7359 234.837 59.8549 242.443C59.8289 242.663 59.9009 242.884 60.0399 243.009L71.5199 253.438C71.9079 253.791 71.6559 254.599 71.1939 254.48L59.3249 251.439C59.0809 251.376 58.8469 251.601 58.8129 251.929C57.5969 263.659 56.6679 275.148 56.0739 285.605C56.0599 285.852 56.1659 286.081 56.3379 286.178L69.9609 293.869C70.4319 294.135 70.2279 295.077 69.7239 294.969L56.2229 292.078C55.9699 292.024 55.7359 292.277 55.7209 292.618C55.4569 298.632 55.3179 304.201 55.3179 309.147C55.3179 312.285 55.3749 315.296 55.4829 318.189C55.4919 318.431 55.6139 318.637 55.7869 318.71L70.0239 324.661C70.4809 324.852 70.4009 325.744 69.9229 325.786L56.4579 326.982C56.2109 327.004 56.0269 327.301 56.0549 327.629C56.8889 337.367 58.4059 345.487 60.4679 352.139C60.5539 352.418 60.7879 352.557 61.0039 352.465L69.2709 348.893C69.6969 348.709 70.0259 349.401 69.7199 349.836L63.3309 358.916C63.1979 359.105 63.1749 359.394 63.2759 359.616C68.7669 371.703 76.6319 376.93 85.3689 376.93C93.9329 376.93 101.659 371.904 107.132 360.32C107.237 360.097 107.216 359.804 107.081 359.612L100.202 349.836C99.8959 349.401 100.226 348.709 100.651 348.893L109.637 352.776C109.852 352.869 110.085 352.731 110.172 352.453C112.278 345.76 113.827 337.561 114.676 327.702C114.704 327.374 114.52 327.077 114.273 327.055L99.9979 325.787C99.5199 325.745 99.4399 324.853 99.8969 324.662L114.784 318.439C114.925 318.38 115.034 318.228 115.073 318.038L115.285 316.981C115.293 316.939 115.298 316.897 115.299 316.854C115.377 314.371 115.419 311.807 115.419 309.148C115.42 304.153 115.279 298.523 115.01 292.444Z" fill="white"/>
<path d="M86.56 333.483L85.642 281.239L101.702 267.933L85.524 274.505L85.224 257.426L85.088 257.705L85.185 255.204L84.753 230.651L98.05 218.377L85.009 226.201L84.721 228.799L84.186 198.377L83.895 204.374L82.487 249.841L81.88 248.632L71.447 241.851L82.405 252.502L80.621 310.148L64.144 304.969L80.434 316.169L79.209 355.764L73.012 354.525L79.015 362.029L78.347 383.615L77.526 428.793H88.234L86.643 338.218L99.615 335.224L86.56 333.483Z" fill="#263238"/>
<path opacity="0.5" d="M86.56 333.483L85.642 281.239L101.702 267.933L85.524 274.505L85.224 257.426L85.088 257.705L85.185 255.204L84.753 230.651L98.05 218.377L85.009 226.201L84.721 228.799L84.186 198.377L83.895 204.374L82.487 249.841L81.88 248.632L71.447 241.851L82.405 252.502L80.621 310.148L64.144 304.969L80.434 316.169L79.209 355.764L73.012 354.525L79.015 362.029L78.347 383.615L77.526 428.793H88.234L86.643 338.218L99.615 335.224L86.56 333.483Z" fill="white"/>
<path d="M459.33 312.27C459.317 311.979 459.118 311.762 458.901 311.809L446.672 314.428C446.241 314.52 446.067 313.715 446.469 313.488L458.786 306.534C458.932 306.451 459.023 306.255 459.011 306.044C458.5 297.159 457.708 287.414 456.674 277.473C456.645 277.193 456.445 277.002 456.237 277.055L445.415 279.828C445.021 279.929 444.805 279.238 445.137 278.937L455.578 269.452C455.696 269.345 455.758 269.156 455.736 268.968C455.176 264.168 454.562 259.367 453.9 254.637L453.048 249.909C452.995 249.614 452.757 249.453 452.547 249.569L446.248 253.042C445.874 253.248 445.559 252.619 445.845 252.238L452.115 243.884C452.204 243.766 452.242 243.594 452.215 243.43C450.96 235.65 449.575 228.249 448.081 221.588C448.011 221.277 447.739 221.143 447.532 221.313L439.415 227.968C439.072 228.25 438.686 227.699 438.92 227.262L446.061 213.942C446.131 213.811 446.149 213.639 446.109 213.487C444.831 208.671 443.488 204.438 442.092 200.98C442.001 200.753 441.794 200.663 441.617 200.766L435.985 204.067C435.695 204.237 435.389 203.874 435.482 203.471L437.25 196.368C437.28 196.24 437.406 195.719 437.547 195.264L438.008 193.433C436.701 191.826 435.362 190.946 433.997 190.946C432.538 190.946 431.108 191.94 429.715 193.766L431.815 203.471C431.908 203.874 431.602 204.237 431.313 204.067L426.247 201.097C426.069 200.993 425.861 201.085 425.771 201.314C424.339 204.92 422.963 209.339 421.657 214.363C421.618 214.514 421.636 214.684 421.706 214.814L428.379 227.261C428.613 227.698 428.228 228.249 427.884 227.967L420.356 221.795C420.149 221.625 419.876 221.76 419.807 222.072C418.305 228.827 416.915 236.325 415.658 244.196C415.632 244.36 415.67 244.531 415.758 244.649L421.454 252.238C421.74 252.619 421.425 253.248 421.051 253.042L415.241 249.839C415.025 249.72 414.781 249.892 414.735 250.198C413.798 256.533 412.947 263.042 412.194 269.542C412.172 269.73 412.234 269.919 412.352 270.026L422.163 278.938C422.495 279.239 422.279 279.93 421.885 279.829L411.742 277.23C411.534 277.177 411.334 277.368 411.305 277.648C410.265 287.672 409.472 297.491 408.965 306.427C408.953 306.638 409.044 306.834 409.19 306.916L420.832 313.488C421.234 313.715 421.06 314.521 420.629 314.428L409.091 311.957C408.875 311.911 408.675 312.127 408.662 312.418C408.436 317.557 408.318 322.317 408.318 326.544C408.318 329.226 408.367 331.799 408.459 334.272C408.467 334.479 408.571 334.655 408.719 334.717L420.886 339.803C421.277 339.966 421.208 340.728 420.8 340.765L409.293 341.787C409.082 341.806 408.925 342.06 408.949 342.34C409.662 350.662 410.958 357.602 412.72 363.286C412.794 363.524 412.994 363.644 413.178 363.564L420.243 360.511C420.607 360.354 420.888 360.945 420.627 361.317L415.167 369.076C415.053 369.238 415.034 369.484 415.12 369.674C419.812 380.004 426.534 384.471 434 384.471C441.319 384.471 447.921 380.175 452.599 370.277C452.689 370.087 452.671 369.836 452.555 369.672L446.676 361.317C446.415 360.945 446.696 360.354 447.06 360.511L454.739 363.829C454.922 363.908 455.121 363.79 455.196 363.553C456.996 357.833 458.32 350.827 459.045 342.401C459.069 342.121 458.912 341.867 458.701 341.848L446.502 340.764C446.094 340.728 446.025 339.966 446.416 339.802L459.139 334.484C459.26 334.433 459.353 334.304 459.386 334.141L459.567 333.238C459.574 333.202 459.578 333.166 459.579 333.13C459.646 331.008 459.682 328.817 459.682 326.544C459.681 322.276 459.56 317.466 459.33 312.27Z" fill="#92E3A9"/>
<path opacity="0.4" d="M459.33 312.27C459.317 311.979 459.118 311.762 458.901 311.809L446.672 314.428C446.241 314.52 446.067 313.715 446.469 313.488L458.786 306.534C458.932 306.451 459.023 306.255 459.011 306.044C458.5 297.159 457.708 287.414 456.674 277.473C456.645 277.193 456.445 277.002 456.237 277.055L445.415 279.828C445.021 279.929 444.805 279.238 445.137 278.937L455.578 269.452C455.696 269.345 455.758 269.156 455.736 268.968C455.176 264.168 454.562 259.367 453.9 254.637L453.048 249.909C452.995 249.614 452.757 249.453 452.547 249.569L446.248 253.042C445.874 253.248 445.559 252.619 445.845 252.238L452.115 243.884C452.204 243.766 452.242 243.594 452.215 243.43C450.96 235.65 449.575 228.249 448.081 221.588C448.011 221.277 447.739 221.143 447.532 221.313L439.415 227.968C439.072 228.25 438.686 227.699 438.92 227.262L446.061 213.942C446.131 213.811 446.149 213.639 446.109 213.487C444.831 208.671 443.488 204.438 442.092 200.98C442.001 200.753 441.794 200.663 441.617 200.766L435.985 204.067C435.695 204.237 435.389 203.874 435.482 203.471L437.25 196.368C437.28 196.24 437.406 195.719 437.547 195.264L438.008 193.433C436.701 191.826 435.362 190.946 433.997 190.946C432.538 190.946 431.108 191.94 429.715 193.766L431.815 203.471C431.908 203.874 431.602 204.237 431.313 204.067L426.247 201.097C426.069 200.993 425.861 201.085 425.771 201.314C424.339 204.92 422.963 209.339 421.657 214.363C421.618 214.514 421.636 214.684 421.706 214.814L428.379 227.261C428.613 227.698 428.228 228.249 427.884 227.967L420.356 221.795C420.149 221.625 419.876 221.76 419.807 222.072C418.305 228.827 416.915 236.325 415.658 244.196C415.632 244.36 415.67 244.531 415.758 244.649L421.454 252.238C421.74 252.619 421.425 253.248 421.051 253.042L415.241 249.839C415.025 249.72 414.781 249.892 414.735 250.198C413.798 256.533 412.947 263.042 412.194 269.542C412.172 269.73 412.234 269.919 412.352 270.026L422.163 278.938C422.495 279.239 422.279 279.93 421.885 279.829L411.742 277.23C411.534 277.177 411.334 277.368 411.305 277.648C410.265 287.672 409.472 297.491 408.965 306.427C408.953 306.638 409.044 306.834 409.19 306.916L420.832 313.488C421.234 313.715 421.06 314.521 420.629 314.428L409.091 311.957C408.875 311.911 408.675 312.127 408.662 312.418C408.436 317.557 408.318 322.317 408.318 326.544C408.318 329.226 408.367 331.799 408.459 334.272C408.467 334.479 408.571 334.655 408.719 334.717L420.886 339.803C421.277 339.966 421.208 340.728 420.8 340.765L409.293 341.787C409.082 341.806 408.925 342.06 408.949 342.34C409.662 350.662 410.958 357.602 412.72 363.286C412.794 363.524 412.994 363.644 413.178 363.564L420.243 360.511C420.607 360.354 420.888 360.945 420.627 361.317L415.167 369.076C415.053 369.238 415.034 369.484 415.12 369.674C419.812 380.004 426.534 384.471 434 384.471C441.319 384.471 447.921 380.175 452.599 370.277C452.689 370.087 452.671 369.836 452.555 369.672L446.676 361.317C446.415 360.945 446.696 360.354 447.06 360.511L454.739 363.829C454.922 363.908 455.121 363.79 455.196 363.553C456.996 357.833 458.32 350.827 459.045 342.401C459.069 342.121 458.912 341.867 458.701 341.848L446.502 340.764C446.094 340.728 446.025 339.966 446.416 339.802L459.139 334.484C459.26 334.433 459.353 334.304 459.386 334.141L459.567 333.238C459.574 333.202 459.578 333.166 459.579 333.13C459.646 331.008 459.682 328.817 459.682 326.544C459.681 322.276 459.56 317.466 459.33 312.27Z" fill="white"/>
<path d="M435.017 347.342L434.233 302.695L447.957 291.323L434.132 296.94L433.875 282.344L433.76 282.583L433.842 280.445L433.473 259.463L444.837 248.973L433.692 255.66L433.445 257.88L432.989 231.882L432.74 237.007L431.537 275.862L431.017 274.829L422.102 269.034L431.467 278.137L429.942 327.4L415.861 322.974L429.783 332.546L428.735 366.383L423.439 365.324L428.569 371.737L427.998 390.184L427.297 428.793H436.448L435.088 351.388L446.174 348.83L435.017 347.342Z" fill="#263238"/>
<path opacity="0.5" d="M435.017 347.342L434.233 302.695L447.957 291.323L434.132 296.94L433.875 282.344L433.76 282.583L433.842 280.445L433.473 259.463L444.837 248.973L433.692 255.66L433.445 257.88L432.989 231.882L432.74 237.007L431.537 275.862L431.017 274.829L422.102 269.034L431.467 278.137L429.942 327.4L415.861 322.974L429.783 332.546L428.735 366.383L423.439 365.324L428.569 371.737L427.998 390.184L427.297 428.793H436.448L435.088 351.388L446.174 348.83L435.017 347.342Z" fill="white"/>
<path d="M369.61 382.254H361.418L361.301 382.427C360.606 382.323 359.902 382.254 359.184 382.254C349.196 382.254 341.099 392.672 341.099 405.523C341.099 418.374 349.196 428.792 359.184 428.792C359.901 428.792 365.831 428.724 366.526 428.619L361.418 428.792H369.61C379.598 428.792 387.695 418.374 387.695 405.523C387.695 392.672 379.598 382.254 369.61 382.254Z" fill="#263238" stroke="#263238" stroke-miterlimit="10" stroke-linecap="round" stroke-linejoin="round"/>
<path d="M201.815 382.254H193.623L193.505 382.427C192.81 382.323 192.106 382.254 191.388 382.254C181.4 382.254 173.303 392.672 173.303 405.523C173.303 418.374 181.4 428.792 191.388 428.792C192.105 428.792 192.809 428.724 193.505 428.619L193.623 428.792H201.815C211.803 428.792 219.9 418.374 219.9 405.523C219.9 392.672 211.803 382.254 201.815 382.254Z" fill="#263238" stroke="#263238" stroke-miterlimit="10" stroke-linecap="round" stroke-linejoin="round"/>
<path d="M447.563 382.939H443.633L440.111 358.247C439.682 355.241 437.108 353.008 434.071 353.008H412.038L376.264 315.044C372.391 310.934 366.994 308.604 361.347 308.604H266.511C262.377 308.604 258.422 310.291 255.561 313.274L92.6738 382.041V411.074H336.894L398.185 410.639L443.633 407.659V407.452H447.37C448.194 407.452 448.862 406.784 448.862 405.96V384.238C448.862 383.52 448.28 382.939 447.563 382.939Z" fill="#92E3A9" stroke="#263238" stroke-miterlimit="10" stroke-linecap="round" stroke-linejoin="round"/>
<path d="M384.144 313.735H399.519" stroke="#263238" stroke-miterlimit="10" stroke-linecap="round" stroke-linejoin="round"/>
<path d="M393.369 327.059H455.379" stroke="#263238" stroke-miterlimit="10" stroke-linecap="round" stroke-linejoin="round"/>
<path d="M445.642 363.958H460.504" stroke="#263238" stroke-miterlimit="10" stroke-linecap="round" stroke-linejoin="round"/>
<path d="M452.816 405.469H471.751" stroke="#263238" stroke-miterlimit="10" stroke-linecap="round" stroke-linejoin="round"/>
<path d="M378.183 406.613V410.781L398.185 410.639L443.633 407.659V407.452H447.37C447.956 407.452 448.451 407.106 448.695 406.614H378.183V406.613Z" fill="#263238" stroke="#263238" stroke-miterlimit="10" stroke-linecap="round" stroke-linejoin="round"/>
<path d="M398.185 410.638C400.106 410.512 400.012 407.658 398.087 407.658H375.106L290.115 308.604H266.512C262.378 308.604 258.423 310.291 255.562 313.274L92.6738 382.041V411.074H336.894L398.185 410.638Z" fill="#263238" stroke="#263238" stroke-miterlimit="10" stroke-linecap="round" stroke-linejoin="round"/>
<path d="M130.727 382.254H122.535L117.163 390.14C114.351 394.241 112.642 399.624 112.642 405.523C112.642 411.422 114.351 416.804 117.163 420.906L122.535 428.792H130.727C140.715 428.792 148.812 418.374 148.812 405.523C148.812 392.672 140.715 382.254 130.727 382.254Z" fill="#263238" stroke="#263238" stroke-miterlimit="10" stroke-linecap="round" stroke-linejoin="round"/>
<path d="M120.301 428.793C130.289 428.793 138.386 418.375 138.386 405.524C138.386 392.673 130.289 382.255 120.301 382.255C110.313 382.255 102.216 392.673 102.216 405.524C102.216 418.375 110.313 428.793 120.301 428.793Z" fill="#636363" stroke="#263238" stroke-miterlimit="10" stroke-linecap="round" stroke-linejoin="round"/>
<path d="M120.301 424.086C128.269 424.086 134.728 415.775 134.728 405.523C134.728 395.271 128.269 386.96 120.301 386.96C112.333 386.96 105.874 395.271 105.874 405.523C105.874 415.775 112.333 424.086 120.301 424.086Z" fill="white" stroke="#263238" stroke-miterlimit="10" stroke-linecap="round" stroke-linejoin="round"/>
<path d="M123.349 405.523C123.349 407.689 121.984 409.445 120.301 409.445C118.618 409.445 117.253 407.689 117.253 405.523C117.253 403.357 118.618 401.601 120.301 401.601C121.984 401.602 123.349 403.358 123.349 405.523Z" fill="white" stroke="#263238" stroke-miterlimit="10" stroke-linecap="round" stroke-linejoin="round"/>
<path d="M313.251 382.254H305.059L299.688 390.14C296.876 394.241 295.167 399.624 295.167 405.523C295.167 411.422 296.876 416.804 299.688 420.906L305.059 428.792H313.251C323.239 428.792 331.336 418.374 331.336 405.523C331.336 392.672 323.239 382.254 313.251 382.254Z" fill="#263238" stroke="#263238" stroke-miterlimit="10" stroke-linecap="round" stroke-linejoin="round"/>
<path d="M302.825 428.793C312.813 428.793 320.91 418.375 320.91 405.524C320.91 392.673 312.813 382.255 302.825 382.255C292.837 382.255 284.74 392.673 284.74 405.524C284.74 418.375 292.837 428.793 302.825 428.793Z" fill="#636363" stroke="#263238" stroke-miterlimit="10" stroke-linecap="round" stroke-linejoin="round"/>
<path d="M302.825 424.086C310.793 424.086 317.252 415.775 317.252 405.523C317.252 395.271 310.793 386.96 302.825 386.96C294.858 386.96 288.398 395.271 288.398 405.523C288.398 415.775 294.858 424.086 302.825 424.086Z" fill="white" stroke="#263238" stroke-miterlimit="10" stroke-linecap="round" stroke-linejoin="round"/>
<path d="M305.873 405.523C305.873 407.689 304.508 409.445 302.825 409.445C301.141 409.445 299.777 407.689 299.777 405.523C299.777 403.357 301.141 401.601 302.825 401.601C304.509 401.602 305.873 403.358 305.873 405.523Z" fill="white" stroke="#263238" stroke-miterlimit="10" stroke-linecap="round" stroke-linejoin="round"/>
<path d="M376.265 315.044C375.97 314.73 375.649 314.447 375.336 314.154H301.456V350.659H409.825L376.265 315.044Z" fill="#263238" stroke="#263238" stroke-miterlimit="10" stroke-linecap="round" stroke-linejoin="round"/>
<path d="M384.749 382.939H380.444L376.174 353.008H348.849L313.075 315.044C309.202 310.934 303.805 308.604 298.158 308.604H211.104C206.97 308.604 203.016 310.291 200.154 313.274L144.549 350.446L93.101 372.648L85.051 383.458C83.07 386.118 82 389.346 82 392.662V411.074H98.225V404.938C98.225 389.934 109.136 377.771 122.595 377.771C134.587 377.771 142.039 387.496 143.909 400.701L145.378 411.074H280.962V404.938C280.962 389.934 287.119 377.771 303.667 377.771C318.411 377.771 323.684 387.496 325.983 400.701L327.714 410.638L380.443 407.658V407.451H384.748V382.939H384.749Z" fill="#92E3A9" stroke="#263238" stroke-miterlimit="10" stroke-linecap="round" stroke-linejoin="round"/>
<path d="M236.8 358.333H227.137V362.198H236.8V358.333Z" fill="#263238" stroke="#263238" stroke-miterlimit="10" stroke-linecap="round" stroke-linejoin="round"/>
<path d="M200.62 318.745L152.875 350.446H242.109V314.581H210.514C206.79 314.581 203.223 316.082 200.62 318.745Z" fill="#263238" stroke="#263238" stroke-miterlimit="10" stroke-linecap="round" stroke-linejoin="round"/>
<path d="M191.224 350.309C191.126 349.829 191.075 349.332 191.075 348.822C191.075 344.717 194.403 341.39 198.508 341.39C202.613 341.39 205.94 344.718 205.94 348.822C205.94 349.331 205.888 349.828 205.791 350.309H209.922C209.985 349.821 210.028 349.327 210.028 348.822C210.028 342.46 204.87 337.302 198.508 337.302C192.145 337.302 186.988 342.46 186.988 348.822C186.988 349.327 187.032 349.821 187.095 350.309H191.224Z" fill="#6E6E6E" stroke="#263238" stroke-miterlimit="10" stroke-linecap="round" stroke-linejoin="round"/>
<path d="M221.548 326.345L218.203 330.805L220.061 331.92L222.663 339.724L227.865 338.609L228.237 341.582L236.041 338.609L232.696 333.778L228.237 333.406L221.548 326.345Z" fill="white" stroke="#263238" stroke-miterlimit="10" stroke-linecap="round" stroke-linejoin="round"/>
<path d="M224.892 317.055L223.034 319.656C223.034 319.656 208.169 325.974 212.629 327.089C217.088 328.204 230.467 327.832 233.44 327.832C236.413 327.832 241.987 328.204 241.987 328.204L236.041 322.63L228.609 321.143L224.892 317.055Z" fill="white" stroke="#263238" stroke-miterlimit="10" stroke-linecap="round" stroke-linejoin="round"/>
<path d="M222.291 350.501L218.946 354.589C218.946 354.589 207.054 348.271 204.453 347.9C201.852 347.528 198.167 350.664 198.167 350.664C198.167 350.664 200.02 350.4 204.267 350.547C207.669 350.664 204.502 352.659 219.318 365.367C220.446 366.335 222.105 365.778 223.034 364.624C223.963 363.47 230.095 353.475 230.095 353.475L222.291 350.501Z" fill="white" stroke="#263238" stroke-miterlimit="10" stroke-linecap="round" stroke-linejoin="round"/>
<path d="M230.095 339.352L238.25 336L240 338.75L233 342L230.095 339.352Z" fill="white" stroke="#263238" stroke-miterlimit="10" stroke-linecap="round" stroke-linejoin="round"/>
<path d="M236.067 345.561C236.302 343.958 235.712 342.349 234.505 341.268C233.214 340.111 231.494 338.952 230.094 339.352C227.493 340.095 218.351 354.642 218.351 354.642L230.671 362.748L236.067 345.561Z" fill="white" stroke="#263238" stroke-miterlimit="10" stroke-linecap="round" stroke-linejoin="round"/>
<path d="M200.688 336.218L196.463 337.843L199.876 338.818L201.013 341.256L198.9 341.906C198.9 341.906 200.525 343.531 201.175 343.531C201.825 343.531 203.938 343.043 203.938 343.043L211.088 350.518H220.25L206.5 341L202.963 336.868L200.688 336.218Z" fill="white" stroke="#263238" stroke-miterlimit="10" stroke-linecap="round" stroke-linejoin="round"/>
<path d="M310.099 320.422L330.397 341.181C331.074 341.873 331.554 342.734 331.789 343.673C332.647 347.114 330.045 350.445 326.499 350.445H248.087V314.58H296.22C301.443 314.581 306.447 316.687 310.099 320.422Z" fill="#263238" stroke="#263238" stroke-miterlimit="10" stroke-linecap="round" stroke-linejoin="round"/>
<path d="M291.085 314.581H283.201L254.9 350.446H262.784L291.085 314.581Z" fill="white" stroke="#263238" stroke-miterlimit="10" stroke-linecap="round" stroke-linejoin="round"/>
<path d="M248.087 317.118V345.759L272.689 314.581H250.089L248.087 317.118Z" fill="white" stroke="#263238" stroke-miterlimit="10" stroke-linecap="round" stroke-linejoin="round"/>
<path d="M376.174 353.008H434.071C437.108 353.008 439.682 355.241 440.111 358.247L443.633 382.939H380.443L376.174 353.008Z" fill="#92E3A9" stroke="#263238" stroke-miterlimit="10" stroke-linecap="round" stroke-linejoin="round"/>
<path d="M431.13 366.504H403.673V377.779H431.13V366.504Z" fill="white" stroke="#263238" stroke-miterlimit="10" stroke-linecap="round" stroke-linejoin="round"/>
<path d="M446.651 387.554H328.995" stroke="#263238" stroke-width="2" stroke-miterlimit="10" stroke-linecap="round" stroke-linejoin="round"/>
<path d="M276.421 387.554H146.037" stroke="#263238" stroke-width="2" stroke-miterlimit="10" stroke-linecap="round" stroke-linejoin="round"/>
<path d="M102.751 387.554H87.8281" stroke="#263238" stroke-width="2" stroke-miterlimit="10" stroke-linecap="round" stroke-linejoin="round"/>
<path d="M398.933 366.686H372.992C370.544 366.686 368.305 368.069 367.21 370.259L362.872 378.936C362.004 380.672 363.266 382.714 365.207 382.714H398.933V366.686Z" fill="white" stroke="#263238" stroke-miterlimit="10" stroke-linecap="round" stroke-linejoin="round"/>
<path d="M398.933 366.686H378.027L380.313 382.714H398.933V366.686Z" fill="#263238" stroke="#263238" stroke-miterlimit="10" stroke-linecap="round" stroke-linejoin="round"/>
<path d="M441.217 366.686H434.886L434.803 382.714H443.503L441.217 366.686Z" fill="#263238" stroke="#263238" stroke-miterlimit="10" stroke-linecap="round" stroke-linejoin="round"/>
<path d="M158.56 357.064H145.909C144.804 357.064 143.909 356.169 143.909 355.064V344.975C143.909 343.87 144.804 342.975 145.909 342.975H158.56C159.665 342.975 160.56 343.87 160.56 344.975V355.064C160.56 356.168 159.665 357.064 158.56 357.064Z" fill="#263238" stroke="#263238" stroke-miterlimit="10" stroke-linecap="round" stroke-linejoin="round"/>
<path d="M243.817 354.502V403.175" stroke="#263238" stroke-miterlimit="10" stroke-linecap="round" stroke-linejoin="round"/>
<path d="M135.583 376.277C135.583 376.277 147.31 382.895 148.812 405.523H273.277" stroke="#263238" stroke-miterlimit="10" stroke-linecap="round" stroke-linejoin="round"/>
<path d="M332.197 385.884C332.197 385.884 326.066 369.873 305.538 369.873C291.23 369.873 284.388 377.387 280.962 383.322" stroke="#263238" stroke-miterlimit="10" stroke-linecap="round" stroke-linejoin="round"/>
<path d="M356.421 304.758H220.959V308.187H356.421V304.758Z" fill="#263238" stroke="#263238" stroke-miterlimit="10" stroke-linecap="round" stroke-linejoin="round"/>
<path d="M275.597 283.599C275.597 283.599 253.299 284.094 240.352 284.094C227.405 284.094 225.607 282.112 225.966 284.589C226.326 287.066 226.685 304.405 226.685 304.405L275.956 304.9L275.597 283.599Z" fill="white" stroke="#263238" stroke-miterlimit="10" stroke-linecap="round" stroke-linejoin="round"/>
<path d="M270.65 288.413H265.824V295.337H270.65V288.413Z" fill="white" stroke="#263238" stroke-miterlimit="10" stroke-linecap="round" stroke-linejoin="round"/>
<path d="M234.056 288.413H229.23V295.337H234.056V288.413Z" fill="white" stroke="#263238" stroke-miterlimit="10" stroke-linecap="round" stroke-linejoin="round"/>
<path d="M275.597 283.599C275.597 283.599 300.772 284.59 309.044 283.599C317.316 282.608 318.395 282.608 318.395 284.59C318.395 286.572 318.755 305.397 318.755 305.397L275.958 304.902L275.597 283.599Z" fill="#263238" stroke="#263238" stroke-miterlimit="10" stroke-linecap="round" stroke-linejoin="round"/>
<path d="M226.415 292.428L275.475 292.151" stroke="#263238" stroke-miterlimit="10" stroke-linecap="round" stroke-linejoin="round"/>
<path d="M277.083 292.706H317.9" stroke="white" stroke-miterlimit="10" stroke-linecap="round" stroke-linejoin="round"/>
<path d="M253.358 291.875H240.892V296.583H253.358V291.875Z" fill="#263238" stroke="#263238" stroke-miterlimit="10" stroke-linecap="round" stroke-linejoin="round"/>
<path d="M368.734 254.428C367.056 254.164 365.352 253.962 363.638 253.812C341.511 251.882 319.622 246.813 297.343 246.405C279.11 246.071 260.955 248.044 243.052 251.405C227.61 254.304 210.987 255.007 196.84 262.518C190.257 266.013 176.61 286.046 190.833 289.207C196.684 290.507 199.935 284.006 211.638 284.006C223.341 284.006 373.271 284.42 377.172 283.77C381.073 283.12 385.624 292.222 391.478 293.523C397.937 294.954 396.274 281.741 395.924 278.541C394.203 262.815 382.322 256.57 368.734 254.428Z" fill="#92E3A9" stroke="#263238" stroke-miterlimit="10" stroke-linecap="round" stroke-linejoin="round"/>
<path d="M374.572 257.112C374.572 257.112 384.324 259.063 388.876 265.564C393.427 272.065 394.077 277.917 392.777 287.019" stroke="#263238" stroke-miterlimit="10" stroke-linecap="round" stroke-linejoin="round"/>
<path d="M234.565 303.679C234.565 303.679 228.701 256.918 246.292 249.844" stroke="#263238" stroke-miterlimit="10" stroke-linecap="round" stroke-linejoin="round"/>
<path d="M286.111 304.072C286.111 304.072 283.256 256.889 305.145 246" stroke="#263238" stroke-miterlimit="10" stroke-linecap="round" stroke-linejoin="round"/>
<path d="M277.546 304.072C277.546 304.072 276.594 257.695 312.282 246.404" stroke="#263238" stroke-miterlimit="10" stroke-linecap="round" stroke-linejoin="round"/>
<path d="M252.644 249.058C252.644 249.058 234.076 259.668 229.19 304.071" stroke="#263238" stroke-miterlimit="10" stroke-linecap="round" stroke-linejoin="round"/>
<path d="M350.018 277.62H290.635V305.062H350.018V277.62Z" fill="#BABABA" stroke="#263238" stroke-miterlimit="10" stroke-linecap="round" stroke-linejoin="round"/>
<path d="M350.018 277.62H328.874V305.062H350.018V277.62Z" fill="#8A8A8A" stroke="#263238" stroke-miterlimit="10" stroke-linecap="round" stroke-linejoin="round"/>
<path d="M290.635 277.62L294.286 273.187C295.962 271.151 298.461 269.972 301.098 269.972H339.288C341.82 269.972 344.23 271.06 345.905 272.958L350.018 277.62H290.635Z" fill="white" stroke="#263238" stroke-miterlimit="10" stroke-linecap="round" stroke-linejoin="round"/>
<path d="M339.912 270.124H335.275C333.455 270.124 331.799 271.205 331.027 272.897L328.873 277.619" stroke="#263238" stroke-miterlimit="10" stroke-linecap="round" stroke-linejoin="round"/>
<path d="M350.018 277.62H290.635V283.214H350.018V277.62Z" fill="white" stroke="#263238" stroke-miterlimit="10" stroke-linecap="round" stroke-linejoin="round"/>
<path d="M350.018 277.62H328.386V283.214H350.018V277.62Z" fill="#8A8A8A" stroke="#263238" stroke-miterlimit="10" stroke-linecap="round" stroke-linejoin="round"/>
<path d="M293.609 283.225L296.323 284.94H300.466L303.18 283.511L293.609 283.225Z" fill="#263238" stroke="#263238" stroke-miterlimit="10" stroke-linecap="round" stroke-linejoin="round"/>
<path d="M314.321 283.225L317.035 284.94H321.178L323.892 283.511L314.321 283.225Z" fill="#263238" stroke="#263238" stroke-miterlimit="10" stroke-linecap="round" stroke-linejoin="round"/>
<path d="M298.496 305.269L311.982 270.075C311.982 270.075 313.627 269.088 317.574 270.075C317.574 270.075 314.285 270.404 312.969 272.377C311.653 274.351 301.457 305.269 301.457 305.269" stroke="#263238" stroke-miterlimit="10" stroke-linecap="round" stroke-linejoin="round"/>
<path d="M481.149 428.793H491.017" stroke="#263238" stroke-miterlimit="10" stroke-linecap="round" stroke-linejoin="round"/>
<path d="M55 428.793H472.8" stroke="#263238" stroke-miterlimit="10" stroke-linecap="round" stroke-linejoin="round"/>
<path d="M6 428.793H46" stroke="#263238" stroke-miterlimit="10" stroke-linecap="round" stroke-linejoin="round"/>
</svg>
