<svg version="1.2" xmlns="http://www.w3.org/2000/svg" viewBox="0 0 2122 2122" width="2122" height="2122"><defs><clipPath clipPathUnits="userSpaceOnUse" id="cp1"><path d="m2121.32 2121.32h-2121.32v-2121.32h2121.32z"/></clipPath><linearGradient id="P" gradientUnits="userSpaceOnUse"/><linearGradient id="g1" x2="1" href="#P" gradientTransform="matrix(237.952,1775.706,-960.612,128.726,1158.884,1029.051)"><stop stop-color="#002735"/><stop offset=".48" stop-color="#fff"/></linearGradient><linearGradient id="g2" x2="1" href="#P" gradientTransform="matrix(238.181,1777.419,-978.529,131.127,1429.092,992.75)"><stop stop-color="#002735"/><stop offset=".48" stop-color="#fff"/></linearGradient><linearGradient id="g3" x2="1" href="#P" gradientTransform="matrix(238.181,1777.415,-978.527,131.127,1717.631,954.247)"><stop stop-color="#002735"/><stop offset=".48" stop-color="#fff"/></linearGradient><linearGradient id="g4" x2="1" href="#P" gradientTransform="matrix(252.352,1883.164,-1204.274,161.378,2035.738,894.768)"><stop stop-color="#002735"/><stop offset=".48" stop-color="#fff"/></linearGradient></defs><style>.a{fill:#00e6b0}.b{opacity:.3;mix-blend-mode:multiply;fill:#00e6b0}.c{fill:#002735}.d{fill:url(#g1)}.e{fill:url(#g2)}.f{fill:url(#g3)}.g{fill:url(#g4)}</style><path class="a" d="m2121.3 2121.3h-2121.3v-2121.3h2121.3z"/><g clip-path="url(#cp1)"><path class="b" d="m917.2-169.6c-64.6 70.6-80.9 172.3-85.6 267.8-4.8 95.6-1.5 194.4-37.3 283.1-35.8 88.7-125.3 165.2-219.6 148.8-65.8-11.4-115.8-63.1-165.9-107.2-50.2-44.1-114.9-85.1-179.6-68.8-86.9 21.8-118 130.8-111.7 220.1 6.3 89.3 33.5 182.3 1.4 265.9-58.1 151.2-272 184.1-350.1 326.1-70.5 128.2 0.3 291.3 101.8 396.7 101.5 105.4 232.9 181.4 320.7 298.5 66.6 88.7 106.6 199.2 192 270.1 117.2 97.3 294.9 92.5 430.9 23.8 135.9-68.7 237.4-189.8 325.2-314.2 65-92.1 149.6-200 261.3-185.5 105.1 13.7 164.1 129.6 258.8 177.2 122.5 61.6 268-3.6 389.1-68.1 104.7-55.6 216.4-118.6 264.9-226.8 51.1-113.7 17.1-249.3-46.5-356.5-63.6-107.2-154.1-195.6-227.6-296.2-73.5-100.6-131.7-222.5-114.9-346 16.3-120.4 102.2-235.3 70.8-352.7-26.7-100-128-158.4-221.2-203.5-156.6-75.7-320.3-159.4-487.5-208.9-115.7-34.2-282.3-38.9-369.4 56.3z"/><path class="c" d="m563.7 820.5c-1.5 0-2.7-1.3-2.7-2.8v-886c0-1.5 1.2-2.7 2.7-2.7 1.6 0 2.8 1.2 2.8 2.7v886c0 1.5-1.2 2.8-2.8 2.8z"/><path class="c" d="m1522.1 680.6c-1.5 0-2.8-1.3-2.8-2.8v-741.9c0-1.5 1.3-2.7 2.8-2.7 1.5 0 2.8 1.2 2.8 2.7v741.9c0 1.5-1.3 2.8-2.8 2.8z"/></g><path class="c" d="m644.1 1008.7v45.9c0 55.4-27.7 91-81.1 98.5-53.4 7.6-81-20.1-81-75.4v-180c0-55.3 27.6-90.9 81-98.5 53.4-7.6 81.1 20.1 81.1 75.5v33.6l-51.4 7.3v-37.1c0-24.7-10.9-32.5-28.2-30.1-17.3 2.5-28.2 13.4-28.2 38.2v186.8c0 24.7 10.9 32.1 28.2 29.6 17.3-2.4 28.2-12.9 28.2-37.6v-49.4z"/><path fill-rule="evenodd" class="c" d="m672.7 870.6c0-55.3 29.2-91.1 82.6-98.7 53.4-7.6 82.5 19.9 82.5 75.3v179.9c0 55.4-29.1 91.1-82.5 98.7-53.4 7.6-82.6-19.9-82.6-75.2zm54.4 175.6c0 24.7 10.9 32.6 28.2 30.1 17.3-2.4 28.2-13.4 28.2-38.1v-186.8c0-24.7-10.9-32.6-28.2-30.1-17.3 2.4-28.2 13.4-28.2 38.1z"/><path class="c" d="m988.1 988.5l37-251 75.7-10.7v346l-51.4 7.3v-248.2l-37.6 253.5-51.4 7.3-40.5-238.9v244.7l-47.5 6.7v-346l75.6-10.7z"/><path class="c" d="m1140.3 721.2l54.4-7.8v346l-54.4 7.8z"/><path class="c" d="m1282.6 796.3v250.6l-48.9 7v-346l68.2-9.7 55.9 199.2v-207.1l48.4-6.9v346l-55.8 7.9z"/><path class="c" d="m1526.8 819.5l76.1-10.8v109.7c0 55.4-27.7 90.9-81 98.5-53.4 7.6-81.1-20.1-81.1-75.5v-179.9c0-55.4 27.7-90.9 81.1-98.5 53.3-7.6 81 20.1 81 75.5v33.6l-51.4 7.3v-37.1c0-24.7-10.9-32.5-28.2-30.1-17.3 2.5-28.1 13.4-28.1 38.1v186.9c0 24.7 10.8 32 28.1 29.6 17.3-2.5 28.2-12.9 28.2-37.6v-63.8l-24.7 3.5z"/><g style="mix-blend-mode:multiply"><path class="d" d="m559.1 1265.5c0-36.4 14.6-52.3 40-55.9 25.5-3.7 40.1 8.1 40.1 44.5v21.1l75.7-10.8v-16c0-81.5-40.1-122.4-117.9-111.3-77.9 11-117.9 63.3-117.9 144.8 0 145.6 156.4 143 156.4 247.8 0 36.4-16 51.8-41.4 55.4-25.5 3.6-41.5-7.2-41.5-43.6v-36.4l-75.7 10.8v31.3c0 81.5 40.7 122.3 119.3 111.1 78.6-11.1 119.4-63.5 119.4-145 0-145.6-156.5-143-156.5-247.8z"/><path fill-rule="evenodd" class="e" d="m998 1208.2v264.9c0 81.6-43 134.2-121.6 145.4-78.6 11.2-121.5-29.3-121.5-110.8v-265c0-81.5 42.9-134.2 121.5-145.3 78.6-11.2 121.6 29.3 121.6 110.8zm-80.1 6.3c0-36.4-16-48-41.5-44.3-25.4 3.6-41.4 19.7-41.4 56.1v275.1c0 36.4 16 47.9 41.4 44.3 25.5-3.6 41.5-19.7 41.5-56.1z"/><path fill-rule="evenodd" class="f" d="m1286.2 1167.2v265c0 81.5-42.9 134.2-121.5 145.4-78.6 11.1-121.6-29.4-121.6-110.9v-264.9c0-81.5 43-134.2 121.6-145.4 78.6-11.2 121.5 29.3 121.5 110.8zm-80.1 6.3c0-36.4-16-47.9-41.4-44.3-25.5 3.6-41.5 19.7-41.5 56.1v275.1c0 36.4 16 48 41.5 44.4 25.4-3.6 41.4-19.8 41.4-56.1z"/><path class="g" d="m1519.8 1011.8v304.9l-82.2-293.2-100.5 14.2v509.5l72.1-10.2v-369l99.7 354.8 82.3-11.7v-509.5z"/></g><path class="c" d="m661.1 751.2q-4.3-1.9-6-6.5-1.8-4.6-1.8-12v-46.1l13.5-1.9v48q0 4.8 1.2 7.4 1.1 2.5 4.8 2 3.6-0.5 4.8-3.4 1.2-2.9 1.2-7.7v-48l13.5-1.9v46q0 7.5-1.7 12.6-1.8 5-6 8.2-4.3 3.1-11.8 4.2-7.5 1.1-11.7-0.9z"/><path class="c" d="m705.2 679.3l9.5-1.4 15 32.9v-35l11.4-1.6v67.3l-9.2 1.3-15-35.1v37.2l-11.7 1.7z"/><path fill-rule="evenodd" class="c" d="m754.6 672.3l16.4-2.4q8.5-1.2 13.3 0.3 4.7 1.6 6.8 5.8 2 4.3 2 11.9v24.5q0 7.7-2 12.7-2 5-6.7 7.9-4.7 3-13.1 4.2l-16.7 2.4zm16.6 55.4q3.5-0.6 5.2-1.9 1.8-1.4 2.2-3.6 0.5-2.2 0.5-6.3v-27.8q0-3.9-0.6-5.7-0.5-1.9-2.2-2.6-1.6-0.8-5.2-0.3l-2.9 0.5v48.1z"/><path class="c" d="m805.5 665l29.3-4.2v9.5l-15.7 2.3v17.8l12.2-1.7v9.5l-12.2 1.8v21.1l15.9-2.3v9.3l-29.5 4.2z"/><path fill-rule="evenodd" class="c" d="m845.3 659.4l17.4-2.5q10.9-1.6 16.4 1.6 5.5 3.3 5.5 13.1 0 6.5-1.8 10.8-1.9 4.3-6.5 7l9.3 31.5-14 2-7.7-29.4-5 0.7v30.5l-13.6 2zm17.7 26.1q4.8-0.7 6.8-3.3 1.9-2.7 1.9-7.7 0-5-1.7-7.1-1.8-2.1-6.3-1.4l-4.8 0.7v19.4z"/><path class="c" d="m924.7 710.5q-4.5-5.1-4.5-16v-24.1q0-11.1 4.4-17.4 4.5-6.4 15.3-7.9 10.3-1.5 14.5 2.9 4.3 4.5 4.3 13.9v5.6l-13.3 1.9v-6.2q0-3-0.3-4.8-0.3-1.8-1.5-2.8-1.2-1.1-3.7-0.7-3.7 0.5-4.8 3.1-1.1 2.5-1.1 7.2v30.6q0 4.7 1.3 6.9 1.2 2.1 4.6 1.6 3.5-0.5 4.5-3 1-2.5 1-7.1v-6.6l13.3-1.9v5.6q0 9.6-4.2 15.5-4.3 5.9-14.6 7.3-10.8 1.6-15.2-3.6z"/><path fill-rule="evenodd" class="c" d="m974 703.7q-4.6-5-4.6-15.9v-25.1q0-10.8 4.6-17 4.6-6.1 15.3-7.6 10.6-1.5 15.2 3.3 4.7 4.9 4.7 15.7v25.2q0 10.8-4.7 17-4.6 6.3-15.2 7.8-10.7 1.5-15.3-3.4zm20-9.4q1.2-2.6 1.2-6.7v-31.8q0-4.2-1.2-6.3-1.2-2.1-4.7-1.6-3.5 0.5-4.7 2.9-1.2 2.5-1.2 6.6v31.9q0 4.2 1.2 6.4 1.1 2.1 4.7 1.6 3.5-0.5 4.7-3z"/><path class="c" d="m1021.6 634.3l9.6-1.4 14.9 32.9v-35l11.4-1.6v67.3l-9.2 1.3-15-35.1v37.3l-11.7 1.6z"/><path class="c" d="m1074.4 689.9q-4.7-4.4-5.1-15.1l11.8-3.7q0.2 6.4 1.8 9.2 1.6 2.8 4.9 2.4 2.4-0.4 3.5-2.1 1-1.7 1-4.1 0-4-1.7-6.5-1.8-2.5-5.7-5.3l-6.9-5.1q-4.2-2.9-6.4-6.6-2.2-3.6-2.2-9.2 0-8.2 4.9-13.4 4.8-5.1 13.4-6.3 9.1-1.3 12.7 3.5 3.6 4.7 4.1 12.8l-11.9 3.4q-0.2-5.3-1.2-7.6-1.1-2.4-4.1-2-2.3 0.3-3.5 2.2-1.3 1.9-1.3 4.2 0 3.3 1.5 5.4 1.4 2.1 4.6 4.4l6.8 5q4.8 3.5 7.6 7.9 2.7 4.3 2.7 10.6 0 4.8-2.1 8.9-2.2 4.1-6.1 6.8-4 2.7-9.1 3.4-9.4 1.4-14-3.1z"/><path class="c" d="m1122.6 630.1l-10.4 1.5v-10.2l34.4-4.9v10.2l-10.2 1.4v57.2l-13.8 2z"/><path fill-rule="evenodd" class="c" d="m1156 615.2l17.4-2.5q10.9-1.5 16.4 1.7 5.5 3.2 5.5 13 0 6.6-1.8 10.9-1.9 4.3-6.5 7l9.3 31.5-14 2-7.7-29.4-5 0.7v30.5l-13.6 1.9zm17.7 26.2q4.8-0.7 6.8-3.4 1.9-2.6 1.9-7.7 0-5-1.7-7-1.8-2.1-6.3-1.5l-4.8 0.7v19.5z"/><path class="c" d="m1214.7 672.6q-4.3-2-6-6.5-1.8-4.6-1.8-12.1v-46l13.5-1.9v47.9q0 4.8 1.2 7.4 1.1 2.6 4.8 2.1 3.6-0.6 4.8-3.5 1.2-2.9 1.2-7.7v-47.9l13.5-2v46.1q0 7.5-1.7 12.5-1.8 5.1-6.1 8.2-4.2 3.2-11.7 4.2-7.5 1.1-11.7-0.8z"/><path class="c" d="m1262.3 662.6q-4.5-5.2-4.5-16.1v-24.1q0-11.1 4.4-17.4 4.5-6.3 15.3-7.9 10.3-1.4 14.6 3 4.2 4.4 4.2 13.8v5.6l-13.3 1.9v-6.2q0-3-0.2-4.8-0.3-1.8-1.5-2.8-1.2-1-3.7-0.7-3.8 0.5-4.9 3.1-1 2.6-1 7.2v30.6q0 4.7 1.2 6.9 1.2 2.1 4.7 1.7 3.4-0.5 4.4-3 1-2.6 1-7.2v-6.6l13.3-1.9v5.6q0 9.6-4.2 15.5-4.2 5.9-14.6 7.4-10.7 1.5-15.2-3.6z"/><path class="c" d="m1314.4 602.8l-10.4 1.5v-10.1l34.4-4.9v10.1l-10.2 1.5v57.2l-13.8 1.9z"/><path class="c" d="m1347.9 587.9l13.7-1.9v67.3l-13.7 1.9z"/><path fill-rule="evenodd" class="c" d="m1378.7 646.2q-4.6-5-4.6-15.9v-25.1q0-10.8 4.6-17 4.6-6.1 15.3-7.6 10.6-1.5 15.2 3.3 4.6 4.9 4.6 15.7v25.2q0 10.8-4.6 17-4.6 6.3-15.2 7.8-10.7 1.5-15.3-3.4zm20-9.4q1.2-2.6 1.2-6.7v-31.8q0-4.2-1.2-6.3-1.2-2.1-4.7-1.6-3.5 0.5-4.7 2.9-1.2 2.5-1.2 6.6v31.9q0 4.2 1.1 6.4 1.2 2.1 4.8 1.6 3.5-0.5 4.7-3z"/><path class="c" d="m1426.3 576.8l9.6-1.4 14.9 32.9v-35l11.4-1.6v67.3l-9.2 1.3-15-35.1v37.3l-11.7 1.6z"/></svg>