<svg width="367" height="334" viewBox="0 0 367 334" fill="none" xmlns="http://www.w3.org/2000/svg">
<path d="M73.0008 302.723C140.032 343.224 248.702 343.224 315.725 302.723C382.748 262.222 382.748 196.545 315.725 156.044C248.702 115.543 140.032 115.543 73.0008 156.044C5.96956 196.545 5.97786 262.214 73.0008 302.723Z" fill="#F0F0F0"/>
<path d="M321.982 256.874C328.112 260.579 338.046 260.579 344.176 256.874C350.306 253.17 350.298 247.172 344.176 243.468C338.055 239.763 328.112 239.763 321.982 243.468C315.852 247.172 315.86 253.153 321.982 256.874Z" fill="#E0E0E0"/>
<path d="M44.9604 208.032C44.9604 208.032 43.5483 195.573 37.3602 185.946C31.1721 176.319 22.6748 170.272 14.7424 169.658C6.80991 169.043 0.405818 176.303 8.928 181.345C17.4502 186.386 32.4927 191.462 39.4284 210.209L44.9604 208.032Z" fill="#92E3A9"/>
<path d="M44.9604 208.032C44.9604 208.032 43.5483 195.573 37.3602 185.946C31.1721 176.319 22.6748 170.272 14.7424 169.658C6.80991 169.043 0.405818 176.303 8.928 181.345C17.4502 186.386 32.4927 191.462 39.4284 210.209L44.9604 208.032Z" fill="#263238"/>
<path d="M42.6378 204.801C42.6649 204.809 42.6938 204.809 42.7209 204.801C42.7726 204.781 42.8199 204.751 42.8597 204.712C42.8996 204.673 42.9313 204.627 42.953 204.576C42.9746 204.525 42.9859 204.47 42.986 204.414C42.986 204.359 42.975 204.304 42.9535 204.253C34.5891 183.645 18.6578 175.031 11.3898 173.362C11.3353 173.35 11.2788 173.348 11.2238 173.358C11.1687 173.368 11.1161 173.388 11.069 173.418C11.0219 173.448 10.9812 173.488 10.9493 173.533C10.9174 173.579 10.8949 173.631 10.8831 173.686C10.8604 173.795 10.8805 173.908 10.9393 174.002C10.9981 174.097 11.0911 174.165 11.1988 174.192C18.3089 175.854 33.9246 184.284 42.1644 204.568C42.2041 204.656 42.2731 204.727 42.3594 204.769C42.4458 204.812 42.5442 204.823 42.6378 204.801Z" fill="white"/>
<path d="M0.273677 205.05C0.988012 206.669 2.76554 207.542 4.42679 208.173C6.08803 208.804 7.85726 209.543 8.74603 211.072C10.5319 214.17 7.59977 218.547 9.5185 221.521C9.96725 222.123 10.5336 222.628 11.1832 223.005C11.8329 223.382 12.5523 223.623 13.2978 223.714C14.5286 223.891 15.768 224.002 17.0107 224.046C17.6027 224.04 18.1937 223.996 18.7799 223.913C20.4985 223.527 22.2965 223.716 23.8966 224.453C26.3884 225.84 27.1111 228.938 28.5979 231.331C29.5235 232.746 30.7458 233.944 32.18 234.84C33.6142 235.736 35.2261 236.31 36.9041 236.522C38.0089 236.672 40.0605 236.871 41.1818 236.24C41.2626 236.198 41.3404 236.151 41.4144 236.098C41.5722 235.924 41.7633 235.7 41.8463 235.583C41.8633 235.56 41.8772 235.535 41.8879 235.509C42.3281 233.906 41.6138 232.236 41.5888 230.583C41.5805 230.484 41.5805 230.384 41.5888 230.284C41.6553 228.357 41.7134 226.447 41.755 224.52C41.8436 220.992 41.8796 217.456 41.8629 213.912C41.8629 211.612 42.1121 209.103 41.1403 206.935C40.0688 204.56 37.3859 204.502 36.3808 202.168C35.9738 201.237 35.7579 200.24 35.3675 199.302C34.7582 197.923 33.7824 196.738 32.5463 195.875C31.3103 195.013 29.8613 194.506 28.357 194.409C23.6889 194.169 19.4943 197.956 14.8262 197.607C13.624 197.446 12.4316 197.219 11.2545 196.926C7.46687 196.22 3.09779 197.3 0.9714 200.498C0.49241 201.142 0.178393 201.894 0.056771 202.687C-0.0648516 203.481 0.00961848 204.292 0.273677 205.05Z" fill="#37474F"/>
<path d="M42.2691 228.125C42.3195 228.113 42.367 228.09 42.4087 228.059C42.4503 228.028 42.4854 227.989 42.5117 227.944C42.538 227.899 42.5551 227.849 42.5619 227.798C42.5687 227.746 42.5652 227.694 42.5515 227.644C36.1058 203.414 10.5891 199.917 4.61695 200.391C4.56489 200.394 4.51399 200.408 4.46725 200.431C4.42051 200.454 4.37887 200.486 4.3448 200.526C4.31074 200.565 4.28493 200.611 4.2689 200.661C4.25287 200.71 4.24694 200.763 4.25148 200.815C4.25997 200.919 4.30916 201.016 4.38842 201.084C4.46768 201.152 4.57064 201.187 4.67509 201.18C10.4894 200.765 35.4746 204.187 41.7873 227.876C41.8214 227.971 41.8899 228.049 41.9793 228.095C42.0686 228.142 42.1721 228.152 42.2691 228.125Z" fill="white"/>
<path d="M13.8949 215.856C13.975 215.841 14.0479 215.8 14.1026 215.74C16.4618 213.701 19.2406 212.206 22.2421 211.36C25.2435 210.515 28.3942 210.34 31.4709 210.848C31.5256 210.864 31.5832 210.868 31.6398 210.86C31.6964 210.853 31.7506 210.833 31.7988 210.802C31.847 210.771 31.888 210.731 31.9191 210.683C31.9502 210.635 31.9707 210.581 31.9791 210.524C31.9875 210.468 31.9837 210.41 31.9679 210.355C31.9521 210.3 31.9247 210.25 31.8875 210.206C31.8503 210.163 31.8043 210.128 31.7525 210.104C31.7007 210.08 31.6443 210.067 31.5872 210.067C28.3875 209.537 25.1103 209.721 21.99 210.606C18.8698 211.49 15.9835 213.054 13.5378 215.183C13.4647 215.259 13.4238 215.361 13.4238 215.466C13.4238 215.571 13.4647 215.672 13.5378 215.748C13.5835 215.795 13.6402 215.829 13.7026 215.848C13.765 215.867 13.8311 215.87 13.8949 215.856Z" fill="white"/>
<path d="M246.27 0.574349L292.179 27.0878C292.626 27.3791 292.998 27.7715 293.265 28.2333C293.532 28.6951 293.686 29.2132 293.716 29.7458V155.951C293.686 156.483 293.532 157.001 293.265 157.463C292.998 157.925 292.626 158.317 292.179 158.609L246.27 185.122C245.794 185.363 245.268 185.489 244.734 185.489C244.2 185.489 243.673 185.363 243.197 185.122L197.289 158.609C196.841 158.318 196.468 157.926 196.201 157.464C195.934 157.002 195.78 156.483 195.752 155.951V29.7458C195.781 29.2132 195.936 28.6951 196.203 28.2333C196.47 27.7715 196.842 27.3791 197.289 27.0878L243.197 0.574349C243.674 0.336621 244.2 0.212891 244.734 0.212891C245.267 0.212891 245.793 0.336621 246.27 0.574349Z" fill="#37474F"/>
<path d="M195.752 29.7472V155.952C195.781 156.484 195.935 157.001 196.2 157.463C196.466 157.924 196.835 158.317 197.28 158.61L243.197 185.123C243.669 185.376 244.199 185.502 244.734 185.489V55.7291C244.199 55.7384 243.67 55.6127 243.197 55.3636L197.28 28.8584L196.865 28.5096L196.317 28.0527C195.971 28.5524 195.775 29.1402 195.752 29.7472Z" fill="#263238"/>
<path d="M286.415 42.1666L252.027 62.0185C251.579 62.3111 251.207 62.705 250.94 63.1682C250.673 63.6314 250.519 64.151 250.49 64.6848V77.7671C250.49 78.7472 251.171 79.1459 252.019 78.6559L286.406 58.804C286.853 58.5127 287.225 58.1203 287.492 57.6585C287.759 57.1967 287.913 56.6786 287.943 56.146V43.0554C287.951 42.0753 287.303 41.6766 286.415 42.1666Z" fill="#455A64"/>
<path d="M285.066 47.9382C285.026 48.4534 284.866 48.9523 284.599 49.3949C284.332 49.8376 283.966 50.2119 283.529 50.4882L254.906 67.0093C254.075 67.4993 253.369 67.1505 253.369 66.2368C253.409 65.7215 253.569 65.2227 253.836 64.78C254.103 64.3374 254.469 63.963 254.906 63.6868L283.529 47.1574C284.376 46.6673 285.066 47.0162 285.066 47.9382Z" fill="#92E3A9"/>
<path d="M285.066 54.5925C285.026 55.1077 284.866 55.6066 284.599 56.0492C284.332 56.4919 283.966 56.8662 283.529 57.1425L254.906 73.6636C254.075 74.1536 253.369 73.8048 253.369 72.8911C253.409 72.3758 253.569 71.877 253.836 71.4343C254.103 70.9916 254.469 70.6173 254.906 70.3411L283.529 53.8117C284.376 53.3216 285.066 53.6705 285.066 54.5925Z" fill="#263238"/>
<path d="M283.532 53.8119L267.75 62.9488V66.2713L283.532 57.1344C283.969 56.8582 284.335 56.4838 284.602 56.0412C284.869 55.5985 285.028 55.0997 285.068 54.5844C285.068 53.6707 284.379 53.3219 283.532 53.8119Z" fill="#92E3A9"/>
<path d="M286.415 65.4568L252.027 85.3086C251.581 85.6004 251.209 85.993 250.942 86.4546C250.675 86.9163 250.52 87.4342 250.49 87.9666V101.057C250.49 102.037 251.171 102.436 252.019 101.946L286.406 82.0941C286.853 81.8028 287.225 81.4104 287.492 80.9486C287.759 80.4869 287.913 79.9687 287.943 79.4361V66.3455C287.951 65.3654 287.303 64.9999 286.415 65.4568Z" fill="#455A64"/>
<path d="M285.066 71.2199C285.027 71.7366 284.868 72.2371 284.601 72.6813C284.334 73.1255 283.967 73.5011 283.529 73.7782L254.906 90.2993C254.075 90.7893 253.369 90.4405 253.369 89.5268C253.408 89.0101 253.567 88.5096 253.834 88.0654C254.101 87.6212 254.468 87.2455 254.906 86.9685L283.529 70.4474C284.376 69.9822 285.066 70.3062 285.066 71.2199Z" fill="#92E3A9"/>
<path d="M285.066 77.882C285.026 78.3973 284.866 78.8961 284.599 79.3387C284.332 79.7814 283.966 80.1558 283.529 80.432L254.906 96.9531C254.075 97.4431 253.369 97.0943 253.369 96.1806C253.409 95.6653 253.569 95.1665 253.836 94.7238C254.103 94.2812 254.469 93.9068 254.906 93.6306L283.529 77.1012C284.376 76.6278 285.066 76.96 285.066 77.882Z" fill="#263238"/>
<path d="M283.532 77.1022L259.137 91.2228V94.5453L283.532 80.4662C283.969 80.19 284.335 79.8157 284.602 79.373C284.869 78.9303 285.029 78.4315 285.069 77.9162C285.069 76.961 284.379 76.6288 283.532 77.1022Z" fill="#92E3A9"/>
<path d="M286.415 88.7467L252.027 108.599C251.58 108.89 251.208 109.282 250.941 109.744C250.674 110.206 250.52 110.724 250.49 111.257V124.347C250.49 125.327 251.171 125.726 252.019 125.236L286.406 105.384C286.854 105.091 287.226 104.698 287.493 104.234C287.76 103.771 287.914 103.252 287.943 102.718V89.6355C287.951 88.6554 287.303 88.2567 286.415 88.7467Z" fill="#455A64"/>
<path d="M285.066 94.5119C285.026 95.0272 284.866 95.526 284.599 95.9687C284.332 96.4113 283.966 96.7857 283.529 97.0619L254.906 113.591C254.075 114.081 253.369 113.732 253.369 112.811C253.409 112.295 253.569 111.796 253.836 111.354C254.103 110.911 254.469 110.537 254.906 110.26L283.529 93.7394C284.376 93.2411 285.066 93.5982 285.066 94.5119Z" fill="#92E3A9"/>
<path d="M285.066 101.166C285.026 101.681 284.866 102.18 284.599 102.623C284.332 103.065 283.966 103.44 283.529 103.716L254.906 120.245C254.075 120.735 253.369 120.387 253.369 119.465C253.409 118.949 253.569 118.45 253.836 118.008C254.103 117.565 254.469 117.191 254.906 116.915L283.529 100.393C284.376 99.8868 285.066 100.252 285.066 101.166Z" fill="#263238"/>
<path d="M283.534 100.394L273.566 106.158V109.481L283.534 103.708C283.971 103.432 284.337 103.057 284.604 102.615C284.871 102.172 285.03 101.673 285.071 101.158C285.071 100.253 284.381 99.8871 283.534 100.394Z" fill="#92E3A9"/>
<path d="M286.415 112.039L252.027 131.891C251.58 132.182 251.208 132.574 250.941 133.036C250.674 133.498 250.52 134.016 250.49 134.549V147.639C250.49 148.619 251.171 149.018 252.019 148.528L286.406 128.676C286.854 128.383 287.226 127.99 287.493 127.526C287.76 127.063 287.914 126.544 287.943 126.01V112.927C287.951 111.947 287.303 111.515 286.415 112.039Z" fill="#455A64"/>
<path d="M285.066 117.803C285.026 118.318 284.866 118.817 284.599 119.26C284.332 119.703 283.966 120.077 283.529 120.353L254.906 136.883C254.075 137.373 253.369 137.024 253.369 136.102C253.409 135.586 253.569 135.088 253.836 134.645C254.103 134.202 254.469 133.828 254.906 133.552L283.529 117.031C284.376 116.541 285.066 116.889 285.066 117.803Z" fill="#92E3A9"/>
<path d="M285.066 124.456C285.026 124.971 284.866 125.47 284.599 125.912C284.332 126.355 283.966 126.729 283.529 127.006L254.906 143.535C254.075 144.025 253.369 143.676 253.369 142.754C253.409 142.239 253.569 141.74 253.836 141.297C254.103 140.855 254.469 140.48 254.906 140.204L283.529 123.683C284.376 123.193 285.066 123.542 285.066 124.456Z" fill="#263238"/>
<path d="M283.532 123.683L267.75 132.778V136.101L283.532 127.006C283.969 126.729 284.335 126.355 284.602 125.912C284.869 125.47 285.028 124.971 285.068 124.455C285.068 123.542 284.379 123.193 283.532 123.683Z" fill="#92E3A9"/>
<path d="M286.415 135.329L252.027 155.18C251.58 155.472 251.208 155.864 250.941 156.326C250.674 156.788 250.52 157.306 250.49 157.838V170.929C250.49 171.909 251.171 172.3 252.019 171.809L286.406 151.958C286.853 151.666 287.225 151.274 287.492 150.812C287.759 150.35 287.913 149.832 287.943 149.3V136.209C287.951 135.229 287.303 134.838 286.415 135.329Z" fill="#455A64"/>
<path d="M285.066 141.093C285.026 141.608 284.866 142.107 284.599 142.549C284.332 142.992 283.966 143.366 283.529 143.643L254.906 160.172C254.075 160.654 253.369 160.313 253.369 159.391C253.409 158.876 253.569 158.377 253.836 157.935C254.103 157.492 254.469 157.118 254.906 156.841L283.529 140.312C284.376 139.83 285.066 140.171 285.066 141.093Z" fill="#92E3A9"/>
<path d="M285.066 147.746C285.026 148.261 284.866 148.76 284.599 149.203C284.332 149.646 283.966 150.02 283.529 150.296L254.906 166.826C254.075 167.316 253.369 166.967 253.369 166.045C253.409 165.53 253.569 165.031 253.836 164.588C254.103 164.145 254.469 163.771 254.906 163.495L283.529 146.974C284.376 146.484 285.066 146.824 285.066 147.746Z" fill="#263238"/>
<path d="M283.533 146.973L262.02 159.391V162.713L283.533 150.254C283.969 149.978 284.336 149.603 284.603 149.161C284.869 148.718 285.029 148.219 285.069 147.704C285.069 146.824 284.38 146.483 283.533 146.973Z" fill="#92E3A9"/>
<path d="M237.533 63.7455C235.938 62.8235 234.65 63.6625 234.65 65.6227V141.716C234.692 142.75 234.974 143.76 235.474 144.665C235.974 145.571 236.679 146.347 237.533 146.932C239.119 147.854 240.407 147.015 240.407 145.055V68.9618C240.366 67.9287 240.086 66.9192 239.587 66.0137C239.088 65.1081 238.384 64.3315 237.533 63.7455Z" fill="#37474F"/>
<path d="M237.532 145.246C237.105 144.954 236.751 144.566 236.501 144.113C236.25 143.66 236.108 143.155 236.087 142.638V66.3366C236.087 65.3565 236.735 64.9329 237.532 65.398C237.957 65.6902 238.308 66.0772 238.557 66.5284C238.807 66.9796 238.948 67.4827 238.969 67.9979V144.307C238.969 145.279 238.296 145.703 237.532 145.246Z" fill="#263238"/>
<path d="M237.532 145.247C237.105 144.955 236.751 144.567 236.501 144.114C236.25 143.662 236.108 143.156 236.087 142.639V106.158L238.969 107.819V144.3C238.969 145.281 238.296 145.704 237.532 145.247Z" fill="#92E3A9"/>
<path d="M228.883 58.7514C227.288 57.8294 226.001 58.6683 226.001 60.6286V136.722C226.038 137.757 226.319 138.768 226.819 139.674C227.32 140.58 228.027 141.356 228.883 141.938C230.47 142.86 231.765 142.021 231.765 140.061V63.9677C231.724 62.9339 231.442 61.9239 230.942 61.0183C230.442 60.1127 229.737 59.3364 228.883 58.7514Z" fill="#37474F"/>
<path d="M228.884 140.254C228.456 139.962 228.103 139.574 227.852 139.121C227.601 138.668 227.46 138.163 227.438 137.646V61.3447C227.438 60.3646 228.086 59.9493 228.884 60.4061C229.31 60.6991 229.661 61.0874 229.911 61.5402C230.16 61.993 230.301 62.4977 230.321 63.0143V139.315C230.321 140.295 229.681 140.711 228.884 140.254Z" fill="#92E3A9"/>
<path d="M220.24 53.7708C218.653 52.8405 217.357 53.6877 217.357 55.6397V131.733C217.399 132.767 217.681 133.777 218.181 134.682C218.681 135.588 219.386 136.364 220.24 136.949C221.834 137.871 223.122 137.032 223.122 135.072V58.9871C223.085 57.9524 222.804 56.941 222.304 56.0348C221.803 55.1286 221.096 54.353 220.24 53.7708Z" fill="#37474F"/>
<path d="M220.241 135.26C219.813 134.971 219.46 134.585 219.21 134.133C218.96 133.681 218.821 133.176 218.804 132.66V56.3512C218.804 55.3793 219.443 54.9557 220.241 55.4126C220.668 55.7046 221.021 56.0926 221.272 56.5454C221.523 56.9982 221.665 57.5034 221.686 58.0207V134.322C221.686 135.302 221.038 135.725 220.241 135.26Z" fill="#263238"/>
<path d="M220.241 135.26C219.813 134.97 219.46 134.584 219.21 134.132C218.96 133.68 218.821 133.176 218.804 132.66V73.6855L221.686 75.3468V134.321C221.686 135.301 221.038 135.725 220.241 135.26Z" fill="#92E3A9"/>
<path d="M211.601 48.7768C210.006 47.8548 208.719 48.6937 208.719 50.654V126.739C208.756 127.774 209.036 128.785 209.537 129.691C210.038 130.597 210.745 131.373 211.601 131.955C213.187 132.877 214.475 132.038 214.475 130.078V53.9931C214.435 52.96 214.154 51.9505 213.655 51.0449C213.156 50.1394 212.453 49.3627 211.601 48.7768Z" fill="#37474F"/>
<path d="M211.6 130.27C211.173 129.979 210.821 129.592 210.57 129.141C210.319 128.689 210.177 128.186 210.154 127.67V51.3691C210.154 50.3889 210.802 49.9653 211.6 50.4222C212.025 50.7151 212.377 51.1035 212.627 51.5562C212.876 52.009 213.016 52.5138 213.037 53.0303V129.331C213.037 130.311 212.389 130.735 211.6 130.27Z" fill="#263238"/>
<path d="M211.6 130.27C211.173 129.979 210.821 129.592 210.57 129.141C210.319 128.689 210.177 128.186 210.154 127.67V114.787L213.037 116.448V129.323C213.037 130.311 212.389 130.735 211.6 130.27Z" fill="#92E3A9"/>
<path d="M202.954 43.7846C201.359 42.8626 200.071 43.7015 200.071 45.6618V121.747C200.109 122.781 200.389 123.793 200.89 124.699C201.39 125.605 202.097 126.381 202.954 126.963C204.54 127.893 205.836 127.046 205.836 125.094V49.0009C205.795 47.9671 205.513 46.9571 205.012 46.0515C204.512 45.1459 203.807 44.3696 202.954 43.7846Z" fill="#37474F"/>
<path d="M202.954 125.285C202.527 124.993 202.173 124.605 201.922 124.152C201.671 123.699 201.53 123.194 201.509 122.677V46.3757C201.509 45.3955 202.157 44.9719 202.954 45.4371C203.382 45.7264 203.735 46.1127 203.985 46.5646C204.234 47.0164 204.374 47.5209 204.391 48.0369V124.338C204.391 125.318 203.751 125.742 202.954 125.285Z" fill="#263238"/>
<path d="M202.954 125.285C202.527 124.993 202.173 124.605 201.922 124.152C201.671 123.699 201.53 123.194 201.509 122.677V82.8652L204.391 84.5265V124.33C204.391 125.318 203.751 125.742 202.954 125.285Z" fill="#92E3A9"/>
<path d="M239.177 156.186L201.301 134.316C200.619 133.925 200.071 134.241 200.071 135.03V148.827C200.094 149.253 200.217 149.668 200.431 150.037C200.645 150.407 200.943 150.721 201.301 150.953L239.177 172.823C239.858 173.214 240.406 172.898 240.406 172.117V158.312C240.383 157.886 240.26 157.471 240.047 157.102C239.833 156.732 239.535 156.418 239.177 156.186Z" fill="#37474F"/>
<path d="M237.625 160.28C237.625 161.194 236.936 161.543 236.089 161.053L204.392 142.779C203.955 142.503 203.589 142.129 203.322 141.686C203.055 141.243 202.896 140.744 202.855 140.229C202.855 139.307 203.545 138.958 204.392 139.448L236.089 157.722C236.527 157.999 236.894 158.375 237.16 158.819C237.427 159.263 237.586 159.764 237.625 160.28Z" fill="#263238"/>
<path d="M237.626 160.281C237.626 161.195 236.937 161.544 236.09 161.054L213.04 147.764V144.441L236.09 157.731C236.527 158.008 236.893 158.382 237.16 158.825C237.427 159.267 237.586 159.766 237.626 160.281Z" fill="#92E3A9"/>
<path d="M237.625 166.933C237.625 167.846 236.936 168.195 236.089 167.705L204.392 149.432C203.955 149.155 203.589 148.781 203.322 148.338C203.055 147.896 202.896 147.397 202.855 146.882C202.855 145.96 203.545 145.611 204.392 146.101L236.089 164.374C236.527 164.651 236.894 165.027 237.16 165.471C237.427 165.916 237.586 166.416 237.625 166.933Z" fill="#263238"/>
<path d="M237.622 166.932C237.622 167.846 236.932 168.195 236.085 167.705L227.438 162.721V159.398L236.085 164.382C236.522 164.658 236.888 165.033 237.155 165.475C237.422 165.918 237.582 166.417 237.622 166.932Z" fill="#92E3A9"/>
<path d="M197.29 27.0878L243.198 0.574349C243.676 0.336621 244.202 0.212891 244.735 0.212891C245.268 0.212891 245.794 0.336621 246.272 0.574349L292.18 27.0878C292.367 27.1486 292.53 27.2669 292.645 27.4258C292.76 27.5847 292.822 27.776 292.822 27.9724C292.822 28.1688 292.76 28.3601 292.645 28.519C292.53 28.6779 292.367 28.7962 292.18 28.857L246.272 55.3622C245.795 55.6037 245.269 55.7296 244.735 55.7296C244.201 55.7296 243.675 55.6037 243.198 55.3622L197.29 28.857C197.103 28.7962 196.94 28.6779 196.825 28.519C196.71 28.3601 196.647 28.1688 196.647 27.9724C196.647 27.776 196.71 27.5847 196.825 27.4258C196.94 27.2669 197.103 27.1486 197.29 27.0878Z" fill="#455A64"/>
<path d="M245.656 49.067L281.264 28.5008C281.534 28.3277 281.758 28.0927 281.919 27.8152C282.079 27.5378 282.171 27.2261 282.186 26.906V25.7099C282.171 25.3898 282.079 25.0781 281.919 24.8007C281.758 24.5233 281.534 24.2882 281.264 24.1151L245.656 3.53231C245.369 3.38904 245.054 3.31445 244.734 3.31445C244.413 3.31445 244.098 3.38904 243.812 3.53231L208.194 24.1151C207.926 24.2897 207.703 24.5251 207.543 24.8022C207.382 25.0793 207.29 25.3903 207.272 25.7099V26.906C207.29 27.2256 207.382 27.5366 207.543 27.8137C207.703 28.0908 207.926 28.3262 208.194 28.5008L243.812 49.067C244.098 49.2103 244.413 49.2849 244.734 49.2849C245.054 49.2849 245.369 49.2103 245.656 49.067Z" fill="#263238"/>
<path d="M281.263 25.18L245.654 45.7379C245.369 45.885 245.053 45.9618 244.732 45.9618C244.412 45.9618 244.095 45.885 243.81 45.7379L208.193 25.18C208.084 25.1407 207.989 25.0685 207.922 24.9734C207.855 24.8782 207.819 24.7647 207.819 24.6484C207.819 24.5321 207.855 24.4186 207.922 24.3234C207.989 24.2283 208.084 24.1561 208.193 24.1168L243.81 4.26494C244.095 4.11779 244.412 4.04102 244.732 4.04102C245.053 4.04102 245.369 4.11779 245.654 4.26494L281.263 24.1168C281.377 24.152 281.476 24.2225 281.546 24.3182C281.617 24.4139 281.655 24.5296 281.655 24.6484C281.655 24.7672 281.617 24.883 281.546 24.9786C281.476 25.0743 281.377 25.1448 281.263 25.18Z" fill="#455A64"/>
<path d="M244.732 45.9615V49.284C245.053 49.2923 245.371 49.218 245.654 49.068L281.263 28.5018C281.533 28.3287 281.757 28.0937 281.918 27.8163C282.078 27.5388 282.17 27.2271 282.185 26.907V25.7109C282.171 25.4259 282.097 25.1472 281.968 24.8925C281.839 24.6379 281.659 24.413 281.438 24.2324C281.77 24.5231 281.712 24.9218 281.263 25.1793L245.654 45.7372C245.371 45.8901 245.054 45.9673 244.732 45.9615Z" fill="#37474F"/>
<path d="M245.658 39.0836L269.746 25.179C270.019 25.0072 270.247 24.773 270.411 24.4958C270.576 24.2185 270.672 23.906 270.693 23.5842V22.3798C270.673 22.0607 270.58 21.7504 270.42 21.4736C270.26 21.1968 270.038 20.961 269.771 20.785L254.296 11.8392C253.704 11.4679 253.179 10.9989 252.743 10.4521L245.367 0.484608C245.19 0.253028 244.936 0.0928434 244.651 0.0333586C244.365 -0.0261262 244.068 0.0190631 243.814 0.160662L219.726 14.0653C219.457 14.2394 219.233 14.4747 219.073 14.7519C218.913 15.0291 218.82 15.3403 218.804 15.6601V23.5178C218.821 23.8374 218.914 24.1483 219.074 24.4255C219.234 24.7026 219.457 24.938 219.726 25.1126L243.814 39.0172C244.093 39.1747 244.407 39.2629 244.728 39.2745C245.048 39.286 245.367 39.2206 245.658 39.0836Z" fill="#263238"/>
<path d="M243.814 35.7616L228.331 26.8407C228.037 26.6674 227.758 26.4672 227.501 26.2427C227.223 25.9923 226.973 25.714 226.753 25.4121L219.377 15.4446C219.293 15.3386 219.233 15.2154 219.202 15.0838C219.171 14.9521 219.17 14.8153 219.197 14.6829C219.225 14.5505 219.282 14.4259 219.363 14.3178C219.444 14.2097 219.548 14.1208 219.668 14.0575L243.756 0.152852C244.01 0.0112531 244.308 -0.0339393 244.593 0.0255455C244.878 0.0850302 245.132 0.245215 245.309 0.476795L252.685 10.4443C253.072 11.0043 253.556 11.4909 254.114 11.8812L269.688 20.744C269.797 20.7833 269.892 20.8554 269.959 20.9506C270.026 21.0457 270.062 21.1592 270.062 21.2756C270.062 21.3919 270.026 21.5054 269.959 21.6006C269.892 21.6957 269.797 21.7679 269.688 21.8072L245.6 35.7201C245.324 35.8606 245.021 35.9373 244.712 35.9445C244.402 35.9517 244.096 35.8892 243.814 35.7616Z" fill="#455A64"/>
<path d="M219.725 14.1317L243.813 0.227071C244.067 0.0854719 244.365 0.0402795 244.65 0.0997642C244.935 0.159249 245.189 0.319434 245.366 0.551013L252.742 10.5185C252.967 10.8032 253.221 11.0648 253.498 11.2993C253.498 11.2993 227.574 26.2505 227.566 26.2505C227.284 26.0024 227.03 25.7238 226.81 25.4198L219.434 15.4524C219.362 15.3481 219.312 15.2299 219.287 15.1054C219.262 14.9808 219.264 14.8526 219.291 14.7286C219.318 14.6046 219.371 14.4876 219.446 14.3849C219.52 14.2822 219.615 14.196 219.725 14.1317Z" fill="#37474F"/>
<path d="M263.896 21.0331C263.562 20.8612 263.192 20.7715 262.816 20.7715C262.441 20.7715 262.071 20.8612 261.737 21.0331C261.139 21.3737 261.139 21.9302 261.737 22.2791C262.072 22.4471 262.441 22.5346 262.816 22.5346C263.191 22.5346 263.561 22.4471 263.896 22.2791C264.494 21.9302 264.494 21.3737 263.896 21.0331Z" fill="#92E3A9"/>
<path d="M259.577 23.5251C259.242 23.357 258.872 23.2695 258.497 23.2695C258.122 23.2695 257.752 23.357 257.417 23.5251C256.819 23.874 256.819 24.4305 257.417 24.771C257.751 24.943 258.121 25.0327 258.497 25.0327C258.873 25.0327 259.243 24.943 259.577 24.771C260.175 24.4305 260.175 23.874 259.577 23.5251Z" fill="#92E3A9"/>
<path d="M255.258 26.0174C254.922 25.8493 254.55 25.7617 254.174 25.7617C253.798 25.7617 253.427 25.8493 253.09 26.0174C252.96 26.063 252.848 26.1478 252.768 26.2601C252.688 26.3725 252.646 26.5068 252.646 26.6445C252.646 26.7823 252.688 26.9166 252.768 27.029C252.848 27.1413 252.96 27.2261 253.09 27.2717C253.427 27.4398 253.798 27.5274 254.174 27.5274C254.55 27.5274 254.922 27.4398 255.258 27.2717C255.388 27.2261 255.501 27.1413 255.58 27.029C255.66 26.9166 255.703 26.7823 255.703 26.6445C255.703 26.5068 255.66 26.3725 255.58 26.2601C255.501 26.1478 255.388 26.063 255.258 26.0174Z" fill="#263238"/>
<path d="M250.929 28.5175C250.595 28.3456 250.225 28.2559 249.849 28.2559C249.474 28.2559 249.103 28.3456 248.769 28.5175C248.638 28.5609 248.524 28.6444 248.444 28.7562C248.363 28.8681 248.319 29.0025 248.319 29.1405C248.319 29.2784 248.363 29.4129 248.444 29.5247C248.524 29.6366 248.638 29.7201 248.769 29.7634C249.103 29.9354 249.474 30.0251 249.849 30.0251C250.225 30.0251 250.595 29.9354 250.929 29.7634C251.06 29.7201 251.174 29.6366 251.255 29.5247C251.336 29.4129 251.379 29.2784 251.379 29.1405C251.379 29.0025 251.336 28.8681 251.255 28.7562C251.174 28.6444 251.06 28.5609 250.929 28.5175Z" fill="#263238"/>
<path d="M260.658 19.156C260.323 18.9879 259.953 18.9004 259.578 18.9004C259.203 18.9004 258.834 18.9879 258.499 19.156C258.369 19.2015 258.256 19.2863 258.176 19.3987C258.097 19.511 258.054 19.6454 258.054 19.7831C258.054 19.9208 258.097 20.0552 258.176 20.1675C258.256 20.2799 258.369 20.3647 258.499 20.4102C258.834 20.5783 259.203 20.6658 259.578 20.6658C259.953 20.6658 260.323 20.5783 260.658 20.4102C260.788 20.3647 260.901 20.2799 260.98 20.1675C261.06 20.0552 261.103 19.9208 261.103 19.7831C261.103 19.6454 261.06 19.511 260.98 19.3987C260.901 19.2863 260.788 19.2015 260.658 19.156Z" fill="#92E3A9"/>
<path d="M256.338 21.6582C256.002 21.4862 255.631 21.3965 255.254 21.3965C254.877 21.3965 254.505 21.4862 254.17 21.6582C254.039 21.7015 253.925 21.7851 253.844 21.8969C253.763 22.0087 253.72 22.1432 253.72 22.2812C253.72 22.4191 253.763 22.5536 253.844 22.6654C253.925 22.7773 254.039 22.8608 254.17 22.9041C254.506 23.0723 254.877 23.1598 255.254 23.1598C255.63 23.1598 256.001 23.0723 256.338 22.9041C256.469 22.8608 256.583 22.7773 256.663 22.6654C256.744 22.5536 256.788 22.4191 256.788 22.2812C256.788 22.1432 256.744 22.0087 256.663 21.8969C256.583 21.7851 256.469 21.7015 256.338 21.6582Z" fill="#263238"/>
<path d="M250.931 25.6535C251.775 25.6535 252.459 25.2593 252.459 24.773C252.459 24.2868 251.775 23.8926 250.931 23.8926C250.087 23.8926 249.402 24.2868 249.402 24.773C249.402 25.2593 250.087 25.6535 250.931 25.6535Z" fill="#92E3A9"/>
<path d="M247.689 26.6503C247.355 26.4784 246.985 26.3887 246.609 26.3887C246.234 26.3887 245.864 26.4784 245.53 26.6503C244.932 26.9909 244.932 27.5474 245.53 27.8963C245.865 28.0643 246.234 28.1518 246.609 28.1518C246.984 28.1518 247.354 28.0643 247.689 27.8963C248.262 27.5474 248.262 26.9909 247.689 26.6503Z" fill="#263238"/>
<path d="M257.401 17.2888C257.066 17.1207 256.696 17.0332 256.321 17.0332C255.946 17.0332 255.577 17.1207 255.242 17.2888C254.643 17.6376 254.643 18.1942 255.242 18.5347C255.575 18.7067 255.946 18.7964 256.321 18.7964C256.697 18.7964 257.067 18.7067 257.401 18.5347C258.016 18.1942 258.016 17.6543 257.401 17.2888Z" fill="#263238"/>
<path d="M253.09 19.779C252.755 19.611 252.385 19.5234 252.01 19.5234C251.635 19.5234 251.265 19.611 250.93 19.779C250.8 19.8246 250.688 19.9094 250.608 20.0217C250.528 20.1341 250.485 20.2684 250.485 20.4061C250.485 20.5439 250.528 20.6782 250.608 20.7906C250.688 20.9029 250.8 20.9877 250.93 21.0333C251.265 21.2013 251.635 21.2888 252.01 21.2888C252.385 21.2888 252.755 21.2013 253.09 21.0333C253.22 20.9877 253.332 20.9029 253.412 20.7906C253.492 20.6782 253.535 20.5439 253.535 20.4061C253.535 20.2684 253.492 20.1341 253.412 20.0217C253.332 19.9094 253.22 19.8246 253.09 19.779Z" fill="#92E3A9"/>
<path d="M248.771 22.2812C248.437 22.1092 248.067 22.0195 247.691 22.0195C247.315 22.0195 246.945 22.1092 246.611 22.2812C246.48 22.3245 246.366 22.4081 246.285 22.5199C246.205 22.6317 246.161 22.7662 246.161 22.9041C246.161 23.0421 246.205 23.1766 246.285 23.2884C246.366 23.4002 246.48 23.4838 246.611 23.5271C246.946 23.6952 247.316 23.7827 247.691 23.7827C248.066 23.7827 248.436 23.6952 248.771 23.5271C248.902 23.4838 249.016 23.4002 249.097 23.2884C249.177 23.1766 249.221 23.0421 249.221 22.9041C249.221 22.7662 249.177 22.6317 249.097 22.5199C249.016 22.4081 248.902 22.3245 248.771 22.2812Z" fill="#263238"/>
<path d="M246.604 30.9431C246.269 30.775 245.899 30.6875 245.524 30.6875C245.15 30.6875 244.78 30.775 244.445 30.9431C243.847 31.2919 243.847 31.8485 244.445 32.189C244.779 32.361 245.149 32.4507 245.524 32.4507C245.9 32.4507 246.27 32.361 246.604 32.189C247.186 31.8651 247.186 31.3086 246.604 30.9431Z" fill="#92E3A9"/>
<path d="M243.346 29.0917C243.012 28.9198 242.642 28.8301 242.266 28.8301C241.891 28.8301 241.52 28.9198 241.186 29.0917C241.055 29.1351 240.941 29.2186 240.861 29.3304C240.78 29.4423 240.736 29.5767 240.736 29.7147C240.736 29.8527 240.78 29.9871 240.861 30.099C240.941 30.2108 241.055 30.2943 241.186 30.3377C241.52 30.5096 241.891 30.5993 242.266 30.5993C242.642 30.5993 243.012 30.5096 243.346 30.3377C243.477 30.2943 243.591 30.2108 243.672 30.099C243.753 29.9871 243.796 29.8527 243.796 29.7147C243.796 29.5767 243.753 29.4423 243.672 29.3304C243.591 29.2186 243.477 29.1351 243.346 29.0917Z" fill="#263238"/>
<path d="M244.453 24.7712C244.118 24.6031 243.748 24.5156 243.373 24.5156C242.998 24.5156 242.629 24.6031 242.293 24.7712C242.163 24.8168 242.051 24.9016 241.971 25.0139C241.891 25.1263 241.849 25.2606 241.849 25.3983C241.849 25.5361 241.891 25.6704 241.971 25.7827C242.051 25.8951 242.163 25.9799 242.293 26.0254C242.629 26.1935 242.998 26.281 243.373 26.281C243.748 26.281 244.118 26.1935 244.453 26.0254C244.583 25.9799 244.696 25.8951 244.775 25.7827C244.855 25.6704 244.898 25.5361 244.898 25.3983C244.898 25.2606 244.855 25.1263 244.775 25.0139C244.696 24.9016 244.583 24.8168 244.453 24.7712Z" fill="#263238"/>
<path d="M254.178 15.4199C253.842 15.2479 253.471 15.1582 253.094 15.1582C252.717 15.1582 252.345 15.2479 252.01 15.4199C251.879 15.4633 251.765 15.5468 251.684 15.6586C251.603 15.7705 251.56 15.9049 251.56 16.0429C251.56 16.1809 251.603 16.3153 251.684 16.4271C251.765 16.539 251.879 16.6225 252.01 16.6659C252.345 16.8379 252.717 16.9276 253.094 16.9276C253.471 16.9276 253.842 16.8379 254.178 16.6659C254.309 16.6225 254.422 16.539 254.503 16.4271C254.584 16.3153 254.628 16.1809 254.628 16.0429C254.628 15.9049 254.584 15.7705 254.503 15.6586C254.422 15.5468 254.309 15.4633 254.178 15.4199Z" fill="#92E3A9"/>
<path d="M248.77 19.4152C249.614 19.4152 250.298 19.021 250.298 18.5348C250.298 18.0485 249.614 17.6543 248.77 17.6543C247.925 17.6543 247.241 18.0485 247.241 18.5348C247.241 19.021 247.925 19.4152 248.77 19.4152Z" fill="#263238"/>
<path d="M245.533 20.412C245.199 20.2401 244.829 20.1504 244.453 20.1504C244.078 20.1504 243.707 20.2401 243.373 20.412C242.775 20.7526 242.775 21.3091 243.373 21.658C243.708 21.826 244.078 21.9136 244.453 21.9136C244.828 21.9136 245.198 21.826 245.533 21.658C246.131 21.3091 246.131 20.7526 245.533 20.412Z" fill="#92E3A9"/>
<path d="M241.212 22.9041C240.875 22.736 240.504 22.6484 240.128 22.6484C239.751 22.6484 239.38 22.736 239.044 22.9041C238.913 22.9475 238.799 23.031 238.718 23.1428C238.637 23.2547 238.594 23.3891 238.594 23.5271C238.594 23.6651 238.637 23.7995 238.718 23.9114C238.799 24.0232 238.913 24.1067 239.044 24.1501C239.379 24.3221 239.751 24.4118 240.128 24.4118C240.505 24.4118 240.876 24.3221 241.212 24.1501C241.343 24.1067 241.457 24.0232 241.537 23.9114C241.618 23.7995 241.662 23.6651 241.662 23.5271C241.662 23.3891 241.618 23.2547 241.537 23.1428C241.457 23.031 241.343 22.9475 241.212 22.9041Z" fill="#263238"/>
<path d="M240.106 27.2227C239.771 27.0506 239.399 26.9609 239.022 26.9609C238.645 26.9609 238.274 27.0506 237.938 27.2227C237.807 27.266 237.693 27.3495 237.613 27.4614C237.532 27.5732 237.488 27.7077 237.488 27.8456C237.488 27.9836 237.532 28.118 237.613 28.2299C237.693 28.3417 237.807 28.4252 237.938 28.4686C238.274 28.6406 238.645 28.7303 239.022 28.7303C239.399 28.7303 239.771 28.6406 240.106 28.4686C240.237 28.4252 240.351 28.3417 240.432 28.2299C240.513 28.118 240.556 27.9836 240.556 27.8456C240.556 27.7077 240.513 27.5732 240.432 27.4614C240.351 27.3495 240.237 27.266 240.106 27.2227Z" fill="#92E3A9"/>
<path d="M236.857 25.3534C236.523 25.1815 236.153 25.0918 235.777 25.0918C235.402 25.0918 235.032 25.1815 234.698 25.3534C234.1 25.694 234.1 26.2505 234.698 26.5994C235.033 26.7674 235.402 26.855 235.777 26.855C236.152 26.855 236.522 26.7674 236.857 26.5994C237.464 26.2505 237.464 25.694 236.857 25.3534Z" fill="#263238"/>
<path d="M244.684 35.9776V39.3001C245.021 39.3157 245.356 39.2412 245.655 39.0842L269.743 25.1796C270.017 25.0059 270.245 24.7702 270.409 24.4916C270.574 24.213 270.67 23.8994 270.69 23.5765V22.3804C270.673 22.0963 270.597 21.8189 270.467 21.5658C270.337 21.3127 270.156 21.0894 269.935 20.9102C270.267 21.2009 270.209 21.5913 269.768 21.8488L245.68 35.7617C245.374 35.9231 245.029 35.9977 244.684 35.9776Z" fill="#37474F"/>
<path d="M249.558 10.0705C249.438 9.91908 249.268 9.81465 249.078 9.77522C248.889 9.73579 248.691 9.76383 248.52 9.8545L227.539 21.9318C227.459 21.9732 227.389 22.032 227.334 22.1039C227.28 22.1758 227.242 22.2589 227.224 22.3473C227.205 22.4356 227.207 22.5269 227.228 22.6145C227.25 22.7021 227.291 22.7839 227.348 22.8537C227.468 23.0051 227.638 23.1096 227.828 23.149C228.017 23.1884 228.215 23.1604 228.386 23.0697L249.359 11.0091C249.441 10.9677 249.513 10.9083 249.57 10.8354C249.626 10.7624 249.665 10.6778 249.684 10.5876C249.703 10.4975 249.702 10.4043 249.68 10.3147C249.658 10.2252 249.617 10.1417 249.558 10.0705Z" fill="#263238"/>
<path d="M249.561 10.0705C249.44 9.91908 249.27 9.81465 249.081 9.77522C248.891 9.73579 248.694 9.76383 248.522 9.8545L232.915 18.8252L233.787 19.9881L249.361 11.0091C249.444 10.9677 249.516 10.9083 249.572 10.8354C249.628 10.7624 249.667 10.6778 249.686 10.5876C249.706 10.4975 249.704 10.4043 249.682 10.3147C249.661 10.2252 249.619 10.1417 249.561 10.0705Z" fill="#92E3A9"/>
<path d="M247.825 7.74708C247.704 7.59769 247.536 7.49455 247.348 7.45518C247.161 7.41581 246.965 7.44265 246.795 7.53112L225.838 19.6001C225.759 19.6435 225.69 19.7036 225.636 19.7763C225.583 19.849 225.546 19.9325 225.527 20.021C225.509 20.1095 225.51 20.2009 225.531 20.2889C225.552 20.3768 225.591 20.4592 225.647 20.5304C225.768 20.6817 225.938 20.7862 226.127 20.8256C226.317 20.865 226.514 20.837 226.685 20.7463L247.642 8.64416C247.717 8.60051 247.781 8.54164 247.831 8.47138C247.882 8.40113 247.916 8.32107 247.934 8.23643C247.951 8.15179 247.95 8.06446 247.931 7.98014C247.913 7.89583 247.876 7.81641 247.825 7.74708Z" fill="#263238"/>
<path d="M247.822 7.74513C247.702 7.59573 247.534 7.49259 247.346 7.45323C247.158 7.41386 246.963 7.44069 246.792 7.52917L241.576 10.536L242.448 11.674L247.656 8.66712C247.733 8.62238 247.8 8.56141 247.851 8.48844C247.902 8.41547 247.937 8.33225 247.953 8.24455C247.968 8.15684 247.965 8.06675 247.942 7.98051C247.92 7.89428 247.879 7.81396 247.822 7.74513Z" fill="#92E3A9"/>
<path d="M246.089 5.42007C245.969 5.26869 245.799 5.16426 245.609 5.12483C245.42 5.0854 245.222 5.11344 245.051 5.20411L224.07 17.2731C223.99 17.3165 223.922 17.3766 223.868 17.4493C223.814 17.522 223.777 17.6055 223.759 17.694C223.741 17.7825 223.742 17.8739 223.763 17.9619C223.783 18.0498 223.823 18.1322 223.879 18.2034C223.999 18.3547 224.169 18.4592 224.359 18.4986C224.548 18.538 224.746 18.51 224.917 18.4193L245.873 6.31714C245.951 6.2764 246.018 6.21968 246.072 6.15075C246.125 6.08183 246.164 6.00228 246.184 5.91741C246.205 5.83254 246.207 5.74429 246.19 5.65853C246.174 5.57278 246.14 5.49149 246.089 5.42007Z" fill="#263238"/>
<path d="M246.09 5.42007C245.969 5.26869 245.799 5.16426 245.61 5.12483C245.42 5.0854 245.223 5.11344 245.052 5.20411L234.146 11.4587L235.018 12.6216L245.932 6.34206C246.008 6.29661 246.074 6.2351 246.124 6.1618C246.175 6.0885 246.209 6.00514 246.224 5.91748C246.239 5.82983 246.234 5.73996 246.211 5.65408C246.188 5.56821 246.147 5.48837 246.09 5.42007Z" fill="#92E3A9"/>
<path d="M244.361 3.0939C244.24 2.94252 244.07 2.83809 243.881 2.79866C243.691 2.75922 243.494 2.78727 243.323 2.87794L222.341 14.9469C222.262 14.9903 222.193 15.0505 222.139 15.1231C222.086 15.1958 222.048 15.2793 222.03 15.3678C222.012 15.4563 222.013 15.5477 222.034 15.6357C222.055 15.7236 222.094 15.806 222.15 15.8772C222.271 16.0286 222.441 16.133 222.63 16.1724C222.82 16.2119 223.017 16.1838 223.188 16.0931L244.145 3.99097C244.222 3.95023 244.29 3.89351 244.343 3.82458C244.397 3.75566 244.435 3.67611 244.456 3.59124C244.476 3.50637 244.478 3.41812 244.462 3.33236C244.445 3.24661 244.411 3.16532 244.361 3.0939Z" fill="#263238"/>
<path d="M244.359 3.09195C244.239 2.94057 244.069 2.83614 243.879 2.7967C243.69 2.75727 243.492 2.78531 243.321 2.87599L224.267 13.8319L225.139 14.9948L244.16 4.01394C244.24 3.97214 244.309 3.91337 244.364 3.84176C244.418 3.77016 244.456 3.68748 244.475 3.59955C244.494 3.51162 244.494 3.42058 244.474 3.33288C244.454 3.24517 244.415 3.16293 244.359 3.09195Z" fill="#92E3A9"/>
<path d="M203.693 158.144C203.756 158.122 203.824 158.116 203.891 158.126C203.958 158.136 204.021 158.162 204.075 158.202C204.244 158.314 204.384 158.464 204.485 158.64C204.586 158.816 204.645 159.013 204.656 159.215C204.661 159.28 204.652 159.344 204.629 159.405C204.606 159.465 204.57 159.519 204.523 159.564L204.457 159.606L179.488 174.017L177.827 173.07L203.693 158.144Z" fill="#455A64"/>
<path d="M207.064 160.097C207.127 160.073 207.194 160.065 207.261 160.074C207.328 160.082 207.391 160.108 207.446 160.147C207.616 160.258 207.759 160.407 207.861 160.583C207.963 160.759 208.023 160.957 208.036 161.16C208.041 161.226 208.031 161.293 208.007 161.355C207.982 161.417 207.944 161.473 207.894 161.517L207.828 161.559L182.859 175.97L181.198 175.023L207.064 160.097Z" fill="#455A64"/>
<path d="M210.436 162.04C210.5 162.018 210.568 162.012 210.634 162.022C210.701 162.032 210.764 162.059 210.818 162.099C210.987 162.208 211.128 162.357 211.229 162.531C211.33 162.706 211.389 162.902 211.399 163.104C211.405 163.169 211.396 163.235 211.373 163.297C211.35 163.359 211.314 163.415 211.266 163.461L211.192 163.502L186.232 177.914L184.57 176.967L210.436 162.04Z" fill="#455A64"/>
<path d="M213.809 163.985C213.875 163.965 213.944 163.96 214.011 163.97C214.079 163.98 214.143 164.005 214.2 164.043C214.369 164.155 214.509 164.305 214.61 164.481C214.711 164.657 214.77 164.854 214.781 165.057C214.787 165.121 214.778 165.186 214.755 165.246C214.732 165.307 214.696 165.361 214.648 165.405L214.582 165.447L189.613 179.858L187.952 178.911L213.809 163.985Z" fill="#455A64"/>
<path d="M43.1006 245.71C43.184 246.854 43.5357 247.962 44.1274 248.945C44.7191 249.928 45.534 250.757 46.5061 251.366L142.028 306.495C143.084 307.031 144.252 307.311 145.437 307.311C146.622 307.311 147.79 307.031 148.847 306.495L279.487 231.066C280.517 230.522 281.378 229.707 281.978 228.709C282.579 227.712 282.897 226.57 282.897 225.405C282.897 224.241 282.579 223.099 281.978 222.101C281.378 221.104 280.517 220.289 279.487 219.745L183.999 164.616C182.943 164.084 181.776 163.807 180.593 163.807C179.411 163.807 178.244 164.084 177.188 164.616L46.5394 240.045C45.56 240.651 44.7379 241.48 44.1403 242.465C43.5426 243.449 43.1863 244.561 43.1006 245.71Z" fill="#92E3A9"/>
<path opacity="0.7" d="M145.437 299.932V307.308C144.247 307.325 143.072 307.039 142.023 306.477L46.5428 251.365C45.5414 250.841 44.6974 250.06 44.0971 249.102C43.4967 248.144 43.1617 247.044 43.1262 245.914C43.0907 244.785 43.3561 243.666 43.8951 242.672C44.4341 241.678 45.2275 240.846 46.1939 240.26C44.6656 241.356 44.7819 242.959 46.5428 243.973L142.064 299.101C143.1 299.66 144.26 299.946 145.437 299.932Z" fill="black"/>
<path d="M39.9391 240.171C38.9847 239.523 38.1973 238.658 37.6414 237.648C37.0856 236.637 36.7771 235.509 36.7412 234.356V120.445C36.8059 119.263 37.1479 118.114 37.7396 117.089C38.3313 116.065 39.1559 115.194 40.1468 114.547L170.795 39.1186C171.781 38.5006 172.917 38.1629 174.08 38.1417C175.243 38.1205 176.39 38.4165 177.398 38.9981C178.405 39.5796 179.236 40.4247 179.799 41.4425C180.363 42.4603 180.639 43.6124 180.597 44.7751V158.72C180.533 159.902 180.192 161.052 179.6 162.076C179.008 163.101 178.183 163.972 177.191 164.617L46.5426 240.046C45.5293 240.585 44.4032 240.877 43.2557 240.899C42.1083 240.92 40.972 240.671 39.9391 240.171Z" fill="#92E3A9"/>
<path opacity="0.7" d="M46.1356 240.261C45.1592 240.7 44.0986 240.92 43.0281 240.906C41.9577 240.892 40.9033 240.643 39.9391 240.178C38.9852 239.53 38.1981 238.665 37.6423 237.654C37.0865 236.644 36.7778 235.516 36.7412 234.363V120.444C36.7874 119.27 37.1303 118.127 37.738 117.121L44.1337 120.809C43.5235 121.814 43.1778 122.957 43.1287 124.132V238.085C43.1038 240.095 44.4494 241 46.1356 240.261Z" fill="black"/>
<path opacity="0.5" d="M43.1006 124.141V238.086C43.1006 240.253 44.6206 241.134 46.5061 240.046L177.155 164.617C178.146 163.971 178.972 163.101 179.564 162.076C180.155 161.051 180.497 159.901 180.56 158.72V44.7748C180.56 42.5986 179.032 41.7181 177.155 42.8062L46.5394 118.235C45.5408 118.878 44.7086 119.749 44.1109 120.775C43.5133 121.802 43.167 122.955 43.1006 124.141Z" fill="black"/>
<path d="M46.5411 243.982L142.063 299.111C143.119 299.647 144.287 299.926 145.472 299.926C146.657 299.926 147.825 299.647 148.882 299.111L279.481 223.649C281.366 222.561 281.366 220.8 279.481 219.711L184.001 164.616C182.944 164.084 181.778 163.807 180.595 163.807C179.412 163.807 178.246 164.084 177.19 164.616L46.5411 240.045C44.6556 241.133 44.6556 242.894 46.5411 243.982Z" fill="#92E3A9"/>
<path opacity="0.3" d="M46.5411 243.982L142.063 299.111C143.119 299.647 144.287 299.926 145.472 299.926C146.657 299.926 147.825 299.647 148.882 299.111L279.481 223.649C281.366 222.561 281.366 220.8 279.481 219.711L184.001 164.616C182.944 164.084 181.778 163.807 180.595 163.807C179.412 163.807 178.246 164.084 177.19 164.616L46.5411 240.045C44.6556 241.133 44.6556 242.894 46.5411 243.982Z" fill="black"/>
<path d="M48.3768 124.555L174.341 51.8502C175.47 51.2023 176.384 51.7339 176.384 53.038V151.674C176.345 152.383 176.14 153.073 175.785 153.688C175.43 154.303 174.935 154.825 174.341 155.213L48.3768 227.917C47.2472 228.565 46.3252 228.042 46.3252 226.738V128.126C46.3617 127.411 46.5665 126.715 46.923 126.095C47.2796 125.474 47.7777 124.946 48.3768 124.555Z" fill="#FAFAFA"/>
<path d="M131.482 109.163L130.651 131.938C130.651 141.316 124.762 158.253 112.643 170.77C111.774 171.602 110.674 172.152 109.487 172.348C108.872 172.406 108.282 172.431 107.701 172.431C105.109 172.47 102.553 171.822 100.292 170.554L100.217 170.513L100.076 170.421C94.685 167.165 92.027 160.52 92.027 154.257L91.1964 132.487C91.191 131.899 91.411 131.331 91.811 130.9C92.1084 130.547 92.4799 130.263 92.8992 130.07C98.4477 127.578 106.762 117.785 110.666 108.091C110.949 107.402 111.364 107.178 111.829 107.394L111.895 107.435C112.054 107.525 112.198 107.64 112.319 107.776L112.394 107.867C116.547 112.685 124.679 112.676 130.111 108.523C130.526 108.208 130.867 108.108 131.099 108.208C131.382 108.374 131.498 108.673 131.482 109.163Z" fill="#92E3A9"/>
<path opacity="0.2" d="M111.356 107.363C111.199 107.429 111.059 107.528 110.945 107.655C110.832 107.781 110.748 107.931 110.699 108.094C106.795 117.788 98.4809 127.614 92.9324 130.072C92.5131 130.266 92.1416 130.55 91.8442 130.903C91.4442 131.334 91.2242 131.902 91.2296 132.49L92.0602 154.26C92.0602 160.548 94.7182 167.193 100.134 170.424L100.275 170.515L100.35 170.557C102.611 171.825 105.167 172.473 107.759 172.434C108.34 172.434 108.93 172.434 109.545 172.351C110.194 172.26 110.82 172.046 111.389 171.72L111.356 107.363Z" fill="black"/>
<path opacity="0.3" d="M57.6219 241.034L178.893 171.021C179.421 170.754 180.004 170.615 180.596 170.615C181.187 170.615 181.77 170.754 182.298 171.021L188.503 174.601C188.709 174.67 188.889 174.802 189.016 174.979C189.143 175.155 189.211 175.367 189.211 175.585C189.211 175.802 189.143 176.014 189.016 176.191C188.889 176.368 188.709 176.5 188.503 176.569L67.1907 246.574C66.6626 246.84 66.0794 246.979 65.4879 246.979C64.8964 246.979 64.3132 246.84 63.7851 246.574L57.597 243.002C57.3916 242.93 57.214 242.796 57.0892 242.618C56.9644 242.44 56.8987 242.227 56.9015 242.009C56.9042 241.791 56.9752 241.58 57.1045 241.405C57.2338 241.23 57.4148 241.1 57.6219 241.034Z" fill="black"/>
<path opacity="0.3" d="M73.6113 250.227L194.882 180.214C195.409 179.944 195.993 179.803 196.585 179.803C197.177 179.803 197.761 179.944 198.288 180.214L236.438 202.242C236.644 202.311 236.824 202.444 236.951 202.62C237.078 202.797 237.146 203.009 237.146 203.227C237.146 203.444 237.078 203.656 236.951 203.833C236.824 204.009 236.644 204.142 236.438 204.211L115.309 274.157C114.779 274.423 114.194 274.562 113.602 274.562C113.009 274.562 112.424 274.423 111.895 274.157L73.6113 252.221C73.3907 252.163 73.1953 252.034 73.0559 251.854C72.9165 251.674 72.8408 251.452 72.8408 251.224C72.8408 250.996 72.9165 250.775 73.0559 250.594C73.1953 250.414 73.3907 250.285 73.6113 250.227Z" fill="black"/>
<path d="M182.316 211.745L186.112 209.552C186.27 209.461 186.261 209.303 186.112 209.203L181.726 206.67C181.632 206.623 181.528 206.599 181.423 206.599C181.318 206.599 181.214 206.623 181.12 206.67L177.324 208.863C177.158 208.962 177.166 209.112 177.324 209.212L181.718 211.753C181.812 211.798 181.914 211.82 182.018 211.818C182.121 211.817 182.223 211.792 182.316 211.745ZM174.84 203.04L171.019 205.225C170.853 205.324 170.862 205.474 171.019 205.582L175.413 208.115C175.508 208.162 175.611 208.186 175.717 208.186C175.822 208.186 175.926 208.162 176.02 208.115L179.816 205.922C179.974 205.831 179.965 205.673 179.816 205.573L175.43 203.04C175.336 202.991 175.232 202.966 175.127 202.966C175.021 202.966 174.917 202.991 174.824 203.04H174.84ZM162.572 210.117L156.143 213.83C155.985 213.921 155.993 214.079 156.143 214.179L160.537 216.671C160.63 216.717 160.732 216.742 160.836 216.742C160.94 216.742 161.042 216.717 161.135 216.671L167.564 212.958C167.722 212.866 167.714 212.709 167.564 212.609L163.178 210.117C163.082 210.067 162.975 210.042 162.867 210.042C162.759 210.042 162.652 210.067 162.555 210.117H162.572ZM169.275 206.205L165.471 208.398C165.313 208.489 165.321 208.647 165.471 208.746L169.865 211.238C169.959 211.285 170.063 211.31 170.168 211.31C170.273 211.31 170.377 211.285 170.471 211.238L174.267 209.045C174.425 208.954 174.417 208.796 174.267 208.697L169.881 206.163C169.784 206.123 169.679 206.105 169.573 206.113C169.468 206.12 169.366 206.151 169.275 206.205ZM154.407 214.843L150.578 217.003C150.42 217.103 150.428 217.26 150.578 217.36L154.964 219.893C155.058 219.94 155.161 219.965 155.267 219.965C155.372 219.965 155.476 219.94 155.57 219.893L159.366 217.701C159.532 217.609 159.524 217.451 159.366 217.352L154.972 214.86C154.885 214.815 154.789 214.79 154.691 214.788C154.594 214.785 154.496 214.804 154.407 214.843ZM148.858 218.041L145.062 220.234C144.905 220.325 144.913 220.483 145.062 220.583L149.448 223.116C149.542 223.165 149.646 223.19 149.751 223.19C149.857 223.19 149.961 223.165 150.055 223.116L153.85 220.923C154.017 220.832 154.008 220.674 153.85 220.574L149.423 218.058C149.331 218.01 149.23 217.983 149.126 217.98C149.023 217.977 148.92 217.998 148.825 218.041H148.858ZM166.127 228.349L169.931 226.156C170.089 226.065 170.081 225.907 169.931 225.807L165.537 223.274C165.444 223.225 165.34 223.2 165.234 223.2C165.129 223.2 165.025 223.225 164.931 223.274L161.052 225.459C160.894 225.55 160.902 225.708 161.052 225.807L165.438 228.299C165.534 228.362 165.645 228.4 165.759 228.409C165.874 228.417 165.989 228.397 166.094 228.349H166.127ZM160.578 231.555L164.374 229.362C164.541 229.271 164.532 229.113 164.374 229.014L159.98 226.522C159.886 226.475 159.782 226.451 159.677 226.451C159.572 226.451 159.468 226.475 159.374 226.522L155.528 228.632C155.371 228.723 155.379 228.881 155.528 228.98L159.914 231.522C160.009 231.578 160.116 231.611 160.226 231.616C160.336 231.622 160.445 231.601 160.545 231.555H160.578ZM155.03 234.762L158.826 232.569C158.992 232.477 158.984 232.32 158.826 232.22L154.407 229.686C154.313 229.638 154.209 229.612 154.104 229.612C153.998 229.612 153.894 229.638 153.801 229.686L150.005 231.879C149.847 231.971 149.855 232.128 150.005 232.228L154.39 234.762C154.485 234.808 154.588 234.833 154.694 234.833C154.799 234.833 154.903 234.808 154.997 234.762H155.03ZM149.423 237.959L153.219 235.775C153.385 235.675 153.369 235.517 153.219 235.418L148.825 232.884C148.731 232.837 148.627 232.813 148.522 232.813C148.417 232.813 148.313 232.837 148.219 232.884L144.44 235.069C144.282 235.16 144.29 235.318 144.44 235.418L148.825 237.951C148.917 238 149.019 238.026 149.123 238.027C149.227 238.029 149.33 238.006 149.423 237.959ZM176.742 214.951L180.538 212.758C180.696 212.667 180.688 212.509 180.538 212.409L176.153 209.876C176.058 209.829 175.955 209.805 175.849 209.805C175.744 209.805 175.641 209.829 175.546 209.876L171.75 212.019C171.584 212.11 171.593 212.268 171.75 212.368L176.144 214.901C176.237 214.959 176.341 214.993 176.45 215.002C176.558 215.011 176.667 214.993 176.767 214.951H176.742ZM171.617 225.151L180.09 220.259C180.256 220.168 180.239 220.01 180.09 219.91L169.425 213.755C169.33 213.708 169.227 213.684 169.121 213.684C169.016 213.684 168.912 213.708 168.818 213.755L164.441 216.289C164.275 216.38 164.283 216.538 164.441 216.637L170.089 219.893C170.264 219.993 170.272 220.151 170.089 220.242L166.584 222.269C166.426 222.36 166.434 222.518 166.584 222.618L170.978 225.151C171.079 225.21 171.194 225.24 171.31 225.24C171.427 225.24 171.541 225.21 171.642 225.151H171.617ZM143.252 221.247L139.456 223.44C139.298 223.532 139.306 223.689 139.456 223.789L143.841 226.322C143.936 226.369 144.039 226.394 144.145 226.394C144.25 226.394 144.354 226.369 144.448 226.322L148.244 224.13C148.41 224.038 148.402 223.88 148.244 223.781L143.85 221.247C143.76 221.204 143.662 221.181 143.563 221.181C143.464 221.181 143.366 221.204 143.277 221.247H143.252ZM137.728 224.478L133.932 226.671C133.774 226.763 133.783 226.92 133.932 227.02L138.318 229.554C138.411 229.602 138.515 229.628 138.621 229.628C138.727 229.628 138.831 229.602 138.924 229.554L142.72 227.369C142.886 227.269 142.87 227.111 142.72 227.012L138.326 224.52C138.236 224.468 138.136 224.437 138.032 224.43C137.928 224.423 137.824 224.439 137.728 224.478ZM110.002 260.403C110.096 260.452 110.2 260.477 110.305 260.477C110.411 260.477 110.515 260.452 110.608 260.403L114.404 258.218C114.562 258.119 114.554 257.961 114.404 257.861L110.01 255.328C109.918 255.28 109.815 255.256 109.711 255.256C109.607 255.256 109.505 255.28 109.412 255.328L105.608 257.521C105.45 257.612 105.458 257.77 105.608 257.869L110.002 260.403ZM93.3313 250.111L89.5354 252.296C89.3776 252.396 89.3859 252.545 89.5354 252.653L93.9211 255.187C94.0153 255.233 94.1191 255.258 94.2243 255.258C94.3295 255.258 94.4332 255.233 94.5274 255.187L98.3234 252.994C98.4895 252.902 98.4812 252.744 98.3234 252.645L93.9294 250.111C93.8388 250.06 93.7374 250.031 93.6334 250.027C93.5294 250.022 93.4259 250.043 93.3313 250.086V250.111ZM102.269 257.629C102.363 257.675 102.467 257.7 102.572 257.7C102.677 257.7 102.781 257.675 102.875 257.629L106.671 255.436C106.829 255.344 106.821 255.187 106.671 255.087L102.285 252.553C102.191 252.507 102.087 252.482 101.982 252.482C101.877 252.482 101.773 252.507 101.679 252.553L97.8831 254.746C97.717 254.846 97.7253 254.995 97.8831 255.095L102.269 257.629ZM119.795 262.346L123.591 260.162C123.757 260.062 123.749 259.904 123.591 259.805L119.197 257.271C119.103 257.225 118.999 257.2 118.894 257.2C118.789 257.2 118.685 257.225 118.591 257.271L114.795 259.464C114.637 259.556 114.645 259.713 114.795 259.813L119.18 262.346C119.277 262.393 119.384 262.415 119.491 262.411C119.598 262.406 119.702 262.376 119.795 262.322V262.346ZM113.64 265.544C113.734 265.591 113.838 265.616 113.943 265.616C114.048 265.616 114.152 265.591 114.246 265.544L118.042 263.352C118.208 263.26 118.192 263.102 118.042 263.003L113.648 260.469C113.554 260.422 113.45 260.398 113.345 260.398C113.24 260.398 113.136 260.422 113.042 260.469L109.246 262.662C109.088 262.762 109.097 262.911 109.246 263.011L113.64 265.544ZM98.8799 246.905L95.084 249.098C94.9261 249.189 94.9344 249.347 95.084 249.447L99.4779 251.98C99.5701 252.029 99.6727 252.055 99.777 252.055C99.8812 252.055 99.9838 252.029 100.076 251.98L103.88 249.796C104.038 249.696 104.03 249.547 103.88 249.439L99.4862 246.947C99.3953 246.893 99.2932 246.862 99.188 246.855C99.0827 246.847 98.9773 246.865 98.8799 246.905ZM126.631 230.883L122.843 233.05C122.677 233.142 122.694 233.3 122.843 233.399L127.237 235.933C127.332 235.98 127.435 236.004 127.541 236.004C127.646 236.004 127.749 235.98 127.844 235.933L131.64 233.74C131.797 233.648 131.789 233.491 131.64 233.391L127.254 230.858C127.158 230.808 127.051 230.782 126.942 230.782C126.834 230.782 126.727 230.808 126.631 230.858V230.883ZM104.437 243.699L100.632 245.892C100.475 245.983 100.483 246.141 100.632 246.241L105.026 248.774C105.121 248.821 105.224 248.845 105.33 248.845C105.435 248.845 105.539 248.821 105.633 248.774L109.429 246.581C109.587 246.49 109.578 246.332 109.429 246.232L105.035 243.699C104.944 243.648 104.843 243.62 104.739 243.615C104.635 243.611 104.531 243.631 104.437 243.674V243.699ZM132.18 227.676L128.384 229.869C128.217 229.969 128.234 230.118 128.384 230.218L132.778 232.76C132.872 232.807 132.976 232.831 133.081 232.831C133.186 232.831 133.29 232.807 133.384 232.76L137.18 230.567C137.346 230.476 137.329 230.318 137.18 230.218L132.811 227.668C132.715 227.614 132.607 227.585 132.497 227.582C132.387 227.579 132.278 227.603 132.18 227.651V227.676ZM121.082 234.089L117.286 236.282C117.12 236.373 117.129 236.531 117.286 236.63L121.68 239.122C121.775 239.169 121.878 239.194 121.984 239.194C122.089 239.194 122.193 239.169 122.287 239.122L126.083 236.929C126.241 236.83 126.232 236.68 126.083 236.581L121.697 234.039C121.6 233.995 121.494 233.974 121.387 233.978C121.28 233.982 121.176 234.012 121.082 234.064V234.089ZM115.534 237.295L111.738 239.43C111.572 239.521 111.58 239.679 111.738 239.778L116.132 242.312C116.226 242.361 116.33 242.386 116.435 242.386C116.541 242.386 116.645 242.361 116.738 242.312L120.534 240.119C120.692 240.028 120.684 239.87 120.534 239.77L116.149 237.278C116.055 237.227 115.949 237.199 115.842 237.198C115.735 237.196 115.629 237.221 115.534 237.27V237.295ZM109.985 240.493L106.231 242.661C106.065 242.752 106.073 242.91 106.231 243.01L110.625 245.551C110.719 245.598 110.823 245.623 110.928 245.623C111.033 245.623 111.137 245.598 111.231 245.551L115.027 243.358C115.185 243.267 115.177 243.109 115.027 243.01L110.641 240.476C110.542 240.42 110.429 240.389 110.314 240.388C110.2 240.386 110.087 240.414 109.985 240.468V240.493ZM138.351 244.397L142.147 242.204C142.305 242.113 142.297 241.955 142.147 241.855L137.761 239.322C137.667 239.275 137.563 239.25 137.458 239.25C137.353 239.25 137.249 239.275 137.155 239.322L133.359 241.514C133.193 241.606 133.21 241.764 133.359 241.863L137.753 244.397C137.845 244.445 137.946 244.471 138.05 244.474C138.154 244.477 138.257 244.456 138.351 244.413V244.397ZM187.092 195.98L183.288 198.173C183.13 198.264 183.138 198.422 183.288 198.521L187.682 201.013C187.776 201.06 187.88 201.085 187.985 201.085C188.09 201.085 188.194 201.06 188.288 201.013L192.084 198.821C192.242 198.721 192.234 198.571 192.084 198.472L187.69 195.93C187.596 195.886 187.492 195.866 187.388 195.87C187.284 195.875 187.183 195.904 187.092 195.955V195.98ZM180.372 199.859L176.576 202.052C176.41 202.143 176.418 202.301 176.576 202.401L180.97 204.934C181.064 204.983 181.168 205.008 181.273 205.008C181.379 205.008 181.483 204.983 181.577 204.934L185.373 202.749C185.53 202.65 185.522 202.492 185.373 202.392L180.987 199.842C180.892 199.793 180.787 199.766 180.681 199.765C180.574 199.763 180.468 199.787 180.372 199.834V199.859ZM192.616 192.749L188.82 194.942C188.654 195.033 188.662 195.191 188.82 195.29L193.214 197.824C193.308 197.871 193.412 197.895 193.517 197.895C193.622 197.895 193.726 197.871 193.82 197.824L197.616 195.631C197.774 195.54 197.765 195.382 197.616 195.282L193.23 192.749C193.135 192.7 193.03 192.675 192.923 192.675C192.816 192.675 192.711 192.7 192.616 192.749ZM163.893 222.369L167.689 220.176C167.846 220.084 167.838 219.927 167.689 219.827L163.303 217.335C163.209 217.288 163.105 217.264 163 217.264C162.895 217.264 162.791 217.288 162.697 217.335L158.892 219.495C158.735 219.594 158.743 219.744 158.892 219.844L163.286 222.385C163.385 222.434 163.494 222.457 163.604 222.455C163.714 222.452 163.822 222.422 163.918 222.369H163.893ZM198.779 189.559C198.685 189.512 198.581 189.488 198.476 189.488C198.37 189.488 198.267 189.512 198.172 189.559L194.377 191.752C194.21 191.852 194.219 192.001 194.377 192.101L198.771 194.642C198.865 194.689 198.968 194.714 199.074 194.714C199.179 194.714 199.283 194.689 199.377 194.642L203.173 192.45C203.331 192.358 203.322 192.2 203.173 192.101L198.779 189.559ZM143.883 241.166L147.679 238.973C147.845 238.881 147.828 238.724 147.679 238.624L143.285 236.132C143.191 236.085 143.087 236.061 142.982 236.061C142.877 236.061 142.773 236.085 142.679 236.132L138.883 238.325C138.717 238.425 138.733 238.574 138.883 238.674L143.268 241.215C143.37 241.259 143.48 241.277 143.59 241.268C143.7 241.26 143.806 241.224 143.9 241.166H143.883ZM211.936 201.877L215.732 199.684C215.89 199.593 215.881 199.435 215.732 199.336L211.346 196.802C211.252 196.755 211.148 196.731 211.043 196.731C210.938 196.731 210.834 196.755 210.74 196.802L206.944 198.995C206.778 199.086 206.794 199.244 206.944 199.344L211.338 201.836C211.429 201.892 211.533 201.926 211.64 201.933C211.747 201.94 211.854 201.921 211.952 201.877H211.936ZM200.116 201.462L203.912 199.269C204.07 199.178 204.062 199.02 203.912 198.92L199.526 196.387C199.432 196.34 199.328 196.316 199.223 196.316C199.118 196.316 199.014 196.34 198.92 196.387L195.107 198.563C194.941 198.654 194.95 198.812 195.107 198.912L199.501 201.404C199.594 201.464 199.7 201.501 199.81 201.511C199.92 201.521 200.031 201.504 200.133 201.462H200.116ZM205.05 193.156C204.956 193.109 204.852 193.084 204.747 193.084C204.642 193.084 204.538 193.109 204.444 193.156L200.648 195.349C200.482 195.448 200.49 195.598 200.648 195.697L205.042 198.239C205.136 198.286 205.24 198.31 205.345 198.31C205.45 198.31 205.554 198.286 205.648 198.239L209.444 196.046C209.602 195.955 209.594 195.797 209.444 195.697L205.05 193.156ZM206.213 192.483L216.878 198.638C216.972 198.687 217.076 198.712 217.181 198.712C217.287 198.712 217.391 198.687 217.484 198.638L221.28 196.445C221.447 196.354 221.43 196.196 221.28 196.096L210.615 189.941C210.522 189.892 210.418 189.867 210.312 189.867C210.206 189.867 210.102 189.892 210.009 189.941L206.213 192.134C206.047 192.25 206.063 192.408 206.23 192.508L206.213 192.483ZM193.363 199.56L189.567 201.753C189.401 201.844 189.409 202.002 189.567 202.101L193.961 204.635C194.055 204.684 194.159 204.709 194.264 204.709C194.37 204.709 194.474 204.684 194.568 204.635L198.364 202.45C198.521 202.351 198.513 202.201 198.364 202.093L193.97 199.56C193.875 199.513 193.772 199.489 193.666 199.489C193.561 199.489 193.457 199.513 193.363 199.56ZM151.591 223.648L147.762 225.882C147.604 225.974 147.612 226.131 147.762 226.231L152.148 228.764C152.242 228.811 152.346 228.836 152.451 228.836C152.556 228.836 152.66 228.811 152.754 228.764L156.55 226.572C156.716 226.472 156.708 226.322 156.55 226.223L152.156 223.681C152.067 223.642 151.97 223.622 151.873 223.624C151.775 223.625 151.679 223.648 151.591 223.689V223.648ZM205.798 205.025C205.892 205.072 205.996 205.096 206.101 205.096C206.206 205.096 206.31 205.072 206.404 205.025L210.2 202.832C210.358 202.741 210.349 202.583 210.2 202.484L205.814 199.992C205.721 199.943 205.617 199.917 205.511 199.917C205.405 199.917 205.301 199.943 205.208 199.992L201.412 202.185C201.246 202.276 201.254 202.434 201.412 202.533L205.798 205.025ZM157.14 220.442L153.344 222.634C153.186 222.726 153.194 222.884 153.344 222.983L157.729 225.558C157.822 225.605 157.925 225.629 158.028 225.629C158.132 225.629 158.235 225.605 158.328 225.558L162.132 223.365C162.29 223.274 162.281 223.116 162.132 223.017L157.729 220.5C157.639 220.453 157.539 220.427 157.436 220.424C157.334 220.421 157.233 220.442 157.14 220.483V220.442ZM115.55 257.13C115.645 257.177 115.748 257.201 115.854 257.201C115.959 257.201 116.063 257.177 116.157 257.13L119.953 254.937C120.111 254.846 120.102 254.688 119.953 254.588L115.567 252.055C115.473 252.008 115.369 251.984 115.264 251.984C115.159 251.984 115.055 252.008 114.961 252.055L111.165 254.248C110.999 254.339 111.007 254.497 111.165 254.597L115.55 257.13ZM107.203 249.281L103.407 251.474C103.241 251.565 103.249 251.723 103.407 251.823L107.801 254.314C107.894 254.363 107.998 254.389 108.104 254.389C108.21 254.389 108.314 254.363 108.407 254.314L112.203 252.122C112.361 252.03 112.353 251.872 112.203 251.773L107.817 249.239C107.716 249.201 107.607 249.189 107.5 249.204C107.392 249.218 107.29 249.259 107.203 249.322V249.281ZM121.705 253.941L125.501 251.748C125.659 251.656 125.651 251.499 125.501 251.399L121.116 248.907C121.021 248.86 120.918 248.836 120.812 248.836C120.707 248.836 120.604 248.86 120.509 248.907L116.688 251.058C116.522 251.15 116.531 251.308 116.688 251.407L121.082 253.949C121.176 254.004 121.282 254.035 121.39 254.041C121.498 254.047 121.606 254.027 121.705 253.982V253.941ZM127.254 250.734L131.05 248.542C131.208 248.45 131.199 248.292 131.05 248.193L126.664 245.659C126.571 245.611 126.467 245.585 126.361 245.585C126.255 245.585 126.151 245.611 126.058 245.659L122.262 247.852C122.096 247.944 122.104 248.101 122.262 248.201L126.656 250.693C126.742 250.754 126.841 250.793 126.945 250.807C127.049 250.822 127.155 250.811 127.254 250.776V250.734ZM132.803 247.537L136.598 245.344C136.756 245.244 136.748 245.094 136.598 244.995L132.213 242.453C132.119 242.406 132.015 242.382 131.91 242.382C131.804 242.382 131.701 242.406 131.606 242.453L127.827 244.679C127.661 244.771 127.669 244.928 127.827 245.028L132.221 247.561C132.312 247.608 132.412 247.634 132.514 247.637C132.616 247.64 132.718 247.62 132.811 247.578L132.803 247.537ZM112.751 246.075L108.955 248.267C108.789 248.359 108.798 248.517 108.955 248.616L113.349 251.15C113.444 251.197 113.547 251.221 113.653 251.221C113.758 251.221 113.861 251.197 113.956 251.15L117.752 248.957C117.909 248.857 117.901 248.708 117.752 248.608L113.366 246.066C113.267 246.026 113.159 246.009 113.053 246.018C112.946 246.026 112.843 246.06 112.751 246.116V246.075ZM118.3 242.868L114.537 245.103C114.371 245.194 114.379 245.352 114.537 245.452L118.931 247.985C119.025 248.032 119.129 248.056 119.234 248.056C119.339 248.056 119.443 248.032 119.537 247.985L123.333 245.792C123.491 245.701 123.483 245.543 123.333 245.443L118.948 242.91C118.848 242.856 118.737 242.828 118.624 242.828C118.511 242.828 118.399 242.856 118.3 242.91V242.868ZM140.494 230.052L136.698 232.245C136.54 232.336 136.549 232.494 136.698 232.594L141.084 235.127C141.177 235.176 141.281 235.201 141.387 235.201C141.493 235.201 141.597 235.176 141.69 235.127L145.486 232.934C145.652 232.843 145.644 232.685 145.486 232.585L141.117 230.11C141.022 230.058 140.916 230.029 140.808 230.026C140.699 230.023 140.592 230.046 140.494 230.093V230.052ZM134.946 233.258L131.15 235.492C130.992 235.584 131 235.742 131.15 235.841L135.535 238.375C135.629 238.422 135.733 238.446 135.838 238.446C135.944 238.446 136.047 238.422 136.142 238.375L139.938 236.182C140.104 236.091 140.095 235.933 139.938 235.833L135.544 233.3C135.451 233.252 135.349 233.228 135.245 233.228C135.141 233.228 135.038 233.252 134.946 233.3V233.258ZM146.043 226.854L142.247 229.039C142.089 229.138 142.097 229.296 142.247 229.396L146.632 231.888C146.727 231.934 146.83 231.959 146.936 231.959C147.041 231.959 147.145 231.934 147.239 231.888L151.035 229.695C151.201 229.603 151.192 229.446 151.035 229.346L146.641 226.812C146.542 226.777 146.436 226.767 146.332 226.781C146.227 226.796 146.128 226.835 146.043 226.896V226.854ZM123.848 239.662L120.052 241.921C119.886 242.021 119.903 242.171 120.052 242.27L124.446 244.812C124.541 244.859 124.644 244.883 124.75 244.883C124.855 244.883 124.959 244.859 125.053 244.812L128.849 242.619C129.007 242.528 128.998 242.37 128.849 242.27L124.463 239.778C124.374 239.718 124.272 239.68 124.165 239.667C124.058 239.654 123.949 239.667 123.848 239.704V239.662ZM129.397 236.464L125.601 238.657C125.443 238.749 125.452 238.906 125.601 239.006L129.987 241.498C130.08 241.547 130.184 241.572 130.29 241.572C130.395 241.572 130.499 241.547 130.593 241.498L134.389 239.313C134.555 239.214 134.538 239.056 134.389 238.956L129.995 236.423C129.896 236.39 129.79 236.38 129.686 236.394C129.583 236.409 129.484 236.447 129.397 236.506V236.464ZM125.335 259.124L129.131 256.931C129.297 256.839 129.289 256.682 129.131 256.582L124.737 254.09C124.644 254.041 124.54 254.016 124.434 254.016C124.328 254.016 124.224 254.041 124.131 254.09L120.351 256.225C120.194 256.316 120.202 256.474 120.351 256.574L124.737 259.107C124.829 259.155 124.931 259.182 125.034 259.185C125.138 259.187 125.241 259.167 125.335 259.124ZM92.7748 255.801L88.3808 253.268C88.2866 253.221 88.1828 253.197 88.0776 253.197C87.9724 253.197 87.8687 253.221 87.7745 253.268L83.9785 255.461C83.8207 255.552 83.829 255.71 83.9785 255.809L88.3642 258.343C88.4584 258.39 88.5622 258.414 88.6674 258.414C88.7726 258.414 88.8764 258.39 88.9706 258.343L92.7665 256.15C92.9409 256.092 92.9409 255.934 92.7831 255.834L92.7748 255.801ZM101.081 258.243L96.687 255.71C96.5943 255.663 96.4919 255.639 96.388 255.639C96.2842 255.639 96.1817 255.663 96.089 255.71L90.2746 259.082C90.1168 259.174 90.1251 259.331 90.2746 259.431L94.6603 261.923C94.7545 261.97 94.8583 261.994 94.9635 261.994C95.0687 261.994 95.1725 261.97 95.2667 261.923L101.081 258.551C101.247 258.534 101.247 258.376 101.098 258.276L101.081 258.243ZM86.0302 250.901L81.6362 248.367C81.542 248.32 81.4382 248.296 81.333 248.296C81.2278 248.296 81.124 248.32 81.0298 248.367L76.3783 251.058C76.2122 251.15 76.2205 251.308 76.3783 251.407L80.7723 253.941C80.8665 253.987 80.9703 254.012 81.0755 254.012C81.1807 254.012 81.2845 253.987 81.3787 253.941L86.0468 251.241C86.2295 251.191 86.2212 251.058 86.0468 250.934L86.0302 250.901ZM89.6101 248.832C89.7038 248.881 89.8078 248.906 89.9133 248.906C90.0189 248.906 90.1229 248.881 90.2165 248.832L94.0124 246.639C94.1786 246.548 94.162 246.39 94.0124 246.291L89.6185 243.799C89.5243 243.752 89.4205 243.728 89.3153 243.728C89.2101 243.728 89.1063 243.752 89.0121 243.799L85.2162 245.992C85.0583 246.083 85.0666 246.241 85.2162 246.34L89.6101 248.832ZM108.831 261.026L104.437 258.534C104.343 258.485 104.239 258.46 104.134 258.46C104.028 258.46 103.924 258.485 103.83 258.534L96.5292 262.687C96.3714 262.778 96.3797 262.936 96.5292 263.036L100.923 265.569C101.016 265.616 101.118 265.64 101.222 265.64C101.326 265.64 101.429 265.616 101.521 265.569L108.831 261.35C109.013 261.308 109.005 261.15 108.831 261.026ZM112.477 266.167L108.083 263.634C107.989 263.587 107.885 263.563 107.78 263.563C107.675 263.563 107.571 263.587 107.477 263.634L102.8 266.333C102.643 266.425 102.651 266.583 102.8 266.682L107.194 269.216C107.289 269.263 107.392 269.287 107.498 269.287C107.603 269.287 107.707 269.263 107.801 269.216L112.469 266.516C112.66 266.45 112.643 266.292 112.477 266.192V266.167ZM130.884 225.018C130.978 225.065 131.082 225.09 131.187 225.09C131.292 225.09 131.396 225.065 131.49 225.018L135.286 222.826C135.452 222.726 135.444 222.576 135.286 222.477L130.892 219.935C130.798 219.888 130.694 219.864 130.589 219.864C130.484 219.864 130.38 219.888 130.286 219.935L126.49 222.128C126.332 222.219 126.34 222.377 126.49 222.477L130.884 225.018ZM119.787 231.422C119.88 231.471 119.984 231.497 120.09 231.497C120.195 231.497 120.299 231.471 120.393 231.422L124.189 229.23C124.355 229.138 124.347 228.98 124.189 228.881L119.795 226.347C119.701 226.301 119.597 226.276 119.492 226.276C119.387 226.276 119.283 226.301 119.189 226.347L115.368 228.565C115.21 228.656 115.218 228.814 115.368 228.914L119.787 231.422ZM95.1753 245.659C95.2695 245.706 95.3733 245.73 95.4785 245.73C95.5837 245.73 95.6875 245.706 95.7817 245.659L99.5776 243.466C99.7437 243.375 99.7354 243.217 99.5776 243.118L95.1836 240.576C95.0894 240.529 94.9857 240.505 94.8805 240.505C94.7753 240.505 94.6715 240.529 94.5773 240.576L90.7647 242.752C90.6069 242.843 90.6152 243.001 90.7647 243.101L95.1753 245.659ZM125.335 228.216C125.429 228.263 125.533 228.287 125.638 228.287C125.744 228.287 125.847 228.263 125.942 228.216L129.738 226.023C129.904 225.932 129.895 225.774 129.738 225.675L125.335 223.183C125.242 223.134 125.138 223.108 125.032 223.108C124.926 223.108 124.822 223.134 124.729 223.183L120.933 225.367C120.775 225.467 120.783 225.625 120.933 225.724L125.335 228.216ZM114.238 234.62C114.332 234.667 114.436 234.692 114.541 234.692C114.646 234.692 114.75 234.667 114.844 234.62L118.64 232.427C118.807 232.336 118.79 232.178 118.64 232.079L114.246 229.537C114.152 229.49 114.048 229.466 113.943 229.466C113.838 229.466 113.734 229.49 113.64 229.537L109.844 231.73C109.686 231.821 109.695 231.979 109.844 232.079L114.238 234.62ZM115.526 266.566C115.431 266.519 115.328 266.495 115.222 266.495C115.117 266.495 115.013 266.519 114.919 266.566L109.105 269.938C108.939 270.03 108.947 270.188 109.105 270.287L113.499 272.821C113.593 272.867 113.697 272.892 113.802 272.892C113.907 272.892 114.011 272.867 114.105 272.821L119.92 269.448C120.077 269.357 120.069 269.199 119.92 269.099L115.526 266.566ZM106.272 239.222C106.367 239.269 106.47 239.293 106.576 239.293C106.681 239.293 106.785 239.269 106.879 239.222L110.675 237.029C110.841 236.938 110.833 236.78 110.675 236.68L106.231 234.188C106.137 234.14 106.033 234.114 105.928 234.114C105.822 234.114 105.718 234.14 105.625 234.188L101.829 236.373C101.671 236.473 101.679 236.622 101.829 236.73L106.272 239.222ZM100.724 242.42C100.818 242.467 100.922 242.491 101.027 242.491C101.132 242.491 101.236 242.467 101.33 242.42L105.126 240.227C105.292 240.136 105.284 239.978 105.126 239.878L100.732 237.345C100.638 237.298 100.534 237.274 100.429 237.274C100.324 237.274 100.22 237.298 100.126 237.345L96.3299 239.538C96.1721 239.629 96.1804 239.787 96.3299 239.886L100.724 242.42ZM218.365 207.243C218.271 207.196 218.167 207.172 218.062 207.172C217.957 207.172 217.853 207.196 217.759 207.243L208.397 212.634C208.231 212.725 208.248 212.883 208.397 212.983L212.791 215.474C212.885 215.523 212.989 215.549 213.095 215.549C213.2 215.549 213.304 215.523 213.398 215.474L222.742 210.084C222.908 209.992 222.892 209.835 222.742 209.735L218.365 207.243ZM206.097 214.328C206.003 214.279 205.899 214.254 205.793 214.254C205.688 214.254 205.584 214.279 205.49 214.328L201.694 216.521C201.536 216.612 201.545 216.77 201.694 216.87L206.08 219.403C206.174 219.452 206.278 219.478 206.383 219.478C206.489 219.478 206.593 219.452 206.686 219.403L210.482 217.21C210.648 217.119 210.64 216.961 210.482 216.862L206.097 214.328ZM130.925 255.917L134.73 253.725C134.887 253.633 134.879 253.475 134.73 253.376L130.319 250.842C130.225 250.796 130.121 250.771 130.016 250.771C129.911 250.771 129.807 250.796 129.713 250.842L125.917 253.035C125.759 253.127 125.767 253.284 125.917 253.384L130.302 255.926C130.395 255.969 130.496 255.99 130.598 255.989C130.7 255.987 130.801 255.963 130.892 255.917H130.925ZM194.999 220.741C194.905 220.694 194.802 220.669 194.696 220.669C194.591 220.669 194.487 220.694 194.393 220.741L190.597 222.933C190.431 223.025 190.448 223.183 190.597 223.282L194.983 225.774C195.077 225.821 195.181 225.845 195.286 225.845C195.391 225.845 195.495 225.821 195.589 225.774L199.385 223.581C199.551 223.49 199.535 223.332 199.385 223.232L194.999 220.741ZM223.913 204.045C223.819 203.998 223.715 203.974 223.61 203.974C223.505 203.974 223.401 203.998 223.307 204.045L219.478 206.205C219.32 206.296 219.328 206.454 219.478 206.554L223.864 209.087C223.958 209.134 224.062 209.158 224.167 209.158C224.272 209.158 224.376 209.134 224.47 209.087L228.266 206.894C228.432 206.803 228.415 206.645 228.266 206.545L223.913 204.045ZM233.881 203.372L223.216 197.217C223.122 197.169 223.018 197.143 222.913 197.143C222.807 197.143 222.703 197.169 222.609 197.217L218.813 199.402C218.656 199.502 218.664 199.659 218.813 199.759L229.47 205.914C229.565 205.961 229.668 205.985 229.773 205.985C229.879 205.985 229.982 205.961 230.077 205.914L233.873 203.721C234.006 203.63 233.997 203.472 233.823 203.372H233.881ZM174.284 232.71C174.191 232.663 174.089 232.639 173.985 232.639C173.881 232.639 173.778 232.663 173.686 232.71L169.009 235.409C168.843 235.501 168.86 235.659 169.009 235.758L173.403 238.292C173.497 238.34 173.601 238.366 173.706 238.366C173.812 238.366 173.916 238.34 174.01 238.292L178.686 235.592C178.844 235.501 178.836 235.343 178.686 235.243L174.284 232.71ZM188.305 224.611C188.21 224.565 188.107 224.54 188.002 224.54C187.896 224.54 187.793 224.565 187.698 224.611L181.884 227.984C181.726 228.075 181.734 228.233 181.884 228.333L186.27 230.866C186.364 230.913 186.468 230.937 186.573 230.937C186.678 230.937 186.782 230.913 186.876 230.866L192.69 227.494C192.856 227.402 192.848 227.244 192.69 227.145L188.305 224.611ZM161.434 240.127C161.34 240.079 161.236 240.053 161.131 240.053C161.025 240.053 160.921 240.079 160.828 240.127L129.488 258.16C129.33 258.252 129.339 258.409 129.488 258.509L133.874 261.001C133.968 261.048 134.072 261.072 134.177 261.072C134.282 261.072 134.386 261.048 134.48 261.001L165.728 242.951C165.894 242.86 165.886 242.702 165.728 242.603L161.434 240.127ZM128.433 259.182C128.34 259.133 128.236 259.108 128.13 259.108C128.025 259.108 127.921 259.133 127.827 259.182L123.093 261.856C122.935 261.948 122.943 262.106 123.093 262.205L127.487 264.739C127.579 264.786 127.682 264.811 127.786 264.811C127.89 264.811 127.992 264.786 128.085 264.739L132.761 262.039C132.919 261.948 132.91 261.79 132.761 261.69L128.433 259.182ZM167.863 236.423C167.769 236.374 167.665 236.349 167.56 236.349C167.454 236.349 167.35 236.374 167.257 236.423L162.58 239.122C162.422 239.214 162.431 239.371 162.58 239.471L166.966 242.005C167.06 242.051 167.164 242.076 167.269 242.076C167.374 242.076 167.478 242.051 167.572 242.005L172.249 239.305C172.407 239.214 172.398 239.056 172.249 238.956L167.863 236.423ZM122.004 262.895C121.91 262.848 121.806 262.823 121.701 262.823C121.596 262.823 121.492 262.848 121.398 262.895L116.73 265.594C116.564 265.686 116.58 265.843 116.73 265.943L121.124 268.476C121.218 268.523 121.322 268.548 121.427 268.548C121.532 268.548 121.636 268.523 121.73 268.476L126.398 265.777C126.565 265.686 126.556 265.528 126.398 265.428L122.004 262.895ZM180.713 228.997C180.619 228.95 180.515 228.926 180.41 228.926C180.304 228.926 180.201 228.95 180.106 228.997L175.43 231.697C175.272 231.788 175.281 231.946 175.43 232.045L179.824 234.537C179.918 234.586 180.022 234.611 180.127 234.611C180.233 234.611 180.337 234.586 180.43 234.537L185.098 231.846C185.265 231.746 185.248 231.589 185.098 231.489L180.713 228.997ZM200.573 217.534C200.479 217.488 200.375 217.463 200.27 217.463C200.165 217.463 200.061 217.488 199.967 217.534L196.171 219.727C196.013 219.819 196.021 219.976 196.171 220.076L200.556 222.618C200.651 222.665 200.754 222.689 200.86 222.689C200.965 222.689 201.069 222.665 201.163 222.618L204.959 220.425C205.125 220.334 205.108 220.176 204.959 220.076L200.573 217.534ZM212.675 208.697L216.471 206.504C216.629 206.412 216.621 206.255 216.471 206.155L212.085 203.622C211.992 203.573 211.888 203.547 211.782 203.547C211.677 203.547 211.573 203.573 211.479 203.622L207.683 205.814C207.517 205.906 207.534 206.064 207.683 206.163L212.077 208.697C212.17 208.742 212.272 208.766 212.376 208.766C212.48 208.766 212.582 208.742 212.675 208.697ZM187.864 208.53L191.66 206.346C191.818 206.246 191.81 206.088 191.66 205.989L187.275 203.455C187.181 203.407 187.077 203.381 186.972 203.381C186.866 203.381 186.762 203.407 186.668 203.455L182.872 205.648C182.706 205.74 182.723 205.897 182.872 205.997L187.266 208.53C187.358 208.579 187.46 208.605 187.564 208.607C187.668 208.608 187.771 208.585 187.864 208.539V208.53ZM175.289 230.293L186.386 223.889C186.552 223.797 186.544 223.639 186.386 223.54L181.992 221.006C181.898 220.96 181.794 220.935 181.689 220.935C181.584 220.935 181.48 220.96 181.386 221.006L170.272 227.386C170.114 227.485 170.122 227.643 170.272 227.743L174.658 230.276C174.754 230.33 174.861 230.359 174.971 230.362C175.081 230.365 175.19 230.341 175.289 230.293ZM206.52 211.903C206.614 211.952 206.718 211.977 206.823 211.977C206.929 211.977 207.033 211.952 207.127 211.903L210.923 209.718C211.08 209.619 211.072 209.461 210.923 209.361L206.537 206.828C206.443 206.781 206.339 206.757 206.234 206.757C206.128 206.757 206.025 206.781 205.93 206.828L202.135 209.021C201.968 209.112 201.977 209.27 202.135 209.369L206.52 211.903ZM200.855 208.29L204.651 206.105C204.809 206.005 204.801 205.848 204.651 205.748L200.266 203.214C200.171 203.168 200.068 203.143 199.962 203.143C199.857 203.143 199.753 203.168 199.659 203.214L195.838 205.374C195.672 205.465 195.681 205.623 195.838 205.723L200.232 208.256C200.326 208.312 200.432 208.343 200.541 208.348C200.649 208.352 200.758 208.329 200.855 208.281V208.29ZM169.74 233.499L173.536 231.306C173.702 231.215 173.686 231.057 173.536 230.957L169.142 228.424C169.048 228.377 168.944 228.353 168.839 228.353C168.734 228.353 168.63 228.377 168.536 228.424L164.74 230.617C164.574 230.708 164.59 230.866 164.74 230.966L169.126 233.499C169.222 233.546 169.327 233.57 169.434 233.568C169.541 233.567 169.646 233.54 169.74 233.491V233.499ZM194.277 218.98C194.371 219.027 194.475 219.051 194.58 219.051C194.685 219.051 194.789 219.027 194.883 218.98L198.679 216.787C198.845 216.695 198.829 216.538 198.679 216.438L194.277 213.913C194.183 213.866 194.079 213.842 193.974 213.842C193.868 213.842 193.765 213.866 193.67 213.913L189.875 216.106C189.708 216.205 189.725 216.355 189.875 216.455L194.277 218.98ZM142.022 249.513L145.818 247.321C145.976 247.221 145.968 247.071 145.818 246.972L141.383 244.413C141.289 244.367 141.185 244.342 141.08 244.342C140.974 244.342 140.871 244.367 140.776 244.413L136.964 246.615C136.798 246.706 136.806 246.864 136.964 246.963L141.358 249.497C141.455 249.552 141.564 249.582 141.676 249.585C141.787 249.588 141.898 249.563 141.997 249.513H142.022ZM147.571 246.307L151.367 244.114C151.525 244.023 151.516 243.865 151.367 243.765L146.931 241.232C146.837 241.185 146.733 241.161 146.628 241.161C146.523 241.161 146.419 241.185 146.325 241.232L142.529 243.425C142.363 243.516 142.371 243.674 142.529 243.774L146.923 246.307C147.019 246.357 147.126 246.383 147.235 246.383C147.343 246.383 147.45 246.357 147.546 246.307H147.571ZM136.441 252.72L140.245 250.527C140.403 250.435 140.394 250.278 140.245 250.178L135.851 247.644C135.757 247.596 135.653 247.57 135.548 247.57C135.442 247.57 135.338 247.596 135.245 247.644L131.449 249.837C131.291 249.929 131.299 250.087 131.449 250.186L135.843 252.72C135.935 252.767 136.038 252.792 136.142 252.792C136.246 252.792 136.348 252.767 136.441 252.72ZM158.643 239.903L162.439 237.719C162.597 237.619 162.589 237.461 162.439 237.361L158.053 234.828C157.959 234.781 157.855 234.757 157.75 234.757C157.645 234.757 157.541 234.781 157.447 234.828L153.651 237.021C153.485 237.112 153.493 237.27 153.651 237.37L158.045 239.903C158.138 239.949 158.241 239.972 158.345 239.971C158.449 239.97 158.551 239.943 158.643 239.895V239.903ZM153.095 243.109L156.891 240.916C157.048 240.825 157.04 240.667 156.891 240.568L152.505 238.034C152.411 237.987 152.307 237.963 152.202 237.963C152.096 237.963 151.993 237.987 151.898 238.034L148.103 240.227C147.936 240.327 147.945 240.476 148.103 240.576L152.497 243.118C152.591 243.161 152.694 243.181 152.798 243.178C152.901 243.176 153.003 243.149 153.095 243.101V243.109ZM164.192 236.705L167.988 234.512C168.145 234.421 168.137 234.263 167.988 234.163L163.602 231.672C163.508 231.623 163.404 231.597 163.299 231.597C163.193 231.597 163.089 231.623 162.996 231.672L159.2 233.864C159.034 233.956 159.05 234.114 159.2 234.213L163.594 236.747C163.691 236.785 163.795 236.8 163.898 236.791C164.002 236.783 164.102 236.75 164.192 236.697V236.705ZM189.576 189.31C189.67 189.357 189.774 189.381 189.879 189.381C189.984 189.381 190.088 189.357 190.182 189.31L193.978 187.117C194.144 187.026 194.136 186.868 193.978 186.768L192.807 186.095C192.712 186.049 192.609 186.024 192.503 186.024C192.398 186.024 192.294 186.049 192.2 186.095L188.404 188.288C188.247 188.38 188.255 188.537 188.404 188.637L189.576 189.31ZM162.273 206.927C162.367 206.974 162.471 206.999 162.576 206.999C162.681 206.999 162.785 206.974 162.879 206.927L166.675 204.735C166.841 204.643 166.833 204.485 166.675 204.386L162.281 201.852C162.187 201.805 162.083 201.781 161.978 201.781C161.873 201.781 161.769 201.805 161.675 201.852L157.879 204.045C157.721 204.136 157.729 204.294 157.879 204.394L162.273 206.927ZM173.37 200.523C173.464 200.572 173.568 200.598 173.673 200.598C173.779 200.598 173.883 200.572 173.976 200.523L177.772 198.33C177.939 198.239 177.93 198.081 177.772 197.982L173.378 195.448C173.285 195.399 173.181 195.374 173.075 195.374C172.97 195.374 172.866 195.399 172.772 195.448L168.976 197.641C168.818 197.732 168.827 197.89 168.976 197.99L173.37 200.523ZM155.495 210.84C155.589 210.886 155.693 210.911 155.798 210.911C155.903 210.911 156.007 210.886 156.101 210.84L159.906 208.647C160.064 208.555 160.055 208.398 159.906 208.298L155.512 205.806C155.418 205.759 155.314 205.735 155.209 205.735C155.103 205.735 155 205.759 154.905 205.806L151.084 207.949C150.927 208.04 150.935 208.198 151.084 208.298L155.495 210.84ZM167.822 203.713C167.916 203.76 168.02 203.784 168.125 203.784C168.23 203.784 168.334 203.76 168.428 203.713L172.224 201.52C172.39 201.429 172.382 201.271 172.224 201.171L167.83 198.679C167.736 198.632 167.632 198.608 167.527 198.608C167.421 198.608 167.318 198.632 167.223 198.679L163.428 200.872C163.27 200.972 163.278 201.121 163.428 201.221L167.822 203.713ZM144.44 217.244C144.534 217.291 144.637 217.315 144.743 217.315C144.848 217.315 144.952 217.291 145.046 217.244L148.842 215.051C149.008 214.959 149 214.802 148.842 214.702L144.448 212.169C144.354 212.12 144.25 212.094 144.145 212.094C144.039 212.094 143.935 212.12 143.841 212.169L140.046 214.353C139.888 214.453 139.896 214.611 140.046 214.71L144.44 217.244ZM149.988 214.038C150.082 214.084 150.186 214.109 150.291 214.109C150.396 214.109 150.5 214.084 150.594 214.038L154.39 211.845C154.556 211.745 154.548 211.595 154.39 211.496L149.996 208.954C149.902 208.907 149.798 208.883 149.693 208.883C149.588 208.883 149.484 208.907 149.39 208.954L145.536 211.188C145.378 211.28 145.386 211.438 145.536 211.537L149.988 214.038ZM178.495 195.706C178.589 195.754 178.693 195.78 178.798 195.78C178.904 195.78 179.008 195.754 179.101 195.706L182.897 193.521C183.063 193.421 183.055 193.272 182.897 193.164L181.726 192.491C181.632 192.444 181.528 192.42 181.423 192.42C181.318 192.42 181.214 192.444 181.12 192.491L177.324 194.684C177.166 194.775 177.174 194.933 177.324 195.033L178.495 195.706ZM195.107 186.095C195.201 186.144 195.305 186.17 195.411 186.17C195.516 186.17 195.62 186.144 195.714 186.095L199.518 183.903C199.676 183.811 199.668 183.653 199.518 183.554L198.347 182.881C198.253 182.832 198.149 182.807 198.044 182.807C197.938 182.807 197.834 182.832 197.741 182.881L193.945 185.065C193.787 185.165 193.795 185.323 193.945 185.423L195.107 186.095ZM204.336 191.42C204.429 191.468 204.533 191.494 204.639 191.494C204.744 191.494 204.848 191.468 204.942 191.42L208.738 189.227C208.896 189.135 208.887 188.978 208.738 188.878L204.352 186.386C204.259 186.337 204.155 186.312 204.049 186.312C203.944 186.312 203.84 186.337 203.746 186.386L199.95 188.579C199.784 188.67 199.792 188.828 199.95 188.928L204.336 191.42ZM218.207 205.499L222.003 203.306C222.169 203.215 222.153 203.057 222.003 202.957L217.609 200.465C217.515 200.418 217.411 200.394 217.306 200.394C217.201 200.394 217.097 200.418 217.003 200.465L213.207 202.658C213.041 202.749 213.057 202.907 213.207 203.007L217.592 205.54C217.693 205.587 217.803 205.608 217.913 205.601C218.024 205.593 218.13 205.558 218.224 205.499H218.207ZM184.027 192.499C184.121 192.546 184.225 192.571 184.33 192.571C184.435 192.571 184.539 192.546 184.633 192.499L188.429 190.307C188.595 190.215 188.587 190.057 188.429 189.958L187.258 189.285C187.164 189.236 187.06 189.211 186.955 189.211C186.849 189.211 186.745 189.236 186.652 189.285L182.856 191.478C182.698 191.569 182.706 191.727 182.856 191.827L184.027 192.499ZM138.849 220.442C138.944 220.488 139.047 220.513 139.153 220.513C139.258 220.513 139.362 220.488 139.456 220.442L143.252 218.249C143.418 218.157 143.41 218 143.252 217.9L138.858 215.367C138.764 215.32 138.66 215.295 138.555 215.295C138.449 215.295 138.346 215.32 138.251 215.367L134.472 217.559C134.314 217.651 134.323 217.809 134.472 217.908L138.849 220.442Z" fill="#263238"/>
<path opacity="0.3" d="M163.46 253.759L200.921 232.121C201.554 231.801 202.254 231.635 202.964 231.635C203.674 231.635 204.374 231.801 205.007 232.121L226.495 244.531C227.625 245.179 227.625 246.233 226.495 246.89L189.026 268.486C188.394 268.809 187.693 268.978 186.983 268.978C186.272 268.978 185.572 268.809 184.939 268.486L163.46 256.118C162.33 255.462 162.33 254.382 163.46 253.759Z" fill="black"/>
<path d="M39.9421 240.162C40.2727 240.351 40.6238 240.502 40.9887 240.611C40.6228 240.508 40.2712 240.36 39.9421 240.171C39.8281 240.111 39.7197 240.042 39.6182 239.963C39.7219 240.036 39.8301 240.103 39.9421 240.162Z" fill="#92E3A9"/>
<path opacity="0.3" d="M180.562 44.2342C180.321 42.4733 178.901 41.8254 177.181 42.8221L46.5409 118.234C45.5384 118.846 44.7092 119.704 44.1321 120.726L37.7363 117.047C38.3098 116.008 39.139 115.133 40.1451 114.505L170.794 39.1092C171.739 38.515 172.824 38.1793 173.94 38.1357C175.056 38.0922 176.164 38.3423 177.152 38.8611C178.141 39.38 178.977 40.1493 179.575 41.0922C180.173 42.0351 180.514 43.1185 180.562 44.2342Z" fill="black"/>
<path d="M45.9023 240.485C45.9196 240.481 45.9375 240.481 45.9548 240.485H45.9023Z" fill="#92E3A9"/>
<path opacity="0.5" d="M282.897 225.409C282.811 226.553 282.459 227.661 281.867 228.643C281.276 229.625 280.462 230.455 279.491 231.066L148.843 306.495C147.794 307.057 146.619 307.343 145.429 307.325V299.958C146.619 299.975 147.794 299.689 148.843 299.127L279.491 223.648C281.244 222.627 281.36 221.032 279.832 219.936C280.715 220.565 281.448 221.382 281.978 222.329C282.508 223.275 282.822 224.327 282.897 225.409Z" fill="black"/>
<path d="M366.518 160.819L351.259 152.015C350.919 151.832 350.429 151.957 349.831 152.413C349.515 152.646 349.2 152.879 348.884 153.095L348.527 153.319C348.319 153.452 348.111 153.593 347.895 153.718C347.68 153.842 347.596 153.884 347.447 153.975L346.89 154.282L346.375 154.54L345.86 154.789L345.287 155.03C345.13 155.096 344.972 155.171 344.806 155.229L344.183 155.462L343.742 155.62L343.07 155.827L342.671 155.944L341.948 156.126L341.583 156.209C341.334 156.268 341.076 156.317 340.819 156.359L340.503 156.417L339.672 156.533H339.398C339.116 156.533 338.825 156.591 338.568 156.608H338.343H337.446H337.264C336.956 156.608 336.649 156.608 336.342 156.608H336.2C335.885 156.608 335.561 156.608 335.245 156.542H335.154L334.165 156.409H334.115L333.659 156.317L324.19 150.852C323.492 150.462 322.852 150.744 322.437 151.766C316.938 165.421 305.226 179.267 297.419 182.731C297.263 182.797 297.113 182.875 296.97 182.964C296.875 183.019 296.783 183.08 296.696 183.146L296.571 183.23L296.231 183.52C296.114 183.628 296.007 183.745 295.899 183.861C295.342 184.469 295.031 185.262 295.026 186.087L296.156 199.958C296.156 208.904 299.96 218.34 307.727 222.85L322.993 231.647L323.101 231.705C327.045 233.887 331.575 234.773 336.051 234.238C337.723 233.961 339.272 233.185 340.495 232.012C357.572 214.378 365.87 190.481 365.87 177.307L367 162.024C366.991 161.417 366.817 160.994 366.518 160.819Z" fill="#92E3A9"/>
<path opacity="0.4" d="M339.33 159.633C339.178 159.556 339.008 159.52 338.838 159.529C338.667 159.538 338.502 159.591 338.358 159.683L338.192 159.808C338.096 159.904 338.01 160.01 337.935 160.123C337.851 160.267 337.779 160.417 337.719 160.572C336.287 164.08 334.567 167.464 332.577 170.689C330.855 173.524 328.96 176.251 326.904 178.854C325.907 180.1 324.911 181.288 323.906 182.401C323.909 182.414 323.909 182.429 323.906 182.442L323.075 183.364C322.784 183.655 322.51 183.954 322.244 184.236C322.103 184.394 321.962 184.544 321.812 184.685C318.606 187.908 315.466 190.316 312.783 191.504C312.326 191.708 311.907 191.989 311.546 192.335L311.239 192.642C311.221 192.669 311.202 192.694 311.18 192.717L311.239 192.642L295.988 183.854C296 183.831 296.017 183.811 296.038 183.796C296.066 183.751 296.1 183.709 296.138 183.672L296.229 183.588C296.255 183.559 296.283 183.531 296.312 183.505L296.404 183.422C296.482 183.346 296.566 183.274 296.653 183.206L296.777 183.123C296.869 183.065 296.96 182.99 297.051 182.941C297.193 182.848 297.343 182.771 297.5 182.708C305.308 179.244 317.028 165.398 322.518 151.742C322.817 151.011 323.224 150.654 323.69 150.654C323.896 150.662 324.097 150.726 324.271 150.837L333.649 156.369L339.33 159.633Z" fill="white"/>
<path opacity="0.1" d="M366.516 160.82L351.258 152.015C350.925 151.841 350.427 151.965 349.837 152.414C349.53 152.655 349.206 152.887 348.882 153.103L348.533 153.328C348.326 153.46 348.118 153.602 347.902 153.726C347.686 153.851 347.603 153.892 347.453 153.984L346.897 154.291C346.731 154.382 346.556 154.457 346.382 154.54L345.867 154.798L345.285 155.039C345.136 155.113 344.97 155.18 344.812 155.246L344.189 155.471L343.749 155.628L343.068 155.836L342.669 155.952L341.955 156.135L341.597 156.218L340.825 156.368L340.501 156.426C340.235 156.476 339.969 156.509 339.67 156.542H339.396L338.566 156.625H338.341C338.042 156.625 337.743 156.625 337.444 156.625H337.27C336.954 156.625 336.647 156.625 336.34 156.625H336.207C335.883 156.625 335.559 156.584 335.243 156.559H335.152C334.82 156.559 334.487 156.484 334.172 156.434H334.122C333.967 156.414 333.814 156.381 333.665 156.334L339.346 159.607L339.446 159.665C339.662 159.8 339.853 159.972 340.011 160.172C340.051 160.207 340.087 160.246 340.119 160.288C345.933 167.083 357.429 167.074 365.096 161.21C365.677 160.77 366.159 160.629 366.483 160.778H366.533C366.684 160.869 366.799 161.01 366.857 161.177C366.786 161.023 366.666 160.897 366.516 160.82Z" fill="black"/>
<path opacity="0.2" d="M322.752 231.606L307.692 222.935C299.934 218.416 296.122 208.98 296.122 200.034L294.992 186.163C295.001 185.63 295.131 185.106 295.373 184.631C295.615 184.156 295.962 183.743 296.388 183.422C296.199 183.579 296.024 183.751 295.864 183.937L311.123 192.725C310.574 193.338 310.277 194.136 310.292 194.959L311.414 208.831C311.389 217.693 315.126 227.046 322.752 231.606Z" fill="black"/>
<path d="M366.967 162.106L365.837 177.39C365.837 190.597 357.531 214.46 340.47 232.094C339.245 233.273 337.688 234.047 336.009 234.312C331.541 234.863 327.013 233.991 323.068 231.82L322.96 231.762L322.761 231.638C315.128 227.077 311.381 217.733 311.381 208.862L310.26 194.991C310.248 194.171 310.545 193.376 311.091 192.764C311.184 192.656 311.284 192.553 311.39 192.457C311.751 192.11 312.17 191.829 312.627 191.626C315.319 190.43 318.442 188.022 321.665 184.807L322.096 184.359L322.927 183.478L323.758 182.556C324.771 181.435 325.768 180.247 326.765 179.001C328.82 176.397 330.714 173.67 332.438 170.836C334.425 167.614 336.142 164.233 337.571 160.727C337.637 160.571 337.712 160.419 337.795 160.27C337.87 160.159 337.956 160.056 338.053 159.963C338.104 159.916 338.16 159.875 338.219 159.839C338.36 159.743 338.524 159.688 338.694 159.679C338.864 159.67 339.033 159.708 339.182 159.789L339.29 159.839C339.508 159.972 339.699 160.143 339.855 160.345L339.963 160.47C345.777 167.256 357.273 167.248 364.94 161.392C365.513 160.952 366.003 160.81 366.327 160.952H366.369C366.446 160.985 366.512 161.04 366.56 161.109C366.807 161.384 366.951 161.737 366.967 162.106Z" fill="#92E3A9"/>
<path d="M343.042 212.236L333.955 217.477L335.359 201.039C334.27 200.466 333.581 199.046 333.581 197.019C333.581 193.398 335.782 189.195 338.498 187.625C341.214 186.055 343.416 187.716 343.416 191.338C343.357 193.484 342.745 195.578 341.638 197.418L343.042 212.236Z" fill="#455A64"/>
<path d="M343.041 212.234L334.81 207.475L333.954 217.475L343.041 212.234Z" fill="#37474F"/>
<path d="M338.499 187.625C336.52 188.96 335.043 190.919 334.305 193.19L341.639 197.418C342.746 195.578 343.358 193.484 343.417 191.338C343.417 187.716 341.215 186.055 338.499 187.625Z" fill="#37474F"/>
<path d="M349.929 122.054C347.437 120.592 344.231 120.759 341.216 122.495L317.336 136.291C314.846 137.868 312.777 140.026 311.307 142.58C309.837 145.134 309.01 148.007 308.896 150.952V180.206C308.931 180.577 309.064 180.932 309.282 181.234C309.499 181.536 309.794 181.775 310.134 181.926C311.059 182.39 312.081 182.632 313.116 182.632C314.151 182.632 315.173 182.39 316.098 181.926C316.439 181.775 316.733 181.536 316.95 181.234C317.168 180.932 317.301 180.577 317.336 180.206V150.952C317.45 149.487 317.89 148.067 318.625 146.795C319.359 145.523 320.369 144.432 321.58 143.601L345.444 129.787V159.067C345.479 159.439 345.614 159.794 345.833 160.096C346.052 160.399 346.348 160.637 346.69 160.786C347.613 161.253 348.633 161.497 349.668 161.497C350.702 161.497 351.722 161.253 352.645 160.786C352.986 160.636 353.28 160.397 353.498 160.095C353.715 159.792 353.848 159.438 353.883 159.067V129.787C353.9 126.34 352.454 123.508 349.929 122.054Z" fill="#37474F"/>
<path d="M345.441 129.788V159.043C345.477 159.414 345.611 159.77 345.83 160.072C346.049 160.374 346.345 160.613 346.687 160.762C347.075 160.982 347.492 161.147 347.925 161.252V128.359L345.441 129.788Z" fill="#263238"/>
</svg>
