<svg width="324" height="320" viewBox="0 0 324 320" fill="none" xmlns="http://www.w3.org/2000/svg">
<path d="M162 319.906C251.47 319.906 324 279.748 324 230.21C324 180.672 251.47 140.514 162 140.514C72.5299 140.514 0 180.672 0 230.21C0 279.748 72.5299 319.906 162 319.906Z" fill="#F0F0F0"/>
<path d="M176.387 283.713C206.318 283.713 230.581 270.28 230.581 253.71C230.581 237.14 206.318 223.707 176.387 223.707C146.457 223.707 122.193 237.14 122.193 253.71C122.193 270.28 146.457 283.713 176.387 283.713Z" fill="#E0E0E0"/>
<path d="M273.847 250.728C288.904 250.728 301.11 243.971 301.11 235.635C301.11 227.299 288.904 220.541 273.847 220.541C258.789 220.541 246.583 227.299 246.583 235.635C246.583 243.971 258.789 250.728 273.847 250.728Z" fill="#E0E0E0"/>
<path d="M61.6148 269.52C90.1188 269.52 113.226 256.726 113.226 240.944C113.226 225.161 90.1188 212.367 61.6148 212.367C33.1109 212.367 10.0039 225.161 10.0039 240.944C10.0039 256.726 33.1109 269.52 61.6148 269.52Z" fill="#E0E0E0"/>
<path d="M260.113 239.045C252.811 231.601 248.525 201.278 255.643 195.367H291.876C298.972 201.278 294.714 231.558 287.42 239.037L287.221 239.243L286.965 239.492C286.76 239.69 286.54 239.889 286.305 240.081L286.135 240.215L285.582 240.634C285.278 240.852 284.963 241.053 284.638 241.237C278.634 244.7 268.891 244.7 262.888 241.237C262.569 241.053 262.249 240.847 261.937 240.627C261.76 240.499 261.589 240.371 261.426 240.237L261.206 240.066C260.986 239.882 260.773 239.697 260.574 239.506L260.284 239.222L260.113 239.045Z" fill="#37474F"/>
<path d="M288.739 192.99C297.006 197.766 297.006 205.501 288.739 210.276C280.472 215.052 267.067 215.052 258.8 210.276C250.533 205.501 250.533 197.766 258.8 192.99C267.067 188.214 280.472 188.214 288.739 192.99Z" fill="#455A64"/>
<path d="M284.765 195.289C290.832 198.795 290.832 204.472 284.765 207.977C278.698 211.483 268.848 211.483 262.767 207.977C256.685 204.472 256.699 198.795 262.767 195.289C268.834 191.784 278.691 191.784 284.765 195.289Z" fill="#263238"/>
<path d="M262.777 201.299C268.851 197.794 278.694 197.794 284.775 201.299C286.243 202.09 287.492 203.234 288.408 204.627C287.494 206.024 286.245 207.171 284.775 207.962C278.701 211.468 268.858 211.468 262.777 207.962C261.308 207.169 260.06 206.023 259.144 204.627C260.062 203.236 261.31 202.093 262.777 201.299Z" fill="#F5F5F5"/>
<path d="M277.3 191.734L272.133 188.037C272.133 188.037 267.876 165.705 271.559 156.104C275.242 146.503 282.004 146.538 285.233 149.114C288.462 151.69 286.695 159.758 285.375 164.414C283.778 170.027 278.705 195.176 282.281 204.096L277.3 191.734Z" fill="#09A350"/>
<g opacity="0.2">
<path d="M277.302 191.734L272.136 188.037C272.136 188.037 267.879 165.705 271.562 156.104C275.245 146.503 282.007 146.538 285.236 149.114C288.465 151.69 286.698 159.758 285.378 164.414C283.781 170.027 278.707 195.176 282.284 204.096L277.302 191.734Z" fill="black"/>
</g>
<path d="M276.265 189.138C276.36 189.099 276.438 189.028 276.486 188.937C276.534 188.847 276.549 188.742 276.528 188.642C272.313 169.546 281.013 151.798 281.098 151.621C281.149 151.518 281.158 151.399 281.122 151.29C281.086 151.181 281.009 151.09 280.906 151.039C280.804 150.987 280.685 150.978 280.575 151.014C280.466 151.05 280.376 151.128 280.324 151.23C280.232 151.408 271.397 169.425 275.676 188.84C275.702 188.953 275.77 189.05 275.867 189.113C275.964 189.175 276.081 189.197 276.194 189.174L276.265 189.138Z" fill="white"/>
<path d="M275.069 185.923C275.069 185.923 274.487 184.171 277.07 183.723C279.653 183.276 280.618 181.126 280.888 177.521C281.157 173.916 282.222 171.333 285.458 170.801C288.694 170.269 291.305 171.901 293.413 170.276C295.52 168.651 300.963 164.734 305.476 166.522C309.989 168.31 308.52 172.199 306.186 174.683C303.851 177.167 303.149 178.039 304.951 182.12C306.754 186.2 305.441 190.011 301.275 190.969C297.11 191.927 294.775 191.43 294.711 196.007C294.647 200.094 293.817 203.919 289.552 205.466C286.177 206.688 282.549 207.047 279 206.509C277.806 206.405 276.673 205.934 275.757 205.161C274.891 204.288 275.048 203.316 275.048 202.181V185.923H275.069Z" fill="#09A350"/>
<g opacity="0.1">
<path d="M275.069 185.923C275.069 185.923 274.487 184.171 277.07 183.723C279.653 183.276 280.618 181.126 280.888 177.521C281.157 173.916 282.222 171.333 285.458 170.801C288.694 170.269 291.305 171.901 293.413 170.276C295.52 168.651 300.963 164.734 305.476 166.522C309.989 168.31 308.52 172.199 306.186 174.683C303.851 177.167 303.149 178.039 304.951 182.12C306.754 186.2 305.441 190.011 301.275 190.969C297.11 191.927 294.775 191.43 294.711 196.007C294.647 200.094 293.817 203.919 289.552 205.466C286.177 206.688 282.549 207.047 279 206.509C277.806 206.405 276.673 205.934 275.757 205.161C274.891 204.288 275.048 203.316 275.048 202.181V185.923H275.069Z" fill="black"/>
</g>
<path d="M275.07 204.773C275.146 204.773 275.22 204.749 275.281 204.705C275.343 204.66 275.388 204.597 275.411 204.524C282.997 181.994 300.177 172.889 300.347 172.804C300.431 172.76 300.494 172.685 300.524 172.595C300.553 172.505 300.545 172.407 300.503 172.322C300.482 172.279 300.453 172.242 300.417 172.211C300.381 172.18 300.34 172.157 300.295 172.142C300.25 172.128 300.202 172.122 300.155 172.126C300.108 172.13 300.062 172.144 300.021 172.166C299.843 172.258 282.415 181.476 274.73 204.297C274.714 204.342 274.708 204.389 274.711 204.437C274.714 204.484 274.726 204.53 274.747 204.572C274.769 204.615 274.798 204.652 274.834 204.683C274.87 204.714 274.912 204.737 274.957 204.752C274.993 204.766 275.031 204.773 275.07 204.773Z" fill="white"/>
<path d="M285.954 185.128H286.032C290.999 184 298.919 184.61 298.997 184.617C299.092 184.625 299.186 184.596 299.259 184.534C299.332 184.473 299.378 184.386 299.387 184.291C299.391 184.243 299.385 184.196 299.371 184.15C299.356 184.105 299.332 184.063 299.302 184.026C299.271 183.99 299.233 183.96 299.19 183.939C299.148 183.917 299.101 183.904 299.054 183.901C298.727 183.901 290.935 183.276 285.876 184.433C285.793 184.456 285.722 184.508 285.674 184.579C285.626 184.65 285.605 184.736 285.614 184.821C285.624 184.906 285.663 184.985 285.725 185.044C285.787 185.103 285.868 185.138 285.954 185.143V185.128Z" fill="white"/>
<path d="M281.92 195.956C284.183 195.956 286.582 195.807 286.738 195.8C286.785 195.797 286.831 195.785 286.874 195.764C286.916 195.744 286.954 195.714 286.985 195.679C287.017 195.643 287.04 195.601 287.055 195.556C287.07 195.512 287.075 195.464 287.071 195.417C287.07 195.369 287.058 195.322 287.038 195.28C287.017 195.237 286.988 195.198 286.952 195.167C286.916 195.136 286.874 195.112 286.829 195.098C286.784 195.083 286.736 195.078 286.688 195.083C286.639 195.083 281.104 195.424 278.939 195.083C278.845 195.071 278.75 195.095 278.674 195.15C278.597 195.206 278.545 195.288 278.528 195.381C278.513 195.475 278.536 195.571 278.592 195.648C278.648 195.725 278.732 195.777 278.826 195.793C279.852 195.919 280.886 195.974 281.92 195.956Z" fill="white"/>
<path d="M288.285 182.483C288.332 182.48 288.378 182.468 288.421 182.447C288.463 182.427 288.501 182.397 288.532 182.362C288.563 182.326 288.587 182.284 288.602 182.239C288.616 182.194 288.622 182.147 288.618 182.1C288.446 179.524 287.913 176.985 287.036 174.557C286.999 174.468 286.93 174.398 286.843 174.359C286.756 174.321 286.657 174.318 286.567 174.351C286.523 174.368 286.483 174.394 286.449 174.427C286.415 174.46 286.388 174.499 286.369 174.543C286.35 174.587 286.341 174.634 286.341 174.681C286.341 174.728 286.35 174.775 286.369 174.819C287.22 177.178 287.745 179.642 287.93 182.142C287.933 182.234 287.972 182.321 288.039 182.384C288.105 182.448 288.193 182.483 288.285 182.483Z" fill="white"/>
<path d="M274.972 207.211C271.399 208.306 267.602 208.445 263.958 207.616C257.643 206.261 256.117 202.4 256.117 202.4C256.117 202.4 260.616 197.724 264.597 197.433C260.623 196.841 256.578 196.927 252.633 197.688C252.633 197.688 248.978 196.34 249.666 190.23C249.666 190.23 253.108 187.725 261.02 188.704C261.02 188.704 257.054 185.909 250.092 185.078C249.546 185.078 250.291 177.131 250.951 173.582C251.611 170.034 252.931 170.588 255.776 170.893C258.622 171.198 267.577 174.157 268.642 176.194C269.706 178.23 268.642 183.404 268.642 183.404C268.642 183.404 271.246 181.275 271.821 178.663C273.819 178.845 275.715 179.629 277.257 180.913C279.762 183.042 279.038 184.383 278.222 186.49C277.416 188.619 276.31 190.622 274.936 192.437C274.936 192.437 277.604 191.472 280.138 185.114C280.138 185.114 282.756 189.982 283.217 193.466C283.679 196.95 280.372 204.366 274.972 207.211Z" fill="#09A350"/>
<path d="M274.809 207.546C274.745 207.522 274.689 207.481 274.648 207.427C274.606 207.373 274.581 207.309 274.574 207.241C273.623 195.412 260.233 176.926 254.315 173.215C254.234 173.163 254.177 173.083 254.156 172.99C254.134 172.897 254.151 172.799 254.201 172.718C254.255 172.64 254.335 172.585 254.427 172.564C254.519 172.543 254.616 172.557 254.698 172.604C260.715 176.38 274.319 195.163 275.277 207.184C275.281 207.231 275.275 207.278 275.261 207.322C275.247 207.367 275.224 207.408 275.193 207.444C275.163 207.479 275.126 207.509 275.084 207.53C275.043 207.551 274.997 207.564 274.95 207.567C274.902 207.573 274.853 207.565 274.809 207.546Z" fill="white"/>
<path d="M62.0847 266.237C61.7968 266.237 61.5206 266.123 61.317 265.919C61.1134 265.716 60.999 265.439 60.999 265.152V195.388C60.999 195.101 61.1134 194.824 61.317 194.621C61.5206 194.417 61.7968 194.303 62.0847 194.303C62.3727 194.303 62.6489 194.417 62.8525 194.621C63.0561 194.824 63.1705 195.101 63.1705 195.388V265.166C63.1667 265.451 63.0507 265.724 62.8475 265.924C62.6443 266.125 62.3703 266.237 62.0847 266.237Z" fill="#455A64"/>
<path d="M105.233 240.848C105.013 240.846 104.798 240.777 104.618 240.65C104.438 240.523 104.301 240.345 104.225 240.139L82.837 185.994C82.7538 185.732 82.7732 185.448 82.8914 185.2C83.0095 184.951 83.2176 184.757 83.4735 184.656C83.7295 184.555 84.0142 184.555 84.2701 184.656C84.5261 184.757 84.7342 184.951 84.8523 185.199L106.24 239.344C106.295 239.477 106.323 239.62 106.322 239.764C106.321 239.908 106.291 240.05 106.235 240.182C106.178 240.314 106.095 240.434 105.991 240.534C105.887 240.633 105.765 240.711 105.63 240.763C105.504 240.816 105.369 240.845 105.233 240.848Z" fill="#455A64"/>
<path d="M102.66 234.34C102.512 234.341 102.366 234.311 102.23 234.252C102.095 234.194 101.973 234.108 101.872 234L62.0836 191.883L22.3447 233.822C22.2492 233.934 22.1318 234.026 21.9998 234.091C21.8677 234.156 21.7237 234.194 21.5766 234.202C21.4295 234.21 21.2823 234.188 21.1441 234.137C21.0058 234.086 20.8793 234.008 20.7722 233.907C20.6652 233.805 20.5799 233.684 20.5215 233.548C20.4631 233.413 20.4329 233.267 20.4326 233.12C20.4324 232.973 20.4621 232.827 20.52 232.691C20.5779 232.556 20.6627 232.434 20.7694 232.332L61.2889 189.556C61.3933 189.452 61.5174 189.37 61.6539 189.316C61.7904 189.261 61.9366 189.234 62.0836 189.237C62.2311 189.238 62.3768 189.268 62.5121 189.327C62.6474 189.385 62.7696 189.47 62.8713 189.577L103.448 232.524C103.593 232.678 103.69 232.871 103.727 233.08C103.764 233.288 103.739 233.503 103.655 233.698C103.572 233.892 103.433 234.058 103.256 234.175C103.079 234.292 102.872 234.354 102.66 234.354V234.34Z" fill="#455A64"/>
<path d="M18.9069 240.846C18.7708 240.845 18.636 240.819 18.5095 240.768C18.3751 240.717 18.2524 240.639 18.1486 240.539C18.0448 240.439 17.962 240.32 17.9051 240.187C17.8482 240.055 17.8184 239.913 17.8174 239.769C17.8164 239.625 17.8442 239.482 17.8993 239.349L39.2873 185.205C39.3927 184.937 39.6003 184.721 39.8645 184.606C40.1287 184.491 40.4277 184.486 40.6959 184.591C40.9641 184.696 41.1795 184.904 41.2946 185.168C41.4097 185.432 41.4152 185.731 41.3098 186L19.9146 240.144C19.8372 240.349 19.6995 240.526 19.5197 240.651C19.3398 240.777 19.1262 240.845 18.9069 240.846Z" fill="#455A64"/>
<path d="M103.752 232.674L106.59 240.132C106.597 240.196 106.597 240.26 106.59 240.324C106.597 240.368 106.597 240.414 106.59 240.458C106.515 240.666 106.362 240.836 106.164 240.934C105.898 241.067 105.604 241.136 105.306 241.136C105.008 241.136 104.714 241.067 104.447 240.934C104.299 240.856 104.182 240.731 104.114 240.579V240.48L101.495 233.483L103.752 232.674Z" fill="#09A350"/>
<path d="M20.3858 232.674L17.5473 240.132C17.5403 240.196 17.5403 240.26 17.5473 240.324C17.5402 240.368 17.5402 240.414 17.5473 240.458C17.6228 240.666 17.7753 240.836 17.973 240.934C18.2397 241.067 18.5337 241.136 18.8317 241.136C19.1297 241.136 19.4237 241.067 19.6903 240.934C19.8381 240.856 19.9556 240.731 20.0239 240.579V240.48L22.6495 233.483L20.3858 232.674Z" fill="#09A350"/>
<path d="M63.3182 259.752V265.925C63.3082 266.035 63.2694 266.14 63.2059 266.229C63.1423 266.319 63.0562 266.391 62.9563 266.436C62.6805 266.573 62.3769 266.644 62.0693 266.644C61.7616 266.644 61.458 266.573 61.1822 266.436C61.0823 266.391 60.9962 266.319 60.9326 266.229C60.8691 266.14 60.8303 266.035 60.8203 265.925V259.752C61.2043 259.545 61.6334 259.437 62.0693 259.438C62.5051 259.437 62.9342 259.545 63.3182 259.752Z" fill="#09A350"/>
<path d="M106.548 185.219C106.548 183.438 104.987 181.536 101.687 179.4C95.5918 175.44 81.967 167.5 73.4374 162.774C73.4329 162.756 73.424 162.741 73.4115 162.728C73.399 162.716 73.3835 162.707 73.3664 162.703C66.7953 158.722 60.6641 139.746 56.1296 125.32C54.5827 120.409 52.6809 117.627 50.4527 116.322C49.9204 116.009 47.9548 114.902 47.5148 114.661C43.0584 111.993 37.204 115.2 29.9161 119.188C23.196 122.864 17.9519 127.569 16.8945 140.051C16.2559 147.659 16.8945 162.185 18.4131 173.191C20.6484 191.577 23.3805 191.641 27.3757 194.685C34.2306 199.986 49.6721 207.459 56.1793 209.992C67.9804 214.633 77.6241 207.473 84.8126 203.925C91.4057 200.588 97.7707 196.819 103.866 192.642C105.661 191.329 106.598 190.009 106.577 188.618C106.541 188.057 106.556 185.794 106.548 185.219Z" fill="#263238"/>
<path d="M84.7897 200.497C91.379 197.166 97.7415 193.404 103.836 189.235C107.923 186.269 107.547 183.232 101.707 179.428C97.3358 176.59 97.5629 176.341 64.6434 158.246C64.6434 158.246 22.6692 183.012 24.4787 187.589C26.2883 192.166 47.9886 203.371 56.1705 206.593C67.9503 211.234 77.5941 204.045 84.7897 200.497Z" fill="#37474F"/>
<path d="M50.1776 116.145C45.7567 113.825 40.0158 116.976 32.9125 120.864C28.3638 123.362 24.4892 126.314 22.1333 131.842L19.1387 130.111C21.4875 124.604 25.3621 121.652 29.8966 119.161C37.1844 115.173 43.0388 111.966 47.4952 114.634C47.8926 114.889 49.4396 115.755 50.1776 116.145Z" fill="#455A64"/>
<path d="M32.9104 120.897C43.8173 114.922 51.5167 110.679 56.1293 125.318C60.6709 139.745 66.7736 158.72 73.3661 162.701C73.3661 162.701 71.2372 160.899 54.9158 173.239C49.7214 177.163 43.4128 180.385 39.3041 182.854C31.1931 187.687 26.2683 189.624 25.4948 188.978C21.2016 185.43 18.8811 154.242 19.9385 141.76C20.9958 129.278 26.1974 124.573 32.9104 120.897Z" fill="#37474F"/>
<g opacity="0.5">
<path d="M32.91 120.897C43.8169 114.922 51.5163 110.679 56.1289 125.318C60.6705 139.745 66.7732 158.72 73.3657 162.701C73.3657 162.701 62.1039 162.701 45.7826 171.507C28.8226 180.669 26.2253 189.624 25.4519 188.978C21.1586 185.43 18.8382 154.242 19.8955 141.76C20.9528 129.278 26.197 124.573 32.91 120.897Z" fill="#455A64"/>
</g>
<path d="M241.795 85.9132C244.684 85.2675 247.231 84.6643 249.19 84.1605C259.607 81.4994 262.744 78.0506 263.063 73.4452C263.581 66.0935 260.828 66.0367 256.08 69.3222C254.106 70.7233 251.944 71.839 249.658 72.6362C250.452 71.7287 251.114 70.7133 251.624 69.6203C252.333 67.7895 251.368 66.6186 250.737 66.3063C250.24 66.0651 249.736 67.3353 248.019 68.7404C245.805 70.5357 244.017 70.8692 242.186 73.3742C241.485 74.2962 240.479 74.9379 239.347 75.1837C238.311 75.4179 221.301 80.073 213.332 81.4426C208.656 75.4889 204.313 69.1377 199.367 62.815C191.753 53.0648 188.134 51.7023 183.862 52.4758L180.15 64.7097C180.15 64.7097 205.228 94.2442 205.527 94.6132C206.378 95.7641 207.571 96.6173 208.935 97.0517C210.3 97.4861 211.766 97.4795 213.127 97.0331C223.927 93.861 235.359 88.8866 241.795 85.9132Z" fill="#FFA8A7"/>
<path d="M182.869 50.0156C191.768 50.4059 194.408 55.3946 198.978 60.9296C203.548 66.4647 213.497 80.6643 213.497 80.6643L237.787 75.5834C237.787 75.5834 236.786 82.5589 239.916 86.7599C239.916 86.7599 227.029 93.2601 219.223 96.2476C209.359 100.037 208.714 99.1712 206.932 97.5391C205.151 95.907 183.515 71.4179 183.515 71.4179L182.869 50.0156Z" fill="#37474F"/>
<path d="M82.4598 66.4704C84.7661 59.4735 87.3136 59.1826 90.4572 64.0222C91.7543 66.067 93.3307 67.9204 95.1408 69.5289C94.7399 68.3851 94.501 67.1908 94.4311 65.9808C94.4311 64.0151 95.8078 63.2913 96.5103 63.2487C97.0638 63.2487 97.0426 64.5757 98.107 66.5272C99.4695 69.0322 100.995 70.0256 101.747 73.0273C102.031 74.1556 102.769 76.398 103.713 77.0651C108.538 80.4571 117.309 84.6368 126.031 88.0075C129.125 81.4719 133.205 73.3183 136.313 67.6058C142.231 56.7486 146.149 55.5422 150.456 56.0531L154.841 68.0529C154.841 68.0529 131.424 98.9428 131.183 99.326C129.387 101.852 125.711 103.584 122.852 102.413C114.684 99.0634 108.617 93.1877 101.683 88.4616C97.5677 85.6657 93.6789 83.4943 91.1952 81.6351C82.6017 75.2343 81.0121 70.8559 82.4598 66.4704Z" fill="#FFA8A7"/>
<path d="M144.828 201.504C145.019 192.279 147.794 185.431 148.014 182.87C148.014 182.87 147.304 127.994 147.304 119.089L194.097 117.18C194.097 117.18 193.444 172.197 193.444 179.825C193.444 187.454 192.302 219.876 191.095 234.8L190.96 239.71L180.515 242.96C180.515 242.96 180.713 241.541 180.515 234.558C180.316 227.576 175.625 203.463 175.186 197.339C174.625 189.412 175.895 186.212 175.732 180.918C175.569 175.624 172.482 140.98 172.482 140.98C172.482 140.98 166.62 175.042 165.159 186.574C163.491 199.815 158.126 234.523 158.112 242.591C158.112 244.011 158.112 245.714 158.112 247.523C158.112 251.895 157.991 253.044 158.694 254.733C159.914 257.685 149.469 259.544 148.972 257.444L147.844 248.772V248.524V243.024C147.858 234.8 144.544 214.888 144.828 201.504Z" fill="#FFA8A7"/>
<path d="M211.421 253.406C211.706 254.254 211.655 255.178 211.279 255.989C210.917 256.749 206.972 258.977 201.643 258.615C197.695 258.337 193.892 257.009 190.629 254.769C188.6 253.42 186.485 253.172 183.845 253.016C181.205 252.86 177.743 251.554 177.168 250.319C176.593 249.085 177.253 246.963 177.253 246.963L211.421 253.406Z" fill="#37474F"/>
<path d="M189.925 236.779L190.35 236.687C190.582 236.625 190.824 236.613 191.06 236.652C191.317 236.733 191.544 236.889 191.713 237.099C192.238 237.761 192.694 238.474 193.075 239.228C194.19 241.044 196.538 242.556 199.093 243.932C200.839 244.869 202.542 245.593 204.337 246.402C206.132 247.211 208.595 247.729 210.014 248.694C212.108 250.113 212.377 253.661 210.014 255.038C207.963 256.244 202.556 257.55 196.886 255.946C193.799 255.073 190.372 251.774 186.32 251.454C183.737 251.256 178.862 250.532 177.201 248.573C176.591 247.7 177.407 244.947 178.081 242.577C178.791 239.98 179.692 235.921 180.551 236.148C180.586 236.659 180.487 236.786 180.82 237.134C181.154 237.482 181.565 237.666 181.913 237.964C182.508 238.555 182.989 239.25 183.332 240.015C183.467 240.356 183.718 240.638 184.042 240.81C184.482 240.973 184.801 240.697 185.184 240.526C185.667 240.305 186.214 240.264 186.724 240.413C186.674 239.9 186.583 239.393 186.455 238.894C186.395 238.738 186.381 238.568 186.412 238.404C186.481 238.247 186.598 238.115 186.746 238.028C187.706 237.394 188.789 236.968 189.925 236.779Z" fill="#455A64"/>
<path d="M168.854 268.5C169.166 268.798 169.074 270.828 168.726 271.339C168.378 271.849 166.207 273.751 162.339 274.035C158.642 274.298 155.335 273.801 153.164 272.417C150.992 271.033 149.935 269.515 149.736 267.407C149.538 265.3 149.736 263.263 148.757 261.645C147.828 260.148 146.352 258.459 146.032 257.643C145.323 255.876 146.032 253.35 146.032 253.35L168.854 268.5Z" fill="#37474F"/>
<path d="M158.724 250.093C158.752 250.892 158.895 251.683 159.15 252.442C159.72 254.073 160.482 255.631 161.421 257.083C161.881 257.842 162.396 258.568 162.961 259.254C164.082 260.588 165.473 261.681 166.658 262.958C167.921 264.166 168.728 265.773 168.943 267.507C169.099 270.409 165.948 271.396 163.521 271.821C160.897 272.282 158.203 272.148 155.637 271.431C154.291 271.078 153.074 270.345 152.133 269.32C151.192 268.294 150.566 267.019 150.329 265.648C150.194 264.839 150.244 264.016 150.152 263.207C149.827 261.354 149.053 259.609 147.895 258.126C147.219 257.269 146.639 256.341 146.164 255.358C145.404 253.563 146.008 251.54 146.497 249.752C146.916 248.205 147.384 246.459 147.916 246.601C147.916 247.403 147.916 247.488 148.491 248.021C149.201 248.73 149.243 249.745 150.017 250.348C149.767 249.68 149.586 248.988 149.478 248.283C149.426 248 149.484 247.708 149.641 247.467C149.893 247.239 150.198 247.075 150.528 246.992C151.679 246.599 152.868 246.331 154.076 246.19C155.216 246.002 156.378 246.002 157.518 246.19C157.856 246.253 158.161 246.431 158.383 246.694C158.584 246.983 158.69 247.328 158.689 247.68C158.738 248.134 158.703 249.326 158.724 250.093Z" fill="#455A64"/>
<path d="M161.81 257.684C160.724 256.875 158.304 256.868 156.977 257.01C155.632 257.127 154.339 257.581 153.216 258.33C153.051 258.449 152.85 258.506 152.647 258.491C152.444 258.475 152.254 258.388 152.109 258.245C152.024 258.164 151.958 258.064 151.915 257.955C151.872 257.845 151.854 257.727 151.861 257.609C151.868 257.492 151.901 257.377 151.958 257.274C152.014 257.17 152.092 257.08 152.187 257.01C153.429 256.094 154.905 255.55 156.445 255.442C159.709 255.208 160.66 255.768 160.66 255.768C160.66 255.768 162.136 256.726 161.81 257.684Z" fill="#F5F5F5"/>
<path d="M164.264 260.658C162.902 259.857 160.24 259.949 158.913 260.119C157.59 260.263 156.327 260.752 155.252 261.538C155.087 261.658 154.884 261.715 154.681 261.698C154.478 261.681 154.288 261.591 154.145 261.446C154.06 261.365 153.994 261.266 153.952 261.156C153.91 261.047 153.892 260.929 153.9 260.812C153.908 260.695 153.942 260.581 153.999 260.479C154.056 260.376 154.135 260.287 154.23 260.218C155.486 259.259 156.985 258.672 158.559 258.522C161.816 258.288 162.667 258.955 162.667 258.955C163.044 259.102 163.383 259.331 163.659 259.626C163.935 259.92 164.142 260.273 164.264 260.658Z" fill="#F5F5F5"/>
<path d="M155.125 252.32C156.499 252.081 157.911 252.198 159.227 252.661C159.802 252.987 160.178 253.895 159.809 254.122C158.658 253.659 157.409 253.488 156.176 253.626C154.946 253.741 153.746 254.068 152.628 254.591C152.351 254.718 152.024 254.889 151.733 255.052C151.642 255.102 151.54 255.133 151.436 255.144C151.332 255.154 151.227 255.144 151.127 255.112C151.027 255.081 150.934 255.03 150.854 254.963C150.774 254.895 150.709 254.812 150.662 254.718C150.58 254.556 150.564 254.368 150.616 254.193C150.669 254.019 150.787 253.872 150.946 253.782C152.218 253 153.643 252.502 155.125 252.32Z" fill="#F5F5F5"/>
<path d="M196.682 242.541C196.497 242.187 196.226 241.885 195.894 241.663C195.561 241.441 195.179 241.306 194.78 241.271C193.61 241.051 191.538 241.917 190.246 242.974C190.124 243.074 190.029 243.202 189.968 243.347C189.907 243.492 189.882 243.649 189.896 243.806C189.91 243.963 189.962 244.114 190.048 244.246C190.134 244.378 190.25 244.487 190.388 244.563C190.562 244.659 190.76 244.698 190.957 244.676C191.154 244.655 191.339 244.573 191.488 244.443C192.904 243.154 194.769 242.471 196.682 242.541Z" fill="#F5F5F5"/>
<path d="M200.316 244.586C200.062 244.225 199.725 243.931 199.333 243.728C198.942 243.526 198.507 243.42 198.066 243.422C198.066 243.422 195.001 243.514 193.099 245.281C192.982 245.377 192.891 245.5 192.832 245.64C192.774 245.779 192.749 245.93 192.762 246.081C192.775 246.231 192.823 246.377 192.904 246.504C192.985 246.632 193.096 246.738 193.226 246.814C193.393 246.908 193.585 246.946 193.775 246.925C193.964 246.903 194.143 246.822 194.284 246.693C195.066 245.912 196.015 245.316 197.059 244.951C198.103 244.587 199.216 244.462 200.316 244.586Z" fill="#F5F5F5"/>
<path d="M204.332 246.416C204.041 246.081 203.681 245.814 203.277 245.633C202.873 245.452 202.434 245.36 201.991 245.365C200.25 245.472 198.588 246.128 197.243 247.239C197.127 247.335 197.035 247.458 196.977 247.597C196.918 247.737 196.894 247.888 196.907 248.039C196.919 248.189 196.968 248.334 197.049 248.462C197.13 248.59 197.24 248.696 197.371 248.772C197.538 248.864 197.729 248.902 197.919 248.881C198.109 248.859 198.287 248.779 198.428 248.651C199.169 247.843 200.089 247.219 201.115 246.831C202.14 246.443 203.242 246.301 204.332 246.416Z" fill="#F5F5F5"/>
<path d="M194.128 117.18C194.128 117.18 194.752 155.946 194.837 162.759C194.922 169.571 194.837 182.628 194.837 189.285C194.837 189.285 193.113 192.194 183.277 192.187C173.442 192.18 172.023 189.462 172.023 189.462L170.568 158.125L167.815 190.654C165.825 192.008 163.578 192.94 161.214 193.393C158.85 193.846 156.419 193.81 154.069 193.287C145.972 191.541 144.78 189.128 144.78 189.128L146.377 117.307L194.128 117.18Z" fill="#37474F"/>
<path d="M170.552 158.126L171.971 144.969C171.971 144.969 178.72 143.323 183.233 139.924C181.779 141.688 180.049 143.205 178.109 144.416C175.37 145.956 174.05 146.587 174.05 146.587L172.077 159.318L171.73 184.155L170.552 158.126Z" fill="#263238"/>
<path d="M145.817 123.901C152.239 128.577 181.355 133.765 194.867 123.901C194.867 123.901 194.554 86.1631 193.49 66.1872C193.44 65.2789 193.383 64.399 193.291 63.5474C193.291 63.2636 193.22 62.9797 193.192 62.6959C193.036 61.4985 192.799 60.3131 192.482 59.1478C192.433 58.9562 192.369 58.7646 192.312 58.573C192.177 58.1401 192.042 57.7214 191.865 57.3027C191.78 57.0828 191.687 56.8628 191.588 56.6499C191.489 56.437 191.404 56.2454 191.29 56.0538C191.281 56.0153 191.264 55.9791 191.24 55.9474C191.141 55.7558 191.028 55.5642 190.921 55.3797C190.815 55.1952 190.68 54.9752 190.538 54.7765C190.396 54.5778 190.275 54.4004 190.14 54.2301C190.006 54.0598 189.828 53.8469 189.658 53.6624C189.504 53.4835 189.34 53.3129 189.168 53.1514L188.813 52.8179L188.459 52.527C188.31 52.3921 188.139 52.2715 187.976 52.1509C187.435 51.7716 186.866 51.4347 186.273 51.1432C186.11 51.0652 185.939 50.98 185.769 50.9161C185.728 50.9 185.687 50.881 185.649 50.8594L185.038 50.6323C184.697 50.4983 184.349 50.3823 183.995 50.2846C183.636 50.1852 183.259 50.093 182.867 50.0078C182.427 50.0078 181.944 50.0078 181.448 50.0078H180.383L179.234 50.0504C174.181 50.2704 166.929 51.0864 161.11 51.8315L159.974 51.9877L158.974 52.1083C154.979 52.6334 152.019 53.0663 151.565 53.1373H151.494C150.189 53.4708 148.975 53.783 147.996 54.074C145.328 54.8616 147.286 54.1875 146.726 56.7705C145.001 64.3493 147.01 91.9182 147.01 91.9182L145.817 123.901Z" fill="#455A64"/>
<path d="M157.432 29.2793C157.432 29.2793 159.511 39.0366 160.341 40.6333C160.898 41.6205 161.812 42.3569 162.896 42.6912L162.747 35.8291L157.432 29.2793Z" fill="#263238"/>
<path d="M160.006 15.3057C159.28 15.2236 158.544 15.3089 157.855 15.5549C157.166 15.8008 156.543 16.2011 156.032 16.7249C154.329 18.4564 155.301 23.8921 157.43 29.2781L161.34 29.7323L160.006 15.3057Z" fill="#263238"/>
<path d="M162.513 29.7335C161.732 30.2019 160.611 28.6975 159.675 27.6827C158.738 26.668 155.552 25.2913 153.998 28.6052C152.443 31.9192 155.417 36.4537 157.872 37.2343C162.13 38.5825 162.797 35.815 162.797 35.815L163.038 51.5686C167.523 59.6938 182.702 55.5354 177.011 50.1494V46.1542C179.163 46.3071 181.323 46.3071 183.475 46.1542C186.626 45.6646 187.918 43.486 188.876 40.0727C190.408 34.5945 191.004 30.1735 189.692 19.4014C188.272 7.60037 174.534 7.47974 167.118 12.142C159.703 16.8042 162.513 29.7335 162.513 29.7335Z" fill="#FFA8A7"/>
<path d="M160.72 8.85607C163.32 7.74547 166.036 6.92676 168.817 6.41496C174.806 5.11635 180.88 3.91709 186.373 1.15665C187.006 0.74602 187.747 0.531277 188.502 0.539278C189.921 0.730877 190.574 2.47655 190.63 3.92418C190.68 5.27357 190.502 6.62166 190.105 7.91227C190.541 7.49499 191.123 7.2662 191.726 7.2755C192.329 7.2848 192.905 7.53144 193.327 7.96194C193.729 8.41457 194.022 8.95274 194.184 9.53558C194.346 10.1184 194.373 10.7306 194.264 11.3256C193.909 14.0079 191.858 16.2433 189.424 17.4354C186.99 18.6276 184.237 18.9185 181.533 18.9966C177.755 19.1099 173.976 18.8269 170.257 18.1521C169.365 17.9279 168.44 17.8606 167.525 17.9534C167.068 18.0045 166.634 18.1834 166.274 18.4696C165.914 18.7557 165.642 19.1376 165.488 19.5714C165.091 21.0616 164.672 31.2021 162.593 31.2447C162.203 31.2447 160.727 28.6971 159.755 27.7888C158.548 26.6392 157.328 17.9534 157.115 16.3497C157.088 16.2248 157.032 16.108 156.952 16.0091C155.589 14.1002 157.186 10.8856 158.868 9.83535C159.466 9.47329 160.084 9.14631 160.72 8.85607Z" fill="#263238"/>
<path d="M157.694 16.1456C157.451 16.4313 157.154 16.6662 156.82 16.837C156.485 17.0078 156.121 17.1111 155.747 17.1411C155.373 17.1711 154.997 17.1271 154.64 17.0117C154.283 16.8963 153.952 16.7117 153.667 16.4685C153.381 16.2253 153.146 15.9282 152.975 15.5942C152.805 15.2602 152.701 14.8958 152.671 14.5218C152.641 14.1479 152.685 13.7717 152.801 13.4147C152.916 13.0578 153.101 12.727 153.344 12.4414L157.694 16.1456Z" fill="#263238"/>
<path d="M176.995 46.167C176.995 46.167 169.97 45.4573 167.508 44.18C166.061 43.4273 164.876 42.2548 164.108 40.8164C164.48 42.2544 165.136 43.6033 166.039 44.7832C167.841 47.0824 176.995 48.7784 176.995 48.7784V46.167Z" fill="#F28F8F"/>
<path d="M175.306 27.9728C175.297 28.2512 175.205 28.5206 175.043 28.7473C174.882 28.9741 174.657 29.1483 174.397 29.2481C174.137 29.3479 173.853 29.3691 173.581 29.3088C173.309 29.2486 173.061 29.1096 172.867 28.9093C172.674 28.709 172.543 28.4561 172.493 28.1823C172.442 27.9084 172.473 27.6256 172.581 27.3692C172.69 27.1127 172.872 26.8939 173.104 26.7401C173.336 26.5862 173.609 26.5041 173.887 26.5039C174.078 26.5038 174.266 26.5421 174.442 26.6165C174.617 26.6909 174.776 26.7999 174.909 26.937C175.041 27.0741 175.145 27.2365 175.213 27.4144C175.281 27.5924 175.313 27.7823 175.306 27.9728Z" fill="#263238"/>
<path d="M173.819 22.6566L170.803 24.3171C170.588 23.9032 170.541 23.422 170.674 22.9747C170.806 22.5274 171.107 22.1488 171.512 21.9185C171.711 21.8104 171.93 21.7436 172.155 21.7223C172.38 21.701 172.608 21.7255 172.823 21.7945C173.039 21.8635 173.238 21.9754 173.409 22.1236C173.58 22.2718 173.719 22.4531 173.819 22.6566Z" fill="#263238"/>
<path d="M176.363 37.709L179.577 38.9153C179.507 39.1311 179.394 39.3306 179.245 39.5018C179.097 39.673 178.915 39.8124 178.711 39.9118C178.507 40.0111 178.285 40.0684 178.058 40.08C177.831 40.0917 177.605 40.0576 177.392 39.9798C176.96 39.8082 176.611 39.4756 176.419 39.0521C176.227 38.6285 176.207 38.1471 176.363 37.709Z" fill="#F28F8F"/>
<path d="M187.872 23.8306L185.126 21.7018C185.254 21.5159 185.419 21.3581 185.61 21.2381C185.802 21.1181 186.016 21.0385 186.239 21.0039C186.462 20.9694 186.69 20.9807 186.908 21.0373C187.127 21.0938 187.332 21.1943 187.51 21.3328C187.881 21.6221 188.126 22.0435 188.193 22.509C188.261 22.9744 188.146 23.4479 187.872 23.8306Z" fill="#263238"/>
<path d="M187.033 27.5763C187.023 27.8547 186.932 28.1241 186.77 28.3508C186.608 28.5776 186.383 28.7518 186.123 28.8516C185.863 28.9515 185.58 28.9726 185.308 28.9123C185.036 28.8521 184.787 28.7131 184.594 28.5128C184.4 28.3125 184.27 28.0597 184.219 27.7858C184.168 27.5119 184.199 27.2291 184.308 26.9727C184.417 26.7162 184.598 26.4975 184.831 26.3436C185.063 26.1897 185.335 26.1076 185.614 26.1074C185.804 26.1073 185.993 26.1456 186.169 26.22C186.344 26.2944 186.503 26.4034 186.635 26.5405C186.768 26.6776 186.871 26.84 186.94 27.018C187.008 27.1959 187.04 27.3858 187.033 27.5763Z" fill="#263238"/>
<path d="M181.012 26.5664L181.48 35.0393L185.901 33.5278L181.012 26.5664Z" fill="#F28F8F"/>
<path d="M152.024 53.127C141.628 53.2902 138.931 59.4142 135.866 65.9002C132.8 72.3861 125.023 87.047 125.023 87.047L105.451 78.198C104.328 81.6905 101.996 84.6674 98.873 86.5928C98.873 86.5928 108.098 94.349 116.06 100.033C122.794 104.844 126.704 107.342 129.295 105.618C131.211 104.34 150.314 79.3617 150.314 79.3617C155.182 71.7688 156.218 58.8749 152.024 53.127Z" fill="#37474F"/>
<path d="M185.129 31.4086L184.015 30.8409L182.922 29.2798C183.098 29.205 183.29 29.1731 183.481 29.1866C183.672 29.2002 183.858 29.2589 184.022 29.3578C184.519 29.7126 185.129 31.4086 185.129 31.4086Z" fill="#09A350"/>
<path opacity="0.65" d="M185.129 31.4086L184.015 30.8409L182.922 29.2798C183.098 29.205 183.29 29.1731 183.481 29.1866C183.672 29.2002 183.858 29.2589 184.022 29.3578C184.519 29.7126 185.129 31.4086 185.129 31.4086Z" fill="black"/>
<path d="M195.494 26.5331C195.425 27.6912 194.979 28.795 194.225 29.6763C193.47 30.5577 192.448 31.1683 191.315 31.4153L189.562 31.7133C188.794 31.8547 188.014 31.9165 187.234 31.8978H187C186.872 31.8978 186.745 31.8978 186.624 31.8978C186.407 31.8768 186.191 31.8412 185.978 31.7914C185.867 31.7701 185.758 31.7392 185.652 31.6991C185.553 31.6712 185.458 31.6331 185.368 31.5856C185.326 31.5714 185.288 31.5497 185.254 31.5217C185.206 31.4985 185.161 31.4699 185.12 31.4366C185.048 31.3767 184.988 31.3046 184.942 31.2237L184.339 29.9889C184.2 29.7428 183.991 29.5437 183.738 29.4173C183.485 29.2908 183.2 29.2428 182.92 29.2793L181.671 29.4993C181.362 29.5802 181.074 29.7284 180.829 29.9332C180.583 30.1381 180.386 30.3946 180.251 30.6844C180.251 30.6844 179.989 31.3372 179.655 32.1036C179.322 32.87 177.25 33.8706 175.036 34.2325L173.283 34.5447C172.928 34.5973 172.567 34.5973 172.211 34.5447C172.012 34.5312 171.814 34.4955 171.622 34.4383L171.353 34.3602L171.183 34.2893C171.029 34.2303 170.882 34.1566 170.743 34.0693C170.267 33.8777 162.624 30.7695 161.574 28.2646C159.899 24.2339 166.776 20.0826 169.252 19.2949C169.536 19.1796 169.831 19.094 170.132 19.0395L188.185 15.9455C189.084 15.7662 190.017 15.9417 190.789 16.4351C191.251 16.7261 192.954 17.7337 193.663 18.1595C193.726 18.1881 193.786 18.2238 193.841 18.266C193.94 18.3227 194.039 18.3937 194.139 18.4576C194.172 18.48 194.203 18.5062 194.231 18.5356C194.33 18.6137 194.423 18.6988 194.515 18.784C194.626 18.8962 194.728 19.0173 194.82 19.1459C194.891 19.2344 194.952 19.3294 195.005 19.4297C195.093 19.5696 195.169 19.7168 195.232 19.8697C195.288 20.0045 195.331 20.1394 195.374 20.2742C195.411 20.4017 195.437 20.5323 195.452 20.6645C195.458 20.6949 195.458 20.7263 195.452 20.7567C195.462 20.9056 195.462 21.055 195.452 21.2038C195.532 22.9968 195.546 24.7732 195.494 26.5331Z" fill="#09A350"/>
<g opacity="0.2">
<path d="M195.486 26.5311C195.417 27.6893 194.971 28.793 194.217 29.6744C193.462 30.5557 192.44 31.1664 191.307 31.4133L189.554 31.7114C188.787 31.8527 188.007 31.9145 187.226 31.8959H186.992C186.864 31.8959 186.737 31.8959 186.616 31.8959C186.399 31.8748 186.183 31.8393 185.97 31.7894C185.859 31.7681 185.75 31.7373 185.644 31.6972C185.546 31.6692 185.451 31.6312 185.36 31.5836C185.319 31.5694 185.28 31.5478 185.247 31.5198C185.199 31.4966 185.153 31.468 185.112 31.4346C185.04 31.3747 184.98 31.3026 184.934 31.2217L184.331 29.987C184.192 29.7408 183.983 29.5417 183.73 29.4153C183.477 29.2889 183.192 29.2408 182.912 29.2774L181.663 29.4974C181.354 29.5783 181.066 29.7264 180.821 29.9313C180.576 30.1361 180.378 30.3926 180.244 30.6824C180.244 30.6824 179.981 31.3353 179.648 32.1017C179.314 32.8681 177.242 33.8686 175.028 34.2305L173.275 34.5428C172.92 34.5953 172.559 34.5953 172.204 34.5428C172.004 34.5293 171.806 34.4936 171.615 34.4363L171.345 34.3583L171.175 34.2873C171.021 34.2283 170.874 34.1547 170.735 34.0673C170.259 33.8757 162.617 30.7676 161.566 28.2626C159.892 24.232 166.768 20.0806 169.245 19.293C169.528 19.1777 169.823 19.092 170.124 19.0375L188.177 15.9435C189.076 15.7643 190.009 15.9398 190.782 16.4332C191.243 16.7241 192.946 17.7318 193.656 18.1576C193.719 18.1862 193.778 18.2219 193.833 18.264C193.932 18.3208 194.032 18.3917 194.131 18.4556C194.165 18.478 194.196 18.5042 194.223 18.5337C194.323 18.6117 194.415 18.6969 194.507 18.782C194.618 18.8943 194.72 19.0153 194.812 19.1439C194.883 19.2324 194.945 19.3275 194.997 19.4278C195.085 19.5676 195.161 19.7148 195.224 19.8678C195.281 20.0026 195.323 20.1374 195.366 20.2722C195.403 20.3998 195.429 20.5304 195.444 20.6625C195.45 20.6929 195.45 20.7244 195.444 20.7548C195.455 20.9036 195.455 21.053 195.444 21.2019C195.524 22.9948 195.538 24.7713 195.486 26.5311Z" fill="black"/>
</g>
<path d="M193.659 18.1595C192.94 17.7894 192.119 17.6696 191.324 17.8189L173.272 21.0051C172.189 21.2401 171.206 21.8064 170.459 22.6253C169.713 23.4442 169.24 24.4752 169.106 25.5751L163.926 22.5876C165.489 21.21 167.287 20.1237 169.234 19.3801C169.517 19.2648 169.812 19.1792 170.114 19.1246L188.181 15.9455C189.079 15.7662 190.013 15.9417 190.785 16.4351C191.232 16.7261 192.949 17.7337 193.659 18.1595Z" fill="#09A350"/>
<path opacity="0.35" d="M193.659 18.1595C192.94 17.7894 192.119 17.6696 191.324 17.8189L173.272 21.0051C172.189 21.2401 171.206 21.8064 170.459 22.6253C169.713 23.4442 169.24 24.4752 169.106 25.5751L163.926 22.5876C165.489 21.21 167.287 20.1237 169.234 19.3801C169.517 19.2648 169.812 19.1792 170.114 19.1246L188.181 15.9455C189.079 15.7662 190.013 15.9417 190.785 16.4351C191.232 16.7261 192.949 17.7337 193.659 18.1595Z" fill="white"/>
<path d="M195.493 21.2184C195.535 22.9878 195.535 24.7618 195.493 26.5406C195.424 27.6973 194.978 28.7996 194.223 29.6788C193.468 30.558 192.446 31.1656 191.313 31.4086L189.56 31.7209C187.339 32.1112 185.303 31.8699 184.941 31.1958L184.337 29.961C184.198 29.7148 183.989 29.5158 183.736 29.3893C183.483 29.2629 183.199 29.2149 182.918 29.2514L181.662 29.4785C181.352 29.5566 181.063 29.7037 180.817 29.9089C180.571 30.1141 180.375 30.372 180.243 30.6635L179.64 32.0828C179.306 32.8776 177.241 33.8426 175.027 34.2117L173.274 34.5239C172.769 34.632 172.245 34.6254 171.742 34.5047C171.239 34.3839 170.769 34.1519 170.368 33.8259C169.966 33.4999 169.643 33.088 169.421 32.6206C169.2 32.1532 169.086 31.6421 169.088 31.1248C169.045 29.3578 169.045 27.5767 169.088 25.8097C169.158 24.6515 169.605 23.548 170.361 22.6678C171.117 21.7875 172.14 21.1788 173.274 20.9346L191.327 17.7555C191.837 17.6484 192.364 17.6579 192.87 17.7834C193.376 17.9088 193.846 18.147 194.247 18.48C194.648 18.8131 194.968 19.2324 195.184 19.7066C195.399 20.1808 195.505 20.6976 195.493 21.2184Z" fill="#09A350"/>
<path opacity="0.5" d="M195.493 26.5318C195.424 27.6899 194.978 28.7937 194.224 29.675C193.469 30.5564 192.447 31.167 191.314 31.414L189.561 31.7121C188.794 31.8534 188.014 31.9152 187.233 31.8966H186.999C186.871 31.8966 186.744 31.8966 186.623 31.8966C186.406 31.8755 186.19 31.8399 185.977 31.7901C185.866 31.7688 185.757 31.7379 185.651 31.6979C185.553 31.6699 185.458 31.6318 185.367 31.5843C185.326 31.5701 185.287 31.5484 185.254 31.5205C185.206 31.4972 185.16 31.4687 185.119 31.4353C185.047 31.3754 184.987 31.3033 184.941 31.2224L184.338 29.9877C184.199 29.7415 183.99 29.5424 183.737 29.416C183.484 29.2896 183.199 29.2415 182.919 29.278L181.67 29.498C181.361 29.5789 181.073 29.7271 180.828 29.932C180.583 30.1368 180.385 30.3933 180.251 30.6831C180.251 30.6831 179.988 31.336 179.655 32.1023C179.321 32.8687 177.249 33.8693 175.035 34.2312L173.282 34.5435C172.927 34.596 172.566 34.596 172.211 34.5435C172.011 34.5299 171.813 34.4942 171.622 34.437L171.352 34.3589L171.182 34.288C171.028 34.229 170.881 34.1553 170.742 34.068C170.238 33.7576 169.822 33.3233 169.534 32.8065C169.246 32.2897 169.095 31.7077 169.095 31.116C169.053 29.3419 169.053 27.5679 169.095 25.7938C169.165 24.6356 169.613 23.5321 170.369 22.6518C171.125 21.7716 172.148 21.1629 173.282 20.9187L191.335 17.7325C192.129 17.5831 192.951 17.703 193.67 18.0731C193.733 18.1017 193.792 18.1374 193.847 18.1795C193.946 18.2363 194.046 18.3073 194.145 18.3711C194.179 18.3936 194.21 18.4198 194.237 18.4492C194.337 18.5272 194.429 18.6124 194.521 18.6976C194.632 18.8098 194.735 18.9308 194.826 19.0595C194.897 19.1479 194.959 19.243 195.011 19.3433C195.099 19.4832 195.175 19.6304 195.238 19.7833C195.295 19.9181 195.337 20.0529 195.38 20.1878C195.417 20.3153 195.444 20.4459 195.458 20.5781C195.464 20.6085 195.464 20.6399 195.458 20.6703C195.469 20.8191 195.469 20.9685 195.458 21.1174C195.534 22.9671 195.545 24.7719 195.493 26.5318Z" fill="white"/>
<g opacity="0.7">
<path d="M195.491 21.2177C195.502 21.0688 195.502 20.9194 195.491 20.7706C195.497 20.7402 195.497 20.7088 195.491 20.6784C195.476 20.5462 195.45 20.4156 195.413 20.2881C195.37 20.1532 195.328 20.0184 195.271 19.8836C195.208 19.7307 195.132 19.5835 195.044 19.4436C194.992 19.3433 194.93 19.2482 194.859 19.1598C194.767 19.0311 194.665 18.9101 194.554 18.7978C194.462 18.7127 194.37 18.6275 194.27 18.5495C194.245 18.5221 194.217 18.4982 194.185 18.4785L183.335 29.2719C183.548 29.3011 183.752 29.3806 183.928 29.504C184.105 29.6274 184.249 29.7911 184.35 29.9815L184.953 31.2163C184.999 31.2971 185.059 31.3692 185.13 31.4291C185.172 31.4625 185.217 31.4911 185.265 31.5143C185.299 31.5423 185.337 31.5639 185.379 31.5782C185.469 31.6257 185.564 31.6637 185.663 31.6917C185.768 31.7318 185.878 31.7626 185.989 31.784C186.202 31.8338 186.417 31.8693 186.635 31.8904C186.755 31.8904 186.883 31.8904 187.011 31.8904H187.245C187.719 31.9007 188.193 31.8794 188.664 31.8265L195.548 24.9503C195.54 23.7084 195.533 22.4737 195.491 21.2177Z" fill="#09A350"/>
<path d="M186.93 18.5999L171.155 34.3678L171.326 34.4387L171.595 34.5168C171.787 34.574 171.985 34.6097 172.184 34.6232C172.539 34.6758 172.901 34.6758 173.256 34.6232L174.398 34.4174L190.897 17.9258L186.93 18.5999Z" fill="#09A350"/>
<path d="M175.704 20.5731L169.069 27.2152C169.069 28.5422 169.069 29.8692 169.069 31.2033C169.077 31.8129 169.238 32.4107 169.538 32.9418L183.233 19.2461L175.704 20.5731Z" fill="#09A350"/>
</g>
<path d="M164.905 27.5403C164.917 27.6362 164.906 27.7335 164.874 27.8248C164.843 27.9161 164.791 27.999 164.723 28.0673C164.654 28.1356 164.571 28.1875 164.48 28.2192C164.389 28.2508 164.291 28.2613 164.196 28.2499C163.99 28.1999 163.808 28.0812 163.679 27.9134C163.549 27.7457 163.482 27.5389 163.486 27.3274C163.475 27.2314 163.485 27.1342 163.517 27.0429C163.548 26.9516 163.6 26.8687 163.669 26.8003C163.737 26.732 163.82 26.6801 163.911 26.6485C164.002 26.6168 164.1 26.6063 164.196 26.6178C164.401 26.669 164.582 26.7879 164.711 26.9554C164.84 27.1229 164.908 27.329 164.905 27.5403Z" fill="#263238"/>
<g opacity="0.5">
<path d="M192.015 18.1373C192.529 18.1369 193.034 18.2585 193.491 18.4921C193.544 18.5183 193.594 18.5492 193.64 18.5844C193.733 18.6386 193.823 18.6978 193.91 18.7618H193.946H193.981L194.229 18.9818C194.331 19.0849 194.423 19.1965 194.506 19.3153C194.564 19.3854 194.614 19.4615 194.655 19.5424C194.727 19.6633 194.791 19.7889 194.847 19.9185C194.889 20.0203 194.924 20.1245 194.953 20.2307V20.2875C194.987 20.3911 195.008 20.4983 195.017 20.6068V20.7133C195.027 20.8455 195.027 20.9784 195.017 21.1107C195.067 22.8705 195.067 24.6588 195.017 26.4115C194.974 27.4887 194.582 28.5227 193.899 29.3573C193.217 30.1919 192.282 30.782 191.235 31.0383L189.482 31.3434C188.83 31.4563 188.171 31.5156 187.509 31.5208H187.204H186.984H186.643C186.438 31.498 186.234 31.4624 186.033 31.4144C185.932 31.3942 185.833 31.3681 185.735 31.3363C185.667 31.3136 185.6 31.2851 185.536 31.2512H185.487L185.416 31.2086C185.383 31.1794 185.355 31.146 185.331 31.1092L184.728 29.8745C184.585 29.5725 184.361 29.3169 184.079 29.1373C183.798 28.9577 183.472 28.8615 183.138 28.8597C183.046 28.8527 182.953 28.8527 182.861 28.8597L181.605 29.0797C181.231 29.1717 180.883 29.3472 180.587 29.593C180.291 29.8388 180.054 30.1486 179.895 30.499L179.292 31.9182C179.043 32.5072 177.206 33.4439 174.956 33.8413L173.21 34.1464C173.004 34.1817 172.795 34.2006 172.586 34.2032C172.468 34.2103 172.349 34.2103 172.231 34.2032C172.054 34.1873 171.878 34.1565 171.706 34.111L171.493 34.04L171.401 34.0045H171.316C171.181 33.955 171.053 33.8908 170.932 33.8129C170.482 33.5356 170.11 33.1472 169.853 32.685C169.596 32.2227 169.462 31.7021 169.464 31.1731C169.428 29.4203 169.428 27.625 169.464 25.8722C169.537 24.8038 169.954 23.7879 170.653 22.9759C171.351 22.1638 172.293 21.5992 173.338 21.3661L191.398 18.2154C191.602 18.1789 191.808 18.1599 192.015 18.1586M192.015 17.7825C191.778 17.783 191.54 17.802 191.306 17.8393L173.253 21.0255C172.119 21.2697 171.095 21.8784 170.339 22.7587C169.583 23.6389 169.136 24.7424 169.066 25.9006C169.024 27.6818 169.024 29.4487 169.066 31.2228C169.065 31.8145 169.216 32.3965 169.505 32.9133C169.793 33.4301 170.209 33.8644 170.712 34.1748C170.852 34.2622 170.999 34.3358 171.152 34.3948L171.323 34.4658L171.592 34.5438C171.784 34.6011 171.982 34.6368 172.181 34.6503C172.309 34.6577 172.437 34.6577 172.565 34.6503C172.802 34.653 173.04 34.634 173.274 34.5935L175.027 34.2813C177.241 33.8981 179.285 32.933 179.647 32.1524C180.009 31.3718 180.243 30.7331 180.243 30.7331C180.377 30.4433 180.575 30.1869 180.82 29.982C181.065 29.7772 181.353 29.629 181.662 29.5481L182.911 29.3281C182.982 29.3211 183.053 29.3211 183.124 29.3281C183.37 29.3308 183.612 29.3977 183.825 29.5221C184.037 29.6465 184.214 29.8242 184.337 30.0377L184.94 31.2725C184.986 31.3533 185.047 31.4254 185.118 31.4853C185.159 31.5187 185.205 31.5473 185.253 31.5705C185.286 31.5985 185.325 31.6201 185.366 31.6344C185.457 31.6819 185.552 31.7199 185.65 31.7479C185.756 31.788 185.865 31.8188 185.976 31.8402C186.189 31.89 186.405 31.9255 186.622 31.9466C186.743 31.9466 186.871 31.9466 186.998 31.9466H187.523C188.207 31.9426 188.888 31.8785 189.56 31.755L191.313 31.457C192.453 31.208 193.48 30.591 194.235 29.7011C194.99 28.8113 195.432 27.6978 195.493 26.5322C195.535 24.7581 195.535 22.9864 195.493 21.2171C195.503 21.0683 195.503 20.9189 195.493 20.77C195.499 20.7396 195.499 20.7082 195.493 20.6778C195.478 20.5456 195.452 20.415 195.414 20.2875C195.372 20.1527 195.329 20.0178 195.273 19.883C195.21 19.7301 195.134 19.5829 195.045 19.443C194.993 19.3427 194.931 19.2477 194.861 19.1592C194.769 19.0306 194.667 18.9095 194.556 18.7973C194.464 18.7121 194.371 18.627 194.272 18.5489C194.244 18.5195 194.213 18.4933 194.18 18.4709C194.08 18.407 193.981 18.336 193.882 18.2793C193.827 18.2371 193.767 18.2014 193.704 18.1728C193.196 17.9094 192.631 17.773 192.058 17.7754L192.015 17.7825Z" fill="black"/>
</g>
<path d="M169.088 31.2026L168.996 27.3777C168.996 26.739 168.946 26.1146 168.996 25.4546C169.072 24.8021 169.274 24.1706 169.592 23.5954C170.216 22.4302 171.239 21.5285 172.473 21.055C173.092 20.8656 173.726 20.7256 174.368 20.6363L176.248 20.2957L183.777 19.0112C186.289 18.5949 188.806 18.1999 191.328 17.8262C188.83 18.3371 186.329 18.8291 183.827 19.3022L176.333 20.6647L174.453 20.984C173.831 21.0644 173.217 21.1925 172.615 21.3672C171.45 21.8145 170.477 22.6523 169.861 23.7373C169.55 24.275 169.345 24.8677 169.258 25.483C169.187 26.0933 169.223 26.7461 169.201 27.3777L169.088 31.2026Z" fill="white"/>
<g opacity="0.3">
<path d="M297.039 0.531179V92.399C295.464 102.014 290.518 111.46 282.137 120.131C279.114 123.241 275.854 126.112 272.387 128.718C269 131.22 265.474 133.53 261.828 135.636C247.933 143.684 231.477 149.346 213.992 152.667C211.21 153.202 208.4 153.675 205.562 154.087V61.8355C225.218 58.6564 243.739 52.802 259.252 44.2653C278.504 33.6209 290.248 20.4858 294.506 6.74748C295.314 4.7171 295.971 2.62987 296.471 0.502795C296.493 0.443405 296.534 0.392595 296.587 0.35774C296.64 0.322886 296.702 0.305802 296.766 0.308966C296.829 0.31213 296.89 0.335378 296.939 0.375336C296.988 0.415294 297.023 0.469883 297.039 0.531179Z" fill="#09A350"/>
</g>
<path d="M205.161 154.527V61.5025L205.48 61.4529C225.591 58.2028 244.112 52.1426 259.043 43.9252C277.571 33.7208 289.699 20.8411 294.098 6.68411V6.36478H294.226C294.982 4.42302 295.603 2.43133 296.085 0.403942C296.149 0.270308 296.253 0.159976 296.383 0.0884023C296.512 0.0168286 296.661 -0.0124006 296.808 0.00481013C296.955 0.0220209 297.093 0.0848085 297.203 0.184378C297.312 0.283947 297.388 0.415309 297.419 0.56006V92.3995C295.794 102.384 290.735 111.786 282.389 120.394C279.353 123.519 276.076 126.402 272.59 129.016C269.191 131.532 265.651 133.852 261.988 135.963C248.406 143.819 232.269 149.581 214.039 153.044C211.264 153.576 208.418 154.052 205.594 154.463L205.161 154.527ZM205.92 62.127V153.668C208.589 153.278 211.271 152.824 213.897 152.327C232.042 148.871 248.1 143.152 261.612 135.296C265.244 133.198 268.758 130.9 272.135 128.413C275.585 125.828 278.831 122.981 281.843 119.897C290.082 111.382 295.07 102.157 296.667 92.3641V1.22001C296.179 3.13728 295.57 5.02159 294.843 6.86152C290.38 21.2172 278.132 34.253 259.412 44.5567C244.46 52.7813 226.01 58.8556 205.92 62.127Z" fill="#09A350"/>
<path d="M226.867 131.181C226.665 131.181 226.472 131.101 226.33 130.958C226.187 130.816 226.107 130.623 226.107 130.422V76.1637C226.114 76.0013 226.171 75.845 226.272 75.7174C226.373 75.5899 226.511 75.4977 226.668 75.4541C231.16 74.2478 235.304 72.9633 239.335 71.5157C239.451 71.4703 239.577 71.4549 239.701 71.4711C239.825 71.4872 239.943 71.5343 240.044 71.6079C240.145 71.6779 240.228 71.7713 240.284 71.88C240.341 71.9888 240.371 72.1097 240.371 72.2324V126.49C240.369 126.646 240.319 126.797 240.229 126.924C240.139 127.05 240.013 127.147 239.867 127.2C235.787 128.662 231.607 129.96 227.094 131.174C227.019 131.185 226.942 131.188 226.867 131.181ZM227.626 76.7456V129.428C231.557 128.357 235.24 127.207 238.831 125.93V73.2827C235.233 74.5387 231.572 75.6954 227.626 76.7456Z" fill="white"/>
<path d="M251.279 122.46C251.133 122.463 250.989 122.421 250.867 122.339C250.76 122.271 250.672 122.176 250.611 122.065C250.55 121.953 250.519 121.828 250.52 121.7V67.4426C250.518 67.2938 250.559 67.1478 250.639 67.0219C250.718 66.8961 250.832 66.7957 250.967 66.733C254.542 65.1305 258.031 63.3422 261.419 61.3753C262.193 60.9637 262.91 60.5237 263.598 60.0909C263.712 60.0175 263.845 59.9785 263.981 59.9785C264.117 59.9785 264.25 60.0175 264.364 60.0909C264.484 60.1548 264.584 60.2499 264.654 60.3661C264.724 60.4823 264.761 60.6152 264.762 60.7508V115.009C264.762 115.138 264.729 115.266 264.666 115.379C264.602 115.492 264.511 115.587 264.4 115.654C263.69 116.101 262.945 116.57 262.15 116.989C258.716 118.976 255.18 120.781 251.556 122.396C251.468 122.434 251.374 122.456 251.279 122.46ZM252.038 67.9393V120.53C255.004 119.16 258.084 117.563 261.419 115.647C262.058 115.314 262.654 114.938 263.243 114.583V62.0707C262.888 62.2836 262.533 62.4894 262.15 62.6881C258.567 64.7815 255.246 66.4704 252.038 67.9393Z" fill="white"/>
<path d="M275.638 107.538C275.528 107.539 275.419 107.515 275.319 107.467C275.184 107.405 275.071 107.304 274.993 107.178C274.915 107.052 274.875 106.906 274.879 106.757V52.5208C274.88 52.4095 274.905 52.2996 274.953 52.1991C275.001 52.0985 275.07 52.0097 275.156 51.9389C277.389 50.0937 279.521 48.13 281.543 46.0561C283.81 43.7617 285.885 41.2838 287.745 38.6477C287.837 38.5145 287.969 38.4143 288.122 38.3616C288.275 38.3089 288.441 38.3066 288.596 38.3549C288.75 38.4033 288.885 38.4998 288.981 38.6303C289.077 38.7609 289.129 38.9186 289.128 39.0805V93.3384C289.127 93.495 289.081 93.648 288.994 93.7783C287.092 96.4785 284.975 99.0201 282.664 101.378C280.595 103.488 278.415 105.488 276.135 107.368C275.995 107.481 275.819 107.541 275.638 107.538ZM276.398 52.8969V105.146C278.243 103.564 279.981 101.946 281.571 100.314C283.77 98.0721 285.787 95.6589 287.603 93.0971V41.4081C286.065 43.4009 284.406 45.2969 282.635 47.0851C280.657 49.1236 278.572 51.0564 276.391 52.8756L276.398 52.8969Z" fill="white"/>
<g opacity="0.3">
<path d="M214.732 140.591L245.594 83.5801L270.275 115.648C270.275 115.648 259.872 130.536 214.732 140.591Z" fill="#09A350"/>
</g>
<g opacity="0.3">
<path d="M157.408 144.017C129.229 142.513 101.824 135.821 80.2155 123.949C55.9322 110.573 43.5777 93.1162 43.1661 75.5956V73.8499L42.9248 14.795C42.9248 10.5798 50.3475 22.5299 65.8953 34.7851C66.2643 35.0832 66.6049 35.3599 67.0094 35.6509C67.8752 36.3179 68.7622 36.9708 69.6847 37.6236C73.0832 40.0309 76.6183 42.2391 80.2723 44.2373C101.824 56.0809 129.102 62.7656 157.174 64.2913L157.408 144.017Z" fill="#09A350"/>
</g>
<path d="M43.7359 14.8815C45.3064 16.2271 46.7835 17.6781 48.1569 19.2244C53.5208 25.0292 59.3083 30.4277 65.4717 35.3754C65.7414 35.5954 66.0181 35.8083 66.302 36.0212L66.5929 36.2554C67.4232 36.894 68.3031 37.5469 69.2966 38.2494C72.7158 40.6658 76.2696 42.8858 79.9409 44.8986C100.52 56.2526 127.628 63.3488 156.431 65.0093L156.658 143.217C127.99 141.578 101.01 134.51 80.6009 123.277C57.3678 110.468 44.3462 93.5433 43.9275 75.5827V73.837L43.7075 14.8815M43.3811 13.959C43.0902 13.959 42.9482 14.2357 42.9482 14.8247L43.1682 73.8654V75.6111C43.5798 93.1317 55.9415 110.588 80.2177 123.965C101.797 135.851 129.231 142.543 157.411 144.047L157.176 64.2926C129.111 62.7669 101.826 56.0822 80.3028 44.2386C76.6488 42.2405 73.1137 40.0322 69.7153 37.6249C68.7927 36.9721 67.9057 36.3192 67.04 35.6522C66.6639 35.3612 66.3304 35.0845 65.9259 34.7864C52.5495 24.2485 45.1765 13.959 43.3811 13.959Z" fill="#09A350"/>
<path d="M130.161 132.69H130.062C129.828 132.69 106.999 129.383 84.788 118.107C59.3409 105.192 49.3493 85.1732 49.25 84.9674C49.1971 84.8643 49.1703 84.7498 49.1719 84.6339V69.306C49.1704 69.1501 49.2203 68.9979 49.3139 68.8732L65.9971 45.2853C66.078 45.176 66.186 45.0896 66.3104 45.0349C66.4349 44.9801 66.5715 44.9588 66.7067 44.9731C66.8409 44.9865 66.969 45.0357 67.0776 45.1156C67.1862 45.1955 67.2714 45.3031 67.3241 45.4272L88.0238 93.6816L86.2143 84.7829C86.1861 84.6376 86.2006 84.4872 86.256 84.35C86.3114 84.2127 86.4054 84.0945 86.5265 84.0094L103.245 72.2652C103.329 72.2022 103.427 72.1586 103.53 72.1378C103.633 72.1169 103.739 72.1192 103.841 72.1445C103.944 72.1665 104.041 72.2093 104.127 72.2704C104.212 72.3314 104.284 72.4093 104.338 72.4994L130.85 117.035C130.919 117.154 130.956 117.288 130.956 117.426V131.93C130.958 132.031 130.94 132.13 130.902 132.223C130.865 132.316 130.809 132.401 130.738 132.472C130.667 132.542 130.583 132.598 130.49 132.636C130.397 132.673 130.297 132.692 130.197 132.69H130.161ZM50.6834 84.4352C51.6485 86.2873 61.6613 104.652 85.455 116.737C105.005 126.672 125.031 130.319 129.381 131.029V117.631L103.394 73.9754L87.7826 84.9674L90.9262 100.579C90.9444 100.753 90.9019 100.928 90.8058 101.075C90.7098 101.221 90.5661 101.33 90.3991 101.382C90.2322 101.435 90.0522 101.428 89.8896 101.363C89.727 101.298 89.5918 101.179 89.507 101.026L66.4584 47.3077L50.6905 69.5615L50.6834 84.4352Z" fill="white"/>
<path d="M129.87 87.7574C129.394 87.7547 128.918 87.7072 128.451 87.6155C123.874 86.7214 120.155 81.7114 120.155 76.4531C120.108 75.1827 120.343 73.9175 120.842 72.7484C121.342 71.5792 122.093 70.535 123.043 69.6904C123.822 69.042 124.737 68.5777 125.72 68.3319C126.703 68.0862 127.728 68.0654 128.72 68.2711C133.29 69.1653 137.009 74.1752 137.009 79.4335C137.057 80.7041 136.823 81.9695 136.323 83.1388C135.824 84.3081 135.072 85.3523 134.121 86.1962C132.931 87.1995 131.426 87.7522 129.87 87.7574ZM127.308 69.6904C126.103 69.68 124.932 70.0946 124.001 70.8613C123.226 71.565 122.615 72.4308 122.211 73.3972C121.808 74.3635 121.622 75.4069 121.667 76.4531C121.667 81.0231 124.839 85.3589 128.763 86.1253C129.535 86.2922 130.334 86.2832 131.102 86.099C131.87 85.9147 132.586 85.5599 133.198 85.0608C133.974 84.3571 134.585 83.4913 134.988 82.5249C135.392 81.5586 135.578 80.5153 135.533 79.469C135.533 74.899 132.368 70.5632 128.437 69.7968C128.065 69.725 127.687 69.687 127.308 69.6833V69.6904Z" fill="white"/>
<g opacity="0.3">
<path d="M48.4756 32.8394C48.4756 32.8394 55.3944 44.9952 69.7004 50.2819V43.4128C55.9834 36.9268 48.4756 24.7852 48.4756 24.7852V32.8394Z" fill="#09A350"/>
</g>
<g opacity="0.3">
<path d="M48.4756 45.2886C48.4756 45.2886 55.3944 57.4445 69.7004 62.7311V55.862C55.9834 49.376 48.4756 37.2344 48.4756 37.2344V45.2886Z" fill="#09A350"/>
</g>
<g opacity="0.3">
<path d="M48.4756 57.7339C48.4756 57.7339 55.3944 69.8898 69.7004 75.1765V68.3073C55.9834 61.8213 48.4756 49.6797 48.4756 49.6797V57.7339Z" fill="#09A350"/>
</g>
</svg>
