<svg width="249" height="248" viewBox="0 0 249 248" fill="none" xmlns="http://www.w3.org/2000/svg">
<path d="M208.806 39.7846C211.776 41.6207 215.198 42.5932 218.69 42.5932C222.182 42.5932 225.605 41.6207 228.575 39.7846C232.053 37.6342 234.735 34.408 236.215 30.5953C237.694 26.7827 237.89 22.5916 236.772 18.6578C235.654 14.7239 233.284 11.2619 230.021 8.79682C226.758 6.33173 222.78 4.99805 218.69 4.99805C214.601 4.99805 210.623 6.33173 207.359 8.79682C204.096 11.2619 201.726 14.7239 200.608 18.6578C199.491 22.5916 199.686 26.7827 201.166 30.5953C202.645 34.408 205.327 37.6342 208.806 39.7846Z" fill="#EBEBEB"/>
<path d="M212.968 21.6449C212.968 22.7771 213.304 23.884 213.933 24.8255C214.562 25.7669 215.456 26.5007 216.502 26.934C217.548 27.3673 218.699 27.4807 219.81 27.2598C220.92 27.0389 221.94 26.4936 222.741 25.693C223.541 24.8924 224.087 23.8723 224.308 22.7617C224.529 21.6512 224.415 20.5001 223.982 19.454C223.549 18.4079 222.815 17.5138 221.873 16.8847C220.932 16.2557 219.825 15.9199 218.693 15.9199C217.941 15.9191 217.196 16.0667 216.501 16.3541C215.806 16.6415 215.175 17.0632 214.643 17.5949C214.111 18.1267 213.689 18.7581 213.402 19.4531C213.115 20.148 212.967 20.8928 212.968 21.6449Z" fill="white"/>
<path d="M208.805 37.4254V39.7842C211.775 41.6202 215.197 42.5928 218.689 42.5928C222.181 42.5928 225.604 41.6202 228.574 39.7842V37.4314C228.606 36.1129 228.375 34.8011 227.893 33.5733C227.41 32.3456 226.688 31.2268 225.766 30.2826C224.845 29.3385 223.745 28.5883 222.529 28.076C221.314 27.5637 220.008 27.2998 218.689 27.2998C217.37 27.2998 216.065 27.5637 214.849 28.076C213.634 28.5883 212.533 29.3385 211.612 30.2826C210.691 31.2268 209.968 32.3456 209.486 33.5733C209.004 34.8011 208.772 36.1129 208.805 37.4314V37.4254Z" fill="white"/>
<path d="M50.6457 40.5879C53.064 34.5077 50.0956 27.6183 44.0154 25.1999C37.9352 22.7815 31.0457 25.75 28.6274 31.8302C26.209 37.9104 29.1775 44.7998 35.2577 47.2182C41.3379 49.6366 48.2273 46.6681 50.6457 40.5879Z" fill="#EBEBEB"/>
<path d="M45.6785 37.6789C43.8687 41.2985 39.6459 43.434 39.6459 43.434C39.6459 43.434 35.3869 41.2925 33.6133 37.6789C32.1233 34.6626 33.0644 31.4171 35.4231 30.7053C38.7953 29.6857 39.6459 35.5615 39.6459 35.5615C39.6459 35.5615 40.5086 29.6857 43.8687 30.7053C46.2275 31.4171 47.1686 34.6988 45.6785 37.6789Z" fill="white"/>
<path d="M228.218 143.373C233.374 134.955 230.73 123.95 222.312 118.794C213.894 113.637 202.89 116.281 197.733 124.699C192.577 133.117 195.221 144.122 203.639 149.278C212.057 154.435 223.061 151.791 228.218 143.373Z" fill="#EBEBEB"/>
<path fill-rule="evenodd" clip-rule="evenodd" d="M17.9415 104.496C17.1934 104.031 16.5479 103.356 15.5284 103.458C15.1484 103.494 15.2328 103.181 15.2268 102.969C15.2268 99.2292 15.2127 95.493 15.1846 91.7609C15.1846 91.4834 15.1846 91.2602 15.4922 91.1154C18.3457 89.6615 19.5703 86.8262 21.3137 84.4011C22.2063 83.1957 22.8473 81.8231 23.1986 80.365C23.55 78.9068 23.6044 77.3929 23.3587 75.9133C23.2321 75.0687 23.6242 74.7067 24.3843 74.5197C25.2952 74.3086 26.1941 74.5559 26.5198 75.1833C27.3459 76.7073 27.903 78.3624 28.1667 80.0757C28.3356 81.4934 27.8289 82.8749 27.66 84.2986C27.5333 85.3301 27.298 86.3436 27.105 87.3812C27.3584 87.5622 27.6479 87.4717 27.9133 87.4717L37.3906 87.4415C38.7177 87.4415 39.3753 87.8216 39.5623 88.7024C39.6582 89.2355 39.5811 89.7853 39.3424 90.2715C39.1036 90.7577 38.7156 91.1549 38.2351 91.405C37.9998 91.5196 37.5715 91.405 37.5474 91.785C37.5233 92.1651 37.9576 92.1228 38.1507 92.2737C39.2969 93.0519 39.0918 94.6867 37.7706 95.6097C37.4569 95.8389 36.8356 95.7364 36.8235 96.2129C36.8114 96.6895 37.4268 96.5809 37.656 96.8162C38.585 97.7271 38.1326 99.4283 36.7511 100.122C36.563 100.181 36.3795 100.253 36.2021 100.339C36.0453 100.442 35.8884 100.562 36.2021 100.78C37.5715 101.751 37.5474 103.108 36.2021 104.104L35.7919 104.405C35.2934 104.704 34.7112 104.833 34.133 104.773L19.2747 104.827C19.0416 104.865 18.8033 104.855 18.5741 104.798C18.345 104.741 18.1298 104.638 17.9415 104.496Z" fill="#EBEBEB"/>
<path fill-rule="evenodd" clip-rule="evenodd" d="M3.84857 97.9508C3.84857 95.58 3.84857 93.2031 3.84857 90.8263C3.84857 90.3437 3.8908 90.1084 4.45183 90.1084C7.35351 90.1386 10.2431 90.1084 13.1388 90.1084C13.742 90.1084 13.7963 90.2954 13.7963 90.8021C13.7963 95.58 13.8144 100.36 13.8506 105.142C13.8506 105.745 13.6877 105.92 13.0784 105.914C10.2673 105.914 7.45606 105.914 4.63281 105.944C3.93303 105.944 3.83651 105.715 3.84254 105.099C3.84857 102.704 3.84857 100.328 3.84857 97.9508Z" fill="#EBEBEB"/>
<path fill-rule="evenodd" clip-rule="evenodd" d="M232.484 182.023C232.05 181.752 231.67 181.353 231.085 181.42C230.861 181.42 230.91 181.257 230.904 181.136C230.904 178.94 230.904 176.745 230.904 174.549C230.89 174.474 230.901 174.398 230.933 174.33C230.966 174.262 231.018 174.205 231.085 174.169C232.762 173.318 233.498 171.653 234.505 170.229C235.03 169.521 235.407 168.714 235.615 167.857C235.822 167 235.855 166.11 235.712 165.24C235.639 164.746 235.868 164.529 236.315 164.426C236.538 164.347 236.78 164.341 237.006 164.411C237.232 164.48 237.43 164.621 237.57 164.812C238.054 165.709 238.381 166.682 238.535 167.69C238.532 168.521 238.433 169.349 238.239 170.157C238.161 170.76 238.022 171.364 237.913 171.967C238.058 172.069 238.233 172.015 238.39 172.015H243.952C244.736 172.015 245.116 172.232 245.225 172.751C245.287 173.07 245.242 173.401 245.097 173.693C244.952 173.984 244.715 174.219 244.423 174.362C244.284 174.434 244.037 174.362 244.018 174.585C244 174.808 244.26 174.784 244.392 174.874C245.062 175.333 244.941 176.28 244.169 176.835C243.982 176.968 243.62 176.907 243.608 177.179C243.596 177.45 243.946 177.396 244.097 177.547C244.217 177.701 244.3 177.881 244.339 178.073C244.378 178.265 244.371 178.463 244.319 178.652C244.268 178.84 244.173 179.014 244.042 179.16C243.911 179.305 243.748 179.418 243.566 179.489C243.455 179.525 243.346 179.568 243.24 179.616C243.15 179.682 243.059 179.749 243.24 179.875C244.043 180.449 244.03 181.245 243.24 181.83L242.999 182.005C242.708 182.183 242.367 182.26 242.028 182.222C239.116 182.222 236.206 182.232 233.298 182.252C233.154 182.274 233.007 182.265 232.867 182.225C232.726 182.186 232.596 182.117 232.484 182.023Z" fill="#EBEBEB"/>
<path fill-rule="evenodd" clip-rule="evenodd" d="M224.171 178.179C224.171 176.786 224.171 175.386 224.171 173.993C224.171 173.709 224.171 173.57 224.545 173.576C226.246 173.576 227.947 173.576 229.648 173.576C229.98 173.576 230.034 173.685 230.034 173.981C230.034 176.796 230.034 179.611 230.034 182.426C230.034 182.788 229.938 182.885 229.582 182.885C227.929 182.885 226.282 182.885 224.629 182.885C224.219 182.885 224.165 182.746 224.165 182.39C224.195 180.972 224.177 179.573 224.171 178.179Z" fill="#EBEBEB"/>
<path d="M31.8277 170.88H29.6499C29.3244 170.887 29.0009 170.827 28.6989 170.705C28.3969 170.584 28.1226 170.402 27.8927 170.172C27.6627 169.941 27.4818 169.666 27.3608 169.364C27.2398 169.062 27.1812 168.738 27.1886 168.413C27.1918 167.761 27.4521 167.137 27.913 166.676C28.3739 166.215 28.9981 165.955 29.6499 165.951H32.6662L34.0839 157.717H31.3511C30.6983 157.717 30.0723 157.458 29.6107 156.996C29.1491 156.534 28.8898 155.908 28.8898 155.256C28.8898 154.603 29.1491 153.977 29.6107 153.515C30.0723 153.054 30.6983 152.794 31.3511 152.794H34.9707L35.9117 147.16C36.004 146.579 36.305 146.052 36.7582 145.678C37.2113 145.304 37.7856 145.108 38.373 145.127C38.7322 145.133 39.0859 145.215 39.4108 145.368C39.7356 145.521 40.0241 145.742 40.257 146.015C40.4899 146.289 40.6619 146.608 40.7614 146.954C40.861 147.299 40.8858 147.661 40.8343 148.016L39.9898 152.794H47.4038L48.351 147.16C48.4441 146.571 48.7521 146.037 49.2155 145.662C49.6789 145.286 50.2649 145.096 50.8605 145.127C51.2171 145.134 51.568 145.218 51.8894 145.373C52.2109 145.528 52.4955 145.749 52.7241 146.023C52.9527 146.297 53.1201 146.616 53.2148 146.96C53.3096 147.304 53.3296 147.664 53.2736 148.016L52.4652 152.794H54.655C55.3052 152.799 55.9272 153.06 56.3859 153.521C56.8445 153.982 57.1027 154.605 57.1043 155.256C57.095 155.903 56.8343 156.522 56.3773 156.981C55.9204 157.441 55.3028 157.704 54.655 157.717H51.6387L50.2211 165.951H52.9116C53.236 165.948 53.5578 166.01 53.8582 166.132C54.1586 166.255 54.4316 166.436 54.6613 166.665C54.891 166.894 55.0727 167.166 55.1959 167.467C55.3191 167.767 55.3814 168.088 55.3789 168.413C55.3758 169.066 55.1148 169.692 54.6528 170.154C54.1907 170.616 53.565 170.877 52.9116 170.88H49.3644L48.3691 176.695C48.2768 177.276 47.9758 177.803 47.5226 178.177C47.0695 178.551 46.4952 178.747 45.9078 178.728C45.5477 178.73 45.1916 178.653 44.8638 178.504C44.536 178.355 44.2442 178.137 44.0083 177.865C43.7724 177.593 43.5979 177.274 43.4968 176.928C43.3957 176.582 43.3703 176.219 43.4223 175.863L44.3272 170.892H36.889L35.8997 176.707C35.7923 177.285 35.4826 177.806 35.026 178.177C34.5695 178.547 33.9959 178.743 33.4082 178.728C33.0494 178.735 32.6937 178.661 32.367 178.513C32.0402 178.364 31.7508 178.145 31.5196 177.87C31.2884 177.596 31.1214 177.273 31.0307 176.926C30.94 176.579 30.9278 176.215 30.9952 175.863L31.8277 170.88ZM45.1356 165.951L46.5593 157.717H39.1693L37.7457 165.951H45.1356Z" fill="#EBEBEB"/>
<path d="M187.119 113.401H185.382C185.123 113.403 184.867 113.353 184.628 113.255C184.389 113.157 184.172 113.012 183.989 112.829C183.807 112.646 183.663 112.428 183.565 112.189C183.468 111.95 183.419 111.693 183.421 111.435C183.424 110.916 183.632 110.419 183.999 110.052C184.366 109.685 184.863 109.477 185.382 109.474H187.795L188.929 102.911H186.733C186.231 102.883 185.759 102.664 185.413 102.299C185.068 101.934 184.875 101.45 184.875 100.947C184.875 100.444 185.068 99.9608 185.413 99.5956C185.759 99.2304 186.231 99.0114 186.733 98.9835H189.61L190.352 94.4953C190.427 94.032 190.668 93.6117 191.03 93.313C191.392 93.0143 191.85 92.8577 192.319 92.8725C192.605 92.8772 192.887 92.9429 193.146 93.0652C193.405 93.1874 193.635 93.3634 193.82 93.5815C194.006 93.7995 194.143 94.0546 194.222 94.3297C194.301 94.6048 194.321 94.8936 194.28 95.177L193.61 98.9835H199.528L200.282 94.4953C200.358 94.0272 200.604 93.6034 200.972 93.3043C201.34 93.0052 201.805 92.8515 202.279 92.8725C202.563 92.8795 202.843 92.947 203.099 93.0705C203.355 93.194 203.582 93.3706 203.765 93.5886C203.947 93.8066 204.081 94.061 204.158 94.3349C204.235 94.6088 204.252 94.8958 204.209 95.177L203.564 98.9835H205.337C205.857 98.9867 206.354 99.1953 206.72 99.5638C207.086 99.9323 207.292 100.431 207.292 100.95C207.284 101.467 207.076 101.96 206.711 102.326C206.347 102.692 205.854 102.901 205.337 102.911H202.924L201.76 109.504H203.908C204.166 109.502 204.422 109.551 204.662 109.649C204.901 109.746 205.118 109.89 205.302 110.073C205.485 110.255 205.629 110.472 205.728 110.711C205.826 110.95 205.876 111.207 205.874 111.465C205.873 111.986 205.665 112.485 205.297 112.854C204.928 113.222 204.429 113.43 203.908 113.432H201.078L200.288 118.065C200.21 118.526 199.968 118.944 199.607 119.242C199.246 119.54 198.79 119.698 198.321 119.687C198.035 119.686 197.752 119.624 197.493 119.503C197.233 119.383 197.002 119.208 196.816 118.991C196.63 118.773 196.493 118.518 196.414 118.242C196.336 117.967 196.318 117.678 196.361 117.395L197.079 113.432H191.155L190.358 118.065C190.277 118.529 190.031 118.949 189.666 119.247C189.3 119.545 188.839 119.702 188.368 119.687C188.081 119.692 187.797 119.632 187.537 119.513C187.276 119.394 187.045 119.218 186.861 118.998C186.677 118.779 186.544 118.521 186.471 118.244C186.399 117.966 186.39 117.677 186.443 117.395L187.119 113.401ZM197.724 109.504L198.858 102.941H192.971L191.836 109.504H197.724Z" fill="#EBEBEB"/>
<path d="M124.499 247.668C192.956 247.668 248.451 240.519 248.451 231.7C248.451 222.881 192.956 215.731 124.499 215.731C56.0424 215.731 0.547363 222.881 0.547363 231.7C0.547363 240.519 56.0424 247.668 124.499 247.668Z" fill="#EBEBEB"/>
<path d="M36.3405 144.553C35.6812 146.955 35.2469 149.412 35.0435 151.895C35.1099 152.015 35.0918 152.498 35.0435 152.347C35.0435 152.751 34.4403 152.679 34.4403 152.281C34.4403 152.021 34.4403 151.762 34.4403 151.508C33.0045 149.729 30.9233 148.601 29.2402 147.05C27.8821 145.837 26.895 144.264 26.3928 142.514C24.9932 137.688 26.3023 132.602 24.6252 127.8C23.1774 123.662 20.5774 120.061 18.3815 116.338C16.059 112.369 14.3457 108.2 14.1587 103.555C14.0199 100.002 14.4483 95.2605 17.175 92.5941C20.0465 89.7648 23.6057 91.8883 25.8016 94.4039C32.1781 101.721 35.128 110.963 36.3224 120.422C36.98 125.653 37.6617 130.919 37.529 136.198C37.4109 139.015 37.0128 141.814 36.3405 144.553Z" fill="#09A350"/>
<path d="M35.0669 153.813C35.4159 148.876 35.3574 143.918 34.892 138.991C34.8975 138.973 34.8975 138.954 34.892 138.936C34.9764 134.931 35.2901 130.937 35.1333 126.926C34.951 122.589 34.3735 118.278 33.408 114.046C33.408 113.998 33.3175 114.01 33.3295 114.046C34.1099 118.204 34.5757 122.414 34.7231 126.642C34.8075 128.91 34.7894 131.175 34.6688 133.435C34.6326 134.171 34.5602 134.913 34.5119 135.655C32.8452 124.405 28.7799 113.645 22.5915 104.104C22.5071 103.978 22.2778 104.104 22.3562 104.249C26.7785 111.5 30.0527 119.392 32.0627 127.643C28.9861 121.967 24.3591 117.298 20.9205 111.838C20.9205 111.808 20.8481 111.838 20.8662 111.838C23.9488 117.919 29.0524 122.697 32.3281 128.693C32.8952 131.138 33.3517 133.6 33.6975 136.077C34.1588 139.477 34.4066 142.902 34.4395 146.332C32.5694 142.846 30.633 139.504 29.1067 135.812C29.0645 135.715 28.9257 135.812 28.9559 135.878C30.2589 139.715 32.0024 143.847 34.4516 147.117C34.4516 149.53 34.3832 151.957 34.2465 154.398C33.8664 160.865 32.7625 167.253 32.2497 173.702C32.251 173.738 32.2651 173.772 32.2894 173.799C32.3136 173.825 32.3465 173.842 32.3821 173.846C32.4177 173.851 32.4536 173.842 32.4835 173.822C32.5134 173.803 32.5353 173.773 32.5453 173.739C33.8364 167.161 34.6789 160.504 35.0669 153.813Z" fill="#263238"/>
<path d="M28.1959 103.905C28.1959 103.857 28.1054 103.905 28.1235 103.935C29.33 107.205 29.9755 110.517 30.8261 113.871C30.8354 113.9 30.8548 113.925 30.8809 113.941C30.907 113.957 30.938 113.963 30.9681 113.958C30.9982 113.952 31.0255 113.937 31.0448 113.913C31.0642 113.889 31.0743 113.859 31.0734 113.829C30.7235 110.433 29.511 107.036 28.1959 103.905Z" fill="#263238"/>
<path d="M58.2141 117.606C57.4246 119.523 56.5159 121.389 55.4935 123.192C53.3639 127.059 51.1439 130.601 50.7458 135.101C50.5648 137.11 50.4985 139.131 49.8892 141.067C49.3283 142.731 48.5276 144.304 47.5123 145.736C45.2018 149.096 42.3183 151.992 40.1827 155.479C37.9588 159.115 36.3163 163.076 35.3144 167.218C35.2601 167.448 34.9042 167.387 34.9585 167.158C34.9585 167.158 34.9585 167.128 34.9585 167.11C34.9585 167.092 34.9585 167.11 34.9585 167.062C34.6207 157.409 35.3928 147.685 38.3367 138.437C39.6349 134.37 41.1966 130.392 43.012 126.529C44.5925 123.18 46.5531 119.953 49.3221 117.449C51.1319 115.833 55.0169 112.768 57.5747 114.391C58.7872 115.169 58.6968 116.4 58.2141 117.606Z" fill="#09A350"/>
<path d="M48.4883 139.486C46.7875 142.287 44.9138 144.979 42.878 147.546C41.9429 148.752 40.9958 149.959 40.0668 151.196C39.6264 151.799 39.1317 152.348 38.7275 152.969C38.9809 151.956 39.2283 150.936 39.4877 149.923C40.7304 145.048 41.9007 140.132 43.7829 135.445C45.6858 130.906 47.9261 126.516 50.4851 122.312C50.5514 122.197 50.3705 122.119 50.3041 122.227C48.2651 125.581 46.1959 128.929 44.4826 132.483C43.5345 134.455 42.7085 136.484 42.0093 138.557C42.7945 134.157 43.8953 129.818 45.3031 125.575C45.3031 125.567 45.2999 125.56 45.2942 125.554C45.2886 125.548 45.2809 125.545 45.2729 125.545C45.2649 125.545 45.2572 125.548 45.2516 125.554C45.2459 125.56 45.2428 125.567 45.2428 125.575C43.4142 129.854 42.2702 134.394 41.8524 139.028C41.4503 140.279 41.0622 141.544 40.6881 142.822C39.1679 148.252 37.8347 153.681 36.598 159.153C36.5754 155.554 36.8864 151.962 37.5271 148.421C37.5271 148.336 37.4245 148.318 37.4004 148.421C36.4597 152.112 36.1457 155.936 36.4714 159.732C36.0008 161.819 35.5443 163.904 35.102 165.988C34.1548 170.434 32.9905 174.964 32.4355 179.482C32.4361 179.503 32.4438 179.524 32.4575 179.539C32.4712 179.555 32.49 179.566 32.5106 179.569C32.5313 179.573 32.5525 179.569 32.5707 179.559C32.5889 179.549 32.603 179.532 32.6105 179.513C33.2741 177.1 33.6722 174.554 34.2152 172.087C34.7581 169.619 35.3191 167.146 35.8922 164.678C36.7308 161.089 37.6115 157.506 38.5043 153.928C39.1076 152.619 40.2598 151.455 41.1225 150.351C42.0756 149.145 43.0228 147.938 43.9457 146.732C45.6842 144.463 47.2375 142.058 48.5908 139.541C48.627 139.468 48.5426 139.432 48.4883 139.486Z" fill="#263238"/>
<path d="M48.9242 135.36C46.801 138.07 44.9615 140.991 43.4346 144.077C43.4346 144.12 43.4768 144.162 43.5009 144.12C45.3529 141.224 47.1687 138.31 49.0087 135.414C49.0449 135.36 48.9604 135.312 48.9242 135.36Z" fill="#263238"/>
<path d="M7.84108 126.757C9.08983 128.911 10.5196 131.499 9.98265 134.081C9.63879 135.722 8.44434 137.049 8.22716 138.72C7.74456 142.406 11.4184 144.843 14.0727 146.562C20.7086 150.906 29.7877 154.785 30.9942 163.665C31.0424 163.979 31.5974 163.9 31.5432 163.592C31.546 163.572 31.546 163.552 31.5432 163.532C31.5432 163.532 31.5793 163.532 31.5793 163.478C32.4436 158.996 32.3964 154.386 31.4406 149.923C30.4512 145.35 28.4545 141.236 26.0957 137.218C22.1082 130.413 17.8854 123.446 11.8528 118.233C10.1878 116.792 6.76728 114.198 5.44011 117.455C4.14913 120.634 6.3088 124.133 7.84108 126.757Z" fill="#09A350"/>
<path d="M13.9042 141.182C18.302 145.941 25.2877 148.608 29.0702 153.935C26.9573 145.825 22.9645 138.328 17.4152 132.048C17.2704 131.879 17.4996 131.65 17.6565 131.801C21.7017 135.732 24.9378 140.417 27.182 145.592C26.1341 141.98 24.7611 138.471 23.0798 135.107C23.0195 134.98 23.2004 134.866 23.2728 134.992C25.3571 138.665 26.8494 142.643 27.6947 146.78C32.6776 158.845 33.1241 172.998 32.0925 185.708C32.0925 185.889 31.8029 185.895 31.809 185.708C32.0925 175.688 31.9296 165.493 29.5286 155.708C29.4804 155.503 29.4261 155.304 29.3718 155.105C25.2576 149.368 18.302 146.708 13.8318 141.266C13.7896 141.206 13.8559 141.127 13.9042 141.182Z" fill="#263238"/>
<path d="M12.8974 137.098C15.2018 139.215 17.4701 141.375 19.7806 143.492C19.7806 143.492 19.7806 143.553 19.7504 143.534C17.1361 141.778 14.7806 139.664 12.7526 137.254C12.7318 137.235 12.7195 137.209 12.7183 137.18C12.7172 137.152 12.7274 137.124 12.7466 137.104C12.7658 137.083 12.7924 137.071 12.8207 137.069C12.849 137.068 12.8766 137.078 12.8974 137.098Z" fill="#263238"/>
<path d="M12.5238 127.927C14.5638 131.273 16.8718 134.449 19.4251 137.422C19.4613 137.458 19.4251 137.513 19.3648 137.476C16.5024 134.754 14.1453 131.545 12.4032 127.999C12.3984 127.984 12.3989 127.967 12.4046 127.952C12.4104 127.937 12.4211 127.924 12.435 127.916C12.449 127.907 12.4653 127.904 12.4814 127.906C12.4975 127.908 12.5124 127.915 12.5238 127.927Z" fill="#263238"/>
<path d="M22.9058 194.677H43.1089L40.3882 167.495H26.0186L22.9058 194.677Z" fill="#455A64"/>
<path d="M25.5103 171.917H40.833L40.3866 167.495H26.017L25.5103 171.917Z" fill="#263238"/>
<path d="M23.5446 168.823H42.481V164.485H23.5446V168.823Z" fill="#455A64"/>
<path d="M0.5 194.677L31.5015 194.532L62.503 194.478L124.5 194.375L186.497 194.478L217.498 194.526L248.5 194.677L217.498 194.828L186.497 194.876L124.5 194.979L62.503 194.876L31.5015 194.822L0.5 194.677Z" fill="#263238"/>
<path d="M177.152 0.410645H71.8347C70.4222 0.424048 69.0261 0.715556 67.7263 1.26852C66.4264 1.82149 65.2482 2.62508 64.2589 3.63341C63.2696 4.64175 62.4886 5.83507 61.9605 7.14525C61.4325 8.45542 61.1676 9.85679 61.1812 11.2693V228.081C61.1554 230.933 62.2631 233.679 64.2607 235.715C66.2583 237.751 68.9825 238.911 71.8347 238.939H177.152C180.006 238.912 182.732 237.754 184.732 235.717C186.732 233.681 187.842 230.935 187.817 228.081V11.2633C187.842 8.40999 186.732 5.66391 184.731 3.6288C182.731 1.59368 180.005 0.436134 177.152 0.410645ZM181.157 221.379C181.157 227.085 176.886 231.7 171.614 231.7H77.3908C72.1062 231.7 67.8351 227.085 67.8351 221.379V19.4797C67.8351 7.85487 72.1062 7.2878 77.3908 7.2878H96.2607C97.3586 7.2878 98.2575 8.53655 98.2575 10.0809V10.7505C98.2575 14.3701 100.236 14.3701 102.673 14.3701H146.319C148.774 14.3701 150.735 14.3701 150.735 10.7505V10.0809C150.735 8.53655 151.622 7.2878 152.738 7.2878H171.614C176.886 7.2878 181.157 8.83818 181.157 19.4797V221.379Z" fill="#263238"/>
<path d="M130.446 9.85672H118.544C118.447 9.85752 118.351 9.83904 118.262 9.80234C118.172 9.76564 118.09 9.71145 118.022 9.64295C117.953 9.57445 117.899 9.49299 117.863 9.40334C117.826 9.31368 117.807 9.21762 117.808 9.12074C117.808 8.92555 117.886 8.73835 118.024 8.60033C118.162 8.46231 118.349 8.38477 118.544 8.38477H130.446C130.642 8.38477 130.829 8.46231 130.967 8.60033C131.105 8.73835 131.182 8.92555 131.182 9.12074C131.183 9.21762 131.165 9.31368 131.128 9.40334C131.091 9.49299 131.037 9.57445 130.969 9.64295C130.9 9.71145 130.819 9.76564 130.729 9.80234C130.639 9.83904 130.543 9.85752 130.446 9.85672Z" fill="white"/>
<path d="M181.163 19.479V221.378C181.163 227.085 176.886 231.7 171.614 231.7H77.3906C72.106 231.7 67.835 227.085 67.835 221.378V19.479C67.835 7.85417 72.106 7.28711 77.3906 7.28711H96.2606C97.3585 7.28711 98.2573 8.53586 98.2573 10.0802V10.7498C98.2573 14.3694 100.236 14.3694 102.673 14.3694H146.319C148.774 14.3694 150.741 14.3694 150.741 10.7498V10.0802C150.741 8.53586 151.622 7.28711 152.738 7.28711H171.614C176.886 7.28711 181.163 8.83749 181.163 19.479Z" fill="white"/>
<path d="M181.158 19.479V50.5951H67.8301V19.479C67.8301 7.85417 72.1072 7.28711 77.3917 7.28711H96.2677C97.3657 7.28711 98.2585 8.53586 98.2585 10.0802V10.7498C98.2585 14.3694 100.243 14.3694 102.674 14.3694H146.32C148.775 14.3694 150.742 14.3694 150.742 10.7498V10.0802C150.742 8.53586 151.629 7.28711 152.745 7.28711H171.615C176.887 7.28711 181.158 8.83749 181.158 19.479Z" fill="#09A350"/>
<path d="M93.0094 11.8245L92.8224 12.0055C92.7912 12.0426 92.7569 12.0769 92.7198 12.108C92.2541 11.6423 91.623 11.3798 90.9643 11.3781C90.6363 11.3763 90.3113 11.4405 90.0087 11.5669C89.7061 11.6934 89.432 11.8794 89.2028 12.1141C89.1738 12.077 89.1415 12.0427 89.1063 12.0115L88.9253 11.8305C88.9977 11.7582 89.0761 11.6918 89.1545 11.6254C89.3177 11.4908 89.4958 11.3755 89.6854 11.2816C89.9083 11.1701 90.146 11.0909 90.3912 11.0463C90.5119 11.0463 90.6265 11.0161 90.7471 10.998H91.0548H91.2961C91.5189 11.0231 91.7378 11.0758 91.9476 11.1549C92.0979 11.211 92.2432 11.2796 92.382 11.36C92.5324 11.4439 92.6739 11.5429 92.8043 11.6556L92.9973 11.8245H93.0094Z" fill="white"/>
<path d="M89.7812 12.6805L89.5098 12.3789C89.702 12.1859 89.9305 12.0328 90.182 11.9283C90.4336 11.8238 90.7033 11.77 90.9757 11.77C91.2481 11.77 91.5178 11.8238 91.7693 11.9283C92.0209 12.0328 92.2494 12.1859 92.4416 12.3789L92.152 12.6684C91.9945 12.5096 91.8063 12.3843 91.5989 12.3003C91.3915 12.2163 91.1692 12.1753 90.9455 12.1798C90.5069 12.188 90.0889 12.3677 89.7812 12.6805Z" fill="white"/>
<path d="M91.8574 12.9824L91.5679 13.2659C91.4069 13.1077 91.1903 13.0189 90.9646 13.0186C90.8522 13.0179 90.7407 13.04 90.637 13.0835C90.5334 13.1271 90.4396 13.1912 90.3613 13.272L90.0718 12.9824C90.1889 12.8649 90.3281 12.7717 90.4813 12.7081C90.6345 12.6446 90.7987 12.6118 90.9646 12.6118C91.1305 12.6118 91.2947 12.6446 91.4479 12.7081C91.6012 12.7717 91.7403 12.8649 91.8574 12.9824Z" fill="white"/>
<path d="M91.2249 13.5197C91.2249 13.5885 91.1975 13.6544 91.1489 13.7031C91.1002 13.7517 91.0343 13.7791 90.9655 13.7791C90.8967 13.7791 90.8307 13.7517 90.782 13.7031C90.7334 13.6544 90.7061 13.5885 90.7061 13.5197C90.7061 13.4509 90.7334 13.3849 90.782 13.3362C90.8307 13.2876 90.8967 13.2603 90.9655 13.2603C91.0343 13.2603 91.1002 13.2876 91.1489 13.3362C91.1975 13.3849 91.2249 13.4509 91.2249 13.5197Z" fill="white"/>
<path d="M75.9736 13.1221C76.3868 13.1221 76.7217 12.7871 76.7217 12.374C76.7217 11.9609 76.3868 11.626 75.9736 11.626C75.5605 11.626 75.2256 11.9609 75.2256 12.374C75.2256 12.7871 75.5605 13.1221 75.9736 13.1221Z" fill="white"/>
<path d="M77.5903 12.38C77.5903 12.2306 77.6347 12.0846 77.7178 11.9605C77.801 11.8363 77.9191 11.7397 78.0572 11.6828C78.1954 11.6259 78.3473 11.6113 78.4937 11.6409C78.6402 11.6705 78.7745 11.7429 78.8798 11.849C78.985 11.955 79.0563 12.09 79.0847 12.2366C79.1131 12.3833 79.0973 12.5351 79.0393 12.6728C78.9813 12.8105 78.8837 12.9278 78.7589 13.01C78.6341 13.0921 78.4878 13.1353 78.3384 13.1341C78.1394 13.1325 77.9492 13.0524 77.8091 12.9111C77.6689 12.7699 77.5903 12.579 77.5903 12.38Z" fill="white"/>
<path d="M80.7085 13.1221C81.1216 13.1221 81.4565 12.7871 81.4565 12.374C81.4565 11.9609 81.1216 11.626 80.7085 11.626C80.2954 11.626 79.9604 11.9609 79.9604 12.374C79.9604 12.7871 80.2954 13.1221 80.7085 13.1221Z" fill="white"/>
<path d="M82.3198 12.3801C82.3198 12.2309 82.364 12.0851 82.4469 11.9611C82.5298 11.8371 82.6475 11.7405 82.7853 11.6834C82.9231 11.6263 83.0747 11.6114 83.221 11.6405C83.3673 11.6696 83.5016 11.7414 83.6071 11.8468C83.7126 11.9523 83.7844 12.0867 83.8135 12.2329C83.8426 12.3792 83.8276 12.5308 83.7706 12.6686C83.7135 12.8064 83.6168 12.9242 83.4928 13.007C83.3688 13.0899 83.223 13.1341 83.0739 13.1341C82.8739 13.1341 82.6821 13.0547 82.5407 12.9133C82.3993 12.7718 82.3198 12.58 82.3198 12.3801Z" fill="white"/>
<path d="M84.6846 12.3801C84.6846 12.2309 84.7288 12.0851 84.8117 11.9611C84.8945 11.8371 85.0123 11.7405 85.1501 11.6834C85.2879 11.6263 85.4395 11.6114 85.5858 11.6405C85.732 11.6696 85.8664 11.7414 85.9719 11.8468C86.0773 11.9523 86.1491 12.0867 86.1782 12.2329C86.2073 12.3792 86.1924 12.5308 86.1353 12.6686C86.0782 12.8064 85.9816 12.9242 85.8576 13.007C85.7336 13.0899 85.5878 13.1341 85.4386 13.1341C85.2387 13.1341 85.0469 13.0547 84.9054 12.9133C84.764 12.7718 84.6846 12.58 84.6846 12.3801Z" fill="white"/>
<path d="M172.652 14.0077H166.547V11.1724H172.652V14.0077ZM166.849 13.7061H172.35V11.4921H166.849V13.7061Z" fill="white"/>
<path d="M170.992 11.6631H167.053V13.5332H170.992V11.6631Z" fill="white"/>
<path d="M173.206 11.8408H172.663V13.355H173.206V11.8408Z" fill="white"/>
<path d="M140.118 134.123H99.501V139.938H140.118V134.123Z" fill="#09A350"/>
<path d="M149.348 134.123H143.532V139.938H149.348V134.123Z" fill="#DBDBDB"/>
<path d="M145.269 137.031C145.269 137.102 145.248 137.172 145.208 137.232C145.169 137.292 145.112 137.338 145.046 137.365C144.98 137.393 144.907 137.4 144.837 137.386C144.767 137.372 144.702 137.337 144.651 137.287C144.601 137.236 144.566 137.172 144.552 137.102C144.538 137.031 144.546 136.959 144.573 136.892C144.6 136.826 144.647 136.77 144.706 136.73C144.766 136.69 144.836 136.669 144.907 136.669C144.955 136.669 145.002 136.678 145.046 136.697C145.09 136.715 145.13 136.741 145.163 136.775C145.197 136.809 145.224 136.848 145.242 136.892C145.26 136.936 145.269 136.983 145.269 137.031Z" fill="#263238"/>
<path d="M146.821 137.031C146.821 137.102 146.799 137.172 146.76 137.232C146.72 137.292 146.663 137.338 146.597 137.365C146.531 137.393 146.458 137.4 146.388 137.386C146.318 137.372 146.253 137.337 146.203 137.287C146.152 137.236 146.118 137.172 146.104 137.102C146.09 137.031 146.097 136.959 146.124 136.892C146.152 136.826 146.198 136.77 146.258 136.73C146.317 136.69 146.387 136.669 146.459 136.669C146.506 136.669 146.553 136.678 146.597 136.697C146.641 136.715 146.681 136.741 146.715 136.775C146.748 136.809 146.775 136.848 146.793 136.892C146.811 136.936 146.821 136.983 146.821 137.031Z" fill="#263238"/>
<path d="M148.329 137.031C148.329 137.102 148.308 137.172 148.268 137.232C148.229 137.292 148.172 137.338 148.106 137.365C148.04 137.393 147.967 137.4 147.897 137.386C147.827 137.372 147.762 137.337 147.711 137.287C147.661 137.236 147.626 137.172 147.612 137.102C147.598 137.031 147.606 136.959 147.633 136.892C147.66 136.826 147.707 136.77 147.766 136.73C147.826 136.69 147.896 136.669 147.967 136.669C148.015 136.669 148.062 136.678 148.106 136.697C148.15 136.715 148.19 136.741 148.223 136.775C148.257 136.809 148.284 136.848 148.302 136.892C148.32 136.936 148.329 136.983 148.329 137.031Z" fill="#263238"/>
<path d="M76.203 29.9219L73.5547 27.4364L76.203 24.957L76.6192 25.3914L74.4294 27.4364L76.6192 29.4875L76.203 29.9219Z" fill="white"/>
<path d="M174.77 26.4111C175.057 26.4111 175.289 26.1789 175.289 25.8923C175.289 25.6058 175.057 25.3735 174.77 25.3735C174.484 25.3735 174.251 25.6058 174.251 25.8923C174.251 26.1789 174.484 26.4111 174.77 26.4111Z" fill="white"/>
<path d="M174.77 28.2632C175.057 28.2632 175.289 28.0309 175.289 27.7444C175.289 27.4579 175.057 27.2256 174.77 27.2256C174.484 27.2256 174.251 27.4579 174.251 27.7444C174.251 28.0309 174.484 28.2632 174.77 28.2632Z" fill="white"/>
<path d="M175.295 29.602C175.303 29.6752 175.295 29.7493 175.272 29.8194C175.25 29.8895 175.213 29.954 175.163 30.0088C175.114 30.0636 175.054 30.1075 174.987 30.1375C174.919 30.1675 174.847 30.183 174.773 30.183C174.699 30.183 174.626 30.1675 174.559 30.1375C174.492 30.1075 174.432 30.0636 174.382 30.0088C174.333 29.954 174.296 29.8895 174.273 29.8194C174.251 29.7493 174.243 29.6752 174.251 29.602C174.265 29.4732 174.326 29.3542 174.422 29.2677C174.519 29.1812 174.643 29.1333 174.773 29.1333C174.902 29.1333 175.027 29.1812 175.124 29.2677C175.22 29.3542 175.281 29.4732 175.295 29.602Z" fill="white"/>
<path d="M83.1288 154.75C82.4786 155.153 81.7173 155.34 80.9541 155.284C80.191 155.228 79.4653 154.931 78.8813 154.437C78.2973 153.942 77.885 153.275 77.7037 152.532C77.5223 151.789 77.5813 151.007 77.872 150.299C78.1628 149.591 78.6704 148.994 79.3219 148.592C79.9735 148.191 80.7355 148.007 81.4984 148.065C82.2614 148.124 82.986 148.423 83.5684 148.92C84.1507 149.416 84.5607 150.084 84.7395 150.828C84.9173 151.568 84.8574 152.346 84.5682 153.05C84.2791 153.753 83.7754 154.348 83.1288 154.75Z" fill="#DBDBDB"/>
<path d="M82.3316 151.28C82.3316 151.497 82.2672 151.709 82.1466 151.89C82.0259 152.07 81.8545 152.211 81.6538 152.294C81.4532 152.377 81.2325 152.399 81.0195 152.356C80.8065 152.314 80.6109 152.209 80.4573 152.056C80.3038 151.902 80.1992 151.707 80.1568 151.494C80.1145 151.281 80.1362 151.06 80.2193 150.859C80.3024 150.659 80.4431 150.487 80.6237 150.367C80.8043 150.246 81.0165 150.182 81.2337 150.182C81.5249 150.182 81.8041 150.297 82.01 150.503C82.2159 150.709 82.3316 150.988 82.3316 151.28Z" fill="white"/>
<path d="M83.1285 154.308V154.749C82.558 155.1 81.9012 155.286 81.2312 155.286C80.5613 155.286 79.9045 155.1 79.334 154.749V154.296C79.3613 153.811 79.5731 153.356 79.9259 153.022C80.2787 152.689 80.7458 152.503 81.2312 152.503C81.7167 152.503 82.1837 152.689 82.5365 153.022C82.8893 153.356 83.1011 153.811 83.1285 154.296V154.308Z" fill="white"/>
<path d="M169.744 149.318C169.808 149.32 169.868 149.346 169.913 149.391C169.958 149.436 169.984 149.496 169.985 149.56C169.985 149.624 169.96 149.685 169.915 149.73C169.87 149.776 169.808 149.801 169.744 149.801C169.713 149.801 169.682 149.795 169.653 149.782C169.624 149.77 169.598 149.752 169.576 149.73C169.554 149.707 169.536 149.681 169.525 149.652C169.514 149.622 169.508 149.591 169.509 149.56C169.509 149.497 169.533 149.436 169.577 149.391C169.621 149.346 169.681 149.32 169.744 149.318Z" fill="black"/>
<path d="M170.462 149.318C170.525 149.32 170.586 149.346 170.631 149.391C170.676 149.436 170.702 149.496 170.703 149.56C170.703 149.624 170.678 149.685 170.633 149.73C170.587 149.776 170.526 149.801 170.462 149.801C170.431 149.801 170.399 149.795 170.37 149.782C170.342 149.77 170.315 149.752 170.293 149.73C170.271 149.707 170.254 149.681 170.243 149.652C170.231 149.622 170.226 149.591 170.227 149.56C170.227 149.497 170.251 149.436 170.295 149.391C170.339 149.346 170.399 149.32 170.462 149.318Z" fill="black"/>
<path d="M171.198 149.318C171.262 149.32 171.322 149.346 171.367 149.391C171.412 149.436 171.438 149.496 171.44 149.56C171.445 149.594 171.443 149.629 171.434 149.663C171.424 149.697 171.408 149.728 171.385 149.754C171.362 149.781 171.334 149.802 171.302 149.817C171.271 149.831 171.236 149.839 171.201 149.839C171.166 149.839 171.132 149.831 171.1 149.817C171.068 149.802 171.04 149.781 171.018 149.754C170.995 149.728 170.978 149.697 170.969 149.663C170.96 149.629 170.957 149.594 170.963 149.56C170.964 149.497 170.99 149.438 171.033 149.393C171.077 149.348 171.136 149.321 171.198 149.318Z" fill="black"/>
<path d="M78.0552 159.298L89.7705 159.189L99.4588 159.123L118.836 159.075L128.065 159.123L137.748 159.189L147.436 159.298L137.748 159.406L128.065 159.467L118.836 159.521L99.4588 159.467L89.7705 159.406L78.0552 159.298Z" fill="#263238"/>
<path d="M78.0483 161.347C83.5139 161.257 91.3201 161.215 96.8157 161.178L113.218 161.124L129.627 161.178L134.224 161.347L129.627 161.522L113.218 161.57L96.8157 161.522C91.3502 161.486 83.5199 161.444 78.0483 161.347Z" fill="#263238"/>
<path d="M78.0483 163.718C84.0085 163.628 92.5266 163.586 98.4988 163.549L116.379 163.495L134.254 163.549L139.267 163.718L134.254 163.893L116.379 163.948L98.4988 163.893C92.5266 163.857 84.0146 163.797 78.0483 163.718Z" fill="#263238"/>
<path d="M109.58 148.933H87.8569V151.28H109.58V148.933Z" fill="#455A64"/>
<path d="M105.189 152.45H87.8569V153.868H105.189V152.45Z" fill="#DBDBDB"/>
<path d="M77.6211 168.623L89.3304 168.545L101.034 168.521L124.44 168.473L147.847 168.521L159.556 168.545L171.259 168.623L159.556 168.696L147.847 168.72L124.44 168.774L101.034 168.72L89.3304 168.696L77.6211 168.623Z" fill="#DBDBDB"/>
<path d="M83.1285 180.235C82.4784 180.638 81.7173 180.825 80.9545 180.769C80.1916 180.713 79.4663 180.416 78.8824 179.922C78.2986 179.427 77.8864 178.761 77.7049 178.018C77.5234 177.275 77.582 176.493 77.8723 175.786C78.1625 175.078 78.6695 174.48 79.3205 174.079C79.9715 173.677 80.733 173.492 81.4957 173.55C82.2584 173.608 82.9832 173.906 83.5659 174.402C84.1486 174.897 84.5594 175.565 84.7392 176.308C84.9184 177.049 84.8592 177.827 84.57 178.533C84.2807 179.238 83.7763 179.834 83.1285 180.235Z" fill="#DBDBDB"/>
<path d="M82.3316 176.755C82.3316 176.972 82.2672 177.184 82.1466 177.365C82.0259 177.545 81.8545 177.686 81.6538 177.769C81.4532 177.852 81.2325 177.874 81.0195 177.831C80.8065 177.789 80.6109 177.685 80.4573 177.531C80.3038 177.377 80.1992 177.182 80.1568 176.969C80.1145 176.756 80.1362 176.535 80.2193 176.335C80.3024 176.134 80.4431 175.962 80.6237 175.842C80.8043 175.721 81.0165 175.657 81.2337 175.657C81.5244 175.658 81.8027 175.774 82.0083 175.98C82.2138 176.186 82.33 176.464 82.3316 176.755Z" fill="white"/>
<path d="M83.1276 179.783V180.236C82.5571 180.587 81.9003 180.773 81.2303 180.773C80.5604 180.773 79.9036 180.587 79.3331 180.236V179.783C79.3185 179.525 79.3568 179.267 79.4456 179.024C79.5343 178.781 79.6717 178.559 79.8493 178.371C80.0269 178.183 80.241 178.033 80.4785 177.931C80.7159 177.829 80.9718 177.776 81.2303 177.776C81.4889 177.776 81.7447 177.829 81.9822 177.931C82.2197 178.033 82.4338 178.183 82.6114 178.371C82.789 178.559 82.9264 178.781 83.0151 179.024C83.1039 179.267 83.1422 179.525 83.1276 179.783Z" fill="white"/>
<path d="M169.744 174.801C169.808 174.801 169.87 174.826 169.915 174.871C169.96 174.917 169.985 174.978 169.985 175.042C169.985 175.074 169.979 175.105 169.967 175.134C169.955 175.162 169.937 175.189 169.914 175.211C169.892 175.233 169.865 175.25 169.836 175.261C169.807 175.273 169.776 175.278 169.744 175.277C169.713 175.278 169.682 175.273 169.653 175.261C169.624 175.25 169.598 175.232 169.576 175.21C169.554 175.188 169.537 175.162 169.525 175.133C169.514 175.104 169.508 175.073 169.509 175.042C169.508 175.011 169.514 174.979 169.525 174.95C169.536 174.921 169.554 174.894 169.576 174.872C169.598 174.849 169.624 174.831 169.653 174.819C169.682 174.807 169.713 174.801 169.744 174.801Z" fill="black"/>
<path d="M170.462 174.801C170.526 174.801 170.587 174.826 170.633 174.871C170.678 174.917 170.703 174.978 170.703 175.042C170.703 175.074 170.697 175.105 170.685 175.134C170.673 175.162 170.655 175.189 170.632 175.211C170.61 175.233 170.583 175.25 170.554 175.261C170.525 175.273 170.493 175.278 170.462 175.277C170.431 175.278 170.4 175.273 170.371 175.261C170.342 175.25 170.316 175.232 170.294 175.21C170.272 175.188 170.254 175.162 170.243 175.133C170.231 175.104 170.226 175.073 170.227 175.042C170.226 175.011 170.231 174.979 170.243 174.95C170.254 174.921 170.271 174.894 170.293 174.872C170.315 174.849 170.342 174.831 170.37 174.819C170.399 174.807 170.431 174.801 170.462 174.801Z" fill="black"/>
<path d="M171.198 174.801C171.262 174.801 171.324 174.826 171.369 174.871C171.414 174.917 171.439 174.978 171.439 175.042C171.43 175.099 171.401 175.15 171.358 175.188C171.314 175.225 171.259 175.245 171.201 175.245C171.144 175.245 171.088 175.225 171.045 175.188C171.001 175.15 170.972 175.099 170.963 175.042C170.963 174.979 170.987 174.919 171.031 174.874C171.075 174.828 171.135 174.802 171.198 174.801Z" fill="black"/>
<path d="M78.0552 184.767L89.7705 184.659L99.4588 184.598L118.836 184.544L128.065 184.598L137.748 184.659L147.436 184.767L137.748 184.882L128.065 184.942L118.836 184.996L99.4588 184.942L89.7705 184.876L78.0552 184.767Z" fill="#263238"/>
<path d="M78.0483 186.823C83.5139 186.733 91.3201 186.685 96.8157 186.648L113.218 186.6L129.627 186.648L134.224 186.823L129.627 186.998L113.218 187.047L96.8157 186.992C91.3502 186.956 83.5199 186.914 78.0483 186.823Z" fill="#263238"/>
<path d="M109.58 174.408H87.8569V176.755H109.58V174.408Z" fill="#455A64"/>
<path d="M105.189 177.927H87.8569V179.344H105.189V177.927Z" fill="#DBDBDB"/>
<path d="M77.6211 192.887L89.3304 192.814L101.034 192.79L124.44 192.736L147.847 192.79L159.556 192.814L171.259 192.887L159.556 192.965L147.847 192.989L124.44 193.037L101.034 192.989L89.3304 192.959L77.6211 192.887Z" fill="#DBDBDB"/>
<path d="M83.1288 205.343C82.4786 205.746 81.7173 205.934 80.9541 205.877C80.191 205.821 79.4653 205.524 78.8813 205.03C78.2973 204.535 77.885 203.869 77.7037 203.125C77.5223 202.382 77.5813 201.6 77.872 200.892C78.1628 200.184 78.6704 199.587 79.3219 199.186C79.9735 198.784 80.7355 198.6 81.4984 198.659C82.2614 198.717 82.986 199.017 83.5684 199.513C84.1507 200.009 84.5607 200.678 84.7395 201.422C84.9173 202.162 84.8574 202.939 84.5682 203.643C84.2791 204.347 83.7754 204.942 83.1288 205.343Z" fill="#DBDBDB"/>
<path d="M82.3316 201.863C82.3316 202.08 82.2672 202.292 82.1466 202.473C82.0259 202.654 81.8545 202.794 81.6538 202.877C81.4532 202.961 81.2325 202.982 81.0195 202.94C80.8065 202.898 80.6109 202.793 80.4573 202.639C80.3038 202.486 80.1992 202.29 80.1568 202.077C80.1145 201.864 80.1362 201.644 80.2193 201.443C80.3024 201.242 80.4431 201.071 80.6237 200.95C80.8043 200.83 81.0165 200.765 81.2337 200.765C81.5249 200.765 81.8041 200.881 82.01 201.087C82.2159 201.293 82.3316 201.572 82.3316 201.863Z" fill="white"/>
<path d="M83.1285 204.891V205.344C82.5599 205.7 81.9024 205.889 81.2312 205.889C80.5601 205.889 79.9026 205.7 79.334 205.344V204.891C79.3613 204.407 79.5731 203.951 79.9259 203.617C80.2787 203.284 80.7458 203.098 81.2312 203.098C81.7167 203.098 82.1837 203.284 82.5365 203.617C82.8893 203.951 83.1011 204.407 83.1285 204.891Z" fill="white"/>
<path d="M169.745 199.915C169.78 199.909 169.815 199.911 169.849 199.921C169.882 199.93 169.913 199.947 169.94 199.969C169.966 199.992 169.988 200.02 170.002 200.052C170.017 200.084 170.025 200.118 170.025 200.153C170.025 200.188 170.017 200.222 170.002 200.254C169.988 200.286 169.966 200.314 169.94 200.337C169.913 200.359 169.882 200.376 169.849 200.385C169.815 200.395 169.78 200.397 169.745 200.391C169.689 200.382 169.637 200.353 169.6 200.31C169.562 200.266 169.542 200.21 169.542 200.153C169.542 200.096 169.562 200.04 169.6 199.996C169.637 199.953 169.689 199.924 169.745 199.915Z" fill="black"/>
<path d="M170.463 199.915C170.497 199.909 170.532 199.911 170.566 199.921C170.599 199.93 170.631 199.947 170.657 199.969C170.684 199.992 170.705 200.02 170.72 200.052C170.734 200.084 170.742 200.118 170.742 200.153C170.742 200.188 170.734 200.222 170.72 200.254C170.705 200.286 170.684 200.314 170.657 200.337C170.631 200.359 170.599 200.376 170.566 200.385C170.532 200.395 170.497 200.397 170.463 200.391C170.406 200.382 170.354 200.353 170.317 200.31C170.28 200.266 170.259 200.21 170.259 200.153C170.259 200.096 170.28 200.04 170.317 199.996C170.354 199.953 170.406 199.924 170.463 199.915Z" fill="black"/>
<path d="M171.199 199.915C171.233 199.909 171.269 199.911 171.302 199.921C171.336 199.93 171.367 199.947 171.394 199.969C171.42 199.992 171.441 200.02 171.456 200.052C171.471 200.084 171.478 200.118 171.478 200.153C171.478 200.188 171.471 200.222 171.456 200.254C171.441 200.286 171.42 200.314 171.394 200.337C171.367 200.359 171.336 200.376 171.302 200.385C171.269 200.395 171.233 200.397 171.199 200.391C171.142 200.382 171.091 200.353 171.053 200.31C171.016 200.266 170.996 200.21 170.996 200.153C170.996 200.096 171.016 200.04 171.053 199.996C171.091 199.953 171.142 199.924 171.199 199.915Z" fill="black"/>
<path d="M99.3804 209.88L107.494 209.772L114.208 209.712L127.625 209.657L134.02 209.705L140.728 209.772L147.436 209.88L140.728 209.989L134.02 210.055L127.625 210.104L114.208 210.055L107.494 209.989L99.3804 209.88Z" fill="#263238"/>
<path d="M99.3804 211.933C103.169 211.842 108.592 211.8 112.381 211.764L123.74 211.709L135.105 211.764L138.291 211.933L135.105 212.108L123.74 212.162L112.381 212.108C108.592 212.059 103.169 212.059 99.3804 211.933Z" fill="#263238"/>
<path d="M109.58 199.517H87.8569V201.863H109.58V199.517Z" fill="#455A64"/>
<path d="M105.189 203.039H87.8569V204.456H105.189V203.039Z" fill="#DBDBDB"/>
<path d="M77.6223 224.111H96.438V209.657H77.6223V224.111Z" fill="#09A350"/>
<path opacity="0.2" d="M79.6486 213.047C79.5793 213.4 79.6254 213.766 79.78 214.091C79.9346 214.416 80.1896 214.682 80.5073 214.851C80.8249 215.02 81.1885 215.082 81.5442 215.028C81.9 214.975 82.229 214.808 82.4828 214.553C82.7366 214.298 82.9017 213.968 82.9537 213.612C83.0057 213.256 82.9418 212.893 82.7716 212.576C82.6013 212.259 82.3336 212.006 82.0081 211.852C81.6825 211.699 81.3164 211.655 80.9637 211.726C80.6384 211.791 80.3398 211.952 80.1057 212.187C79.8716 212.422 79.7125 212.721 79.6486 213.047Z" fill="black"/>
<path opacity="0.2" d="M82.8394 221.059H96.4368L89.6381 213.439L82.8394 221.059Z" fill="black"/>
<path d="M77.6211 221.064H88.8478L83.2374 216.1L77.6211 221.064Z" fill="#09A350"/>
<path opacity="0.3" d="M77.6211 221.064H88.8478L83.2374 216.1L77.6211 221.064Z" fill="black"/>
<path d="M96.4431 221.059H77.6274V224.111H96.4431V221.059Z" fill="#09A350"/>
<path opacity="0.3" d="M96.4431 221.059H77.6274V224.111H96.4431V221.059Z" fill="black"/>
<path d="M143.75 111.391C137.962 114.966 131.293 116.859 124.491 116.859C117.688 116.859 111.019 114.966 105.232 111.391C98.4544 107.201 93.2285 100.916 90.3465 93.4874C87.4645 86.0591 87.0835 77.8936 89.2614 70.2293C91.4393 62.565 96.0573 55.82 102.415 51.0173C108.772 46.2146 116.523 43.6162 124.491 43.6162C132.458 43.6162 140.209 46.2146 146.566 51.0173C152.924 55.82 157.542 62.565 159.72 70.2293C161.898 77.8936 161.517 86.0591 158.635 93.4874C155.753 100.916 150.527 107.201 143.75 111.391Z" fill="#A6A6A6"/>
<path d="M123.01 71.7807C136.596 79.7739 154.38 84.9619 158.796 82.1688C163.212 79.3758 170.258 56.7958 169.703 51.4328C169.473 49.1163 153.734 47.8796 152.166 49.804C150.597 51.7284 148.92 65.4224 148.07 66.6952C147.467 67.6122 133.561 65.3982 124.862 64.5235C119.312 63.9564 115.844 67.5639 123.01 71.7807Z" fill="#AD6359"/>
<path d="M169.527 54.4925C170.063 52.176 171.94 40.1952 171.674 37.0885C171.409 33.9817 170.051 25.0957 167.656 25.0233C165.262 24.9509 165.449 27.6052 165.449 27.6052C165.449 27.6052 164.278 23.9434 161.859 24.1184C159.44 24.2933 159.874 28.3412 159.874 28.3412C159.874 28.3412 158.396 24.6734 155.995 25.0112C153.594 25.349 154.723 29.3909 154.723 29.3909C154.723 29.3909 153.516 25.9704 151.67 27.0864C149.432 28.4257 152.346 34.4824 152.37 37.9451C152.37 38.7293 151.326 53.8289 151.326 53.8289L169.527 54.4925Z" fill="#AD6359"/>
<path d="M154.663 29.1003C156.799 33.5584 156.961 35.8749 156.394 40.707C156.394 40.8035 156.521 40.8397 156.539 40.7432C157.528 36.0619 157.746 33.124 154.874 28.9857C154.705 28.7805 154.53 28.8831 154.663 29.1003Z" fill="#263238"/>
<path d="M159.7 28.0644C161.51 32.8905 161.709 35.406 161.51 40.5096C161.51 40.5272 161.517 40.5441 161.53 40.5565C161.542 40.569 161.559 40.576 161.576 40.576C161.594 40.576 161.611 40.569 161.623 40.5565C161.636 40.5441 161.643 40.5272 161.643 40.5096C162.276 35.5207 162.427 32.5828 159.984 27.998C159.845 27.7869 159.616 27.8291 159.7 28.0644Z" fill="#263238"/>
<path d="M165.43 27.8888C166.848 32.7148 167.185 35.4355 166.329 40.3642C166.323 40.3882 166.327 40.4134 166.34 40.4343C166.353 40.4553 166.374 40.4702 166.398 40.4758C166.422 40.4814 166.447 40.4772 166.468 40.4642C166.489 40.4512 166.504 40.4304 166.51 40.4064C167.867 35.4657 167.475 32.0331 165.581 27.8646C165.454 27.5751 165.339 27.5871 165.43 27.8888Z" fill="#263238"/>
<path d="M150.911 56.9558C150.911 56.9558 147.249 51.9608 146.127 49.409C145.005 46.8572 144.317 35.8175 146.688 35.534C149.759 35.166 151.411 41.458 151.816 44.6493C151.816 44.6493 158.916 43.7926 161.082 48.0577C163.247 52.3227 150.911 56.9558 150.911 56.9558Z" fill="#AD6359"/>
<path d="M147.563 35.7071C150.579 37.3902 150.869 41.613 151.496 44.6776C151.504 44.7227 151.523 44.7653 151.55 44.8019C151.578 44.8385 151.614 44.8681 151.655 44.8881C151.696 44.9081 151.741 44.9181 151.787 44.9171C151.833 44.9162 151.878 44.9044 151.918 44.8827C154.935 44.7198 159.194 45.3653 161.142 47.899C161.154 47.9128 161.17 47.9219 161.187 47.9246C161.205 47.9273 161.223 47.9235 161.238 47.9138C161.253 47.9041 161.263 47.8892 161.268 47.872C161.273 47.8548 161.271 47.8365 161.263 47.8206C159.538 44.8525 155.387 43.8752 152.118 44.2613C151.514 41.1063 151.068 36.8835 147.581 35.7071C147.557 35.6709 147.545 35.695 147.563 35.7071Z" fill="#263238"/>
<path d="M144.046 83.8352L147.756 65.7375C147.756 65.7375 133.627 63.4028 124.958 63.5416C116.29 63.6803 113.424 67.0224 124.307 73.5255C130.671 77.3591 137.263 80.802 144.046 83.8352Z" fill="#455A64"/>
<path d="M144.25 66.0158C143.519 68.5052 142.851 71.0148 142.248 73.5445C141.952 74.7872 141.644 76.0299 141.361 77.2847C141.077 78.5394 140.884 79.8907 140.595 81.1817C140.595 81.2722 140.715 81.3144 140.74 81.2239C141.059 79.9873 141.463 78.7687 141.795 77.532C142.127 76.2953 142.398 74.9681 142.73 73.6892C143.338 71.1555 143.882 68.6078 144.365 66.0459C144.366 66.0319 144.362 66.018 144.354 66.0066C144.346 65.9952 144.334 65.987 144.32 65.9834C144.307 65.9799 144.292 65.9811 144.28 65.987C144.267 65.9929 144.257 66.0031 144.25 66.0158Z" fill="#263238"/>
<path d="M140.897 112.942C138.581 114.115 136.143 115.031 133.628 115.674L133.109 115.807C132.783 115.892 132.445 115.964 132.119 116.036C127.021 117.144 121.744 117.144 116.646 116.036C116.151 115.928 115.656 115.807 115.168 115.674C112.234 114.91 109.409 113.779 106.758 112.308C106.547 112.2 106.342 112.085 106.155 111.958C105.829 111.771 105.504 111.572 105.172 111.355C103.817 110.516 102.52 109.589 101.287 108.58C101.136 108.472 100.991 108.351 100.846 108.224C99.6094 107.182 98.4425 106.06 97.3536 104.864L97.0278 104.508C96.4125 103.812 95.8233 103.094 95.2603 102.354C95.3568 101.956 95.4593 101.558 95.5559 101.148C95.5921 101.033 95.6162 100.913 95.6463 100.798C95.9299 99.7001 96.2496 98.5841 96.5512 97.4319C96.5814 97.3112 96.6236 97.1966 96.6538 97.0699C96.9675 95.978 97.2993 94.8499 97.6673 93.7218C97.6954 93.6012 97.7316 93.4805 97.7758 93.3599C98.1318 92.2559 98.5058 91.1278 98.9039 89.9937C98.9401 89.8851 98.9884 89.7645 99.0306 89.6438C99.4288 88.5338 99.839 87.4117 100.279 86.2836C100.322 86.1751 100.364 86.0604 100.412 85.9458C100.852 84.8238 101.323 83.7138 101.812 82.5917C101.86 82.465 101.914 82.3504 101.968 82.2297C102.469 81.1016 102.994 79.9856 103.543 78.8696C103.591 78.761 103.646 78.6464 103.7 78.5438C104.263 77.4097 104.852 76.2897 105.467 75.1837C105.492 75.1295 105.52 75.0771 105.552 75.0268L105.673 74.8157C106.312 73.6816 106.982 72.5595 107.687 71.4676C107.76 71.3469 107.838 71.2263 107.917 71.1056C108.659 69.9595 109.443 68.8374 110.257 67.7515C110.315 67.6616 110.377 67.575 110.444 67.4921L110.523 67.3956C111.241 66.4424 111.995 65.5074 112.773 64.6146C112.96 64.3998 113.161 64.1982 113.376 64.0113L113.467 63.9389C113.575 63.8545 113.678 63.776 113.798 63.6976C113.818 63.6801 113.841 63.6658 113.865 63.6554C117.557 61.1941 124.591 62.1834 125.49 63.4925C125.53 63.5439 125.566 63.5984 125.598 63.6554L125.719 63.8303C126.463 64.9721 127.14 66.1565 127.746 67.3775C128.349 68.5237 128.892 69.7905 129.447 71.0875C129.948 72.2639 130.43 73.5006 130.907 74.7855C130.907 74.8519 130.955 74.9122 130.973 74.9725C131.002 75.0304 131.024 75.091 131.04 75.1535C131.486 76.36 131.92 77.5666 132.349 78.8575C132.711 79.9615 133.079 81.0836 133.422 82.2177C133.459 82.3444 133.501 82.453 133.537 82.5796C133.899 83.7439 134.255 84.9263 134.593 86.1087C134.605 86.1699 134.621 86.2304 134.641 86.2897C134.973 87.4117 135.281 88.5338 135.588 89.6498C135.588 89.7524 135.63 89.8429 135.661 89.9394C135.974 91.0916 136.264 92.2378 136.559 93.3659L136.656 93.7279C136.945 94.856 137.223 95.978 137.488 97.076C137.488 97.1122 137.488 97.1423 137.488 97.1725C137.488 97.2026 137.531 97.3474 137.549 97.4379C137.826 98.5841 138.092 99.7062 138.345 100.804C138.635 102.083 138.912 103.326 139.165 104.514C139.196 104.641 139.22 104.755 139.244 104.87C139.503 106.077 139.751 107.235 139.974 108.333C139.974 108.417 139.974 108.502 140.022 108.586C140.282 109.871 140.511 111.06 140.71 112.127C140.71 112.188 140.71 112.242 140.74 112.296L140.897 112.942Z" fill="#09A350"/>
<path opacity="0.1" d="M115.167 115.676C115.656 115.809 116.151 115.93 116.645 116.038H132.119C132.445 115.966 132.782 115.894 133.108 115.809L133.627 115.676H115.167ZM140.788 112.141C140.788 112.081 140.758 112.021 140.745 111.96H106.13C106.342 112.087 106.547 112.202 106.734 112.31H140.788C140.788 112.256 140.788 112.202 140.788 112.141ZM140.052 108.347C140.04 108.313 140.03 108.279 140.022 108.244H100.822C100.967 108.371 101.111 108.492 101.262 108.6H140.07C140.052 108.516 140.034 108.431 140.022 108.347H140.052ZM139.243 104.528H97.0152L97.341 104.884H139.304C139.268 104.77 139.243 104.679 139.213 104.528H139.243ZM94.753 104.528C94.7473 104.59 94.7352 104.65 94.7168 104.709C94.7168 104.649 94.7168 104.589 94.759 104.528H94.753ZM138.375 100.818H95.6156C95.6156 100.933 95.5614 101.053 95.5312 101.168H138.465L138.375 100.818ZM137.518 97.1986C137.518 97.1685 137.518 97.1383 137.518 97.1021H96.6291C96.599 97.2288 96.5567 97.3434 96.5266 97.4641H137.603C137.578 97.3675 137.56 97.2831 137.536 97.1866L137.518 97.1986ZM136.565 93.38H97.7572C97.7117 93.4982 97.6734 93.6191 97.6426 93.7419H136.68L136.565 93.38ZM135.666 89.9535C135.636 89.857 135.618 89.7665 135.594 89.6639H99.012C98.9698 89.7846 98.9215 89.9052 98.8793 90.0138H135.678C135.677 89.9935 135.679 89.9732 135.684 89.9535H135.666ZM134.598 86.1228L134.544 85.9478H100.406C100.357 86.0625 100.315 86.1771 100.267 86.2857H134.653C134.638 86.232 134.626 86.1777 134.616 86.1228H134.598ZM133.428 82.2318H101.962C101.908 82.3524 101.853 82.467 101.805 82.5937H133.549C133.549 82.467 133.482 82.3584 133.446 82.2318H133.428ZM132.221 78.5217H103.705C103.651 78.6243 103.597 78.7389 103.549 78.8475H132.384C132.332 78.7417 132.285 78.6329 132.246 78.5217H132.221ZM130.973 74.9806C130.973 74.9203 130.93 74.8599 130.906 74.7936H105.678L105.563 75.0047C105.532 75.055 105.503 75.1074 105.479 75.1616H131.063C131.047 75.0991 131.025 75.0384 130.997 74.9806H130.973ZM129.446 71.0956H107.916C107.844 71.2162 107.765 71.3369 107.699 71.4575H129.609C129.567 71.3309 129.513 71.2102 129.471 71.0956H129.446ZM127.739 67.3735H110.534L110.456 67.47C110.389 67.5529 110.326 67.6395 110.269 67.7294H127.932C127.872 67.6087 127.818 67.4881 127.763 67.3735H127.739ZM125.712 63.8263L125.592 63.6514H113.876C113.852 63.6618 113.83 63.6761 113.81 63.6936C113.689 63.772 113.587 63.8504 113.478 63.9349L113.388 64.0073H125.851C125.808 63.9501 125.77 63.8896 125.736 63.8263H125.712Z" fill="black"/>
<path d="M124.807 73.1693C121.96 73.6821 117.363 69.1275 115.638 65.5441C115.523 65.3028 116.024 62.8053 116.482 59.7408C116.76 57.8827 117.019 55.8015 117.122 53.8892L128.964 57.4424C128.151 59.797 127.631 62.2424 127.413 64.7237C127.406 64.9878 127.42 65.2521 127.456 65.514C127.459 65.5561 127.459 65.5985 127.456 65.6407C127.63 67.1488 127.558 72.6686 124.807 73.1693Z" fill="#AD6359"/>
<path d="M127.474 65.6407C127.474 65.7251 127.474 65.8156 127.474 65.9182C120.278 64.3979 118.058 60.7543 116.785 57.4001C116.929 56.2238 117.05 55.0293 117.104 53.8892L128.946 57.4363C128.135 59.7929 127.616 62.2404 127.402 64.7237C127.388 64.9879 127.403 65.2528 127.444 65.514C127.449 65.5573 127.459 65.5999 127.474 65.6407Z" fill="#263238"/>
<path d="M114.406 40.189C113.085 44.4419 115.281 56.7605 118.303 59.4933C122.677 63.4868 129.868 63.8971 133.27 58.6366C136.57 53.5331 133.421 37.5226 130.048 35.0251C125.102 31.3512 116.354 33.903 114.406 40.189Z" fill="#AD6359"/>
<path d="M124.5 47.9717C124.5 47.9717 124.439 48.026 124.445 48.0561C124.614 48.8826 124.675 49.8659 123.969 50.2641C123.969 50.2641 123.969 50.3184 123.969 50.3063C124.904 49.9926 124.813 48.6956 124.5 47.9717Z" fill="#263238"/>
<path d="M123.631 47.2063C122.274 47.333 122.636 50.0296 123.891 49.9089C125.145 49.7883 124.765 47.0977 123.631 47.2063Z" fill="#263238"/>
<path d="M129.688 47.1741C129.688 47.1379 129.76 47.1741 129.766 47.2344C129.851 48.073 130.086 49.0442 130.882 49.2011C130.882 49.2011 130.882 49.2493 130.882 49.2433C129.929 49.2373 129.634 47.9704 129.688 47.1741Z" fill="#263238"/>
<path d="M130.32 46.2045C131.647 45.9209 132.129 48.6175 130.881 48.8588C129.632 49.1001 129.204 46.4397 130.32 46.2045Z" fill="#263238"/>
<path d="M122.4 46.1126C122.741 45.9619 123.073 45.7928 123.395 45.6059C123.771 45.4757 124.093 45.2256 124.312 44.894C124.356 44.7766 124.362 44.6484 124.33 44.5273C124.297 44.4062 124.228 44.2982 124.131 44.2184C123.908 44.0946 123.656 44.0332 123.402 44.0406C123.147 44.0481 122.899 44.1241 122.683 44.2606C122.208 44.4681 121.825 44.8441 121.61 45.3163C121.561 45.4271 121.547 45.55 121.569 45.6689C121.592 45.7877 121.649 45.8972 121.734 45.9831C121.819 46.0689 121.928 46.1272 122.047 46.1503C122.166 46.1734 122.289 46.1603 122.4 46.1126Z" fill="#263238"/>
<path d="M131.183 44.7022C130.811 44.6795 130.441 44.6352 130.073 44.5695C129.676 44.5803 129.286 44.4547 128.969 44.2135C128.888 44.1178 128.838 43.9988 128.827 43.8733C128.816 43.7478 128.845 43.6221 128.909 43.5137C129.076 43.3227 129.291 43.18 129.532 43.1004C129.773 43.0208 130.031 43.0073 130.279 43.0613C130.796 43.0859 131.286 43.3007 131.654 43.6646C131.745 43.7509 131.806 43.8634 131.83 43.9863C131.854 44.1092 131.839 44.2365 131.787 44.3505C131.736 44.4646 131.65 44.5597 131.541 44.6227C131.433 44.6857 131.308 44.7135 131.183 44.7022Z" fill="#263238"/>
<path d="M125.923 52.9646C126.179 53.2666 126.494 53.5124 126.849 53.6868C127.204 53.8612 127.591 53.9604 127.986 53.9781C128.333 53.9993 128.68 53.9688 129.018 53.8876C129.084 53.8779 129.148 53.8618 129.211 53.8394L129.386 53.7851C129.429 53.7709 129.466 53.7433 129.492 53.7064C129.518 53.6695 129.532 53.6251 129.531 53.58C129.535 53.552 129.535 53.5235 129.531 53.4955V53.4231C129.458 52.7776 129.265 51.8124 129.265 51.8124C129.519 51.8969 130.785 52.2769 130.725 51.9451C130.188 49.1822 129.591 46.1176 128.475 43.4995C128.468 43.4805 128.455 43.4647 128.437 43.4553C128.419 43.446 128.399 43.4438 128.38 43.4492C128.36 43.4546 128.344 43.4672 128.333 43.4844C128.323 43.5016 128.32 43.5221 128.324 43.5417C128.734 46.2142 129.615 48.7961 130.068 51.4746C129.616 51.3333 129.147 51.2561 128.674 51.2453C128.584 51.2815 129.078 53.1154 129.084 53.405C129.088 53.4147 129.088 53.4255 129.084 53.4352C128.022 53.7187 127.166 53.5015 126.02 52.9164C125.917 52.8379 125.863 52.9043 125.923 52.9646Z" fill="#263238"/>
<path d="M128.511 53.6474C128.237 54.112 127.849 54.4984 127.383 54.7695C127.124 54.9073 126.829 54.9601 126.538 54.9203C125.899 54.8359 125.814 54.2748 125.869 53.7741C125.903 53.5108 125.966 53.252 126.056 53.002C126.783 53.4756 127.644 53.702 128.511 53.6474Z" fill="#263238"/>
<path d="M127.383 54.7702C127.124 54.908 126.829 54.9608 126.538 54.921C125.899 54.8365 125.814 54.2755 125.869 53.7748C126.196 53.747 126.523 53.83 126.798 54.0105C127.073 54.191 127.279 54.4586 127.383 54.7702Z" fill="#FF9CBD"/>
<path opacity="0.2" d="M114.431 48.6357C115.203 48.1772 116.512 45.4263 117.091 44.2982C117.671 43.1701 117.218 37.9278 117.037 36.3774C115.808 37.3856 114.895 38.7258 114.407 40.2383C113.84 42.0059 113.918 45.3057 114.431 48.6357Z" fill="#263238"/>
<path d="M127.558 39.4416C127.18 40.0221 126.661 40.4964 126.048 40.8195C125.436 41.1426 124.751 41.3037 124.059 41.2875C123.354 41.2713 122.665 41.0755 122.057 40.7187C121.449 40.3619 120.942 39.8559 120.584 39.2485C120.584 39.2123 120.506 39.2485 120.524 39.2485C120.844 39.9207 121.341 40.4932 121.961 40.9044C122.582 41.3157 123.303 41.5503 124.047 41.5831C124.783 41.5802 125.506 41.3829 126.141 41.0111C126.777 40.6392 127.303 40.1061 127.666 39.4657C127.672 39.4416 127.594 39.3873 127.558 39.4416Z" fill="#263238"/>
<path d="M122.087 30.0542C119.759 30.4101 117.786 31.9786 117.141 33.6737C116.78 34.6437 116.761 35.7077 117.086 36.69C117.086 36.7323 117.183 36.69 117.171 36.69C117.008 35.8094 117.085 34.9011 117.393 34.0604C117.702 33.2197 118.232 32.4777 118.926 31.9122C119.68 31.2567 120.576 30.7858 121.544 30.5366C122.511 30.2874 123.524 30.2668 124.5 30.4765C125.452 30.6621 126.307 31.1794 126.914 31.9364C126.968 32.0148 127.137 31.9364 127.088 31.8579C126.256 30.4765 124.205 29.7345 122.087 30.0542Z" fill="#263238"/>
<path d="M136.299 33.3487C135.766 32.2482 134.863 31.3704 133.747 30.8693C132.203 30.1695 130.604 30.5133 129.018 30.8693C129.011 30.8721 129.006 30.8767 129.002 30.8826C128.998 30.8885 128.996 30.8954 128.996 30.9024C128.996 30.9095 128.998 30.9164 129.002 30.9223C129.006 30.9282 129.011 30.9328 129.018 30.9356C130.363 30.628 131.751 30.3867 133.09 30.8693C134.199 31.2586 135.139 32.0195 135.75 33.0229C136.345 34.059 136.546 35.2747 136.316 36.4471C136.087 37.6194 135.443 38.6697 134.501 39.4054C133.95 39.8157 133.32 40.1087 132.651 40.2664C131.982 40.4241 131.287 40.4431 130.61 40.3223C130.556 40.3223 130.532 40.3887 130.61 40.4008C131.832 40.6554 133.104 40.4558 134.189 39.8395C135.274 39.2231 136.097 38.2323 136.504 37.0527C136.894 35.8349 136.821 34.516 136.299 33.3487Z" fill="#263238"/>
<path d="M114.002 42.6806C114.002 42.6806 111.264 38.7836 112.796 36.1353C113.677 34.6392 117.182 34.3798 117.182 34.3798C117.936 32.8796 119.255 31.7405 120.849 31.2127C123.685 30.1811 127.359 31.4479 127.359 31.4479C127.359 31.4479 129.928 29.5175 132.703 30.6758C136.576 32.2865 136.818 37.8485 133.403 40.0745C130.99 41.637 127.25 39.8151 127.25 39.8151C126.924 39.8996 123.763 42.385 120.801 39.6643C120.801 39.6643 118.937 41.7938 116.886 40.72C116.662 41.3012 116.265 41.8001 115.75 42.1504C115.235 42.5007 114.625 42.6857 114.002 42.6806Z" fill="#263238"/>
<path d="M116.996 50.2285C116.996 50.2285 114.149 46.2952 112.357 47.3147C110.566 48.3342 112.756 54.0712 114.885 54.8253C115.152 54.9415 115.44 55.0024 115.731 55.0042C116.022 55.0061 116.31 54.9489 116.579 54.8361C116.847 54.7234 117.09 54.5573 117.292 54.3481C117.495 54.1389 117.653 53.8908 117.757 53.6188L116.996 50.2285Z" fill="#AD6359"/>
<path d="M113.038 48.9419C113.03 48.9419 113.023 48.9451 113.017 48.9507C113.011 48.9564 113.008 48.9641 113.008 48.9721C113.008 48.9801 113.011 48.9877 113.017 48.9934C113.023 48.999 113.03 49.0022 113.038 49.0022C114.535 49.6055 115.343 50.9447 115.91 52.3624C115.82 52.2134 115.698 52.0858 115.553 51.9884C115.409 51.8909 115.245 51.8259 115.073 51.7978C114.901 51.7697 114.725 51.7792 114.557 51.8256C114.389 51.8721 114.233 51.9543 114.1 52.0668C114.094 52.0742 114.091 52.0832 114.09 52.0927C114.089 52.1021 114.091 52.1117 114.095 52.1201C114.1 52.1284 114.107 52.1353 114.115 52.1398C114.123 52.1443 114.133 52.1461 114.142 52.1452C114.402 52.0574 114.683 52.0526 114.946 52.1315C115.208 52.2104 115.44 52.3691 115.608 52.5856C115.887 52.9498 116.128 53.342 116.326 53.7559C116.399 53.8886 116.634 53.8102 116.586 53.6594C116.583 53.6475 116.583 53.6351 116.586 53.6232C116.58 51.729 115.065 49.0987 113.038 48.9419Z" fill="#263238"/>
<path d="M107.886 66.9494C94.9945 78.9362 78.3265 104.599 80.9929 110.064C83.9609 116.151 101.914 99.3384 101.89 98.3128C101.89 97.5346 108.616 83.3822 113.702 71.9444C118.787 60.5066 111.071 63.9874 107.886 66.9494Z" fill="#AD6359"/>
<path d="M80.9934 110.066C83.5995 114.163 91.1342 115.248 109.847 119.755C112.435 120.358 121.762 103.292 119.029 102.483C115.59 101.464 102.017 98.2606 100.997 98.146C92.3769 97.223 79.2198 107.285 80.9934 110.066Z" fill="#AD6359"/>
<path d="M112.816 101.806C112.816 101.806 120.411 101.715 124.417 102.91C129.78 104.502 133.755 108.086 135.33 109.684C138.617 113.032 144.258 123.39 141.555 125.532C139.142 127.474 133.888 116.592 133.888 116.592C133.888 116.592 141.043 126.811 137.67 128.603C134.298 130.394 128.947 117.424 128.947 117.424C128.947 117.424 136.072 128.084 132.301 129.387C129.448 130.37 123.94 118.89 123.94 118.89C123.94 118.89 130.003 128.096 127.113 129.23C123.922 130.491 118.173 120.211 118.173 120.211C110.331 121.87 105.945 119.457 103.013 117.37C102.307 116.863 112.816 101.806 112.816 101.806Z" fill="#AD6359"/>
<path d="M131.636 112.906C132.517 114.07 133.446 115.253 134.2 116.526C134.954 117.798 135.708 119.041 136.371 120.35C137.261 122.049 137.957 123.842 138.447 125.695C137.343 122.468 134.628 117.973 133.85 116.725C133.072 115.476 132.36 114.203 131.588 112.96C131.564 112.9 131.612 112.876 131.636 112.906Z" fill="#263238"/>
<path d="M127.088 115.626C128.155 117.17 129.271 118.642 130.267 120.253C131.262 121.863 132.076 123.42 132.939 125.079C133.012 125.206 132.939 125.199 132.843 125.079C131.902 123.468 130.9 122.063 129.935 120.452C128.97 118.841 128.071 117.218 127.051 115.662C127.033 115.626 127.075 115.608 127.088 115.626Z" fill="#263238"/>
<path d="M122.768 117.268C124.459 119.594 125.906 122.089 127.087 124.712C127.148 124.838 127.033 124.82 126.961 124.712C125.573 122.172 124.499 120.218 122.689 117.346C122.689 117.286 122.732 117.219 122.768 117.268Z" fill="#263238"/>
<path d="M90.3562 100.739C93.7387 98.5224 97.8176 97.6251 101.818 98.2177C101.866 98.2177 101.866 98.3082 101.818 98.3022C97.6738 98.0066 91.985 99.937 90.3562 100.812C90.3442 100.836 90.314 100.769 90.3562 100.739Z" fill="#263238"/>
<path d="M89.3848 83.7871L105.407 92.9445C105.407 92.9445 112.043 80.2459 114.595 71.9632C117.147 63.6804 114.879 59.898 105.311 68.2411C99.6917 73.0952 94.3732 78.2868 89.3848 83.7871Z" fill="#455A64"/>
<path d="M106.258 89.5425C104.118 88.0706 101.943 86.663 99.7308 85.3197C98.6389 84.6501 97.553 83.9624 96.4491 83.3109C95.3451 82.6593 94.1265 82.044 92.9863 81.3744C92.9079 81.3261 92.8235 81.4407 92.9019 81.495C93.9757 82.1828 95.0073 82.9489 96.0811 83.6426C97.1549 84.3364 98.3192 85.0362 99.4412 85.7299C101.661 87.1013 103.911 88.4144 106.192 89.6692C106.258 89.6752 106.324 89.5968 106.258 89.5425Z" fill="#263238"/>
<path d="M104.729 92.5582C104.971 92.6668 105.206 92.7694 105.441 92.884L105.339 92.9142C105.791 91.7438 106.304 90.6097 106.799 89.4635C107.293 88.3173 107.848 87.2073 108.403 86.0913C108.958 84.9753 109.519 83.8653 110.129 82.7734C110.738 81.6815 111.335 80.5896 112.005 79.5278C111.576 80.7042 111.088 81.8504 110.581 82.9905C110.074 84.1307 109.55 85.2588 109.007 86.3869C108.464 87.515 107.897 88.6129 107.311 89.7169C106.726 90.8209 106.105 91.9128 105.502 92.9805L105.459 93.0469L105.399 93.0107C105.152 92.8659 104.941 92.7091 104.729 92.5582Z" fill="#263238"/>
<path d="M112.319 81.7534C111.647 82.8422 110.722 83.7527 109.623 84.4078C109.956 83.8595 110.362 83.3584 110.829 82.9177C111.274 82.467 111.774 82.0757 112.319 81.7534Z" fill="#263238"/>
<path opacity="0.5" d="M206.971 129.251C208.177 128.017 208.779 127.401 209.559 127.163C210.339 126.925 211.16 127.108 212.803 127.472L214.535 127.857C216.272 128.243 217.141 128.436 217.738 129.019C218.335 129.603 218.548 130.467 218.973 132.194L219.397 133.917C219.8 135.552 220.001 136.369 219.781 137.154C219.561 137.939 218.958 138.555 217.752 139.789L216.951 140.609C214.895 142.712 213.868 143.763 212.598 143.799C211.328 143.835 210.311 142.842 208.278 140.855L206.122 138.747C204.089 136.76 203.072 135.766 203.079 134.496C203.086 133.225 204.114 132.174 206.169 130.071L206.971 129.251Z" fill="#09A350"/>
<path d="M210.582 138.646C210.728 138.509 210.505 138.033 210.085 137.582C209.664 137.131 209.204 136.876 209.058 137.012L206.941 138.986C206.795 139.123 207.018 139.599 207.438 140.05C207.859 140.501 208.318 140.756 208.465 140.62L210.582 138.646Z" fill="#09A350"/>
<path opacity="0.5" d="M190.552 110.838C189.686 109.346 189.252 108.601 189.232 107.786C189.211 106.971 189.606 106.228 190.397 104.742L191.23 103.176C192.066 101.605 192.483 100.82 193.206 100.4C193.928 99.9808 194.817 100.007 196.595 100.058L198.369 100.11C200.051 100.159 200.892 100.183 201.59 100.605C202.288 101.026 202.721 101.772 203.588 103.264L204.164 104.255C205.641 106.797 206.38 108.069 206.075 109.302C205.77 110.536 204.541 111.25 202.083 112.678L199.476 114.193C197.018 115.621 195.789 116.335 194.567 115.989C193.344 115.643 192.606 114.372 191.128 111.829L190.552 110.838Z" fill="#09A350"/>
<path d="M200.571 109.869C200.479 109.692 199.96 109.779 199.413 110.064C198.866 110.349 198.497 110.724 198.59 110.901L199.927 113.468C200.019 113.645 200.537 113.558 201.084 113.273C201.631 112.989 202 112.614 201.908 112.437L200.571 109.869Z" fill="#09A350"/>
<path opacity="0.5" d="M193.726 68.9266C194.832 66.6831 195.385 65.5613 196.352 64.8823C197.319 64.2032 198.534 64.0845 200.963 63.8469L203.523 63.5965C206.091 63.3454 207.374 63.2198 208.461 63.7552C209.547 64.2906 210.229 65.3852 211.594 67.5744L212.955 69.7578C214.246 71.8289 214.891 72.8644 214.942 74.0452C214.992 75.226 214.439 76.3478 213.334 78.5913L212.598 80.0826C210.713 83.9068 209.771 85.8191 208.037 86.441C206.303 87.063 204.454 86.1517 200.757 84.3294L196.835 82.3964C193.138 80.574 191.289 79.6628 190.726 77.9086C190.163 76.1544 191.106 74.2421 192.991 70.4179L193.726 68.9266Z" fill="#09A350"/>
<path d="M202.935 80.2489C203.075 79.9952 202.554 79.4392 201.771 79.0071C200.988 78.575 200.239 78.4303 200.099 78.684L198.071 82.3587C197.931 82.6124 198.453 83.1683 199.236 83.6005C200.019 84.0326 200.767 84.1773 200.907 83.9236L202.935 80.2489Z" fill="#09A350"/>
<path opacity="0.5" d="M38.4427 66.6654C39.5485 64.4218 40.1014 63.3001 41.0688 62.621C42.0362 61.942 43.2506 61.8232 45.6794 61.5857L48.24 61.3352C50.8075 61.0841 52.0912 60.9586 53.1774 61.494C54.2635 62.0293 54.9459 63.124 56.3105 65.3132L57.6715 67.4966C58.9624 69.5676 59.6078 70.6031 59.6584 71.784C59.7091 72.9648 59.1562 74.0865 58.0503 76.3301L57.3153 77.8213C55.4303 81.6456 54.4877 83.5579 52.7535 84.1797C51.0194 84.8017 49.1707 83.8905 45.4734 82.0681L41.5519 80.1352C37.8546 78.3128 36.006 77.4016 35.4431 75.6473C34.88 73.8932 35.8226 71.9809 37.7076 68.1566L38.4427 66.6654Z" fill="#09A350"/>
<path d="M47.6518 77.9877C47.7918 77.734 47.2705 77.178 46.4875 76.7459C45.7045 76.3137 44.9562 76.1691 44.8162 76.4227L42.7882 80.0974C42.6482 80.3511 43.1695 80.9071 43.9525 81.3392C44.7355 81.7714 45.4838 81.916 45.6238 81.6624L47.6518 77.9877Z" fill="#09A350"/>
<path opacity="0.5" d="M40.5659 104.826C39.8642 103.346 39.5133 102.605 39.5585 101.832C39.6036 101.059 40.0369 100.387 40.9036 99.0436L41.8172 97.627C42.7333 96.2067 43.1914 95.4965 43.9084 95.1568C44.6254 94.8171 45.4651 94.9123 47.1445 95.1028L48.8193 95.2928C50.4081 95.473 51.2024 95.5631 51.8292 96.0177C52.4561 96.4724 52.8069 97.2128 53.5086 98.6938L53.9751 99.6781C55.1712 102.202 55.7693 103.465 55.3827 104.608C54.9962 105.752 53.7759 106.33 51.3354 107.486L48.7468 108.713C46.3063 109.869 45.0861 110.447 43.9563 110.022C42.8265 109.597 42.2284 108.335 41.0323 105.811L40.5659 104.826Z" fill="#09A350"/>
<path d="M50.1248 104.708C50.0516 104.533 49.5539 104.574 49.0134 104.801C48.4728 105.027 48.094 105.352 48.1672 105.527L49.2284 108.064C49.3016 108.239 49.7992 108.198 50.3398 107.972C50.8804 107.746 51.2592 107.42 51.186 107.245L50.1248 104.708Z" fill="#09A350"/>
</svg>
