<svg width="181" height="256" viewBox="0 0 181 256" fill="none" xmlns="http://www.w3.org/2000/svg">
<rect width="4" height="4" fill="white"/>
<rect x="28" width="4" height="4" fill="white"/>
<rect x="56" width="4" height="4" fill="white"/>
<rect x="84" width="4" height="4" fill="white"/>
<rect x="112" width="4" height="4" fill="white"/>
<rect x="140" width="4" height="4" fill="white"/>
<rect x="168" width="4" height="4" fill="white"/>
<rect y="28" width="4" height="4" fill="white"/>
<rect x="28" y="28" width="4" height="4" fill="white"/>
<rect x="56" y="28" width="4" height="4" fill="white"/>
<rect x="84" y="28" width="4" height="4" fill="white"/>
<rect x="112" y="28" width="4" height="4" fill="white"/>
<rect x="140" y="28" width="4" height="4" fill="white"/>
<rect x="168" y="28" width="4" height="4" fill="white"/>
<rect y="56" width="4" height="4" fill="white"/>
<rect x="28" y="56" width="4" height="4" fill="white"/>
<rect x="56" y="56" width="4" height="4" fill="white"/>
<rect x="84" y="56" width="4" height="4" fill="white"/>
<rect x="112" y="56" width="4" height="4" fill="white"/>
<rect x="140" y="56" width="4" height="4" fill="white"/>
<rect x="168" y="56" width="4" height="4" fill="white"/>
<rect y="84" width="4" height="4" fill="white"/>
<rect x="28" y="84" width="4" height="4" fill="white"/>
<rect x="56" y="84" width="4" height="4" fill="white"/>
<rect x="84" y="84" width="4" height="4" fill="white"/>
<rect x="112" y="84" width="4" height="4" fill="white"/>
<rect x="140" y="84" width="4" height="4" fill="white"/>
<rect x="168" y="84" width="4" height="4" fill="white"/>
<rect y="112" width="4" height="4" fill="white"/>
<rect x="28" y="112" width="4" height="4" fill="white"/>
<rect x="56" y="112" width="4" height="4" fill="white"/>
<rect x="84" y="112" width="4" height="4" fill="white"/>
<rect x="112" y="112" width="4" height="4" fill="white"/>
<rect x="140" y="112" width="4" height="4" fill="white"/>
<rect x="168" y="112" width="4" height="4" fill="white"/>
<rect y="140" width="4" height="4" fill="white"/>
<rect x="28" y="140" width="4" height="4" fill="white"/>
<rect x="56" y="140" width="4" height="4" fill="white"/>
<rect x="84" y="140" width="4" height="4" fill="white"/>
<rect x="112" y="140" width="4" height="4" fill="white"/>
<rect x="140" y="140" width="4" height="4" fill="white"/>
<rect x="168" y="140" width="4" height="4" fill="white"/>
<rect y="168" width="4" height="4" fill="white"/>
<rect x="28" y="168" width="4" height="4" fill="white"/>
<rect x="56" y="168" width="4" height="4" fill="white"/>
<rect x="84" y="168" width="4" height="4" fill="white"/>
<rect x="112" y="168" width="4" height="4" fill="white"/>
<rect x="140" y="168" width="4" height="4" fill="white"/>
<rect x="168" y="168" width="4" height="4" fill="white"/>
<rect y="196" width="4" height="4" fill="white"/>
<rect x="28" y="196" width="4" height="4" fill="white"/>
<rect x="56" y="196" width="4" height="4" fill="white"/>
<rect x="84" y="196" width="4" height="4" fill="white"/>
<rect x="112" y="196" width="4" height="4" fill="white"/>
<rect x="140" y="196" width="4" height="4" fill="white"/>
<rect x="168" y="196" width="4" height="4" fill="white"/>
<rect y="224" width="4" height="4" fill="white"/>
<rect x="28" y="224" width="4" height="4" fill="white"/>
<rect x="56" y="224" width="4" height="4" fill="white"/>
<rect x="84" y="224" width="4" height="4" fill="white"/>
<rect x="112" y="224" width="4" height="4" fill="white"/>
<rect x="140" y="224" width="4" height="4" fill="white"/>
<rect x="168" y="224" width="4" height="4" fill="white"/>
<rect y="252" width="4" height="4" fill="white"/>
<rect x="28" y="252" width="4" height="4" fill="white"/>
<rect x="56" y="252" width="4" height="4" fill="white"/>
<rect x="84" y="252" width="4" height="4" fill="white"/>
<rect x="112" y="252" width="4" height="4" fill="white"/>
<rect x="140" y="252" width="4" height="4" fill="white"/>
<rect x="168" y="252" width="4" height="4" fill="white"/>
</svg>
