<svg width="133" height="268" viewBox="0 0 133 268" fill="none" xmlns="http://www.w3.org/2000/svg">
<path d="M-119.652 149.553L-119.035 124.233L-93.7229 125.106L-93.1064 99.7862L-67.7939 100.66L-67.1774 75.3396L-41.8648 76.2132L-41.2483 50.893L-15.9358 51.7666L-15.3193 26.4465L9.99325 27.32L10.6098 1.9999" stroke="#E4E4E4" stroke-width="3" stroke-linecap="round"/>
<path d="M-119.652 149.553L-119.035 124.233L-93.7229 125.106L-93.1064 99.7862L-67.7939 100.66L-67.1774 75.3396L-41.8648 76.2132L-41.2483 50.893L-15.9358 51.7666L-15.3193 26.4465L9.99325 27.32L10.6098 1.9999" stroke="#E4E4E4" stroke-width="3" stroke-linecap="round"/>
<path d="M-101.13 169.198L-100.514 143.878L-75.201 144.752L-74.5845 119.432L-49.2719 120.305L-48.6554 94.9851L-23.3429 95.8587L-22.7264 70.5386L2.58618 71.4121L3.20269 46.092L28.5152 46.9655L29.1317 21.6454" stroke="#E4E4E4" stroke-width="3" stroke-linecap="round"/>
<path d="M-83.2941 188.115L-82.6776 162.795L-57.365 163.669L-56.7485 138.349L-31.436 139.222L-30.8195 113.902L-5.50693 114.776L-4.89042 89.4555L20.4221 90.3291L21.0386 65.009L46.3512 65.8825L46.9677 40.5624" stroke="#E4E4E4" stroke-width="3" stroke-linecap="round"/>
<path d="M-64.7721 207.761L-64.1556 182.441L-38.8431 183.314L-38.2265 157.994L-12.914 158.868L-12.2975 133.548L13.015 134.421L13.6315 109.101L38.9441 109.975L39.5606 84.6545L64.8731 85.528L65.4896 60.2079" stroke="#E4E4E4" stroke-width="3" stroke-linecap="round"/>
<path d="M-46.2501 227.406L-45.6336 202.086L-20.3211 202.96L-19.7046 177.64L5.60796 178.513L6.22447 153.193L31.537 154.067L32.1535 128.747L57.4661 129.62L58.0826 104.3L83.3951 105.174L84.0116 79.8534" stroke="#E4E4E4" stroke-width="3" stroke-linecap="round"/>
<path d="M-28.4137 246.323L-27.1112 221.731L-2.48462 221.877L-1.18211 197.284L23.4444 197.43L24.7469 172.838L49.3735 172.984L50.676 148.391L75.3025 148.537L76.605 123.945L101.232 124.09L102.534 99.498" stroke="#E4E4E4" stroke-width="3" stroke-linecap="round"/>
<path d="M-9.89173 265.969L-9.27522 240.649L16.0373 241.522L16.6538 216.202L41.9664 217.076L42.5829 191.756L67.8954 192.629L68.5119 167.309L93.8245 168.183L94.441 142.862L119.754 143.736L120.37 118.416" stroke="#E4E4E4" stroke-width="3" stroke-linecap="round"/>
</svg>
