<svg version="1.1" id="Layer_1" xmlns="http://www.w3.org/2000/svg" xmlns:xlink="http://www.w3.org/1999/xlink" x="0px" y="0px"
	 width="100%" viewBox="0 0 500 106" enable-background="new 0 0 500 106" xml:space="preserve">
<path fill="#FDFDFD" opacity="1.000000" stroke="none" 
	d="
M364.000000,107.000000 
	C242.716507,107.000000 121.933029,107.000000 1.074770,107.000000 
	C1.074770,71.731224 1.074770,36.462246 1.074770,1.096634 
	C167.666641,1.096634 334.333313,1.096634 500.971741,1.096634 
	C500.971741,36.400185 500.971741,71.700104 500.971741,107.000000 
	C455.462311,107.000000 409.981140,107.000000 364.000000,107.000000 
M67.132401,35.317055 
	C66.334999,34.136795 65.537605,32.956535 64.277962,31.191624 
	C61.439388,29.304354 58.694679,27.249414 55.728996,25.589212 
	C53.776634,24.496273 51.042793,22.784418 49.459026,23.401913 
	C43.103077,25.880028 36.539440,28.433167 32.358757,35.579906 
	C32.265953,39.710808 32.173153,43.841713 31.597055,48.325123 
	C32.402561,49.231438 33.208073,50.137749 33.739468,51.786011 
	C31.853483,52.553967 30.001745,53.871033 28.075356,53.991184 
	C21.146866,54.423313 19.074146,55.796848 17.074732,62.557083 
	C17.068651,63.698421 17.062571,64.839760 16.889507,66.889046 
	C17.545122,71.313004 18.200739,75.736961 19.093039,80.788803 
	C23.054264,83.492828 26.817890,86.588173 31.062286,88.731400 
	C33.103252,89.762001 36.459747,89.845398 38.503250,88.864098 
	C42.623390,86.885597 46.252857,83.885292 50.633232,81.071213 
	C51.209122,79.743149 51.785015,78.415085 52.770981,76.369667 
	C52.719662,71.929497 52.668339,67.489334 52.543510,62.212696 
	C51.346348,58.296124 54.291332,59.249382 56.208347,59.170284 
	C64.342285,58.834682 65.602112,58.022961 67.670807,51.425373 
	C67.466843,46.278587 67.262871,41.131798 67.132401,35.317055 
M140.537659,85.065460 
	C145.940842,84.582291 151.715042,85.149902 156.670959,83.400002 
	C167.408325,79.608688 172.602966,69.075287 172.106033,54.854351 
	C171.584976,39.943481 162.321091,29.478172 148.398453,28.072170 
	C134.563919,26.675066 123.724144,34.871433 120.271324,49.340179 
	C116.271439,66.101387 124.439217,81.077980 140.537659,85.065460 
M259.432098,78.271713 
	C259.432098,61.984680 259.432098,45.697647 259.432098,28.993275 
	C252.859726,28.993275 246.737564,28.912987 240.618301,29.011898 
	C231.197632,29.164167 222.979248,34.649212 222.187561,43.896587 
	C221.035233,57.356323 221.891785,70.988045 221.891785,84.597900 
	C223.620239,84.597900 225.696472,84.597900 227.669861,84.597900 
	C227.905960,84.047775 228.138931,83.755287 228.142029,83.460373 
	C228.193008,78.634796 228.221924,73.808937 228.241684,68.983086 
	C228.265305,63.212036 230.059311,60.888226 235.847275,60.020378 
	C239.886108,59.414795 244.001343,59.318916 248.070389,58.996319 
	C248.070389,56.600845 248.070389,54.503174 248.070389,51.252319 
	C241.220413,52.482716 234.854675,53.626129 228.540176,54.760345 
	C226.393112,37.598858 234.686920,33.908527 252.134735,36.839828 
	C252.134735,52.686588 252.134735,68.601616 252.134735,84.683044 
	C254.644485,84.683044 256.763794,84.683044 259.432037,84.683044 
	C259.432037,82.791016 259.432037,81.000565 259.432098,78.271713 
M73.893692,79.351097 
	C73.973503,81.107048 74.053307,82.862999 74.134064,84.639832 
	C76.832146,84.639832 78.946205,84.639832 81.693275,84.639832 
	C81.693275,77.812485 81.656082,71.197075 81.703445,64.582275 
	C81.753525,57.589962 81.592796,50.578201 82.071625,43.612572 
	C82.455544,38.027615 87.016113,34.854050 93.058647,35.163273 
	C99.209862,35.478058 103.076813,38.906429 103.113052,44.077312 
	C103.152245,49.669716 99.479736,53.544746 93.488548,54.121304 
	C90.738228,54.385983 87.972672,54.492390 85.267426,54.667122 
	C85.267426,57.215752 85.267426,59.295532 85.267426,62.042999 
	C104.340714,59.256092 102.663597,72.722961 102.567032,84.465408 
	C105.460281,84.465408 107.683578,84.465408 110.248802,84.465408 
	C109.737831,74.494316 112.399162,64.067703 101.211502,57.885544 
	C102.312874,57.180996 102.819237,56.766388 103.394783,56.502956 
	C108.978439,53.947269 111.017830,49.310398 110.785004,43.526131 
	C110.539284,37.421402 108.027786,32.358414 102.211273,29.966364 
	C89.483551,24.732061 74.003326,29.231916 73.916100,47.408890 
	C73.866554,57.735191 73.898407,68.061882 73.893692,79.351097 
M394.650238,67.441208 
	C395.071686,73.160439 395.493103,78.879669 395.910187,84.539711 
	C398.451935,84.539711 400.538086,84.539711 402.846008,84.539711 
	C403.437408,72.112144 404.656616,59.850803 390.566010,53.555256 
	C394.704956,45.262314 398.592346,37.473354 402.497711,29.648443 
	C396.753937,27.753233 393.791962,29.644196 391.933533,34.520954 
	C390.281586,38.855785 387.692566,42.831100 386.005676,47.155663 
	C384.178314,51.840160 381.221985,52.911320 376.223938,51.121078 
	C376.223938,43.934036 376.223938,36.696316 376.223938,29.283600 
	C373.571014,29.283600 371.509369,29.283600 369.395935,29.283600 
	C369.395935,47.931763 369.395935,66.290833 369.395935,84.602280 
	C371.754333,84.602280 373.701447,84.602280 376.287720,84.602280 
	C376.287720,75.810837 376.287720,67.247482 376.287720,58.790859 
	C385.532227,57.596920 391.358948,60.279343 394.650238,67.441208 
M330.350098,52.141701 
	C325.924042,52.141701 321.497955,52.141701 316.896393,52.141701 
	C316.896393,49.847717 316.895477,48.196831 316.896545,46.545944 
	C316.902252,37.691166 318.513123,36.053623 327.287689,36.025307 
	C331.875427,36.010502 336.463226,36.022694 340.888489,36.022694 
	C340.888489,33.344635 340.888489,31.392500 340.888489,29.294712 
	C333.888977,29.294712 327.075409,28.885983 320.335449,29.414778 
	C314.146179,29.900366 309.755493,34.053707 309.598511,40.006390 
	C309.208923,54.777710 309.470428,69.566200 309.470428,84.871452 
	C314.846558,84.871452 319.962555,84.871460 325.078552,84.871460 
	C330.354004,84.871460 335.629486,84.871452 340.768005,84.871452 
	C340.768005,82.144417 340.768005,80.075981 340.768005,77.608421 
	C332.672089,77.608421 324.910736,77.608421 317.262939,77.608421 
	C317.262939,71.302650 317.262939,65.413261 317.262939,59.164059 
	C323.394165,59.164059 329.160339,59.164059 334.877167,59.164059 
	C335.550415,52.504543 335.550415,52.504543 330.350098,52.141701 
M420.045319,70.412041 
	C420.045319,66.817192 420.045319,63.222336 420.045319,59.121830 
	C426.592133,59.121830 432.494385,59.121830 438.234619,59.121830 
	C438.234619,56.510876 438.234619,54.444080 438.234619,51.879425 
	C431.954620,51.879425 426.053436,51.879425 420.045471,51.879425 
	C420.045471,49.715855 420.044250,48.059456 420.045685,46.403053 
	C420.053284,37.769066 421.811676,36.042049 430.655212,36.016361 
	C435.114197,36.003410 439.573273,36.014099 444.032104,36.014099 
	C444.032104,33.487545 444.032104,31.421164 444.032104,29.148741 
	C437.462921,29.148741 431.149872,28.832561 424.881866,29.228811 
	C417.055817,29.723557 412.868317,34.389370 412.697083,42.199123 
	C412.569397,48.024113 412.667114,53.854069 412.666382,59.681812 
	C412.665375,67.945404 412.666107,76.209000 412.666107,84.561440 
	C423.511841,84.561440 433.748108,84.561440 444.001190,84.561440 
	C444.001190,82.207947 444.001190,80.143806 444.001190,77.678711 
	C435.944794,77.678711 428.192993,77.678711 420.045319,77.678711 
	C420.045319,75.310844 420.045319,73.345825 420.045319,70.412041 
M477.719086,46.917553 
	C476.160248,49.250946 474.684021,51.645199 473.021515,53.902214 
	C470.977631,56.676952 468.355865,56.875034 466.623077,53.955978 
	C464.053528,49.627258 461.612762,45.096794 460.032776,40.347607 
	C458.876740,36.872658 459.192902,32.907940 458.866272,29.309216 
	C456.291779,29.309216 454.064178,29.309216 451.537659,29.309216 
	C451.392578,42.209328 453.414612,53.789314 464.203430,62.140327 
	C465.245392,62.946857 465.882751,64.853256 465.926025,66.272919 
	C466.111816,72.371727 466.005280,78.479439 466.005280,84.550018 
	C468.826324,84.550018 471.059723,84.550018 473.702454,84.550018 
	C473.702454,78.455635 473.473297,72.646530 473.828369,66.873352 
	C473.950500,64.888069 475.059448,62.476242 476.522095,61.139690 
	C486.076782,52.408569 488.289795,41.352917 487.874786,29.287712 
	C485.003082,29.287712 482.746796,29.287712 481.005768,29.287712 
	C479.962921,35.184647 478.989685,40.688217 477.719086,46.917553 
M200.493164,28.994638 
	C193.400726,28.994638 186.308289,28.994638 179.158325,28.994638 
	C179.158325,31.608477 179.158325,33.554142 179.158325,36.003593 
	C183.691345,36.003593 188.099411,36.003593 193.016205,36.003593 
	C193.016205,52.529140 193.016205,68.558167 193.016205,84.483139 
	C195.781433,84.483139 197.995331,84.483139 200.577850,84.483139 
	C200.577850,68.192459 200.577850,52.265469 200.577850,35.848007 
	C205.346848,35.848007 209.742508,35.848007 214.019989,35.848007 
	C214.019989,33.391773 214.019989,31.435295 214.019989,28.994638 
	C209.723892,28.994638 205.607178,28.994638 200.493164,28.994638 
M280.776123,39.750336 
	C280.776123,54.671516 280.776123,69.592697 280.776123,84.648590 
	C283.469147,84.648590 285.553925,84.648590 288.167999,84.648590 
	C288.167999,68.416397 288.167999,52.372704 288.167999,35.851742 
	C293.100342,35.851742 297.508667,35.851742 301.823334,35.851742 
	C301.823334,33.404217 301.823334,31.452850 301.823334,29.322002 
	C290.087646,29.322002 278.553711,29.322002 266.973633,29.322002 
	C266.973633,31.608389 266.973633,33.567688 266.973633,36.006279 
	C270.712311,36.006279 274.353149,35.805367 277.945435,36.134415 
	C278.961456,36.227486 279.835602,37.869408 280.776123,39.750336 
z"/>
<path fill="#080808" opacity="1.000000" stroke="none" 
	d="
M140.125214,85.026909 
	C124.439217,81.077980 116.271439,66.101387 120.271324,49.340179 
	C123.724144,34.871433 134.563919,26.675066 148.398453,28.072170 
	C162.321091,29.478172 171.584976,39.943481 172.106033,54.854351 
	C172.602966,69.075287 167.408325,79.608688 156.670959,83.400002 
	C151.715042,85.149902 145.940842,84.582291 140.125214,85.026909 
M148.196213,78.264198 
	C154.316879,77.548119 158.600677,74.244148 161.370117,68.853203 
	C164.490982,62.778168 164.652100,56.411659 163.124130,49.902740 
	C161.129807,41.407314 155.004913,35.826454 147.003693,35.188164 
	C139.206757,34.566170 131.944351,39.347679 129.260483,47.743599 
	C124.029915,64.106377 132.372131,79.631699 148.196213,78.264198 
z"/>
<path fill="#070707" opacity="1.000000" stroke="none" 
	d="
M259.432068,78.740906 
	C259.432037,81.000565 259.432037,82.791016 259.432037,84.683044 
	C256.763794,84.683044 254.644485,84.683044 252.134735,84.683044 
	C252.134735,68.601616 252.134735,52.686588 252.134735,36.839828 
	C234.686920,33.908527 226.393112,37.598858 228.540176,54.760345 
	C234.854675,53.626129 241.220413,52.482716 248.070389,51.252319 
	C248.070389,54.503174 248.070389,56.600845 248.070389,58.996319 
	C244.001343,59.318916 239.886108,59.414795 235.847275,60.020378 
	C230.059311,60.888226 228.265305,63.212036 228.241684,68.983086 
	C228.221924,73.808937 228.193008,78.634796 228.142029,83.460373 
	C228.138931,83.755287 227.905960,84.047775 227.669861,84.597900 
	C225.696472,84.597900 223.620239,84.597900 221.891785,84.597900 
	C221.891785,70.988045 221.035233,57.356323 222.187561,43.896587 
	C222.979248,34.649212 231.197632,29.164167 240.618301,29.011898 
	C246.737564,28.912987 252.859726,28.993275 259.432098,28.993275 
	C259.432098,45.697647 259.432098,61.984680 259.432068,78.740906 
z"/>
<path fill="#3ED885" opacity="1.000000" stroke="none" 
	d="
M73.893646,78.869751 
	C73.898407,68.061882 73.866554,57.735191 73.916100,47.408890 
	C74.003326,29.231916 89.483551,24.732061 102.211273,29.966364 
	C108.027786,32.358414 110.539284,37.421402 110.785004,43.526131 
	C111.017830,49.310398 108.978439,53.947269 103.394783,56.502956 
	C102.819237,56.766388 102.312874,57.180996 101.211502,57.885544 
	C112.399162,64.067703 109.737831,74.494316 110.248802,84.465408 
	C107.683578,84.465408 105.460281,84.465408 102.567032,84.465408 
	C102.663597,72.722961 104.340714,59.256092 85.267426,62.042999 
	C85.267426,59.295532 85.267426,57.215752 85.267426,54.667122 
	C87.972672,54.492390 90.738228,54.385983 93.488548,54.121304 
	C99.479736,53.544746 103.152245,49.669716 103.113052,44.077312 
	C103.076813,38.906429 99.209862,35.478058 93.058647,35.163273 
	C87.016113,34.854050 82.455544,38.027615 82.071625,43.612572 
	C81.592796,50.578201 81.753525,57.589962 81.703445,64.582275 
	C81.656082,71.197075 81.693275,77.812485 81.693275,84.639832 
	C78.946205,84.639832 76.832146,84.639832 74.134064,84.639832 
	C74.053307,82.862999 73.973503,81.107048 73.893646,78.869751 
z"/>
<path fill="#39D782" opacity="1.000000" stroke="none" 
	d="
M394.465271,67.067810 
	C391.358948,60.279343 385.532227,57.596920 376.287720,58.790859 
	C376.287720,67.247482 376.287720,75.810837 376.287720,84.602280 
	C373.701447,84.602280 371.754333,84.602280 369.395935,84.602280 
	C369.395935,66.290833 369.395935,47.931763 369.395935,29.283600 
	C371.509369,29.283600 373.571014,29.283600 376.223938,29.283600 
	C376.223938,36.696316 376.223938,43.934036 376.223938,51.121078 
	C381.221985,52.911320 384.178314,51.840160 386.005676,47.155663 
	C387.692566,42.831100 390.281586,38.855785 391.933533,34.520954 
	C393.791962,29.644196 396.753937,27.753233 402.497711,29.648443 
	C398.592346,37.473354 394.704956,45.262314 390.566010,53.555256 
	C404.656616,59.850803 403.437408,72.112144 402.846008,84.539711 
	C400.538086,84.539711 398.451935,84.539711 395.910187,84.539711 
	C395.493103,78.879669 395.071686,73.160439 394.465271,67.067810 
z"/>
<path fill="#0C0C0C" opacity="1.000000" stroke="none" 
	d="
M330.828033,52.141720 
	C335.550415,52.504543 335.550415,52.504543 334.877167,59.164059 
	C329.160339,59.164059 323.394165,59.164059 317.262939,59.164059 
	C317.262939,65.413261 317.262939,71.302650 317.262939,77.608421 
	C324.910736,77.608421 332.672089,77.608421 340.768005,77.608421 
	C340.768005,80.075981 340.768005,82.144417 340.768005,84.871452 
	C335.629486,84.871452 330.354004,84.871460 325.078552,84.871460 
	C319.962555,84.871460 314.846558,84.871452 309.470428,84.871452 
	C309.470428,69.566200 309.208923,54.777710 309.598511,40.006390 
	C309.755493,34.053707 314.146179,29.900366 320.335449,29.414778 
	C327.075409,28.885983 333.888977,29.294712 340.888489,29.294712 
	C340.888489,31.392500 340.888489,33.344635 340.888489,36.022694 
	C336.463226,36.022694 331.875427,36.010502 327.287689,36.025307 
	C318.513123,36.053623 316.902252,37.691166 316.896545,46.545944 
	C316.895477,48.196831 316.896393,49.847717 316.896393,52.141701 
	C321.497955,52.141701 325.924042,52.141701 330.828033,52.141720 
z"/>
<path fill="#070707" opacity="1.000000" stroke="none" 
	d="
M420.045319,70.896423 
	C420.045319,73.345825 420.045319,75.310844 420.045319,77.678711 
	C428.192993,77.678711 435.944794,77.678711 444.001190,77.678711 
	C444.001190,80.143806 444.001190,82.207947 444.001190,84.561440 
	C433.748108,84.561440 423.511841,84.561440 412.666107,84.561440 
	C412.666107,76.209000 412.665375,67.945404 412.666382,59.681812 
	C412.667114,53.854069 412.569397,48.024113 412.697083,42.199123 
	C412.868317,34.389370 417.055817,29.723557 424.881866,29.228811 
	C431.149872,28.832561 437.462921,29.148741 444.032104,29.148741 
	C444.032104,31.421164 444.032104,33.487545 444.032104,36.014099 
	C439.573273,36.014099 435.114197,36.003410 430.655212,36.016361 
	C421.811676,36.042049 420.053284,37.769066 420.045685,46.403053 
	C420.044250,48.059456 420.045471,49.715855 420.045471,51.879425 
	C426.053436,51.879425 431.954620,51.879425 438.234619,51.879425 
	C438.234619,54.444080 438.234619,56.510876 438.234619,59.121830 
	C432.494385,59.121830 426.592133,59.121830 420.045319,59.121830 
	C420.045319,63.222336 420.045319,66.817192 420.045319,70.896423 
z"/>
<path fill="#0B0B0B" opacity="1.000000" stroke="none" 
	d="
M477.867737,46.554668 
	C478.989685,40.688217 479.962921,35.184647 481.005768,29.287712 
	C482.746796,29.287712 485.003082,29.287712 487.874786,29.287712 
	C488.289795,41.352917 486.076782,52.408569 476.522095,61.139690 
	C475.059448,62.476242 473.950500,64.888069 473.828369,66.873352 
	C473.473297,72.646530 473.702454,78.455635 473.702454,84.550018 
	C471.059723,84.550018 468.826324,84.550018 466.005280,84.550018 
	C466.005280,78.479439 466.111816,72.371727 465.926025,66.272919 
	C465.882751,64.853256 465.245392,62.946857 464.203430,62.140327 
	C453.414612,53.789314 451.392578,42.209328 451.537659,29.309216 
	C454.064178,29.309216 456.291779,29.309216 458.866272,29.309216 
	C459.192902,32.907940 458.876740,36.872658 460.032776,40.347607 
	C461.612762,45.096794 464.053528,49.627258 466.623077,53.955978 
	C468.355865,56.875034 470.977631,56.676952 473.021515,53.902214 
	C474.684021,51.645199 476.160248,49.250946 477.867737,46.554668 
z"/>
<path fill="#040404" opacity="1.000000" stroke="none" 
	d="
M200.991806,28.994638 
	C205.607178,28.994638 209.723892,28.994638 214.019989,28.994638 
	C214.019989,31.435295 214.019989,33.391773 214.019989,35.848007 
	C209.742508,35.848007 205.346848,35.848007 200.577850,35.848007 
	C200.577850,52.265469 200.577850,68.192459 200.577850,84.483139 
	C197.995331,84.483139 195.781433,84.483139 193.016205,84.483139 
	C193.016205,68.558167 193.016205,52.529140 193.016205,36.003593 
	C188.099411,36.003593 183.691345,36.003593 179.158325,36.003593 
	C179.158325,33.554142 179.158325,31.608477 179.158325,28.994638 
	C186.308289,28.994638 193.400726,28.994638 200.991806,28.994638 
z"/>
<path fill="#030303" opacity="1.000000" stroke="none" 
	d="
M280.775452,39.275658 
	C279.835602,37.869408 278.961456,36.227486 277.945435,36.134415 
	C274.353149,35.805367 270.712311,36.006279 266.973633,36.006279 
	C266.973633,33.567688 266.973633,31.608389 266.973633,29.322002 
	C278.553711,29.322002 290.087646,29.322002 301.823334,29.322002 
	C301.823334,31.452850 301.823334,33.404217 301.823334,35.851742 
	C297.508667,35.851742 293.100342,35.851742 288.167999,35.851742 
	C288.167999,52.372704 288.167999,68.416397 288.167999,84.648590 
	C285.553925,84.648590 283.469147,84.648590 280.776123,84.648590 
	C280.776123,69.592697 280.776123,54.671516 280.775452,39.275658 
z"/>
<path fill="#F6FDF9" opacity="1.000000" stroke="none" 
	d="
M34.013580,51.044060 
	C33.208073,50.137749 32.402561,49.231438 32.216301,48.147964 
	C36.102962,46.812965 37.594574,44.662544 37.101124,41.072796 
	C36.886551,39.511822 37.295013,37.865208 37.672531,36.041954 
	C38.163937,35.597839 38.380249,35.337296 38.646099,35.145367 
	C44.416683,30.979246 50.144119,26.497690 57.608894,32.601837 
	C59.828220,34.614185 61.860271,36.336609 63.674488,38.393921 
	C63.957611,42.410480 64.458565,46.092163 64.574883,49.793877 
	C63.531368,50.629753 62.930714,51.502148 62.203148,52.251282 
	C59.577026,54.955265 54.112251,54.840305 51.866631,51.614311 
	C51.990601,49.351994 52.332592,47.490410 51.994736,45.761688 
	C51.767723,44.600105 50.578358,43.626602 49.819553,42.568951 
	C48.864521,43.610809 47.307190,44.540710 47.088093,45.719372 
	C46.708870,47.759422 47.159252,49.953686 47.145157,52.491608 
	C43.453526,54.560810 40.052418,55.320290 36.989079,51.745014 
	C36.453754,51.120224 35.028057,51.258308 34.013580,51.044060 
z"/>
<path fill="#14AA59" opacity="1.000000" stroke="none" 
	d="
M51.795349,52.071587 
	C54.112251,54.840305 59.577026,54.955265 62.203148,52.251282 
	C62.930714,51.502148 63.531368,50.629753 64.640007,50.114735 
	C65.740677,50.934410 66.391586,51.453255 67.042496,51.972099 
	C65.602112,58.022961 64.342285,58.834682 56.208347,59.170284 
	C54.291332,59.249382 51.346348,58.296124 52.102455,62.625435 
	C50.390415,63.056782 49.119431,63.075397 47.725304,62.749943 
	C44.928440,58.516148 39.930298,57.856655 36.528091,61.023102 
	C34.811234,61.023010 33.490219,60.996719 32.067272,60.587547 
	C28.265041,58.369198 24.927525,58.368713 21.841293,62.076420 
	C20.043802,62.019596 18.734699,61.995983 17.425596,61.972370 
	C19.074146,55.796848 21.146866,54.423313 28.075356,53.991184 
	C30.001745,53.871033 31.853483,52.553967 33.876526,51.415039 
	C35.028057,51.258308 36.453754,51.120224 36.989079,51.745014 
	C40.052418,55.320290 43.453526,54.560810 47.522976,52.485931 
	C49.276638,52.071800 50.535995,52.071693 51.795349,52.071587 
z"/>
<path fill="#26B96A" opacity="1.000000" stroke="none" 
	d="
M57.421612,32.311913 
	C50.144119,26.497690 44.416683,30.979246 38.646099,35.145367 
	C38.380249,35.337296 38.163937,35.597839 37.290024,35.940670 
	C35.414108,35.695457 34.172718,35.335999 32.931328,34.976540 
	C36.539440,28.433167 43.103077,25.880028 49.459026,23.401913 
	C51.042793,22.784418 53.776634,24.496273 55.728996,25.589212 
	C58.694679,27.249414 61.439388,29.304354 63.986137,31.547215 
	C61.603416,32.039177 59.512512,32.175545 57.421612,32.311913 
z"/>
<path fill="#22B767" opacity="1.000000" stroke="none" 
	d="
M50.084732,81.306496 
	C46.252857,83.885292 42.623390,86.885597 38.503250,88.864098 
	C36.459747,89.845398 33.103252,89.762001 31.062286,88.731400 
	C26.817890,86.588173 23.054264,83.492828 19.156731,80.161217 
	C20.491108,79.024307 21.761795,78.514984 23.336231,78.156311 
	C29.618738,82.107758 35.341145,87.822754 43.272728,80.914963 
	C45.884979,81.077065 47.984856,81.191780 50.084732,81.306496 
z"/>
<path fill="#51E897" opacity="1.000000" stroke="none" 
	d="
M47.848446,63.094013 
	C49.119431,63.075397 50.390415,63.056782 52.139206,63.043667 
	C52.668339,67.489334 52.719662,71.929497 52.085907,76.696060 
	C50.126808,76.940727 48.852779,76.859009 47.623840,76.331436 
	C47.728771,71.621727 47.788609,67.357872 47.848446,63.094013 
z"/>
<path fill="#49EA94" opacity="1.000000" stroke="none" 
	d="
M23.032482,78.005653 
	C21.761795,78.514984 20.491108,79.024307 19.038387,79.847275 
	C18.200739,75.736961 17.545122,71.313004 17.384476,66.443542 
	C19.252388,65.995827 20.625334,65.993622 22.075333,66.436935 
	C22.445751,70.590187 22.739115,74.297920 23.032482,78.005653 
z"/>
<path fill="#64EFA4" opacity="1.000000" stroke="none" 
	d="
M67.356651,51.698738 
	C66.391586,51.453255 65.740677,50.934410 65.024643,50.094704 
	C64.458565,46.092163 63.957611,42.410480 63.969341,38.270576 
	C65.340981,37.203239 66.199944,36.594124 67.058907,35.985008 
	C67.262871,41.131798 67.466843,46.278587 67.356651,51.698738 
z"/>
<path fill="#51EC99" opacity="1.000000" stroke="none" 
	d="
M32.645042,35.278221 
	C34.172718,35.335999 35.414108,35.695457 37.038002,36.156204 
	C37.295013,37.865208 36.886551,39.511822 37.101124,41.072796 
	C37.594574,44.662544 36.102962,46.812965 32.457951,47.971710 
	C32.173153,43.841713 32.265953,39.710808 32.645042,35.278221 
z"/>
<path fill="#3ED282" opacity="1.000000" stroke="none" 
	d="
M67.095657,35.651031 
	C66.199944,36.594124 65.340981,37.203239 64.187172,37.935692 
	C61.860271,36.336609 59.828220,34.614185 57.608894,32.601837 
	C59.512512,32.175545 61.603416,32.039177 64.217262,31.839542 
	C65.537605,32.956535 66.334999,34.136795 67.095657,35.651031 
z"/>
<path fill="#38D07E" opacity="1.000000" stroke="none" 
	d="
M47.578751,76.777283 
	C48.852779,76.859009 50.126808,76.940727 51.880875,77.054733 
	C51.785015,78.415085 51.209122,79.743149 50.358986,81.188858 
	C47.984856,81.191780 45.884979,81.077065 43.459206,80.648720 
	C44.615128,79.149155 46.096939,77.963226 47.578751,76.777283 
z"/>
<path fill="#35CC7A" opacity="1.000000" stroke="none" 
	d="
M21.998280,65.991425 
	C20.625334,65.993622 19.252388,65.995827 17.467966,65.989563 
	C17.062571,64.839760 17.068651,63.698421 17.250164,62.264725 
	C18.734699,61.995983 20.043802,62.019596 21.870930,62.466568 
	C22.258730,63.923756 22.128506,64.957588 21.998280,65.991425 
z"/>
<path fill="#FCFCFC" opacity="1.000000" stroke="none" 
	d="
M147.757462,78.316429 
	C132.372131,79.631699 124.029915,64.106377 129.260483,47.743599 
	C131.944351,39.347679 139.206757,34.566170 147.003693,35.188164 
	C155.004913,35.826454 161.129807,41.407314 163.124130,49.902740 
	C164.652100,56.411659 164.490982,62.778168 161.370117,68.853203 
	C158.600677,74.244148 154.316879,77.548119 147.757462,78.316429 
z"/>
<path fill="#38CC7D" opacity="1.000000" stroke="none" 
	d="
M51.866631,51.614311 
	C50.535995,52.071693 49.276638,52.071800 47.639465,52.077587 
	C47.159252,49.953686 46.708870,47.759422 47.088093,45.719372 
	C47.307190,44.540710 48.864521,43.610809 49.819553,42.568951 
	C50.578358,43.626602 51.767723,44.600105 51.994736,45.761688 
	C52.332592,47.490410 51.990601,49.351994 51.866631,51.614311 
z"/>
<path fill="#F5FCF8" opacity="1.000000" stroke="none" 
	d="
M22.075333,66.436935 
	C22.128506,64.957588 22.258730,63.923756 22.359318,62.499779 
	C24.927525,58.368713 28.265041,58.369198 31.993387,61.016830 
	C32.226761,64.258606 32.432083,66.688210 32.652981,69.302078 
	C38.811802,68.034157 36.624584,64.004471 36.923939,60.996902 
	C39.930298,57.856655 44.928440,58.516148 47.725304,62.749943 
	C47.788609,67.357872 47.728771,71.621727 47.623840,76.331436 
	C46.096939,77.963226 44.615128,79.149155 42.946835,80.601334 
	C35.341145,87.822754 29.618738,82.107758 23.336229,78.156311 
	C22.739115,74.297920 22.445751,70.590187 22.075333,66.436935 
z"/>
<path fill="#3CDC86" opacity="1.000000" stroke="none" 
	d="
M36.528091,61.023102 
	C36.624584,64.004471 38.811802,68.034157 32.652981,69.302078 
	C32.432083,66.688210 32.226761,64.258606 32.095322,61.399715 
	C33.490219,60.996719 34.811234,61.023010 36.528091,61.023102 
z"/>
</svg>