<svg width="306" height="91" viewBox="0 0 306 91" fill="none" xmlns="http://www.w3.org/2000/svg">
<path d="M24.333 49.834V61.8339" stroke="url(#paint0_linear_113_836)" stroke-width="7" stroke-linecap="round"/>
<path d="M44.6665 29.5V41.4999" stroke="url(#paint1_linear_113_836)" stroke-width="7" stroke-linecap="round"/>
<path d="M24.333 25.092C24.333 20.3245 24.333 17.9407 25.4147 15.9646C26.4963 13.9885 28.4725 12.7621 32.4247 10.3092L36.5913 7.72327C40.7691 5.13041 42.8581 3.83398 45.1662 3.83398C47.4743 3.83398 49.5633 5.13041 53.7412 7.72327L57.9078 10.3092C61.8601 12.7621 63.8361 13.9885 64.9178 15.9646C65.9994 17.9407 65.9994 20.3245 65.9994 25.092V28.2609C65.9994 36.3875 65.9994 40.4511 63.5586 42.9756C61.118 45.5004 57.1895 45.5004 49.3329 45.5004H40.9996C33.1429 45.5004 29.2145 45.5004 26.7738 42.9756C24.333 40.4511 24.333 36.3875 24.333 28.2609V25.092Z" stroke="url(#paint2_linear_113_836)" stroke-width="7"/>
<path d="M45.6665 65.908C45.6665 70.6755 45.6665 73.0593 44.5848 75.0354C43.5032 77.0115 41.527 78.2379 37.5748 80.6908L33.4082 83.2767C29.2304 85.8696 27.1414 87.166 24.8333 87.166C22.5252 87.166 20.4362 85.8696 16.2583 83.2767L12.0917 80.6908C8.13944 78.2379 6.1634 77.0115 5.08174 75.0354C4.00008 73.0593 4.00009 70.6755 4.00009 65.908V62.7391C4.00009 54.6125 4.00009 50.549 6.44091 48.0244C8.88152 45.4996 12.81 45.4996 20.6667 45.4996H28.9999C36.8566 45.4996 40.785 45.4996 43.2257 48.0244C45.6665 50.549 45.6665 54.6125 45.6665 62.7391V65.908Z" stroke="url(#paint3_linear_113_836)" stroke-width="7"/>
<path d="M97.1245 33.46V29.5H116.925V33.46H109.14V61H104.91V33.46H97.1245ZM233.107 55.375V61H228.787V55.375C228.787 51.985 228.037 49.6 226.537 48.22C225.067 46.81 222.247 46.09 218.077 46.06V61H213.847V29.5H218.077V42.325C220.297 42.385 221.617 42.445 222.037 42.505L228.382 29.5H232.972L225.862 43.495C230.692 45.265 233.107 49.225 233.107 55.375Z" fill="#09A350"/>
<path d="M138.94 29.5H143.17V51.1C143.17 54.67 142.24 57.295 140.38 58.975C138.55 60.625 135.775 61.45 132.055 61.45C128.335 61.45 125.56 60.625 123.73 58.975C121.9 57.295 120.985 54.67 120.985 51.1V29.5H125.215V51.685C125.215 53.725 125.83 55.21 127.06 56.14C128.32 57.04 129.97 57.49 132.01 57.49C134.11 57.49 135.79 57.04 137.05 56.14C138.31 55.21 138.94 53.725 138.94 51.685V29.5ZM149.022 61V40.525C149.022 36.895 149.907 34.075 151.677 32.065C153.477 30.055 156.027 29.05 159.327 29.05C162.657 29.05 165.207 29.86 166.977 31.48C168.777 33.1 169.677 35.38 169.677 38.32C169.677 40.21 169.227 41.755 168.327 42.955C167.427 44.155 165.897 45.1 163.737 45.79V45.97C165.987 46.84 167.487 48.085 168.237 49.705C169.017 51.295 169.407 53.935 169.407 57.625V61H165.177V55.24C165.177 52.96 164.532 51.19 163.242 49.93C161.952 48.64 160.092 47.995 157.662 47.995H155.232V44.035H157.797C160.677 44.035 162.672 43.45 163.782 42.28C164.892 41.11 165.447 39.715 165.447 38.095C165.447 36.565 164.892 35.335 163.782 34.405C162.702 33.475 161.262 33.01 159.462 33.01C157.392 33.01 155.832 33.595 154.782 34.765C153.762 35.935 153.252 37.855 153.252 40.525V61H149.022ZM179.317 61H175.087V29.5H186.202C189.922 29.5 192.697 30.34 194.527 32.02C196.357 33.67 197.272 36.28 197.272 39.85V61H193.042V39.265C193.042 37.225 192.412 35.755 191.152 34.855C189.922 33.925 188.287 33.46 186.247 33.46H179.317V61ZM256.185 61H238.275V37.015C238.275 34.795 238.98 33.01 240.39 31.66C241.35 30.76 242.43 30.175 243.63 29.905C244.83 29.635 246.3 29.5 248.04 29.5H256.185V33.46H247.455C244.155 33.46 242.505 34.84 242.505 37.6V42.73H252.9V46.69H242.505V57.04H256.185V61ZM280.612 29.5V31.75C280.612 35.41 279.922 38.77 278.542 41.83C277.192 44.86 275.212 47.17 272.602 48.76V61H268.372V48.85C265.762 47.29 263.752 45.025 262.342 42.055C260.932 39.055 260.227 35.755 260.227 32.155V29.5H264.547V31.75C264.547 34.84 264.982 37.495 265.852 39.715C266.752 41.905 268.297 43.705 270.487 45.115C274.417 42.505 276.382 38.05 276.382 31.75V29.5H280.612ZM301.67 29.5V33.46H293.705C290.675 33.46 289.16 34.69 289.16 37.15C289.16 38.47 289.82 39.595 291.14 40.525C292.49 41.425 294.305 42.295 296.585 43.135C297.605 43.525 298.475 43.93 299.195 44.35C299.915 44.74 300.635 45.265 301.355 45.925C302.075 46.585 302.615 47.44 302.975 48.49C303.335 49.51 303.515 50.695 303.515 52.045C303.515 53.545 303.2 54.895 302.57 56.095C301.94 57.265 301.13 58.195 300.14 58.885C299.15 59.545 298.13 60.055 297.08 60.415C296.06 60.745 295.055 60.925 294.065 60.955C293.645 60.985 293.045 61 292.265 61H285.245V57.04H292.13C294.17 57.04 295.835 56.62 297.125 55.78C298.415 54.91 299.06 53.65 299.06 52C299.06 51.19 298.88 50.485 298.52 49.885C298.16 49.255 297.635 48.715 296.945 48.265C296.285 47.815 295.595 47.425 294.875 47.095C294.185 46.765 293.345 46.42 292.355 46.06C292.085 45.97 291.875 45.895 291.725 45.835C287.015 44.035 284.66 41.095 284.66 37.015C284.66 34.495 285.47 32.62 287.09 31.39C288.71 30.13 290.825 29.5 293.435 29.5H301.67Z" fill="white"/>
<defs>
<linearGradient id="paint0_linear_113_836" x1="24.408" y1="49.834" x2="24.408" y2="61.8339" gradientUnits="userSpaceOnUse">
<stop stop-color="#09A350"/>
<stop offset="0.536458" stop-color="#57FFA5"/>
<stop offset="0.953125" stop-color="#09A350"/>
</linearGradient>
<linearGradient id="paint1_linear_113_836" x1="44.8332" y1="29.5" x2="44.8332" y2="41.4999" gradientUnits="userSpaceOnUse">
<stop stop-color="#09A350"/>
<stop offset="0.536458" stop-color="#57FFA5"/>
<stop offset="0.953125" stop-color="#09A350"/>
</linearGradient>
<linearGradient id="paint2_linear_113_836" x1="45.1662" y1="3.83398" x2="45.1662" y2="45.5004" gradientUnits="userSpaceOnUse">
<stop stop-color="#09A350"/>
<stop offset="0.536458" stop-color="#57FFA5"/>
<stop offset="0.953125" stop-color="#09A350"/>
</linearGradient>
<linearGradient id="paint3_linear_113_836" x1="24.8333" y1="87.166" x2="24.8333" y2="45.4996" gradientUnits="userSpaceOnUse">
<stop stop-color="#09A350"/>
<stop offset="0.536458" stop-color="#57FFA5"/>
<stop offset="0.953125" stop-color="#09A350"/>
</linearGradient>
</defs>
</svg>
