<svg width="402" height="365" viewBox="0 0 402 365" fill="none" xmlns="http://www.w3.org/2000/svg">
<path d="M128.954 325.599C131.403 325.599 133.904 325.599 136.457 325.599C142.82 325.476 148.691 325.079 154.174 324.467V207.997H128.954V325.599Z" fill="#92E3A9"/>
<path d="M175.605 320.5C184.34 318.213 192.793 315.005 200.815 310.935V207.945H175.605V320.5Z" fill="#92E3A9"/>
<path d="M222.247 298.291C230.619 293.019 238.342 288.43 247.467 286.136V207.997H222.247V298.291Z" fill="#92E3A9"/>
<path d="M268.9 285.045C277.921 286.065 286.146 288.4 294.121 290.919V207.997H268.9V285.045Z" fill="#92E3A9"/>
<path d="M9.45575 245.124C10.9208 249.033 12.508 252.853 14.2173 256.585V207.997H0.895508C2.16981 220.668 5.04498 233.139 9.45575 245.124Z" fill="#92E3A9"/>
<path d="M35.6494 289.695C42.8973 297.634 51.4138 304.379 60.8697 309.671V207.997H35.6494V289.695Z" fill="#92E3A9"/>
<path d="M82.3008 318.818C90.5225 321.347 98.9644 323.139 107.521 324.171V207.997H82.3008V318.818Z" fill="#92E3A9"/>
<path d="M315.552 297.22C323.797 299.228 332.367 299.63 340.772 298.403V207.997H315.552V297.22Z" fill="#92E3A9"/>
<path d="M376.793 71.3158C369.707 57.4055 360.972 44.3526 350.767 32.4244C307.913 -17.0209 221.369 -1.60299 188.049 23.9201C154.729 49.4432 153.128 85.0205 124.548 94.2794C95.9687 103.538 73.7518 85.7751 35.6493 108.209C9.86393 123.392 -0.977653 159.479 0.0688317 195.607H401.249C401.448 192.66 401.615 189.774 401.73 186.98C403.673 146.984 395.089 107.169 376.793 71.3158ZM37.8051 146.457L33.0017 144L28.1983 146.457L29.1192 141.247L25.2263 137.555L30.5948 136.791L33.0017 132.049L35.4086 136.791L40.7771 137.555L36.8842 141.247L37.8051 146.457ZM147.466 156.746L140.538 165.505L137.65 154.799L127.007 151.077L136.52 145.101L136.865 134.089L145.624 141.053L156.487 137.974L152.395 148.252L158.758 157.358L147.466 156.746ZM201.046 88.7424L200.146 95.1054L195.51 90.5371L189.022 91.6588L192.067 85.9688L188.928 80.2993L195.437 81.319L200.01 76.6896L201.057 83.0321L206.98 85.8465L201.046 88.7424ZM225.555 186.827L220.322 184.135L215.09 186.827L216.136 181.127L211.877 177.048L217.759 176.212L220.385 171.032L223.012 176.212L228.893 177.048L224.634 181.127L225.555 186.827ZM298.422 19.3009L295.669 17.8937L292.917 19.3009L293.44 16.3131L291.222 14.2024L294.298 13.7639L295.669 11.0515L297.04 13.7639L300.117 14.2024L297.898 16.3131L298.422 19.3009ZM380.047 160.56L373.109 157.001L366.15 160.56L367.479 153.014L361.849 147.661L369.624 146.559L373.109 139.697L376.594 146.559L384.369 147.661L378.739 153.014L380.047 160.56Z" fill="#92E3A9"/>
<path d="M362.205 291.174C363.409 290.562 364.622 289.909 365.857 289.205C375.223 283.893 382.214 274.338 387.425 262.602V207.997H362.205V291.174Z" fill="#92E3A9"/>
<g opacity="0.7">
<path d="M128.954 325.599C131.403 325.599 133.904 325.599 136.457 325.599C142.82 325.476 148.691 325.079 154.174 324.467V207.997H128.954V325.599Z" fill="white"/>
<path d="M175.605 320.5C184.34 318.213 192.793 315.005 200.815 310.935V207.945H175.605V320.5Z" fill="white"/>
<path d="M222.247 298.291C230.619 293.019 238.342 288.43 247.467 286.136V207.997H222.247V298.291Z" fill="white"/>
<path d="M268.9 285.045C277.921 286.065 286.146 288.4 294.121 290.919V207.997H268.9V285.045Z" fill="white"/>
<path d="M9.45575 245.124C10.9208 249.033 12.508 252.853 14.2173 256.585V207.997H0.895508C2.16981 220.668 5.04498 233.139 9.45575 245.124Z" fill="white"/>
<path d="M35.6494 289.695C42.8973 297.634 51.4138 304.379 60.8697 309.671V207.997H35.6494V289.695Z" fill="white"/>
<path d="M82.3008 318.818C90.5225 321.347 98.9644 323.139 107.521 324.171V207.997H82.3008V318.818Z" fill="white"/>
<path d="M315.552 297.22C323.797 299.228 332.367 299.63 340.772 298.403V207.997H315.552V297.22Z" fill="white"/>
<path d="M376.793 71.3158C369.707 57.4055 360.972 44.3526 350.767 32.4244C307.913 -17.0209 221.369 -1.60299 188.049 23.9201C154.729 49.4432 153.128 85.0205 124.548 94.2794C95.9687 103.538 73.7518 85.7751 35.6493 108.209C9.86393 123.392 -0.977653 159.479 0.0688317 195.607H401.249C401.448 192.66 401.615 189.774 401.73 186.98C403.673 146.984 395.089 107.169 376.793 71.3158ZM37.8051 146.457L33.0017 144L28.1983 146.457L29.1192 141.247L25.2263 137.555L30.5948 136.791L33.0017 132.049L35.4086 136.791L40.7771 137.555L36.8842 141.247L37.8051 146.457ZM147.466 156.746L140.538 165.505L137.65 154.799L127.007 151.077L136.52 145.101L136.865 134.089L145.624 141.053L156.487 137.974L152.395 148.252L158.758 157.358L147.466 156.746ZM201.046 88.7424L200.146 95.1054L195.51 90.5371L189.022 91.6588L192.067 85.9688L188.928 80.2993L195.437 81.319L200.01 76.6896L201.057 83.0321L206.98 85.8465L201.046 88.7424ZM225.555 186.827L220.322 184.135L215.09 186.827L216.136 181.127L211.877 177.048L217.759 176.212L220.385 171.032L223.012 176.212L228.893 177.048L224.634 181.127L225.555 186.827ZM298.422 19.3009L295.669 17.8937L292.917 19.3009L293.44 16.3131L291.222 14.2024L294.298 13.7639L295.669 11.0515L297.04 13.7639L300.117 14.2024L297.898 16.3131L298.422 19.3009ZM380.047 160.56L373.109 157.001L366.15 160.56L367.479 153.014L361.849 147.661L369.624 146.559L373.109 139.697L376.594 146.559L384.369 147.661L378.739 153.014L380.047 160.56Z" fill="white"/>
<path d="M362.205 291.174C363.409 290.562 364.622 289.909 365.857 289.205C375.223 283.893 382.214 274.338 387.425 262.602V207.997H362.205V291.174Z" fill="white"/>
</g>
<path d="M287.664 365C319.446 365 345.211 361.192 345.211 356.496C345.211 351.799 319.446 347.991 287.664 347.991C255.882 347.991 230.118 351.799 230.118 356.496C230.118 361.192 255.882 365 287.664 365Z" fill="#92E3A9"/>
<path opacity="0.5" d="M287.664 365C319.446 365 345.211 361.192 345.211 356.496C345.211 351.799 319.446 347.991 287.664 347.991C255.882 347.991 230.118 351.799 230.118 356.496C230.118 361.192 255.882 365 287.664 365Z" fill="white"/>
<path d="M112.252 352.631C136.145 352.631 155.514 348.823 155.514 344.126C155.514 339.43 136.145 335.622 112.252 335.622C88.3591 335.622 68.9902 339.43 68.9902 344.126C68.9902 348.823 88.3591 352.631 112.252 352.631Z" fill="#92E3A9"/>
<path opacity="0.5" d="M112.252 352.631C136.145 352.631 155.514 348.823 155.514 344.126C155.514 339.43 136.145 335.622 112.252 335.622C88.3591 335.622 68.9902 339.43 68.9902 344.126C68.9902 348.823 88.3591 352.631 112.252 352.631Z" fill="white"/>
<path d="M91.2172 322.039L113.246 313.106C111.707 310.649 110.169 311.811 108.202 307.834C107.155 305.795 108.076 302.511 106.757 299.881C105.711 297.729 102.456 296.363 101.201 293.895C100.06 291.672 100.887 288.358 99.6518 285.962C98.417 283.565 95.2461 282.383 94.0113 280.047C92.7764 277.712 93.5822 274.429 92.3369 272.135C91.0916 269.84 87.837 268.576 86.5917 266.312C85.3464 264.048 86.0056 260.653 84.7289 258.44C83.4522 256.227 80.093 254.942 78.8058 252.811C77.3617 250.425 77.8954 247.05 76.5664 245.021C74.9443 242.553 71.5642 241.656 70.1933 239.922C67.6189 236.659 66.2376 233.07 64.9609 233.315C63.6841 233.559 64.7934 237.169 65.4946 241.472C65.8504 243.614 64.1969 246.571 64.9295 249.436C65.5155 251.741 68.4038 253.658 69.1991 256.288C69.9003 258.644 68.498 261.754 69.3247 264.293C70.1514 266.832 73.0606 268.453 73.9083 270.931C74.7559 273.409 73.4269 276.499 74.285 278.936C75.1431 281.373 78.157 283.076 79.0256 285.472C79.8942 287.869 78.6698 291.101 79.5488 293.467C80.4279 295.832 83.515 297.627 84.3836 299.942C85.3568 302.501 84.1534 305.683 85.0115 307.916C86.058 310.628 89.1242 312.28 89.93 314.33C91.6776 318.806 89.2184 318.725 90.6625 322.314L91.2172 322.039Z" fill="#2E353A"/>
<path d="M67.4941 240.545L100.249 317.216" stroke="white" stroke-width="0.360849" stroke-miterlimit="10"/>
<path d="M74.3679 247.193L72.0656 251.66L67.5029 249.039" stroke="white" stroke-width="0.360849" stroke-miterlimit="10"/>
<path d="M80.0605 260.531L77.7687 265.007L73.2061 262.387" stroke="white" stroke-width="0.360849" stroke-miterlimit="10"/>
<path d="M85.4294 273.083L83.1376 277.56L78.5645 274.939" stroke="white" stroke-width="0.360849" stroke-miterlimit="10"/>
<path d="M91.8142 288.011L89.5119 292.488L84.9492 289.867" stroke="white" stroke-width="0.360849" stroke-miterlimit="10"/>
<path d="M98.2597 303.103L95.9679 307.579L91.4053 304.959" stroke="white" stroke-width="0.360849" stroke-miterlimit="10"/>
<path d="M88.7267 316.115L124.663 315.003C123.836 310.741 121.042 311.577 120.477 304.959C120.184 301.614 123.219 297.383 122.8 292.998C122.455 289.388 118.677 285.799 118.258 281.669C117.882 277.947 120.864 273.705 120.435 269.688C120.017 265.894 116.186 262.356 115.736 258.42C115.286 254.484 118.206 250.262 117.725 246.398C117.243 242.533 113.34 239.046 112.817 235.181C112.294 231.316 115.098 226.901 114.512 223.128C113.905 219.131 109.908 215.776 109.28 212.095C108.558 208.016 111.163 203.509 110.399 199.981C109.468 195.647 105.167 192.619 104.225 189.437C102.404 183.503 102.415 177.721 100.479 177.405C98.5427 177.089 98.1241 182.738 96.7742 189.111C96.094 192.313 92.1278 195.657 91.6045 200.042C91.1755 203.591 94.1893 207.792 93.8545 211.901C93.551 215.593 89.8778 219.243 89.6685 223.24C89.4488 227.013 92.6615 231.061 92.4836 234.997C92.3057 238.933 88.7581 242.574 88.6325 246.459C88.5069 250.344 91.772 254.3 91.7196 258.134C91.6673 261.968 88.1302 265.884 88.0674 269.667C88.0046 273.664 91.3743 277.59 91.3325 281.302C91.3325 285.381 87.8581 289.276 87.8477 292.876C87.8477 297.23 91.2383 301.145 91.2487 304.47C91.2487 311.669 87.8372 310.282 87.9 316.084L88.7267 316.115Z" fill="#2E353A"/>
<path d="M100.018 188.968L104.109 314.024" stroke="white" stroke-width="0.543628" stroke-miterlimit="10"/>
<path d="M106.057 201.909L100.364 207.007L95.3721 200.94" stroke="white" stroke-width="0.543628" stroke-miterlimit="10"/>
<path d="M106.768 223.668L101.075 228.777L96.083 222.71" stroke="white" stroke-width="0.543628" stroke-miterlimit="10"/>
<path d="M107.439 244.144L101.746 249.242L96.7539 243.175" stroke="white" stroke-width="0.543628" stroke-miterlimit="10"/>
<path d="M108.234 268.495L102.541 273.603L97.5596 267.536" stroke="white" stroke-width="0.543628" stroke-miterlimit="10"/>
<path d="M109.039 293.11L103.346 298.219L98.3545 292.151" stroke="white" stroke-width="0.543628" stroke-miterlimit="10"/>
<path d="M110.368 237.455C112.21 238.689 117.17 239.494 117.181 239.494C117.191 239.494 116.741 236.15 116.689 235.935C116.04 233.519 113.34 229.226 110.483 229.073C110.007 229.059 109.534 229.142 109.093 229.318C108.652 229.494 108.255 229.759 107.926 230.094C107.597 230.43 107.345 230.83 107.185 231.267C107.025 231.704 106.962 232.169 106.999 232.632C107.082 234.62 108.788 236.394 110.368 237.455Z" fill="#2E353A"/>
<path d="M160.106 247.948C160.106 247.948 161.645 244.889 161.718 244.715C162.545 242.36 162.764 237.323 160.431 235.65C160.042 235.383 159.599 235.199 159.132 235.11C158.665 235.02 158.183 235.028 157.719 235.132C157.255 235.236 156.819 235.434 156.439 235.713C156.059 235.992 155.743 236.346 155.512 236.752C154.466 238.444 154.884 240.83 155.596 242.564C156.486 244.593 160.106 247.948 160.106 247.948Z" fill="#2E353A"/>
<path d="M178.326 233.294C175.584 232.479 171.514 235.579 170.049 237.628C169.923 237.802 168.259 240.789 168.311 240.799H168.374C167.725 241.279 167.045 241.819 166.281 242.4C164.931 243.502 163.403 244.766 161.844 246.245C160.146 247.819 158.542 249.487 157.041 251.241C155.354 253.202 153.848 255.304 152.541 257.523V257.604C152.719 256.809 153.127 254.545 153.137 254.382C153.294 251.894 152.091 246.989 149.433 245.969C148.984 245.81 148.505 245.745 148.029 245.778C147.552 245.812 147.088 245.943 146.667 246.164C146.246 246.384 145.878 246.689 145.586 247.058C145.294 247.427 145.086 247.852 144.975 248.304C144.431 250.201 145.488 252.383 146.639 253.882C147.947 255.555 152.06 257.716 152.394 257.89C151.121 260.195 150.006 262.579 149.056 265.028C148.501 266.445 148.01 267.883 147.476 269.341C147.601 268.647 147.717 268.015 147.717 267.934C147.874 265.446 146.67 260.541 144.023 259.521C143.575 259.363 143.098 259.299 142.623 259.333C142.148 259.367 141.686 259.497 141.266 259.717C140.847 259.936 140.479 260.239 140.188 260.606C139.896 260.973 139.688 261.395 139.575 261.846C139.02 263.743 140.077 265.925 141.228 267.424C142.38 268.923 145.875 270.84 146.806 271.329L146.241 273.012C145.352 275.694 144.483 278.386 143.552 280.996C143.217 281.914 142.861 282.811 142.505 283.698C142.61 283.086 142.704 282.556 142.714 282.485C142.871 279.987 141.668 275.092 139.01 274.072C138.562 273.913 138.085 273.847 137.61 273.88C137.134 273.913 136.671 274.044 136.251 274.263C135.831 274.483 135.464 274.786 135.173 275.154C134.881 275.522 134.674 275.946 134.562 276.397C134.018 278.294 135.065 280.476 136.226 281.975C137.388 283.474 140.538 285.207 141.626 285.799C141.239 286.696 140.841 287.614 140.423 288.47C140.119 289.052 139.868 289.633 139.533 290.204C139.198 290.775 138.895 291.336 138.581 291.886C137.932 292.906 137.262 294.028 136.603 295.048C136.153 295.751 135.713 296.414 135.263 297.087C135.598 296.169 136.226 294.374 136.31 294.222C136.704 292.062 136.524 289.839 135.787 287.767C135.847 287.526 135.882 287.28 135.891 287.033C135.923 286.57 135.853 286.106 135.688 285.67C135.523 285.235 135.266 284.839 134.934 284.507C134.601 284.175 134.2 283.915 133.758 283.744C133.315 283.573 132.84 283.495 132.365 283.515C129.508 283.708 126.85 288.032 126.243 290.449C126.243 290.591 125.992 292.182 125.866 293.192C125.866 292.59 125.866 292.009 125.803 291.387C125.803 290.163 125.657 288.939 125.573 287.624C125.5 286.992 125.437 286.349 125.364 285.707C125.29 285.065 125.175 284.392 125.081 283.729C124.83 282.189 124.495 280.67 124.118 279.099C125.228 279.099 129.131 278.834 130.847 277.998C132.564 277.162 134.5 275.643 134.876 273.705C134.979 273.252 134.983 272.783 134.887 272.329C134.791 271.874 134.599 271.444 134.321 271.067C134.044 270.69 133.688 270.374 133.277 270.14C132.866 269.906 132.409 269.759 131.936 269.708C129.079 269.473 125.793 273.358 124.809 275.653C124.746 275.806 124.233 277.529 123.961 278.488C123.731 277.56 123.511 276.632 123.25 275.694C122.486 273.012 121.628 270.31 120.78 267.607L120.027 265.13C120.414 265.13 125.071 264.956 126.996 264.018C128.702 263.192 130.648 261.663 131.015 259.725C131.119 259.273 131.124 258.804 131.03 258.349C130.936 257.895 130.744 257.465 130.468 257.088C130.191 256.71 129.836 256.394 129.425 256.16C129.014 255.925 128.558 255.778 128.085 255.728C125.228 255.493 121.931 259.378 120.948 261.683C120.874 261.856 120.131 264.344 119.974 264.987C119.43 263.161 118.928 261.346 118.446 259.531C117.822 257.086 117.364 254.602 117.076 252.098C117.253 252.098 122.109 251.945 124.087 250.986C125.793 250.16 127.739 248.631 128.105 246.693C128.21 246.241 128.215 245.772 128.121 245.318C128.027 244.863 127.835 244.433 127.558 244.056C127.282 243.678 126.927 243.362 126.516 243.128C126.105 242.894 125.648 242.747 125.175 242.696C122.318 242.462 119.022 246.347 118.038 248.641C117.976 248.794 117.41 250.68 117.159 251.598H117.002C116.772 249.071 116.772 246.529 117.002 244.001C117.117 242.615 117.306 241.289 117.515 240.004C118.426 240.065 122.58 240.31 124.453 239.637C126.326 238.964 128.346 237.689 128.932 235.803C129.086 235.364 129.144 234.897 129.1 234.435C129.057 233.972 128.914 233.524 128.681 233.119C128.448 232.714 128.13 232.361 127.748 232.084C127.366 231.807 126.928 231.611 126.463 231.51C123.647 230.97 119.943 234.477 118.708 236.659C118.635 236.782 118.091 238.056 117.662 238.995C117.766 238.424 117.86 237.822 117.976 237.271C118.394 235.232 118.907 233.325 119.378 231.673C119.65 230.735 119.912 229.889 120.173 229.103C121.094 228.706 124.799 227.064 126.117 225.677C127.436 224.291 128.65 222.2 128.283 220.253C128.211 219.798 128.041 219.363 127.786 218.976C127.531 218.589 127.195 218.258 126.801 218.005C126.407 217.751 125.963 217.581 125.497 217.505C125.032 217.428 124.555 217.447 124.097 217.56C121.356 218.346 119.723 223.118 119.65 225.616C119.65 225.83 119.953 229.205 120.006 229.185C119.744 229.94 119.462 230.745 119.189 231.643C118.677 233.284 118.143 235.15 117.662 237.231C117.134 239.456 116.743 241.71 116.49 243.981C116.185 246.522 116.118 249.086 116.291 251.639C116.286 251.669 116.286 251.7 116.291 251.731C115.977 250.976 115.045 248.875 114.951 248.723C113.685 246.561 109.907 243.104 107.113 243.685C106.65 243.795 106.217 243.999 105.84 244.283C105.463 244.566 105.151 244.924 104.926 245.333C104.7 245.741 104.564 246.191 104.528 246.654C104.492 247.117 104.556 247.582 104.717 248.019C105.334 249.895 107.458 251.17 109.258 251.782C111.299 252.475 115.956 252.067 116.322 252.026C116.557 254.624 116.973 257.203 117.567 259.745C117.892 261.224 118.279 262.713 118.687 264.191C118.394 263.539 118.132 262.968 118.091 262.886C116.814 260.724 113.047 257.278 110.242 257.859C109.778 257.968 109.344 258.17 108.966 258.454C108.588 258.737 108.276 259.095 108.05 259.504C107.824 259.913 107.689 260.364 107.653 260.827C107.618 261.29 107.684 261.756 107.846 262.193C108.463 264.069 110.587 265.333 112.398 265.955C114.208 266.577 118.206 266.302 119.252 266.221C119.42 266.781 119.566 267.352 119.734 267.913C120.518 270.636 121.314 273.348 122.004 276.02C122.256 276.968 122.454 277.906 122.664 278.844C122.413 278.273 122.193 277.825 122.151 277.713C120.874 275.551 117.107 272.104 114.302 272.685C113.84 272.796 113.406 272.999 113.029 273.283C112.652 273.567 112.341 273.924 112.115 274.333C111.889 274.741 111.754 275.192 111.718 275.654C111.682 276.117 111.746 276.582 111.906 277.019C112.523 278.895 114.648 280.17 116.458 280.782C118.269 281.394 121.879 281.159 123.124 281.057C123.313 282.026 123.501 282.995 123.627 283.943C123.71 284.585 123.825 285.207 123.867 285.86C123.909 286.513 123.972 287.145 124.024 287.787C124.087 289.011 124.15 290.275 124.171 291.468C124.171 292.304 124.171 293.1 124.171 293.895C123.94 292.957 123.449 291.122 123.386 290.969C122.465 288.644 119.273 284.677 116.416 284.851C115.942 284.891 115.482 285.027 115.065 285.252C114.649 285.476 114.285 285.784 113.998 286.154C113.711 286.524 113.507 286.948 113.399 287.4C113.291 287.852 113.281 288.321 113.371 288.776C113.695 290.724 115.59 292.294 117.285 293.171C119.137 294.13 123.627 294.425 124.181 294.456C124.181 295.782 124.181 297.066 124.181 298.28C124.118 302.094 123.93 305.316 123.752 307.702L125.646 308.069C125.772 305.622 125.897 302.267 125.887 298.29C125.887 296.944 125.887 295.517 125.803 294.038C127.218 293.781 128.616 293.441 129.989 293.018C131.13 294.813 134.468 297.291 134.897 297.607C134.154 298.718 133.422 299.789 132.72 300.788C130.523 303.898 128.535 306.458 127.059 308.355L129.152 308.742C130.544 306.886 132.291 304.51 134.144 301.706C134.908 300.584 135.693 299.371 136.488 298.117C137.001 298.321 141.155 300.003 143.259 299.942C145.174 299.881 147.591 299.289 148.763 297.678C149.05 297.31 149.255 296.886 149.364 296.436C149.472 295.985 149.483 295.517 149.394 295.062C149.305 294.608 149.119 294.176 148.848 293.796C148.577 293.416 148.227 293.095 147.821 292.855C145.32 291.479 140.663 293.661 138.78 295.343C138.665 295.445 137.587 296.659 136.917 297.383C137.241 296.863 137.555 296.363 137.88 295.833C138.539 294.813 139.156 293.722 139.826 292.58L140.737 290.867C141.061 290.306 141.323 289.663 141.616 289.062C142.275 287.644 142.871 286.176 143.436 284.687C144.389 285.248 147.769 287.165 149.715 287.39C151.662 287.614 154.1 287.39 155.502 285.972C155.845 285.65 156.115 285.262 156.294 284.832C156.472 284.402 156.556 283.94 156.539 283.476C156.522 283.012 156.405 282.557 156.196 282.141C155.987 281.724 155.69 281.355 155.325 281.057C153.075 279.324 148.125 280.792 146 282.189C145.875 282.271 144.462 283.433 143.698 284.086C144.033 283.188 144.368 282.301 144.682 281.373C145.561 278.722 146.377 276.01 147.204 273.307C147.455 272.482 147.717 271.656 147.978 270.84C148.313 271.034 152.279 273.399 154.414 273.654C156.319 273.879 158.799 273.654 160.201 272.237C160.544 271.915 160.814 271.526 160.992 271.096C161.171 270.666 161.254 270.204 161.238 269.741C161.221 269.277 161.104 268.822 160.895 268.405C160.686 267.988 160.389 267.619 160.023 267.322C157.773 265.588 152.823 267.057 150.699 268.454C150.542 268.556 148.512 270.238 148.02 270.687C148.585 268.872 149.171 267.067 149.831 265.313C150.694 262.94 151.715 260.623 152.886 258.379C153.043 258.471 157.177 260.959 159.364 261.214C161.269 261.448 163.749 261.214 165.151 259.796C165.494 259.475 165.764 259.086 165.942 258.656C166.121 258.226 166.204 257.764 166.188 257.3C166.171 256.837 166.054 256.382 165.845 255.965C165.635 255.548 165.339 255.179 164.973 254.882C162.723 253.158 157.773 254.627 155.649 256.013C155.513 256.105 153.964 257.38 153.242 258.053L153.116 257.951C154.362 255.723 155.808 253.607 157.438 251.629C158.317 250.538 159.228 249.528 160.128 248.57C160.85 249.1 164.178 251.537 166.124 251.986C168.071 252.434 170.478 252.444 172.037 251.19C172.413 250.906 172.724 250.548 172.949 250.139C173.174 249.731 173.309 249.28 173.343 248.817C173.378 248.355 173.312 247.89 173.15 247.454C172.988 247.018 172.734 246.62 172.403 246.285C170.363 244.328 165.287 245.266 162.985 246.408C162.859 246.479 161.677 247.244 160.829 247.825C161.237 247.397 161.656 246.948 162.064 246.551C163.592 245.052 165.078 243.757 166.407 242.635C167.16 241.993 167.861 241.432 168.5 240.922C169.494 241.085 173.502 241.717 175.396 241.258C177.29 240.799 179.488 239.719 180.273 237.904C180.488 237.481 180.608 237.018 180.625 236.547C180.642 236.075 180.556 235.606 180.371 235.169C180.187 234.733 179.909 234.34 179.557 234.017C179.204 233.693 178.784 233.447 178.326 233.294Z" fill="#2E353A"/>
<path d="M152.438 307.284H74.5479V317.328H152.438V307.284Z" fill="#2E353A"/>
<path d="M140.194 346.206H86.7811L80.1045 316.216H146.87L140.194 346.206Z" fill="#2E353A"/>
<path d="M75.2064 155.308L74.4215 227.646C74.4215 227.646 71.282 229.185 62.5753 229.185C53.8685 229.185 50.7291 227.646 50.7291 227.646L53.8685 198.401C53.8685 198.401 42.8281 196.096 42.8281 193.037C42.8281 189.978 67.3054 105.343 67.3054 105.343C67.3054 105.343 79.9469 126.828 75.2064 155.308Z" fill="#92E3A9" stroke="#2E353A" stroke-miterlimit="10"/>
<path d="M53.8799 198.391L64.1145 152.3" stroke="#2E353A" stroke-miterlimit="10"/>
<path d="M57.835 105.282C57.835 105.282 72.0462 123.749 73.6264 131.448C75.2066 139.146 75.2066 155.309 75.2066 155.309C79.841 143.981 82.7667 132.06 83.8924 119.915C85.4726 100.673 69.6812 90.6699 69.6812 90.6699L57.835 105.282Z" fill="#2E353A" stroke="#2E353A" stroke-miterlimit="10"/>
<path d="M324.886 155.308L325.671 227.646C325.671 227.646 328.81 229.185 337.517 229.185C346.223 229.185 349.363 227.646 349.363 227.646L346.223 198.401C346.223 198.401 357.264 196.096 357.264 193.037C357.264 189.978 332.776 105.343 332.776 105.343C332.776 105.343 320.145 126.828 324.886 155.308Z" fill="#92E3A9" stroke="#2E353A" stroke-miterlimit="10"/>
<path d="M346.205 198.391L336.713 144.795" stroke="#2E353A" stroke-miterlimit="10"/>
<path d="M342.259 105.282C342.259 105.282 328.037 123.749 326.457 131.448C324.877 139.146 324.887 155.298 324.887 155.298C320.247 143.973 317.317 132.05 316.191 119.905C314.611 100.663 330.413 90.6597 330.413 90.6597L342.259 105.282Z" fill="#2E353A" stroke="#2E353A" stroke-miterlimit="10"/>
<path d="M342.143 105.282C299.096 80.4747 250.001 67.3874 199.989 67.3874C149.977 67.3874 100.882 80.4747 57.8346 105.282L32.9073 64.2084C31.1178 61.292 32.8027 57.0705 36.727 54.9699C86.6175 27.7935 142.822 13.5249 199.979 13.5249C257.136 13.5249 313.34 27.7935 363.23 54.9699C367.144 57.1011 368.839 61.292 367.05 64.2084L342.143 105.282Z" fill="#92E3A9"/>
<path d="M342.143 105.282C299.096 80.4747 250.001 67.3874 199.989 67.3874C149.977 67.3874 100.882 80.4747 57.8346 105.282L32.9073 64.2084C31.1178 61.292 32.8027 57.0705 36.727 54.9699C86.6175 27.7935 142.822 13.5249 199.979 13.5249C257.136 13.5249 313.34 27.7935 363.23 54.9699C367.144 57.1011 368.839 61.292 367.05 64.2084L342.143 105.282Z" stroke="#2E353A" stroke-miterlimit="10"/>
<path d="M95.5803 73.846C94.8273 74.081 94.1545 74.0921 93.5617 73.8792C92.9969 73.6577 92.4473 73.2018 91.9129 72.5117L75.0816 50.6354C74.4829 49.843 74.2923 49.0762 74.51 48.335C74.7555 47.5851 75.3942 47.0491 76.4261 46.7271C77.1791 46.4921 77.8241 46.4897 78.3611 46.7199C78.8889 46.9224 79.4015 47.3592 79.8988 48.0303L94.7369 67.9122L93.0635 68.4344L93.6342 43.7894C93.6668 42.953 93.8329 42.2891 94.1327 41.7977C94.4324 41.3063 94.917 40.9562 95.5863 40.7472C96.2557 40.5383 96.8449 40.5534 97.3539 40.7923C97.863 41.0313 98.3847 41.4958 98.919 42.1859L113.813 61.9584L112.349 62.4154L112.697 37.7941C112.711 36.9941 112.868 36.3484 113.167 35.857C113.467 35.3656 113.98 35.0068 114.705 34.7805C115.597 34.5019 116.353 34.6027 116.972 35.0827C117.591 35.5628 117.893 36.2948 117.878 37.2787L117.153 64.6804C117.12 65.5168 116.94 66.1851 116.613 66.6851C116.285 67.1852 115.745 67.5528 114.992 67.7878C114.239 68.0228 113.58 68.0295 113.015 67.808C112.45 67.5864 111.9 67.1306 111.366 66.4405L97.2989 48.0623L98.2611 47.762L97.6998 70.7516C97.6672 71.588 97.4871 72.2563 97.1595 72.7564C96.8597 73.2478 96.3334 73.611 95.5803 73.846Z" fill="#2E353A"/>
<path d="M134.317 62.4526C133.371 62.6501 132.586 62.5597 131.963 62.1812C131.363 61.7682 130.959 61.0898 130.751 60.146L125.384 35.7371C125.176 34.7933 125.262 34.0275 125.643 33.4396C126.046 32.8171 126.72 32.4071 127.666 32.2096L143.015 29.0046C143.732 28.8549 144.317 28.9271 144.772 29.2211C145.255 29.5091 145.572 29.9963 145.723 30.6826C145.88 31.3976 145.802 31.9972 145.489 32.4813C145.198 32.9309 144.694 33.2305 143.977 33.3802L130.993 36.0914L132.823 44.4136L144.862 41.8999C145.607 41.7443 146.207 41.8134 146.661 42.1074C147.116 42.4014 147.421 42.9059 147.579 43.6208C147.736 44.3358 147.669 44.9181 147.378 45.3677C147.087 45.8173 146.569 46.1199 145.824 46.2755L133.785 48.7892L135.719 57.5833L148.704 54.872C149.42 54.7224 150.006 54.7946 150.46 55.0886C150.943 55.3766 151.264 55.878 151.421 56.593C151.578 57.308 151.497 57.8932 151.177 58.3488C150.886 58.7984 150.383 59.098 149.666 59.2476L134.317 62.4526Z" fill="#2E353A"/>
<path d="M161.089 57.5335C160.192 57.6483 159.464 57.4914 158.906 57.0628C158.344 56.6054 158.002 55.9285 157.882 55.0323L154.51 30.0097C154.385 29.0845 154.523 28.361 154.924 27.8392C155.349 27.2848 156.011 26.9502 156.908 26.8354C157.805 26.7206 158.518 26.8794 159.047 27.3116C159.601 27.7112 159.941 28.3736 160.065 29.2988L163.186 52.4566L175.774 50.846C176.555 50.7461 177.175 50.8726 177.635 51.2255C178.124 51.5747 178.419 52.1252 178.52 52.8768C178.621 53.6285 178.484 54.249 178.108 54.7382C177.758 55.1948 177.192 55.4731 176.411 55.573L161.089 57.5335Z" fill="#2E353A"/>
<path d="M198.39 54.5591C195.178 54.6712 192.395 54.1251 190.041 52.9209C187.716 51.6865 185.896 49.9082 184.583 47.586C183.269 45.2347 182.552 42.4386 182.433 39.1977C182.344 36.7744 182.614 34.587 183.244 32.6356C183.873 30.655 184.819 28.9557 186.083 27.5376C187.345 26.0903 188.912 24.9686 190.783 24.1725C192.683 23.3462 194.829 22.8913 197.224 22.8078C198.83 22.7517 200.414 22.9011 201.976 23.2559C203.539 23.6107 204.918 24.1473 206.114 24.8656C206.741 25.2238 207.167 25.6767 207.392 26.2243C207.615 26.7427 207.678 27.2667 207.581 27.7963C207.482 28.2968 207.25 28.7288 206.883 29.0924C206.546 29.455 206.101 29.6751 205.548 29.7529C205.023 29.8004 204.432 29.631 203.775 29.2446C202.848 28.6923 201.855 28.303 200.794 28.0769C199.733 27.8508 198.663 27.7566 197.582 27.7943C195.509 27.8666 193.773 28.351 192.373 29.2476C190.973 30.1443 189.938 31.4082 189.267 33.0395C188.596 34.6707 188.304 36.6543 188.389 38.99C188.474 41.2965 188.912 43.2546 189.702 44.8641C190.492 46.4737 191.618 47.6769 193.079 48.4737C194.541 49.2705 196.309 49.6327 198.382 49.5604C199.491 49.5217 200.581 49.3521 201.652 49.0517C202.722 48.722 203.728 48.2484 204.67 47.6309C205.298 47.2289 205.862 47.0485 206.36 47.0896C206.887 47.1004 207.331 47.2603 207.693 47.5693C208.056 47.8782 208.304 48.2788 208.439 48.7711C208.573 49.2342 208.562 49.7315 208.406 50.2632C208.249 50.7656 207.915 51.2158 207.403 51.6137C206.267 52.5011 204.889 53.2069 203.271 53.7311C201.681 54.2251 200.054 54.5011 198.39 54.5591Z" fill="#2E353A"/>
<path d="M228.348 55.2184C225.368 54.957 222.813 54.0704 220.684 52.5587C218.585 51.0494 217.031 49.058 216.022 46.5843C215.016 44.0815 214.661 41.2235 214.958 38.0104C215.182 35.5859 215.733 33.4405 216.613 31.5742C217.495 29.6786 218.642 28.1008 220.055 26.8406C221.499 25.5539 223.161 24.6248 225.04 24.0534C226.952 23.4554 229.032 23.2551 231.282 23.4524C234.292 23.7164 236.847 24.603 238.946 26.1122C241.049 27.5922 242.604 29.569 243.613 32.0427C244.622 34.5163 244.978 37.3597 244.681 40.5728C244.457 42.9973 243.904 45.1573 243.022 47.0528C242.14 48.9484 240.976 50.5396 239.532 51.8264C238.117 53.1157 236.453 54.0593 234.542 54.6574C232.663 55.2287 230.598 55.4157 228.348 55.2184ZM228.793 50.3988C230.693 50.5653 232.341 50.2681 233.737 49.5071C235.162 48.7487 236.302 47.5678 237.157 45.9643C238.041 44.3634 238.59 42.4091 238.803 40.1015C239.127 36.5963 238.589 33.8106 237.189 31.7443C235.818 29.6806 233.701 28.5232 230.837 28.2721C228.967 28.1081 227.319 28.4053 225.894 29.1637C224.472 29.8929 223.318 31.058 222.434 32.6589C221.581 34.2331 221.047 36.1887 220.831 38.5255C220.51 42.0015 221.048 44.7872 222.446 46.8827C223.843 48.9781 225.959 50.1502 228.793 50.3988Z" fill="#2E353A"/>
<path d="M252.437 58.0345C251.641 57.8471 251.086 57.4763 250.772 56.9221C250.458 56.368 250.399 55.6939 250.596 54.8999L256.933 29.3352C257.137 28.5128 257.519 27.9425 258.08 27.6242C258.647 27.2776 259.329 27.198 260.126 27.3854C260.837 27.5527 261.356 27.8251 261.684 28.2024C262.047 28.558 262.319 29.1021 262.498 29.8346L268.216 51.7541L266.851 51.4328L282.207 34.4735C282.71 33.9016 283.192 33.5349 283.653 33.3733C284.122 33.1835 284.711 33.1722 285.422 33.3396C286.219 33.527 286.774 33.8978 287.088 34.4519C287.409 34.9777 287.468 35.6518 287.264 36.4742L280.926 62.0389C280.729 62.8329 280.361 63.4066 279.822 63.7599C279.312 64.1199 278.644 64.2029 277.819 64.0087C277.023 63.8213 276.468 63.4505 276.154 62.8964C275.84 62.3423 275.781 61.6682 275.978 60.8742L280.86 41.1795L281.799 41.4004L268.802 55.5835C268.398 55.9987 268.011 56.2829 267.642 56.4361C267.273 56.5893 266.818 56.6024 266.278 56.4752C265.738 56.348 265.325 56.1308 265.04 55.8236C264.762 55.4881 264.551 55.0633 264.408 54.5493L259.413 36.0865L260.437 36.3275L255.544 56.0646C255.347 56.8587 254.979 57.4323 254.44 57.7856C253.93 58.1457 253.262 58.2286 252.437 58.0345Z" fill="#2E353A"/>
<path d="M295.333 68.9922C294.431 68.652 293.825 68.1583 293.517 67.5111C293.246 66.8471 293.289 66.067 293.645 65.171L302.85 41.9963C303.206 41.1003 303.708 40.5091 304.357 40.2228C305.043 39.9197 305.837 39.9382 306.739 40.2785L321.378 45.7997C322.061 46.0574 322.51 46.4298 322.726 46.9168C322.968 47.4142 322.96 47.9887 322.701 48.6403C322.431 49.3191 322.03 49.7764 321.496 50.0122C321 50.2312 320.411 50.2118 319.728 49.954L307.344 45.2834L304.205 53.1848L315.687 57.5151C316.397 57.7832 316.86 58.1608 317.076 58.6478C317.291 59.1348 317.263 59.7177 316.994 60.3965C316.724 61.0753 316.342 61.5242 315.846 61.7432C315.35 61.9621 314.747 61.9375 314.036 61.6695L302.555 57.3391L299.238 65.6885L311.622 70.3591C312.305 70.6169 312.755 70.9893 312.97 71.4763C313.212 71.9736 313.199 72.5617 312.929 73.2405C312.659 73.9193 312.263 74.363 311.74 74.5717C311.244 74.7906 310.655 74.7712 309.972 74.5134L295.333 68.9922Z" fill="#2E353A"/>
<path d="M290.626 152.861C290.626 152.861 277.315 143.276 270.921 138.585C264.527 133.895 253.57 120.435 250.828 114.521C249.472 111.476 247.949 108.504 246.266 105.619C246.266 105.619 247.532 99.6737 247.532 98.2053C247.532 96.7369 246.308 94.7995 245.533 93.5555C245.146 92.9335 242.394 89.3747 242.394 92.0871C242.394 94.2081 243.702 95.2686 243.702 96.5432C241.94 95.5949 240.489 94.181 239.516 92.4644C237.988 89.7112 237.339 88.6405 236.46 89.2829C234.901 90.425 236.9 93.3617 236.9 93.3617C236.9 93.3617 236.46 89.2829 234.284 89.9559C233.028 90.323 234.723 93.7798 235.592 95.2686C236.46 96.7573 235.152 94.2489 235.372 96.7573C235.529 98.6234 237.716 103.212 239.736 105.466C240.468 106.292 242.174 106.037 242.352 106.322C243.001 107.342 249.981 123.106 254.774 130.968C259.567 138.83 262.413 141.165 266.337 144.989C270.262 148.813 275.494 155.4 280.067 158.582C284.64 161.763 287.047 160.499 289.664 158.368C292.28 156.236 292.667 155.023 290.626 152.861Z" fill="white" stroke="#2E353A" stroke-linecap="round" stroke-linejoin="round"/>
<path d="M243.628 96.5332C243.628 96.5332 241.66 100.153 242.581 101.632" stroke="#2E353A" stroke-linecap="round" stroke-linejoin="round"/>
<path d="M236.869 93.3516L238.617 96.533" stroke="#2E353A" stroke-linecap="round" stroke-linejoin="round"/>
<path d="M238.826 103.762C237.323 101.906 236.009 99.9112 234.901 97.8075C234.033 95.6865 234.692 91.0163 236 91.8626C237.308 92.709 236.869 97.3894 236.869 97.3894L239.485 100.357" fill="white"/>
<path d="M238.826 103.762C237.323 101.906 236.009 99.9112 234.901 97.8075C234.033 95.6865 234.692 91.0163 236 91.8626C237.308 92.709 236.869 97.3894 236.869 97.3894L239.485 100.357" stroke="#2E353A" stroke-linecap="round" stroke-linejoin="round"/>
<path d="M293.442 126.37C293.442 126.37 286.755 123.994 287.969 115.694C289.183 107.393 296.487 111.543 296.487 111.543C296.487 111.543 289.162 102.05 304.095 99.9799C319.028 97.91 329.974 110.952 333.627 125.472C337.279 139.993 314.141 141.482 317.49 152.464C320.839 163.446 333.93 175.917 331.795 191.019C329.661 206.121 308.365 214.472 298.622 206.437C288.879 198.401 284.923 185.981 290.438 174.683C295.953 163.385 298.957 150.068 300.474 144.092C301.991 138.117 293.442 126.37 293.442 126.37Z" fill="#2E353A" stroke="#2E353A" stroke-linecap="round" stroke-linejoin="round"/>
<path d="M317.385 137.464C308.229 133.895 303.52 119.364 303.52 111.206C303.52 103.049 315.292 107.128 315.292 107.128C315.292 107.128 303.781 109.167 309.537 120.129C315.292 131.091 325.496 134.405 330.728 131.091" stroke="white" stroke-width="0.75" stroke-linecap="round" stroke-linejoin="round"/>
<path d="M315.555 145.367C315.555 145.367 307.444 147.916 309.799 157.858C312.154 167.8 330.205 180.291 324.973 193.038C319.741 205.784 310.584 210.882 299.596 207.059" stroke="white" stroke-width="0.75" stroke-linecap="round" stroke-linejoin="round"/>
<path d="M311.629 147.406C311.629 147.406 302.734 150.975 301.687 163.721C300.641 176.467 311.367 187.429 306.396 193.802C301.426 200.175 293.315 199.41 290.699 195.587" stroke="white" stroke-width="0.75" stroke-linecap="round" stroke-linejoin="round"/>
<path d="M291.318 140.309C291.318 140.309 292.228 143.572 289.225 148.62C286.221 153.667 284.662 154.84 284.662 154.84L295.619 153.953L302.62 141.492C302.62 141.492 291.925 142.389 291.318 140.309Z" fill="white" stroke="#2E353A" stroke-linecap="round" stroke-linejoin="round"/>
<path d="M302.273 112.726C302.273 112.726 291.62 122.219 289.485 130.52C287.35 138.82 290.092 144.163 294.058 144.163C298.024 144.163 306.229 140.9 306.229 140.9C306.229 140.9 308.667 142.94 311.095 141.798C311.79 141.47 312.383 140.967 312.811 140.342C313.24 139.716 313.489 138.99 313.533 138.239C313.533 138.239 296.79 122.219 302.273 112.726Z" fill="white" stroke="#2E353A" stroke-linecap="round" stroke-linejoin="round"/>
<path d="M297.763 126.971C297.031 127.878 296.152 128.388 295.786 128.113C295.419 127.838 295.712 126.879 296.445 125.972C297.177 125.064 298.056 124.554 298.412 124.83C298.768 125.105 298.486 126.063 297.763 126.971Z" fill="#2E353A"/>
<path d="M302.828 132.141C302.106 133.059 301.216 133.568 300.85 133.293C300.484 133.018 300.787 132.059 301.509 131.152C302.231 130.244 303.121 129.724 303.487 130C303.854 130.275 303.55 131.233 302.828 132.141Z" fill="#2E353A"/>
<path d="M297.281 128.908C296.039 129.335 294.843 129.882 293.712 130.54C292.76 131.233 294.424 132.161 294.424 132.161" stroke="#2E353A" stroke-width="0.75" stroke-linecap="round" stroke-linejoin="round"/>
<path d="M291.568 134.476C291.739 135.23 292.158 135.91 292.76 136.412C293.362 136.914 294.116 137.212 294.907 137.26C296.402 137.478 297.927 137.147 299.187 136.332" stroke="#2E353A" stroke-width="0.75" stroke-linecap="round" stroke-linejoin="round"/>
<path d="M297.522 121.026C298.279 120.911 299.052 121.09 299.675 121.525C300.297 121.959 300.719 122.615 300.85 123.351" stroke="#2E353A" stroke-width="0.75" stroke-linecap="round" stroke-linejoin="round"/>
<path d="M302.996 126.829C302.996 126.829 307.036 128.215 305.853 131.234" stroke="#2E353A" stroke-width="0.75" stroke-linecap="round" stroke-linejoin="round"/>
<path d="M263.062 343.127C263.062 343.127 257.432 346.788 255.548 347.695C253.664 348.603 245.701 349.979 245.46 352.039C245.219 354.099 249.447 355.241 254.146 355.241C258.845 355.241 264.464 355.241 267.279 355.7C270.094 356.159 271.978 357.066 273.15 354.099C274.322 351.132 272.438 343.351 272.438 343.351C272.438 343.351 267.52 345.187 263.062 343.127Z" fill="#92E3A9" stroke="#2E353A" stroke-linecap="round" stroke-linejoin="round"/>
<path d="M265.164 261.745C265.164 261.745 261.889 276.602 261.889 281.405C261.889 286.208 263.762 317.298 264.233 325.976C264.461 331.717 264.068 337.466 263.061 343.127C263.061 343.127 267.048 344.953 268.691 344.953C270.334 344.953 272.437 343.352 272.437 343.352C272.437 343.352 277.136 323.233 277.136 312.496C277.136 301.758 278.067 295.579 277.136 288.716C276.205 281.854 272.95 269.291 274.08 264.713C275.21 260.134 268.691 254.883 265.164 261.745Z" fill="#2E353A" stroke="#2E353A" stroke-linecap="round" stroke-linejoin="round"/>
<path d="M265.133 196.096C265.133 196.096 261.136 222.466 261.136 242.034C261.136 261.602 269.665 285.045 271.789 288.308C273.913 291.571 292.488 324.191 296.748 331.013C299.761 336.185 302.257 341.628 304.199 347.267C305.685 347.712 307.213 348.01 308.761 348.154C310.289 348.154 312.413 346.38 312.413 346.38C312.413 346.38 302.535 308.763 298.579 298.984C294.623 289.205 286.44 281.486 284.315 277.672C282.191 273.859 281.27 258.981 281.27 258.981C281.27 258.981 293.744 239.709 295.921 229.328C298.098 218.948 292.227 207.313 289.788 203.234C288.195 200.454 286.773 197.583 285.529 194.638C285.529 194.638 272.752 202 265.133 196.096Z" fill="#2E353A" stroke="#2E353A" stroke-linecap="round" stroke-linejoin="round"/>
<path d="M288.271 185.39C288.271 185.39 295.879 162.559 297.689 157.215C299.5 151.872 296.769 149.802 288.554 150.689C280.339 151.576 266.033 157.827 265.426 164.629C264.819 171.43 267.519 175.305 267.519 178.568C267.519 181.831 262.705 196.097 266.368 199.033C270.031 201.97 281.584 201.073 284.933 196.994C288.282 192.915 288.271 185.39 288.271 185.39Z" fill="#92E3A9" stroke="#2E353A" stroke-linecap="round" stroke-linejoin="round"/>
<path d="M290.626 152.861C291.067 156.592 290.124 160.353 287.968 163.466C284.316 169.095 276.101 167.025 276.708 160.794C277.315 154.564 285.059 149.394 290.626 152.861Z" fill="white" stroke="#2E353A" stroke-linecap="round" stroke-linejoin="round"/>
<path d="M285.435 161.692C286.426 161.538 287.368 161.171 288.194 160.617C289.02 160.063 289.708 159.337 290.21 158.491C290.711 157.645 291.012 156.7 291.091 155.727C291.171 154.753 291.026 153.774 290.668 152.861C290.441 152.232 290.048 151.673 289.528 151.239C289.008 150.806 288.379 150.514 287.706 150.394C282.474 149.507 259.702 151.281 253.915 150.689C248.128 150.098 226.225 137.046 220.428 132.009C214.63 126.971 212.516 124.3 212.516 122.219C212.516 120.139 210.989 115.398 209.775 113.919C208.561 112.441 206.426 109.463 206.426 109.463C206.426 109.463 204.333 109.463 204.605 110.656C205.101 111.988 205.71 113.277 206.426 114.511C206.426 114.511 200.335 110.952 198.818 109.412C198.666 109.207 198.471 109.035 198.246 108.908C198.022 108.781 197.772 108.7 197.514 108.673C197.256 108.645 196.995 108.67 196.747 108.746C196.499 108.823 196.271 108.949 196.076 109.116L199.425 112.675C199.425 112.675 199.121 115.051 201.518 118.905C203.331 121.538 205.596 123.846 208.215 125.727C208.215 125.727 220.386 139.667 229.522 147.375C238.658 155.084 247.166 159.836 254.784 161.019C261.502 162.12 271.988 164.088 285.435 161.692Z" fill="white" stroke="#2E353A" stroke-linecap="round" stroke-linejoin="round"/>
<path d="M304.241 347.268C304.241 347.268 299.427 352.274 296.141 354.324C292.855 356.373 288.627 357.76 289.339 359.585C290.051 361.411 298.757 361.186 302.943 360.952C307.129 360.717 315.606 356.873 317.019 355.925C318.431 354.976 312.456 346.38 312.456 346.38C312.456 346.38 307.883 348.889 304.241 347.268Z" fill="#92E3A9" stroke="#2E353A" stroke-linecap="round" stroke-linejoin="round"/>
<path d="M302.996 360.951C307.182 360.727 315.658 356.873 317.071 355.924C317.458 355.669 317.27 354.813 316.809 353.722C312.044 356.024 307.013 357.763 301.824 358.902C294.959 360.329 291.066 359.656 289.318 359.116C289.312 359.275 289.337 359.434 289.391 359.585C290.04 361.41 298.716 361.186 302.996 360.951Z" fill="#2E353A" stroke="#2E353A" stroke-linecap="round" stroke-linejoin="round"/>
<path d="M273.15 354.15C273.359 353.545 273.475 352.913 273.495 352.274C271.632 353.742 270.282 353.049 267.279 353.233C263.522 353.467 262.12 353.467 254.376 353.467C251.344 353.54 248.326 353.052 245.481 352.029C245.485 352.049 245.485 352.07 245.481 352.09C245.25 354.13 249.468 355.292 254.166 355.292C258.865 355.292 264.485 355.292 267.3 355.751C270.115 356.21 271.978 357.067 273.15 354.15Z" fill="#2E353A" stroke="#2E353A" stroke-linecap="round" stroke-linejoin="round"/>
<path d="M281.271 258.941C281.271 258.941 282.139 244.828 283.74 242.034C285.341 239.24 289.151 235.518 291.694 233.346" stroke="white" stroke-width="0.75" stroke-linecap="round" stroke-linejoin="round"/>
</svg>
