<svg width="367" height="426" viewBox="0 0 367 426" fill="none" xmlns="http://www.w3.org/2000/svg">
<path d="M10.1432 384.025H360.428" stroke="#263238" stroke-linecap="round" stroke-linejoin="round"/>
<path d="M188.028 425.551C254.776 425.551 308.887 420.515 308.887 414.303C308.887 408.091 254.776 403.055 188.028 403.055C121.28 403.055 67.1699 408.091 67.1699 414.303C67.1699 420.515 121.28 425.551 188.028 425.551Z" fill="#92E3A9"/>
<path d="M27.5577 179.062C27.5577 179.062 40.7625 201.266 44.1081 252.738C47.4538 304.21 51.3161 341.747 51.3161 341.747" stroke="#263238" stroke-width="2" stroke-linecap="round" stroke-linejoin="round"/>
<path d="M6.65241 138.436C6.15667 138.349 5.65616 138.533 5.25098 138.952C4.84581 139.372 4.56587 139.995 4.46716 140.698C2.51059 154.986 -5.95094 223.688 13.8858 214.629C30.343 207.114 29.2673 189.823 27.6326 181.47C27.5564 181.08 27.5583 180.667 27.6381 180.279C27.7179 179.891 27.8724 179.542 28.0838 179.275C28.2952 179.007 28.5549 178.83 28.8332 178.764C29.1115 178.699 29.397 178.747 29.6569 178.904C36.0772 182.71 50.0442 188.705 51.5857 169.881C53.3644 148.201 15.4866 140.041 6.65241 138.436Z" fill="#92E3A9" stroke="#263238" stroke-linecap="round" stroke-linejoin="round"/>
<path d="M13.8864 150.937C17.846 157.413 21.2997 164.491 24.1859 172.046" stroke="#263238" stroke-linecap="round" stroke-linejoin="round"/>
<path d="M7.8551 142.461C9.07735 143.881 10.2398 145.403 11.3363 147.021" stroke="#263238" stroke-linecap="round" stroke-linejoin="round"/>
<path d="M22.6605 176.825C22.6605 176.825 17.1296 168.483 3.56067 172.083" stroke="#263238" stroke-linecap="round" stroke-linejoin="round"/>
<path d="M28.7172 148.602C30.246 156.262 30.246 164.385 28.7172 172.045" stroke="#263238" stroke-linecap="round" stroke-linejoin="round"/>
<path d="M5.91511 193.313C5.04336 194.4 4.25933 195.623 3.57776 196.961" stroke="#263238" stroke-linecap="round" stroke-linejoin="round"/>
<path d="M24.1857 183.962C24.1857 183.962 15.0381 184.631 8.26208 190.808" stroke="#263238" stroke-linecap="round" stroke-linejoin="round"/>
<path d="M31.7324 176.825C31.7324 176.825 42.0319 172.448 44.5475 160.361" stroke="#263238" stroke-linecap="round" stroke-linejoin="round"/>
<path d="M64.6978 253.602C64.6978 253.602 57.151 266.297 55.2368 295.735C53.3226 325.174 51.1119 346.648 51.1119 346.648" stroke="#263238" stroke-width="2" stroke-linecap="round" stroke-linejoin="round"/>
<path d="M75.9461 231.664C76.2309 231.613 76.5186 231.719 76.7512 231.961C76.9838 232.202 77.144 232.561 77.1997 232.965C78.3177 241.125 83.1287 280.388 71.8127 275.245C62.4026 270.94 63.0209 261.054 63.9526 256.276C64.0019 256.051 64.0048 255.811 63.9609 255.584C63.9171 255.358 63.8283 255.154 63.7055 254.998C63.5827 254.843 63.431 254.741 63.2689 254.707C63.1068 254.672 62.9412 254.706 62.7922 254.804C59.1247 256.993 51.1375 260.41 50.2566 249.649C49.2402 237.246 70.9403 232.588 75.9461 231.664Z" fill="#92E3A9" stroke="#263238" stroke-linecap="round" stroke-linejoin="round"/>
<path d="M71.7867 238.84C69.5108 242.544 67.5228 246.592 65.8577 250.914" stroke="#263238" stroke-linecap="round" stroke-linejoin="round"/>
<path d="M75.2673 233.975C74.5639 234.786 73.8964 235.659 73.2687 236.589" stroke="#263238" stroke-linecap="round" stroke-linejoin="round"/>
<path d="M66.7817 253.601C66.7817 253.601 69.9495 248.822 77.708 250.889" stroke="#263238" stroke-linecap="round" stroke-linejoin="round"/>
<path d="M63.3157 237.477C62.4449 241.848 62.4449 246.482 63.3157 250.853" stroke="#263238" stroke-linecap="round" stroke-linejoin="round"/>
<path d="M76.369 263.048C76.8686 263.666 77.3175 264.364 77.7071 265.127" stroke="#263238" stroke-linecap="round" stroke-linejoin="round"/>
<path d="M65.9174 257.699C65.9174 257.699 71.1349 258.088 75.0226 261.615" stroke="#263238" stroke-linecap="round" stroke-linejoin="round"/>
<path d="M61.6227 253.602C61.6227 253.602 55.6937 251.097 54.2961 244.178" stroke="#263238" stroke-linecap="round" stroke-linejoin="round"/>
<path d="M29.0812 241.77C29.0812 241.77 41.261 262.259 44.3272 309.767C45.3351 324.796 46.3769 338.549 47.3001 350.295" stroke="#263238" stroke-width="2" stroke-linecap="round" stroke-linejoin="round"/>
<path d="M5.93285 226.813C5.56536 226.994 5.2591 227.368 5.07535 227.86C4.8916 228.351 4.84393 228.924 4.94186 229.464C6.96619 240.408 17.3843 292.415 29.0559 276.401C38.7541 263.098 33.8923 251.57 30.7499 246.548C30.6047 246.315 30.5083 246.028 30.4716 245.719C30.435 245.41 30.4596 245.093 30.5427 244.804C30.6258 244.515 30.764 244.265 30.9415 244.083C31.1189 243.901 31.3285 243.795 31.5461 243.776C36.9246 243.29 48.088 240.627 44.7 226.752C40.8123 210.762 12.4971 223.615 5.93285 226.813Z" fill="#92E3A9" stroke="#263238" stroke-linecap="round" stroke-linejoin="round"/>
<path opacity="0.2" d="M5.93285 226.813C5.56536 226.994 5.2591 227.368 5.07535 227.86C4.8916 228.351 4.84393 228.924 4.94186 229.464C6.96619 240.408 17.3843 292.415 29.0559 276.401C38.7541 263.098 33.8923 251.57 30.7499 246.548C30.6047 246.315 30.5083 246.028 30.4716 245.719C30.435 245.41 30.4596 245.093 30.5427 244.804C30.6258 244.515 30.764 244.265 30.9415 244.083C31.1189 243.901 31.3285 243.795 31.5461 243.776C36.9246 243.29 48.088 240.627 44.7 226.752C40.8123 210.762 12.4971 223.615 5.93285 226.813Z" fill="#263238"/>
<path d="M13.9364 231.981C18.2373 234.575 22.3273 237.837 26.1332 241.709" stroke="#263238" stroke-linecap="round" stroke-linejoin="round"/>
<path d="M7.71863 229.027C8.90741 229.419 10.0784 229.914 11.2252 230.511" stroke="#263238" stroke-linecap="round" stroke-linejoin="round"/>
<path d="M26.2096 245.71C26.2096 245.71 20.3738 242.597 11.7598 251.79" stroke="#263238" stroke-linecap="round" stroke-linejoin="round"/>
<path d="M23.7195 223.104C26.6054 227.695 28.5337 233.358 29.2843 239.447" stroke="#263238" stroke-linecap="round" stroke-linejoin="round"/>
<path d="M18.4259 265.444C18.0751 266.615 17.8166 267.838 17.6553 269.092" stroke="#263238" stroke-linecap="round" stroke-linejoin="round"/>
<path d="M28.962 249.966C28.962 249.966 22.762 254.903 19.4926 262.539" stroke="#263238" stroke-linecap="round" stroke-linejoin="round"/>
<path d="M32.52 241.271C32.52 241.271 38.6608 233.172 37.5427 223.518" stroke="#263238" stroke-linecap="round" stroke-linejoin="round"/>
<path d="M54.8466 384.026H42.582C40.2892 384.025 38.0836 382.765 36.4174 380.504C34.7511 378.243 33.7505 375.153 33.6207 371.866L32.3672 337.138H65.0698L63.8163 371.866C63.6844 375.154 62.682 378.244 61.0144 380.505C59.3468 382.765 57.1402 384.025 54.8466 384.026Z" fill="#999999" stroke="#263238" stroke-linecap="round" stroke-linejoin="round"/>
<path d="M234.148 331.508C234.385 328.213 240.822 240.31 241.068 236.978C241.286 234.407 242.142 232.034 243.48 230.297C244.818 228.559 246.548 227.572 248.352 227.518H343.792L335.483 340.98H240.043C239.203 341.005 238.369 340.768 237.598 340.287C236.827 339.805 236.138 339.09 235.578 338.19C235.018 337.29 234.601 336.227 234.354 335.074C234.107 333.92 234.037 332.704 234.148 331.508Z" fill="#92E3A9"/>
<mask id="mask0_10_722" style="mask-type:luminance" maskUnits="userSpaceOnUse" x="234" y="227" width="110" height="114">
<path d="M234.148 331.508C234.385 328.213 240.822 240.31 241.068 236.978C241.286 234.407 242.142 232.034 243.48 230.297C244.818 228.559 246.548 227.572 248.352 227.518H343.792L335.483 340.98H240.043C239.203 341.005 238.369 340.768 237.598 340.287C236.827 339.805 236.138 339.09 235.578 338.19C235.018 337.29 234.601 336.227 234.354 335.074C234.107 333.92 234.037 332.704 234.148 331.508Z" fill="white"/>
</mask>
<g mask="url(#mask0_10_722)">
<path opacity="0.6" d="M234.148 331.508C234.385 328.213 240.822 240.31 241.068 236.978C241.286 234.407 242.142 232.034 243.48 230.297C244.818 228.559 246.548 227.572 248.352 227.518H343.792L335.483 340.98H240.043C239.203 341.005 238.369 340.768 237.598 340.287C236.827 339.805 236.138 339.09 235.578 338.19C235.018 337.29 234.601 336.227 234.354 335.074C234.107 333.92 234.037 332.704 234.148 331.508Z" fill="white"/>
</g>
<path d="M234.148 331.508C234.385 328.213 240.822 240.31 241.068 236.978C241.286 234.407 242.142 232.034 243.48 230.297C244.818 228.559 246.548 227.572 248.352 227.518H343.792L335.483 340.98H240.043C239.203 341.005 238.369 340.768 237.598 340.287C236.827 339.805 236.138 339.09 235.578 338.19C235.018 337.29 234.601 336.227 234.354 335.074C234.107 333.92 234.037 332.704 234.148 331.508Z" stroke="#263238" stroke-linecap="round" stroke-linejoin="round"/>
<path d="M335.474 250.998C336.05 243.143 336.449 237.744 336.508 236.966C336.726 234.395 337.582 232.022 338.92 230.284C340.258 228.547 341.988 227.56 343.792 227.506C344.634 227.474 345.471 227.705 346.246 228.183C347.02 228.661 347.712 229.374 348.276 230.273C348.84 231.172 349.261 232.237 349.51 233.392C349.76 234.547 349.832 235.767 349.721 236.966C349.425 241.04 343.097 327.422 342.801 331.496C342.583 334.068 341.727 336.442 340.389 338.182C339.051 339.922 337.322 340.911 335.517 340.968C334.674 340.998 333.837 340.765 333.063 340.286C332.289 339.807 331.596 339.092 331.033 338.192C330.469 337.292 330.048 336.227 329.799 335.071C329.549 333.915 329.477 332.695 329.588 331.496C329.757 329.222 332.866 286.748 334.865 259.486" fill="#92E3A9"/>
<mask id="mask1_10_722" style="mask-type:luminance" maskUnits="userSpaceOnUse" x="329" y="227" width="21" height="114">
<path d="M335.474 250.998C336.05 243.143 336.449 237.744 336.508 236.966C336.726 234.395 337.582 232.022 338.92 230.284C340.258 228.547 341.988 227.56 343.792 227.506C344.634 227.474 345.471 227.705 346.246 228.183C347.02 228.661 347.712 229.374 348.276 230.273C348.84 231.172 349.261 232.237 349.51 233.392C349.76 234.547 349.832 235.767 349.721 236.966C349.425 241.04 343.097 327.422 342.801 331.496C342.583 334.068 341.727 336.442 340.389 338.182C339.051 339.922 337.322 340.911 335.517 340.968C334.674 340.998 333.837 340.765 333.063 340.286C332.289 339.807 331.596 339.092 331.033 338.192C330.469 337.292 330.048 336.227 329.799 335.071C329.549 333.915 329.477 332.695 329.588 331.496C329.757 329.222 332.866 286.748 334.865 259.486" fill="white"/>
</mask>
<g mask="url(#mask1_10_722)">
<path opacity="0.3" d="M336.508 236.978C336.726 234.407 337.583 232.034 338.921 230.297C340.259 228.559 341.989 227.572 343.793 227.518C344.635 227.486 345.472 227.718 346.246 228.195C347.02 228.673 347.713 229.386 348.276 230.285C348.84 231.185 349.261 232.249 349.511 233.404C349.76 234.56 349.832 235.779 349.722 236.978C349.425 241.052 343.098 327.434 342.802 331.508C342.584 334.08 341.728 336.454 340.39 338.194C339.052 339.934 337.322 340.923 335.517 340.98C334.675 341.01 333.837 340.777 333.063 340.298C332.289 339.819 331.597 339.105 331.033 338.204C330.47 337.304 330.049 336.239 329.799 335.083C329.55 333.927 329.478 332.708 329.588 331.508C329.825 328.212 336.263 240.286 336.508 236.978Z" fill="white"/>
</g>
<path d="M335.474 250.998C336.05 243.143 336.449 237.744 336.508 236.966C336.726 234.395 337.582 232.022 338.92 230.284C340.258 228.547 341.988 227.56 343.792 227.506C344.634 227.474 345.471 227.705 346.246 228.183C347.02 228.661 347.712 229.374 348.276 230.273C348.84 231.172 349.261 232.237 349.51 233.392C349.76 234.547 349.832 235.767 349.721 236.966C349.425 241.04 343.097 327.422 342.801 331.496C342.583 334.068 341.727 336.442 340.389 338.182C339.051 339.922 337.322 340.911 335.517 340.968C334.674 340.998 333.837 340.765 333.063 340.286C332.289 339.807 331.596 339.092 331.033 338.192C330.469 337.292 330.048 336.227 329.799 335.071C329.549 333.915 329.477 332.695 329.588 331.496C329.757 329.222 332.866 286.748 334.865 259.486" stroke="#263238" stroke-linecap="round" stroke-linejoin="round"/>
<path d="M308.878 270.587H352.82C356.259 270.713 359.527 272.762 361.928 276.297C364.33 279.833 365.673 284.576 365.673 289.514C365.673 294.452 364.33 299.195 361.928 302.731C359.527 306.266 356.259 308.315 352.82 308.441V378.675C352.82 380.088 352.429 381.442 351.733 382.441C351.038 383.44 350.094 384.001 349.11 384.001H299.4C298.417 383.998 297.476 383.435 296.782 382.437C296.088 381.438 295.698 380.085 295.698 378.675V289.508C295.698 284.49 297.087 279.677 299.558 276.129C302.03 272.581 305.382 270.587 308.878 270.587Z" fill="#92E3A9"/>
<mask id="mask2_10_722" style="mask-type:luminance" maskUnits="userSpaceOnUse" x="295" y="270" width="71" height="115">
<path d="M308.878 270.587H352.82C356.259 270.713 359.528 272.762 361.929 276.297C364.33 279.833 365.674 284.576 365.674 289.514C365.674 294.452 364.33 299.195 361.929 302.731C359.528 306.266 356.259 308.315 352.82 308.441V378.675C352.82 380.088 352.43 381.442 351.734 382.441C351.038 383.44 350.094 384.001 349.111 384.001H299.4C298.418 383.998 297.476 383.435 296.782 382.437C296.088 381.438 295.699 380.085 295.699 378.675V289.508C295.699 284.49 297.087 279.677 299.559 276.129C302.03 272.581 305.383 270.587 308.878 270.587Z" fill="white"/>
</mask>
<g mask="url(#mask2_10_722)">
<path opacity="0.6" d="M308.878 270.587H352.82C356.259 270.713 359.528 272.762 361.929 276.297C364.33 279.833 365.674 284.576 365.674 289.514C365.674 294.452 364.33 299.195 361.929 302.731C359.528 306.266 356.259 308.315 352.82 308.441V378.675C352.82 380.088 352.43 381.442 351.734 382.441C351.038 383.44 350.094 384.001 349.111 384.001H299.4C298.418 383.998 297.476 383.435 296.782 382.437C296.088 381.438 295.699 380.085 295.699 378.675V289.508C295.699 284.49 297.087 279.677 299.559 276.129C302.03 272.581 305.383 270.587 308.878 270.587Z" fill="white"/>
</g>
<path d="M308.878 270.587H352.82C356.259 270.713 359.527 272.762 361.928 276.297C364.33 279.833 365.673 284.576 365.673 289.514C365.673 294.452 364.33 299.195 361.928 302.731C359.527 306.266 356.259 308.315 352.82 308.441V378.675C352.82 380.088 352.429 381.442 351.733 382.441C351.038 383.44 350.094 384.001 349.11 384.001H299.4C298.417 383.998 297.476 383.435 296.782 382.437C296.088 381.438 295.698 380.085 295.698 378.675V289.508C295.698 284.49 297.087 279.677 299.558 276.129C302.03 272.581 305.382 270.587 308.878 270.587Z" stroke="#263238" stroke-linecap="round" stroke-linejoin="round"/>
<path d="M224.322 270.587H180.38C176.941 270.713 173.673 272.762 171.272 276.297C168.87 279.833 167.526 284.576 167.526 289.514C167.526 294.452 168.87 299.195 171.272 302.731C173.673 306.266 176.941 308.315 180.38 308.441V378.675C180.38 380.088 180.771 381.442 181.467 382.441C182.162 383.44 183.106 384.001 184.09 384.001H233.8C234.783 383.998 235.724 383.435 236.418 382.437C237.112 381.438 237.502 380.085 237.502 378.675V289.508C237.502 284.49 236.113 279.677 233.641 276.129C231.17 272.581 227.818 270.587 224.322 270.587Z" fill="#92E3A9"/>
<mask id="mask3_10_722" style="mask-type:luminance" maskUnits="userSpaceOnUse" x="167" y="270" width="71" height="115">
<path d="M224.322 270.587H180.38C176.941 270.713 173.673 272.762 171.272 276.297C168.87 279.833 167.526 284.576 167.526 289.514C167.526 294.452 168.87 299.195 171.272 302.731C173.673 306.266 176.941 308.315 180.38 308.441V378.675C180.38 380.088 180.771 381.442 181.467 382.441C182.162 383.44 183.106 384.001 184.09 384.001H233.8C234.783 383.998 235.724 383.435 236.418 382.437C237.112 381.438 237.502 380.085 237.502 378.675V289.508C237.502 284.49 236.113 279.677 233.641 276.129C231.17 272.581 227.818 270.587 224.322 270.587Z" fill="white"/>
</mask>
<g mask="url(#mask3_10_722)">
<path opacity="0.3" d="M224.322 270.587H180.38C176.941 270.713 173.673 272.762 171.272 276.297C168.87 279.833 167.526 284.576 167.526 289.514C167.526 294.452 168.87 299.195 171.272 302.731C173.673 306.266 176.941 308.315 180.38 308.441V378.675C180.38 380.088 180.771 381.442 181.467 382.441C182.162 383.44 183.106 384.001 184.09 384.001H233.8C234.783 383.998 235.724 383.435 236.418 382.437C237.112 381.438 237.502 380.085 237.502 378.675V289.508C237.502 284.49 236.113 279.677 233.641 276.129C231.17 272.581 227.818 270.587 224.322 270.587Z" fill="white"/>
</g>
<path d="M224.322 270.587H180.38C176.941 270.713 173.673 272.762 171.272 276.297C168.87 279.833 167.526 284.576 167.526 289.514C167.526 294.452 168.87 299.195 171.272 302.731C173.673 306.266 176.941 308.315 180.38 308.441V378.675C180.38 380.088 180.771 381.442 181.467 382.441C182.162 383.44 183.106 384.001 184.09 384.001H233.8C234.783 383.998 235.724 383.435 236.418 382.437C237.112 381.438 237.502 380.085 237.502 378.675V289.508C237.502 284.49 236.113 279.677 233.641 276.129C231.17 272.581 227.818 270.587 224.322 270.587Z" stroke="#263238" stroke-linecap="round" stroke-linejoin="round"/>
<path d="M180.38 270.587C176.941 270.713 173.673 272.762 171.272 276.297C168.87 279.833 167.526 284.576 167.526 289.514C167.526 294.452 168.87 299.195 171.272 302.731C173.673 306.266 176.941 308.315 180.38 308.441V378.675C180.38 380.088 180.771 381.442 181.467 382.441C182.162 383.44 183.106 384.001 184.09 384.001H189.858C190.842 384.001 191.785 383.44 192.481 382.441C193.177 381.442 193.568 380.088 193.568 378.675V289.508C193.565 284.489 192.175 279.676 189.702 276.128C187.229 272.58 183.876 270.587 180.38 270.587Z" fill="#92E3A9" stroke="#263238" stroke-linecap="round" stroke-linejoin="round"/>
<path d="M180.38 270.587C176.941 270.713 173.673 272.762 171.272 276.297C168.87 279.833 167.526 284.576 167.526 289.514C167.526 294.452 168.87 299.195 171.272 302.731C173.673 306.266 176.941 308.315 180.38 308.441V378.675C180.38 380.088 180.771 381.442 181.467 382.441C182.162 383.44 183.106 384.001 184.09 384.001H189.858C190.842 384.001 191.785 383.44 192.481 382.441C193.177 381.442 193.568 380.088 193.568 378.675V289.508C193.565 284.489 192.175 279.676 189.702 276.128C187.229 272.58 183.876 270.587 180.38 270.587Z" fill="#92E3A9"/>
<mask id="mask4_10_722" style="mask-type:luminance" maskUnits="userSpaceOnUse" x="167" y="270" width="27" height="115">
<path d="M180.38 270.587C176.941 270.713 173.673 272.762 171.272 276.297C168.87 279.833 167.526 284.576 167.526 289.514C167.526 294.452 168.87 299.195 171.272 302.731C173.673 306.266 176.941 308.315 180.38 308.441V378.675C180.38 380.088 180.771 381.442 181.467 382.441C182.162 383.44 183.106 384.001 184.09 384.001H189.858C190.842 384.001 191.785 383.44 192.481 382.441C193.177 381.442 193.568 380.088 193.568 378.675V289.508C193.565 284.489 192.175 279.676 189.702 276.128C187.229 272.58 183.876 270.587 180.38 270.587Z" fill="white"/>
</mask>
<g mask="url(#mask4_10_722)">
<path opacity="0.6" d="M180.38 270.587C176.941 270.713 173.673 272.762 171.272 276.297C168.87 279.833 167.526 284.576 167.526 289.514C167.526 294.452 168.87 299.195 171.272 302.731C173.673 306.266 176.941 308.315 180.38 308.441V378.675C180.38 380.088 180.771 381.442 181.467 382.441C182.162 383.44 183.106 384.001 184.09 384.001H189.858C190.842 384.001 191.785 383.44 192.481 382.441C193.177 381.442 193.568 380.088 193.568 378.675V289.508C193.565 284.489 192.175 279.676 189.702 276.128C187.229 272.58 183.876 270.587 180.38 270.587Z" fill="white"/>
</g>
<path d="M180.38 270.587C176.941 270.713 173.673 272.762 171.272 276.297C168.87 279.833 167.526 284.576 167.526 289.514C167.526 294.452 168.87 299.195 171.272 302.731C173.673 306.266 176.941 308.315 180.38 308.441V378.675C180.38 380.088 180.771 381.442 181.467 382.441C182.162 383.44 183.106 384.001 184.09 384.001H189.858C190.842 384.001 191.785 383.44 192.481 382.441C193.177 381.442 193.568 380.088 193.568 378.675V289.508C193.565 284.489 192.175 279.676 189.702 276.128C187.229 272.58 183.876 270.587 180.38 270.587Z" stroke="#263238" stroke-linecap="round" stroke-linejoin="round"/>
<path d="M201.75 354.647V375.549C201.75 377.807 202.375 379.972 203.486 381.568C204.598 383.164 206.106 384.061 207.679 384.061H289.838C291.41 384.061 292.918 383.164 294.03 381.568C295.142 379.972 295.767 377.807 295.767 375.549V339.07C295.768 338.208 295.677 337.351 295.496 336.529C295.673 335.806 295.764 335.046 295.767 334.279V326.984C295.767 326.099 295.645 325.223 295.41 324.406C295.174 323.588 294.828 322.846 294.392 322.22C293.957 321.595 293.439 321.098 292.87 320.76C292.301 320.421 291.691 320.247 291.074 320.247H198.252C197.009 320.25 195.817 320.961 194.939 322.224C194.061 323.487 193.568 325.199 193.568 326.984V334.279C193.568 336.064 194.061 337.775 194.939 339.038C195.817 340.301 197.009 341.013 198.252 341.016H201.75V347.995" fill="#92E3A9"/>
<mask id="mask5_10_722" style="mask-type:luminance" maskUnits="userSpaceOnUse" x="193" y="320" width="103" height="65">
<path d="M201.75 354.647V375.549C201.75 377.807 202.375 379.972 203.486 381.568C204.598 383.164 206.106 384.061 207.679 384.061H289.838C291.41 384.061 292.918 383.164 294.03 381.568C295.142 379.972 295.767 377.807 295.767 375.549V339.07C295.768 338.208 295.677 337.351 295.496 336.529C295.673 335.806 295.764 335.046 295.767 334.279V326.984C295.767 326.099 295.645 325.223 295.41 324.406C295.174 323.588 294.828 322.846 294.392 322.22C293.957 321.595 293.439 321.098 292.87 320.76C292.301 320.421 291.691 320.247 291.074 320.247H198.252C197.009 320.25 195.817 320.961 194.939 322.224C194.061 323.487 193.568 325.199 193.568 326.984V334.279C193.568 336.064 194.061 337.775 194.939 339.038C195.817 340.301 197.009 341.013 198.252 341.016H201.75V347.995" fill="white"/>
</mask>
<g mask="url(#mask5_10_722)">
<path opacity="0.3" d="M295.699 326.887C295.699 325.1 295.205 323.387 294.325 322.123C293.445 320.86 292.251 320.15 291.007 320.15H198.252C197.009 320.154 195.817 320.865 194.939 322.128C194.061 323.391 193.568 325.102 193.568 326.887V334.183C193.568 335.967 194.061 337.679 194.939 338.942C195.817 340.205 197.009 340.916 198.252 340.919H201.75V375.489C201.75 377.747 202.375 379.912 203.486 381.508C204.598 383.104 206.106 384.001 207.679 384.001H289.838C291.41 384.001 292.918 383.104 294.03 381.508C295.142 379.912 295.767 377.747 295.767 375.489V339.01C295.768 338.148 295.677 337.291 295.496 336.469C295.673 335.746 295.764 334.985 295.767 334.219L295.699 326.887Z" fill="white"/>
</g>
<path d="M201.75 354.647V375.549C201.75 377.807 202.375 379.972 203.486 381.568C204.598 383.164 206.106 384.061 207.679 384.061H289.838C291.41 384.061 292.918 383.164 294.03 381.568C295.142 379.972 295.767 377.807 295.767 375.549V339.07C295.768 338.208 295.677 337.351 295.496 336.529C295.673 335.806 295.764 335.046 295.767 334.279V326.984C295.767 326.099 295.645 325.223 295.41 324.406C295.174 323.588 294.828 322.846 294.392 322.22C293.957 321.595 293.439 321.098 292.87 320.76C292.301 320.421 291.691 320.247 291.074 320.247H198.252C197.009 320.25 195.817 320.961 194.939 322.224C194.061 323.487 193.568 325.199 193.568 326.984V334.279C193.568 336.064 194.061 337.775 194.939 339.038C195.817 340.301 197.009 341.013 198.252 341.016H201.75V347.995" stroke="#263238" stroke-linecap="round" stroke-linejoin="round"/>
<path d="M354.803 289.508H366C366 294.527 364.612 299.341 362.14 302.891C359.669 306.442 356.317 308.438 352.821 308.441H308.878C312.376 308.441 315.73 306.446 318.204 302.896C320.677 299.345 322.066 294.53 322.066 289.508H349.721" fill="#92E3A9"/>
<mask id="mask6_10_722" style="mask-type:luminance" maskUnits="userSpaceOnUse" x="308" y="289" width="58" height="20">
<path d="M354.803 289.508H366C366 294.527 364.612 299.341 362.14 302.891C359.669 306.442 356.317 308.438 352.821 308.441H308.878C312.376 308.441 315.73 306.446 318.204 302.896C320.677 299.345 322.066 294.53 322.066 289.508H349.721" fill="white"/>
</mask>
<g mask="url(#mask6_10_722)">
<g opacity="0.3">
<path d="M322.066 289.508H366C366 294.527 364.612 299.341 362.14 302.891C359.669 306.442 356.317 308.438 352.821 308.441H308.878C312.376 308.441 315.73 306.446 318.204 302.896C320.677 299.345 322.066 294.53 322.066 289.508Z" fill="white"/>
</g>
</g>
<path d="M354.803 289.508H366C366 294.527 364.612 299.341 362.14 302.891C359.669 306.442 356.317 308.438 352.821 308.441H308.878C312.376 308.441 315.73 306.446 318.204 302.896C320.677 299.345 322.066 294.53 322.066 289.508H349.721" stroke="#263238" stroke-linecap="round" stroke-linejoin="round"/>
<path d="M99.7378 26.0435H81.2986C77.9044 26.0435 74.6491 27.9792 72.249 31.4249C69.8489 34.8705 68.5005 39.5439 68.5005 44.4168V337.198C68.5005 342.071 69.8489 346.744 72.249 350.19C74.6491 353.636 77.9044 355.571 81.2986 355.571H99.7378V26.0435Z" fill="#999999" stroke="#263238" stroke-linecap="round" stroke-linejoin="round"/>
<path d="M71.9131 75.6187H69.5415C68.2317 75.6187 67.1699 77.143 67.1699 79.0234V100.583C67.1699 102.463 68.2317 103.987 69.5415 103.987H71.9131C73.2229 103.987 74.2847 102.463 74.2847 100.583V79.0234C74.2847 77.143 73.2229 75.6187 71.9131 75.6187Z" fill="#263238" stroke="#263238" stroke-linecap="round" stroke-linejoin="round"/>
<path d="M71.9131 79.0234C71.9131 78.1204 71.6633 77.2544 71.2185 76.6159C70.7737 75.9774 70.1705 75.6187 69.5415 75.6187C68.9125 75.6187 68.3093 75.9774 67.8645 76.6159C67.4198 77.2544 67.1699 78.1204 67.1699 79.0234V100.583C67.1699 101.486 67.4198 102.351 67.8645 102.99C68.3093 103.629 68.9125 103.987 69.5415 103.987C70.1705 103.987 70.7737 103.629 71.2185 102.99C71.6633 102.351 71.9131 101.486 71.9131 100.583V79.0234Z" fill="#92E3A9" stroke="#263238" stroke-linecap="round" stroke-linejoin="round"/>
<path d="M71.9131 110.797H69.5415C68.2317 110.797 67.1699 112.321 67.1699 114.202V120.196C67.1699 122.077 68.2317 123.601 69.5415 123.601H71.9131C73.2229 123.601 74.2847 122.077 74.2847 120.196V114.202C74.2847 112.321 73.2229 110.797 71.9131 110.797Z" fill="#263238" stroke="#263238" stroke-linecap="round" stroke-linejoin="round"/>
<path d="M71.9131 114.202C71.9131 113.299 71.6633 112.433 71.2185 111.794C70.7737 111.156 70.1705 110.797 69.5415 110.797C68.9125 110.797 68.3093 111.156 67.8645 111.794C67.4198 112.433 67.1699 113.299 67.1699 114.202V120.196C67.1699 121.099 67.4198 121.965 67.8645 122.604C68.3093 123.242 68.9125 123.601 69.5415 123.601C70.1705 123.601 70.7737 123.242 71.2185 122.604C71.6633 121.965 71.9131 121.099 71.9131 120.196V114.202Z" fill="#92E3A9" stroke="#263238" stroke-linecap="round" stroke-linejoin="round"/>
<path d="M175.129 26.0435H89.7682C82.7 26.0435 76.9701 34.2695 76.9701 44.4168V337.198C76.9701 347.345 82.7 355.571 89.7682 355.571H175.129C182.197 355.571 187.927 347.345 187.927 337.198V44.4168C187.927 34.2695 182.197 26.0435 175.129 26.0435Z" fill="#92E3A9"/>
<mask id="mask7_10_722" style="mask-type:luminance" maskUnits="userSpaceOnUse" x="76" y="26" width="112" height="330">
<path d="M175.129 26.0435H89.7682C82.7 26.0435 76.9701 34.2695 76.9701 44.4168V337.198C76.9701 347.345 82.7 355.571 89.7682 355.571H175.129C182.197 355.571 187.927 347.345 187.927 337.198V44.4168C187.927 34.2695 182.197 26.0435 175.129 26.0435Z" fill="white"/>
</mask>
<g mask="url(#mask7_10_722)">
<path opacity="0.5" d="M175.129 26.0435H89.7681C82.6999 26.0435 76.97 34.2695 76.97 44.4168V337.198C76.97 347.345 82.6999 355.571 89.7681 355.571H175.129C182.197 355.571 187.927 347.345 187.927 337.198V44.4168C187.927 34.2695 182.197 26.0435 175.129 26.0435Z" fill="white"/>
<path opacity="0.3" d="M61.2247 338.548H16.2406L168.794 36.9873H213.778L61.2247 338.548Z" fill="white"/>
<path opacity="0.3" d="M79.9935 338.548H70.0497L222.611 36.9873H232.555L79.9935 338.548Z" fill="white"/>
</g>
<path d="M175.129 26.0435H89.7682C82.7 26.0435 76.9701 34.2695 76.9701 44.4168V337.198C76.9701 347.345 82.7 355.571 89.7682 355.571H175.129C182.197 355.571 187.927 347.345 187.927 337.198V44.4168C187.927 34.2695 182.197 26.0435 175.129 26.0435Z" stroke="#263238" stroke-linecap="round" stroke-linejoin="round"/>
<path d="M175.12 26.0435H89.7682C86.374 26.0435 83.1187 27.9792 80.7186 31.4249C78.3185 34.8705 76.9701 39.5439 76.9701 44.4168V47.9309H187.927V44.4168C187.925 39.5427 186.575 34.8695 184.173 31.4241C181.772 27.9788 178.515 26.0435 175.12 26.0435Z" fill="#263238" stroke="#263238" stroke-linecap="round" stroke-linejoin="round"/>
<path d="M135.548 40.0509C135.849 40.1056 136.154 40.0678 136.443 39.9401C136.733 39.8123 137 39.5975 137.228 39.31C137.455 39.0224 137.637 38.6687 137.762 38.2723C137.886 37.8759 137.951 37.446 137.951 37.011C137.951 36.5761 137.886 36.1461 137.762 35.7498C137.637 35.3534 137.455 34.9996 137.228 34.7121C137 34.4245 136.733 34.2097 136.443 34.082C136.154 33.9542 135.849 33.9164 135.548 33.9711H121.996C121.696 33.9164 121.39 33.9542 121.101 34.082C120.811 34.2097 120.544 34.4245 120.316 34.7121C120.089 34.9996 119.907 35.3534 119.782 35.7498C119.658 36.1461 119.593 36.5761 119.593 37.011C119.593 37.446 119.658 37.8759 119.782 38.2723C119.907 38.6687 120.089 39.0224 120.316 39.31C120.544 39.5975 120.811 39.8123 121.101 39.9401C121.39 40.0678 121.696 40.1056 121.996 40.0509H135.548Z" fill="#999999" stroke="#263238" stroke-linecap="round" stroke-linejoin="round"/>
<path d="M142.867 40.0518C144.045 40.0518 145.001 38.6799 145.001 36.9876C145.001 35.2952 144.045 33.9233 142.867 33.9233C141.688 33.9233 140.732 35.2952 140.732 36.9876C140.732 38.6799 141.688 40.0518 142.867 40.0518Z" fill="#999999" stroke="#263238" stroke-linecap="round" stroke-linejoin="round"/>
<path d="M76.9701 325.173V337.199C76.9701 342.072 78.3185 346.745 80.7186 350.191C83.1187 353.637 86.374 355.573 89.7682 355.573H175.12C178.515 355.573 181.772 353.637 184.173 350.192C186.575 346.747 187.925 342.073 187.927 337.199V325.173H76.9701Z" fill="#263238" stroke="#263238" stroke-linecap="round" stroke-linejoin="round"/>
<path d="M132.448 349.553C135.98 349.553 138.843 345.442 138.843 340.372C138.843 335.302 135.98 331.191 132.448 331.191C128.917 331.191 126.053 335.302 126.053 340.372C126.053 345.442 128.917 349.553 132.448 349.553Z" fill="#999999" stroke="#263238" stroke-linecap="round" stroke-linejoin="round"/>
<path d="M130.755 149.416C147.296 149.416 160.705 130.166 160.705 106.42C160.705 82.6731 147.296 63.4229 130.755 63.4229C114.214 63.4229 100.805 82.6731 100.805 106.42C100.805 130.166 114.214 149.416 130.755 149.416Z" fill="#999999"/>
<path d="M132.449 146.984C148.99 146.984 162.399 127.734 162.399 103.987C162.399 80.241 148.99 60.9907 132.449 60.9907C115.908 60.9907 102.499 80.241 102.499 103.987C102.499 127.734 115.908 146.984 132.449 146.984Z" fill="white"/>
<mask id="mask8_10_722" style="mask-type:luminance" maskUnits="userSpaceOnUse" x="102" y="60" width="61" height="87">
<path d="M132.449 146.984C148.99 146.984 162.399 127.734 162.399 103.987C162.399 80.241 148.99 60.9907 132.449 60.9907C115.908 60.9907 102.499 80.241 102.499 103.987C102.499 127.734 115.908 146.984 132.449 146.984Z" fill="white"/>
</mask>
<g mask="url(#mask8_10_722)">
<path d="M113.077 152.76L112.577 147.094C111.968 140.224 123.461 131.615 123.461 131.615L134.87 134.107L140.969 127.955C153.149 131.602 151.395 135.104 151.683 139.968C151.844 142.644 152.183 145.635 152.183 145.635L113.077 152.76Z" fill="#92E3A9" stroke="#263238" stroke-linecap="round" stroke-linejoin="round"/>
<path d="M126.663 108.244C126.663 108.244 129.204 116.464 125.274 129.876L134.854 133.755L138.725 127.42L136.446 112.755L126.663 108.244Z" fill="white"/>
<mask id="mask9_10_722" style="mask-type:luminance" maskUnits="userSpaceOnUse" x="125" y="108" width="14" height="26">
<path d="M126.663 108.244C126.663 108.244 129.204 116.464 125.274 129.876L134.854 133.755L138.725 127.42L136.446 112.755L126.663 108.244Z" fill="white"/>
</mask>
<g mask="url(#mask9_10_722)">
<path d="M126.257 109.581C126.257 109.581 129.094 124.708 138.962 124.173C148.829 123.638 129.45 106.541 129.45 106.541L127.061 106.298L126.257 109.581Z" fill="#263238"/>
</g>
<path d="M126.663 108.244C126.663 108.244 129.204 116.464 125.274 129.876L134.854 133.755L138.725 127.42L136.446 112.755L126.663 108.244Z" stroke="#263238" stroke-linecap="round" stroke-linejoin="round"/>
<path d="M126.663 108.243C126.663 108.243 122.657 107.66 121.158 89.8212C119.938 75.3512 126.053 65.6113 134.117 65.7815C142.756 65.976 148.101 80.0691 153.25 80.9325C153.25 80.9325 148.168 84.0454 146.203 82.2093C146.203 82.2093 150.235 87.0731 146.601 89.5051C142.968 91.937 126.663 108.243 126.663 108.243Z" fill="#263238" stroke="#263238" stroke-miterlimit="10"/>
<path d="M146.322 85.8816L147.322 97.2023C147.322 97.2023 149.016 104.887 147.542 110.785C146.068 116.682 144.4 123.333 139.529 121.874C134.659 120.415 130.543 120.221 126.706 108.243L127.756 102.881C127.756 102.881 124.978 102.966 124.512 95.8647C124.046 88.7634 128.857 93.1409 128.857 93.1409C130.17 89.7775 130.848 85.9796 130.822 82.1242C130.754 75.8012 138.818 85.8451 143.578 84.0333L139.995 78.5371C139.995 78.5371 145.238 82.0756 146.322 85.8816Z" fill="white" stroke="#263238" stroke-linecap="round" stroke-linejoin="round"/>
<path d="M141.91 97.4819L144.34 102.285C144.427 102.451 144.485 102.645 144.509 102.849C144.534 103.054 144.524 103.264 144.481 103.462C144.438 103.66 144.363 103.841 144.262 103.989C144.161 104.137 144.037 104.249 143.9 104.316L141.478 105.532" stroke="#263238" stroke-linecap="round" stroke-linejoin="round"/>
<path d="M135.023 109.313C135.023 109.313 137.242 112.195 141.502 110.529" stroke="#263238" stroke-linecap="round" stroke-linejoin="round"/>
<path d="M136.302 96.9592C136.302 98.1752 136.048 99.1844 135.675 99.1966C135.303 99.2088 134.989 98.236 134.964 97.02C134.938 95.804 135.218 94.7948 135.582 94.7705C135.946 94.7461 136.277 95.7311 136.302 96.9592Z" fill="#263238"/>
<path d="M144.476 96.5698C144.476 97.7857 144.222 98.795 143.849 98.8071C143.476 98.8193 143.163 97.8465 143.137 96.6306C143.112 95.4146 143.383 94.4053 143.756 94.3932C144.128 94.381 144.45 95.3538 144.476 96.5698Z" fill="#263238"/>
<path d="M133.49 94.1382C133.49 94.1382 135.099 90.1498 138.665 92.0832" stroke="#263238" stroke-linecap="round" stroke-linejoin="round"/>
<path d="M142.935 91.8889C142.935 91.8889 144.773 89.5542 146.399 93.19" stroke="#263238" stroke-linecap="round" stroke-linejoin="round"/>
<path d="M144.027 76.9082C144.601 77.5922 145.226 78.1834 145.89 78.6711" stroke="#7F7F7F" stroke-linecap="round" stroke-linejoin="round"/>
<path d="M125.723 87.767C125.723 87.767 124.808 74.8655 130.856 70.6096C135.328 67.4603 140.096 72.5795 143.239 76.045" stroke="#7F7F7F" stroke-linecap="round" stroke-linejoin="round"/>
<path d="M133.134 75.3755C134.608 75.3755 136.632 76.713 139.326 81.2729" stroke="#7F7F7F" stroke-linecap="round" stroke-linejoin="round"/>
<path d="M129.984 78.622C130.251 77.7736 130.651 77.0249 131.152 76.4336" stroke="#7F7F7F" stroke-linecap="round" stroke-linejoin="round"/>
<path d="M121.658 132.527L124.581 128.587L134.516 132.649L139.09 125.949L142.283 127.59L139.242 137.075L134.872 134.813L131.712 139.847L121.658 132.527Z" fill="#92E3A9"/>
<mask id="mask10_10_722" style="mask-type:luminance" maskUnits="userSpaceOnUse" x="121" y="125" width="22" height="15">
<path d="M121.658 132.527L124.581 128.587L134.516 132.649L139.09 125.949L142.283 127.59L139.242 137.075L134.872 134.813L131.712 139.847L121.658 132.527Z" fill="white"/>
</mask>
<g mask="url(#mask10_10_722)">
<path opacity="0.5" d="M121.658 132.527L124.581 128.587L134.516 132.649L139.09 125.949L142.283 127.59L139.242 137.075L134.872 134.813L131.712 139.847L121.658 132.527Z" fill="white"/>
</g>
<path d="M121.658 132.527L124.581 128.587L134.516 132.649L139.09 125.949L142.283 127.59L139.242 137.075L134.872 134.813L131.712 139.847L121.658 132.527Z" stroke="#263238" stroke-linecap="round" stroke-linejoin="round"/>
</g>
<path d="M132.449 146.984C148.99 146.984 162.399 127.734 162.399 103.987C162.399 80.241 148.99 60.9907 132.449 60.9907C115.908 60.9907 102.499 80.241 102.499 103.987C102.499 127.734 115.908 146.984 132.449 146.984Z" stroke="#263238" stroke-linecap="round" stroke-linejoin="round"/>
<path d="M153.911 123.601H144.272C141.661 123.601 139.545 126.638 139.545 130.386V144.223C139.545 147.971 141.661 151.009 144.272 151.009H153.911C156.521 151.009 158.637 147.971 158.637 144.223V130.386C158.637 126.638 156.521 123.601 153.911 123.601Z" fill="#92E3A9" stroke="#263238" stroke-linecap="round" stroke-linejoin="round"/>
<path d="M151.651 131.505C151.517 131.136 151.315 130.828 151.067 130.613C150.819 130.399 150.534 130.287 150.245 130.289H147.949C147.66 130.287 147.375 130.399 147.127 130.613C146.879 130.828 146.677 131.136 146.543 131.505" stroke="#263238" stroke-linecap="round" stroke-linejoin="round"/>
<path d="M145.027 132.186C144.611 132.186 144.213 132.423 143.919 132.845C143.625 133.267 143.46 133.839 143.46 134.436V142.108C143.46 142.705 143.625 143.277 143.919 143.699C144.213 144.121 144.611 144.358 145.027 144.358H153.158C153.364 144.36 153.569 144.303 153.76 144.19C153.951 144.078 154.125 143.912 154.271 143.703C154.418 143.494 154.534 143.246 154.613 142.972C154.692 142.698 154.733 142.405 154.733 142.108V134.436C154.733 134.139 154.692 133.846 154.613 133.572C154.534 133.298 154.418 133.05 154.271 132.841C154.125 132.632 153.951 132.466 153.76 132.354C153.569 132.241 153.364 132.184 153.158 132.186" stroke="#263238" stroke-linecap="round" stroke-linejoin="round"/>
<path d="M149.092 135.105C148.654 135.105 148.227 135.291 147.863 135.64C147.499 135.99 147.216 136.486 147.049 137.067C146.882 137.647 146.838 138.286 146.924 138.902C147.01 139.518 147.222 140.083 147.532 140.527C147.842 140.97 148.237 141.271 148.666 141.392C149.095 141.514 149.54 141.449 149.944 141.207C150.348 140.965 150.692 140.556 150.934 140.033C151.176 139.509 151.304 138.894 151.303 138.266C151.304 137.849 151.247 137.437 151.137 137.052C151.026 136.666 150.863 136.317 150.657 136.023C150.452 135.729 150.207 135.496 149.939 135.338C149.67 135.181 149.382 135.101 149.092 135.105Z" stroke="#263238" stroke-linecap="round" stroke-linejoin="round"/>
<path d="M169.607 288.159H93.5968C89.4429 288.159 86.0754 292.993 86.0754 298.957V308.976C86.0754 314.94 89.4429 319.774 93.5968 319.774H169.607C173.76 319.774 177.128 314.94 177.128 308.976V298.957C177.128 292.993 173.76 288.159 169.607 288.159Z" fill="#999999"/>
<path d="M170.454 284.511H94.4441C90.2902 284.511 86.9227 289.346 86.9227 295.309V305.329C86.9227 311.292 90.2902 316.126 94.4441 316.126H170.454C174.608 316.126 177.975 311.292 177.975 305.329V295.309C177.975 289.346 174.608 284.511 170.454 284.511Z" fill="#92E3A9" stroke="#263238" stroke-linecap="round" stroke-linejoin="round"/>
<path d="M96.4599 296.706C96.4582 296.043 96.5936 295.395 96.8489 294.843C97.1042 294.292 97.4679 293.861 97.8938 293.607C98.3198 293.352 98.7888 293.285 99.2415 293.413C99.6941 293.542 100.11 293.861 100.436 294.329C100.762 294.798 100.984 295.394 101.074 296.044C101.164 296.694 101.117 297.367 100.939 297.979C100.762 298.59 100.462 299.113 100.078 299.479C99.6936 299.846 99.2421 300.04 98.7807 300.038M98.7807 289.24C97.4014 289.24 96.0786 290.026 95.1033 291.426C94.128 292.827 93.5801 294.726 93.5801 296.706C93.5801 299.612 96.1211 305.534 97.6796 308.793C97.8001 309.053 97.9637 309.267 98.1558 309.415C98.348 309.563 98.5626 309.641 98.7807 309.641C98.9987 309.641 99.2134 309.563 99.4055 309.415C99.5976 309.267 99.7612 309.053 99.8818 308.793C101.432 305.534 103.973 299.636 103.973 296.706C103.973 294.728 103.426 292.831 102.453 291.431C101.479 290.031 100.158 289.243 98.7807 289.24Z" stroke="#263238" stroke-linecap="round" stroke-linejoin="round"/>
<path d="M160.306 291.467H117.372C117.062 291.467 116.754 291.555 116.468 291.725C116.181 291.896 115.92 292.145 115.701 292.46C115.481 292.775 115.307 293.149 115.189 293.561C115.07 293.973 115.009 294.414 115.009 294.859C115.009 295.305 115.07 295.746 115.189 296.158C115.307 296.569 115.481 296.943 115.701 297.258C115.92 297.573 116.181 297.823 116.468 297.994C116.754 298.164 117.062 298.252 117.372 298.252H160.306C160.933 298.252 161.534 297.894 161.977 297.258C162.42 296.622 162.669 295.759 162.669 294.859C162.669 293.96 162.42 293.097 161.977 292.46C161.534 291.824 160.933 291.467 160.306 291.467Z" fill="#858585" stroke="#263238" stroke-linecap="round" stroke-linejoin="round"/>
<path d="M147.805 302.374H117.372C116.745 302.374 116.144 302.731 115.701 303.367C115.258 304.003 115.009 304.866 115.009 305.766C115.009 306.666 115.258 307.529 115.701 308.165C116.144 308.801 116.745 309.159 117.372 309.159H147.805C148.431 309.159 149.032 308.801 149.476 308.165C149.919 307.529 150.168 306.666 150.168 305.766C150.168 304.866 149.919 304.003 149.476 303.367C149.032 302.731 148.431 302.374 147.805 302.374Z" fill="#999999" stroke="#263238" stroke-linecap="round" stroke-linejoin="round"/>
<path d="M162.991 302.374H154.293C153.666 302.374 153.065 302.731 152.622 303.367C152.179 304.003 151.93 304.866 151.93 305.766C151.93 306.666 152.179 307.529 152.622 308.165C153.065 308.801 153.666 309.159 154.293 309.159H162.991C163.618 309.159 164.219 308.801 164.662 308.165C165.106 307.529 165.355 306.666 165.355 305.766C165.355 304.866 165.106 304.003 164.662 303.367C164.219 302.731 163.618 302.374 162.991 302.374Z" fill="#999999" stroke="#263238" stroke-linecap="round" stroke-linejoin="round"/>
<path d="M181.465 248.639H105.455C101.301 248.639 97.9336 253.474 97.9336 259.437V269.457C97.9336 275.42 101.301 280.254 105.455 280.254H181.465C185.619 280.254 188.986 275.42 188.986 269.457V259.437C188.986 253.474 185.619 248.639 181.465 248.639Z" fill="#999999"/>
<path d="M182.312 244.991H106.302C102.148 244.991 98.7808 249.826 98.7808 255.789V265.809C98.7808 271.772 102.148 276.606 106.302 276.606H182.312C186.466 276.606 189.833 271.772 189.833 265.809V255.789C189.833 249.826 186.466 244.991 182.312 244.991Z" fill="#92E3A9" stroke="#263238" stroke-linecap="round" stroke-linejoin="round"/>
<path d="M106.125 264.205V265.773C106.125 265.893 106.149 266.011 106.192 266.113C106.235 266.216 106.297 266.3 106.37 266.357L110.419 269.506C110.486 269.561 110.562 269.589 110.639 269.589C110.716 269.589 110.792 269.561 110.859 269.506L114.917 266.357C114.99 266.3 115.052 266.216 115.095 266.113C115.138 266.011 115.162 265.893 115.162 265.773V264.205" stroke="#263238" stroke-linecap="round" stroke-linejoin="round"/>
<path d="M117.177 266.808V259.949L118.338 259.05C118.419 258.996 118.487 258.911 118.536 258.803C118.584 258.695 118.609 258.57 118.609 258.442C118.609 258.314 118.584 258.188 118.536 258.08C118.487 257.973 118.419 257.887 118.338 257.834L110.859 252.021C110.791 251.967 110.715 251.938 110.638 251.938C110.561 251.938 110.485 251.967 110.418 252.021L102.948 257.834C102.866 257.887 102.798 257.973 102.75 258.08C102.701 258.188 102.676 258.314 102.676 258.442C102.676 258.57 102.701 258.695 102.75 258.803C102.798 258.911 102.866 258.996 102.948 259.05L110.418 264.85C110.485 264.904 110.561 264.933 110.638 264.933C110.715 264.933 110.791 264.904 110.859 264.85L115.161 261.518" stroke="#263238" stroke-linecap="round" stroke-linejoin="round"/>
<path d="M172.165 251.948H129.231C128.604 251.948 128.003 252.306 127.56 252.942C127.116 253.578 126.867 254.441 126.867 255.341C126.867 256.241 127.116 257.103 127.56 257.74C128.003 258.376 128.604 258.733 129.231 258.733H172.165C172.792 258.733 173.393 258.376 173.836 257.74C174.279 257.103 174.528 256.241 174.528 255.341C174.528 254.441 174.279 253.578 173.836 252.942C173.393 252.306 172.792 251.948 172.165 251.948Z" fill="#858585" stroke="#263238" stroke-linecap="round" stroke-linejoin="round"/>
<path d="M152.04 262.855H129.231C128.604 262.855 128.003 263.212 127.56 263.849C127.116 264.485 126.867 265.348 126.867 266.248C126.867 267.147 127.116 268.01 127.56 268.646C128.003 269.283 128.604 269.64 129.231 269.64H152.04C152.667 269.64 153.268 269.283 153.711 268.646C154.154 268.01 154.403 267.147 154.403 266.248C154.403 265.348 154.154 264.485 153.711 263.849C153.268 263.212 152.667 262.855 152.04 262.855Z" fill="#999999" stroke="#263238" stroke-linecap="round" stroke-linejoin="round"/>
<path d="M167.421 262.855H158.722C158.096 262.855 157.495 263.212 157.052 263.849C156.608 264.485 156.359 265.348 156.359 266.248C156.359 267.147 156.608 268.01 157.052 268.646C157.495 269.283 158.096 269.64 158.722 269.64H167.421C168.048 269.64 168.649 269.283 169.092 268.646C169.535 268.01 169.784 267.147 169.784 266.248C169.784 265.348 169.535 264.485 169.092 263.849C168.649 263.212 168.048 262.855 167.421 262.855Z" fill="#999999" stroke="#263238" stroke-linecap="round" stroke-linejoin="round"/>
<path d="M158.595 209.121H82.5856C78.4316 209.121 75.0642 213.955 75.0642 219.918V229.938C75.0642 235.901 78.4316 240.736 82.5856 240.736H158.595C162.749 240.736 166.117 235.901 166.117 229.938V219.918C166.117 213.955 162.749 209.121 158.595 209.121Z" fill="#999999"/>
<path d="M159.443 205.472H83.4329C79.2789 205.472 75.9115 210.307 75.9115 216.27V226.29C75.9115 232.253 79.2789 237.087 83.4329 237.087H159.443C163.597 237.087 166.964 232.253 166.964 226.29V216.27C166.964 210.307 163.597 205.472 159.443 205.472Z" fill="#92E3A9" stroke="#263238" stroke-linecap="round" stroke-linejoin="round"/>
<path d="M88.1245 222.605H87.413C86.9453 222.605 86.566 223.15 86.566 223.821V226.436C86.566 227.107 86.9453 227.652 87.413 227.652H88.1245C88.5923 227.652 88.9715 227.107 88.9715 226.436V223.821C88.9715 223.15 88.5923 222.605 88.1245 222.605Z" stroke="#263238" stroke-linecap="round" stroke-linejoin="round"/>
<path d="M82.0006 226.131C82.0006 227.134 82.2781 228.096 82.7721 228.805C83.2661 229.515 83.9362 229.913 84.6348 229.913H90.911C91.6097 229.913 92.2797 229.515 92.7737 228.805C93.2677 228.096 93.5452 227.134 93.5452 226.131" stroke="#263238" stroke-linecap="round" stroke-linejoin="round"/>
<path d="M83.5929 214.92H82.7459C82.3827 214.923 82.035 215.132 81.7781 215.5C81.5213 215.869 81.376 216.368 81.3738 216.89V220.817C81.3727 221.325 81.4413 221.827 81.5757 222.296C81.7102 222.765 81.9078 223.192 82.1572 223.551C82.4066 223.91 82.703 224.195 83.0293 224.39C83.3556 224.584 83.7055 224.684 84.0588 224.684H84.9058M90.6738 224.684H91.4785C92.1928 224.684 92.8779 224.277 93.3831 223.552C93.8882 222.826 94.1719 221.843 94.1719 220.817V216.951C94.1697 216.429 94.0245 215.93 93.7676 215.561C93.5108 215.193 93.163 214.984 92.7998 214.981H91.9528M85.5495 214.981V214.519C85.5517 214.027 85.6893 213.557 85.932 213.211C86.1748 212.865 86.5032 212.67 86.8454 212.67H88.7257C89.0636 212.68 89.3854 212.878 89.6228 213.224C89.8601 213.569 89.9941 214.034 89.9962 214.519V214.956" stroke="#263238" stroke-linecap="round" stroke-linejoin="round"/>
<path d="M149.295 212.427H106.361C105.734 212.427 105.133 212.784 104.69 213.42C104.247 214.057 103.998 214.92 103.998 215.819C103.998 216.719 104.247 217.582 104.69 218.218C105.133 218.854 105.734 219.212 106.361 219.212H149.295C149.922 219.212 150.523 218.854 150.966 218.218C151.409 217.582 151.658 216.719 151.658 215.819C151.658 214.92 151.409 214.057 150.966 213.42C150.523 212.784 149.922 212.427 149.295 212.427Z" fill="#858585" stroke="#263238" stroke-linecap="round" stroke-linejoin="round"/>
<path d="M141.875 223.335H106.361C105.734 223.335 105.133 223.693 104.69 224.329C104.247 224.965 103.998 225.828 103.998 226.728C103.998 227.628 104.247 228.491 104.69 229.127C105.133 229.763 105.734 230.121 106.361 230.121H141.875C142.502 230.121 143.103 229.763 143.546 229.127C143.99 228.491 144.238 227.628 144.238 226.728C144.238 225.828 143.99 224.965 143.546 224.329C143.103 223.693 142.502 223.335 141.875 223.335Z" fill="#999999" stroke="#263238" stroke-linecap="round" stroke-linejoin="round"/>
<path d="M243.855 386.604L243.584 396.647C243.584 396.647 235.673 404.223 232.217 405.864C230.523 406.667 225.924 407.518 225.924 410.522C225.924 413.525 231.853 413.963 235.063 413.963C236.757 413.963 241.06 413.732 246.396 413.647C251.207 413.574 255.467 412.625 255.467 409.318C255.377 404.843 254.503 400.473 252.926 396.611L253.934 386.604H243.855Z" fill="white" stroke="#263238" stroke-linecap="round" stroke-linejoin="round"/>
<path d="M244.804 212.67C244.804 212.67 243.576 240.151 243.83 259.655C244.024 275.268 241.873 320.867 241.873 320.867L242.72 389.752L254.519 390.968C254.519 390.968 260.829 354.148 259.44 321.658C259.44 321.658 264.132 276.253 265.538 261.662C265.538 261.662 275.042 243.811 274.66 212.366L244.804 212.67Z" fill="#263238"/>
<path d="M250.216 237.623C251.903 242.847 254.467 247.389 257.678 250.84" stroke="#7F7F7F" stroke-linecap="round" stroke-linejoin="round"/>
<path d="M225.942 410.509C225.942 413.512 231.871 413.962 235.081 413.962C236.775 413.962 241.078 413.731 246.414 413.646C251.225 413.573 255.485 412.625 255.485 409.317C255.395 404.842 254.521 400.472 252.944 396.61C250.674 397.826 249.819 402.265 249.819 402.265C249.819 402.265 243.788 403.627 245.372 400.574C246.956 397.522 243.568 396.647 243.568 396.647C243.568 396.647 235.657 404.222 232.201 405.864C230.541 406.642 225.942 407.518 225.942 410.509Z" fill="#92E3A9" stroke="#263238" stroke-linecap="round" stroke-linejoin="round"/>
<path d="M241.873 385.618L242.11 391.394L255.078 392.986L256.187 387.174L241.873 385.618Z" fill="#999999" stroke="#263238" stroke-linecap="round" stroke-linejoin="round"/>
<path d="M250.453 317.512C252.16 319.411 254.107 320.819 256.187 321.658C262.209 324.09 250.402 324.698 249.953 328.042" stroke="#7F7F7F" stroke-linecap="round" stroke-linejoin="round"/>
<path d="M247.523 313.147C247.924 313.99 248.381 314.775 248.886 315.493" stroke="#7F7F7F" stroke-linecap="round" stroke-linejoin="round"/>
<path d="M221.883 184.971L215.014 191.756C213.921 190.527 212.574 189.851 211.186 189.835C209.127 189.981 207.12 191.537 205.739 191.756C204.156 191.987 199.438 190.723 199.438 192.826C199.438 195.915 207.501 194.772 207.755 196.219C208.009 197.666 202.402 199.709 202.402 199.709L201.716 201.618L212.88 203.138C212.88 203.138 217.809 203.892 220.138 199.101L229.032 191.805L223.679 182.819L221.883 184.971Z" fill="white" stroke="#263238" stroke-linecap="round" stroke-linejoin="round"/>
<path d="M244.694 119.672C242.026 130.871 239.248 164.943 239.248 164.943L220.012 184.861L225.941 195.5C225.941 195.5 245.066 181.76 248.116 178.379C251.165 174.999 254.773 138.897 256.662 131.686C258.551 124.475 257.424 116.815 252.588 113.957C247.751 111.1 245.422 116.681 244.694 119.672Z" fill="#92E3A9" stroke="#263238" stroke-linecap="round" stroke-linejoin="round"/>
<path d="M218.209 183.657L222.156 178.854L230.101 194.418L225.722 198.224L218.209 183.657Z" fill="#92E3A9"/>
<mask id="mask11_10_722" style="mask-type:luminance" maskUnits="userSpaceOnUse" x="218" y="178" width="13" height="21">
<path d="M218.208 183.657L222.155 178.854L230.1 194.418L225.721 198.224L218.208 183.657Z" fill="white"/>
</mask>
<g mask="url(#mask11_10_722)">
<path opacity="0.5" d="M218.208 183.657L222.155 178.854L230.1 194.418L225.721 198.224L218.208 183.657Z" fill="white"/>
</g>
<path d="M218.209 183.657L222.156 178.854L230.101 194.418L225.722 198.224L218.209 183.657Z" stroke="#263238" stroke-linecap="round" stroke-linejoin="round"/>
<path d="M257.492 102.09L273.847 98.9043L260.617 111.088L258.203 111.648L257.492 102.09Z" fill="#92E3A9" stroke="#263238" stroke-linecap="round" stroke-linejoin="round"/>
<path d="M257.788 97.6277C257.788 97.6277 252.105 100.655 250.843 94.9768C250.076 91.5244 249.648 87.9351 249.572 84.3128L247.48 82.6347C247.355 82.5363 247.246 82.4013 247.159 82.2386C247.072 82.0759 247.01 81.8889 246.977 81.6898C246.943 81.4906 246.939 81.2836 246.964 81.0819C246.99 80.8803 247.044 80.6886 247.125 80.519L250.419 73.5271C250.419 73.5271 249.462 68.4687 249.996 65.8179C250.529 63.1671 253.079 54.9471 253.079 54.9471C253.079 54.9471 265.53 41.1215 271.899 55.8591C278.269 70.5966 269.866 90.2224 269.866 90.2224L271.899 104.656L259.872 113.168L257.788 97.6277Z" fill="white"/>
<mask id="mask12_10_722" style="mask-type:luminance" maskUnits="userSpaceOnUse" x="246" y="49" width="29" height="65">
<path d="M257.788 97.6277C257.788 97.6277 252.105 100.655 250.843 94.9768C250.076 91.5244 249.648 87.9351 249.572 84.3128L247.48 82.6347C247.355 82.5363 247.246 82.4013 247.159 82.2386C247.072 82.0759 247.01 81.8889 246.977 81.6898C246.943 81.4906 246.939 81.2836 246.964 81.0819C246.99 80.8803 247.044 80.6886 247.125 80.519L250.419 73.5271C250.419 73.5271 249.462 68.4687 249.996 65.8179C250.529 63.1671 253.079 54.9471 253.079 54.9471C253.079 54.9471 265.53 41.1215 271.899 55.8591C278.269 70.5966 269.866 90.2224 269.866 90.2224L271.899 104.656L259.872 113.168L257.788 97.6277Z" fill="white"/>
</mask>
<g mask="url(#mask12_10_722)">
<path d="M257.788 97.6276C259.75 96.4223 261.568 94.7809 263.175 92.7637C263.239 92.68 263.322 92.6297 263.409 92.621C263.495 92.6123 263.582 92.6455 263.654 92.7155C263.726 92.7855 263.78 92.8881 263.807 93.0071C263.833 93.126 263.832 93.2544 263.802 93.3717C262.627 97.9802 260.536 101.992 257.788 104.911C252.426 110.578 257.788 97.6276 257.788 97.6276Z" fill="#999999"/>
</g>
<path d="M257.788 97.6277C257.788 97.6277 252.105 100.655 250.843 94.9768C250.076 91.5244 249.648 87.9351 249.572 84.3128L247.48 82.6347C247.355 82.5363 247.246 82.4013 247.159 82.2386C247.072 82.0759 247.01 81.8889 246.977 81.6898C246.943 81.4906 246.939 81.2836 246.964 81.0819C246.99 80.8803 247.044 80.6886 247.125 80.519L250.419 73.5271C250.419 73.5271 249.462 68.4687 249.996 65.8179C250.529 63.1671 253.079 54.9471 253.079 54.9471C253.079 54.9471 265.53 41.1215 271.899 55.8591C278.269 70.5966 269.866 90.2224 269.866 90.2224L271.899 104.656L259.872 113.168L257.788 97.6277Z" stroke="#263238" stroke-linecap="round" stroke-linejoin="round"/>
<path d="M251.004 66.6319C251.004 66.6319 253.037 64.0662 255.239 68.3221" stroke="#263238" stroke-linecap="round" stroke-linejoin="round"/>
<path d="M253.045 86.3551C253.045 86.3551 254.535 87.8994 256.848 85.2607" stroke="#263238" stroke-linecap="round" stroke-linejoin="round"/>
<path d="M253.561 71.9943C253.561 72.8453 253.274 73.5262 252.926 73.5262C252.579 73.5262 252.283 72.8453 252.283 71.9943C252.283 71.1432 252.571 70.4624 252.926 70.4624C253.282 70.4624 253.561 71.1554 253.561 71.9943Z" fill="#263238"/>
<path d="M263.591 73.5275C263.591 73.5275 265.505 68.3232 267.953 71.9954C271.748 77.6983 266.124 81.8569 266.124 81.8569C266.712 85.1511 268.025 88.0849 269.867 90.2228C269.867 90.2228 271.417 87.7909 273.145 84.7388C274.873 81.6867 279.574 70.597 276.22 58.1333C276.22 58.1333 276.567 46.6181 264.362 44.3199C252.157 42.0217 250.861 50.7646 246.922 49.8891C246.922 49.8891 249.921 53.7315 252.893 50.9591C252.622 51.9746 252.154 52.8576 251.545 53.504C250.936 54.1503 250.21 54.533 249.455 54.607C249.455 54.607 253.139 59.1304 256.849 57.9509C260.559 56.7715 258.975 65.2103 263.591 73.5275Z" fill="#263238" stroke="#263238" stroke-miterlimit="10"/>
<path d="M273.144 55.7852C273.518 56.8043 273.803 57.8866 273.99 59.007" stroke="#7F7F7F" stroke-linecap="round" stroke-linejoin="round"/>
<path d="M255.865 47.8452C255.865 47.8452 266.876 45.4132 271.865 53.2198" stroke="#7F7F7F" stroke-linecap="round" stroke-linejoin="round"/>
<path d="M256.433 53.6338C255.755 53.7675 255.052 53.962 254.316 54.193" stroke="#7F7F7F" stroke-linecap="round" stroke-linejoin="round"/>
<path d="M271.9 61.3059C271.9 61.3059 268.893 52.6117 259.11 53.2319" stroke="#7F7F7F" stroke-linecap="round" stroke-linejoin="round"/>
<path d="M271.603 83.6934C271.298 84.4593 270.967 85.2374 270.603 86.0277" stroke="#7F7F7F" stroke-linecap="round" stroke-linejoin="round"/>
<path d="M274.329 65.2344C274.908 70.641 274.286 76.1719 272.551 81.042" stroke="#7F7F7F" stroke-linecap="round" stroke-linejoin="round"/>
<path d="M277.786 389.035L278.371 396.647C278.371 396.647 270.46 404.223 267.004 405.864C265.31 406.667 260.702 407.518 260.702 410.521C260.702 413.525 266.631 413.963 269.85 413.963C271.544 413.963 275.838 413.732 281.174 413.647C285.994 413.574 290.245 412.625 290.245 409.318C290.155 404.843 289.281 400.473 287.704 396.611L287.391 387.175L277.786 389.035Z" fill="white" stroke="#263238" stroke-linecap="round" stroke-linejoin="round"/>
<path d="M283.537 402.568C280.996 402.568 280.047 401.498 280.047 401.498C282.165 398.92 278.404 396.634 278.404 396.634C278.404 396.634 270.493 404.209 267.037 405.851C265.343 406.653 260.736 407.504 260.736 410.496C260.736 413.487 266.665 413.949 269.883 413.949C271.577 413.949 275.871 413.718 281.208 413.633C286.027 413.56 290.279 412.612 290.279 409.304C290.189 404.829 289.315 400.459 287.738 396.597C284.884 398.263 286.078 402.568 283.537 402.568Z" fill="#92E3A9" stroke="#263238" stroke-linecap="round" stroke-linejoin="round"/>
<path d="M257.796 212.828H284.053C284.053 212.828 287.204 235.384 286.273 257.819C285.341 280.253 286.671 319.018 286.671 319.018C286.671 319.018 289.906 338.778 288.161 390.943L277.354 392.159C277.354 392.159 269.654 340.626 268.113 320.417C267.198 308.354 265.055 276.642 262.912 264.871C260.668 252.76 258.559 248.176 257.796 212.828Z" fill="#263238"/>
<path d="M284.638 382.445C284.638 383.977 284.706 385.558 284.74 387.175" stroke="#7F7F7F" stroke-linecap="round" stroke-linejoin="round"/>
<path d="M279.369 278.892C279.776 292.705 280.021 310.178 280.784 320.028C281.978 335.386 283.596 342.803 284.51 377.178" stroke="#7F7F7F" stroke-linecap="round" stroke-linejoin="round"/>
<path d="M270.341 229.111C271.574 233.865 273.987 237.797 277.117 240.152C277.117 240.152 277.964 252.312 278.811 265.274C278.946 267.304 279.056 269.688 279.158 272.339" stroke="#7F7F7F" stroke-linecap="round" stroke-linejoin="round"/>
<path d="M268.748 220.1C268.885 222.048 269.148 223.974 269.536 225.852" stroke="#7F7F7F" stroke-linecap="round" stroke-linejoin="round"/>
<path d="M258.051 224.562C258.011 223.314 257.969 222.001 257.924 220.623" stroke="#7F7F7F" stroke-linecap="round" stroke-linejoin="round"/>
<path d="M260.084 250.767C259.056 243.633 258.436 236.39 258.229 229.111" stroke="#7F7F7F" stroke-linecap="round" stroke-linejoin="round"/>
<path d="M263.963 272.374C263.598 269.444 263.243 266.878 262.878 264.896C262.379 262.184 261.887 258.755 261.422 256.566" stroke="#7F7F7F" stroke-linecap="round" stroke-linejoin="round"/>
<path d="M275.508 388.269L276.388 393.923L289.364 392.476L289.788 386.81L275.508 388.269Z" fill="#999999" stroke="#263238" stroke-linecap="round" stroke-linejoin="round"/>
<path d="M285.232 163.205C285.503 138.545 291.44 111.575 291.44 111.575C291.44 111.575 285.799 102.54 274.043 100.911L260.94 112.171L258.187 111.648L257.086 104.048C249.573 108.243 244.686 115.709 244.067 123.284C243.136 134.581 245.482 168.616 244.635 190.552C244.127 203.624 243.517 217.303 243.517 217.303L254.07 220.586L255.968 216.866L259.119 220.586L286.714 216.562C286.714 216.562 284.977 187.865 285.232 163.205Z" fill="#92E3A9" stroke="#263238" stroke-linecap="round" stroke-linejoin="round"/>
<path d="M257.797 101.458L259.389 110.359L273.873 98.2847L277.396 100.923L266.08 116.719L259.22 111.976L254.358 115.71L254.883 104.109L257.797 101.458Z" fill="#92E3A9"/>
<mask id="mask13_10_722" style="mask-type:luminance" maskUnits="userSpaceOnUse" x="254" y="98" width="24" height="19">
<path d="M257.797 101.458L259.39 110.359L273.873 98.2847L277.397 100.923L266.081 116.719L259.22 111.976L254.358 115.71L254.884 104.109L257.797 101.458Z" fill="white"/>
</mask>
<g mask="url(#mask13_10_722)">
<path opacity="0.5" d="M257.797 101.458L259.39 110.359L273.873 98.2847L277.397 100.923L266.081 116.719L259.22 111.976L254.358 115.71L254.884 104.109L257.797 101.458Z" fill="white"/>
</g>
<path d="M257.797 101.458L259.389 110.359L273.873 98.2847L277.396 100.923L266.08 116.719L259.22 111.976L254.358 115.71L254.883 104.109L257.797 101.458Z" stroke="#263238" stroke-linecap="round" stroke-linejoin="round"/>
<path d="M256.043 208.159C256.043 210.944 256.043 212.366 256.043 212.366" stroke="#263238" stroke-linecap="round" stroke-linejoin="round"/>
<path d="M257.924 124.452C256.703 137.491 256.089 150.633 256.086 163.789C255.95 183.123 255.984 197.106 256.026 204.974" stroke="#263238" stroke-linecap="round" stroke-linejoin="round"/>
<path d="M258.779 117.509C258.779 117.509 258.576 118.725 258.271 121.29" stroke="#263238" stroke-linecap="round" stroke-linejoin="round"/>
<path d="M241.703 157.842H165.694C161.54 157.842 158.172 162.677 158.172 168.64V190.819C158.172 196.783 161.54 201.617 165.694 201.617H241.703C245.857 201.617 249.225 196.783 249.225 190.819V168.64C249.225 162.677 245.857 157.842 241.703 157.842Z" fill="#92E3A9" stroke="#263238" stroke-linecap="round" stroke-linejoin="round"/>
<path d="M169.547 180.07L166.278 175.753L171.597 167.375C171.878 166.973 172.259 166.747 172.656 166.747C173.053 166.747 173.433 166.973 173.714 167.375L174.68 168.664C174.985 169.033 175.175 169.559 175.21 170.129C175.245 170.698 175.121 171.265 174.866 171.704L169.547 180.07Z" stroke="#263238" stroke-linecap="round" stroke-linejoin="round"/>
<path d="M167.37 182.051L164.779 182.842L165.092 179.036" stroke="#263238" stroke-linecap="round" stroke-linejoin="round"/>
<path d="M229.745 165.94H186.81C186.183 165.94 185.582 166.297 185.139 166.934C184.696 167.57 184.447 168.433 184.447 169.332C184.447 170.232 184.696 171.095 185.139 171.731C185.582 172.368 186.183 172.725 186.81 172.725H229.745C230.371 172.725 230.972 172.368 231.416 171.731C231.859 171.095 232.108 170.232 232.108 169.332C232.108 168.433 231.859 167.57 231.416 166.934C230.972 166.297 230.371 165.94 229.745 165.94Z" fill="#858585" stroke="#263238" stroke-linecap="round" stroke-linejoin="round"/>
<path d="M222.325 176.823H186.81C186.183 176.823 185.582 177.181 185.139 177.817C184.696 178.453 184.447 179.316 184.447 180.216C184.447 181.116 184.696 181.978 185.139 182.615C185.582 183.251 186.183 183.608 186.81 183.608H222.325C222.952 183.608 223.553 183.251 223.996 182.615C224.439 181.978 224.688 181.116 224.688 180.216C224.688 179.316 224.439 178.453 223.996 177.817C223.553 177.181 222.952 176.823 222.325 176.823Z" fill="#999999" stroke="#263238" stroke-linecap="round" stroke-linejoin="round"/>
<path d="M265.19 185.895C265.19 185.895 254.425 189.993 253.129 190.564C251.833 191.136 250.368 194.285 248.691 197.228C247.406 199.671 245.633 201.494 243.609 202.456C242.228 202.918 238.315 204.888 238.264 203.222C238.213 201.556 242.211 201.021 242.211 201.021L245.523 198.662C243.829 200.195 237.849 201.508 237.849 201.508C236.97 201.695 236.073 201.441 235.308 200.79C234.139 199.72 234.842 198.456 234.842 198.456C234.41 197.142 236.367 196.376 236.367 196.376L239.967 192.935C239.967 192.935 242.821 186.953 242.296 185.895C241.771 184.837 236.443 188.412 235.791 186.649C235.139 184.886 239.967 182.393 242.72 181.456C245.472 180.52 249.911 181.456 249.911 181.456L262.361 174.793L265.19 185.895Z" fill="white" stroke="#263238" stroke-linecap="round" stroke-linejoin="round"/>
<path d="M236.147 198.711C236.661 198.715 237.174 198.654 237.68 198.528C239.054 197.753 240.33 196.66 241.458 195.294C242.305 194.187 243.152 192.047 243.787 191.889" stroke="#263238" stroke-linecap="round" stroke-linejoin="round"/>
<path d="M236.723 200.182C237.262 200.144 237.793 199.989 238.299 199.72C239.809 199.1 241.277 198.286 242.686 197.288C243.533 196.51 244.634 194.856 245.227 195.014" stroke="#263238" stroke-linecap="round" stroke-linejoin="round"/>
<path d="M278.456 123.54C278.405 119.26 278.523 107.733 286.561 108.572C294.6 109.411 293.761 121.461 293.481 129.851C293.202 138.241 295.701 173.383 290.28 175.9L261.372 189.276L257.772 174.404L279.506 161.345C279.506 161.345 278.583 133.049 278.456 123.54Z" fill="#92E3A9"/>
<path d="M287.662 168.616C288.053 169.369 288.383 170.185 288.644 171.047" stroke="#263238" stroke-linecap="round" stroke-linejoin="round"/>
<path d="M288.62 160.469C288.62 160.469 282.792 157.915 281.92 161.15C281.259 163.582 284.139 163.849 286.536 166.901" stroke="#263238" stroke-linecap="round" stroke-linejoin="round"/>
<path d="M278.531 126.895C278.531 125.619 278.531 124.464 278.48 123.54" stroke="#263238" stroke-linecap="round" stroke-linejoin="round"/>
<path d="M286.586 108.571C294.624 109.361 293.785 121.46 293.506 129.85C293.226 138.24 295.725 173.382 290.304 175.899L261.396 189.275L257.796 174.403L279.53 161.344C279.53 161.344 278.904 142.557 278.616 130.446" stroke="#263238" stroke-linecap="round" stroke-linejoin="round"/>
<path d="M256.086 173.965L260.846 171.071L265.191 189.335L260.211 191.098L256.086 173.965Z" fill="#92E3A9"/>
<mask id="mask14_10_722" style="mask-type:luminance" maskUnits="userSpaceOnUse" x="256" y="171" width="10" height="21">
<path d="M256.085 173.965L260.846 171.071L265.191 189.335L260.21 191.098L256.085 173.965Z" fill="white"/>
</mask>
<g mask="url(#mask14_10_722)">
<path opacity="0.5" d="M256.085 173.965L260.846 171.071L265.191 189.335L260.21 191.098L256.085 173.965Z" fill="white"/>
</g>
<path d="M256.086 173.965L260.846 171.071L265.191 189.335L260.211 191.098L256.086 173.965Z" stroke="#263238" stroke-linecap="round" stroke-linejoin="round"/>
<path d="M201.514 200.828C201.286 199.539 200.811 195.854 202.192 195.854C203.572 195.854 203.827 198.043 203.827 198.043C203.827 198.043 203.589 195.477 204.945 195.854C206.3 196.231 206.512 199.113 206.512 199.113C206.512 199.113 206.283 196.778 207.757 197.022C209.23 197.265 208.35 202.579 210.111 202.554C210.857 202.554 209.993 198.76 211.433 198.773C212.872 198.785 212.28 202.858 214.982 202.858C215.829 202.858 212.542 204.488 210.357 203.819C210.357 203.819 209.341 205.144 206.723 203.065C206.255 203.381 205.732 203.492 205.22 203.384C204.707 203.276 204.229 202.953 203.843 202.457C203.623 202.652 203.373 202.764 203.114 202.783C202.856 202.801 202.599 202.726 202.366 202.563C202.134 202.4 201.934 202.156 201.785 201.852C201.636 201.549 201.543 201.197 201.514 200.828Z" fill="white" stroke="#263238" stroke-linecap="round" stroke-linejoin="round"/>
<path d="M203.8 199.574C203.768 200.012 203.797 200.454 203.885 200.875" stroke="#263238" stroke-linecap="round" stroke-linejoin="round"/>
<path d="M206.587 200.572C206.587 200.572 206.536 200.5 206.689 201.509" stroke="#263238" stroke-linecap="round" stroke-linejoin="round"/>
</svg>
