<svg width="388" height="416" viewBox="0 0 388 416" fill="none" xmlns="http://www.w3.org/2000/svg">
<path d="M388 365.602H0V365.88H388V365.602Z" fill="#EBEBEB"/>
<path d="M349.122 383.528H337.56V383.807H349.122V383.528Z" fill="#EBEBEB"/>
<path d="M257.026 386.557H250.283V386.835H257.026V386.557Z" fill="#EBEBEB"/>
<path d="M334.285 373.19H307.753V373.468H334.285V373.19Z" fill="#EBEBEB"/>
<path d="M85.0733 378.937H51.5579V379.216H85.0733V378.937Z" fill="#EBEBEB"/>
<path d="M104.068 378.937H91.9783V379.216H104.068V378.937Z" fill="#EBEBEB"/>
<path d="M197.693 375.194H124.998V375.473H197.693V375.194Z" fill="#EBEBEB"/>
<path d="M183.913 315.916H34.0753C32.9015 315.913 31.7764 315.242 30.9472 314.049C30.1179 312.857 29.6521 311.24 29.6521 309.555V7.17071C29.6623 5.49522 30.1326 3.89318 30.9608 2.71256C31.789 1.53194 32.9082 0.868105 34.0753 0.865234H183.913C185.088 0.865234 186.215 1.53543 187.046 2.72838C187.877 3.92133 188.344 5.53932 188.344 7.22641V309.555C188.344 311.242 187.877 312.86 187.046 314.053C186.215 315.246 185.088 315.916 183.913 315.916ZM34.0753 1.08804C32.9529 1.09099 31.8772 1.73315 31.0843 2.87355C30.2914 4.01395 29.8461 5.55942 29.8461 7.17071V309.555C29.8461 311.166 30.2914 312.712 31.0843 313.852C31.8772 314.993 32.9529 315.635 34.0753 315.638H183.913C185.036 315.635 186.113 314.993 186.907 313.853C187.701 312.713 188.148 311.167 188.15 309.555V7.17071C188.148 5.55839 187.701 4.01295 186.907 2.87287C186.113 1.73278 185.036 1.09099 183.913 1.08804H34.0753Z" fill="#EBEBEB"/>
<path d="M351.768 315.916H201.922C200.748 315.913 199.622 315.242 198.792 314.05C197.961 312.858 197.494 311.241 197.491 309.555V7.17071C197.504 5.4942 197.976 3.89217 198.805 2.71186C199.635 1.53155 200.755 0.868073 201.922 0.865234H351.768C352.934 0.871032 354.051 1.53617 354.878 2.71647C355.704 3.89677 356.173 5.49714 356.183 7.17071V309.555C356.183 311.238 355.719 312.853 354.891 314.045C354.064 315.238 352.941 315.91 351.768 315.916ZM201.922 1.08804C200.799 1.09099 199.723 1.73278 198.929 2.87287C198.135 4.01295 197.688 5.55839 197.685 7.17071V309.555C197.688 311.167 198.135 312.713 198.929 313.853C199.723 314.993 200.799 315.635 201.922 315.638H351.768C352.891 315.635 353.968 314.993 354.762 313.853C355.556 312.713 356.003 311.167 356.005 309.555V7.17071C356.003 5.55839 355.556 4.01295 354.762 2.87287C353.968 1.73278 352.891 1.09099 351.768 1.08804H201.922Z" fill="#EBEBEB"/>
<path d="M166.436 365.602H180.885V223.149H166.436V365.602Z" fill="#E6E6E6"/>
<path d="M171.518 365.6H166.427V338.529H176.849L171.518 365.6Z" fill="#F0F0F0"/>
<path d="M319.246 365.602H333.695V223.149H319.246V365.602Z" fill="#E6E6E6"/>
<path d="M166.437 358.204H323.686V223.138L166.437 223.138V358.204Z" fill="#F0F0F0"/>
<path d="M318.596 365.6H323.686V338.529H313.264L318.596 365.6Z" fill="#F0F0F0"/>
<path d="M271.841 234.335V346.062H318.455V234.335H271.841Z" fill="#E6E6E6"/>
<path d="M290.534 238.257H299.761C303.661 238.327 307.438 236.305 310.353 232.586H279.95C282.862 236.305 286.637 238.328 290.534 238.257Z" fill="#F0F0F0"/>
<path d="M221.749 234.335V346.062H268.364V234.335H221.749Z" fill="#E6E6E6"/>
<path d="M239.978 238.257H249.197C253.096 238.327 256.874 236.305 259.789 232.586H229.385C232.301 236.305 236.078 238.327 239.978 238.257Z" fill="#F0F0F0"/>
<path d="M171.666 234.335V346.062H218.281V234.335H171.666Z" fill="#E6E6E6"/>
<path d="M189.887 238.257H199.106C203.006 238.329 206.783 236.307 209.698 232.586H179.294C182.21 236.305 185.987 238.327 189.887 238.257Z" fill="#F0F0F0"/>
<path d="M54.3038 365.602H152.902L152.902 47.4088H54.3038L54.3038 365.602Z" fill="#F0F0F0"/>
<path d="M54.3041 365.602H150.823L150.823 47.4088H54.3041L54.3041 365.602Z" fill="#F5F5F5"/>
<path d="M144.94 358.384V54.6289L60.1857 54.6289L60.1857 358.384H144.94Z" fill="#F0F0F0"/>
<path d="M136.615 111.155C136.615 102.356 134.18 93.9173 129.846 87.6956C125.513 81.4739 119.635 77.9785 113.506 77.9785H91.6225C85.4935 77.9785 79.6156 81.4739 75.2817 87.6956C70.9479 93.9173 68.5132 102.356 68.5132 111.155H136.615Z" fill="#FAFAFA"/>
<path d="M136.615 339.502V266.933H68.5205V339.502H136.615Z" fill="#F5F5F5"/>
<path d="M136.615 131.576H106.576V257.563H136.615V131.576Z" fill="#F5F5F5"/>
<path d="M98.5521 131.576H68.5132V257.563H98.5521V131.576Z" fill="#F5F5F5"/>
<path d="M79.4073 194.006H67.1077C66.8557 194.009 66.6058 193.941 66.3724 193.804C66.139 193.668 65.9267 193.466 65.7478 193.212C65.5689 192.957 65.4269 192.654 65.33 192.32C65.2331 191.986 65.1832 191.628 65.1832 191.266C65.1832 190.539 65.3844 189.842 65.7424 189.328C66.1004 188.814 66.5859 188.525 67.0922 188.525H79.3918C79.8974 188.528 80.3818 188.818 80.7394 189.331C81.0969 189.845 81.2987 190.54 81.3007 191.266C81.3008 191.989 81.1018 192.683 80.7471 193.196C80.3925 193.709 79.9109 194.001 79.4073 194.006Z" fill="#E0E0E0"/>
<path d="M61.7081 358.384L61.7081 54.6289H60.1794L60.1794 358.384H61.7081Z" fill="#F0F0F0"/>
<path d="M215.271 188.225L319.829 188.225V47.4097L215.271 47.4097V188.225Z" fill="#E6E6E6"/>
<path d="M212.639 188.225L317.197 188.225V47.4097L212.639 47.4097V188.225Z" fill="#F5F5F5"/>
<path d="M206.525 196.379L319.829 196.379V188.225L206.525 188.225V196.379Z" fill="#E6E6E6"/>
<path d="M203.561 196.379L311.029 196.379V188.225L203.561 188.225V196.379Z" fill="#F5F5F5"/>
<path d="M312.463 180.894V54.729L217.365 54.729V180.894H312.463Z" fill="white"/>
<path d="M267.55 180.894V54.729H262.281V180.894H267.55Z" fill="#F5F5F5"/>
<path d="M219.36 180.905V54.7402H217.365V180.905H219.36Z" fill="#E6E6E6"/>
<path d="M269.543 180.894V54.729H267.549V180.894H269.543Z" fill="#E6E6E6"/>
<path d="M229.323 191.957C227.398 163.348 226.064 116.937 227.104 101.407C227.121 101.143 227.179 100.887 227.271 100.656C227.363 100.426 227.489 100.226 227.639 100.071C227.84 99.8609 228.078 99.7361 228.326 99.7101C228.574 99.6842 228.822 99.7582 229.042 99.9238C229.263 100.089 229.446 100.34 229.573 100.647C229.699 100.955 229.763 101.307 229.757 101.664C229.571 109.362 229.362 128.59 230.533 161.755C231.1 178.265 231.922 189.606 231.356 191.957H229.323Z" fill="#E6E6E6"/>
<path d="M222.153 126.028C216.721 117.294 205.5 111.088 194.1 111.122C189.63 111.122 207.711 121.271 215.231 132.467C221.074 141.156 227.647 155.784 229.905 163.905C228.454 146.804 227.631 134.751 222.153 126.028Z" fill="#E6E6E6"/>
<path d="M233.01 128.69C237.558 119.599 248.057 112.603 259.394 111.812C263.856 111.5 246.893 122.952 240.561 134.605C235.641 143.685 230.597 158.735 229.216 166.979C228.921 149.856 228.463 137.78 233.01 128.69Z" fill="#E6E6E6"/>
<path d="M221.937 94.1555C217.281 86.7582 207.829 81.4999 198.183 81.5334C194.389 81.5334 209.707 90.1338 216.078 99.6031C221.021 106.967 226.601 119.355 228.494 126.229C227.245 111.768 226.546 101.542 221.937 94.1555Z" fill="#E6E6E6"/>
<path d="M231.1 105.084C234.98 97.3863 243.842 91.4595 253.457 90.7911C257.228 90.5349 242.864 100.194 237.51 110.097C233.343 117.784 229.075 130.529 227.895 137.514C227.616 123.009 227.251 112.782 231.1 105.084Z" fill="#E6E6E6"/>
<path d="M230.098 223.15C227.215 223.134 224.445 221.541 222.351 218.695C220.258 215.849 218.999 211.964 218.831 207.832L217.838 182.966H242.437L241.436 207.832C241.269 211.982 240.001 215.883 237.892 218.732C235.783 221.582 232.994 223.162 230.098 223.15Z" fill="#E6E6E6"/>
<path d="M243.99 188.615H216.202L215.41 178.265H244.782L243.99 188.615Z" fill="#E6E6E6"/>
<path d="M193.999 415.913C277.095 415.913 344.458 410.267 344.458 403.302C344.458 396.337 277.095 390.691 193.999 390.691C110.903 390.691 43.5403 396.337 43.5403 403.302C43.5403 410.267 110.903 415.913 193.999 415.913Z" fill="#F5F5F5"/>
<path d="M197.034 391.248L190.554 392.295L188.164 371.195L194.644 370.148L197.034 391.248Z" fill="white"/>
<path d="M226.04 393.274H219.568L217.962 371.762H224.434L226.04 393.274Z" fill="white"/>
<path d="M219.042 392.195H226.926C227.055 392.195 227.179 392.259 227.279 392.374C227.379 392.489 227.449 392.65 227.477 392.83L228.758 401.085C228.788 401.286 228.786 401.494 228.753 401.694C228.719 401.894 228.654 402.081 228.563 402.239C228.472 402.398 228.357 402.525 228.227 402.611C228.096 402.696 227.954 402.738 227.811 402.734C225.273 402.678 223.419 402.466 220.222 402.466C218.258 402.466 212.33 402.756 209.614 402.756C206.898 402.756 206.51 398.901 207.658 398.556C212.64 396.985 216.396 394.824 217.994 392.763C218.282 392.393 218.656 392.191 219.042 392.195Z" fill="#263238"/>
<path d="M190.453 390.702L197.437 389.588C197.566 389.566 197.695 389.608 197.804 389.707C197.913 389.807 197.995 389.958 198.035 390.134L199.952 398.121C199.999 398.312 200.016 398.517 200.001 398.718C199.986 398.92 199.94 399.115 199.865 399.287C199.791 399.46 199.69 399.606 199.571 399.714C199.451 399.823 199.316 399.892 199.176 399.915C196.638 400.271 192.968 400.65 189.778 401.174C186.054 401.775 185.433 403.213 181.048 403.057C178.387 402.967 177.712 399.091 178.829 398.779C183.92 397.364 184.897 396.261 188.917 391.704C189.351 391.164 189.884 390.815 190.453 390.702Z" fill="#263238"/>
<path d="M196.164 120.346C193.992 122.919 191.85 125.159 189.638 127.453C187.427 129.748 185.168 131.91 182.84 133.948C180.512 135.987 178.13 137.981 175.624 139.775C173.067 141.688 170.404 143.294 167.662 144.576C166.94 144.899 166.234 145.178 165.419 145.456C164.623 145.707 163.817 145.893 163.006 146.013C161.547 146.247 160.181 146.336 158.815 146.437C156.092 146.615 153.383 146.604 150.745 146.582C145.406 146.492 140.114 146.125 134.79 145.467L134.713 138.494C139.935 137.535 145.181 136.7 150.373 135.864C152.964 135.452 155.556 135.007 158.078 134.528C159.343 134.282 160.592 133.993 161.741 133.681C162.238 133.554 162.73 133.39 163.215 133.191C163.665 132.968 164.224 132.712 164.767 132.411C166.986 131.114 169.14 129.603 171.216 127.888C173.365 126.117 175.507 124.212 177.618 122.195C179.729 120.179 181.832 118.084 183.919 115.957C186.006 113.829 188.078 111.567 190.034 109.428L196.164 120.346Z" fill="white"/>
<path d="M202.489 112.414C201.558 121.192 188.684 134.617 188.684 134.617L179.442 118.162C183.489 111.958 187.782 106.096 192.3 100.605C196.452 95.7254 203.498 102.855 202.489 112.414Z" fill="#09A350"/>
<path d="M136.499 139.206L132.828 135.452L132.425 147.317C132.425 147.317 134.458 147.317 135.242 145.178L136.499 139.206Z" fill="white"/>
<path d="M129.507 131.998L128.754 143.617L132.425 147.316L132.828 135.451L129.507 131.998Z" fill="white"/>
<path opacity="0.2" d="M188.172 371.205L189.398 382.078L195.878 381.031L194.652 370.158L188.172 371.205Z" fill="black"/>
<path opacity="0.2" d="M224.434 371.762H217.962L218.792 382.858H225.264L224.434 371.762Z" fill="black"/>
<path d="M224.528 100.882C225.01 101.036 225.465 101.328 225.867 101.739C226.269 102.15 226.61 102.673 226.869 103.276C227.128 103.88 227.3 104.551 227.375 105.252C227.45 105.953 227.427 106.668 227.306 107.355C225.903 115.721 224.846 124.199 224.14 132.744C223.527 139.941 223.162 146.814 222.937 153.042C222.394 167.636 222.619 178.765 222.316 182.541L187.792 179.11C184.285 139.673 188.39 114.496 190.702 104.28C191.058 102.689 191.721 101.275 192.614 100.203C193.506 99.1302 194.592 98.4426 195.746 98.2196C197.073 97.9746 198.656 97.7295 200.332 97.5847C200.914 97.5847 201.512 97.5067 202.109 97.4844C207.021 97.5521 211.925 98.0245 216.799 98.8992C217.722 99.0552 218.654 99.2557 219.561 99.4562C221.37 99.913 223.1 100.425 224.528 100.882Z" fill="#263238"/>
<path d="M216.505 75.0708C215.248 81.7551 213.72 94.0764 216.8 98.9336C208.8 106.665 203.694 117.538 202.219 115.176C201.443 113.94 201.117 99.5797 202.126 97.4631C207.481 96.1819 207.62 90.5671 206.961 85.2086L216.505 75.0708Z" fill="white"/>
<path d="M216.178 96.1602C216.178 96.1602 203.133 104.449 201.434 122.964C205.019 116.993 212.957 110.498 212.957 110.498L209.458 109.061C211.682 107.847 213.985 106.955 216.333 106.398C215.945 103.836 218.017 98.7336 218.017 98.7336L216.178 96.1602Z" fill="#09A350"/>
<path d="M204.414 95.8599C204.414 95.8599 206.145 106.443 201.411 122.965C200.674 116.659 197.578 106.109 197.578 106.109L200.775 107.346C200.775 107.346 200.612 105.218 198.028 102.377C198.99 99.7256 202.001 96.5951 202.001 96.5951L204.414 95.8599Z" fill="#09A350"/>
<path opacity="0.2" d="M212.623 79.2041L206.973 85.1976C207.143 86.4459 207.234 87.7137 207.245 88.9854C209.278 88.7737 212.196 85.8772 212.553 82.8693C212.731 81.6639 212.755 80.4217 212.623 79.2041Z" fill="black"/>
<path d="M199.928 55.7088C196.77 55.8982 195.032 63.7077 198.229 70.1914C201.426 76.6751 204.173 55.4526 199.928 55.7088Z" fill="#263238"/>
<path d="M215.488 62.582C215.861 71.784 216.404 77.1425 213.587 82.3785C209.342 90.2659 201.132 87.4474 198.843 78.5907C196.795 70.6142 196.515 56.9004 202.452 52.1991C203.755 51.15 205.223 50.5968 206.717 50.5918C208.211 50.5869 209.681 51.1305 210.987 52.1709C212.293 53.2113 213.393 54.714 214.181 56.5362C214.968 58.3584 215.419 60.4396 215.488 62.582Z" fill="white"/>
<path d="M216.427 69.6456C211.569 65.1895 209.854 59.3185 209.482 56.3663C207.596 57.0013 198.237 63.1842 195.358 56.3663C192.479 49.5483 196.134 45.5378 201.489 49.7377C199.106 43.6996 201.271 40.7474 208.76 40.48C216.248 40.2127 215.239 46.4513 215.239 46.4513C215.239 46.4513 220.904 42.9086 222.914 49.1473C225.234 56.3217 220.951 68.565 216.427 69.6456Z" fill="#263238"/>
<path d="M213.958 44.8031C214.028 44.8031 216.791 45.7611 219.98 41.1602C219.414 45.0816 214.463 47.6996 214.463 47.6996L213.958 44.8031Z" fill="#263238"/>
<path d="M217.676 58.2718C214.696 56.7901 211.08 63.1401 212.414 70.8047C213.749 78.4694 221.703 60.2659 217.676 58.2718Z" fill="#263238"/>
<path d="M219.368 70.2365C219.234 71.3682 218.946 72.4507 218.52 73.422C218.094 74.3932 217.538 75.2339 216.885 75.8959C215.131 77.6561 213.548 75.6508 213.447 72.7431C213.354 70.1251 214.161 66.0589 216.202 65.4573C218.243 64.8557 219.686 67.4292 219.368 70.2365Z" fill="white"/>
<path d="M197.53 283.732C199.082 256.572 210.49 181.363 210.49 181.363L187.792 179.112C187.792 179.112 179.038 253.753 178.371 282.094C177.673 311.561 185.929 377.033 185.929 377.033L196.793 375.251C196.793 375.251 195.963 311.015 197.53 283.732Z" fill="#09A350"/>
<path opacity="0.5" d="M197.53 283.732C199.082 256.572 210.49 181.363 210.49 181.363L187.792 179.112C187.792 179.112 179.038 253.753 178.371 282.094C177.673 311.561 185.929 377.033 185.929 377.033L196.793 375.251C196.793 375.251 195.963 311.015 197.53 283.732Z" fill="white"/>
<path opacity="0.2" d="M201.939 206.83C197.36 215.229 197.283 244.707 199.052 266.52C200.736 250.79 203.39 230.871 205.725 214.16L201.939 206.83Z" fill="black"/>
<path d="M200.037 180.315C200.037 180.315 202.49 259.835 205.221 286.762C208.209 316.25 215.806 380.753 215.806 380.753H227.655C227.655 380.753 225.707 320.049 224.14 291.073C222.363 258.075 222.316 182.588 222.316 182.588L200.037 180.315Z" fill="#09A350"/>
<path opacity="0.5" d="M200.037 180.315C200.037 180.315 202.49 259.835 205.221 286.762C208.209 316.25 215.806 380.753 215.806 380.753H227.655C227.655 380.753 225.707 320.049 224.14 291.073C222.363 258.075 222.316 182.588 222.316 182.588L200.037 180.315Z" fill="white"/>
<path d="M214.387 381.076H228.339V375.094L212.742 374.704L214.387 381.076Z" fill="#09A350"/>
<path d="M185.45 378.77L198.425 376.654L197.952 370.638L183.425 372.676L185.45 378.77Z" fill="#09A350"/>
<path d="M206.05 66.7929C206.112 67.5392 205.887 68.1964 205.546 68.2521C205.205 68.3078 204.886 67.7508 204.817 67.0046C204.747 66.2583 204.98 65.6123 205.321 65.5566C205.662 65.5009 205.988 66.0578 206.05 66.7929Z" fill="#263238"/>
<path d="M200.208 67.8072C200.27 68.5534 200.045 69.1995 199.703 69.2663C199.362 69.3331 199.044 68.7651 198.982 68.0188C198.92 67.2725 199.145 66.6265 199.478 66.5708C199.812 66.5151 200.13 67.0609 200.208 67.8072Z" fill="#263238"/>
<path d="M202.085 67.8628C201.655 70.2416 201 72.5244 200.138 74.6473C200.523 74.949 200.95 75.1262 201.388 75.1666C201.827 75.207 202.266 75.1096 202.675 74.8813L202.085 67.8628Z" fill="#ED847E"/>
<path d="M207.643 63.7648C207.589 63.7897 207.532 63.7925 207.477 63.7728C207.422 63.7531 207.372 63.7118 207.333 63.6534C207.072 63.2476 206.749 62.9354 206.389 62.7419C206.029 62.5483 205.643 62.479 205.261 62.5394C205.216 62.5579 205.169 62.5617 205.123 62.5506C205.077 62.5395 205.034 62.5137 204.996 62.4752C204.958 62.4367 204.926 62.3865 204.904 62.3281C204.881 62.2698 204.868 62.205 204.865 62.1383C204.856 62.081 204.856 62.0217 204.863 61.9641C204.871 61.9065 204.887 61.8518 204.911 61.8036C204.934 61.7555 204.964 61.7148 204.999 61.6842C205.034 61.6535 205.073 61.6337 205.113 61.6259C205.595 61.5343 206.085 61.6111 206.542 61.8496C206.998 62.0882 207.408 62.4815 207.736 62.9961C207.765 63.0366 207.789 63.0851 207.804 63.1387C207.82 63.1923 207.828 63.2499 207.828 63.3081C207.828 63.3662 207.82 63.4238 207.804 63.4774C207.789 63.531 207.765 63.5795 207.736 63.62C207.712 63.6765 207.68 63.7256 207.643 63.7648Z" fill="#263238"/>
<path d="M205.392 77.8559C206.131 77.6316 206.821 77.1551 207.405 76.4667C207.988 75.7783 208.448 74.8982 208.744 73.901C208.759 73.8434 208.758 73.7794 208.741 73.7231C208.723 73.6668 208.691 73.6226 208.651 73.6002C208.609 73.5786 208.562 73.5816 208.522 73.6087C208.481 73.6358 208.449 73.6848 208.434 73.745C208.151 74.6588 207.723 75.4645 207.184 76.0972C206.645 76.73 206.01 77.1721 205.33 77.388C205.288 77.4061 205.252 77.4456 205.229 77.4989C205.206 77.5523 205.198 77.6159 205.206 77.6776C205.218 77.7334 205.243 77.7814 205.277 77.8138C205.311 77.8463 205.351 77.8611 205.392 77.8559Z" fill="#263238"/>
<path d="M197.437 65.3448C197.378 65.3783 197.311 65.3783 197.251 65.3448C197.175 65.3067 197.111 65.2271 197.075 65.1231C197.039 65.019 197.033 64.8987 197.057 64.7879C197.206 64.1225 197.463 63.5177 197.807 63.0237C198.151 62.5297 198.572 62.1607 199.036 61.9476C199.075 61.9327 199.116 61.9292 199.156 61.9375C199.196 61.9458 199.235 61.9656 199.27 61.9957C199.304 62.0258 199.335 62.0657 199.358 62.1129C199.382 62.1602 199.399 62.2138 199.408 62.2706C199.419 62.3255 199.421 62.3828 199.416 62.4392C199.41 62.4955 199.397 62.5497 199.377 62.5986C199.357 62.6475 199.33 62.69 199.298 62.7236C199.266 62.7571 199.229 62.7811 199.191 62.7941C198.829 62.9653 198.5 63.256 198.23 63.6429C197.961 64.0298 197.758 64.5021 197.639 65.0218C197.631 65.0977 197.607 65.1686 197.571 65.2258C197.536 65.2831 197.489 65.3244 197.437 65.3448Z" fill="#263238"/>
<path d="M216.902 393.821C216.462 393.868 216.024 393.699 215.66 393.342C215.549 393.206 215.462 393.034 215.407 392.841C215.351 392.647 215.329 392.437 215.342 392.228C215.34 392.099 215.364 391.972 215.41 391.861C215.457 391.751 215.525 391.662 215.606 391.604C216.32 391.07 218.407 392.919 218.64 393.131C218.667 393.152 218.688 393.185 218.701 393.225C218.714 393.265 218.717 393.311 218.71 393.353C218.705 393.397 218.692 393.437 218.671 393.469C218.65 393.501 218.623 393.523 218.593 393.532C218.039 393.72 217.471 393.817 216.902 393.821ZM215.939 391.894C215.873 391.892 215.806 391.911 215.745 391.95C215.713 391.974 215.686 392.011 215.668 392.056C215.65 392.102 215.642 392.154 215.644 392.206C215.63 392.354 215.642 392.505 215.679 392.645C215.715 392.785 215.775 392.91 215.854 393.008C216.211 393.431 217.057 393.498 218.182 393.175C217.499 392.543 216.738 392.108 215.939 391.894Z" fill="#09A350"/>
<path d="M218.561 393.486C218.536 393.496 218.509 393.496 218.484 393.486C217.817 392.962 216.521 390.924 216.661 389.899C216.684 389.737 216.745 389.591 216.834 389.486C216.923 389.38 217.034 389.322 217.149 389.32C217.266 389.297 217.384 389.31 217.496 389.358C217.609 389.406 217.713 389.488 217.801 389.599C218.577 390.479 218.709 393.163 218.709 393.274C218.714 393.314 218.709 393.355 218.697 393.391C218.684 393.427 218.664 393.456 218.639 393.475C218.615 393.49 218.587 393.493 218.561 393.486ZM217.281 389.721H217.219C217.017 389.721 217.002 389.888 216.994 389.944C216.909 390.556 217.77 392.094 218.399 392.818C218.352 391.758 218.081 390.743 217.623 389.91C217.528 389.792 217.407 389.725 217.281 389.721Z" fill="#09A350"/>
<path d="M189.928 392.07C188.919 392.538 187.103 393.184 186.327 392.415C186.212 392.303 186.119 392.151 186.055 391.974C185.992 391.797 185.96 391.601 185.962 391.402C185.956 391.281 185.971 391.161 186.006 391.052C186.041 390.942 186.096 390.848 186.164 390.778C186.893 390.042 189.633 391.491 189.935 391.658C189.965 391.675 189.99 391.704 190.008 391.742C190.026 391.78 190.036 391.824 190.036 391.869C190.036 391.915 190.025 391.96 190.005 391.996C189.986 392.032 189.958 392.058 189.928 392.07ZM186.35 391.112C186.323 391.142 186.302 391.181 186.288 391.226C186.275 391.27 186.269 391.319 186.273 391.368C186.271 391.499 186.292 391.629 186.334 391.746C186.376 391.863 186.438 391.963 186.513 392.037C186.948 392.482 188.011 392.393 189.408 391.825C188.282 391.324 186.8 390.778 186.35 391.112Z" fill="#09A350"/>
<path d="M189.926 392.072C189.886 392.095 189.842 392.095 189.802 392.072C188.987 391.705 187.296 389.956 187.334 388.898C187.334 388.642 187.435 388.319 187.846 388.196C187.996 388.145 188.151 388.14 188.302 388.18C188.453 388.22 188.596 388.305 188.723 388.43C189.615 389.265 189.988 391.771 190.003 391.771C190.008 391.81 190.006 391.849 189.998 391.885C189.99 391.922 189.976 391.956 189.957 391.983L189.926 392.072ZM187.746 388.731C187.645 388.809 187.637 388.898 187.637 388.942C187.637 389.577 188.785 390.97 189.631 391.526C189.475 390.486 189.098 389.54 188.552 388.82C188.462 388.726 188.358 388.661 188.248 388.631C188.138 388.6 188.025 388.604 187.916 388.642C187.857 388.653 187.799 388.68 187.746 388.72V388.731Z" fill="#09A350"/>
<path d="M229.975 114.275C229.812 117.906 229.517 121.282 229.199 124.769C228.88 128.256 228.477 131.676 228.019 135.13C227.118 142.184 225.786 149.11 224.038 155.828L223.262 158.424L223.068 159.07L223.022 159.237L222.944 159.483L222.711 160.173C222.418 160.975 222.059 161.723 221.64 162.401C220.972 163.495 220.186 164.428 219.312 165.164C218.604 165.775 217.858 166.293 217.085 166.713C214.522 168.042 211.842 168.848 209.123 169.108C204.183 169.634 199.217 169.369 194.317 168.317L194.496 161.343L197.918 160.786C199.067 160.597 200.207 160.34 201.34 160.118C203.606 159.638 205.849 159.104 207.991 158.391C209.965 157.814 211.885 156.902 213.71 155.673C214.2 155.374 214.629 154.903 214.959 154.302C214.959 154.135 214.734 154.837 215.021 153.723L215.533 151.573C216.788 145.413 217.748 139.138 218.404 132.79C218.777 129.559 219.087 126.295 219.398 123.02C219.708 119.745 219.949 116.414 220.174 113.283L229.975 114.275Z" fill="white"/>
<path d="M230.549 107.546C233.715 115.166 231.014 139.14 231.014 139.14L214.408 134.684C214.408 134.684 213.508 120.959 216.674 110.42C220.112 98.9903 226.715 98.2996 230.549 107.546Z" fill="#09A350"/>
<path d="M189.873 182.787L181.065 123.966C180.644 121.453 179.664 119.206 178.274 117.564C176.883 115.921 175.158 114.974 173.36 114.864H139.619C141.417 114.978 143.141 115.926 144.531 117.568C145.92 119.21 146.901 121.455 147.325 123.966L156.125 182.787C156.548 185.298 157.529 187.544 158.919 189.185C160.309 190.827 162.032 191.776 163.83 191.889H197.579C195.78 191.778 194.056 190.829 192.666 189.188C191.276 187.546 190.296 185.299 189.873 182.787Z" fill="#263238"/>
<path opacity="0.7" d="M189.873 182.787L181.065 123.966C180.644 121.453 179.664 119.206 178.274 117.564C176.883 115.921 175.158 114.974 173.36 114.864H139.619C141.417 114.978 143.141 115.926 144.531 117.568C145.92 119.21 146.901 121.455 147.325 123.966L156.125 182.787C156.548 185.298 157.529 187.544 158.919 189.185C160.309 190.827 162.032 191.776 163.83 191.889H197.579C195.78 191.778 194.056 190.829 192.666 189.188C191.276 187.546 190.296 185.299 189.873 182.787Z" fill="#09A350"/>
<path d="M126.456 185.728L125.591 199.531L126.367 199.632L127.232 185.829L126.456 185.728Z" fill="#09A350"/>
<path d="M124.713 206.201L124.341 211.98L125.114 212.083L125.485 206.303L124.713 206.201Z" fill="#09A350"/>
<path d="M139.618 114.864H173.359C171.631 114.91 169.975 115.861 168.702 117.537C167.429 119.213 166.626 121.5 166.444 123.966L157.691 260.637C157.508 263.104 156.704 265.391 155.429 267.067C154.154 268.742 152.497 269.693 150.769 269.738H129.709C128.897 269.76 128.092 269.533 127.347 269.072C126.602 268.611 125.934 267.926 125.388 267.064C124.842 266.203 124.431 265.183 124.182 264.075C123.932 262.966 123.851 261.794 123.943 260.637L132.696 123.966C132.879 121.499 133.684 119.212 134.958 117.536C136.233 115.86 137.89 114.91 139.618 114.864Z" fill="#09A350"/>
<path d="M145.003 260.638C144.911 261.795 144.992 262.967 145.241 264.076C145.491 265.184 145.902 266.204 146.448 267.065C146.994 267.927 147.662 268.612 148.407 269.073C149.152 269.534 149.957 269.761 150.768 269.739H117.02C116.209 269.761 115.404 269.534 114.66 269.073C113.915 268.612 113.247 267.927 112.702 267.065C112.157 266.203 111.746 265.184 111.498 264.075C111.249 262.966 111.169 261.794 111.262 260.638H145.003Z" fill="#263238"/>
<path opacity="0.7" d="M145.003 260.638C144.911 261.795 144.992 262.967 145.241 264.076C145.491 265.184 145.902 266.204 146.448 267.065C146.994 267.927 147.662 268.612 148.407 269.073C149.152 269.534 149.957 269.761 150.768 269.739H117.02C116.209 269.761 115.404 269.534 114.66 269.073C113.915 268.612 113.247 267.927 112.702 267.065C112.157 266.203 111.746 265.184 111.498 264.075C111.249 262.966 111.169 261.794 111.262 260.638H145.003Z" fill="#09A350"/>
<g opacity="0.5">
<path d="M160.631 130.182H137.754C137.578 130.186 137.403 130.135 137.242 130.034C137.08 129.933 136.936 129.783 136.818 129.596C136.699 129.408 136.61 129.187 136.556 128.946C136.503 128.705 136.485 128.451 136.505 128.199C136.546 127.663 136.721 127.167 136.998 126.802C137.275 126.437 137.635 126.229 138.01 126.216H160.848C161.024 126.213 161.199 126.264 161.36 126.365C161.522 126.466 161.666 126.616 161.784 126.803C161.902 126.991 161.991 127.212 162.045 127.453C162.099 127.694 162.117 127.948 162.097 128.199C162.057 128.726 161.887 129.216 161.618 129.579C161.35 129.942 160.999 130.156 160.631 130.182Z" fill="white"/>
<path d="M159.918 140.9H137.081C136.904 140.905 136.728 140.856 136.566 140.755C136.404 140.655 136.258 140.506 136.139 140.318C136.02 140.13 135.93 139.908 135.876 139.667C135.821 139.425 135.804 139.17 135.824 138.917C135.865 138.381 136.04 137.885 136.317 137.52C136.594 137.155 136.953 136.947 137.329 136.934H160.167C160.343 136.93 160.519 136.979 160.681 137.08C160.844 137.18 160.989 137.329 161.108 137.517C161.227 137.705 161.317 137.927 161.372 138.168C161.426 138.41 161.444 138.665 161.424 138.917C161.383 139.454 161.207 139.95 160.93 140.315C160.654 140.679 160.294 140.887 159.918 140.9Z" fill="white"/>
<path d="M153.648 151.627H136.397C136.221 151.63 136.047 151.579 135.885 151.478C135.724 151.377 135.579 151.228 135.461 151.04C135.343 150.853 135.254 150.631 135.2 150.39C135.146 150.15 135.128 149.895 135.148 149.644C135.189 149.108 135.365 148.611 135.641 148.247C135.918 147.882 136.278 147.674 136.653 147.661H153.888C154.065 147.656 154.241 147.706 154.403 147.806C154.565 147.907 154.711 148.056 154.83 148.243C154.949 148.431 155.039 148.653 155.093 148.895C155.148 149.136 155.165 149.392 155.146 149.644C155.105 150.178 154.93 150.673 154.655 151.038C154.38 151.402 154.022 151.611 153.648 151.627Z" fill="white"/>
<path d="M141.566 162.401H135.723C135.547 162.405 135.372 162.356 135.21 162.256C135.048 162.157 134.903 162.009 134.784 161.822C134.665 161.636 134.575 161.415 134.52 161.175C134.466 160.935 134.447 160.68 134.466 160.429C134.507 159.893 134.682 159.396 134.959 159.032C135.236 158.667 135.595 158.459 135.971 158.446H141.822C141.998 158.443 142.173 158.493 142.334 158.595C142.496 158.696 142.64 158.845 142.758 159.033C142.877 159.22 142.966 159.442 143.02 159.682C143.074 159.923 143.091 160.178 143.071 160.429C143.028 160.963 142.852 161.457 142.576 161.819C142.299 162.182 141.94 162.388 141.566 162.401Z" fill="white"/>
<path d="M157.877 173.073H135.023C134.847 173.076 134.673 173.025 134.511 172.924C134.35 172.823 134.205 172.674 134.087 172.486C133.969 172.299 133.88 172.077 133.826 171.836C133.772 171.596 133.754 171.341 133.774 171.09C133.815 170.554 133.991 170.057 134.267 169.692C134.544 169.328 134.904 169.12 135.279 169.107H158.109C158.286 169.102 158.462 169.151 158.624 169.252C158.786 169.352 158.932 169.501 159.051 169.689C159.17 169.877 159.26 170.099 159.314 170.341C159.369 170.582 159.386 170.838 159.366 171.09C159.326 171.622 159.153 172.116 158.879 172.48C158.605 172.844 158.249 173.055 157.877 173.073Z" fill="white"/>
<path d="M148.216 183.801H134.364C134.187 183.806 134.012 183.756 133.849 183.656C133.687 183.556 133.541 183.406 133.422 183.219C133.303 183.031 133.213 182.809 133.159 182.567C133.105 182.326 133.087 182.07 133.107 181.818C133.148 181.282 133.323 180.785 133.6 180.421C133.877 180.056 134.237 179.848 134.612 179.835H148.456C148.632 179.832 148.807 179.883 148.969 179.984C149.131 180.085 149.276 180.234 149.395 180.421C149.514 180.609 149.603 180.83 149.658 181.071C149.713 181.311 149.732 181.566 149.713 181.818C149.672 182.352 149.498 182.847 149.223 183.212C148.947 183.576 148.59 183.786 148.216 183.801Z" fill="white"/>
<path d="M156.52 194.519H133.682C133.506 194.523 133.331 194.472 133.17 194.371C133.008 194.27 132.864 194.12 132.746 193.933C132.627 193.745 132.538 193.524 132.484 193.283C132.431 193.042 132.413 192.788 132.433 192.536C132.474 192 132.649 191.504 132.926 191.139C133.203 190.774 133.563 190.566 133.938 190.553H156.753C156.929 190.55 157.104 190.601 157.266 190.702C157.427 190.803 157.573 190.952 157.691 191.14C157.81 191.327 157.9 191.548 157.955 191.789C158.01 192.03 158.028 192.284 158.01 192.536C157.969 193.069 157.796 193.562 157.522 193.926C157.249 194.291 156.893 194.501 156.52 194.519Z" fill="white"/>
<path d="M150.241 205.247H133.006C132.829 205.252 132.653 205.202 132.491 205.102C132.329 205.002 132.183 204.852 132.064 204.665C131.945 204.477 131.855 204.255 131.801 204.013C131.747 203.772 131.729 203.516 131.749 203.264C131.79 202.728 131.965 202.231 132.242 201.867C132.519 201.502 132.878 201.294 133.254 201.281H150.489C150.666 201.276 150.841 201.326 151.004 201.426C151.166 201.527 151.312 201.676 151.431 201.863C151.55 202.051 151.639 202.273 151.694 202.515C151.748 202.756 151.766 203.012 151.746 203.264C151.705 203.8 151.53 204.297 151.253 204.661C150.976 205.026 150.616 205.234 150.241 205.247Z" fill="white"/>
<path d="M138.174 215.975H132.323C132.147 215.978 131.972 215.927 131.81 215.826C131.649 215.725 131.503 215.576 131.385 215.388C131.266 215.201 131.176 214.98 131.121 214.739C131.066 214.498 131.048 214.244 131.066 213.992C131.108 213.454 131.284 212.956 131.563 212.591C131.841 212.226 132.203 212.019 132.58 212.009H138.423C138.6 212.004 138.775 212.053 138.937 212.154C139.1 212.254 139.245 212.403 139.364 212.591C139.483 212.779 139.573 213.001 139.628 213.242C139.682 213.484 139.7 213.739 139.68 213.992C139.639 214.528 139.463 215.024 139.187 215.389C138.91 215.754 138.55 215.962 138.174 215.975Z" fill="white"/>
<path d="M154.479 226.692H131.65C131.473 226.697 131.297 226.647 131.135 226.547C130.972 226.446 130.827 226.297 130.708 226.109C130.589 225.922 130.499 225.7 130.445 225.458C130.39 225.216 130.373 224.961 130.392 224.709C130.434 224.173 130.609 223.676 130.886 223.311C131.163 222.947 131.522 222.739 131.898 222.726H154.736C154.912 222.723 155.086 222.773 155.248 222.874C155.409 222.975 155.554 223.125 155.672 223.312C155.79 223.5 155.879 223.721 155.933 223.962C155.987 224.203 156.005 224.457 155.985 224.709C155.944 225.245 155.768 225.741 155.492 226.106C155.215 226.471 154.855 226.679 154.479 226.692Z" fill="white"/>
<path d="M144.81 237.42H130.966C130.789 237.425 130.613 237.376 130.451 237.275C130.289 237.175 130.143 237.026 130.024 236.838C129.905 236.65 129.815 236.428 129.761 236.187C129.707 235.945 129.689 235.69 129.709 235.437C129.75 234.901 129.925 234.405 130.202 234.04C130.479 233.675 130.838 233.467 131.214 233.454H145.058C145.235 233.45 145.41 233.499 145.573 233.6C145.735 233.7 145.881 233.849 146 234.037C146.119 234.225 146.208 234.447 146.263 234.688C146.317 234.93 146.335 235.185 146.315 235.437C146.274 235.974 146.098 236.47 145.822 236.835C145.545 237.199 145.185 237.407 144.81 237.42Z" fill="white"/>
<path d="M153.12 248.183H130.29C130.113 248.187 129.938 248.138 129.775 248.037C129.613 247.937 129.467 247.788 129.348 247.6C129.229 247.412 129.14 247.19 129.085 246.949C129.031 246.707 129.013 246.452 129.033 246.2C129.076 245.665 129.252 245.172 129.529 244.809C129.805 244.447 130.164 244.24 130.538 244.228H153.376C153.551 244.225 153.725 244.275 153.886 244.376C154.047 244.476 154.191 244.624 154.309 244.811C154.427 244.997 154.516 245.217 154.571 245.456C154.625 245.696 154.644 245.949 154.625 246.2C154.584 246.736 154.409 247.232 154.132 247.597C153.855 247.961 153.495 248.17 153.12 248.183Z" fill="white"/>
</g>
<path d="M196.507 161.977L191.548 155.794L189.22 167.18C189.22 167.18 194.256 171.101 195.994 167.503L196.507 161.977Z" fill="white"/>
<path d="M186.155 155.349L184.541 164.896L189.228 167.18L191.548 155.795L186.155 155.349Z" fill="white"/>
</svg>
