<svg width="409" height="438" viewBox="0 0 409 438" fill="none" xmlns="http://www.w3.org/2000/svg">
<path d="M409 384.712H0V385.006H409V384.712Z" fill="#EBEBEB"/>
<path d="M368.019 403.607H340.927V403.901H368.019V403.607Z" fill="#EBEBEB"/>
<path d="M270.938 406.802H263.83V407.096H270.938V406.802Z" fill="#EBEBEB"/>
<path d="M340.108 392.708H324.411V393.002H340.108V392.708Z" fill="#EBEBEB"/>
<path d="M78.2403 394.683H42.9109V394.976H78.2403V394.683Z" fill="#EBEBEB"/>
<path d="M90.7087 394.683H85.5308V394.976H90.7087V394.683Z" fill="#EBEBEB"/>
<path d="M184.173 399.638H107.543V399.931H184.173V399.638Z" fill="#EBEBEB"/>
<path d="M193.865 332.336H35.9172C34.6799 332.333 33.494 331.625 32.6198 330.368C31.7456 329.111 31.2546 327.407 31.2546 325.631V6.88015C31.2654 5.11398 31.7611 3.42522 32.6341 2.18071C33.5072 0.936191 34.6869 0.236424 35.9172 0.233398H193.865C195.104 0.233398 196.292 0.939866 197.168 2.19739C198.044 3.45491 198.536 5.16047 198.536 6.93887V325.631C198.536 327.409 198.044 329.115 197.168 330.372C196.292 331.63 195.104 332.336 193.865 332.336ZM35.9172 0.468267C34.7341 0.471378 33.6002 1.14828 32.7644 2.35041C31.9286 3.55253 31.4591 5.18165 31.4591 6.88015V325.631C31.4591 327.329 31.9286 328.958 32.7644 330.161C33.6002 331.363 34.7341 332.04 35.9172 332.043H193.865C195.049 332.04 196.184 331.363 197.021 330.161C197.858 328.959 198.329 327.33 198.331 325.631V6.88015C198.329 5.18057 197.858 3.55148 197.021 2.34969C196.184 1.1479 195.049 0.471371 193.865 0.468267H35.9172Z" fill="#EBEBEB"/>
<path d="M370.808 332.336H212.852C211.614 332.333 210.427 331.626 209.552 330.369C208.676 329.112 208.183 327.408 208.181 325.631V6.88015C208.194 5.11291 208.692 3.42417 209.566 2.17997C210.44 0.93578 211.621 0.236391 212.852 0.233398H370.808C372.037 0.23951 373.214 0.940643 374.085 2.18483C374.957 3.42902 375.451 5.11601 375.462 6.88015V325.631C375.462 327.405 374.972 329.107 374.1 330.364C373.227 331.621 372.044 332.33 370.808 332.336ZM212.852 0.468267C211.668 0.471371 210.533 1.1479 209.696 2.34969C208.859 3.55148 208.388 5.18057 208.386 6.88015V325.631C208.388 327.33 208.859 328.959 209.696 330.161C210.533 331.363 211.668 332.04 212.852 332.043H370.808C371.992 332.04 373.126 331.363 373.963 330.161C374.801 328.959 375.272 327.33 375.274 325.631V6.88015C375.272 5.18057 374.801 3.55148 373.963 2.34969C373.126 1.1479 371.992 0.471371 370.808 0.468267H212.852Z" fill="#EBEBEB"/>
<path d="M134.554 12.8584H76.271V296.708H134.554V12.8584Z" fill="#FAFAFA"/>
<path d="M125.874 12.8584H122.471L102.144 296.708H105.546L125.874 12.8584Z" fill="#F5F5F5"/>
<path d="M133.522 13.9497H75.8942V16.451H133.522V13.9497Z" fill="#E0E0E0"/>
<path d="M133.522 294.218H75.8942V299.573H133.522V294.218Z" fill="#EBEBEB"/>
<path d="M132.566 299.336H78.1121V299.571H132.566V299.336Z" fill="#EBEBEB"/>
<path d="M78.1107 13.9493H132.565V299.337H135.829V10.438H74.8469V299.337H78.1107V13.9493Z" fill="#EBEBEB"/>
<path d="M199.413 12.8584H141.131V296.708H199.413V12.8584Z" fill="#FAFAFA"/>
<path d="M183.24 12.8584H164.664L144.336 296.708H162.913L183.24 12.8584Z" fill="#F5F5F5"/>
<path d="M200.018 13.9497H140.754V16.451H200.018V13.9497Z" fill="#E0E0E0"/>
<path d="M200.018 294.218H140.754V299.573H200.018V294.218Z" fill="#EBEBEB"/>
<path d="M197.424 299.336H142.97V299.571H197.424V299.336Z" fill="#EBEBEB"/>
<path d="M142.969 13.9493H197.424V299.337H200.679V10.438H139.706V299.337H142.969V13.9493Z" fill="#EBEBEB"/>
<path d="M262.627 12.8584H205.98V296.708H262.627V12.8584Z" fill="#FAFAFA"/>
<path d="M238.078 12.8584H234.675L214.348 296.708H217.751L238.078 12.8584Z" fill="#F5F5F5"/>
<path d="M263.24 13.9497H205.612V16.451H263.24V13.9497Z" fill="#E0E0E0"/>
<path d="M263.24 294.218H205.612V299.573H263.24V294.218Z" fill="#EBEBEB"/>
<path d="M262.284 299.336H207.829V299.571H262.284V299.336Z" fill="#EBEBEB"/>
<path d="M207.828 13.9493H262.274V299.337H265.538V10.438H204.564V299.337H207.828V13.9493Z" fill="#EBEBEB"/>
<path d="M329.122 12.8584H270.84V296.708H329.122V12.8584Z" fill="#FAFAFA"/>
<path d="M323.423 12.8584H304.846L284.51 296.708H303.095L323.423 12.8584Z" fill="#F5F5F5"/>
<path d="M328.093 13.9497H270.465V16.451H328.093V13.9497Z" fill="#E0E0E0"/>
<path d="M328.093 294.218H270.465V299.573H328.093V294.218Z" fill="#EBEBEB"/>
<path d="M272.681 13.9493H327.136V299.337H330.4V10.438H269.426V299.337H272.681V13.9493Z" fill="#EBEBEB"/>
<path d="M327.135 299.336H272.681V299.571H327.135V299.336Z" fill="#EBEBEB"/>
<path d="M120.607 231.415H95.3059V294.23H120.607V231.415Z" fill="#EBEBEB"/>
<path d="M115.746 222.627V238.387H113.758H102.159H100.163V222.627H115.746Z" fill="#EBEBEB"/>
<path d="M115.748 238.39H118.987V233.739H115.748V238.39Z" fill="#FAFAFA"/>
<path d="M109.482 238.39H112.721V233.739H109.482V238.39Z" fill="#FAFAFA"/>
<path d="M103.208 238.39H106.447V233.739H103.208V238.39Z" fill="#FAFAFA"/>
<path d="M96.9324 238.39H100.172V233.739H96.9324V238.39Z" fill="#F0F0F0"/>
<path d="M115.748 246.833H118.987V242.182H115.748V246.833Z" fill="#F0F0F0"/>
<path d="M109.482 246.833H112.721V242.182H109.482V246.833Z" fill="#F0F0F0"/>
<path d="M103.208 246.833H106.447V242.182H103.208V246.833Z" fill="#FAFAFA"/>
<path d="M96.9324 246.833H100.172V242.182H96.9324V246.833Z" fill="#FAFAFA"/>
<path d="M115.748 255.286H118.987V250.635H115.748V255.286Z" fill="#F0F0F0"/>
<path d="M109.482 255.286H112.721V250.635H109.482V255.286Z" fill="#FAFAFA"/>
<path d="M103.208 255.286H106.447V250.635H103.208V255.286Z" fill="#FAFAFA"/>
<path d="M109.482 231.084H112.721V226.434H109.482V231.084Z" fill="#FAFAFA"/>
<path d="M103.208 231.084H106.447V226.434H103.208V231.084Z" fill="#F0F0F0"/>
<path d="M96.9324 255.286H100.172V250.635H96.9324V255.286Z" fill="#F0F0F0"/>
<path d="M115.748 263.744H118.987V259.093H115.748V263.744Z" fill="#FAFAFA"/>
<path d="M109.482 263.744H112.721V259.093H109.482V263.744Z" fill="#F0F0F0"/>
<path d="M103.208 263.744H106.447V259.093H103.208V263.744Z" fill="#F0F0F0"/>
<path d="M96.9324 263.744H100.172V259.093H96.9324V263.744Z" fill="#FAFAFA"/>
<path d="M115.748 272.198H118.987V267.548H115.748V272.198Z" fill="#F0F0F0"/>
<path d="M109.482 272.198H112.721V267.548H109.482V272.198Z" fill="#FAFAFA"/>
<path d="M103.208 272.198H106.447V267.548H103.208V272.198Z" fill="#FAFAFA"/>
<path d="M96.9326 272.198H100.172V267.548H96.9326V272.198Z" fill="#F0F0F0"/>
<path d="M115.748 280.642H118.987V275.992H115.748V280.642Z" fill="#F0F0F0"/>
<path d="M109.482 280.642H112.721V275.992H109.482V280.642Z" fill="#FAFAFA"/>
<path d="M103.208 280.642H106.447V275.992H103.208V280.642Z" fill="#F0F0F0"/>
<path d="M96.9326 280.642H100.172V275.992H96.9326V280.642Z" fill="#FAFAFA"/>
<path d="M115.748 289.098H118.987V284.448H115.748V289.098Z" fill="#FAFAFA"/>
<path d="M109.482 289.098H112.721V284.448H109.482V289.098Z" fill="#FAFAFA"/>
<path d="M103.208 289.098H106.447V284.448H103.208V289.098Z" fill="#F0F0F0"/>
<path d="M96.9324 289.098H100.172V284.448H96.9324V289.098Z" fill="#F0F0F0"/>
<path d="M298.849 254.292H276.182V294.219H298.849V254.292Z" fill="#F0F0F0"/>
<path d="M278.154 258.726H283.422H284.878H286.326V262.883H284.878H283.422H278.154V258.726Z" fill="#E6E6E6"/>
<path d="M278.154 266.796H283.422H284.878H286.326V270.965H284.878H283.422H278.154V266.796Z" fill="#FAFAFA"/>
<path d="M278.154 274.864H283.422H284.878H286.326V279.033H284.878H283.422H278.154V274.864Z" fill="#E6E6E6"/>
<path d="M278.154 282.933H283.422H285.663H286.326V287.102H285.663H283.422H278.154V282.933Z" fill="#FAFAFA"/>
<path d="M288.696 258.726H293.972H295.42H296.868V262.883H295.42H293.972H288.696V258.726Z" fill="#FAFAFA"/>
<path d="M288.696 266.796H293.972H296.017H296.868V270.965H296.017H293.972H288.696V266.796Z" fill="#FAFAFA"/>
<path d="M288.696 274.864H293.972H295.42H296.868V279.033H295.42H293.972H288.696V274.864Z" fill="#E6E6E6"/>
<path d="M288.696 282.933H293.972H295.42H296.868V287.102H295.42H293.972H288.696V282.933Z" fill="#FAFAFA"/>
<path d="M189.62 269.416H169.023V294.229H189.62V269.416Z" fill="#F0F0F0"/>
<path d="M185.669 276.296H188.303V272.515H185.669V276.296Z" fill="#FAFAFA"/>
<path d="M180.566 276.296H183.2V272.515H180.566V276.296Z" fill="#FAFAFA"/>
<path d="M175.454 276.296H178.088V272.515H175.454V276.296Z" fill="#FAFAFA"/>
<path d="M170.349 276.296H172.983V272.515H170.349V276.296Z" fill="#FAFAFA"/>
<path d="M185.669 283.167H188.303V279.386H185.669V283.167Z" fill="#FAFAFA"/>
<path d="M180.566 283.167H183.2V279.386H180.566V283.167Z" fill="#FAFAFA"/>
<path d="M175.454 283.167H178.088V279.386H175.454V283.167Z" fill="#FAFAFA"/>
<path d="M170.349 283.167H172.983V279.386H170.349V283.167Z" fill="#E6E6E6"/>
<path d="M185.669 290.048H188.303V286.267H185.669V290.048Z" fill="#E6E6E6"/>
<path d="M180.566 290.048H183.2V286.267H180.566V290.048Z" fill="#E6E6E6"/>
<path d="M175.454 290.048H178.088V286.267H175.454V290.048Z" fill="#FAFAFA"/>
<path d="M170.349 290.048H172.983V286.267H170.349V290.048Z" fill="#E6E6E6"/>
<path d="M166.233 251.071H145.636V294.228H166.233V251.071Z" fill="#F0F0F0"/>
<path d="M164.918 252.963H157.171V263.626H164.918V252.963Z" fill="#FAFAFA"/>
<path d="M154.699 252.963H146.953V263.626H154.699V252.963Z" fill="#FAFAFA"/>
<path d="M164.918 266.713H157.171V277.376H164.918V266.713Z" fill="#FAFAFA"/>
<path d="M154.699 266.713H146.953V277.376H154.699V266.713Z" fill="#FAFAFA"/>
<path d="M164.918 280.467H157.171V291.13H164.918V280.467Z" fill="#FAFAFA"/>
<path d="M154.699 280.467H146.953V291.13H154.699V280.467Z" fill="#FAFAFA"/>
<path d="M204.5 437.744C292.094 437.744 363.102 431.793 363.102 424.451C363.102 417.109 292.094 411.157 204.5 411.157C116.907 411.157 45.8984 417.109 45.8984 424.451C45.8984 431.793 116.907 437.744 204.5 437.744Z" fill="#F5F5F5"/>
<path d="M363.658 29.1348V287.771L341.981 318.891H216.492V29.1348H363.658Z" fill="#09A350"/>
<path opacity="0.8" d="M363.658 29.1348V287.771L341.981 318.891H216.492V29.1348H363.658Z" fill="white"/>
<path opacity="0.2" d="M341.98 318.89V288.686H363.657L342.406 319.195" fill="black"/>
<path opacity="0.1" d="M272.181 54.2537H231.592C231.021 54.2537 230.474 53.9283 230.071 53.3491C229.667 52.7699 229.441 51.9843 229.441 51.1652C229.44 50.7586 229.494 50.3557 229.602 49.9797C229.71 49.6036 229.868 49.2617 230.068 48.9737C230.268 48.6856 230.505 48.4571 230.767 48.3012C231.028 48.1452 231.309 48.0649 231.592 48.0649H272.181C272.753 48.068 273.3 48.3961 273.703 48.9771C274.106 49.5582 274.333 50.345 274.333 51.1652C274.333 51.9843 274.106 52.7699 273.702 53.3491C273.299 53.9283 272.752 54.2537 272.181 54.2537Z" fill="black"/>
<path opacity="0.1" d="M345.802 79.3123H247.952C247.669 79.3123 247.389 79.232 247.127 79.0761C246.866 78.9201 246.628 78.6916 246.428 78.4036C246.228 78.1155 246.07 77.7736 245.962 77.3976C245.855 77.0215 245.8 76.6186 245.801 76.212C245.801 75.3929 246.028 74.6073 246.431 74.0281C246.835 73.4489 247.382 73.1235 247.952 73.1235H345.802C346.372 73.1235 346.919 73.4489 347.323 74.0281C347.726 74.6073 347.953 75.3929 347.953 76.212C347.953 77.0322 347.727 77.819 347.323 78.4001C346.92 78.9812 346.373 79.3092 345.802 79.3123Z" fill="black"/>
<path opacity="0.1" d="M345.801 91.4891H231.592C231.021 91.4891 230.474 91.1637 230.071 90.5845C229.667 90.0052 229.441 89.2197 229.441 88.4005C229.44 87.994 229.494 87.5911 229.602 87.215C229.71 86.8389 229.868 86.4971 230.068 86.209C230.268 85.921 230.505 85.6925 230.767 85.5365C231.028 85.3806 231.309 85.3003 231.592 85.3003H345.801C346.372 85.3034 346.92 85.6314 347.323 86.2125C347.726 86.7936 347.953 87.5803 347.953 88.4005C347.953 89.2197 347.726 90.0052 347.322 90.5845C346.919 91.1637 346.372 91.4891 345.801 91.4891Z" fill="black"/>
<path opacity="0.1" d="M345.801 105.253H231.592C231.309 105.253 231.028 105.173 230.767 105.017C230.505 104.861 230.268 104.632 230.068 104.344C229.868 104.056 229.71 103.715 229.602 103.338C229.494 102.962 229.44 102.56 229.441 102.153C229.441 101.334 229.667 100.548 230.071 99.9691C230.474 99.3898 231.021 99.0645 231.592 99.0645H345.801C346.372 99.0645 346.919 99.3898 347.322 99.9691C347.726 100.548 347.953 101.334 347.953 102.153C347.953 102.973 347.726 103.76 347.323 104.341C346.92 104.922 346.372 105.25 345.801 105.253Z" fill="black"/>
<path opacity="0.1" d="M345.801 119.004H231.592C231.021 119.004 230.474 118.678 230.071 118.099C229.667 117.52 229.441 116.734 229.441 115.915C229.441 115.096 229.667 114.31 230.071 113.731C230.474 113.152 231.021 112.827 231.592 112.827H345.801C346.372 112.827 346.919 113.152 347.322 113.731C347.726 114.31 347.953 115.096 347.953 115.915C347.953 116.734 347.726 117.52 347.322 118.099C346.919 118.678 346.372 119.004 345.801 119.004Z" fill="black"/>
<path opacity="0.1" d="M345.801 132.768H231.592C231.021 132.768 230.474 132.443 230.071 131.864C229.667 131.285 229.441 130.499 229.441 129.68C229.44 129.274 229.495 128.871 229.602 128.496C229.71 128.121 229.868 127.78 230.068 127.492C230.268 127.205 230.506 126.978 230.767 126.823C231.029 126.669 231.309 126.59 231.592 126.591H345.801C346.372 126.591 346.919 126.917 347.322 127.496C347.726 128.075 347.953 128.861 347.953 129.68C347.953 130.499 347.726 131.285 347.322 131.864C346.919 132.443 346.372 132.768 345.801 132.768Z" fill="black"/>
<path opacity="0.1" d="M345.801 146.531H231.592C231.021 146.531 230.474 146.206 230.071 145.626C229.667 145.047 229.441 144.262 229.441 143.443C229.44 143.036 229.494 142.633 229.602 142.257C229.71 141.881 229.868 141.539 230.068 141.251C230.268 140.963 230.505 140.734 230.767 140.579C231.028 140.423 231.309 140.342 231.592 140.342H345.801C346.372 140.345 346.92 140.673 347.323 141.254C347.726 141.836 347.953 142.622 347.953 143.443C347.953 144.262 347.726 145.047 347.322 145.626C346.919 146.206 346.372 146.531 345.801 146.531Z" fill="black"/>
<path opacity="0.1" d="M345.809 154.105H231.592C230.404 154.105 229.441 155.488 229.441 157.193V157.205C229.441 158.911 230.404 160.294 231.592 160.294H345.809C346.998 160.294 347.961 158.911 347.961 157.205V157.193C347.961 155.488 346.998 154.105 345.809 154.105Z" fill="black"/>
<path opacity="0.1" d="M345.801 174.033H231.592C231.021 174.033 230.474 173.708 230.071 173.128C229.667 172.549 229.441 171.764 229.441 170.944C229.441 170.125 229.667 169.34 230.071 168.761C230.474 168.181 231.021 167.856 231.592 167.856H345.801C346.372 167.856 346.919 168.181 347.322 168.761C347.726 169.34 347.953 170.125 347.953 170.944C347.953 171.764 347.726 172.549 347.322 173.128C346.919 173.708 346.372 174.033 345.801 174.033Z" fill="black"/>
<path opacity="0.1" d="M345.801 187.808H231.592C231.021 187.808 230.474 187.482 230.071 186.903C229.667 186.324 229.441 185.539 229.441 184.719C229.44 184.313 229.495 183.911 229.602 183.536C229.71 183.16 229.868 182.819 230.068 182.532C230.268 182.245 230.506 182.017 230.767 181.863C231.029 181.708 231.309 181.629 231.592 181.631H345.801C346.372 181.631 346.919 181.956 347.322 182.535C347.726 183.115 347.953 183.9 347.953 184.719C347.953 185.539 347.726 186.324 347.322 186.903C346.919 187.482 346.372 187.808 345.801 187.808Z" fill="black"/>
<path opacity="0.1" d="M345.801 201.575H231.592C231.021 201.575 230.474 201.25 230.071 200.671C229.667 200.092 229.441 199.306 229.441 198.487C229.44 198.08 229.494 197.678 229.602 197.301C229.71 196.925 229.868 196.584 230.068 196.295C230.268 196.007 230.505 195.779 230.767 195.623C231.028 195.467 231.309 195.387 231.592 195.387H345.801C346.372 195.39 346.92 195.718 347.323 196.299C347.726 196.88 347.953 197.667 347.953 198.487C347.953 199.306 347.726 200.092 347.322 200.671C346.919 201.25 346.372 201.575 345.801 201.575Z" fill="black"/>
<path opacity="0.1" d="M345.801 215.338H231.592C231.309 215.338 231.028 215.258 230.767 215.102C230.505 214.946 230.268 214.717 230.068 214.429C229.868 214.141 229.71 213.8 229.602 213.423C229.494 213.047 229.44 212.645 229.441 212.238C229.441 211.419 229.667 210.633 230.071 210.054C230.474 209.475 231.021 209.149 231.592 209.149H345.801C346.372 209.149 346.919 209.475 347.322 210.054C347.726 210.633 347.953 211.419 347.953 212.238C347.953 213.058 347.726 213.845 347.323 214.426C346.92 215.007 346.372 215.335 345.801 215.338Z" fill="black"/>
<path opacity="0.1" d="M280.361 229.09H231.592C231.021 229.09 230.474 228.764 230.071 228.185C229.667 227.606 229.441 226.82 229.441 226.001C229.441 225.182 229.667 224.396 230.071 223.817C230.474 223.238 231.021 222.913 231.592 222.913H280.361C280.932 222.913 281.479 223.238 281.882 223.817C282.286 224.396 282.513 225.182 282.513 226.001C282.513 226.82 282.286 227.606 281.882 228.185C281.479 228.764 280.932 229.09 280.361 229.09Z" fill="black"/>
<path d="M337.016 92.5127L336.86 92.3248C336.419 91.8433 336.165 92.0077 335.961 91.08C335.813 90.4106 335.961 89.6591 335.789 88.9662C335.399 87.7735 334.954 86.6201 334.456 85.5137L332.443 80.3113C331.994 79.1594 331.245 78.3099 330.36 77.949C329.476 77.588 328.528 77.7449 327.723 78.3854L309.196 93.2056C309.122 94.0981 308.607 94.7087 308.5 95.5542C308.464 95.8041 308.473 96.0633 308.528 96.3063C308.582 96.5493 308.68 96.7677 308.811 96.94C308.603 96.9341 308.402 96.831 308.239 96.6464C307.134 95.7656 306.84 95.061 305.703 95.9535C305.212 96.3293 304.729 96.7286 304.247 97.1278L299.339 101.062L283.96 113.357L265.964 127.778L250.97 139.768C248.925 141.4 246.447 142.833 244.623 144.912C245.13 145.287 245.22 145.863 244.77 146.427L243.952 147.495C243.952 147.789 244.247 147.789 244.435 147.671L245.449 147.049C244.744 148.334 243.896 149.441 242.938 150.325C241.329 151.666 239.601 152.685 237.801 153.355L238.668 151.793C238.733 151.664 238.815 151.5 238.758 151.347C238.7 151.194 238.594 151.183 238.496 151.171C238.062 151.1 237.629 151.171 237.31 150.713C234.512 153.062 231.584 155.293 228.737 157.571C227.935 158.216 227.343 159.291 227.092 160.561C226.84 161.831 226.95 163.192 227.396 164.347L246.079 212.495C246.3 213.066 246.597 213.569 246.953 213.975C247.31 214.381 247.719 214.682 248.156 214.861C248.594 215.04 249.052 215.093 249.504 215.018C249.956 214.942 250.393 214.739 250.791 214.421L255.707 210.44C255.707 209.606 256.165 208.678 255.821 207.915C255.773 207.822 255.742 207.713 255.731 207.598C255.731 207.445 255.829 207.328 255.919 207.246C256.423 206.786 257 206.519 257.596 206.47C257.801 206.47 258.071 206.6 258.038 206.881C258.038 206.623 259.093 206.083 259.265 206.001C259.347 206.635 259.044 207.316 259.559 207.445C260.075 207.574 260.86 206.271 261.195 206.036L266.103 202.102L281.645 189.689L298.693 176.055L310.022 166.989C310.431 166.649 310.914 166.249 311.306 165.968C311.448 164.891 311.813 163.9 312.353 163.126C313.171 162.315 314.464 163.208 315.143 162.057C315.273 161.834 315.355 161.564 315.47 161.329C315.698 160.947 315.976 160.632 316.288 160.401C316.485 160.178 316.724 160.044 316.975 160.014C317.22 160.014 317.482 160.307 317.449 160.66C319.134 160.096 320.656 158.464 322.145 157.254C322.685 156.819 327.421 153.625 327.404 153.12C327.339 151.558 328.002 150.22 327.969 148.611C327.969 148.306 327.552 146.262 327.74 146.109C323.486 149.75 319.069 153.062 314.734 156.514C314.586 156.643 314.03 156.913 313.916 157.148C313.916 157.148 313.875 157.254 313.858 157.313L313.736 157.7V157.794C313.56 158.593 313.352 159.377 313.114 160.143C313.114 160.249 312.19 161.893 312.116 161.505C311.756 159.614 311.298 159.321 310.292 160.096L308.852 161.27L304.28 164.922L288.877 177.253L270.725 191.768L255.6 203.863L249.261 208.925C247.996 205.637 246.722 202.352 245.441 199.072L242.987 192.742C242.738 191.865 242.371 191.067 241.907 190.394C241.555 190.018 240.958 190.112 240.647 189.771C239.887 188.938 239.339 187.423 238.619 186.448C238.128 185.79 237.384 183.817 237.588 182.725C237.833 182.866 238.079 183.019 238.324 183.125C238.196 182.402 238.224 181.64 238.406 180.94C235.952 175.01 233.694 168.809 231.347 162.75L231.191 162.362L236.917 157.782L241.097 154.436C241.957 153.905 242.779 153.256 243.551 152.498C244.083 151.84 244.623 151.018 245.187 150.314C245.566 149.9 245.978 149.553 246.414 149.28L247.96 148.2C248.04 148.131 248.129 148.091 248.222 148.082C248.314 148.097 248.405 148.128 248.492 148.176C249.31 148.423 251.339 146.25 252.075 145.663L256.836 141.858L271.2 130.362L289.097 116.058L307.012 101.72L321.425 90.1993L328.787 84.3276L329.13 84.0575L337.09 104.573C337.582 105.956 338.37 107.076 339.339 107.767C339.666 107.92 340.034 108.249 339.993 108.73C339.953 109.212 339.462 109.611 339.576 110.104C339.691 110.598 340.321 110.41 340.468 110.856C340.615 111.302 340.214 112.03 340.263 112.641C340.432 113.372 340.684 114.058 341.008 114.672L343.323 120.65C344.615 123.961 345.899 127.285 347.2 130.632L333.049 141.952C333.119 142.033 333.177 142.133 333.22 142.246L333.294 142.516C333.575 142.659 333.849 142.832 334.112 143.033C334.225 143.123 334.318 143.257 334.382 143.418C334.445 143.58 334.476 143.763 334.472 143.949C334.47 144.132 334.434 144.311 334.368 144.468C334.302 144.625 334.208 144.754 334.096 144.841L333.229 145.546C333.198 145.818 333.11 146.071 332.977 146.27C332.844 146.469 332.672 146.606 332.484 146.661C332.383 146.674 332.282 146.674 332.182 146.661C332.096 146.752 331.997 146.815 331.892 146.845C331.788 146.875 331.68 146.873 331.576 146.838C331.391 146.756 331.235 146.575 331.141 146.332C331.046 146.089 331.02 145.803 331.069 145.534C331.103 145.413 331.147 145.299 331.2 145.194C331.138 145.022 331.11 144.83 331.118 144.638C331.127 144.445 331.172 144.26 331.249 144.101H330.987C330.84 144.101 330.709 143.984 330.57 143.925C329.834 144.578 329.262 145.548 328.934 146.697C328.898 146.759 328.881 146.839 328.885 146.92C328.885 147.084 329.065 147.096 329.171 147.166C329.417 147.331 329.359 147.848 329.237 148.188C329.114 148.529 328.967 148.963 329.13 149.268C329.192 149.371 329.261 149.466 329.335 149.55C329.687 150.126 329.147 151.793 330.006 151.112C329.945 150.749 329.983 150.367 330.112 150.044C330.257 149.717 330.482 149.478 330.742 149.374C331.378 149.153 332.027 149.019 332.681 148.975L349.736 135.282C350.538 134.637 351.13 133.562 351.381 132.292C351.633 131.022 351.523 129.661 351.077 128.506L350.979 128.26L343.274 108.401L338.824 96.9165C338.39 95.8243 338.006 94.6852 337.531 93.6048C337.401 93.2039 337.227 92.8353 337.016 92.5127Z" fill="#09A350"/>
<path d="M258.211 157.396C257.646 156.41 257.818 156.386 257.712 155.33C257.712 155.33 257.712 155.33 257.712 155.259L257.646 155.153L257.548 154.989C257.164 155.236 256.779 155.506 256.395 155.811L248.861 161.835L251.896 169.645C251.47 168.564 252.975 168.881 253.033 168.87C253.192 168.802 253.357 168.763 253.523 168.752C253.687 168.802 253.831 168.941 253.924 169.14C254.239 169.93 254.333 170.862 254.186 171.747C254.096 172.921 254.53 174.096 254.063 175.27C254.464 176.209 258.088 185.674 258.104 185.663L265.638 179.638C266.072 179.286 267.102 178.664 267.356 178.041C267.609 177.419 267.209 176.444 267.658 176.151C267.828 176.061 268.009 176.028 268.189 176.052C268.369 176.076 268.542 176.158 268.697 176.292C270.132 174.252 271.055 171.586 271.32 168.712C271.585 165.839 271.177 162.92 270.162 160.414C268.043 154.954 263.233 151.701 259.02 154.237C258.726 154.414 259.119 156.304 258.415 156.516C258.55 156.137 258.743 155.808 258.979 155.553M263.675 175.211L260.166 178.018C259.879 177.278 259.601 176.538 259.307 175.822C259.675 176.714 258.66 176.432 258.448 176.233C257.932 175.74 257.793 174.319 257.777 173.52C257.765 172.151 257.481 170.815 256.959 169.668C256.136 167.531 255.318 165.394 254.505 163.256L258.014 160.45C261.286 157.819 264.558 158.911 266.325 163.468C268.092 168.024 266.971 172.616 263.675 175.211Z" fill="#09A350"/>
<path d="M283.117 137.396C283.296 137.954 283.348 138.578 283.265 139.181C283.224 139.51 282.856 140.355 282.905 140.566C283.036 141.036 283.166 141.506 283.289 141.976C283.311 142.053 283.341 142.124 283.379 142.187C283.442 142.248 283.516 142.28 283.592 142.281C284.892 142.445 284.835 142.633 284.917 144.207C284.991 145.557 285.8 146.332 286.258 147.507C286.874 149.05 287.141 150.828 287.024 152.598C286.906 154.368 286.41 156.042 285.603 157.391C284.797 158.74 283.719 159.697 282.518 160.131C281.317 160.564 280.052 160.454 278.896 159.814C278.866 159.856 278.833 159.896 278.798 159.931C278.626 160.056 278.429 160.089 278.242 160.025C277.817 159.852 277.432 159.518 277.128 159.057C276.824 158.596 276.613 158.026 276.516 157.406C276.504 157.313 276.504 157.218 276.516 157.125C276.285 156.713 276.079 156.273 275.903 155.809C275.482 154.839 275.206 153.755 275.091 152.624C274.976 151.493 275.025 150.341 275.235 149.238C275.444 148.136 275.81 147.108 276.309 146.218C276.808 145.328 277.43 144.595 278.136 144.066C279.159 143.228 280.331 142.844 281.506 142.962L281.44 142.821C280.737 141.482 283.273 140.942 282.128 140.038C281.645 139.662 281.727 137.959 281.604 137.267C279.746 137.327 277.927 138.049 276.312 139.369C271.076 143.561 269.269 151.864 272.017 158.945C273.173 161.991 275.086 164.301 277.375 165.415C277.913 165.752 278.49 165.943 279.076 165.979C279.747 165.897 279.42 165.979 279.706 165.404C279.993 164.828 279.821 164.582 280.254 163.971C280.688 163.36 281.195 162.996 281.285 162.057C281.285 162.48 281.612 162.785 281.612 163.231C281.612 163.36 281.612 163.49 281.612 163.607C281.63 163.761 281.678 163.903 281.751 164.018C282.029 164.558 282.496 165.192 282.504 165.815C283.701 165.53 284.849 164.924 285.89 164.03C291.101 159.861 292.95 151.57 290.185 144.465C288.753 140.837 286.062 137.631 283.117 137.396Z" fill="#09A350"/>
<path d="M299.846 121.048L305.458 135.504L291.601 127.636L288.427 130.184C290.57 135.704 292.844 141.164 294.856 146.789C294.996 146.179 295.323 146.061 295.715 145.979C296.452 145.838 296.427 146.367 296.828 147.412C296.877 147.541 296.934 147.67 297.024 147.694C297.114 147.717 297.294 147.506 297.441 147.529C297.589 147.553 297.646 147.811 297.605 148.011C297.553 148.206 297.485 148.392 297.4 148.563C297.163 149.209 297.556 149.62 297.507 150.207C297.507 150.512 296.795 151.757 296.877 151.968L297.695 153.988L301.49 150.958L300.476 148.351H300.288C299.184 148.563 299.674 146.484 299.429 145.627C299.032 144.412 298.581 143.236 298.079 142.104L295.846 136.455L307.11 142.82C307.081 142.356 307.12 141.888 307.225 141.446C307.315 141.2 308.043 140.742 308.043 140.507C308.085 141.264 308.331 141.968 308.73 142.468C309.163 143.02 309.163 142.938 309.081 143.912L309.752 144.3L312.91 141.775L303.666 117.971L299.846 121.048Z" fill="#09A350"/>
<path d="M318.914 131.205L316.77 125.697L324.476 119.532L322.84 115.245L315.143 121.411L313.139 116.232L318.341 112.075C318.561 111.668 318.84 111.335 319.159 111.1C319.321 110.981 319.507 110.952 319.683 111.018L321.883 109.268C321.883 109.268 320.321 105.264 320.173 104.841C319.421 105.334 320.173 106.696 319.413 107.354C319.568 107.589 319.797 108.423 319.413 108.528C319.192 108.528 319.028 108.129 318.807 108.164C318.586 108.199 318.578 108.352 318.464 108.305C318.429 108.291 318.397 108.266 318.37 108.231C318.343 108.197 318.322 108.154 318.308 108.105C318.202 107.751 318.068 107.416 317.908 107.107C317.392 106.391 312.689 110.889 312.034 111.417L307.658 114.94L316.893 138.744L320.582 135.796L320.656 135.655C320.926 135.162 321.188 134.657 321.474 134.199C321.59 134.041 321.739 133.94 321.898 133.913C322.057 133.885 322.218 133.932 322.357 134.047C322.423 134.096 322.482 134.164 322.529 134.246L329.736 128.48L328.018 124.053L318.914 131.205Z" fill="#09A350"/>
<path d="M328.755 384.488C328.755 384.488 323.372 367.648 329.516 351.031C335.659 334.414 337.45 330.503 333.532 327.11C329.614 323.716 327.806 340.391 327.806 340.391C327.806 340.391 324.534 328.906 327.225 316.905C329.916 304.903 331.667 285.315 327.945 283.213C324.223 281.111 327.233 307.627 324.002 316.67C322.355 310.323 321.291 303.695 320.837 296.953C320.395 287.3 321.09 271.892 318.145 267.935C315.201 263.977 313.327 266.76 316.215 288.016C317.951 300.747 318.911 313.67 319.086 326.64C319.086 326.64 312.698 298.691 308.452 297.88C304.207 297.07 304.174 306.101 307.847 313.957C311.52 321.813 318.554 335.858 319.708 343.139C319.708 343.139 312.706 322.119 306.399 328.554C300.092 334.989 311.888 347.708 317.139 352.299C322.391 356.891 326.047 385.65 326.047 385.65L328.755 384.488Z" fill="#09A350"/>
<path opacity="0.2" d="M328.755 384.488C328.755 384.488 323.372 367.648 329.516 351.031C335.659 334.414 337.45 330.503 333.532 327.11C329.614 323.716 327.806 340.391 327.806 340.391C327.806 340.391 324.534 328.906 327.225 316.905C329.916 304.903 331.667 285.315 327.945 283.213C324.223 281.111 327.233 307.627 324.002 316.67C322.355 310.323 321.291 303.695 320.837 296.953C320.395 287.3 321.09 271.892 318.145 267.935C315.201 263.977 313.327 266.76 316.215 288.016C317.951 300.747 318.911 313.67 319.086 326.64C319.086 326.64 312.698 298.691 308.452 297.88C304.207 297.07 304.174 306.101 307.847 313.957C311.52 321.813 318.554 335.858 319.708 343.139C319.708 343.139 312.706 322.119 306.399 328.554C300.092 334.989 311.888 347.708 317.139 352.299C322.391 356.891 326.047 385.65 326.047 385.65L328.755 384.488Z" fill="black"/>
<path d="M324.499 391.405C324.499 391.405 329.743 374.436 323.461 357.96C317.178 341.484 315.354 337.608 319.248 334.121C323.142 330.633 325.072 347.285 325.072 347.285C325.072 347.285 328.279 335.741 325.457 323.798C322.634 311.855 320.753 292.302 324.459 290.13C328.164 287.957 325.375 314.533 328.679 323.493C330.275 317.117 331.282 310.468 331.673 303.717C332.041 294.052 331.215 278.657 334.127 274.64C337.039 270.624 338.945 273.325 336.23 294.686C334.602 307.446 333.75 320.385 333.686 333.357C333.686 333.357 339.837 305.279 344.115 304.375C348.393 303.47 348.459 312.513 344.859 320.44C341.26 328.366 334.307 342.576 333.203 349.798C333.203 349.798 340.033 328.66 346.389 334.943C352.745 341.225 341.064 354.202 335.853 358.899C330.643 363.597 327.199 392.462 327.199 392.462L324.499 391.405Z" fill="#09A350"/>
<path d="M348.663 379.31H305.391L308.892 423.77H345.162L348.663 379.31Z" fill="#263238"/>
<path d="M127.304 99.7593H98.7476C97.6477 99.7593 96.5928 100.387 95.815 101.503C95.0373 102.62 94.6003 104.134 94.6003 105.713V145.57C94.6003 147.149 95.0373 148.664 95.815 149.78C96.5928 150.897 97.6477 151.524 98.7476 151.524H107.885L101.733 163.526L112.367 151.524H127.296C128.396 151.524 129.451 150.897 130.228 149.78C131.006 148.664 131.443 147.149 131.443 145.57V105.713C131.443 104.136 131.007 102.624 130.231 101.507C129.455 100.391 128.402 99.7624 127.304 99.7593Z" fill="#09A350"/>
<path opacity="0.6" d="M127.304 99.7593H98.7476C97.6477 99.7593 96.5928 100.387 95.815 101.503C95.0373 102.62 94.6003 104.134 94.6003 105.713V145.57C94.6003 147.149 95.0373 148.664 95.815 149.78C96.5928 150.897 97.6477 151.524 98.7476 151.524H107.885L101.733 163.526L112.367 151.524H127.296C128.396 151.524 129.451 150.897 130.228 149.78C131.006 148.664 131.443 147.149 131.443 145.57V105.713C131.443 104.136 131.007 102.624 130.231 101.507C129.455 100.391 128.402 99.7624 127.304 99.7593Z" fill="white"/>
<path d="M113.03 144.256C120.191 144.256 125.996 135.923 125.996 125.643C125.996 115.363 120.191 107.03 113.03 107.03C105.87 107.03 100.065 115.363 100.065 125.643C100.065 135.923 105.87 144.256 113.03 144.256Z" fill="#09A350"/>
<path opacity="0.2" d="M123.847 129.295C125.258 120.717 121.557 112.121 115.582 110.097C109.606 108.072 103.619 113.385 102.209 121.963C100.798 130.541 104.499 139.137 110.474 141.162C116.45 143.186 122.437 137.873 123.847 129.295Z" fill="black"/>
<path d="M111.648 133.262C111.498 133.266 111.348 133.228 111.207 133.15C111.067 133.071 110.939 132.953 110.83 132.804L106.11 126.169C105.893 125.866 105.769 125.453 105.764 125.019C105.76 124.585 105.875 124.167 106.086 123.855C106.296 123.544 106.584 123.365 106.886 123.358C107.189 123.352 107.48 123.518 107.697 123.82L111.566 129.257L118.258 118.535C118.463 118.239 118.739 118.066 119.031 118.053C119.322 118.041 119.605 118.189 119.822 118.468C120.04 118.747 120.174 119.134 120.198 119.551C120.222 119.968 120.133 120.382 119.951 120.708L112.466 132.698C112.363 132.864 112.237 132.997 112.096 133.09C111.956 133.183 111.803 133.233 111.648 133.238V133.262Z" fill="white"/>
<path d="M75.9922 397.066L99.5588 393.73V355.576H108.9V393.719L132.565 397.066C133.699 397.223 134.751 397.982 135.517 399.194C136.282 400.405 136.705 401.983 136.704 403.618V408.703H71.8532V403.618C71.8519 401.983 72.2753 400.405 73.0406 399.194C73.8059 397.982 74.8583 397.223 75.9922 397.066Z" fill="#263238"/>
<path opacity="0.1" d="M75.9922 397.066L99.5588 393.73V355.576H108.9V393.719L132.565 397.066C133.699 397.223 134.751 397.982 135.517 399.194C136.282 400.405 136.705 401.983 136.704 403.618V408.703H71.8532V403.618C71.8519 401.983 72.2753 400.405 73.0406 399.194C73.8059 397.982 74.8583 397.223 75.9922 397.066Z" fill="white"/>
<path d="M134.21 423.77C137.584 423.77 140.32 419.842 140.32 414.997C140.32 410.153 137.584 406.225 134.21 406.225C130.835 406.225 128.099 410.153 128.099 414.997C128.099 419.842 130.835 423.77 134.21 423.77Z" fill="#263238"/>
<path d="M74.3486 423.77C77.7233 423.77 80.4591 419.842 80.4591 414.997C80.4591 410.153 77.7233 406.225 74.3486 406.225C70.9739 406.225 68.2382 410.153 68.2382 414.997C68.2382 419.842 70.9739 423.77 74.3486 423.77Z" fill="#263238"/>
<path d="M107.123 365.795H101.299C100.403 365.795 99.5434 365.284 98.9099 364.374C98.2763 363.465 97.9204 362.231 97.9204 360.945V323.437H110.501V360.945C110.501 362.231 110.145 363.465 109.512 364.374C108.878 365.284 108.019 365.795 107.123 365.795Z" fill="#263238"/>
<path opacity="0.2" d="M107.123 365.795H101.299C100.403 365.795 99.5434 365.284 98.9099 364.374C98.2763 363.465 97.9204 362.231 97.9204 360.945V323.437H110.501V360.945C110.501 362.231 110.145 363.465 109.512 364.374C108.878 365.284 108.019 365.795 107.123 365.795Z" fill="white"/>
<path d="M71.6066 249.922C71.6066 249.922 78.6087 312.608 92.4329 323.447H78.3797C78.3797 323.447 64.4737 302.074 60.2855 249.922H71.6066Z" fill="#263238"/>
<path opacity="0.1" d="M71.6066 249.922C71.6066 249.922 78.6087 312.608 92.4329 323.447H78.3797C78.3797 323.447 64.4737 302.074 60.2855 249.922H71.6066Z" fill="white"/>
<path d="M77.7107 314.579H132.451C133.536 314.579 134.576 315.197 135.343 316.298C136.11 317.4 136.541 318.893 136.541 320.45V328.307H73.6207V320.45C73.6207 318.893 74.0516 317.4 74.8187 316.298C75.5857 315.197 76.626 314.579 77.7107 314.579Z" fill="#09A350"/>
<path d="M137.489 321.44H72.613C71.705 321.44 70.9689 322.497 70.9689 323.8V325.938C70.9689 327.241 71.705 328.298 72.613 328.298H137.489C138.397 328.298 139.133 327.241 139.133 325.938V323.8C139.133 322.497 138.397 321.44 137.489 321.44Z" fill="#263238"/>
<path opacity="0.6" d="M137.489 321.44H72.613C71.705 321.44 70.9689 322.497 70.9689 323.8V325.938C70.9689 327.241 71.705 328.298 72.613 328.298H137.489C138.397 328.298 139.133 327.241 139.133 325.938V323.8C139.133 322.497 138.397 321.44 137.489 321.44Z" fill="white"/>
<path d="M58.6267 262.677H81.1135C87.7066 262.677 91.9847 255.091 90.6759 245.731L88.9254 233.236C87.6166 223.841 81.2117 216.302 74.6268 216.302H52.14C45.5469 216.302 41.2687 223.888 42.5775 233.236L44.3281 245.731C45.6369 255.067 52.0336 262.677 58.6267 262.677Z" fill="#09A350"/>
<path d="M177.948 367.673L172.795 370.574L169.089 360.545L165.719 351.42L171.429 346.512L174.881 357.703L177.948 367.673Z" fill="#E4897B"/>
<path opacity="0.2" d="M174.881 357.703L169.089 360.545L165.719 351.42L171.429 346.512L174.881 357.703Z" fill="black"/>
<path d="M173.808 352.231L166.798 357.633C166.798 357.633 140.303 290.754 136.229 291.318C132.156 291.881 93.5054 327.229 81.718 314.17C69.9306 301.112 81.399 261.795 81.399 261.795C81.399 261.795 105.784 251.79 108.393 259.446C109.081 261.739 109.665 264.092 110.143 266.492C110.659 268.9 111.051 270.931 111.051 270.931C111.796 270.497 135.878 256.322 146.626 263.885C157.596 271.659 173.808 352.231 173.808 352.231Z" fill="#263238"/>
<path opacity="0.3" d="M173.808 352.231L166.798 357.633C166.798 357.633 140.303 290.754 136.229 291.318C132.156 291.881 93.5054 327.229 81.718 314.17C69.9306 301.112 81.399 261.795 81.399 261.795C81.399 261.795 105.784 251.79 108.393 259.446C109.081 261.739 109.665 264.092 110.143 266.492C110.659 268.9 111.051 270.931 111.051 270.931C111.796 270.497 135.878 256.322 146.626 263.885C157.596 271.659 173.808 352.231 173.808 352.231Z" fill="white"/>
<path d="M135.723 406.767L130.226 405.863L130.193 394.73L130.185 384.513L136.835 384.067L136.246 396.08L135.723 406.767Z" fill="#E4897B"/>
<path opacity="0.2" d="M136.23 396.326L130.177 394.94V384.618L136.827 384.113L136.23 396.326Z" fill="black"/>
<path d="M163.372 354.308L173.629 346.934L174.701 353.181L166.93 358.935L163.372 354.308Z" fill="#09A350"/>
<path d="M99.9265 314.276C99.9265 314.276 101.612 314.006 127.534 307.112C127.534 307.112 128.123 354.696 129.35 390.173L137.334 390.537C137.334 390.537 148.786 311.857 147.436 299.925C146.086 287.994 136.238 286.432 136.238 286.432C136.238 286.432 119.133 305.562 99.9265 314.276Z" fill="#263238"/>
<path opacity="0.4" d="M99.9265 314.276C99.9265 314.276 101.612 314.006 127.534 307.112C127.534 307.112 128.123 354.696 129.35 390.173L137.334 390.537C137.334 390.537 148.786 311.857 147.436 299.925C146.086 287.994 136.238 286.432 136.238 286.432C136.238 286.432 119.133 305.562 99.9265 314.276Z" fill="white"/>
<path opacity="0.3" d="M99.9265 314.276C99.9265 314.276 101.612 314.006 127.534 307.112C127.534 307.112 128.123 354.696 129.35 390.173L137.334 390.537C137.334 390.537 148.786 311.857 147.436 299.925C146.086 287.994 136.238 286.432 136.238 286.432C136.238 286.432 119.133 305.562 99.9265 314.276Z" fill="black"/>
<path d="M127.885 387.002L138.773 386.638L137.284 393.073L128.45 393.19L127.885 387.002Z" fill="#09A350"/>
<path opacity="0.3" d="M111.084 270.954L96.9573 278.176C96.9573 278.176 104.385 270.214 110.176 266.515C110.692 268.922 111.084 270.954 111.084 270.954Z" fill="black"/>
<path d="M79.764 259.375L80.2876 265L106.766 256.932L106.153 250.286L79.764 259.375Z" fill="#263238"/>
<path opacity="0.2" d="M79.764 259.375L80.2876 265L106.766 256.932L106.153 250.286L79.764 259.375Z" fill="black"/>
<path d="M88.5369 255.288L87.2179 255.64L88.4638 265.281L89.7828 264.93L88.5369 255.288Z" fill="#263238"/>
<path d="M100.083 252.848L94.3054 254.717L95.2927 261.007L101.07 259.138L100.083 252.848Z" fill="white"/>
<path d="M103.798 248.918L102.483 249.265L103.712 258.875L105.027 258.528L103.798 248.918Z" fill="#263238"/>
<path opacity="0.3" d="M88.5369 255.288L87.2179 255.64L88.4638 265.281L89.7828 264.93L88.5369 255.288Z" fill="white"/>
<path opacity="0.3" d="M103.798 248.918L102.483 249.265L103.712 258.875L105.027 258.528L103.798 248.918Z" fill="white"/>
<path d="M188.189 380.801C187.329 380.423 186.427 380.275 185.53 380.367C185.53 380.367 182.201 378.371 178.168 368.87L174.733 369.516C174.154 369.641 173.617 370.017 173.193 370.595C172.768 371.173 172.478 371.923 172.36 372.745C172.336 372.979 172.336 373.216 172.36 373.45C172.508 374.642 172.71 375.819 172.966 376.973C173.847 380.79 174.887 384.528 176.082 388.164L176.638 387.836L174.863 380.719C174.274 378.288 176.328 380.343 177.416 382.692C178.503 385.041 180.05 387.319 183.722 385.323C187.992 382.927 189.686 381.659 188.189 380.801Z" fill="#263238"/>
<path d="M177.309 366.348C177.309 366.348 182.823 378.373 185.53 380.37C185.53 380.37 182.496 383.893 178.446 378.232C173.219 370.963 172.344 373.453 172.344 373.453C172.298 372.029 172.344 370.602 172.483 369.19C172.9 366.43 177.309 366.348 177.309 366.348Z" fill="#E4897B"/>
<path d="M143.967 420.765C143.184 420.117 142.324 419.679 141.431 419.474C141.431 419.474 138.528 416.409 136.196 405.816L132.753 405.276C132.168 405.196 131.581 405.38 131.073 405.801C130.564 406.221 130.159 406.859 129.914 407.625C129.841 407.835 129.791 408.061 129.767 408.294C129.71 409.494 129.71 410.699 129.767 411.899C129.989 415.907 130.382 419.892 130.945 423.83L131.542 423.701L131.01 416.162C130.838 413.602 132.499 416.303 133.17 418.957C133.84 421.611 134.961 424.347 138.855 423.654C143.403 422.774 145.252 422.116 143.967 420.765Z" fill="#263238"/>
<path d="M135.789 403.032C135.789 403.032 139.159 416.596 141.458 419.473C141.458 419.473 137.932 421.821 134.914 414.987C131.028 406.144 129.777 408.269 129.777 408.269C129.96 406.873 130.233 405.505 130.595 404.183C131.462 401.599 135.789 403.032 135.789 403.032Z" fill="#E4897B"/>
<path d="M73.9955 163.469L67.0753 165.465C66.8049 165.792 66.4855 166.025 66.1421 166.145C65.7987 166.265 65.4405 166.27 65.0957 166.158C63.0343 164.984 60.065 161.543 59.6887 160.286C59.1325 158.513 59.6887 153.311 61.1448 152.371C62.6008 151.432 67.6151 160.122 67.6151 160.122L75.0508 157.715L73.9955 163.469Z" fill="#E4897B"/>
<path d="M95.8195 196.49C95.8195 196.49 95.1896 164.301 92.5966 162.927C90.0035 161.553 70.5106 165.393 70.5106 165.393L70.0361 158.042C70.0361 158.042 92.7193 153.027 97.1119 155.999C101.505 158.97 102.952 206.941 102.151 216.183L95.8195 196.49Z" fill="#09A350"/>
<path opacity="0.6" d="M95.8195 196.49C95.8195 196.49 95.1896 164.301 92.5966 162.927C90.0035 161.553 70.5106 165.393 70.5106 165.393L70.0361 158.042C70.0361 158.042 92.7193 153.027 97.1119 155.999C101.505 158.97 102.952 206.941 102.151 216.183L95.8195 196.49Z" fill="white"/>
<path d="M70.847 166.097L69.4891 158.018L71.436 157.008L72.6712 166.344L70.847 166.097Z" fill="#09A350"/>
<path opacity="0.7" d="M70.847 166.097L69.4891 158.018L71.436 157.008L72.6712 166.344L70.847 166.097Z" fill="white"/>
<path d="M95.7054 192.473C95.7054 192.473 93.9631 202.267 85.5704 205.39C77.1777 208.514 67.8934 200.352 67.8934 200.352L69.7421 223.722L80.0162 260.537L106.274 250.708C106.274 250.708 104.703 207.88 95.7054 192.473Z" fill="#09A350"/>
<path opacity="0.7" d="M95.7054 192.473C95.7054 192.473 93.9631 202.267 85.5704 205.39C77.1777 208.514 67.8934 200.352 67.8934 200.352L69.7421 223.722L80.0162 260.537L106.274 250.708C106.274 250.708 104.703 207.88 95.7054 192.473Z" fill="white"/>
<path opacity="0.6" d="M100.27 231.308L103.343 229.916C103.684 229.762 103.873 229.241 103.765 228.752L101.934 220.42C101.827 219.932 101.464 219.66 101.123 219.815L98.0499 221.207C97.7096 221.361 97.5207 221.882 97.6281 222.371L99.4591 230.703C99.5665 231.191 99.9295 231.463 100.27 231.308Z" fill="#09A350"/>
<path opacity="0.2" d="M99.6443 228.769L103.139 227.186L101.63 220.321L98.1356 221.904L99.6443 228.769Z" fill="black"/>
<path d="M99.5282 217.837L98.7559 218.187L99.6443 222.229L100.417 221.88L99.5282 217.837Z" fill="#263238"/>
<path d="M77.8586 155.893C71.3883 155.893 67.1183 165.734 68.6316 181.341C70.1449 196.948 76.2063 201.446 76.2063 201.446L75.8218 197.676C82.5508 199.868 89.4883 200.424 96.3454 199.32C96.3454 199.32 93.2207 186.59 94.235 173.59C94.235 173.59 96.2882 155.87 77.8586 155.893Z" fill="#263238"/>
<path opacity="0.2" d="M90.7067 202.22L93.3489 216.312L88.7026 211.228C88.7026 211.228 93.2261 226.071 94.4286 234.714C94.4286 234.714 90.5186 220 87.1484 211.932L85.177 220.012L77.2506 208.421C77.2506 208.421 84.2527 200.717 90.7067 202.22Z" fill="black"/>
<path d="M86.8473 206.766L78.7818 207.118C82.3565 200.554 75.8943 189.116 75.8943 189.116L83.8616 191.594C85.7594 202.914 89.0395 203.255 89.0395 203.255L86.8473 206.766Z" fill="#E4897B"/>
<path opacity="0.2" d="M86.0866 199.72C83.009 199.35 80.1465 197.304 78.0865 194.001C77.4501 192.304 76.7168 190.686 75.8943 189.163L83.8616 191.652C84.2835 194.501 85.0356 197.228 86.0866 199.72Z" fill="black"/>
<path d="M83.8532 160.672C90.798 161.506 92.7285 167.107 92.6385 177.453C92.5322 190.371 90.0128 199.261 81.4892 195.479C69.9063 190.347 72.3112 159.286 83.8532 160.672Z" fill="#E4897B"/>
<path d="M88.1799 176.385C88.6502 177.942 89.2489 179.413 89.9632 180.766C89.7345 181.151 89.4368 181.438 89.1022 181.598C88.7677 181.757 88.4091 181.782 88.0654 181.67L88.1799 176.385Z" fill="#DE5753"/>
<path d="M83.4762 174.72L84.9817 174.016C84.9817 174.016 84.1799 175.731 83.4762 174.72Z" fill="#263238"/>
<path d="M84.0012 174.469C83.7214 174.272 83.4011 174.227 83.1 174.344C82.799 174.461 82.5378 174.731 82.3652 175.103C82.622 174.935 82.901 174.848 83.1832 174.848C83.4655 174.848 83.7444 174.935 84.0012 175.103V174.469Z" fill="#263238"/>
<path d="M81.2033 169.715C81.1259 169.712 81.0525 169.666 80.9988 169.586C80.9703 169.547 80.9476 169.501 80.9321 169.449C80.9166 169.398 80.9086 169.342 80.9086 169.286C80.9086 169.23 80.9166 169.175 80.9321 169.123C80.9476 169.072 80.9703 169.025 80.9988 168.987C81.4549 168.414 81.9975 168.001 82.5838 167.781C83.1701 167.561 83.784 167.54 84.3771 167.719C84.4541 167.742 84.5215 167.808 84.5645 167.903C84.6074 167.998 84.6224 168.113 84.6061 168.224C84.5899 168.334 84.5437 168.431 84.4777 168.493C84.4117 168.554 84.3314 168.576 84.2544 168.552C83.7595 168.407 83.2481 168.424 82.7582 168.601C82.2683 168.777 81.8124 169.11 81.4241 169.574C81.3967 169.619 81.3627 169.655 81.3246 169.68C81.2864 169.704 81.245 169.716 81.2033 169.715Z" fill="#263238"/>
<path d="M92.0994 169.89C92.0346 169.893 91.9709 169.864 91.9194 169.808C91.5921 169.377 91.2019 169.056 90.7774 168.869C90.3529 168.683 89.9047 168.634 89.4654 168.727C89.4278 168.742 89.3886 168.746 89.35 168.739C89.3113 168.731 89.274 168.713 89.2402 168.686C89.2064 168.658 89.1768 168.621 89.153 168.577C89.1291 168.532 89.1116 168.482 89.1014 168.428C89.0912 168.374 89.0885 168.317 89.0935 168.262C89.0984 168.206 89.111 168.153 89.1303 168.104C89.1497 168.056 89.1755 168.013 89.2064 167.979C89.2372 167.945 89.2724 167.92 89.31 167.905C89.8402 167.771 90.3849 167.812 90.9023 168.025C91.4198 168.239 91.8964 168.62 92.2957 169.138C92.3563 169.21 92.3952 169.312 92.4044 169.423C92.4136 169.535 92.3922 169.648 92.3448 169.737C92.3152 169.789 92.2775 169.829 92.2349 169.856C92.1922 169.882 92.1458 169.894 92.0994 169.89Z" fill="#263238"/>
<path d="M75.2559 176.572C75.2559 176.572 78.9778 168.775 78.8551 162.386C78.8551 162.386 93.0964 155.951 92.6138 176.102C92.6138 176.102 94.986 158.487 83.0678 156.62C71.1495 154.753 69.7671 179.907 75.5013 188.128C75.5013 188.128 72.9736 181.457 75.2559 176.572Z" fill="#263238"/>
<path d="M76.2957 178.817C76.2957 177.654 75.9745 176.539 75.4025 175.715C74.8306 174.892 74.0545 174.428 73.2445 174.425C71.0687 174.507 69.6781 180.731 74.946 182.904C75.6985 183.209 76.1975 182.187 76.2957 178.817Z" fill="#E4897B"/>
<path d="M88.1236 184.605C87.6142 185.587 87.1575 186.624 86.7575 187.705C86.6184 187.635 86.4712 187.576 86.3322 187.494C84.4099 186.519 83.7391 185.145 83.5837 183.971C83.5104 183.375 83.5413 182.761 83.6737 182.186C83.7418 181.855 83.8408 181.539 83.9681 181.247C84.9676 182.61 86.1625 183.644 87.4692 184.276C87.8618 184.488 88.1236 184.605 88.1236 184.605Z" fill="#263238"/>
<path d="M87.4689 184.253L87.0517 185.157C85.2357 184.229 84.0496 183.231 83.6733 182.163C83.7415 181.832 83.8405 181.516 83.9678 181.223C84.9673 182.587 86.1621 183.621 87.4689 184.253Z" fill="white"/>
<path d="M86.332 187.495C84.4097 186.52 83.7389 185.146 83.5835 183.972C84.3107 184.356 84.984 184.925 85.5712 185.651C85.952 186.137 86.2179 186.782 86.332 187.495Z" fill="#DE5753"/>
<path d="M83.665 161.412C83.665 161.412 79.9104 177.489 72.7283 176.385C65.5463 175.281 77.8572 155.858 77.8572 155.858C77.8572 155.858 89.9718 150.89 95.2479 160.555C100.524 170.22 92.6384 176.08 92.6384 176.08C92.6384 176.08 93.8164 163.468 83.665 161.412Z" fill="#263238"/>
<path d="M77.9387 175.093C77.8972 175.09 77.857 175.071 77.8224 175.038C77.7878 175.005 77.7601 174.959 77.7424 174.905C77.7237 174.83 77.726 174.748 77.7489 174.675C77.7718 174.603 77.8135 174.546 77.8651 174.517C83.5911 171.382 83.4602 160.355 83.4602 160.237C83.4578 160.199 83.4612 160.16 83.4701 160.124C83.479 160.087 83.4933 160.054 83.5119 160.026C83.5305 159.999 83.553 159.977 83.578 159.963C83.6029 159.948 83.6297 159.942 83.6565 159.944C83.7096 159.946 83.7604 159.976 83.7995 160.028C83.8386 160.079 83.8633 160.15 83.8692 160.226C83.8692 160.343 84.0001 171.781 78.0123 175.069L77.9387 175.093Z" fill="#263238"/>
<path d="M90.5292 175.693L92.0347 175C92.0347 175 91.2247 176.703 90.5292 175.693Z" fill="#263238"/>
<path d="M91.0516 175.445C90.7712 175.246 90.4496 175.202 90.148 175.321C89.8464 175.441 89.5858 175.714 89.4156 176.091C89.6686 175.91 89.9458 175.811 90.2283 175.798C90.5107 175.786 90.7916 175.862 91.0516 176.021V175.445Z" fill="#263238"/>
<path d="M79.9185 202.373L85.9963 206.812L85.8981 215.655L77.2109 208.386L79.9185 202.373Z" fill="#09A350"/>
<path d="M86.9209 200.706L87.2808 206.073L91.2481 212.097L90.7082 202.186L86.9209 200.706Z" fill="#09A350"/>
<path d="M58.8384 139.981L56.3026 130.586C56.3489 130.084 56.3131 129.573 56.1981 129.094C56.0831 128.615 55.892 128.181 55.64 127.826C53.8731 125.936 50.2249 124.221 49.3087 124.421C47.9754 124.702 45.2187 128.167 45.4559 130.433C45.6931 132.7 53.4805 134.097 53.4805 134.097L56.0654 144.396L58.8384 139.981Z" fill="#E4897B"/>
<path d="M69.7592 223.721C69.7592 223.721 74.6672 218.12 72.7122 205.742L67.4361 171.498L58.3726 136.127L53.9391 139.345C53.9391 139.345 61.3829 173.906 62.07 176.243C62.4217 177.417 63.8205 195.349 65.7265 207.363C67.477 218.425 69.7592 223.721 69.7592 223.721Z" fill="#09A350"/>
<path opacity="0.6" d="M69.7592 223.721C69.7592 223.721 74.6672 218.12 72.7122 205.742L67.4361 171.498L58.3726 136.127L53.9391 139.345C53.9391 139.345 61.3829 173.906 62.07 176.243C62.4217 177.417 63.8205 195.349 65.7265 207.363C67.477 218.425 69.7592 223.721 69.7592 223.721Z" fill="white"/>
<path d="M53.1609 138.333L58.3388 134.61L59.4677 137.088L53.4145 140.94L53.1609 138.333Z" fill="#09A350"/>
<path opacity="0.7" d="M53.1609 138.333L58.3388 134.61L59.4677 137.088L53.4145 140.94L53.1609 138.333Z" fill="white"/>
<path opacity="0.6" d="M79.9185 202.373L85.9963 206.812L85.8981 215.655L77.2109 208.386L79.9185 202.373Z" fill="white"/>
<path opacity="0.6" d="M86.9209 200.706L87.2808 206.073L91.2481 212.097L90.7082 202.186L86.9209 200.706Z" fill="white"/>
<path d="M259.519 183.912H235.011V211.25H259.519V183.912Z" fill="white"/>
<path opacity="0.1" d="M259.519 183.912H253.237V211.25H259.519V183.912Z" fill="black"/>
<path d="M233.605 235.394H261.311V185.778H252.386L233.605 198.684V235.394Z" fill="#09A350"/>
<path opacity="0.2" d="M261.31 185.778H252.386V235.394H261.31V185.778Z" fill="black"/>
<path opacity="0.7" d="M249.434 208.468H236.46V217.393H249.434V208.468Z" fill="white"/>
<path opacity="0.7" d="M249.434 220.375H236.46V221.655H249.434V220.375Z" fill="white"/>
<path opacity="0.7" d="M260.443 224.121H253.237V231.696H260.443V224.121Z" fill="white"/>
<path d="M249.106 182.42H224.599V211.25H249.106V182.42Z" fill="white"/>
<path opacity="0.1" d="M249.105 182.42H242.823V211.25H249.105V182.42Z" fill="black"/>
<path d="M223.191 235.394H250.897V185.778H241.972L223.191 198.684V235.394Z" fill="#09A350"/>
<path opacity="0.2" d="M250.898 185.778H241.974V235.394H250.898V185.778Z" fill="black"/>
<path opacity="0.7" d="M239.02 208.468H226.047V217.393H239.02V208.468Z" fill="white"/>
<path opacity="0.7" d="M239.02 220.375H226.047V221.655H239.02V220.375Z" fill="white"/>
<path opacity="0.7" d="M250.03 224.121H242.823V231.696H250.03V224.121Z" fill="white"/>
<path d="M205.98 423.77H210.995L219.993 243.803H213.342L205.98 423.77Z" fill="#263238"/>
<path opacity="0.1" d="M205.98 423.771H210.995L219.551 252.74L219.993 244.097H213.342L212.99 252.74L205.98 423.771Z" fill="white"/>
<path opacity="0.2" d="M212.99 252.318H219.55L219.992 244.097H213.342L212.99 252.318Z" fill="black"/>
<path d="M169.203 423.77H174.218L175.036 243.803H168.385L169.203 423.77Z" fill="#263238"/>
<path opacity="0.1" d="M168.377 244.097L168.516 273.127L169.195 423.771H174.21L174.897 273.127L175.028 244.097H168.377Z" fill="white"/>
<path opacity="0.2" d="M168.377 244.097L168.516 273.456H174.897L175.028 244.097H168.377Z" fill="black"/>
<path d="M116.001 423.77H121.015L130.013 243.803H123.363L116.001 423.77Z" fill="#263238"/>
<path opacity="0.1" d="M116.001 423.771H121.015L129.58 252.74L130.013 244.097H123.363L123.011 252.74L116.001 423.771Z" fill="white"/>
<path opacity="0.2" d="M123.01 252.318H129.579L130.013 244.097H123.362L123.01 252.318Z" fill="black"/>
<path d="M263.306 423.77H268.32L260.95 243.803H254.299L263.306 423.77Z" fill="#263238"/>
<path opacity="0.1" d="M254.299 244.097L254.749 252.74L263.306 423.771H268.312L261.31 252.74L260.95 244.097H254.299Z" fill="white"/>
<path opacity="0.2" d="M260.95 244.097H254.299L254.749 252.318H261.31L260.95 244.097Z" fill="black"/>
<path d="M264.459 248.313L119.87 248.313C119.637 248.313 119.408 248.247 119.193 248.12C118.979 247.992 118.784 247.806 118.62 247.57C118.456 247.335 118.326 247.055 118.237 246.747C118.148 246.439 118.103 246.11 118.103 245.776V239.306L266.226 239.306V245.776C266.226 246.11 266.18 246.439 266.092 246.747C266.003 247.055 265.873 247.335 265.709 247.57C265.544 247.806 265.35 247.992 265.135 248.12C264.921 248.247 264.691 248.313 264.459 248.313Z" fill="#09A350"/>
<path opacity="0.4" d="M264.459 248.313L119.87 248.313C119.637 248.313 119.408 248.247 119.193 248.12C118.979 247.992 118.784 247.806 118.62 247.57C118.456 247.335 118.326 247.055 118.237 246.747C118.148 246.439 118.103 246.11 118.103 245.776V239.306L266.226 239.306V245.776C266.226 246.11 266.18 246.439 266.092 246.747C266.003 247.055 265.873 247.335 265.709 247.57C265.544 247.806 265.35 247.992 265.135 248.12C264.921 248.247 264.691 248.313 264.459 248.313Z" fill="white"/>
<path opacity="0.2" d="M118.103 243.803L266.226 243.803V239.293L118.103 239.293V243.803Z" fill="black"/>
<path d="M114.996 240.469H269.328C269.56 240.471 269.79 240.406 270.005 240.279C270.22 240.152 270.415 239.966 270.579 239.73C270.744 239.494 270.874 239.214 270.962 238.905C271.051 238.597 271.096 238.266 271.094 237.933C271.094 237.26 270.908 236.615 270.577 236.139C270.246 235.663 269.796 235.396 269.328 235.396H114.996C114.526 235.396 114.076 235.663 113.743 236.138C113.411 236.614 113.223 237.259 113.22 237.933C113.22 238.267 113.266 238.597 113.356 238.906C113.445 239.215 113.576 239.495 113.741 239.73C113.906 239.966 114.102 240.153 114.317 240.279C114.532 240.406 114.763 240.471 114.996 240.469Z" fill="#09A350"/>
<path opacity="0.4" d="M114.996 240.469H269.328C269.56 240.471 269.79 240.406 270.005 240.279C270.22 240.152 270.415 239.966 270.579 239.73C270.744 239.494 270.874 239.214 270.962 238.905C271.051 238.597 271.096 238.266 271.094 237.933C271.094 237.26 270.908 236.615 270.577 236.139C270.246 235.663 269.796 235.396 269.328 235.396H114.996C114.526 235.396 114.076 235.663 113.743 236.138C113.411 236.614 113.223 237.259 113.22 237.933C113.22 238.267 113.266 238.597 113.356 238.906C113.445 239.215 113.576 239.495 113.741 239.73C113.906 239.966 114.102 240.153 114.317 240.279C114.532 240.406 114.763 240.471 114.996 240.469Z" fill="white"/>
<path d="M236.164 235.37V231.4H238.021L236.164 229.85H237.555L235.698 228.112H233.939V226.116H235.984L233.939 224.953V220.62H235.984V217.79H238.021L235.984 216.803V214.784H237.44L236.246 213.081L235.215 211.589H203.608V213.621H201.522L203.845 215.124V216.803H199.583V219.927H197.694L199.583 221.289V224.777H200.925V226.445H203.608V231.4H202.103L203.338 233.174V235.393L236.164 235.37Z" fill="#09A350"/>
<path opacity="0.7" d="M236.164 235.37V231.4H238.021L236.164 229.85H237.555L235.698 228.112H233.939V226.116H235.984L233.939 224.953V220.62H235.984V217.79H238.021L235.984 216.803V214.784H237.44L236.246 213.081L235.215 211.589H203.608V213.621H201.522L203.845 215.124V216.803H199.583V219.927H197.694L199.583 221.289V224.777H200.925V226.445H203.608V231.4H202.103L203.338 233.174V235.393L236.164 235.37Z" fill="white"/>
<path opacity="0.1" d="M236.165 235.37V231.4H238.022L236.165 229.85H237.556L235.699 228.112H233.94V226.116H235.985L233.94 224.953V220.62H235.985V217.79H238.022L235.985 216.803V214.784H237.442L236.247 213.081L235.217 211.589H218.57V213.621H216.484L218.799 215.124V216.803H214.538V219.927H212.648L214.538 221.289V224.777H215.879V226.445H218.57V231.4H217.065L218.292 233.174V235.393L236.165 235.37Z" fill="black"/>
<path opacity="0.1" d="M203.845 216.806H218.798L203.845 216.031V216.806Z" fill="black"/>
<path opacity="0.1" d="M203.608 226.448H218.57L218.635 227.951L203.608 226.448Z" fill="black"/>
<path opacity="0.1" d="M200.926 224.777H215.879L200.926 225.529V224.777Z" fill="black"/>
<path opacity="0.1" d="M203.608 231.401H218.57L203.608 230.614V231.401Z" fill="black"/>
<path opacity="0.1" d="M203.339 233.175H218.292V233.997L203.339 233.175Z" fill="black"/>
<path opacity="0.1" d="M199.583 219.927H214.537L199.583 219.246V219.927Z" fill="black"/>
<path opacity="0.1" d="M203.608 213.621H218.57L203.608 212.87V213.621Z" fill="black"/>
<path opacity="0.1" d="M235.986 214.787H220.812L235.986 215.456V214.787Z" fill="black"/>
<path opacity="0.1" d="M218.798 216.806H235.984L220.401 217.534L218.798 216.806Z" fill="black"/>
<path opacity="0.1" d="M214.536 219.929L235.984 220.622V219.929H214.536Z" fill="black"/>
<path opacity="0.1" d="M214.536 221.292H225.146L214.536 222.031V221.292Z" fill="black"/>
<path opacity="0.1" d="M233.94 224.956L218.57 224.78L233.94 224.287V224.956Z" fill="black"/>
<path opacity="0.1" d="M233.94 226.117H218.292L233.94 226.869V226.117Z" fill="black"/>
<path opacity="0.1" d="M236.164 229.852H218.798V230.615L236.164 229.852Z" fill="black"/>
<path opacity="0.1" d="M236.165 231.404H223.584L236.165 231.909V231.404Z" fill="black"/>
<path d="M195.919 230.252V234.022C195.919 234.985 195.101 235.384 194.455 235.384H142.005C141.334 235.384 140.524 234.985 140.524 234.022V230.252H195.919Z" fill="#263238"/>
<path opacity="0.4" d="M195.919 230.252V234.022C195.919 234.985 195.101 235.384 194.455 235.384H142.005C141.334 235.384 140.524 234.985 140.524 234.022V230.252H195.919Z" fill="white"/>
<path opacity="0.2" d="M195.919 230.252V234.022C195.919 234.985 195.101 235.384 194.455 235.384H159.862C159.191 235.384 158.389 234.985 158.389 234.022V230.252H195.919Z" fill="black"/>
<path d="M204.697 191.122L198.447 231.789C198.34 232.449 198.082 233.039 197.714 233.464C197.347 233.89 196.891 234.127 196.418 234.138H162.316C162.104 234.131 161.896 234.054 161.708 233.912C161.52 233.771 161.357 233.569 161.233 233.322C161.108 233.075 161.025 232.79 160.991 232.489C160.956 232.189 160.97 231.881 161.032 231.589L167.265 191.239C167.393 190.623 167.664 190.089 168.033 189.726C168.402 189.362 168.847 189.192 169.294 189.243H203.404C204.32 189.196 204.893 189.795 204.697 191.122Z" fill="#263238"/>
<path opacity="0.4" d="M204.696 191.122L198.447 231.79C198.339 232.45 198.081 233.039 197.714 233.465C197.346 233.89 196.89 234.127 196.418 234.138H163.469C163.257 234.132 163.049 234.055 162.861 233.913C162.673 233.771 162.51 233.569 162.386 233.322C162.261 233.076 162.179 232.791 162.144 232.49C162.109 232.19 162.123 231.882 162.185 231.59L168.426 191.24C168.553 190.623 168.824 190.087 169.193 189.724C169.563 189.36 170.008 189.19 170.455 189.243H203.404C204.32 189.196 204.893 189.795 204.696 191.122Z" fill="white"/>
<path opacity="0.2" d="M187.878 211.791C187.878 215.314 185.277 218.097 183.371 218.097C181.465 218.097 180.336 215.267 180.917 211.791C181.498 208.315 183.371 205.602 185.219 205.496C184.68 209.019 185.841 211.791 187.739 211.791H187.878Z" fill="black"/>
</svg>
