<svg width="305" height="418" viewBox="0 0 305 418" fill="none" xmlns="http://www.w3.org/2000/svg">
<path d="M291.244 52.7549C290.72 50.4264 289.976 48.2117 289.034 46.1726C288.558 45.1557 287.944 44.2869 287.229 43.6178C286.514 42.9488 285.713 42.4932 284.872 42.2783C283.179 41.9838 281.306 43.2946 280.757 45.6122C280.512 40.3976 279.996 35.0501 278.184 30.5194C276.371 25.9887 272.97 22.4363 269.338 22.7497C265.911 23.0537 262.98 26.7105 261.352 31.0418C259.724 35.373 259.162 40.3501 258.626 45.2227C257.303 42.9337 254.584 43.6555 253.227 45.8686C251.871 48.0817 251.534 51.1877 251.242 54.1132H292.097L291.244 52.7549Z" fill="#F5F5F5"/>
<path d="M174.337 89.0089C173.807 86.6804 173.064 84.4635 172.127 82.4171C171.65 81.4002 171.035 80.532 170.319 79.8644C169.602 79.1969 168.8 78.7438 167.959 78.5322C166.271 78.2378 164.399 79.5486 163.843 81.8567C163.605 76.6421 163.089 71.2945 161.27 66.7733C159.45 62.2521 156.063 58.6808 152.424 59.0037C149.003 59.3076 146.066 62.955 144.438 67.2957C142.811 71.6365 142.248 76.6041 141.712 81.4672C140.389 79.1876 137.67 79.9 136.32 82.1226C134.97 84.3452 134.62 87.4417 134.335 90.3672H175.197L174.337 89.0089Z" fill="#F5F5F5"/>
<path d="M52.2271 42.899C51.7031 40.5704 50.9596 38.3558 50.0173 36.3166C49.5412 35.2998 48.9274 34.4309 48.2124 33.7619C47.4974 33.0928 46.6959 32.6372 45.8557 32.4223C44.162 32.1279 42.2896 33.4386 41.7405 35.7562C41.4957 30.5416 40.9796 25.1941 39.1668 20.6634C37.3539 16.1327 33.9532 12.5803 30.3209 12.8938C26.8938 13.1977 23.9496 16.8546 22.3352 21.2143C20.7209 25.574 20.1453 30.5227 19.6094 35.3953C18.2861 33.1062 15.5669 33.8281 14.2106 36.0412C12.8542 38.2543 12.5168 41.3602 12.2257 44.2857H53.0607L52.2271 42.899Z" fill="#F5F5F5"/>
<path d="M113.011 287.916H123.696V235.191H113.011V287.916Z" fill="#F5F5F5"/>
<path d="M158.866 235.011C158.866 235.011 158.343 234.507 159.495 232.332C160.646 230.157 158.866 228.989 158.866 228.989C153.818 233.168 146.772 228.989 146.772 228.989C146.772 228.989 155.082 225.303 156.134 221.789C156.914 219.167 155.532 218.873 154.81 218.892C155.664 218.769 157.497 218.332 158.059 216.935C158.793 215.093 155.902 212.918 155.902 212.918C156.053 212.474 156.131 211.987 156.131 211.493C156.131 210.999 156.053 210.512 155.902 210.068C155.432 208.225 144.595 205.547 144.595 205.547C147.751 206.05 148.909 201.529 148.909 201.529C148.909 201.529 154.275 201.691 155.525 198.68C156.775 195.669 154.685 194.88 151.112 192.325C147.539 189.77 139.646 180.443 139.646 180.443C139.646 180.443 144.588 179.768 145.958 178.097C147.328 176.425 146.057 176.083 146.057 176.083C151.952 176.919 149.954 172.407 149.954 172.407C145.273 170.355 141.082 166.471 137.853 161.19C137.853 161.19 141.538 160.021 143.431 157.504C145.323 154.987 141.849 154.332 141.849 154.332C141.849 154.332 148.796 152.993 144.8 149.307C141.757 146.458 136.9 142.744 135.385 141.614C137.046 142.488 140.797 141.443 140.797 141.443C145.217 138.593 140.797 134.414 140.797 134.414C135.643 130.225 128.074 119.682 128.074 119.682C128.074 119.682 131.859 122.532 133.751 121.686C135.643 120.841 131.647 117.507 131.647 117.507C131.647 117.507 133.632 118.343 134.492 117.507C135.352 116.671 132.282 112.815 132.282 112.815C127.744 108.588 122.153 97.4845 119.817 92.7163C117.482 97.4655 111.878 108.588 107.353 112.815C107.353 112.815 104.303 116.671 105.149 117.507C105.996 118.343 107.988 117.507 107.988 117.507C107.988 117.507 104.018 120.85 105.884 121.686C107.75 122.522 111.561 119.682 111.561 119.682C111.561 119.682 103.992 130.225 98.8376 134.414C98.8376 134.414 94.418 138.593 98.8376 141.443C98.8376 141.443 102.589 142.488 104.25 141.614C102.735 142.744 97.8782 146.505 94.8348 149.307C90.8651 152.993 97.7856 154.332 97.7856 154.332C97.7856 154.332 94.3121 154.997 96.2044 157.504C98.0966 160.012 101.782 161.19 101.782 161.19C98.5528 166.471 94.3623 170.355 89.6808 172.407C89.6808 172.407 87.696 176.919 93.5777 176.083C93.5777 176.083 92.314 176.425 93.6836 178.097C95.0531 179.768 99.9888 180.443 99.9888 180.443C99.9888 180.443 92.1023 189.808 88.5296 192.325C84.9569 194.842 82.8463 195.669 84.11 198.68C85.3737 201.691 90.7262 201.529 90.7262 201.529C90.7262 201.529 91.884 206.05 95.0399 205.547C95.0399 205.547 84.2092 208.225 83.7329 210.068C83.582 210.512 83.5036 210.999 83.5036 211.493C83.5036 211.987 83.582 212.474 83.7329 212.918C83.7329 212.918 80.8416 215.093 81.576 216.935C82.1384 218.332 83.971 218.769 84.8245 218.892C84.0703 218.892 82.6875 219.167 83.5013 221.789C84.5533 225.303 92.8632 228.989 92.8632 228.989C92.8632 228.989 85.817 233.168 80.7688 228.989C80.7688 228.989 78.9824 230.157 80.1072 232.332C81.232 234.507 80.7688 235.011 80.7688 235.011C80.7688 235.011 78.1223 232.161 79.2934 236.521C80.4645 240.881 86.5712 243.55 86.5712 243.55C86.5712 243.55 83.1043 244.386 84.1563 247.064C85.2083 249.743 89.6279 252.925 94.4643 253.589C99.3007 254.254 105.824 251.747 105.824 251.747C105.824 251.747 101.405 255.1 104.455 256.942C107.505 258.785 110.978 254.596 110.978 254.596C110.978 254.596 110.317 258.88 112.871 257.446C114.566 256.373 116.13 254.913 117.502 253.124C117.502 253.124 118.289 259.44 119.864 257.93C121.438 259.44 122.226 253.124 122.226 253.124C123.597 254.913 125.161 256.373 126.857 257.446C129.384 258.918 128.749 254.596 128.749 254.596C128.749 254.596 132.223 258.775 135.273 256.942C138.323 255.109 133.903 251.747 133.903 251.747C133.903 251.747 140.427 254.264 145.263 253.589C150.1 252.915 154.526 249.79 155.571 247.064C156.617 244.338 153.156 243.55 153.156 243.55C153.156 243.55 159.257 240.871 160.434 236.521C161.612 232.171 158.866 235.011 158.866 235.011Z" fill="#EBEBEB"/>
<path d="M135.161 134.927L134.995 134.822C135.055 134.841 135.111 134.877 135.161 134.927Z" fill="#4A3B3B"/>
<path d="M21.4433 287.751H28.1653L28.1653 254.564H21.4433L21.4433 287.751Z" fill="#EBEBEB"/>
<path d="M50.3026 254.453C50.3026 254.453 49.9717 254.13 50.7061 252.762C50.8023 252.598 50.8692 252.402 50.9011 252.192C50.9329 251.982 50.9289 251.764 50.8892 251.556C50.8495 251.349 50.7754 251.159 50.6732 251.001C50.5711 250.844 50.4439 250.725 50.3026 250.654C47.1268 253.294 42.694 250.654 42.694 250.654C42.694 250.654 47.9207 248.336 48.5824 246.123C49.0786 244.47 48.2052 244.29 47.7355 244.309C48.2648 244.223 49.4226 243.958 49.7733 243.074C50.2364 241.915 48.45 240.548 48.45 240.548C48.5449 240.262 48.5925 239.949 48.589 239.632C48.5856 239.316 48.5312 239.005 48.4302 238.724C48.1325 237.565 41.3112 235.874 41.3112 235.874C43.296 236.188 44.0304 233.338 44.0304 233.338C44.0304 233.338 47.4047 233.443 48.1986 231.553C48.9926 229.663 47.6693 229.131 45.4198 227.544C43.1703 225.958 38.2016 220.069 38.2016 220.069C38.2016 220.069 41.3112 219.642 42.1713 218.587C43.0314 217.533 42.2374 217.324 42.2374 217.324C45.9425 217.856 44.6854 215.007 44.6854 215.007C41.7388 213.718 39.1014 211.274 37.0702 207.949C37.0702 207.949 39.3859 207.218 40.5768 205.632C41.7677 204.046 39.5844 203.637 39.5844 203.637C39.5844 203.637 43.9576 202.792 41.4369 200.474C39.5248 198.707 36.4681 196.342 35.4823 195.63C36.5277 196.181 38.8897 195.516 38.8897 195.516C41.6751 193.73 38.8897 191.099 38.8897 191.099C35.6477 188.459 30.8775 181.829 30.8775 181.829C30.8775 181.829 33.2659 183.615 34.4568 183.092C35.6477 182.57 33.1336 180.452 33.1336 180.452C33.1336 180.452 34.3907 180.984 34.9199 180.452C35.4492 179.92 33.5306 177.507 33.5306 177.507C30.6724 174.838 27.1526 167.857 25.6838 164.855C24.2084 167.857 20.6952 174.838 17.837 177.507C17.837 177.507 15.9183 179.929 16.4476 180.452C16.9769 180.974 18.234 180.452 18.234 180.452C18.234 180.452 15.7198 182.56 16.9107 183.092C18.1016 183.624 20.4901 181.829 20.4901 181.829C20.4901 181.829 15.7198 188.478 12.4779 191.099C12.4779 191.099 9.69247 193.73 12.4779 195.516C12.4779 195.516 14.8399 196.181 15.8852 195.63C14.9325 196.342 11.8692 198.707 9.93065 200.474C7.41651 202.792 11.7898 203.637 11.7898 203.637C11.7898 203.637 9.59984 204.055 10.7974 205.632C11.9949 207.209 14.3039 207.949 14.3039 207.949C12.2924 211.275 9.67642 213.731 6.74827 215.045C6.74827 215.045 5.4912 217.894 9.19626 217.362C9.19626 217.362 8.40232 217.581 9.26242 218.625C10.1225 219.67 13.2321 220.107 13.2321 220.107C13.2321 220.107 8.26338 226.006 6.01388 227.582C3.76438 229.159 2.44114 229.691 3.23508 231.591C4.02902 233.49 7.40327 233.376 7.40327 233.376C7.40327 233.376 8.13105 236.226 10.1159 235.912C10.1159 235.912 3.30124 237.594 3.00352 238.762C2.90874 239.042 2.85949 239.349 2.85949 239.66C2.85949 239.971 2.90874 240.277 3.00352 240.557C3.00352 240.557 1.17745 241.925 1.6472 243.084C1.99786 243.967 3.15569 244.233 3.68498 244.318C3.21523 244.318 2.36175 244.48 2.83811 246.133C3.49973 248.346 8.72651 250.663 8.72651 250.663C8.72651 250.663 4.29367 253.304 1.11129 250.663C0.970509 250.736 0.843993 250.856 0.74255 251.013C0.641106 251.171 0.56775 251.361 0.528745 251.569C0.48974 251.776 0.486246 251.993 0.518561 252.203C0.550877 252.413 0.618042 252.608 0.714319 252.772C1.4421 254.14 1.11129 254.463 1.11129 254.463C1.11129 254.463 -0.542754 252.667 0.185025 255.413C0.912805 258.158 4.76342 259.82 4.76342 259.82C4.76342 259.82 2.58008 260.352 3.2417 262.033C3.90332 263.714 6.68211 265.728 9.72555 266.146C12.769 266.564 16.8776 264.987 16.8776 264.987C16.8776 264.987 14.0988 267.095 16.0175 268.254C17.9362 269.413 20.1262 266.772 20.1262 266.772C20.1262 266.772 19.7226 269.47 21.3171 268.549C22.3822 267.872 23.365 266.955 24.2282 265.832C24.2282 265.832 24.7244 269.802 25.7168 268.853C26.7093 269.802 27.2055 265.832 27.2055 265.832C28.0687 266.955 29.0515 267.872 30.1166 268.549C31.7045 269.499 31.3075 266.772 31.3075 266.772C31.3075 266.772 33.4975 269.413 35.4162 268.254C37.3349 267.095 34.5561 264.987 34.5561 264.987C34.5561 264.987 38.6581 266.564 41.7081 266.146C44.7582 265.728 47.5304 263.724 48.192 262.033C48.8536 260.342 46.6703 259.82 46.6703 259.82C46.6703 259.82 50.5077 258.139 51.2421 255.403C51.9764 252.667 50.3026 254.453 50.3026 254.453Z" fill="#E0E0E0"/>
<path d="M191.307 287.916H198.029V254.729H191.307V287.916Z" fill="#EBEBEB"/>
<path d="M220.165 254.613C220.165 254.613 219.834 254.3 220.562 252.932C220.659 252.768 220.726 252.572 220.758 252.363C220.79 252.153 220.787 251.936 220.748 251.728C220.709 251.521 220.635 251.331 220.534 251.173C220.433 251.015 220.306 250.895 220.165 250.823C216.983 253.454 212.55 250.823 212.55 250.823C212.55 250.823 217.803 248.506 218.465 246.321C218.955 244.668 218.081 244.478 217.611 244.497C218.147 244.412 219.299 244.146 219.656 243.262C220.119 242.104 218.333 240.736 218.333 240.736C218.427 240.456 218.477 240.149 218.477 239.838C218.477 239.527 218.427 239.22 218.333 238.941C218.035 237.782 211.214 236.091 211.214 236.091C213.198 236.405 213.926 233.565 213.926 233.565C213.926 233.565 217.3 233.669 218.094 231.769C218.888 229.87 217.565 229.347 215.316 227.771C213.066 226.194 208.097 220.286 208.097 220.286C208.097 220.286 211.214 219.868 212.067 218.814C212.921 217.759 212.133 217.55 212.133 217.55C215.838 218.073 214.581 215.233 214.581 215.233C211.636 213.939 209 211.496 206.966 208.176C206.966 208.176 209.288 207.435 210.479 205.858C211.67 204.281 209.487 203.854 209.487 203.854C209.487 203.854 213.853 203.009 211.339 200.691C209.427 198.934 206.364 196.559 205.385 195.847C206.423 196.398 208.785 195.742 208.785 195.742C211.571 193.947 208.785 191.316 208.785 191.316C205.544 188.685 200.78 182.046 200.78 182.046C200.78 182.046 203.162 183.831 204.353 183.309C205.544 182.787 203.029 180.678 203.029 180.678C203.029 180.678 204.286 181.2 204.816 180.678C205.345 180.156 203.426 177.724 203.426 177.724C200.568 175.064 197.055 168.074 195.58 165.072C194.111 168.074 190.591 175.064 187.739 177.724C187.739 177.724 185.814 180.146 186.343 180.678C186.873 181.21 188.136 180.678 188.136 180.678C188.136 180.678 185.616 182.777 186.813 183.309C188.011 183.841 190.392 182.046 190.392 182.046C190.392 182.046 185.622 188.695 182.38 191.316C182.38 191.316 179.601 193.947 182.38 195.742C182.38 195.742 184.742 196.398 185.788 195.847C184.835 196.559 181.778 198.934 179.866 200.691C177.345 203.009 181.719 203.854 181.719 203.854C181.719 203.854 179.535 204.272 180.726 205.858C181.917 207.444 184.233 208.176 184.233 208.176C182.202 211.5 179.564 213.944 176.618 215.233C176.618 215.233 175.361 218.082 179.072 217.55C179.072 217.55 178.278 217.759 179.138 218.814C179.998 219.868 183.108 220.286 183.108 220.286C183.108 220.286 178.146 226.184 175.89 227.771C173.634 229.357 172.317 229.87 173.111 231.769C173.905 233.669 177.279 233.565 177.279 233.565C177.279 233.565 178.007 236.414 179.998 236.091C179.998 236.091 173.177 237.772 172.879 238.941C172.785 239.22 172.735 239.527 172.735 239.838C172.735 240.149 172.785 240.456 172.879 240.736C172.879 240.736 171.06 242.104 171.523 243.262C171.874 244.146 173.032 244.412 173.561 244.497C173.091 244.497 172.238 244.668 172.714 246.321C173.376 248.534 178.609 250.852 178.609 250.852C178.609 250.852 174.17 253.483 170.994 250.852C170.853 250.924 170.727 251.044 170.625 251.202C170.524 251.359 170.45 251.55 170.411 251.757C170.372 251.964 170.369 252.182 170.401 252.391C170.433 252.601 170.501 252.796 170.597 252.96C171.325 254.328 170.994 254.641 170.994 254.641C170.994 254.641 169.34 252.846 170.068 255.591C170.795 258.336 174.633 260.018 174.633 260.018C174.633 260.018 172.449 260.54 173.111 262.231C173.773 263.921 176.551 265.916 179.602 266.334C182.652 266.752 186.747 265.175 186.747 265.175C186.747 265.175 183.968 267.284 185.887 268.443C187.806 269.601 189.996 266.97 189.996 266.97C189.996 266.97 189.599 269.668 191.186 268.737C192.252 268.06 193.234 267.143 194.098 266.02C194.098 266.02 194.594 269.991 195.586 269.041C196.579 269.991 197.075 266.02 197.075 266.02C197.94 267.145 198.925 268.062 199.993 268.737C201.58 269.687 201.183 266.97 201.183 266.97C201.183 266.97 203.367 269.601 205.285 268.443C207.204 267.284 204.425 265.175 204.425 265.175C204.425 265.175 208.527 266.761 211.577 266.334C214.628 265.906 217.4 263.912 218.061 262.231C218.723 260.549 216.54 260.018 216.54 260.018C216.54 260.018 220.384 258.327 221.111 255.591C221.839 252.856 220.165 254.613 220.165 254.613Z" fill="#E0E0E0"/>
<path d="M263.714 287.916H272.976V242.21H263.714V287.916Z" fill="#EBEBEB"/>
<path d="M303.457 242.056C303.457 242.056 303.001 241.619 304.006 239.739C305.012 237.858 303.457 236.832 303.457 236.832C299.077 240.461 292.971 236.832 292.971 236.832C292.971 236.832 300.176 233.641 301.089 230.601C301.75 228.322 300.566 228.065 299.918 228.084C300.652 227.98 302.24 227.6 302.729 226.393C303.391 224.798 300.857 222.908 300.857 222.908C300.986 222.522 301.053 222.1 301.053 221.673C301.053 221.245 300.986 220.823 300.857 220.438C300.447 218.842 291.058 216.525 291.058 216.525C293.791 216.962 294.797 213.039 294.797 213.039C294.797 213.039 299.428 213.191 300.539 210.579C301.651 207.967 299.812 207.235 296.709 205.06C293.606 202.885 286.784 194.764 286.784 194.764C286.784 194.764 291.072 194.185 292.256 192.731C293.44 191.278 292.349 190.993 292.349 190.993C297.45 191.715 295.723 187.802 295.723 187.802C291.666 186.022 288.034 182.654 285.236 178.076C285.236 178.076 288.425 177.069 290.066 174.884C291.707 172.699 288.696 172.13 288.696 172.13C288.696 172.13 294.717 170.971 291.25 167.779C288.604 165.357 284.409 162.08 283.099 161.131C284.535 161.89 287.79 160.979 287.79 160.979C291.614 158.509 287.79 154.89 287.79 154.89C283.318 151.262 276.754 142.124 276.754 142.124C276.754 142.124 280.062 144.584 281.677 143.863C283.291 143.141 279.857 140.234 279.857 140.234C279.857 140.234 281.591 140.956 282.319 140.234C283.046 139.512 280.4 136.169 280.4 136.169C276.47 132.503 271.627 122.871 269.602 118.749C267.558 122.843 262.715 132.484 258.785 136.14C258.785 136.14 256.138 139.484 256.873 140.206C257.607 140.928 259.334 140.206 259.334 140.206C259.334 140.206 255.867 143.103 257.508 143.834C259.149 144.565 262.43 142.096 262.43 142.096C262.43 142.096 255.867 151.233 251.401 154.862C251.401 154.862 247.57 158.48 251.401 160.95C251.401 160.95 254.656 161.9 256.092 161.102C254.769 162.052 250.567 165.348 247.934 167.751C244.474 170.942 250.488 172.101 250.488 172.101C250.488 172.101 247.478 172.68 249.119 174.856C250.759 177.031 253.955 178.047 253.955 178.047C251.157 182.625 247.526 185.993 243.468 187.773C243.468 187.773 241.735 191.687 246.843 190.965C246.843 190.965 245.744 191.25 246.935 192.703C248.126 194.156 252.4 194.736 252.4 194.736C252.4 194.736 245.566 202.857 242.476 205.032C239.386 207.207 237.553 207.938 238.652 210.55C239.75 213.162 244.395 213.01 244.395 213.01C244.395 213.01 245.394 216.933 248.133 216.496C248.133 216.496 238.738 218.814 238.328 220.41C238.199 220.795 238.132 221.217 238.132 221.644C238.132 222.072 238.199 222.494 238.328 222.879C238.328 222.879 235.82 224.779 236.462 226.365C236.945 227.571 238.539 227.951 239.274 228.056C238.612 228.056 237.421 228.293 238.103 230.573C239.016 233.612 246.214 236.804 246.214 236.804C246.214 236.804 240.107 240.432 235.734 236.804C235.734 236.804 234.179 237.82 235.185 239.71C236.191 241.6 235.734 242.028 235.734 242.028C235.734 242.028 233.451 239.568 234.457 243.338C235.463 247.109 240.749 249.427 240.749 249.427C240.749 249.427 237.739 250.158 238.652 252.476C239.565 254.793 243.389 257.548 247.584 258.175C251.778 258.802 257.428 256.579 257.428 256.579C257.428 256.579 253.604 259.429 256.244 261.072C258.884 262.715 261.901 259.039 261.901 259.039C261.901 259.039 261.352 262.753 263.542 261.48C265.008 260.546 266.362 259.283 267.551 257.738C267.551 257.738 268.213 263.209 269.602 261.898C270.965 263.209 271.653 257.738 271.653 257.738C272.841 259.286 274.195 260.549 275.663 261.48C277.853 262.753 277.303 259.039 277.303 259.039C277.303 259.039 280.314 262.668 282.954 261.072C285.594 259.476 281.769 256.579 281.769 256.579C281.769 256.579 287.426 258.754 291.614 258.175C295.802 257.595 299.64 254.831 300.553 252.476C301.466 250.12 298.455 249.427 298.455 249.427C298.455 249.427 303.748 247.109 304.747 243.338C305.746 239.568 303.457 242.056 303.457 242.056Z" fill="#E0E0E0"/>
<path d="M282.909 155.311L282.771 155.216C282.82 155.236 282.867 155.268 282.909 155.311Z" fill="#4A3B3B"/>
<path d="M299.846 287.918C299.846 288.051 234.346 288.165 153.629 288.165C72.9113 288.165 7.41113 288.051 7.41113 287.918C7.41113 287.785 72.865 287.671 153.629 287.671C234.392 287.671 299.846 287.775 299.846 287.918Z" fill="#E0E0E0"/>
<path d="M143.558 338.075C142.752 337.278 142.015 336.347 141.362 335.302C140.618 334.373 139.952 333.325 139.377 332.177C140.185 332.97 140.922 333.901 141.573 334.95C142.317 335.878 142.983 336.927 143.558 338.075Z" fill="#E0E0E0"/>
<path d="M144.947 336.938C144.363 335.872 143.945 334.637 143.723 333.319C143.39 332.047 143.254 330.685 143.326 329.33C143.425 329.33 143.597 331.087 144.054 333.176C144.51 335.266 145.027 336.871 144.947 336.938Z" fill="#E0E0E0"/>
<path d="M148.208 329.29C148.033 330.672 147.751 332.023 147.368 333.317C147.083 334.662 146.692 335.955 146.203 337.173C146.37 335.787 146.652 334.435 147.044 333.146C147.32 331.797 147.711 330.501 148.208 329.29Z" fill="#E0E0E0"/>
<path d="M25.1406 316.354C24.311 315.635 23.5837 314.697 22.997 313.59C22.3321 312.577 21.8008 311.399 21.429 310.113C22.0875 311.116 22.7081 312.169 23.2881 313.267C24.2805 314.986 25.2068 316.249 25.1406 316.354Z" fill="#E0E0E0"/>
<path d="M26.5972 316.612C26.4223 314.08 26.4756 311.526 26.7559 309.014C26.8949 310.27 26.926 311.546 26.8486 312.813C26.8759 314.09 26.7914 315.366 26.5972 316.612Z" fill="#E0E0E0"/>
<path d="M32.5107 310.209C32.0901 311.421 31.5704 312.556 30.9625 313.591C30.4412 314.717 29.8307 315.753 29.1431 316.678C29.5579 315.464 30.0757 314.328 30.6846 313.296C31.2025 312.163 31.8158 311.127 32.5107 310.209Z" fill="#E0E0E0"/>
<path d="M41.3114 366.268C40.4212 365.526 39.5913 364.643 38.8369 363.637C38.0118 362.756 37.2573 361.747 36.5874 360.626C37.4765 361.371 38.3062 362.254 39.0619 363.257C39.887 364.139 40.6414 365.148 41.3114 366.268Z" fill="#E0E0E0"/>
<path d="M43.051 365.469C42.8216 363.411 42.8216 361.314 43.051 359.257C43.2804 361.314 43.2804 363.411 43.051 365.469Z" fill="#E0E0E0"/>
<path d="M48.3508 359.522C48.0847 361.033 47.6174 362.455 46.9747 363.711C46.4299 365.059 45.7061 366.24 44.8443 367.187C44.7715 367.083 45.7242 365.554 46.6902 363.445C47.6561 361.336 48.2582 359.465 48.3508 359.522Z" fill="#E0E0E0"/>
<path d="M185.807 310.169C185.199 309.6 184.659 308.894 184.206 308.079C183.681 307.374 183.234 306.558 182.883 305.657C183.492 306.224 184.033 306.93 184.484 307.747C185.012 308.448 185.458 309.266 185.807 310.169Z" fill="#E0E0E0"/>
<path d="M187.509 309.229C187.112 308.397 186.814 307.476 186.629 306.503C186.336 305.588 186.151 304.609 186.08 303.606C186.471 304.442 186.766 305.362 186.953 306.332C187.245 307.249 187.432 308.227 187.509 309.229Z" fill="#E0E0E0"/>
<path d="M189.813 309.286C189.903 307.245 190.221 305.238 190.753 303.34C190.767 304.367 190.667 305.39 190.455 306.37C190.353 307.386 190.136 308.371 189.813 309.286Z" fill="#E0E0E0"/>
<path d="M182.308 371.7C181.413 370.908 180.583 369.975 179.833 368.917C179.006 367.986 178.252 366.929 177.584 365.764C178.475 366.563 179.304 367.496 180.058 368.547C180.886 369.477 181.64 370.535 182.308 371.7Z" fill="#E0E0E0"/>
<path d="M183.941 371.701C183.559 370.715 183.282 369.652 183.121 368.547C182.845 367.492 182.678 366.385 182.625 365.261C183.006 366.248 183.285 367.311 183.452 368.414C183.724 369.47 183.889 370.577 183.941 371.701Z" fill="#E0E0E0"/>
<path d="M187.614 371.958C187.65 369.934 187.916 367.932 188.402 366.031C188.366 368.055 188.1 370.057 187.614 371.958Z" fill="#E0E0E0"/>
<path d="M282.39 334.723C280.916 332.983 279.596 330.989 278.46 328.786C279.234 329.594 279.937 330.535 280.551 331.588C281.249 332.524 281.867 333.576 282.39 334.723Z" fill="#E0E0E0"/>
<path d="M284.979 334.411C284.741 332.163 284.741 329.877 284.979 327.629C285.208 329.878 285.208 332.162 284.979 334.411Z" fill="#E0E0E0"/>
<path d="M288.977 334.459C288.885 334.392 289.295 333.062 289.592 331.353C289.89 329.643 289.97 328.19 290.069 328.199C290.22 329.288 290.17 330.414 289.923 331.467C289.791 332.564 289.466 333.594 288.977 334.459Z" fill="#E0E0E0"/>
<path d="M299.846 392.966C299.846 393.109 234.346 393.213 153.629 393.213C72.9113 393.213 7.41113 393.109 7.41113 392.966C7.41113 392.824 72.865 392.719 153.629 392.719C234.392 392.719 299.846 392.833 299.846 392.966Z" fill="#263238"/>
<path d="M147.012 354.862C147.652 355.168 148.243 355.656 148.749 356.298C149.255 356.939 149.665 357.72 149.956 358.595C150.53 360.356 150.815 362.283 150.79 364.227C150.823 367.97 149.685 371.959 148.361 375.188C145.966 372.861 145.053 368.216 144.696 365.823C144.134 362.024 144.696 354.691 147.012 354.862Z" fill="#09A350"/>
<path d="M151.399 380.832C151.162 379.802 151.117 378.701 151.271 377.638C151.424 376.576 151.769 375.591 152.272 374.781C152.785 373.987 153.404 373.348 154.091 372.901C154.778 372.454 155.521 372.208 156.275 372.179C156.621 372.11 156.972 372.15 157.306 372.296C157.64 372.442 157.947 372.69 158.207 373.024C158.408 373.393 158.538 373.831 158.583 374.295C158.629 374.758 158.588 375.231 158.465 375.665C158.205 376.527 157.792 377.277 157.268 377.84C155.534 379.863 153.602 381.364 151.399 380.832Z" fill="#09A350"/>
<path d="M149.605 392.646C149.589 392.39 149.589 392.132 149.605 391.876C149.605 391.325 149.651 390.622 149.684 389.777C149.729 387.452 150.035 385.152 150.591 382.967C151.179 380.777 152.161 378.85 153.436 377.382C153.826 376.953 154.25 376.589 154.699 376.299C154.851 376.194 154.984 376.137 155.07 376.09L155.202 376.042C154.606 376.456 154.04 376.955 153.515 377.534C152.293 379.03 151.353 380.944 150.782 383.1C150.235 385.265 149.914 387.534 149.83 389.834C149.777 390.708 149.73 391.43 149.691 391.924C149.674 392.167 149.646 392.408 149.605 392.646Z" fill="#263238"/>
<path d="M146.906 360.504C146.933 360.611 146.951 360.723 146.959 360.836L147.085 361.786C147.184 362.603 147.323 363.8 147.482 365.272C147.806 368.217 148.209 372.301 148.586 376.813C148.964 381.324 149.248 385.437 149.413 388.41C149.499 389.892 149.566 391.098 149.599 391.934C149.599 392.323 149.599 392.637 149.638 392.884C149.647 392.994 149.647 393.106 149.638 393.216C149.617 393.108 149.604 392.996 149.599 392.884C149.599 392.637 149.552 392.323 149.526 391.934C149.466 391.079 149.38 389.882 149.281 388.429C149.076 385.456 148.778 381.362 148.401 376.851C148.024 372.339 147.64 368.255 147.349 365.301C147.21 363.847 147.091 362.66 147.012 361.805C146.972 361.416 146.946 361.093 146.926 360.855C146.909 360.74 146.902 360.622 146.906 360.504Z" fill="#263238"/>
<path d="M147.853 383.747C147.399 381.555 146.586 379.55 145.484 377.898C144.382 376.246 143.021 374.995 141.515 374.249C140.747 373.879 139.775 373.727 139.245 374.6C138.716 375.474 138.974 376.852 139.358 377.868C140.186 379.984 141.433 381.7 142.94 382.801C144.447 383.901 146.147 384.336 147.827 384.051" fill="#09A350"/>
<path d="M142.168 377.694C142.333 377.74 142.495 377.81 142.651 377.903C142.841 377.985 143.026 378.087 143.206 378.207C143.448 378.347 143.685 378.505 143.914 378.682C144.198 378.89 144.474 379.118 144.741 379.366C145.053 379.642 145.353 379.944 145.641 380.268C146.296 381.019 146.891 381.873 147.414 382.814C147.926 383.771 148.359 384.81 148.704 385.91C148.851 386.391 148.979 386.882 149.088 387.383C149.193 387.813 149.274 388.255 149.333 388.703C149.395 389.069 149.439 389.44 149.465 389.814C149.498 390.097 149.518 390.383 149.525 390.669C149.539 390.909 149.539 391.151 149.525 391.391C149.479 391.391 149.465 390.356 149.201 388.75C149.129 388.31 149.04 387.876 148.936 387.449C148.823 386.96 148.691 386.481 148.539 386.015C147.85 383.852 146.816 381.953 145.522 380.468C145.246 380.128 144.957 379.811 144.655 379.518C144.396 379.261 144.127 379.026 143.848 378.815C142.843 378.055 142.154 377.751 142.168 377.694Z" fill="#263238"/>
<path d="M23.4871 393.084C22.8484 392.142 22.2949 391.089 21.8397 389.949C21.2912 388.901 20.8356 387.759 20.4834 386.549C21.1202 387.492 21.6736 388.545 22.1308 389.683C22.6794 390.732 23.135 391.874 23.4871 393.084Z" fill="#263238"/>
<path d="M23.9512 384.053C24.2432 385.492 24.423 386.973 24.4871 388.469C24.6666 389.949 24.7332 391.452 24.6856 392.953C24.3935 391.513 24.2138 390.032 24.1497 388.536C23.9701 387.056 23.9036 385.553 23.9512 384.053Z" fill="#263238"/>
<path d="M28.5024 386.549C28.3033 387.711 27.9867 388.824 27.5629 389.854C26.9542 391.602 26.6433 393.112 26.5507 393.084C26.5821 391.867 26.8255 390.682 27.2586 389.636C27.5804 388.535 27.9984 387.498 28.5024 386.549Z" fill="#263238"/>
<path d="M179.318 392.75C178.126 390.761 177.117 388.562 176.314 386.206C176.951 387.149 177.504 388.202 177.961 389.34C178.511 390.391 178.966 391.537 179.318 392.75Z" fill="#263238"/>
<path d="M179.781 383.726C180.073 385.168 180.252 386.653 180.317 388.152C180.497 389.631 180.563 391.135 180.515 392.635C180.221 391.193 180.041 389.709 179.979 388.209C179.8 386.729 179.733 385.226 179.781 383.726Z" fill="#263238"/>
<path d="M184.332 386.206C184.134 387.368 183.817 388.482 183.392 389.511C182.784 391.259 182.473 392.769 182.38 392.75C182.41 391.535 182.651 390.349 183.081 389.302C183.406 388.199 183.826 387.158 184.332 386.206Z" fill="#263238"/>
<path d="M288.181 393.214C287.543 392.273 286.992 391.22 286.54 390.079C285.988 389.032 285.531 387.89 285.177 386.679C285.817 387.619 286.37 388.673 286.825 389.813C287.376 390.859 287.832 392.002 288.181 393.214Z" fill="#263238"/>
<path d="M288.65 384.199C288.937 385.64 289.117 387.121 289.186 388.616C289.365 390.096 289.43 391.599 289.378 393.099C289.089 391.659 288.909 390.178 288.842 388.682C288.662 387.203 288.598 385.699 288.65 384.199Z" fill="#263238"/>
<path d="M293.231 386.679C293.033 387.842 292.714 388.956 292.285 389.984C291.677 391.732 291.366 393.242 291.28 393.214C291.194 393.185 291.352 391.561 291.974 389.775C292.3 388.67 292.722 387.63 293.231 386.679Z" fill="#263238"/>
<path d="M187.066 44.409L181.111 45.9287C178.905 49.5194 176.042 52.1516 172.848 53.5274C168.945 55.2281 164.757 54.9813 160.964 52.8272C157.172 50.6731 154 46.7387 151.964 41.6651C149.929 36.5915 149.151 30.6778 149.756 24.8877C150.361 19.0977 152.314 13.7725 155.298 9.78015C158.281 5.78775 162.118 3.36345 166.183 2.9023C170.249 2.44115 174.304 3.97034 177.686 7.24068C181.069 10.511 183.581 15.3297 184.812 20.9115C186.043 26.4933 185.921 32.5091 184.466 37.9786L187.066 44.409Z" fill="#FAFAFA"/>
<path d="M187.065 44.4064L186.906 44.0075L186.417 42.7727L184.505 37.9475C184.496 37.9375 184.486 37.932 184.475 37.932C184.464 37.932 184.454 37.9375 184.445 37.9475L184.525 38.014C185.597 34.0159 185.965 29.6993 185.596 25.4477C185.482 24.1074 185.292 22.7827 185.027 21.4869C184.895 20.8126 184.703 20.1572 184.544 19.4638C184.375 18.7697 184.171 18.0937 183.936 17.4407C182.978 14.559 181.657 11.957 180.039 9.76601C178.171 7.2481 175.955 5.32334 173.535 4.11718C171.115 2.91103 168.545 2.45055 165.993 2.76575C163.175 3.16644 160.459 4.4889 158.053 6.63157C157.432 7.1778 156.835 7.78059 156.267 8.43625C155.969 8.74019 155.718 9.13912 155.44 9.48106C155.162 9.823 154.884 10.1839 154.639 10.5734C154.123 11.3459 153.641 12.1643 153.197 13.0239C152.979 13.4609 152.747 13.8883 152.535 14.3347L151.953 15.7215C150.533 19.2408 149.705 23.1881 149.536 27.2484C149.367 31.3086 149.862 35.3694 150.981 39.1063C151.983 42.4138 153.451 45.3874 155.294 47.8395C157.136 50.2917 159.313 52.1692 161.686 53.3538C163.775 54.3759 165.977 54.8364 168.183 54.7121C169.182 54.6692 170.177 54.5167 171.16 54.2561C172.069 53.9682 172.966 53.6035 173.846 53.1638C176.671 51.6887 179.192 49.216 181.177 45.9736L185.623 44.8053L186.748 44.5014L187.125 44.3874L186.728 44.4824L185.583 44.7578L181.104 45.9071C179.125 49.0988 176.624 51.5338 173.826 52.9929C172.959 53.4171 172.075 53.7691 171.18 54.0472C170.206 54.3051 169.219 54.4544 168.229 54.4936C164.653 54.6205 161.132 53.2158 158.114 50.4584C155.096 47.701 152.719 43.716 151.285 39.0113C150.172 35.3224 149.675 31.3115 149.832 27.2979C149.99 23.2843 150.797 19.3788 152.191 15.8924L152.76 14.5152C152.972 14.0782 153.197 13.6508 153.422 13.2234C153.833 12.3683 154.277 11.547 154.752 10.7633C154.997 10.3739 155.288 10.0415 155.546 9.68053C155.807 9.31826 156.08 8.97585 156.366 8.65471C156.93 8.00637 157.519 7.40691 158.133 6.85952C160.517 4.75022 163.205 3.45072 165.993 3.0602C169.629 2.5958 173.278 3.7321 176.454 6.31793C179.63 8.90376 182.182 12.8165 183.77 17.5356C184.004 18.1856 184.205 18.8585 184.372 19.5493C184.538 20.2237 184.723 20.879 184.862 21.5534C185.126 22.837 185.319 24.1487 185.438 25.4762C185.815 29.6966 185.466 33.9856 184.419 37.9665C184.413 37.9795 184.411 37.9943 184.411 38.0093C184.411 38.0243 184.413 38.039 184.419 38.052C184.426 38.0598 184.436 38.0639 184.445 38.0639C184.455 38.0639 184.464 38.0598 184.472 38.052H184.405L186.351 42.8012L186.86 44.0359C186.999 44.2639 187.065 44.4064 187.065 44.4064Z" fill="#263238"/>
<path d="M162.088 29.4659C162.089 28.9437 161.983 28.4326 161.782 27.9973C161.581 27.5621 161.294 27.2222 160.959 27.0206C160.623 26.819 160.253 26.7648 159.896 26.8648C159.539 26.9649 159.211 27.2147 158.953 27.5826C158.695 27.9506 158.518 28.4202 158.446 28.932C158.374 29.4438 158.409 29.9749 158.547 30.4582C158.685 30.9414 158.92 31.355 159.221 31.6467C159.523 31.9384 159.878 32.0951 160.242 32.097C160.484 32.0995 160.724 32.0333 160.947 31.9022C161.171 31.7711 161.375 31.5777 161.547 31.3331C161.718 31.0885 161.854 30.7977 161.947 30.4772C162.04 30.1567 162.088 29.8131 162.088 29.4659Z" fill="#263238"/>
<path d="M169.426 29.467C169.426 28.9466 169.318 28.4379 169.117 28.0052C168.915 27.5726 168.629 27.2353 168.294 27.0362C167.959 26.8371 167.591 26.785 167.235 26.8865C166.88 26.988 166.553 27.2386 166.297 27.6066C166.041 27.9745 165.866 28.4433 165.795 28.9537C165.725 29.4641 165.761 29.9931 165.9 30.4738C166.038 30.9546 166.273 31.3655 166.575 31.6546C166.876 31.9437 167.23 32.098 167.593 32.098C168.079 32.098 168.545 31.8208 168.889 31.3274C169.233 30.834 169.426 30.1648 169.426 29.467Z" fill="#263238"/>
<path d="M176.743 30.7749C176.926 30.3252 177.012 29.8077 176.99 29.2879C176.968 28.768 176.839 28.2693 176.619 27.8548C176.399 27.4404 176.099 27.1288 175.756 26.9596C175.413 26.7904 175.043 26.7712 174.692 26.9044C174.341 27.0376 174.026 27.3172 173.786 27.7078C173.546 28.0984 173.392 28.5825 173.344 29.0987C173.296 29.6149 173.356 30.1399 173.515 30.6074C173.675 31.0749 173.928 31.4638 174.242 31.7248C174.45 31.8987 174.679 32.0122 174.917 32.0586C175.155 32.105 175.398 32.0835 175.63 31.9953C175.862 31.907 176.08 31.7538 176.271 31.5444C176.462 31.335 176.623 31.0735 176.743 30.7749Z" fill="#263238"/>
<path d="M99.7197 52.0363L105.178 53.4325C107.922 57.8952 111.73 60.7228 115.852 61.3593C119.975 61.9959 124.114 60.3953 127.456 56.8724C130.799 53.3494 133.102 48.1589 133.913 42.3214C134.725 36.4839 133.986 30.4218 131.842 25.3268C129.698 20.2319 126.304 16.4728 122.327 14.7886C118.35 13.1044 114.078 13.617 110.351 16.2256C106.624 18.8342 103.711 23.3501 102.186 28.8853C100.661 34.4205 100.633 40.5747 102.108 46.1378L99.7197 52.0363Z" fill="#FAFAFA"/>
<path d="M99.7191 52.0348L99.8647 51.6549L100.308 50.5246L102.068 46.0984C102.071 46.0925 102.075 46.0877 102.08 46.0844C102.084 46.0811 102.089 46.0794 102.094 46.0794C102.099 46.0794 102.104 46.0811 102.109 46.0844C102.114 46.0877 102.118 46.0925 102.121 46.0984L102.048 46.1554C100.733 41.3009 100.57 35.9589 101.585 30.9581C101.711 30.3407 101.883 29.7328 102.028 29.1059C102.182 28.4545 102.367 27.8197 102.584 27.2062C103.463 24.5674 104.674 22.1845 106.157 20.1775C107.868 17.8691 109.899 16.1043 112.118 14.998C114.336 13.8917 116.692 13.4687 119.032 13.7566C121.614 14.1271 124.103 15.3388 126.31 17.2995C126.878 17.8048 127.423 18.3599 127.944 18.9617C128.222 19.2372 128.447 19.5981 128.705 19.9115C128.963 20.225 129.214 20.5574 129.439 20.9184C129.91 21.628 130.352 22.3764 130.762 23.16C130.961 23.5589 131.172 23.9578 131.371 24.3662L131.9 25.639C133.195 28.8713 133.944 32.494 134.087 36.2168C134.231 39.9396 133.765 43.659 132.727 47.0767C131.817 50.1085 130.479 52.8362 128.796 55.0874C127.114 57.3387 125.125 59.0645 122.955 60.1559C121.062 61.1011 119.064 61.5389 117.06 61.4477C116.145 61.408 115.234 61.2683 114.334 61.0298C113.499 60.7834 112.675 60.4662 111.866 60.0799C109.278 58.7299 106.967 56.4701 105.144 53.5071L101.069 52.4338L100.037 52.1488L99.6926 52.0538L100.057 52.1393L101.108 52.3863L105.158 53.3361C106.979 56.2665 109.28 58.4994 111.853 59.833C112.658 60.218 113.477 60.5352 114.308 60.7828C115.202 61.0102 116.106 61.1436 117.014 61.1817C119.934 61.305 122.824 60.3099 125.388 58.2988C127.951 56.2877 130.096 53.333 131.6 49.7384C133.105 46.1438 133.916 42.0388 133.951 37.8452C133.985 33.6516 133.24 29.5205 131.794 25.8765L131.265 24.6132C131.073 24.2143 130.868 23.8248 130.67 23.4354C130.263 22.6535 129.821 21.911 129.346 21.2128C129.128 20.8519 128.863 20.5574 128.625 20.263C128.387 19.9685 128.149 19.5886 127.871 19.3131C127.359 18.7177 126.819 18.1719 126.257 17.6794C124.073 15.7331 121.609 14.5309 119.052 14.1651C116.736 13.8785 114.405 14.2936 112.209 15.3833C110.012 16.4731 108 18.2132 106.302 20.4909C104.832 22.4715 103.63 24.8255 102.756 27.4342C102.541 28.0289 102.355 28.6447 102.2 29.2769C102.048 29.8943 101.876 30.5022 101.75 31.1101C101.511 32.2891 101.334 33.4925 101.221 34.7099C100.883 38.5616 101.204 42.4734 102.154 46.1079C102.16 46.1183 102.164 46.1319 102.164 46.1459C102.164 46.1599 102.16 46.1734 102.154 46.1839C102.147 46.1908 102.139 46.1946 102.131 46.1946C102.122 46.1946 102.114 46.1908 102.108 46.1839H102.167L100.387 50.5436L99.8845 51.6074L99.7191 52.0348Z" fill="#263238"/>
<path d="M122.612 38.3085C122.611 37.8291 122.709 37.3599 122.893 36.9603C123.078 36.5608 123.341 36.2488 123.649 36.0641C123.957 35.8793 124.297 35.83 124.624 35.9223C124.952 36.0147 125.253 36.2447 125.49 36.583C125.726 36.9214 125.888 37.3529 125.953 37.823C126.019 38.2931 125.986 38.7806 125.859 39.2237C125.731 39.6668 125.515 40.0457 125.237 40.3122C124.96 40.5788 124.633 40.7211 124.299 40.7211C124.078 40.7224 123.859 40.6609 123.654 40.5402C123.449 40.4195 123.263 40.242 123.107 40.0178C122.95 39.7937 122.825 39.5273 122.741 39.234C122.656 38.9407 122.612 38.6261 122.612 38.3085Z" fill="#263238"/>
<path d="M115.916 38.311C115.916 37.8339 116.014 37.3674 116.199 36.9707C116.383 36.5739 116.646 36.2647 116.953 36.0821C117.26 35.8995 117.598 35.8517 117.924 35.9448C118.25 36.0379 118.549 36.2677 118.784 36.6051C119.019 36.9425 119.179 37.3724 119.244 37.8403C119.309 38.3083 119.276 38.7934 119.149 39.2343C119.021 39.6751 118.806 40.0519 118.53 40.317C118.253 40.5821 117.928 40.7236 117.596 40.7236C117.15 40.7236 116.723 40.4694 116.408 40.017C116.093 39.5645 115.916 38.9509 115.916 38.311Z" fill="#263238"/>
<path d="M109.18 39.5468C109.014 39.1335 108.937 38.6588 108.958 38.1827C108.98 37.7066 109.1 37.2504 109.302 36.8719C109.505 36.4934 109.781 36.2095 110.095 36.0562C110.41 35.9029 110.749 35.8869 111.07 36.0105C111.391 36.134 111.68 36.3914 111.899 36.7501C112.118 37.1089 112.258 37.5529 112.301 38.0259C112.345 38.499 112.29 38.9799 112.143 39.4078C111.996 39.8358 111.763 40.1915 111.476 40.4301C111.285 40.5885 111.074 40.6914 110.855 40.7327C110.636 40.7741 110.413 40.7532 110.2 40.6711C109.987 40.5891 109.787 40.4476 109.612 40.2547C109.437 40.0617 109.29 39.8212 109.18 39.5468Z" fill="#263238"/>
<path d="M214.944 359.239L215.678 381.085C215.678 381.085 200.66 389.52 200.527 393.585L229.711 393.072L229.533 358.878L214.944 359.239Z" fill="#263238"/>
<path d="M224.68 379.118C224.964 379.238 225.207 379.504 225.362 379.865C225.517 380.226 225.574 380.657 225.521 381.074C225.453 381.485 225.277 381.842 225.031 382.072C224.785 382.301 224.486 382.386 224.197 382.309C223.897 382.179 223.64 381.893 223.478 381.507C223.315 381.121 223.258 380.662 223.317 380.22C223.418 379.802 223.63 379.457 223.905 379.26C224.181 379.063 224.5 379.029 224.793 379.165" fill="#E0E0E0"/>
<path d="M229.715 393.073L229.609 389.634L201.688 391.448C201.688 391.448 200.365 392.294 200.557 393.624L229.715 393.073Z" fill="#455A64"/>
<path d="M215.205 380.915C215.205 381.124 215.926 381.209 216.627 381.865C217.329 382.52 217.719 383.385 217.845 383.299C217.97 383.214 217.759 382.017 216.892 381.247C216.025 380.478 215.159 380.725 215.205 380.915Z" fill="white"/>
<path d="M212.159 382.826C212.126 383.026 212.748 383.367 213.238 384.232C213.728 385.096 213.9 386.027 214.019 386.018C214.138 386.008 214.244 384.83 213.622 383.766C213 382.703 212.159 382.627 212.159 382.826Z" fill="white"/>
<path d="M210.473 388.19C210.599 388.19 210.791 387.192 210.414 386.062C210.037 384.932 209.369 384.485 209.309 384.666C209.249 384.846 209.666 385.435 209.971 386.375C210.275 387.316 210.328 388.171 210.473 388.19Z" fill="white"/>
<path d="M215.415 375.908C215.475 376.089 216.13 375.794 216.93 375.861C217.731 375.927 218.373 376.279 218.439 376.098C218.505 375.918 217.903 375.196 216.957 375.149C216.011 375.101 215.342 375.737 215.415 375.908Z" fill="white"/>
<path d="M249.305 366.562L250.886 392.967L248.002 414.376C247.951 414.739 247.953 415.113 248.007 415.474C248.061 415.836 248.166 416.178 248.315 416.48C248.465 416.781 248.655 417.036 248.875 417.228C249.096 417.42 249.341 417.545 249.596 417.596C249.891 417.648 250.191 417.598 250.469 417.449C250.748 417.301 250.998 417.058 251.197 416.741C253.797 412.609 263.305 397.346 263.106 395.427C262.888 393.195 262.709 367.407 262.709 367.407L249.305 366.562Z" fill="#263238"/>
<path d="M249.595 417.598L263.039 393.643L263.086 394.764C263.133 395.731 262.939 396.691 262.536 397.471C261.471 399.551 258.448 405.203 251.249 416.733C251.045 417.064 250.787 417.316 250.499 417.467C250.21 417.618 249.899 417.663 249.595 417.598Z" fill="#455A64"/>
<g opacity="0.6">
<path d="M258.937 385.454C258.723 385.717 258.584 386.083 258.545 386.484C258.506 386.884 258.57 387.291 258.725 387.629C258.892 387.947 259.139 388.158 259.414 388.219C259.688 388.279 259.968 388.183 260.194 387.952C260.421 387.674 260.569 387.286 260.609 386.862C260.65 386.438 260.579 386.008 260.412 385.653C260.214 385.346 259.94 385.164 259.648 385.146C259.357 385.128 259.073 385.276 258.857 385.558" fill="white"/>
</g>
<path d="M253.235 405.648C252.763 404.87 252.193 404.225 251.554 403.749C250.873 403.426 250.154 403.294 249.437 403.359C249.437 403.302 249.642 403.074 250.059 402.941C250.615 402.802 251.186 402.895 251.707 403.207C252.23 403.52 252.678 404.045 252.997 404.718C253.235 405.231 253.281 405.62 253.235 405.648Z" fill="white"/>
<path d="M252.095 409.312C251.559 408.945 251.007 408.627 250.441 408.363C249.849 408.251 249.252 408.194 248.655 408.192C248.596 408.059 249.442 407.422 250.527 407.793C251.612 408.163 252.208 409.227 252.095 409.312Z" fill="white"/>
<path d="M255.437 400.879C255.358 401.012 254.412 399.768 252.95 399.103C251.487 398.438 250.23 398.618 250.224 398.447C250.217 398.276 251.514 397.811 253.075 398.552C254.03 398.901 254.867 399.726 255.437 400.879Z" fill="white"/>
<path d="M255.419 392.796C255.38 392.957 254.354 392.444 253.044 392.492C251.734 392.539 250.722 393.1 250.676 392.938C251.381 392.292 252.197 391.938 253.034 391.913C253.87 391.887 254.695 392.193 255.419 392.796Z" fill="white"/>
<path d="M255.092 384.998C255.04 385.159 253.994 384.371 252.618 384.589C251.798 384.796 251.002 385.17 250.256 385.7C250.223 385.643 250.402 385.292 250.805 384.903C251.34 384.41 251.947 384.105 252.578 384.01C253.21 383.913 253.848 384.041 254.437 384.38C254.887 384.675 255.112 384.998 255.092 384.998Z" fill="white"/>
<path d="M252.586 383.101C252.515 382.779 252.492 382.439 252.52 382.103C252.541 381.182 252.687 380.276 252.95 379.434C253.103 378.797 253.398 378.25 253.79 377.877C253.926 377.772 254.082 377.732 254.235 377.761C254.388 377.79 254.531 377.887 254.643 378.038C254.853 378.354 254.976 378.77 254.987 379.206C254.998 380.102 254.789 380.974 254.395 381.669C254.002 382.365 253.45 382.838 252.837 383.006C252.238 383.149 251.623 383.031 251.071 382.667C250.519 382.303 250.055 381.709 249.741 380.963C249.661 380.773 249.61 380.56 249.592 380.339C249.573 380.118 249.588 379.893 249.635 379.681C249.695 379.475 249.799 379.303 249.933 379.188C250.066 379.074 250.221 379.023 250.376 379.045C250.831 379.146 251.258 379.422 251.613 379.843C252.128 380.361 252.575 381.004 252.936 381.742C253.084 382.002 253.192 382.303 253.254 382.626C252.74 381.676 252.132 380.841 251.448 380.147C251.13 379.802 250.757 379.576 250.363 379.491C250.278 379.477 250.192 379.503 250.118 379.565C250.044 379.626 249.986 379.72 249.952 379.833C249.93 379.976 249.927 380.123 249.945 380.267C249.964 380.411 250.002 380.547 250.058 380.669C250.343 381.302 250.75 381.802 251.229 382.109C251.708 382.416 252.239 382.516 252.758 382.398C253.269 382.248 253.73 381.856 254.066 381.283C254.402 380.711 254.594 379.993 254.61 379.244C254.607 378.94 254.532 378.645 254.399 378.408C254.337 378.325 254.258 378.271 254.174 378.254C254.09 378.237 254.004 378.257 253.929 378.313C253.598 378.628 253.343 379.083 253.201 379.615C252.86 380.718 252.652 381.897 252.586 383.101Z" fill="white"/>
<path d="M201.263 180.278C199.858 189.357 199.383 198.681 199.853 207.957C200.164 213.846 213.747 376.58 213.747 376.58H232.134L226.967 223.657L228.475 224.132C228.475 224.132 238.512 289.367 239.332 299.929C240.067 309.427 249.078 384.036 249.078 384.036L266.425 383.761L259.975 287.448L253.722 199.912L251.374 174.437L201.263 180.278Z" fill="#263238"/>
<path d="M232.392 75.7811L232.789 29.4483C233.146 17.9268 228.78 8.02954 220.748 7.83008L220 7.87757C216.394 8.08862 212.977 10.242 210.427 13.9086C207.878 17.5753 206.385 22.486 206.245 27.6626C205.967 37.6548 205.755 48.6919 205.96 54.0299C206.371 65.0765 214.125 66.3778 214.125 66.3778C214.125 66.3778 214.171 73.1026 214.164 76.351L212.358 83.9496L218.697 81.7365L232.392 75.7811Z" fill="white"/>
<path d="M214.125 66.3388C217.688 66.1214 221.132 64.4401 224.049 61.4946C224.049 61.4946 221.873 69.9481 214.165 69.4067L214.125 66.3388Z" fill="#4A3B3B"/>
<path d="M208.7 37.1959C208.711 37.6083 208.833 37.9987 209.04 38.2842C209.248 38.5697 209.525 38.7279 209.812 38.7252C209.952 38.7315 210.092 38.6978 210.223 38.626C210.354 38.5543 210.473 38.4459 210.575 38.3071C210.676 38.1684 210.758 38.0021 210.814 37.8179C210.871 37.6336 210.901 37.4351 210.904 37.2339C210.893 36.8232 210.772 36.4342 210.566 36.149C210.36 35.8637 210.085 35.7044 209.799 35.7047C209.658 35.6971 209.518 35.7298 209.386 35.801C209.254 35.8722 209.134 35.9804 209.031 36.1192C208.929 36.2581 208.847 36.4248 208.79 36.6097C208.734 36.7946 208.703 36.9939 208.7 37.1959Z" fill="#263238"/>
<path d="M208.02 32.4506C208.165 32.6501 208.972 31.7097 210.157 31.6432C211.341 31.5767 212.234 32.3746 212.353 32.1656C212.472 31.9567 212.267 31.7002 211.877 31.3298C211.35 30.8532 210.733 30.6211 210.11 30.6649C209.494 30.6962 208.901 31.009 208.417 31.5577C208.066 31.9852 207.954 32.3651 208.02 32.4506Z" fill="#263238"/>
<path d="M219.345 37.1968C219.352 37.6091 219.472 38.0009 219.679 38.2872C219.886 38.5734 220.163 38.7311 220.45 38.726C220.591 38.7336 220.731 38.7008 220.862 38.6295C220.993 38.5582 221.114 38.4499 221.215 38.3109C221.317 38.1719 221.398 38.0051 221.454 37.8203C221.511 37.6355 221.54 37.4364 221.542 37.2348C221.535 36.8257 221.417 36.4368 221.213 36.151C221.009 35.8653 220.735 35.7054 220.45 35.7055C220.309 35.6953 220.168 35.7261 220.035 35.7963C219.902 35.8664 219.78 35.9743 219.677 36.1135C219.574 36.2528 219.491 36.4205 219.434 36.6066C219.377 36.7928 219.347 36.9935 219.345 37.1968Z" fill="#263238"/>
<path d="M219.638 32.1518C219.777 32.3512 220.584 31.4109 221.768 31.3444C222.952 31.2779 223.846 32.0853 223.965 31.8668C224.084 31.6484 223.879 31.4014 223.488 31.031C222.961 30.5544 222.344 30.3223 221.722 30.3661C221.105 30.3973 220.512 30.7101 220.028 31.2589C219.677 31.6578 219.565 32.0663 219.638 32.1518Z" fill="#263238"/>
<path d="M215.768 45.4623C215.135 45.2194 214.484 45.0886 213.829 45.0729C213.525 45.0729 213.234 44.9779 213.167 44.6835C213.123 44.2396 213.179 43.7871 213.326 43.3917C213.584 42.3184 213.849 41.2071 214.127 40.0293C215.232 35.2801 216.019 31.3383 215.887 31.2718C215.754 31.2054 214.749 35.0712 213.644 39.8203C213.372 40.9981 213.121 42.1189 212.883 43.1922C212.704 43.7245 212.664 44.3311 212.77 44.9019C212.819 45.0521 212.891 45.1847 212.98 45.2898C213.07 45.395 213.174 45.4702 213.286 45.5098C213.456 45.5643 213.629 45.5898 213.803 45.5858C214.459 45.6625 215.119 45.6211 215.768 45.4623Z" fill="#263238"/>
<path d="M219.128 26.9141C219.3 27.332 220.451 26.8096 221.827 26.6862C223.203 26.5627 224.401 26.8001 224.533 26.3442C224.586 26.1258 224.341 25.7553 223.838 25.3944C223.174 25.014 222.457 24.8548 221.743 24.9288C221.029 25.0028 220.337 25.3081 219.717 25.8218C219.227 26.2397 219.022 26.6577 219.128 26.9141Z" fill="#263238"/>
<path d="M207.822 27.455C208.08 27.8349 209.032 27.398 210.197 27.3315C211.361 27.265 212.341 27.512 212.559 27.1036C212.651 26.9041 212.493 26.5147 212.056 26.1537C211.457 25.7205 210.787 25.5269 210.117 25.5933C209.451 25.6236 208.803 25.916 208.245 26.4387C207.841 26.9136 207.716 27.2745 207.822 27.455Z" fill="#263238"/>
<path d="M232.393 37.6717C232.525 37.5862 237.62 35.1166 237.686 42.6773C237.752 50.2379 232.433 48.7562 232.393 48.5472C232.353 48.3383 232.393 37.6717 232.393 37.6717Z" fill="white"/>
<path d="M234.002 45.6496C234.002 45.6496 234.095 45.7446 234.247 45.8396C234.459 45.9612 234.696 45.9612 234.908 45.8396C235.464 45.5356 235.927 44.2629 235.941 42.8951C235.956 42.24 235.863 41.5889 235.669 40.9955C235.619 40.7714 235.533 40.5673 235.418 40.3992C235.303 40.231 235.163 40.1035 235.008 40.0266C234.901 39.9895 234.789 40.0061 234.691 40.0736C234.592 40.141 234.512 40.2553 234.465 40.3971C234.399 40.606 234.432 40.758 234.406 40.777C234.379 40.796 234.293 40.644 234.333 40.3306C234.36 40.1426 234.433 39.9744 234.538 39.8557C234.608 39.7752 234.689 39.7161 234.775 39.6818C234.861 39.6475 234.952 39.6388 235.041 39.6562C235.257 39.7175 235.46 39.8557 235.63 40.0581C235.799 40.2605 235.931 40.5207 236.013 40.815C236.239 41.4698 236.353 42.1929 236.344 42.9236C236.344 44.4528 235.782 45.8871 235.021 46.21C234.88 46.2704 234.731 46.2847 234.586 46.2518C234.44 46.219 234.302 46.1398 234.181 46.0201C234.009 45.8396 233.982 45.6686 234.002 45.6496Z" fill="#4A3B3B"/>
<path d="M195.6 17.7081C195.696 17.2629 195.904 16.8843 196.182 16.6443C196.801 16.2275 197.487 16.0601 198.167 16.1598C199.846 16.0821 201.49 15.4586 202.977 14.3362C202.451 13.9804 201.969 13.5057 201.548 12.9304C201.095 12.3458 200.763 11.593 200.589 10.7551C200.415 9.91708 200.406 9.02643 200.562 8.18125C200.585 8.02394 200.634 7.87664 200.704 7.75125C200.774 7.62586 200.864 7.52588 200.966 7.45938C201.31 7.29791 201.627 7.77282 201.852 8.15276C202.153 8.75069 202.561 9.2208 203.032 9.51339C203.504 9.80598 204.022 9.91018 204.532 9.81496C205.231 9.74016 205.91 9.43811 206.516 8.93162L206.576 8.82714L207.377 7.64935C209.361 4.79985 211.029 2.8147 212.775 1.76988C215.336 0.240653 219.636 -0.433727 222.329 0.535102C225.022 1.50393 227.457 4.59089 227.86 8.53269C229.349 6.63303 231.612 6.63302 233.451 7.68734H233.497C235.548 8.70366 236.733 11.7811 237.354 14.7636C237.394 14.9251 237.421 15.0865 237.454 15.248C238.152 16.8187 239.106 18.1224 240.233 19.0473C240.431 19.2088 240.656 19.4083 240.682 19.7312C240.677 19.8939 240.642 20.0519 240.582 20.19C240.522 20.3281 240.438 20.4416 240.338 20.5196C239.851 21.0298 239.29 21.3771 238.698 21.5359C238.879 22.2411 239.101 22.9241 239.359 23.578C239.597 24.1384 239.875 24.8033 239.677 25.3922C239.587 25.6088 239.454 25.7807 239.294 25.8843C239.134 25.988 238.956 26.0185 238.784 25.9716C238.439 25.8687 238.115 25.6614 237.831 25.3637C238.062 26.1426 238.294 26.9214 238.532 27.7003C237.792 27.8912 237.031 27.8327 236.309 27.5293C235.892 30.3788 235.608 35.5079 235.125 37.4171C233.722 37.4741 233.385 37.2556 232.683 37.6071C231.77 38.0535 232.134 40.3711 230.943 39.7347C230.335 39.4022 229.382 36.1253 229.17 35.2515C227.78 29.3796 227.286 23.147 227.721 16.9767C226.864 15.692 225.842 14.6568 224.711 13.9277L224.804 14.0417C222.64 13.0064 220.172 11.9901 218.187 13.4718C216.606 14.6306 215.693 17.0052 214.522 18.9144C213.535 20.6511 212.303 22.068 210.908 23.0716C209.512 24.0752 207.984 24.6427 206.424 24.7368C206.146 28.0802 206.106 33.5418 206.014 36.6667L204.108 30.4548C203.956 30.0844 203.83 29.7234 203.705 29.353L203.665 29.239C203.479 28.6352 203.271 28.0456 203.043 27.4723C202.805 27.8502 202.473 28.077 202.118 28.1028C201.764 28.1287 201.417 27.9514 201.154 27.6101C200.891 27.2687 200.733 26.7913 200.715 26.2827C200.697 25.7742 200.82 25.2762 201.058 24.8983C201.244 24.5355 201.467 24.2152 201.72 23.9485C201.456 24.3243 201.129 24.5955 200.771 24.7353C200.413 24.8752 200.035 24.879 199.675 24.7463C199.321 24.5945 199.012 24.28 198.794 23.851C198.576 23.422 198.463 22.9023 198.471 22.3717C198.488 22.0109 198.572 21.6631 198.714 21.3642C198.856 21.0653 199.051 20.8262 199.278 20.6715C198.322 20.7972 197.361 20.5094 196.519 19.8452C195.97 19.4083 195.428 18.6864 195.6 17.7081Z" fill="#263238"/>
<path d="M225.452 9.81543C225.732 10.0998 225.996 10.4176 226.239 10.7653C226.855 11.8147 227.272 13.0741 227.45 14.4221C227.59 15.3589 227.663 16.3136 227.668 17.2716C227.668 18.2974 227.635 19.3897 227.589 20.539C227.524 21.7494 227.513 22.9645 227.556 24.1769C227.588 24.8159 227.652 25.4507 227.748 26.0766C227.821 26.7513 228.013 27.3884 228.303 27.9287C228.44 28.1423 228.614 28.301 228.806 28.3893C228.999 28.4775 229.204 28.4923 229.402 28.4321C229.779 28.3255 230.122 28.0414 230.374 27.6248C230.787 26.7839 231.036 25.8003 231.095 24.7753H230.93C231.169 25.6081 231.492 26.3858 231.889 27.0834C232.271 27.7307 232.811 28.1423 233.398 28.2327C233.671 28.266 233.945 28.1938 234.192 28.0237C234.421 27.848 234.608 27.5764 234.728 27.2449C234.837 26.9535 234.892 26.6261 234.887 26.295C234.871 25.9735 234.78 25.669 234.629 25.4307L234.549 25.5447C235.016 26.2908 235.586 26.8892 236.223 27.3018C236.391 27.4097 236.563 27.5017 236.739 27.5773L236.918 27.6438C236.918 27.6438 236.865 27.5963 236.746 27.5393C236.627 27.4823 236.461 27.3778 236.243 27.2259C235.629 26.7864 235.081 26.1799 234.629 25.4402L234.549 25.5447C234.678 25.7744 234.754 26.0564 234.766 26.351C234.778 26.6457 234.725 26.9383 234.615 27.1879C234.505 27.4799 234.337 27.7181 234.132 27.8717C233.907 28.0234 233.658 28.0857 233.411 28.0522C232.864 27.958 232.362 27.5673 232.009 26.9599C231.629 26.2762 231.319 25.5182 231.089 24.7088L230.976 24.3479L230.923 24.7373C230.872 25.7045 230.644 26.6351 230.262 27.4348C230.035 27.8098 229.728 28.0668 229.389 28.1662C229.22 28.2157 229.045 28.2014 228.882 28.1248C228.718 28.0482 228.571 27.9119 228.456 27.7293C228.185 27.2242 228.008 26.6298 227.94 26.0006C227.845 25.3749 227.783 24.7399 227.754 24.1009C227.701 22.9022 227.701 21.6998 227.754 20.501C227.794 19.3422 227.834 18.2499 227.821 17.2146C227.809 16.2551 227.727 15.3 227.576 14.3651C227.372 13.0241 226.927 11.783 226.286 10.7653C226.048 10.3814 225.766 10.0599 225.452 9.81543Z" fill="#455A64"/>
<path d="M201.673 20.9573C201.673 20.9573 201.673 20.9573 201.733 21.0333L201.925 21.2137C202.031 21.3199 202.142 21.4182 202.256 21.5082C202.409 21.6388 202.568 21.7561 202.732 21.8596C203.772 22.5133 204.908 22.7874 206.04 22.6575C207.722 22.4645 209.33 21.5808 210.671 20.1119C212.296 18.3065 213.647 16.044 214.641 13.4631C215.197 12.1143 215.64 10.7276 216.136 9.45482C216.574 8.19984 217.136 7.04185 217.804 6.01643C218.415 5.10621 219.175 4.42749 220.013 4.04077C220.394 3.8844 220.789 3.81391 221.184 3.83181C221.551 3.85296 221.914 3.94563 222.263 4.10726C222.863 4.39168 223.414 4.85816 223.877 5.47502C224.232 5.93645 224.532 6.4788 224.764 7.08024C224.945 7.60615 225.083 8.16086 225.174 8.73295C225.174 8.73295 225.174 8.73295 225.174 8.61897C225.174 8.50499 225.174 8.41 225.134 8.27703C225.068 7.84617 224.966 7.42837 224.83 7.03275C224.606 6.40939 224.311 5.84433 223.957 5.36104C223.484 4.72333 222.923 4.23761 222.309 3.93629C221.95 3.76427 221.576 3.66205 221.198 3.63235C220.787 3.60513 220.376 3.67247 219.98 3.83181C219.113 4.21591 218.328 4.90861 217.698 5.84546C217.005 6.86833 216.419 8.02964 215.958 9.29335C215.461 10.5756 215.012 11.9624 214.469 13.2921C213.495 15.8598 212.172 18.1207 210.579 19.941C209.261 21.3958 207.682 22.2821 206.027 22.496C204.913 22.6396 203.792 22.3952 202.758 21.7836C202.384 21.5436 202.022 21.2675 201.673 20.9573Z" fill="#455A64"/>
<path d="M200.934 16.102C200.934 16.102 201.027 16.216 201.212 16.3775C201.475 16.6005 201.749 16.7942 202.033 16.9569C202.46 17.2105 202.903 17.4076 203.356 17.5458C203.902 17.7174 204.458 17.8159 205.017 17.8402C205.577 17.848 206.137 17.7845 206.69 17.6502C207.141 17.532 207.583 17.3605 208.014 17.1373C208.303 16.988 208.584 16.807 208.854 16.5959C208.956 16.533 209.052 16.4499 209.138 16.349C209.138 16.3015 208.702 16.6244 207.974 16.9664C207.541 17.161 207.099 17.3102 206.651 17.4128C206.11 17.5323 205.563 17.5863 205.017 17.5743C204.468 17.552 203.921 17.4662 203.382 17.3178C202.944 17.1868 202.512 17.009 202.092 16.7859C201.364 16.406 200.948 16.064 200.934 16.102Z" fill="#455A64"/>
<path d="M215.873 49.4319C215.966 49.4319 220.035 47.1523 220.035 47.1523C220.035 47.1523 221.213 50.5242 219.783 52.0725C218.354 53.6207 216.628 52.6519 216.356 51.721C216.153 50.9776 215.992 50.2122 215.873 49.4319Z" fill="#4A3B3B"/>
<path d="M216.792 52.3757C216.978 52.4774 217.168 52.563 217.361 52.6321C217.891 52.7355 218.43 52.6904 218.948 52.4992C219.211 52.3924 219.456 52.2087 219.668 51.9597C219.879 51.7107 220.052 51.4018 220.176 51.0522C220.301 50.7027 220.373 50.32 220.39 49.9283C220.406 49.5366 220.366 49.1442 220.272 48.7758C220.182 48.2546 220.048 47.7508 219.875 47.2751L220.086 47.3796C218.849 48.0445 217.764 48.6048 216.983 48.9943C216.576 49.2407 216.15 49.4161 215.713 49.5167C216.091 49.183 216.492 48.9091 216.911 48.6998C217.665 48.2344 218.737 47.6075 219.961 46.9236L220.1 46.8477L220.172 47.0281C220.363 47.5425 220.509 48.0878 220.609 48.6523C220.708 49.1236 220.74 49.6184 220.704 50.1078C220.667 50.5971 220.563 51.071 220.397 51.5018C220.067 52.1852 219.58 52.6796 219.021 52.8981C218.466 53.0847 217.889 53.0847 217.334 52.8981C216.924 52.6796 216.772 52.3852 216.792 52.3757Z" fill="#263238"/>
<path d="M179.933 142.723L193.827 155.261C198.836 159.06 202.468 156.306 203.672 150.227L203.547 127.925C203.547 127.925 194.714 121.171 193.371 120.877C192.921 120.782 192.253 133.833 192.253 133.833L178.855 128.447L175.474 138.278L179.933 142.723Z" fill="white"/>
<path d="M178.723 125.825C178.637 125.606 174.899 117.077 172.768 113.876C170.638 110.675 170.598 107.18 169.09 106.895C167.581 106.61 167.31 109.64 168.031 112.755C168.752 115.871 170.678 117.504 170.148 118.597C169.619 119.689 157.538 116.792 157.538 116.792C157.538 116.792 155.977 114.503 154.753 116.421C154.753 116.421 152.807 115.757 152.96 117.932C153.112 120.107 156.645 120.344 156.645 120.344L158.398 124.827L162.46 126.993C162.652 128.553 163.161 129.998 163.923 131.144C164.597 132.175 165.362 133.075 166.199 133.822C166.364 133.87 169.983 137.061 171.822 137.707C173.662 138.353 176.11 138.904 176.11 138.904L179.451 129.311C179.439 128.074 179.187 126.867 178.723 125.825Z" fill="white"/>
<path d="M162.519 127.321C162.175 126.048 162.02 124.686 162.063 123.322C162.208 121.489 163.386 113.368 163.962 113.206C164.537 113.045 165.457 112.579 165.715 114.783C165.973 116.986 165.093 122.182 165.093 122.306C165.443 123.425 165.667 124.618 165.755 125.839" fill="white"/>
<path d="M165.761 125.838C165.684 125.467 165.622 125.089 165.576 124.707C165.5 124.273 165.408 123.845 165.298 123.425C165.232 123.188 165.152 122.931 165.066 122.656L165 122.437C164.977 122.335 164.977 122.226 165 122.124L165.066 121.639C165.282 120.12 165.443 118.586 165.549 117.042C165.631 116.156 165.606 115.257 165.477 114.383C165.446 114.184 165.386 113.997 165.302 113.833C165.218 113.67 165.11 113.533 164.987 113.433C164.685 113.297 164.362 113.297 164.061 113.433C163.994 113.385 163.922 113.623 163.849 113.832C163.776 114.041 163.717 114.278 163.657 114.506C163.545 114.962 163.445 115.456 163.353 115.883C163.174 116.833 163.015 117.698 162.87 118.552C162.592 120.262 162.354 121.81 162.208 123.112C162.12 124.141 162.167 125.185 162.347 126.189C162.423 126.56 162.482 126.938 162.526 127.319C162.384 126.984 162.279 126.618 162.215 126.237C161.981 125.215 161.898 124.135 161.97 123.064C162.096 121.734 162.307 120.215 162.572 118.448C162.704 117.584 162.857 116.681 163.035 115.75C163.128 115.285 163.227 114.801 163.339 114.345C163.399 114.098 163.465 113.86 163.538 113.623C163.58 113.495 163.629 113.371 163.684 113.252C163.717 113.182 163.757 113.118 163.803 113.062C163.842 113.018 163.887 112.986 163.935 112.967H163.994C164.364 112.791 164.763 112.791 165.132 112.967C165.302 113.101 165.449 113.285 165.563 113.508C165.677 113.731 165.756 113.988 165.794 114.259C165.935 115.196 165.957 116.161 165.86 117.109C165.736 118.668 165.548 120.216 165.298 121.744L165.218 122.219C165.218 122.323 165.218 122.314 165.218 122.352L165.278 122.561C165.357 122.836 165.424 123.112 165.483 123.368C165.587 123.801 165.664 124.246 165.715 124.698C165.77 125.072 165.786 125.457 165.761 125.838Z" fill="#4A3B3B"/>
<path d="M175.494 129.343C174.888 129.058 174.269 128.832 173.641 128.668C172.934 128.549 172.218 128.643 171.537 128.944C170.674 129.333 169.894 130.028 169.268 130.967L168.984 131.394V130.805C168.984 129.257 168.984 127.576 169.037 125.819C169.037 125.648 169.037 125.458 169.037 125.277C169.105 124.275 169.042 123.264 168.851 122.295C168.766 121.886 168.571 121.543 168.309 121.34C168.047 121.137 167.74 121.091 167.455 121.212C167.331 121.273 167.22 121.378 167.131 121.516C167.056 121.671 167.008 121.85 166.992 122.038C166.926 122.447 166.88 122.874 166.833 123.273L166.589 125.524C166.456 126.835 166.344 127.927 166.258 128.801C166.234 129.206 166.174 129.605 166.079 129.988C166.07 129.582 166.083 129.176 166.119 128.773C166.165 127.994 166.238 126.873 166.35 125.486C166.403 124.783 166.469 124.023 166.549 123.207C166.589 122.798 166.635 122.38 166.694 121.943C166.694 121.829 166.734 121.715 166.754 121.601C166.783 121.466 166.83 121.34 166.893 121.231C167.016 121.028 167.173 120.874 167.349 120.785C167.526 120.692 167.713 120.654 167.9 120.674C168.088 120.694 168.27 120.77 168.434 120.898C168.776 121.163 169.038 121.599 169.169 122.124C169.382 123.155 169.454 124.235 169.381 125.306C169.381 125.496 169.381 125.695 169.347 125.876C169.347 127.633 169.295 129.314 169.268 130.862L168.99 130.71C169.672 129.677 170.536 128.929 171.491 128.545C172.207 128.251 172.96 128.19 173.694 128.364C173.97 128.418 174.24 128.514 174.501 128.649C174.698 128.724 174.889 128.829 175.07 128.963C175.221 129.067 175.363 129.194 175.494 129.343Z" fill="#4A3B3B"/>
<path d="M162.044 121.799C161.221 121.502 160.418 121.105 159.642 120.612H159.602V120.545C159.303 119.872 158.964 119.237 158.59 118.646C158.168 117.966 157.713 117.331 157.227 116.746C156.874 116.308 156.439 116.028 155.977 115.939C155.778 115.92 155.58 115.969 155.397 116.081C155.214 116.193 155.052 116.366 154.925 116.585V116.328C155.474 117.506 155.93 118.503 156.248 119.178C156.432 119.534 156.584 119.924 156.698 120.336C156.468 120.041 156.268 119.703 156.102 119.33C155.745 118.655 155.256 117.696 154.68 116.537L154.614 116.414L154.68 116.29C154.836 116.004 155.038 115.775 155.268 115.624C155.498 115.472 155.75 115.4 156.003 115.416C156.537 115.5 157.04 115.815 157.445 116.319C157.95 116.932 158.417 117.605 158.842 118.332C159.224 118.95 159.565 119.617 159.86 120.327L159.788 120.232C160.568 120.665 161.323 121.19 162.044 121.799Z" fill="#4A3B3B"/>
<path d="M199.399 83.8999C197.103 86.341 195.238 89.7509 194.655 95.9818L191.096 126.376L201.225 130.499L204.725 95.9343L199.399 83.8999Z" fill="#09A350"/>
<path d="M210.738 74.8301L199.398 83.901C198.446 92.9814 199.881 144.244 199.881 144.244L199.352 193.388C215.231 204.682 233.564 200.55 252.996 191.489C253.196 189.595 253.055 187.659 252.586 185.866L249.469 142.791C249.469 142.791 250.277 109.546 250.277 108.872C250.277 108.198 252.017 77.2522 252.017 77.2522L233.359 69.2451C233.359 69.2451 225.42 78.677 219.134 79.1234C213.696 79.5128 213.98 72.4745 213.98 72.4745L210.738 74.8301Z" fill="#09A350"/>
<path d="M199.075 96.022C199.129 96.5151 199.151 97.0143 199.141 97.5132C199.141 98.558 199.141 99.9163 199.2 101.559C199.2 105.074 199.267 109.757 199.313 114.933C199.359 120.11 199.439 124.878 199.525 128.297C199.564 129.94 199.597 131.299 199.624 132.344C199.658 132.839 199.658 133.339 199.624 133.835C199.555 133.349 199.511 132.857 199.492 132.363C199.425 131.413 199.353 130.026 199.28 128.316C199.134 124.897 199.015 120.167 198.969 114.943C198.923 109.719 198.929 104.988 198.969 101.559C198.969 99.9163 199.009 98.558 199.022 97.5132C199.008 97.0149 199.025 96.5157 199.075 96.022Z" fill="#263238"/>
<path d="M230.547 152.699C230.309 153.563 224.48 158.028 224.48 158.028H221.833C221.833 158.028 220.133 154.637 220.232 154.133C220.331 153.63 221.337 148.092 219.928 148.377C218.519 148.662 217.572 152.253 217.374 153.193C217.301 154.028 217.388 154.875 217.625 155.644C217.625 155.644 215.217 151.398 213.563 152.481C211.909 153.563 212.71 155.074 212.71 155.074L217.526 161.048C217.526 161.048 214.264 160.469 214.311 163.898L217.222 165.797L221.966 166.956C222.539 167.095 223.128 167.027 223.679 166.757L224.837 166.177C226.317 165.948 227.781 165.532 229.21 164.933C230.765 164.145 232.393 161.542 232.393 161.542L238.486 151.901C238.486 151.901 239.34 146.934 237.381 145.566C235.423 144.198 236.058 145.499 235.43 144.198C234.801 142.897 232.247 141.349 232.121 145.205C232.022 148.225 232.929 148.947 233.074 148.947C233.22 148.947 231.5 149.242 230.547 152.699Z" fill="white"/>
<path d="M222.145 157.991C221.285 157.978 220.429 157.813 219.598 157.497L219.525 157.431C218.301 156.301 217.368 155.142 217.507 154.961C217.507 154.961 217.738 155.189 218.169 155.56L219.657 157.042L219.723 157.108H219.664C220.514 157.246 221.348 157.543 222.145 157.991Z" fill="#4A3B3B"/>
<path d="M230.012 157.391C230.012 157.391 229.813 157.467 229.496 157.638C229.06 157.89 228.674 158.291 228.371 158.806C228.093 159.471 227.789 160.184 227.464 160.925V161.001H227.398C227.072 161.157 226.752 161.338 226.439 161.542C225.88 161.892 225.355 162.345 224.877 162.891C224.685 163.075 224.525 163.321 224.41 163.609C224.295 163.898 224.229 164.221 224.216 164.553C224.26 165.01 224.403 165.436 224.626 165.769C224.785 166.025 224.884 166.149 224.871 166.177C224.858 166.206 224.732 166.13 224.533 165.902C224.238 165.578 224.037 165.107 223.971 164.581C223.939 164.201 223.998 163.816 224.136 163.489C224.288 163.132 224.478 162.811 224.699 162.539C225.185 161.94 225.732 161.451 226.32 161.086C226.649 160.87 226.987 160.683 227.332 160.526L227.239 160.63L228.186 158.559C228.545 158.015 229.003 157.627 229.509 157.439C229.807 157.296 230.012 157.353 230.012 157.391Z" fill="#4A3B3B"/>
<path d="M233.054 148.948C233.087 148.891 233.232 148.948 233.464 149.005C233.77 149.077 234.08 149.112 234.39 149.11C234.844 149.039 235.303 149.061 235.753 149.176C235.753 149.309 235.171 149.613 234.384 149.604C234.044 149.61 233.708 149.523 233.391 149.347C233.146 149.186 233.021 149.005 233.054 148.948Z" fill="#4A3B3B"/>
<path d="M238.472 151.9C238.472 151.9 241.609 150.675 244.844 149.25L252.049 145.536L249.813 126.948L264.937 119.349C264.937 119.349 267.544 146.495 266.922 153.41C266.3 160.173 263.673 161.778 259.995 163.497C256.316 165.217 229.402 163.298 229.025 164.134C228.647 164.97 232.697 156.488 232.697 156.488L238.472 151.9Z" fill="white"/>
<path d="M233.537 159.517C233.217 160.627 232.71 161.606 232.062 162.366C231.491 163.238 230.776 163.891 229.985 164.266C229.932 164.143 230.851 163.316 231.824 161.996C232.796 160.676 233.458 159.431 233.537 159.517Z" fill="#4A3B3B"/>
<path d="M258.719 149.174C257.732 148.181 256.684 147.316 255.59 146.59C254.448 146.018 253.272 145.601 252.076 145.346C253.309 145.196 254.549 145.461 255.698 146.12C256.847 146.78 257.872 147.816 258.693 149.146L258.719 149.174Z" fill="#4A3B3B"/>
<path d="M225.341 159.757C225.341 159.824 224.713 160.194 223.707 160.916L222.893 161.505L222.43 161.847L222.311 161.932H222.238C222.199 161.948 222.158 161.948 222.119 161.932H221.841L219.433 161.572L218.183 161.372C217.801 161.29 217.417 161.242 217.031 161.23C216.396 161.168 215.761 161.362 215.199 161.79C214.832 162.094 214.557 162.581 214.425 163.158C214.332 163.576 214.325 163.823 214.299 163.832C214.272 163.842 214.233 163.576 214.299 163.11C214.347 162.78 214.441 162.467 214.575 162.189C214.709 161.912 214.881 161.676 215.08 161.496C215.677 160.977 216.368 160.726 217.064 160.774C217.458 160.774 217.852 160.812 218.242 160.888L219.479 161.078L221.881 161.477L222.152 161.524C222.152 161.524 222.271 161.458 222.338 161.42L222.801 161.116L223.641 160.565C224.178 160.181 224.751 159.909 225.341 159.757Z" fill="#4A3B3B"/>
<path d="M252.018 77.2544C252.448 77.4634 257.503 79.6005 260.255 90.0011C263.007 100.402 266.646 127.557 266.646 127.557L249.391 132.563L246.804 98.9011L252.018 77.2544Z" fill="#09A350"/>
<path d="M245.744 101.634C245.828 102.027 245.884 102.431 245.909 102.841C245.995 103.724 246.108 104.826 246.24 106.146C246.512 108.938 246.902 112.795 247.425 117.022C247.947 121.248 248.47 125.076 248.873 127.831C249.059 129.141 249.211 130.234 249.337 131.108C249.416 131.5 249.46 131.905 249.469 132.314C249.357 131.937 249.271 131.546 249.211 131.146C249.059 130.386 248.86 129.246 248.635 127.907C248.172 125.162 247.603 121.353 247.087 117.107C246.571 112.861 246.207 108.995 245.995 106.193C245.89 104.788 245.81 103.648 245.77 102.86C245.734 102.453 245.725 102.043 245.744 101.634Z" fill="#263238"/>
<path d="M251.549 80.104C250.028 81.4091 248.702 83.1321 247.646 85.1744C246.59 87.2167 245.826 89.538 245.396 92.0054C245.398 91.2448 245.49 90.4902 245.667 89.7733C246.028 88.0116 246.604 86.3556 247.367 84.8817C248.13 83.3924 249.068 82.1065 250.14 81.0823C250.564 80.637 251.042 80.3056 251.549 80.104Z" fill="#263238"/>
<path d="M64.9722 364.103L65.9845 386.585L61.7568 406.028C61.6838 406.359 61.6592 406.708 61.6844 407.054C61.7096 407.399 61.7842 407.733 61.9034 408.035C62.0226 408.338 62.1839 408.601 62.3772 408.81C62.5706 409.018 62.7918 409.168 63.0271 409.248C63.3012 409.343 63.587 409.342 63.8608 409.246C64.1347 409.15 64.3887 408.962 64.6017 408.697C67.3408 405.249 77.3776 392.493 77.3379 390.65C77.2849 388.551 77.6157 364.549 77.6157 364.549L64.9722 364.103Z" fill="#263238"/>
<path d="M63.0449 409.218L77.4086 388.987L77.3756 390.032C77.3452 390.936 77.0947 391.797 76.6676 392.463C75.5164 394.239 72.2613 399.036 64.6659 408.667C64.4484 408.944 64.1865 409.139 63.9037 409.236C63.6208 409.332 63.3258 409.326 63.0449 409.218Z" fill="#455A64"/>
<path d="M67.3195 398.673C67.2203 398.73 66.8763 397.409 65.8706 396.65C65.2442 396.249 64.5709 396.02 63.8857 395.975C63.8857 395.918 64.0975 395.738 64.501 395.681C65.0351 395.631 65.5678 395.803 66.036 396.175C66.504 396.542 66.8878 397.096 67.1409 397.77C67.346 398.293 67.3659 398.654 67.3195 398.673Z" fill="white"/>
<path d="M65.9889 401.907C65.9029 402.012 65.3803 401.166 64.5003 400.748C63.9483 400.562 63.3895 400.419 62.8264 400.321C63.1005 400.104 63.4063 399.983 63.7191 399.968C64.0318 399.953 64.3426 400.045 64.626 400.235C65.6317 400.72 66.0816 401.85 65.9889 401.907Z" fill="white"/>
<path d="M69.7348 394.584C69.0338 393.83 68.2928 393.157 67.5183 392.57C66.1951 391.706 64.991 391.715 64.991 391.544C65.9013 391.347 66.832 391.528 67.6728 392.067C68.5135 392.606 69.2291 393.479 69.7348 394.584Z" fill="white"/>
<path d="M70.2638 387.078C70.2109 387.221 69.278 386.584 68.0474 386.442C66.8168 386.299 65.8111 386.66 65.7847 386.508C66.4969 386.01 67.2902 385.8 68.0794 385.9C68.8685 386.001 69.6237 386.408 70.2638 387.078Z" fill="white"/>
<path d="M106.752 359.285L106.236 381.074C106.236 381.074 121.453 389.138 121.665 393.185L92.2033 393.27L92.0312 359.266L106.752 359.285Z" fill="#263238"/>
<path d="M97.1182 379.299C96.8357 379.423 96.5951 379.692 96.4424 380.055C96.2898 380.418 96.2359 380.849 96.2912 381.265C96.3662 381.667 96.5442 382.014 96.7895 382.236C97.0348 382.458 97.3294 382.538 97.6144 382.462C97.9135 382.33 98.1677 382.043 98.3278 381.657C98.4879 381.271 98.5425 380.813 98.4811 380.372C98.3721 379.955 98.1546 379.615 97.8745 379.424C97.5943 379.233 97.2734 379.205 96.9793 379.347" fill="#E0E0E0"/>
<path d="M92.2046 393.269L92.2774 389.84L120.502 391.037C120.502 391.037 121.825 391.853 121.666 393.183L92.2046 393.269Z" fill="#455A64"/>
<path d="M106.715 380.858C106.715 381.067 105.987 381.162 105.286 381.808C104.584 382.453 104.201 383.346 104.068 383.261C103.936 383.175 104.148 381.988 105.014 381.2C105.881 380.411 106.748 380.668 106.715 380.858Z" fill="white"/>
<path d="M109.802 382.682C109.835 382.881 109.213 383.242 108.73 384.116C108.247 384.99 108.101 385.949 107.976 385.949C107.85 385.949 107.737 384.771 108.359 383.698C108.981 382.625 109.802 382.492 109.802 382.682Z" fill="white"/>
<path d="M111.57 387.991C111.437 387.991 111.239 387.041 111.57 385.873C111.901 384.705 112.608 384.287 112.675 384.458C112.741 384.629 112.317 385.237 112.013 386.167C111.709 387.098 111.709 387.972 111.57 387.991Z" fill="white"/>
<path d="M106.448 375.87C106.382 376.06 105.727 375.775 104.913 375.87C104.099 375.965 103.464 376.316 103.391 376.145C103.318 375.974 103.92 375.196 104.88 375.148C105.839 375.101 106.514 375.709 106.448 375.87Z" fill="white"/>
<path d="M108.532 213.305L106.547 193.254L52.7773 189.74L51.1365 213.581L56.9256 285.53C57.6799 291.6 57.1969 319.905 57.9908 327.494C58.1893 329.394 63.8858 381.311 63.8858 381.311H78.4414C78.4414 381.311 79.2817 330.02 79.4008 325.746C79.5199 321.472 80.0624 292.835 80.0624 285.521C80.0624 276.649 82.7089 230.905 82.7089 230.905L86.4404 292.749C86.4404 292.749 86.136 311.489 86.4404 315.46C86.9366 322.393 90.6615 379.697 90.6615 379.697L106.997 380.162C106.997 380.162 110.398 313.313 110.497 300.376C110.656 285.502 108.505 214.293 108.532 213.305Z" fill="#263238"/>
<path d="M94.9685 81.4502C94.9685 81.4502 103.616 84.7271 106.725 99.858C108.968 110.772 113.117 126.32 113.117 126.32L99.1036 129.692L94.9685 81.4502Z" fill="#455A64"/>
<path d="M49.6078 84.3777C49.6078 84.3777 56.0123 79.961 63.5679 76.1807H65.9762L80.5318 77.5009C85.4134 78.248 90.244 79.5695 94.9749 81.4522C94.9749 81.4522 99.1299 120.395 99.9503 128.061C100.83 136.391 101.71 144.977 101.71 144.977L106.381 189.781C107.863 192.545 107.479 195.404 107.268 198.253C90.9655 208.502 72.8637 210.402 52.0426 198.652C51.766 197.933 51.6298 197.12 51.6484 196.299C51.667 195.478 51.8398 194.68 52.1484 193.988C52.3601 184.87 52.81 165.047 53.1276 158.949C53.1276 158.949 50.8318 140.418 49.1579 133.304C47.1731 124.812 43.812 111.163 43.812 104.163C43.7988 97.7229 49.6078 84.3777 49.6078 84.3777Z" fill="#455A64"/>
<path opacity="0.3" d="M60.657 161.475C60.657 161.475 65.9499 168.123 69.3242 167.858C72.6984 167.592 81.7361 156.868 81.7361 156.868C81.7361 156.868 95.8815 164.372 99.0374 164.467C102.193 164.562 103.735 164.467 103.735 164.467V153.904L82.7682 144.264L63.535 148.348L60.657 161.475Z" fill="#4A3B3B"/>
<path d="M96.3841 94.2451C96.4767 94.2451 97.747 105.529 99.2158 119.482C100.685 133.435 101.796 144.776 101.703 144.805C101.611 144.833 100.341 133.521 98.8717 119.558C97.403 105.596 96.2914 94.2641 96.3841 94.2451Z" fill="#263238"/>
<path d="M53.8358 141.7C53.7035 141.766 51.3151 142.963 51.1894 145.024C51.0637 147.085 52.5126 149.137 52.5126 149.137C52.2951 149.453 52.1279 149.832 52.0226 150.25C51.9173 150.668 51.8765 151.113 51.9029 151.556C51.9293 151.999 52.0224 152.428 52.1756 152.813C52.3289 153.199 52.5387 153.533 52.7905 153.791C52.7905 153.791 51.4673 157.467 55.0995 158.54C55.0995 158.54 54.7158 162.111 57.0182 162.871C59.3207 163.631 60.5116 161.836 60.677 161.466C60.7923 161.289 60.8566 161.057 60.8566 160.815C60.8566 160.573 60.7923 160.34 60.677 160.164L64.9709 159.404C64.9709 159.404 74.5445 157.894 75.6031 156.488C76.6616 155.083 75.0738 142.336 73.2609 141.671C71.4481 141.006 56.6609 140.208 53.8358 141.7Z" fill="#FFD7C2"/>
<path d="M57.652 155.14C57.652 155.282 56.9309 155.691 56.2296 156.631C55.5282 157.571 55.1842 158.607 55.085 158.531C55.2211 157.655 55.5396 156.86 55.9982 156.251C56.4567 155.642 57.0336 155.248 57.652 155.121V155.14Z" fill="#626262"/>
<path d="M55.5885 151.483C55.6282 151.626 54.9269 152.006 54.1065 152.585C53.2861 153.165 52.823 153.991 52.7436 153.905C52.6642 153.82 53.0611 152.794 53.9411 152.148C54.4368 151.712 55.0071 151.482 55.5885 151.483Z" fill="#626262"/>
<path d="M54.6166 147.179C54.6166 147.322 54.0542 147.654 53.4323 148.291C52.8104 148.927 52.4002 149.592 52.3142 149.516C52.2282 149.44 52.559 148.566 53.2338 147.882C53.6153 147.403 54.1101 147.152 54.6166 147.179Z" fill="#626262"/>
<path d="M112.422 126.484C112.323 126.484 115.334 140.94 115.334 140.94L102.055 145.689L100.923 137.416L100.222 129.409L112.422 126.484Z" fill="#FFD7C2"/>
<path d="M73.6777 135.196C74.1343 135.529 101.942 137.295 101.942 137.295C101.942 137.295 112.217 136.745 114.897 138.882C114.897 138.882 118.35 152.626 114.235 158.277C110.874 162.931 107.539 162.817 103.259 161.896C98.4156 160.851 76.9395 149.634 76.9395 149.634L73.6777 135.196Z" fill="#FFD7C2"/>
<path d="M111.51 139.64C109.88 138.862 108.218 138.227 106.535 137.74C104.833 137.413 103.117 137.248 101.4 137.246C101.889 137.033 102.398 136.93 102.909 136.942C105.38 136.774 107.848 137.366 110.147 138.68C110.632 138.902 111.091 139.226 111.51 139.64Z" fill="#626262"/>
<path d="M93.5266 108.341C94.044 107.279 94.5083 106.164 94.916 105.007C95.2931 103.754 95.3857 99.1659 96.3186 97.8742C97.2515 96.5824 100.13 92.6881 101.228 91.2253C102.326 89.7626 102.67 88.7938 103.345 89.7816C103.695 90.4034 103.899 91.1677 103.929 91.9658C103.958 92.7638 103.812 93.555 103.51 94.2268C102.888 95.87 100.732 98.6625 101.049 100.287C101.367 101.911 101.334 103.44 103.292 103.421C105.25 103.402 110.662 101.066 113.309 100.163C117.027 98.8905 117.881 100.61 117.881 100.61C117.881 100.61 119.733 99.9828 120.117 101.18C120.501 102.376 119.197 103.934 118.622 104.589C118.046 105.245 118.509 107.885 114.407 111.428C113.865 111.894 115.102 113.233 111.033 115.816C108.711 117.289 107.136 118.77 104.47 119.473C98.8262 120.974 96.3848 125.638 96.3848 125.638C96.2525 125.638 88.3461 114.648 89.8149 112.863L93.5266 108.341Z" fill="#FFD7C2"/>
<path d="M117.86 100.433C117.86 100.433 117.999 100.576 118.005 100.984C117.984 101.263 117.918 101.53 117.812 101.766C117.706 102.001 117.564 102.199 117.397 102.342C116.349 103.193 115.259 103.929 114.135 104.546C113.021 105.178 111.884 105.72 110.728 106.17C110.255 106.4 109.763 106.537 109.265 106.579C109.265 106.436 111.422 105.562 114.009 104.08C115.293 103.34 116.477 102.627 117.258 102.057C117.41 101.956 117.546 101.809 117.656 101.628C117.767 101.446 117.85 101.233 117.899 101.003C117.899 100.642 117.827 100.443 117.86 100.433Z" fill="#626262"/>
<path d="M118.509 104.8C118.147 105.312 117.737 105.749 117.292 106.101C116.258 107.038 115.182 107.872 114.07 108.599C112.959 109.346 111.814 109.981 110.642 110.499C110.165 110.747 109.667 110.907 109.16 110.974C109.16 110.822 111.35 109.901 113.924 108.2C116.498 106.5 118.456 104.686 118.509 104.8Z" fill="#626262"/>
<path d="M110.126 114.41C110.777 113.752 111.478 113.204 112.216 112.776C112.908 112.202 113.643 111.743 114.406 111.408C113.804 112.175 113.115 112.788 112.369 113.222C111.676 113.805 110.916 114.207 110.126 114.41Z" fill="#626262"/>
<path d="M52.0366 137.949C52.0366 137.949 59.976 161.695 66.8502 163.053C73.7244 164.411 78.9777 153.659 81.4058 149.698C84.5419 144.607 99.9311 120.111 99.9311 120.111L91.78 110.613L70.8398 131.984L66.8701 122.486L52.0366 137.949Z" fill="#FFD7C2"/>
<path d="M62.8011 160.077C62.5685 159.94 62.3467 159.768 62.1395 159.564C61.904 159.335 61.6827 159.078 61.4779 158.795C61.1774 158.437 60.8944 158.049 60.631 157.636C59.1252 155.245 57.7764 152.66 56.6018 149.914C55.2058 146.722 54.0546 143.74 53.2937 141.555C52.8967 140.463 52.5858 139.57 52.3807 138.943C52.2601 138.645 52.1667 138.326 52.1028 137.993C52.2578 138.289 52.3909 138.607 52.4998 138.943C52.7776 139.627 53.1084 140.472 53.5054 141.47C54.3523 143.607 55.5366 146.561 56.926 149.733C58.0932 152.455 59.4026 155.046 60.8427 157.484C61.0909 157.902 61.356 158.298 61.6367 158.671C61.8455 158.965 62.0664 159.241 62.2983 159.497C62.4817 159.66 62.6506 159.855 62.8011 160.077Z" fill="#626262"/>
<path d="M89.1079 137.389C88.997 137.709 88.8593 138.009 88.6977 138.282C88.4132 138.842 87.9898 139.63 87.4473 140.58C86.3556 142.48 84.8008 145.035 83.0277 147.799C81.2545 150.563 79.6336 153.032 78.4361 154.79C77.8406 155.673 77.351 156.376 77.007 156.851C76.8409 157.121 76.652 157.36 76.4446 157.563C76.5772 157.258 76.7325 156.975 76.9077 156.718L78.264 154.552L82.7763 147.466C84.5362 144.702 86.1241 142.185 87.262 140.352L88.5853 138.168C88.7358 137.877 88.9114 137.615 89.1079 137.389Z" fill="#626262"/>
<path d="M60.3394 102.507C64.7656 114.352 69.741 126.709 69.741 126.709L51.0371 141.754C51.0371 141.754 43.6997 117.952 43.6402 117.315C43.6402 117.315 41.04 102.726 43.4285 94.5193C44.7704 90.3467 46.9142 86.8109 49.608 84.3276" fill="#455A64"/>
<path d="M49.607 84.3789L49.5143 84.4834L49.2166 84.7873C48.9652 85.0533 48.555 85.4617 48.1183 86.0221C46.7707 87.6277 45.5977 89.5133 44.6382 91.6166C43.973 93.1053 43.4668 94.7285 43.1363 96.4323C42.7807 98.4443 42.5985 100.511 42.5938 102.587C42.5755 107.531 42.9799 112.46 43.798 117.262C43.9965 118.031 44.2743 118.953 44.5257 119.808C44.7772 120.663 45.055 121.555 45.3197 122.448L46.9803 127.891C48.1117 131.595 49.2894 135.432 50.5002 139.365L51.1949 141.635L50.9567 141.521L69.654 126.504L69.6011 126.789C66.7892 119.494 64.4603 113.434 62.8195 109.17L60.9471 104.249C60.7486 103.698 60.5832 103.3 60.4707 102.939C60.4073 102.796 60.3562 102.643 60.3186 102.483C60.3186 102.483 60.3847 102.625 60.5104 102.91L61.0265 104.183C61.483 105.342 62.138 106.975 62.965 109.056C64.6323 113.301 67.0009 119.323 69.8459 126.58L69.9186 126.76L69.7929 126.865L51.1221 141.977L50.9567 142.11L50.8773 141.844L50.2157 139.574L46.7025 128.1L45.055 122.638L44.228 119.998C43.97 119.048 43.7186 118.316 43.487 117.338C42.6672 112.495 42.2694 107.524 42.3027 102.54C42.321 100.433 42.5165 98.3382 42.8849 96.2993C43.2401 94.5966 43.7709 92.9798 44.4596 91.5026C45.4484 89.3993 46.6555 87.5255 48.0389 85.9461C48.5219 85.3952 48.9123 84.9963 49.1769 84.7588L49.4813 84.4929L49.607 84.3789Z" fill="#263238"/>
<path d="M68.4387 145.642C68.2969 144.956 68.2366 144.24 68.2601 143.524C68.2219 140.044 68.881 136.622 70.1589 133.665C70.3966 133.033 70.7051 132.462 71.072 131.974C70.231 134.045 69.5521 136.243 69.0474 138.528C68.6596 140.859 68.4554 143.246 68.4387 145.642Z" fill="#626262"/>
<path d="M55.2305 62.6274C56.0245 61.6205 57.1492 61.3451 57.9498 60.3763C58.3368 59.8515 58.6464 59.2203 58.8601 58.5203C59.0738 57.8203 59.1872 57.0657 59.1936 56.3015C59.1992 54.7709 59.0476 53.2474 58.7437 51.7803L67.3448 67.6425C66.7267 69.4348 65.8807 71.0455 64.8505 72.3916C64.3389 73.0574 63.7163 73.5226 63.043 73.7422C62.3696 73.9618 61.6682 73.9285 61.0065 73.6454C59.6832 72.9615 58.8364 70.6249 59.4318 68.8013C58.8467 69.5749 58.0803 70.0044 57.2849 70.0044C56.4894 70.0044 55.723 69.5749 55.1379 68.8013C54.5916 67.9566 54.2957 66.8398 54.313 65.6874C54.3303 64.535 54.6594 63.4375 55.2305 62.6274Z" fill="#263238"/>
<path d="M80.1151 16.2949C82.2058 18.5365 82.5498 20.7591 82.6292 21.9939C82.6292 22.3454 82.6292 22.7918 82.3844 22.9437C82.2748 22.9952 82.1566 22.9952 82.047 22.9437L75.0603 19.8283" fill="#263238"/>
<path d="M60.8153 56.2709C59.1658 52.1907 57.7604 47.9169 56.614 43.4957C55.4706 39.0362 55.0961 34.2456 55.5223 29.5332C55.6017 28.8208 56.4354 23.9861 56.9183 23.9102C57.269 23.9102 56.9183 28.2509 57.1764 28.6593C59.3796 32.3352 60.4845 37.2078 60.8748 42.0614C61.2194 46.7993 61.1994 51.5773 60.8153 56.3089" fill="#263238"/>
<path d="M87.8314 56.3566C87.355 50.8951 85.7407 39.7725 84.1991 29.7613C83.4492 24.6084 81.3664 20.0554 78.3705 17.0201C75.3747 13.9848 71.6887 12.693 68.0556 13.4052L67.308 13.5572C59.3686 15.9127 56.3053 27.1113 58.1247 38.6802L63.5831 77.5188L64.0925 78.2312C67.5925 83.1609 71.6482 85.8299 76.0016 85.6684C77.532 85.5999 78.9898 84.7155 80.0907 83.1877C81.1916 81.66 81.8566 79.5984 81.9562 77.4049C81.9959 77.2814 81.2946 71.041 81.2946 71.041C81.2946 71.041 88.8304 67.6501 87.8314 56.3566Z" fill="#FFD7C2"/>
<path d="M81.3089 71.0056C77.7514 71.7186 74.1264 70.9195 70.8818 68.707C70.8818 68.707 74.1105 76.6856 81.6794 74.0736L81.3089 71.0056Z" fill="#626262"/>
<path d="M82.7812 40.7237C82.8278 41.1397 82.76 41.5654 82.5921 41.911C82.4242 42.2566 82.1694 42.495 81.8813 42.5759C81.7421 42.62 81.5981 42.6234 81.458 42.5857C81.3178 42.5479 81.1845 42.47 81.0658 42.3564C80.9472 42.2429 80.8458 42.0961 80.7676 41.9249C80.6895 41.7537 80.6362 41.5616 80.611 41.3601C80.5627 40.9438 80.6297 40.5169 80.7979 40.1707C80.9661 39.8245 81.222 39.5866 81.5108 39.5079C81.6501 39.4638 81.7941 39.4605 81.9342 39.4982C82.0743 39.5359 82.2077 39.6139 82.3264 39.7274C82.445 39.841 82.5464 39.9877 82.6246 40.1589C82.7027 40.3301 82.756 40.5222 82.7812 40.7237Z" fill="#263238"/>
<path d="M83.0472 35.0442C82.9281 35.2816 82.0084 34.5503 80.8308 34.8067C79.6531 35.0632 78.8459 36.0985 78.7202 35.918C78.5945 35.7376 78.7202 35.4241 79.0841 34.9682C79.5448 34.3492 80.1268 33.948 80.7514 33.8189C81.3676 33.6917 81.996 33.8515 82.5443 34.2748C82.9413 34.5788 83.1067 34.9397 83.0472 35.0442Z" fill="#263238"/>
<path d="M72.5995 42.8306C72.646 43.2455 72.5781 43.67 72.4101 44.014C72.2421 44.3581 71.9872 44.5946 71.6997 44.6733C71.5605 44.7174 71.4165 44.7208 71.2764 44.6831C71.1362 44.6453 71.0028 44.5674 70.8842 44.4538C70.7656 44.3403 70.6641 44.1935 70.586 44.0223C70.5078 43.8511 70.4546 43.659 70.4294 43.4575C70.4016 43.248 70.4028 43.0326 70.433 42.8237C70.4631 42.6148 70.5217 42.4165 70.6052 42.2401C70.6888 42.0637 70.7957 41.9126 70.92 41.7956C71.0442 41.6785 71.1833 41.5977 71.3292 41.5578C71.4712 41.5155 71.6178 41.5152 71.7599 41.5571C71.9019 41.5989 72.0366 41.6819 72.1555 41.8011C72.2744 41.9203 72.3752 42.073 72.4515 42.2501C72.5279 42.4271 72.5782 42.6247 72.5995 42.8306Z" fill="#263238"/>
<path d="M71.5002 37.8549C71.3877 38.0924 70.4681 37.361 69.2838 37.6175C68.0995 37.8739 67.2989 38.9092 67.1732 38.7288C67.0475 38.5483 67.1732 38.2349 67.5437 37.7789C68 37.1491 68.5838 36.7433 69.211 36.6201C69.8251 36.493 70.4514 36.6528 70.9974 37.0761C71.401 37.361 71.5862 37.7504 71.5002 37.8549Z" fill="#263238"/>
<path d="M77.0247 50.2942C77.6173 49.8616 78.2467 49.5423 78.8971 49.3444C79.1948 49.2399 79.4727 49.0879 79.4925 48.7745C79.4736 48.3151 79.3583 47.8747 79.1617 47.5112C78.778 46.4949 78.3744 45.431 77.9443 44.3197C76.244 39.7795 74.9671 36.0182 75.0928 35.9232C75.2185 35.8282 76.7005 39.4281 78.4009 43.9683L79.5851 47.1787C79.8237 47.6767 79.938 48.2759 79.9093 48.8789C79.8808 49.0432 79.8266 49.1961 79.751 49.3261C79.6754 49.4561 79.5802 49.5597 79.4727 49.6293C79.3127 49.7345 79.1436 49.808 78.9698 49.8478C78.3374 50.1151 77.6837 50.2651 77.0247 50.2942Z" fill="#263238"/>
<path d="M71.3601 32.354C71.2411 32.8289 70.0369 32.601 68.6475 32.8479C67.2581 33.0949 66.1201 33.6553 65.9349 33.2279C65.8489 33.0189 66.0474 32.5725 66.5039 32.1166C67.1092 31.5504 67.7985 31.1953 68.5165 31.0799C69.2345 30.9644 69.9614 31.0918 70.639 31.4517C71.1484 31.7556 71.4131 32.126 71.3601 32.354Z" fill="#263238"/>
<path d="M82.927 32.199C82.7219 32.6455 81.7163 32.465 80.5651 32.7119C79.4139 32.9589 78.4611 33.4623 78.1899 33.1014C78.0708 32.9304 78.1899 32.503 78.567 32.0281C79.105 31.4335 79.7452 31.0593 80.4195 30.9453C81.091 30.796 81.7782 30.9177 82.4044 31.2967C82.8344 31.6576 83.0131 31.9806 82.927 32.199Z" fill="#263238"/>
<path d="M59.5602 46.8619C59.4212 46.8049 54.0555 45.6651 54.9685 53.3397C55.8816 61.0143 60.9231 58.0889 60.9231 57.8704C60.9231 57.6519 59.5602 46.8619 59.5602 46.8619Z" fill="#FFD7C2"/>
<path d="M59.0173 55.4079C59.0173 55.4079 58.9313 55.5219 58.7923 55.6644C58.5974 55.8491 58.3609 55.9204 58.1307 55.8639C57.5485 55.7024 56.9266 54.5341 56.7347 53.1568C56.6382 52.5056 56.6382 51.8325 56.7347 51.1812C56.7544 50.929 56.8165 50.6875 56.9156 50.4774C57.0147 50.2672 57.1479 50.0948 57.3037 49.9749C57.4027 49.9073 57.5154 49.8932 57.6211 49.9351C57.7267 49.9769 57.8184 50.072 57.8793 50.2029C57.9785 50.4023 57.9653 50.5638 57.9918 50.5638C58.0182 50.5638 58.091 50.4118 57.9918 50.1079C57.9408 49.9256 57.8473 49.7745 57.7271 49.6805C57.6469 49.6175 57.5584 49.579 57.4673 49.5676C57.3762 49.5561 57.2845 49.5719 57.1978 49.614C56.9883 49.7285 56.8025 49.9176 56.6579 50.1635C56.5132 50.4094 56.4144 50.704 56.3708 51.0197C56.225 51.739 56.2023 52.4982 56.3047 53.2328C56.523 54.7716 57.2375 56.0823 58.0315 56.2153C58.1793 56.2389 58.329 56.2135 58.4689 56.141C58.6088 56.0686 58.7353 55.951 58.8386 55.7974C59.0173 55.5599 59.0173 55.4079 59.0173 55.4079Z" fill="#626262"/>
<path d="M79.229 17.9361C79.9899 16.9863 76.9464 13.6904 74.6969 12.864C71.2962 11.6197 66.3407 11.6197 63.595 13.6049C60.2869 15.9985 57.7132 19.3039 56.5488 24.452C55.4529 29.6513 55.3207 35.171 56.165 40.4661C56.3273 42.1002 56.7833 43.6454 57.4883 44.9493C58.4278 46.4501 59.579 47.0105 60.1943 49.499C60.3172 50.3287 60.607 51.0884 61.0279 51.6837C62.1725 52.9184 63.165 51.2087 63.5288 49.651C64.3029 46.3456 63.9787 42.7267 63.6545 39.2598C63.5088 36.7803 63.089 34.35 62.4107 32.0601C61.9939 30.8443 61.4315 29.752 61.0875 28.5077C60.8761 27.9025 60.7572 27.2394 60.739 26.5628C60.7207 25.8862 60.8035 25.2119 60.9816 24.5849C61.0774 24.3209 61.1927 24.0725 61.3257 23.8441C61.9278 22.7207 62.73 21.8516 63.6476 21.3283C64.5653 20.805 65.5643 20.6471 66.5392 20.8711C69.6753 21.612 74.9814 22.5333 76.1128 20.7191C77.7338 18.0976 78.0183 16.6063 78.0183 16.6063L79.229 17.9361Z" fill="#263238"/>
<path d="M55.8937 47.5127C55.7747 47.4082 55.6291 47.4272 55.5166 47.3227C48.2719 40.3604 52.1358 30.7101 51.891 28.1741C51.5602 24.6027 49.2445 29.8553 48.2851 25.3246C47.0214 19.2457 51.183 15.3988 56.3701 11.2576C58.5468 9.51938 64.1772 7.64821 69.3511 7.84767C73.9824 8.01864 77.5022 11.8465 79.6326 14.9524C80.1679 15.1556 80.6666 15.5217 81.0948 16.0257C82.1401 17.9254 81.8953 18.8752 81.8953 18.8752C81.8953 18.8752 71.144 14.0406 64.1441 26.0845C57.1442 38.1283 59.6914 46.2114 57.5279 46.9048L55.8937 47.5127Z" fill="#455A64"/>
<path d="M58.8445 16.0273C58.7197 16.1694 58.5869 16.2965 58.4476 16.4073C58.3152 16.5308 58.1565 16.6732 57.9778 16.8537C57.7992 17.0342 57.5875 17.2241 57.3691 17.4711C56.852 18.0386 56.3614 18.6542 55.9003 19.3138C55.3355 20.1135 54.8115 20.9706 54.3323 21.8783C53.8636 22.7849 53.4392 23.737 53.062 24.7278C52.7612 25.5586 52.4961 26.4151 52.2681 27.2924C52.1622 27.6628 52.0894 28.0142 52.0233 28.3182C51.9571 28.6221 51.8976 28.8786 51.8579 29.097C51.8325 29.3234 51.7926 29.546 51.7388 29.7619C51.7611 29.5317 51.792 29.3034 51.8314 29.078C51.8683 28.8089 51.9147 28.5426 51.9703 28.2802C52.0365 27.9667 52.096 27.6153 52.1953 27.2354C52.4124 26.3439 52.671 25.4744 52.9694 24.6328C53.3422 23.6061 53.769 22.6217 54.2463 21.6883C54.7264 20.7703 55.2574 19.9095 55.8342 19.1143C56.3051 18.4656 56.8094 17.8687 57.3427 17.3286C57.5427 17.114 57.7503 16.9142 57.9646 16.7302C58.1498 16.5497 58.3152 16.4168 58.4476 16.3123C58.5732 16.1992 58.7062 16.1038 58.8445 16.0273Z" fill="#263238"/>
<path d="M79.9291 15.0861C79.9291 15.0861 79.8961 15.0861 79.8299 15.0861L79.5454 15.0006C79.3006 14.9151 78.9301 14.8106 78.4603 14.6777C77.9906 14.5447 77.4018 14.4117 76.7203 14.3167C75.9488 14.2043 75.1732 14.163 74.398 14.1932C72.3779 14.2679 70.3817 14.8398 68.4964 15.8839C67.3786 16.4951 66.3041 17.2585 65.2875 18.1635C64.1959 19.1397 63.1761 20.2727 62.2441 21.5449C61.3101 22.8327 60.474 24.2591 59.7498 25.8002C59.0807 27.2464 58.507 28.7791 58.0362 30.3784C57.255 33.1279 56.6934 35.9957 56.3623 38.9269C56.0646 41.4154 55.9389 43.4576 55.8529 44.8728C55.8132 45.5662 55.7867 46.1076 55.7603 46.497C55.7603 46.668 55.7603 46.8105 55.7603 46.915C55.7603 47.0195 55.7603 47.0669 55.7603 47.0669C55.7603 47.0669 55.7603 47.01 55.7603 46.915C55.7603 46.82 55.7603 46.668 55.7603 46.497C55.7603 46.1171 55.7603 45.5472 55.8198 44.8633C55.886 43.4481 55.9984 41.4059 56.2829 38.8984C56.603 35.9669 57.158 33.0984 57.937 30.3499C58.4047 28.7304 58.9784 27.1784 59.6506 25.7147C60.3798 24.1621 61.2226 22.726 62.1647 21.431C63.1043 20.1469 64.1329 19.0043 65.2346 18.0211C66.2608 17.1144 67.344 16.348 68.4699 15.732C70.3739 14.6939 72.3882 14.1348 74.4245 14.0793C75.2024 14.0553 75.9806 14.1092 76.7534 14.2407C77.415 14.3452 78.0237 14.5067 78.4934 14.6302C78.9632 14.7536 79.3337 14.9056 79.5785 15.0006L79.8564 15.1146L79.9291 15.0861Z" fill="#263238"/>
<path d="M58.7802 42.8232C58.3211 43.0841 57.8164 43.1306 57.3379 42.9562C56.8386 42.8455 56.3759 42.5134 56.0146 42.0063C56.4414 42.2878 56.8841 42.5166 57.3379 42.6902C57.8144 42.8031 58.2976 42.8477 58.7802 42.8232Z" fill="#263238"/>
<path d="M60.6787 35.2901C60.4955 35.3466 60.3061 35.3466 60.1229 35.2901C59.2127 35.057 58.3846 34.3873 57.7742 33.3905C57.6331 33.204 57.5205 32.9776 57.4434 32.7256C58.2861 34.0825 59.4286 34.9814 60.6787 35.2711V35.2901Z" fill="#263238"/>
<path d="M64.3615 25.639C63.981 24.9674 63.5699 24.3328 63.1309 23.7393C62.6636 23.2359 62.1728 22.779 61.6621 22.3716C62.2426 22.6331 62.7816 23.0562 63.2482 23.6169C63.7148 24.1775 64.0998 24.8646 64.3814 25.639H64.3615Z" fill="#263238"/>
<path d="M68.6623 20.8906C68.443 20.168 68.1911 19.4668 67.9081 18.7915C67.5916 18.1525 67.2468 17.5433 66.876 16.9678C67.3557 17.3883 67.7557 17.9723 68.0404 18.668C68.3684 19.3269 68.5816 20.0891 68.6623 20.8906Z" fill="#263238"/>
<path d="M75.7037 18.2883C75.6879 17.5014 75.5713 16.7254 75.3597 15.9992C75.1041 15.3061 74.7634 14.6851 74.354 14.166C74.5107 14.2425 74.6532 14.3692 74.7708 14.5364C75.0792 14.9118 75.3275 15.3783 75.4986 15.9042C75.6699 16.4312 75.7623 17.004 75.7699 17.5854C75.7878 17.8239 75.7651 18.0651 75.7037 18.2883Z" fill="#263238"/>
<path d="M80.1886 18.6475C80.1833 18.0312 80.1523 17.4159 80.0959 16.8048C79.9885 16.2112 79.8559 15.6276 79.699 15.0571C79.9969 15.5354 80.1882 16.1309 80.2481 16.7668C80.3568 17.3886 80.3361 18.0425 80.1886 18.6475Z" fill="#263238"/>
<path d="M77.8453 54.6389C77.7659 54.6389 74.2924 52.7393 74.2924 52.7393C74.2924 52.7393 73.2867 55.5888 74.5041 56.947C75.7215 58.3053 77.2035 57.4409 77.435 56.6526C77.6098 55.9985 77.747 55.3251 77.8453 54.6389Z" fill="#626262"/>
<path d="M77.0666 57.1526C77.0666 57.1526 76.9542 57.4281 76.6101 57.58C76.1334 57.7383 75.6379 57.7383 75.1612 57.58C74.677 57.3883 74.2539 56.9621 73.9636 56.3737C73.823 56.0057 73.7347 55.6012 73.704 55.1837C73.6734 54.7663 73.7009 54.3442 73.785 53.9422C73.8679 53.4522 73.9946 52.9796 74.1621 52.5364L74.2283 52.356L74.3672 52.4319C75.6128 53.0527 76.8247 53.8052 77.9929 54.683C76.7111 54.2306 75.4548 53.6401 74.2349 52.9164L74.44 52.8119C74.2914 53.2135 74.1802 53.6414 74.1092 54.0847C73.9605 54.7709 74.0032 55.5133 74.2283 56.1553C74.4729 56.6631 74.8259 57.0431 75.2339 57.2381C75.6656 57.3991 76.1142 57.4442 76.5572 57.3711C76.7298 57.3123 76.8999 57.2394 77.0666 57.1526Z" fill="#263238"/>
</svg>
